G04 #@! TF.GenerationSoftware,KiCad,Pcbnew,(6.0.1)*
G04 #@! TF.CreationDate,2023-08-09T21:54:41+02:00*
G04 #@! TF.ProjectId,VT100_GRAPH,56543130-305f-4475-9241-50482e6b6963,rev?*
G04 #@! TF.SameCoordinates,Original*
G04 #@! TF.FileFunction,Copper,L1,Top*
G04 #@! TF.FilePolarity,Positive*
%FSLAX46Y46*%
G04 Gerber Fmt 4.6, Leading zero omitted, Abs format (unit mm)*
G04 Created by KiCad (PCBNEW (6.0.1)) date 2023-08-09 21:54:41*
%MOMM*%
%LPD*%
G01*
G04 APERTURE LIST*
G04 #@! TA.AperFunction,ComponentPad*
%ADD10C,1.400000*%
G04 #@! TD*
G04 #@! TA.AperFunction,ComponentPad*
%ADD11O,1.400000X1.400000*%
G04 #@! TD*
G04 #@! TA.AperFunction,ComponentPad*
%ADD12R,1.600000X1.600000*%
G04 #@! TD*
G04 #@! TA.AperFunction,ComponentPad*
%ADD13O,1.600000X1.600000*%
G04 #@! TD*
G04 #@! TA.AperFunction,ComponentPad*
%ADD14R,1.700000X1.700000*%
G04 #@! TD*
G04 #@! TA.AperFunction,ComponentPad*
%ADD15O,1.700000X1.700000*%
G04 #@! TD*
G04 #@! TA.AperFunction,ComponentPad*
%ADD16C,1.600000*%
G04 #@! TD*
G04 #@! TA.AperFunction,ComponentPad*
%ADD17C,4.000000*%
G04 #@! TD*
G04 #@! TA.AperFunction,ViaPad*
%ADD18C,0.800000*%
G04 #@! TD*
G04 #@! TA.AperFunction,Conductor*
%ADD19C,0.250000*%
G04 #@! TD*
G04 #@! TA.AperFunction,Conductor*
%ADD20C,1.000000*%
G04 #@! TD*
G04 APERTURE END LIST*
D10*
X93710000Y-35560000D03*
D11*
X95610000Y-35560000D03*
D12*
X34925000Y-17780000D03*
D13*
X34925000Y-20320000D03*
X34925000Y-22860000D03*
X34925000Y-25400000D03*
X34925000Y-27940000D03*
X34925000Y-30480000D03*
X34925000Y-33020000D03*
X34925000Y-35560000D03*
X34925000Y-38100000D03*
X34925000Y-40640000D03*
X42545000Y-40640000D03*
X42545000Y-38100000D03*
X42545000Y-35560000D03*
X42545000Y-33020000D03*
X42545000Y-30480000D03*
X42545000Y-27940000D03*
X42545000Y-25400000D03*
X42545000Y-22860000D03*
X42545000Y-20320000D03*
X42545000Y-17780000D03*
D12*
X70860000Y-17785000D03*
D13*
X70860000Y-20325000D03*
X70860000Y-22865000D03*
X70860000Y-25405000D03*
X70860000Y-27945000D03*
X70860000Y-30485000D03*
X70860000Y-33025000D03*
X70860000Y-35565000D03*
X70860000Y-38105000D03*
X70860000Y-40645000D03*
X78480000Y-40645000D03*
X78480000Y-38105000D03*
X78480000Y-35565000D03*
X78480000Y-33025000D03*
X78480000Y-30485000D03*
X78480000Y-27945000D03*
X78480000Y-25405000D03*
X78480000Y-22865000D03*
X78480000Y-20325000D03*
X78480000Y-17785000D03*
D14*
X103505000Y-46990000D03*
D15*
X106045000Y-46990000D03*
X103505000Y-49530000D03*
X106045000Y-49530000D03*
X103505000Y-52070000D03*
X106045000Y-52070000D03*
X103505000Y-54610000D03*
X106045000Y-54610000D03*
X103505000Y-57150000D03*
X106045000Y-57150000D03*
X103505000Y-59690000D03*
X106045000Y-59690000D03*
X103505000Y-62230000D03*
X106045000Y-62230000D03*
X103505000Y-64770000D03*
X106045000Y-64770000D03*
X103505000Y-67310000D03*
X106045000Y-67310000D03*
X103505000Y-69850000D03*
X106045000Y-69850000D03*
X103505000Y-72390000D03*
X106045000Y-72390000D03*
X103505000Y-74930000D03*
X106045000Y-74930000D03*
X103505000Y-77470000D03*
X106045000Y-77470000D03*
X103505000Y-80010000D03*
X106045000Y-80010000D03*
X103505000Y-82550000D03*
X106045000Y-82550000D03*
X103505000Y-85090000D03*
X106045000Y-85090000D03*
X103505000Y-87630000D03*
X106045000Y-87630000D03*
X103505000Y-90170000D03*
X106045000Y-90170000D03*
X103505000Y-92710000D03*
X106045000Y-92710000D03*
X103505000Y-95250000D03*
X106045000Y-95250000D03*
X103505000Y-97790000D03*
X106045000Y-97790000D03*
X103505000Y-100330000D03*
X106045000Y-100330000D03*
X103505000Y-102870000D03*
X106045000Y-102870000D03*
X103505000Y-105410000D03*
X106045000Y-105410000D03*
X103505000Y-107950000D03*
X106045000Y-107950000D03*
X103505000Y-110490000D03*
X106045000Y-110490000D03*
D12*
X46730000Y-17785000D03*
D13*
X46730000Y-20325000D03*
X46730000Y-22865000D03*
X46730000Y-25405000D03*
X46730000Y-27945000D03*
X46730000Y-30485000D03*
X46730000Y-33025000D03*
X46730000Y-35565000D03*
X46730000Y-38105000D03*
X46730000Y-40645000D03*
X54350000Y-40645000D03*
X54350000Y-38105000D03*
X54350000Y-35565000D03*
X54350000Y-33025000D03*
X54350000Y-30485000D03*
X54350000Y-27945000D03*
X54350000Y-25405000D03*
X54350000Y-22865000D03*
X54350000Y-20325000D03*
X54350000Y-17785000D03*
D14*
X93345000Y-46990000D03*
D15*
X95885000Y-46990000D03*
X93345000Y-49530000D03*
X95885000Y-49530000D03*
X93345000Y-52070000D03*
X95885000Y-52070000D03*
X93345000Y-54610000D03*
X95885000Y-54610000D03*
X93345000Y-57150000D03*
X95885000Y-57150000D03*
X93345000Y-59690000D03*
X95885000Y-59690000D03*
X93345000Y-62230000D03*
X95885000Y-62230000D03*
X93345000Y-64770000D03*
X95885000Y-64770000D03*
X93345000Y-67310000D03*
X95885000Y-67310000D03*
X93345000Y-69850000D03*
X95885000Y-69850000D03*
X93345000Y-72390000D03*
X95885000Y-72390000D03*
X93345000Y-74930000D03*
X95885000Y-74930000D03*
X93345000Y-77470000D03*
X95885000Y-77470000D03*
X93345000Y-80010000D03*
X95885000Y-80010000D03*
X93345000Y-82550000D03*
X95885000Y-82550000D03*
X93345000Y-85090000D03*
X95885000Y-85090000D03*
X93345000Y-87630000D03*
X95885000Y-87630000D03*
X93345000Y-90170000D03*
X95885000Y-90170000D03*
X93345000Y-92710000D03*
X95885000Y-92710000D03*
X93345000Y-95250000D03*
X95885000Y-95250000D03*
X93345000Y-97790000D03*
X95885000Y-97790000D03*
X93345000Y-100330000D03*
X95885000Y-100330000D03*
X93345000Y-102870000D03*
X95885000Y-102870000D03*
X93345000Y-105410000D03*
X95885000Y-105410000D03*
X93345000Y-107950000D03*
X95885000Y-107950000D03*
X93345000Y-110490000D03*
X95885000Y-110490000D03*
D14*
X108585000Y-46990000D03*
D15*
X111125000Y-46990000D03*
X108585000Y-49530000D03*
X111125000Y-49530000D03*
X108585000Y-52070000D03*
X111125000Y-52070000D03*
X108585000Y-54610000D03*
X111125000Y-54610000D03*
X108585000Y-57150000D03*
X111125000Y-57150000D03*
X108585000Y-59690000D03*
X111125000Y-59690000D03*
X108585000Y-62230000D03*
X111125000Y-62230000D03*
X108585000Y-64770000D03*
X111125000Y-64770000D03*
X108585000Y-67310000D03*
X111125000Y-67310000D03*
X108585000Y-69850000D03*
X111125000Y-69850000D03*
X108585000Y-72390000D03*
X111125000Y-72390000D03*
X108585000Y-74930000D03*
X111125000Y-74930000D03*
X108585000Y-77470000D03*
X111125000Y-77470000D03*
X108585000Y-80010000D03*
X111125000Y-80010000D03*
X108585000Y-82550000D03*
X111125000Y-82550000D03*
X108585000Y-85090000D03*
X111125000Y-85090000D03*
X108585000Y-87630000D03*
X111125000Y-87630000D03*
X108585000Y-90170000D03*
X111125000Y-90170000D03*
X108585000Y-92710000D03*
X111125000Y-92710000D03*
X108585000Y-95250000D03*
X111125000Y-95250000D03*
X108585000Y-97790000D03*
X111125000Y-97790000D03*
X108585000Y-100330000D03*
X111125000Y-100330000D03*
X108585000Y-102870000D03*
X111125000Y-102870000D03*
X108585000Y-105410000D03*
X111125000Y-105410000D03*
X108585000Y-107950000D03*
X111125000Y-107950000D03*
X108585000Y-110490000D03*
X111125000Y-110490000D03*
D16*
X72390000Y-50880000D03*
X72390000Y-55880000D03*
D10*
X93710000Y-26035000D03*
D11*
X95610000Y-26035000D03*
D16*
X87630000Y-100965000D03*
X87630000Y-95965000D03*
X88225000Y-39370000D03*
X83225000Y-39370000D03*
D10*
X93710000Y-27940000D03*
D11*
X95610000Y-27940000D03*
D12*
X62870000Y-85715000D03*
D13*
X65410000Y-85715000D03*
X67950000Y-85715000D03*
X70490000Y-85715000D03*
X73030000Y-85715000D03*
X75570000Y-85715000D03*
X78110000Y-85715000D03*
X80650000Y-85715000D03*
X83190000Y-85715000D03*
X85730000Y-85715000D03*
X85730000Y-78095000D03*
X83190000Y-78095000D03*
X80650000Y-78095000D03*
X78110000Y-78095000D03*
X75570000Y-78095000D03*
X73030000Y-78095000D03*
X70490000Y-78095000D03*
X67950000Y-78095000D03*
X65410000Y-78095000D03*
X62870000Y-78095000D03*
D12*
X34925000Y-106045000D03*
D13*
X37465000Y-106045000D03*
X40005000Y-106045000D03*
X42545000Y-106045000D03*
X45085000Y-106045000D03*
X47625000Y-106045000D03*
X50165000Y-106045000D03*
X52705000Y-106045000D03*
X55245000Y-106045000D03*
X57785000Y-106045000D03*
X60325000Y-106045000D03*
X62865000Y-106045000D03*
X65405000Y-106045000D03*
X67945000Y-106045000D03*
X70485000Y-106045000D03*
X73025000Y-106045000D03*
X75565000Y-106045000D03*
X78105000Y-106045000D03*
X80645000Y-106045000D03*
X83185000Y-106045000D03*
X83185000Y-90805000D03*
X80645000Y-90805000D03*
X78105000Y-90805000D03*
X75565000Y-90805000D03*
X73025000Y-90805000D03*
X70485000Y-90805000D03*
X67945000Y-90805000D03*
X65405000Y-90805000D03*
X62865000Y-90805000D03*
X60325000Y-90805000D03*
X57785000Y-90805000D03*
X55245000Y-90805000D03*
X52705000Y-90805000D03*
X50165000Y-90805000D03*
X47625000Y-90805000D03*
X45085000Y-90805000D03*
X42545000Y-90805000D03*
X40005000Y-90805000D03*
X37465000Y-90805000D03*
X34925000Y-90805000D03*
D16*
X73065000Y-44450000D03*
X78065000Y-44450000D03*
D14*
X20955000Y-106680000D03*
D15*
X23495000Y-106680000D03*
X20955000Y-104140000D03*
X23495000Y-104140000D03*
X20955000Y-101600000D03*
X23495000Y-101600000D03*
X20955000Y-99060000D03*
X23495000Y-99060000D03*
X20955000Y-96520000D03*
X23495000Y-96520000D03*
X20955000Y-93980000D03*
X23495000Y-93980000D03*
X20955000Y-91440000D03*
X23495000Y-91440000D03*
X20955000Y-88900000D03*
X23495000Y-88900000D03*
X20955000Y-86360000D03*
X23495000Y-86360000D03*
X20955000Y-83820000D03*
X23495000Y-83820000D03*
X20955000Y-81280000D03*
X23495000Y-81280000D03*
X20955000Y-78740000D03*
X23495000Y-78740000D03*
X20955000Y-76200000D03*
X23495000Y-76200000D03*
X20955000Y-73660000D03*
X23495000Y-73660000D03*
X20955000Y-71120000D03*
X23495000Y-71120000D03*
X20955000Y-68580000D03*
X23495000Y-68580000D03*
X20955000Y-66040000D03*
X23495000Y-66040000D03*
X20955000Y-63500000D03*
X23495000Y-63500000D03*
X20955000Y-60960000D03*
X23495000Y-60960000D03*
X20955000Y-58420000D03*
X23495000Y-58420000D03*
X20955000Y-55880000D03*
X23495000Y-55880000D03*
X20955000Y-53340000D03*
X23495000Y-53340000D03*
X20955000Y-50800000D03*
X23495000Y-50800000D03*
X20955000Y-48260000D03*
X23495000Y-48260000D03*
X20955000Y-45720000D03*
X23495000Y-45720000D03*
X20955000Y-43180000D03*
X23495000Y-43180000D03*
X20955000Y-40640000D03*
X23495000Y-40640000D03*
X20955000Y-38100000D03*
X23495000Y-38100000D03*
X20955000Y-35560000D03*
X23495000Y-35560000D03*
X20955000Y-33020000D03*
X23495000Y-33020000D03*
X20955000Y-30480000D03*
X23495000Y-30480000D03*
X20955000Y-27940000D03*
X23495000Y-27940000D03*
X20955000Y-25400000D03*
X23495000Y-25400000D03*
X20955000Y-22860000D03*
X23495000Y-22860000D03*
X20955000Y-20320000D03*
X23495000Y-20320000D03*
X20955000Y-17780000D03*
X23495000Y-17780000D03*
D12*
X82925000Y-17795000D03*
D13*
X82925000Y-20335000D03*
X82925000Y-22875000D03*
X82925000Y-25415000D03*
X82925000Y-27955000D03*
X82925000Y-30495000D03*
X82925000Y-33035000D03*
X82925000Y-35575000D03*
X90545000Y-35575000D03*
X90545000Y-33035000D03*
X90545000Y-30495000D03*
X90545000Y-27955000D03*
X90545000Y-25415000D03*
X90545000Y-22875000D03*
X90545000Y-20335000D03*
X90545000Y-17795000D03*
D12*
X34930000Y-70475000D03*
D13*
X37470000Y-70475000D03*
X40010000Y-70475000D03*
X42550000Y-70475000D03*
X45090000Y-70475000D03*
X47630000Y-70475000D03*
X50170000Y-70475000D03*
X52710000Y-70475000D03*
X55250000Y-70475000D03*
X57790000Y-70475000D03*
X57790000Y-62855000D03*
X55250000Y-62855000D03*
X52710000Y-62855000D03*
X50170000Y-62855000D03*
X47630000Y-62855000D03*
X45090000Y-62855000D03*
X42550000Y-62855000D03*
X40010000Y-62855000D03*
X37470000Y-62855000D03*
X34930000Y-62855000D03*
D10*
X93710000Y-33020000D03*
D11*
X95610000Y-33020000D03*
D12*
X58785000Y-17780000D03*
D13*
X58785000Y-20320000D03*
X58785000Y-22860000D03*
X58785000Y-25400000D03*
X58785000Y-27940000D03*
X58785000Y-30480000D03*
X58785000Y-33020000D03*
X58785000Y-35560000D03*
X58785000Y-38100000D03*
X58785000Y-40640000D03*
X66405000Y-40640000D03*
X66405000Y-38100000D03*
X66405000Y-35560000D03*
X66405000Y-33020000D03*
X66405000Y-30480000D03*
X66405000Y-27940000D03*
X66405000Y-25400000D03*
X66405000Y-22860000D03*
X66405000Y-20320000D03*
X66405000Y-17780000D03*
D12*
X34925000Y-85725000D03*
D13*
X37465000Y-85725000D03*
X40005000Y-85725000D03*
X42545000Y-85725000D03*
X45085000Y-85725000D03*
X47625000Y-85725000D03*
X50165000Y-85725000D03*
X52705000Y-85725000D03*
X55245000Y-85725000D03*
X57785000Y-85725000D03*
X57785000Y-78105000D03*
X55245000Y-78105000D03*
X52705000Y-78105000D03*
X50165000Y-78105000D03*
X47625000Y-78105000D03*
X45085000Y-78105000D03*
X42545000Y-78105000D03*
X40005000Y-78105000D03*
X37465000Y-78105000D03*
X34925000Y-78105000D03*
D12*
X34925000Y-55880000D03*
D13*
X37465000Y-55880000D03*
X40005000Y-55880000D03*
X42545000Y-55880000D03*
X45085000Y-55880000D03*
X47625000Y-55880000D03*
X50165000Y-55880000D03*
X52705000Y-55880000D03*
X55245000Y-55880000D03*
X57785000Y-55880000D03*
X60325000Y-55880000D03*
X62865000Y-55880000D03*
X65405000Y-55880000D03*
X67945000Y-55880000D03*
X67945000Y-48260000D03*
X65405000Y-48260000D03*
X62865000Y-48260000D03*
X60325000Y-48260000D03*
X57785000Y-48260000D03*
X55245000Y-48260000D03*
X52705000Y-48260000D03*
X50165000Y-48260000D03*
X47625000Y-48260000D03*
X45085000Y-48260000D03*
X42545000Y-48260000D03*
X40005000Y-48260000D03*
X37465000Y-48260000D03*
X34925000Y-48260000D03*
D12*
X62870000Y-70475000D03*
D13*
X65410000Y-70475000D03*
X67950000Y-70475000D03*
X70490000Y-70475000D03*
X73030000Y-70475000D03*
X75570000Y-70475000D03*
X78110000Y-70475000D03*
X80650000Y-70475000D03*
X83190000Y-70475000D03*
X85730000Y-70475000D03*
X85730000Y-62855000D03*
X83190000Y-62855000D03*
X80650000Y-62855000D03*
X78110000Y-62855000D03*
X75570000Y-62855000D03*
X73030000Y-62855000D03*
X70490000Y-62855000D03*
X67950000Y-62855000D03*
X65410000Y-62855000D03*
X62870000Y-62855000D03*
D17*
X106825000Y-15455000D03*
X106825000Y-40455000D03*
D12*
X104775000Y-23640000D03*
D16*
X104775000Y-25930000D03*
X104775000Y-28220000D03*
X104775000Y-30510000D03*
X104775000Y-32800000D03*
X106755000Y-22495000D03*
X106755000Y-24785000D03*
X106755000Y-27075000D03*
X106755000Y-29365000D03*
X106755000Y-31655000D03*
X108735000Y-23640000D03*
X108735000Y-25930000D03*
X108735000Y-28220000D03*
X108735000Y-30510000D03*
X108735000Y-32800000D03*
D14*
X98425000Y-46990000D03*
D15*
X100965000Y-46990000D03*
X98425000Y-49530000D03*
X100965000Y-49530000D03*
X98425000Y-52070000D03*
X100965000Y-52070000D03*
X98425000Y-54610000D03*
X100965000Y-54610000D03*
X98425000Y-57150000D03*
X100965000Y-57150000D03*
X98425000Y-59690000D03*
X100965000Y-59690000D03*
X98425000Y-62230000D03*
X100965000Y-62230000D03*
X98425000Y-64770000D03*
X100965000Y-64770000D03*
X98425000Y-67310000D03*
X100965000Y-67310000D03*
X98425000Y-69850000D03*
X100965000Y-69850000D03*
X98425000Y-72390000D03*
X100965000Y-72390000D03*
X98425000Y-74930000D03*
X100965000Y-74930000D03*
X98425000Y-77470000D03*
X100965000Y-77470000D03*
X98425000Y-80010000D03*
X100965000Y-80010000D03*
X98425000Y-82550000D03*
X100965000Y-82550000D03*
X98425000Y-85090000D03*
X100965000Y-85090000D03*
X98425000Y-87630000D03*
X100965000Y-87630000D03*
X98425000Y-90170000D03*
X100965000Y-90170000D03*
X98425000Y-92710000D03*
X100965000Y-92710000D03*
X98425000Y-95250000D03*
X100965000Y-95250000D03*
X98425000Y-97790000D03*
X100965000Y-97790000D03*
X98425000Y-100330000D03*
X100965000Y-100330000D03*
X98425000Y-102870000D03*
X100965000Y-102870000D03*
X98425000Y-105410000D03*
X100965000Y-105410000D03*
X98425000Y-107950000D03*
X100965000Y-107950000D03*
X98425000Y-110490000D03*
X100965000Y-110490000D03*
D18*
X49568600Y-16220300D03*
X33045100Y-94281100D03*
X61518500Y-76668600D03*
X31620100Y-94728200D03*
X61381800Y-77991900D03*
X68829500Y-50044300D03*
X70879200Y-56565500D03*
X66104900Y-54420500D03*
X75863200Y-48596800D03*
X80693100Y-67519800D03*
X75139900Y-51755700D03*
X78423000Y-72887200D03*
X57050600Y-39615900D03*
X61419300Y-54963700D03*
X76501600Y-88175700D03*
X43125700Y-59039900D03*
X45571300Y-58708600D03*
X51200000Y-75800400D03*
X61789500Y-57987300D03*
X64463300Y-56953300D03*
X31918700Y-62824100D03*
X61857600Y-60088600D03*
X72595300Y-52281000D03*
X44582300Y-15755200D03*
X60761900Y-19399500D03*
X77527200Y-51980800D03*
X60533100Y-58836300D03*
X53808800Y-80129300D03*
X36935300Y-51508700D03*
X75356100Y-65922500D03*
X35715700Y-50602900D03*
X54725500Y-81289900D03*
X29182400Y-82499500D03*
X28647100Y-84015400D03*
X57175900Y-65340700D03*
X31120900Y-40340100D03*
X60958200Y-61240200D03*
X46586100Y-53930800D03*
X38735000Y-40533100D03*
X27676700Y-74119200D03*
X32675500Y-48906200D03*
X79689100Y-88201200D03*
X35613500Y-68083600D03*
X72374100Y-27036200D03*
X72745300Y-24872100D03*
X80445400Y-35389900D03*
D19*
X37240700Y-19129400D02*
X36050100Y-20320000D01*
X58785000Y-20320000D02*
X57659900Y-20320000D01*
X56469300Y-19129400D02*
X37240700Y-19129400D01*
X57659900Y-20320000D02*
X56469300Y-19129400D01*
X34925000Y-20320000D02*
X36050100Y-20320000D01*
D20*
X78480000Y-20325000D02*
X70860000Y-20325000D01*
X37465000Y-106045000D02*
X37465000Y-107545100D01*
X34513400Y-68558300D02*
X34930000Y-68974900D01*
X54067100Y-66577900D02*
X50170000Y-70475000D01*
X37465000Y-107545100D02*
X81684900Y-107545100D01*
X45673000Y-16220300D02*
X49568600Y-16220300D01*
X90545000Y-17795000D02*
X89044900Y-17795000D01*
X34930000Y-62855000D02*
X34930000Y-64355100D01*
X88225000Y-39370000D02*
X85173800Y-42421200D01*
X81684900Y-107545100D02*
X83185000Y-106045000D01*
X50170000Y-70475000D02*
X48665200Y-71979800D01*
X34930000Y-64355100D02*
X34513400Y-64771700D01*
X78480000Y-17785000D02*
X79980100Y-17785000D01*
X85173800Y-42421200D02*
X75093800Y-42421200D01*
X48665200Y-71979800D02*
X36434800Y-71979800D01*
X89044900Y-17795000D02*
X87544800Y-16294900D01*
X61369900Y-62855000D02*
X57647000Y-66577900D01*
X67905100Y-17780000D02*
X69359900Y-19234800D01*
X75093800Y-42421200D02*
X73065000Y-44450000D01*
X69359900Y-19234800D02*
X69359900Y-20325000D01*
X34930000Y-70475000D02*
X34930000Y-68974900D01*
X37465000Y-107545100D02*
X36750800Y-108259300D01*
X70860000Y-20325000D02*
X69359900Y-20325000D01*
X66405000Y-17780000D02*
X67905100Y-17780000D01*
X87544800Y-16294900D02*
X81470200Y-16294900D01*
X57647000Y-66577900D02*
X54067100Y-66577900D01*
X20955000Y-106680000D02*
X20955000Y-105690100D01*
X36434800Y-71979800D02*
X34930000Y-70475000D01*
X42545000Y-17780000D02*
X44045100Y-17780000D01*
X36750800Y-108259300D02*
X22534300Y-108259300D01*
X34513400Y-64771700D02*
X34513400Y-68558300D01*
X81470200Y-16294900D02*
X79980100Y-17785000D01*
X44113300Y-17780000D02*
X45673000Y-16220300D01*
X20955000Y-104140000D02*
X20955000Y-105690100D01*
X22534300Y-108259300D02*
X20955000Y-106680000D01*
X44045100Y-17780000D02*
X44113300Y-17780000D01*
X62870000Y-62855000D02*
X61369900Y-62855000D01*
D19*
X55245000Y-90805000D02*
X54119900Y-90805000D01*
X57659900Y-22860000D02*
X57475000Y-22675100D01*
X54995500Y-21732900D02*
X37177200Y-21732900D01*
X57475000Y-22675100D02*
X55937700Y-22675100D01*
X54119900Y-91086300D02*
X50925100Y-94281100D01*
X55937700Y-22675100D02*
X54995500Y-21732900D01*
X61756400Y-76668600D02*
X61518500Y-76668600D01*
X37177200Y-21732900D02*
X36050100Y-22860000D01*
X34925000Y-22860000D02*
X36050100Y-22860000D01*
X50925100Y-94281100D02*
X33045100Y-94281100D01*
X54119900Y-90805000D02*
X54119900Y-91086300D01*
X67950000Y-70475000D02*
X61756400Y-76668600D01*
X58785000Y-22860000D02*
X57659900Y-22860000D01*
X69364900Y-70475000D02*
X69364900Y-70756400D01*
X52740000Y-95006200D02*
X56659900Y-91086300D01*
X31898100Y-95006200D02*
X52740000Y-95006200D01*
X69364900Y-70756400D02*
X68521200Y-71600100D01*
X56474000Y-24214100D02*
X57659900Y-25400000D01*
X68521200Y-71600100D02*
X67773600Y-71600100D01*
X37236000Y-24214100D02*
X56474000Y-24214100D01*
X56659900Y-91086300D02*
X56659900Y-90805000D01*
X34925000Y-25400000D02*
X36050100Y-25400000D01*
X58785000Y-25400000D02*
X57659900Y-25400000D01*
X57785000Y-90805000D02*
X56659900Y-90805000D01*
X31620100Y-94728200D02*
X31898100Y-95006200D01*
X70490000Y-70475000D02*
X69364900Y-70475000D01*
X67773600Y-71600100D02*
X61381800Y-77991900D01*
X36050100Y-25400000D02*
X37236000Y-24214100D01*
X54781700Y-95456300D02*
X59199900Y-91038100D01*
X59199900Y-91038100D02*
X59199900Y-90805000D01*
X23127800Y-97884900D02*
X22319800Y-97076900D01*
X60325000Y-90805000D02*
X59199900Y-90805000D01*
X23495000Y-97884900D02*
X23127800Y-97884900D01*
X31322800Y-95456300D02*
X54781700Y-95456300D01*
X23495000Y-99060000D02*
X23495000Y-97884900D01*
X22319800Y-97076900D02*
X22319800Y-96030300D01*
X36050100Y-27940000D02*
X37236000Y-26754100D01*
X37236000Y-26754100D02*
X56474000Y-26754100D01*
X34925000Y-27940000D02*
X36050100Y-27940000D01*
X22319800Y-96030300D02*
X23005300Y-95344800D01*
X68604200Y-50044300D02*
X68829500Y-50044300D01*
X56474000Y-26754100D02*
X57659900Y-27940000D01*
X58785000Y-27940000D02*
X57659900Y-27940000D01*
X31211300Y-95344800D02*
X31322800Y-95456300D01*
X67945000Y-48260000D02*
X67945000Y-49385100D01*
X23005300Y-95344800D02*
X31211300Y-95344800D01*
X67945000Y-49385100D02*
X68604200Y-50044300D01*
X61739900Y-91086300D02*
X61739900Y-90805000D01*
X57659900Y-30480000D02*
X56469300Y-31670600D01*
X24670100Y-96520000D02*
X56306200Y-96520000D01*
X56306200Y-96520000D02*
X61739900Y-91086300D01*
X62865000Y-90805000D02*
X61739900Y-90805000D01*
X34925000Y-30480000D02*
X36050100Y-30480000D01*
X37240700Y-31670600D02*
X36050100Y-30480000D01*
X56469300Y-31670600D02*
X37240700Y-31670600D01*
X68535700Y-54420500D02*
X66104900Y-54420500D01*
X23495000Y-96520000D02*
X24670100Y-96520000D01*
X70680700Y-56565500D02*
X68535700Y-54420500D01*
X58785000Y-30480000D02*
X57659900Y-30480000D01*
X70879200Y-56565500D02*
X70680700Y-56565500D01*
X23495000Y-93980000D02*
X24670100Y-93980000D01*
X75863200Y-48596800D02*
X74347300Y-47080900D01*
X41275000Y-91190900D02*
X39443700Y-93022200D01*
X64279900Y-90805000D02*
X64279900Y-90523700D01*
X56510400Y-34169500D02*
X37199600Y-34169500D01*
X64936000Y-47080900D02*
X63990100Y-48026800D01*
X34925000Y-33020000D02*
X36050100Y-33020000D01*
X42053700Y-89672800D02*
X41275000Y-90451500D01*
X62865000Y-48260000D02*
X63990100Y-48260000D01*
X25627900Y-93022200D02*
X24670100Y-93980000D01*
X63990100Y-48026800D02*
X63990100Y-48260000D01*
X57659900Y-33020000D02*
X56510400Y-34169500D01*
X78110000Y-69349900D02*
X78863000Y-69349900D01*
X65405000Y-90805000D02*
X64279900Y-90805000D01*
X39443700Y-93022200D02*
X25627900Y-93022200D01*
X63429000Y-89672800D02*
X42053700Y-89672800D01*
X78110000Y-70475000D02*
X78110000Y-69349900D01*
X74347300Y-47080900D02*
X64936000Y-47080900D01*
X41275000Y-90451500D02*
X41275000Y-91190900D01*
X64279900Y-90523700D02*
X63429000Y-89672800D01*
X78863000Y-69349900D02*
X80693100Y-67519800D01*
X58785000Y-33020000D02*
X57659900Y-33020000D01*
X37199600Y-34169500D02*
X36050100Y-33020000D01*
X73139000Y-49754800D02*
X71165400Y-49754800D01*
X70150700Y-50769500D02*
X63726400Y-50769500D01*
X60325000Y-48260000D02*
X61450100Y-48260000D01*
X79710100Y-71600100D02*
X78423000Y-72887200D01*
X67945000Y-90805000D02*
X66819900Y-90805000D01*
X37199600Y-36709500D02*
X36050100Y-35560000D01*
X34925000Y-35560000D02*
X36050100Y-35560000D01*
X56510400Y-36709500D02*
X37199600Y-36709500D01*
X75139900Y-51755700D02*
X73139000Y-49754800D01*
X80650000Y-70475000D02*
X80650000Y-71600100D01*
X57659900Y-35560000D02*
X56510400Y-36709500D01*
X61450100Y-48493200D02*
X61450100Y-48260000D01*
X23495000Y-91440000D02*
X24670100Y-91440000D01*
X71165400Y-49754800D02*
X70150700Y-50769500D01*
X63726400Y-50769500D02*
X61450100Y-48493200D01*
X65518800Y-89222600D02*
X66819900Y-90523700D01*
X80650000Y-71600100D02*
X79710100Y-71600100D01*
X24670100Y-91440000D02*
X26887500Y-89222600D01*
X26887500Y-89222600D02*
X65518800Y-89222600D01*
X58785000Y-35560000D02*
X57659900Y-35560000D01*
X66819900Y-90523700D02*
X66819900Y-90805000D01*
X83190000Y-70475000D02*
X83190000Y-69349900D01*
X70485000Y-90805000D02*
X69359900Y-90805000D01*
X84354300Y-68185600D02*
X84354300Y-62379800D01*
X61739800Y-56346100D02*
X61739800Y-55284200D01*
X56597300Y-39162600D02*
X56529400Y-39230500D01*
X23495000Y-88900000D02*
X24670100Y-88900000D01*
X63585200Y-58191500D02*
X61739800Y-56346100D01*
X61739800Y-55284200D02*
X61419300Y-54963700D01*
X69359900Y-90805000D02*
X69359900Y-90523700D01*
X69359900Y-90523700D02*
X67608600Y-88772400D01*
X83190000Y-69349900D02*
X84354300Y-68185600D01*
X80166000Y-58191500D02*
X63585200Y-58191500D01*
X84354300Y-62379800D02*
X80166000Y-58191500D01*
X24797700Y-88772400D02*
X24670100Y-88900000D01*
X67608600Y-88772400D02*
X24797700Y-88772400D01*
X34925000Y-38100000D02*
X36050100Y-38100000D01*
X56529400Y-39230500D02*
X37180600Y-39230500D01*
X57659900Y-38100000D02*
X56597300Y-39162600D01*
X37180600Y-39230500D02*
X36050100Y-38100000D01*
X58785000Y-38100000D02*
X57659900Y-38100000D01*
X57050600Y-39615900D02*
X56597300Y-39162600D01*
X33713800Y-76931500D02*
X28328700Y-82316600D01*
X56659900Y-55880000D02*
X56659900Y-56114000D01*
X28328700Y-82316600D02*
X28328700Y-82701300D01*
X61567300Y-86840200D02*
X75166100Y-86840200D01*
X53340200Y-59433700D02*
X43519500Y-59433700D01*
X58002700Y-83275600D02*
X61567300Y-86840200D01*
X28328700Y-82701300D02*
X28328800Y-82701300D01*
X40005000Y-78105000D02*
X38879900Y-78105000D01*
X43519500Y-59433700D02*
X43125700Y-59039900D01*
X38879900Y-78105000D02*
X38879900Y-77823700D01*
X24670100Y-86360000D02*
X28328800Y-82701300D01*
X28903000Y-83275600D02*
X58002700Y-83275600D01*
X56659900Y-56114000D02*
X53340200Y-59433700D01*
X38879900Y-77823700D02*
X37987700Y-76931500D01*
X23495000Y-86360000D02*
X24670100Y-86360000D01*
X75166100Y-86840200D02*
X76501600Y-88175700D01*
X57785000Y-55880000D02*
X56659900Y-55880000D01*
X37987700Y-76931500D02*
X33713800Y-76931500D01*
X28328800Y-82701300D02*
X28903000Y-83275600D01*
X54119900Y-55880000D02*
X54119900Y-56161300D01*
X23495000Y-83820000D02*
X24670100Y-83820000D01*
X51572600Y-58708600D02*
X45571300Y-58708600D01*
X40029300Y-76481300D02*
X32008800Y-76481300D01*
X55245000Y-55880000D02*
X54119900Y-55880000D01*
X41419900Y-78105000D02*
X41419900Y-77871900D01*
X42545000Y-78105000D02*
X41419900Y-78105000D01*
X54119900Y-56161300D02*
X51572600Y-58708600D01*
X41419900Y-77871900D02*
X40029300Y-76481300D01*
X32008800Y-76481300D02*
X24670100Y-83820000D01*
X43959900Y-77889600D02*
X42101500Y-76031200D01*
X23495000Y-81280000D02*
X24670100Y-81280000D01*
X29918900Y-76031200D02*
X24670100Y-81280000D01*
X43959900Y-78105000D02*
X43959900Y-77889600D01*
X45085000Y-78105000D02*
X43959900Y-78105000D01*
X42101500Y-76031200D02*
X29918900Y-76031200D01*
X23495000Y-78740000D02*
X24670100Y-78740000D01*
X46499900Y-78105000D02*
X46499900Y-77878400D01*
X46499900Y-77878400D02*
X44187600Y-75566100D01*
X27844000Y-75566100D02*
X24670100Y-78740000D01*
X47625000Y-78105000D02*
X46499900Y-78105000D01*
X44187600Y-75566100D02*
X27844000Y-75566100D01*
X54117500Y-75800400D02*
X51200000Y-75800400D01*
X49039900Y-78105000D02*
X49039900Y-77823700D01*
X60830000Y-57987300D02*
X59055000Y-56212300D01*
X49039900Y-77823700D02*
X46332200Y-75116000D01*
X59055000Y-56212300D02*
X59055000Y-55483500D01*
X49677700Y-54719200D02*
X48750100Y-55646800D01*
X23495000Y-76200000D02*
X24670100Y-76200000D01*
X65410000Y-64507900D02*
X54117500Y-75800400D01*
X61789500Y-57987300D02*
X60830000Y-57987300D01*
X59055000Y-55483500D02*
X58290700Y-54719200D01*
X25754100Y-75116000D02*
X24670100Y-76200000D01*
X50165000Y-78105000D02*
X49039900Y-78105000D01*
X47625000Y-55880000D02*
X48750100Y-55880000D01*
X46332200Y-75116000D02*
X25754100Y-75116000D01*
X65410000Y-62855000D02*
X65410000Y-64507900D01*
X48750100Y-55646800D02*
X48750100Y-55880000D01*
X58290700Y-54719200D02*
X49677700Y-54719200D01*
X62816700Y-54218000D02*
X64135000Y-55536300D01*
X45085000Y-55880000D02*
X46210100Y-55880000D01*
X66824900Y-63729700D02*
X66824900Y-62855000D01*
X64135000Y-56625000D02*
X64463300Y-56953300D01*
X51354100Y-76979900D02*
X52705000Y-76979900D01*
X46210100Y-55703600D02*
X47695700Y-54218000D01*
X47695700Y-54218000D02*
X62816700Y-54218000D01*
X23495000Y-73660000D02*
X24670100Y-73660000D01*
X47748900Y-73374700D02*
X51354100Y-76979900D01*
X24955400Y-73374700D02*
X47748900Y-73374700D01*
X46210100Y-55880000D02*
X46210100Y-55703600D01*
X52705000Y-78105000D02*
X52705000Y-76979900D01*
X52705000Y-76979900D02*
X53574700Y-76979900D01*
X24670100Y-73660000D02*
X24955400Y-73374700D01*
X53574700Y-76979900D02*
X66824900Y-63729700D01*
X64135000Y-55536300D02*
X64135000Y-56625000D01*
X67950000Y-62855000D02*
X66824900Y-62855000D01*
X41419900Y-55646900D02*
X41419900Y-55880000D01*
X42579500Y-64519300D02*
X58036700Y-64519300D01*
X40517600Y-61696800D02*
X41280000Y-62459200D01*
X67235700Y-63980100D02*
X55245000Y-75970800D01*
X69364900Y-62621900D02*
X69364900Y-62855000D01*
X62110600Y-61713900D02*
X68456900Y-61713900D01*
X55245000Y-75970800D02*
X55245000Y-78105000D01*
X33782400Y-54957000D02*
X34007200Y-54732200D01*
X33782400Y-61696800D02*
X40517600Y-61696800D01*
X69364900Y-62855000D02*
X69364900Y-63136400D01*
X68456900Y-61713900D02*
X69364900Y-62621900D01*
X58036700Y-64519300D02*
X60590700Y-61965300D01*
X40505200Y-54732200D02*
X41419900Y-55646900D01*
X70490000Y-62855000D02*
X69364900Y-62855000D01*
X42545000Y-55880000D02*
X41419900Y-55880000D01*
X61859200Y-61965300D02*
X62110600Y-61713900D01*
X69364900Y-63136400D02*
X68521200Y-63980100D01*
X33782400Y-61696800D02*
X33782400Y-54957000D01*
X68521200Y-63980100D02*
X67235700Y-63980100D01*
X41280000Y-62459200D02*
X41280000Y-63219800D01*
X34007200Y-54732200D02*
X40505200Y-54732200D01*
X25903900Y-69944900D02*
X33782400Y-62066400D01*
X33782400Y-62066400D02*
X33782400Y-61696800D01*
X60590700Y-61965300D02*
X61859200Y-61965300D01*
X23495000Y-71120000D02*
X23495000Y-69944900D01*
X41280000Y-63219800D02*
X42579500Y-64519300D01*
X23495000Y-69944900D02*
X25903900Y-69944900D01*
X40005000Y-55880000D02*
X40005000Y-57005100D01*
X75111300Y-66703100D02*
X72789700Y-64381500D01*
X72443000Y-64381500D02*
X72789700Y-64381500D01*
X63025900Y-74468300D02*
X66680000Y-70814200D01*
X40005000Y-57005100D02*
X42899900Y-59900000D01*
X61557400Y-59363500D02*
X73674900Y-59363500D01*
X73674900Y-59363500D02*
X76751100Y-62439700D01*
X57785000Y-78105000D02*
X58910100Y-78105000D01*
X66680000Y-70144500D02*
X72443000Y-64381500D01*
X72789700Y-64220400D02*
X73030000Y-63980100D01*
X73030000Y-62855000D02*
X73030000Y-63980100D01*
X62546800Y-74468300D02*
X63025900Y-74468300D01*
X61020900Y-59900000D02*
X61557400Y-59363500D01*
X30426000Y-62824100D02*
X24670100Y-68580000D01*
X58910100Y-78105000D02*
X62546800Y-74468300D01*
X72789700Y-64381500D02*
X72789700Y-64220400D01*
X23495000Y-68580000D02*
X24670100Y-68580000D01*
X75601200Y-66703100D02*
X75111300Y-66703100D01*
X76751100Y-65553200D02*
X75601200Y-66703100D01*
X31918700Y-62824100D02*
X30426000Y-62824100D01*
X76751100Y-62439700D02*
X76751100Y-65553200D01*
X42899900Y-59900000D02*
X61020900Y-59900000D01*
X66680000Y-70814200D02*
X66680000Y-70144500D01*
X20955000Y-68580000D02*
X22130100Y-68580000D01*
X70214300Y-53916500D02*
X79014400Y-53916500D01*
X46053800Y-53205600D02*
X69503400Y-53205600D01*
X110351900Y-29836900D02*
X108735000Y-28220000D01*
X100709900Y-43086100D02*
X110351900Y-33444100D01*
X110351900Y-33444100D02*
X110351900Y-29836900D01*
X27694800Y-60364200D02*
X33984800Y-54074200D01*
X23086800Y-67310000D02*
X23898500Y-67310000D01*
X27694800Y-63513700D02*
X27694800Y-60364200D01*
X69503400Y-53205600D02*
X70214300Y-53916500D01*
X33984800Y-54074200D02*
X45185200Y-54074200D01*
X22130100Y-68266700D02*
X23086800Y-67310000D01*
X79014400Y-53916500D02*
X89844800Y-43086100D01*
X22130100Y-68580000D02*
X22130100Y-68266700D01*
X23898500Y-67310000D02*
X27694800Y-63513700D01*
X89844800Y-43086100D02*
X100709900Y-43086100D01*
X45185200Y-54074200D02*
X46053800Y-53205600D01*
X41419900Y-48260000D02*
X41419900Y-48026900D01*
X20619300Y-54515200D02*
X19733800Y-55400700D01*
X20480200Y-67232300D02*
X22302700Y-67232300D01*
X61857600Y-60088600D02*
X72803600Y-60088600D01*
X19733800Y-66485900D02*
X20480200Y-67232300D01*
X31734600Y-47130000D02*
X29250400Y-49614200D01*
X22302700Y-67232300D02*
X23495000Y-66040000D01*
X41419900Y-48026900D02*
X40523000Y-47130000D01*
X72803600Y-60088600D02*
X75570000Y-62855000D01*
X29250400Y-49614200D02*
X22979900Y-49614200D01*
X22979900Y-49614200D02*
X22319800Y-50274300D01*
X21522600Y-54515200D02*
X20619300Y-54515200D01*
X19733800Y-55400700D02*
X19733800Y-66485900D01*
X42545000Y-48260000D02*
X41419900Y-48260000D01*
X40523000Y-47130000D02*
X31734600Y-47130000D01*
X22319800Y-50274300D02*
X22319800Y-53718000D01*
X22319800Y-53718000D02*
X21522600Y-54515200D01*
X25069600Y-63590000D02*
X25069600Y-62352700D01*
X109901700Y-33257600D02*
X109901700Y-31676700D01*
X25069600Y-62352700D02*
X33798300Y-53624000D01*
X92296600Y-39014000D02*
X104145300Y-39014000D01*
X45254400Y-52731800D02*
X69711600Y-52731800D01*
X109901700Y-31676700D02*
X108735000Y-30510000D01*
X22130100Y-66040000D02*
X22130100Y-65674700D01*
X104145300Y-39014000D02*
X109901700Y-33257600D01*
X23889600Y-64770000D02*
X25069600Y-63590000D01*
X23034800Y-64770000D02*
X23889600Y-64770000D01*
X70437100Y-53457300D02*
X77853300Y-53457300D01*
X20955000Y-66040000D02*
X22130100Y-66040000D01*
X44362200Y-53624000D02*
X45254400Y-52731800D01*
X22130100Y-65674700D02*
X23034800Y-64770000D01*
X77853300Y-53457300D02*
X92296600Y-39014000D01*
X69711600Y-52731800D02*
X70437100Y-53457300D01*
X33798300Y-53624000D02*
X44362200Y-53624000D01*
X22969300Y-59784800D02*
X22318000Y-60436100D01*
X44496200Y-49884900D02*
X41697000Y-52684100D01*
X48762600Y-48732500D02*
X47610200Y-49884900D01*
X78110000Y-64863500D02*
X74498100Y-68475400D01*
X47610200Y-49884900D02*
X44496200Y-49884900D01*
X22318000Y-60436100D02*
X22318000Y-61513200D01*
X71760000Y-70114000D02*
X71760000Y-75699900D01*
X56836500Y-51444800D02*
X53975000Y-48583300D01*
X23129700Y-62324900D02*
X23495000Y-62324900D01*
X70490000Y-78095000D02*
X70490000Y-76969900D01*
X73398600Y-68475400D02*
X71760000Y-70114000D01*
X45085000Y-48260000D02*
X46210200Y-47134800D01*
X72199800Y-52281000D02*
X71363600Y-51444800D01*
X74498100Y-68475400D02*
X73398600Y-68475400D01*
X72595300Y-52281000D02*
X72199800Y-52281000D01*
X78110000Y-62855000D02*
X78110000Y-64863500D01*
X48762600Y-47134800D02*
X48762600Y-48732500D01*
X53975000Y-48583300D02*
X53975000Y-47859000D01*
X71363600Y-51444800D02*
X56836500Y-51444800D01*
X23495000Y-63500000D02*
X23495000Y-62324900D01*
X22318000Y-61513200D02*
X23129700Y-62324900D01*
X41697000Y-52684100D02*
X31130900Y-52684100D01*
X46210200Y-47134800D02*
X48762600Y-47134800D01*
X71760000Y-75699900D02*
X70490000Y-76969900D01*
X53975000Y-47859000D02*
X53250800Y-47134800D01*
X31130900Y-52684100D02*
X24030200Y-59784800D01*
X53250800Y-47134800D02*
X48762600Y-47134800D01*
X24030200Y-59784800D02*
X22969300Y-59784800D01*
X60761900Y-19399500D02*
X60761900Y-17678500D01*
X44944200Y-15393300D02*
X44582300Y-15755200D01*
X58476700Y-15393300D02*
X44944200Y-15393300D01*
X60761900Y-17678500D02*
X58476700Y-15393300D01*
X76500900Y-53007100D02*
X77527200Y-51980800D01*
X80650000Y-63980100D02*
X80453700Y-63980100D01*
X74300000Y-75699900D02*
X73030000Y-76969900D01*
X80453700Y-63980100D02*
X74300000Y-70133800D01*
X74300000Y-70133800D02*
X74300000Y-75699900D01*
X41844000Y-53173800D02*
X32456300Y-53173800D01*
X51579900Y-48541300D02*
X49417800Y-50703400D01*
X51579900Y-48260000D02*
X51579900Y-48541300D01*
X52705000Y-48260000D02*
X56340000Y-51895000D01*
X56340000Y-51895000D02*
X69511400Y-51895000D01*
X49417800Y-50703400D02*
X44314400Y-50703400D01*
X73030000Y-78095000D02*
X73030000Y-76969900D01*
X32456300Y-53173800D02*
X24670100Y-60960000D01*
X23495000Y-60960000D02*
X24670100Y-60960000D01*
X70623500Y-53007100D02*
X76500900Y-53007100D01*
X80650000Y-62855000D02*
X80650000Y-63980100D01*
X69511400Y-51895000D02*
X70623500Y-53007100D01*
X44314400Y-50703400D02*
X41844000Y-53173800D01*
X52705000Y-48260000D02*
X51579900Y-48260000D01*
X40560500Y-14943200D02*
X36598500Y-18905200D01*
X69734900Y-17785000D02*
X66893100Y-14943200D01*
X36598500Y-18905200D02*
X28624900Y-18905200D01*
X28624900Y-18905200D02*
X24670100Y-22860000D01*
X23495000Y-22860000D02*
X24670100Y-22860000D01*
X66893100Y-14943200D02*
X40560500Y-14943200D01*
X70860000Y-17785000D02*
X69734900Y-17785000D01*
X23495000Y-58420000D02*
X24670100Y-58420000D01*
X37649400Y-52233900D02*
X30856200Y-52233900D01*
X47625000Y-48260000D02*
X46499900Y-48260000D01*
X76840000Y-68656700D02*
X76840000Y-75699900D01*
X30856200Y-52233900D02*
X24670100Y-58420000D01*
X83190000Y-62855000D02*
X82641700Y-62855000D01*
X45656200Y-49385100D02*
X40498200Y-49385100D01*
X82641700Y-62855000D02*
X82064900Y-62855000D01*
X46499900Y-48260000D02*
X46499900Y-48541400D01*
X75570000Y-78095000D02*
X75570000Y-76969900D01*
X78327500Y-58836300D02*
X82064900Y-62573700D01*
X82064900Y-62573700D02*
X82064900Y-62855000D01*
X82641700Y-62855000D02*
X76840000Y-68656700D01*
X76840000Y-75699900D02*
X75570000Y-76969900D01*
X60533100Y-58836300D02*
X78327500Y-58836300D01*
X46499900Y-48541400D02*
X45656200Y-49385100D01*
X40498200Y-49385100D02*
X37649400Y-52233900D01*
X36935300Y-51508700D02*
X36660200Y-51783800D01*
X50170000Y-62855000D02*
X49044900Y-62855000D01*
X78110000Y-78095000D02*
X76984900Y-78095000D01*
X36660200Y-51783800D02*
X28766300Y-51783800D01*
X47432700Y-61009700D02*
X49044900Y-62621900D01*
X37465000Y-55880000D02*
X38590100Y-55880000D01*
X43342700Y-61009700D02*
X47432700Y-61009700D01*
X53808800Y-80129300D02*
X75183700Y-80129300D01*
X75183700Y-80129300D02*
X76984900Y-78328100D01*
X38590100Y-56257100D02*
X43342700Y-61009700D01*
X38590100Y-55880000D02*
X38590100Y-56257100D01*
X23495000Y-55880000D02*
X24670100Y-55880000D01*
X49044900Y-62621900D02*
X49044900Y-62855000D01*
X76984900Y-78328100D02*
X76984900Y-78095000D01*
X28766300Y-51783800D02*
X24670100Y-55880000D01*
X55083500Y-60481500D02*
X61225100Y-60481500D01*
X72582000Y-60813700D02*
X74300000Y-62531700D01*
X52710000Y-62855000D02*
X55083500Y-60481500D01*
X40005000Y-48260000D02*
X38879900Y-48260000D01*
X38879900Y-48511900D02*
X36058200Y-51333600D01*
X38879900Y-48260000D02*
X38879900Y-48511900D01*
X23495000Y-53340000D02*
X24670100Y-53340000D01*
X74300000Y-62531700D02*
X74300000Y-64866400D01*
X74300000Y-64866400D02*
X75356100Y-65922500D01*
X61557300Y-60813700D02*
X72582000Y-60813700D01*
X26676500Y-51333600D02*
X24670100Y-53340000D01*
X61225100Y-60481500D02*
X61557300Y-60813700D01*
X36058200Y-51333600D02*
X26676500Y-51333600D01*
X45539300Y-61638800D02*
X46360000Y-62459500D01*
X47139900Y-63999800D02*
X53233700Y-63999800D01*
X54124900Y-63108600D02*
X54124900Y-62855000D01*
X41527500Y-61638800D02*
X45539300Y-61638800D01*
X46360000Y-62459500D02*
X46360000Y-63219900D01*
X46360000Y-63219900D02*
X47139900Y-63999800D01*
X34925000Y-55880000D02*
X36050100Y-55880000D01*
X35715700Y-50602900D02*
X35518600Y-50800000D01*
X55250000Y-62855000D02*
X54124900Y-62855000D01*
X83190000Y-78095000D02*
X82064900Y-78095000D01*
X36050100Y-55880000D02*
X36050100Y-56161400D01*
X82064900Y-78328100D02*
X79103100Y-81289900D01*
X82064900Y-78095000D02*
X82064900Y-78328100D01*
X23495000Y-50800000D02*
X24670100Y-50800000D01*
X79103100Y-81289900D02*
X54725500Y-81289900D01*
X53233700Y-63999800D02*
X54124900Y-63108600D01*
X35518600Y-50800000D02*
X24670100Y-50800000D01*
X36050100Y-56161400D02*
X41527500Y-61638800D01*
X76084900Y-39375000D02*
X77354900Y-38105000D01*
X58316900Y-39375000D02*
X76084900Y-39375000D01*
X78480000Y-38105000D02*
X77354900Y-38105000D01*
X51971900Y-45720000D02*
X58316900Y-39375000D01*
X23495000Y-45720000D02*
X51971900Y-45720000D01*
X86871300Y-85219900D02*
X84151000Y-82499600D01*
X29182400Y-82499600D02*
X29182400Y-82499500D01*
X83418100Y-89679900D02*
X86871300Y-86226700D01*
X83185000Y-89679900D02*
X83418100Y-89679900D01*
X84151000Y-82499600D02*
X29182400Y-82499600D01*
X86871300Y-86226700D02*
X86871300Y-85219900D01*
X83185000Y-90805000D02*
X83185000Y-89679900D01*
X28345700Y-41775600D02*
X24670100Y-38100000D01*
X40284300Y-41775600D02*
X28345700Y-41775600D01*
X35333500Y-84015400D02*
X28647100Y-84015400D01*
X23495000Y-38100000D02*
X24670100Y-38100000D01*
X36339900Y-85021800D02*
X35333500Y-84015400D01*
X36339900Y-85725000D02*
X36339900Y-85021800D01*
X42545000Y-40640000D02*
X41419900Y-40640000D01*
X41419900Y-40640000D02*
X40284300Y-41775600D01*
X37465000Y-85725000D02*
X36339900Y-85725000D01*
X21480700Y-95155200D02*
X22257400Y-94378500D01*
X19271800Y-32960600D02*
X19271800Y-94034300D01*
X36339900Y-91038100D02*
X36339900Y-90805000D01*
X22257400Y-94378500D02*
X22257400Y-93489000D01*
X23495000Y-27940000D02*
X23495000Y-29115100D01*
X24174800Y-92572000D02*
X34806000Y-92572000D01*
X22257400Y-93489000D02*
X22941600Y-92804800D01*
X19271800Y-94034300D02*
X20392700Y-95155200D01*
X23942000Y-92804800D02*
X24174800Y-92572000D01*
X22319900Y-29922900D02*
X22319900Y-30816000D01*
X20392700Y-95155200D02*
X21480700Y-95155200D01*
X22319900Y-30816000D02*
X21385900Y-31750000D01*
X23127700Y-29115100D02*
X22319900Y-29922900D01*
X20482400Y-31750000D02*
X19271800Y-32960600D01*
X34806000Y-92572000D02*
X36339900Y-91038100D01*
X21385900Y-31750000D02*
X20482400Y-31750000D01*
X22941600Y-92804800D02*
X23942000Y-92804800D01*
X23495000Y-29115100D02*
X23127700Y-29115100D01*
X37465000Y-90805000D02*
X36339900Y-90805000D01*
X38595100Y-63088200D02*
X40847600Y-65340700D01*
X31120900Y-40340100D02*
X31120900Y-33887000D01*
X37470000Y-62855000D02*
X38595100Y-62855000D01*
X70603100Y-61263800D02*
X71663100Y-62323800D01*
X31120900Y-33887000D02*
X23903900Y-26670000D01*
X71663100Y-62323800D02*
X71663100Y-63308300D01*
X71663100Y-63308300D02*
X65621500Y-69349900D01*
X62870000Y-70475000D02*
X63995100Y-70475000D01*
X63995100Y-70193600D02*
X63995100Y-70475000D01*
X40847600Y-65340700D02*
X57175900Y-65340700D01*
X65621500Y-69349900D02*
X64838800Y-69349900D01*
X20955000Y-25400000D02*
X22130100Y-25400000D01*
X23903900Y-26670000D02*
X23034800Y-26670000D01*
X60958200Y-61240200D02*
X60981800Y-61263800D01*
X64838800Y-69349900D02*
X63995100Y-70193600D01*
X38595100Y-62855000D02*
X38595100Y-63088200D01*
X22130100Y-25765300D02*
X22130100Y-25400000D01*
X60981800Y-61263800D02*
X70603100Y-61263800D01*
X23034800Y-26670000D02*
X22130100Y-25765300D01*
X85730000Y-62855000D02*
X77305400Y-54430400D01*
X34414100Y-39225200D02*
X35310300Y-39225200D01*
X32273600Y-32428900D02*
X32273600Y-37084700D01*
X36618200Y-40533100D02*
X38735000Y-40533100D01*
X20955000Y-22860000D02*
X22130100Y-22860000D01*
X22937900Y-24035100D02*
X23879800Y-24035100D01*
X46821600Y-53695300D02*
X46586100Y-53930800D01*
X32273600Y-37084700D02*
X34414100Y-39225200D01*
X69182200Y-54430400D02*
X68447100Y-53695300D01*
X77305400Y-54430400D02*
X69182200Y-54430400D01*
X22130100Y-23227300D02*
X22937900Y-24035100D01*
X35310300Y-39225200D02*
X36618200Y-40533100D01*
X23879800Y-24035100D02*
X32273600Y-32428900D01*
X68447100Y-53695300D02*
X46821600Y-53695300D01*
X22130100Y-22860000D02*
X22130100Y-23227300D01*
X63369200Y-79243800D02*
X64284900Y-78328100D01*
X65410000Y-78095000D02*
X64284900Y-78095000D01*
X38603800Y-79243800D02*
X51338800Y-79243800D01*
X51338800Y-77661900D02*
X47796100Y-74119200D01*
X64284900Y-78328100D02*
X64284900Y-78095000D01*
X47796100Y-74119200D02*
X27676700Y-74119200D01*
X37465000Y-78105000D02*
X38603800Y-79243800D01*
X51338800Y-79243800D02*
X51338800Y-77661900D01*
X51338800Y-79243800D02*
X63369200Y-79243800D01*
D20*
X73025000Y-90805000D02*
X61581600Y-102248400D01*
X57785000Y-85725000D02*
X59285100Y-85725000D01*
X31868900Y-16224000D02*
X22511000Y-16224000D01*
X82925000Y-39070000D02*
X82925000Y-35575000D01*
X59285100Y-85725000D02*
X61364900Y-87804800D01*
X55245000Y-48260000D02*
X55245000Y-45680100D01*
X83225000Y-39370000D02*
X82925000Y-39070000D01*
X58785000Y-40640000D02*
X60285100Y-40640000D01*
X78480000Y-40645000D02*
X70860000Y-40645000D01*
X58785000Y-40640000D02*
X58785000Y-42140100D01*
X61820600Y-42175500D02*
X60285100Y-40640000D01*
X51201200Y-16284900D02*
X55789800Y-16284900D01*
X33424900Y-17780000D02*
X31868900Y-16224000D01*
X55245000Y-45680100D02*
X58785000Y-42140100D01*
X49701100Y-17785000D02*
X51201200Y-16284900D01*
X48230100Y-17785000D02*
X49701100Y-17785000D01*
X61364900Y-87804800D02*
X71524900Y-87804800D01*
X67829400Y-42175500D02*
X61820600Y-42175500D01*
X80645000Y-90805000D02*
X80645000Y-89304900D01*
X73025000Y-90805000D02*
X73025000Y-89304900D01*
X71524900Y-87804800D02*
X73025000Y-89304900D01*
X58785000Y-17780000D02*
X57284900Y-17780000D01*
X82140100Y-89304900D02*
X85730000Y-85715000D01*
X43801600Y-102248400D02*
X40005000Y-106045000D01*
X46730000Y-17785000D02*
X48230100Y-17785000D01*
X70860000Y-40645000D02*
X69359900Y-40645000D01*
X22511000Y-16224000D02*
X20955000Y-17780000D01*
X80645000Y-89304900D02*
X73025000Y-89304900D01*
X80645000Y-89304900D02*
X82140100Y-89304900D01*
X61581600Y-102248400D02*
X43801600Y-102248400D01*
X34925000Y-17780000D02*
X33424900Y-17780000D01*
X69359900Y-40645000D02*
X67829400Y-42175500D01*
X55789800Y-16284900D02*
X57284900Y-17780000D01*
D19*
X36339900Y-48541300D02*
X35496000Y-49385200D01*
X33154500Y-49385200D02*
X32675500Y-48906200D01*
X36339900Y-48260000D02*
X36339900Y-48541300D01*
X35496000Y-49385200D02*
X33154500Y-49385200D01*
X37465000Y-48260000D02*
X36339900Y-48260000D01*
X76695100Y-85715000D02*
X76695100Y-85948200D01*
X78948100Y-88201200D02*
X79689100Y-88201200D01*
X75570000Y-85715000D02*
X76695100Y-85715000D01*
X76695100Y-85948200D02*
X78948100Y-88201200D01*
X20587800Y-100235100D02*
X19779800Y-101043100D01*
X20955000Y-100235100D02*
X20587800Y-100235100D01*
X19779800Y-101043100D02*
X19779800Y-107673200D01*
X81761600Y-109114700D02*
X84311800Y-106564500D01*
X21221300Y-109114700D02*
X81761600Y-109114700D01*
X84311800Y-106564500D02*
X84311800Y-98136900D01*
X78105000Y-90805000D02*
X78105000Y-91930100D01*
X84311800Y-98136900D02*
X78105000Y-91930100D01*
X20955000Y-99060000D02*
X20955000Y-100235100D01*
X19779800Y-107673200D02*
X21221300Y-109114700D01*
X20955000Y-34195100D02*
X21322300Y-34195100D01*
X20955000Y-33020000D02*
X20955000Y-34195100D01*
X24670200Y-39370000D02*
X27539200Y-42239000D01*
X22130100Y-38436000D02*
X23064100Y-39370000D01*
X21322300Y-34195100D02*
X22130100Y-35002900D01*
X54350000Y-40645000D02*
X53224900Y-40645000D01*
X22130100Y-35002900D02*
X22130100Y-38436000D01*
X51630900Y-42239000D02*
X53224900Y-40645000D01*
X27539200Y-42239000D02*
X51630900Y-42239000D01*
X23064100Y-39370000D02*
X24670200Y-39370000D01*
X110802100Y-36477900D02*
X110802100Y-19432100D01*
X110802100Y-19432100D02*
X106825000Y-15455000D01*
X106825000Y-40455000D02*
X110802100Y-36477900D01*
X95610000Y-26035000D02*
X96635100Y-26035000D01*
X99030100Y-23640000D02*
X96635100Y-26035000D01*
X104775000Y-23640000D02*
X99030100Y-23640000D01*
X95610000Y-27940000D02*
X96635100Y-27940000D01*
X96915100Y-28220000D02*
X96635100Y-27940000D01*
X104775000Y-28220000D02*
X96915100Y-28220000D01*
X87732600Y-21732500D02*
X91050800Y-21732500D01*
X91050800Y-21732500D02*
X93710000Y-24391700D01*
X84050100Y-25415000D02*
X87732600Y-21732500D01*
X82925000Y-25415000D02*
X84050100Y-25415000D01*
X93710000Y-24391700D02*
X93710000Y-26035000D01*
X93710000Y-33020000D02*
X92562600Y-31872600D01*
X92562600Y-31872600D02*
X89945600Y-31872600D01*
X88783200Y-33035000D02*
X82925000Y-33035000D01*
X89945600Y-31872600D02*
X88783200Y-33035000D01*
X93695000Y-35575000D02*
X93710000Y-35560000D01*
X90545000Y-35575000D02*
X93695000Y-35575000D01*
X21320200Y-92804900D02*
X20955000Y-92804900D01*
X22225000Y-91900100D02*
X21320200Y-92804900D01*
X51584900Y-70475000D02*
X51584900Y-70719800D01*
X28418500Y-72484800D02*
X22973000Y-72484800D01*
X22973000Y-72484800D02*
X22225000Y-73232800D01*
X49490000Y-72814700D02*
X28748400Y-72814700D01*
X52710000Y-70475000D02*
X51584900Y-70475000D01*
X22225000Y-73232800D02*
X22225000Y-91900100D01*
X20955000Y-93980000D02*
X20955000Y-92804900D01*
X51584900Y-70719800D02*
X49490000Y-72814700D01*
X28748400Y-72814700D02*
X28418500Y-72484800D01*
X47630000Y-70475000D02*
X46504900Y-70475000D01*
X46504900Y-70475000D02*
X46504900Y-70193700D01*
X46504900Y-70193700D02*
X44394800Y-68083600D01*
X44394800Y-68083600D02*
X35613500Y-68083600D01*
X42545000Y-38100000D02*
X43670100Y-38100000D01*
X46730000Y-38105000D02*
X43675100Y-38105000D01*
X43675100Y-38105000D02*
X43670100Y-38100000D01*
X42545000Y-35560000D02*
X43670100Y-35560000D01*
X43675100Y-35565000D02*
X43670100Y-35560000D01*
X46730000Y-35565000D02*
X43675100Y-35565000D01*
X46730000Y-33025000D02*
X43675100Y-33025000D01*
X42545000Y-33020000D02*
X43670100Y-33020000D01*
X43675100Y-33025000D02*
X43670100Y-33020000D01*
X43675100Y-30485000D02*
X43670100Y-30480000D01*
X42545000Y-30480000D02*
X43670100Y-30480000D01*
X46730000Y-30485000D02*
X43675100Y-30485000D01*
X42545000Y-27940000D02*
X43670100Y-27940000D01*
X46730000Y-27945000D02*
X43675100Y-27945000D01*
X43675100Y-27945000D02*
X43670100Y-27940000D01*
X42545000Y-25400000D02*
X43670100Y-25400000D01*
X46730000Y-25405000D02*
X43675100Y-25405000D01*
X43675100Y-25405000D02*
X43670100Y-25400000D01*
X42545000Y-22860000D02*
X43670100Y-22860000D01*
X43675100Y-22865000D02*
X43670100Y-22860000D01*
X46730000Y-22865000D02*
X43675100Y-22865000D01*
X42545000Y-20320000D02*
X43670100Y-20320000D01*
X46730000Y-20325000D02*
X43675100Y-20325000D01*
X43675100Y-20325000D02*
X43670100Y-20320000D01*
X78480000Y-33025000D02*
X77354900Y-33025000D01*
X66405000Y-30480000D02*
X67530100Y-30480000D01*
X68800200Y-31750100D02*
X76080000Y-31750100D01*
X67530100Y-30480000D02*
X68800200Y-31750100D01*
X76080000Y-31750100D02*
X77354900Y-33025000D01*
X66405000Y-27940000D02*
X69729900Y-27940000D01*
X70860000Y-27945000D02*
X69734900Y-27945000D01*
X69729900Y-27940000D02*
X69734900Y-27945000D01*
X72374100Y-27036200D02*
X73906100Y-27036200D01*
X78480000Y-30485000D02*
X77354900Y-30485000D01*
X73906100Y-27036200D02*
X77354900Y-30485000D01*
X67530100Y-23200200D02*
X69734900Y-25405000D01*
X66405000Y-22860000D02*
X67530100Y-22860000D01*
X70860000Y-25405000D02*
X69734900Y-25405000D01*
X67530100Y-22860000D02*
X67530100Y-23200200D01*
X74282000Y-24872100D02*
X77354900Y-27945000D01*
X72745300Y-24872100D02*
X74282000Y-24872100D01*
X78480000Y-27945000D02*
X77354900Y-27945000D01*
X82738100Y-34160100D02*
X88294800Y-34160100D01*
X54350000Y-38105000D02*
X57018200Y-38105000D01*
X80140700Y-36757500D02*
X82738100Y-34160100D01*
X88294800Y-34160100D02*
X89419900Y-33035000D01*
X57018200Y-38105000D02*
X58365700Y-36757500D01*
X58365700Y-36757500D02*
X80140700Y-36757500D01*
X90545000Y-33035000D02*
X89419900Y-33035000D01*
X79489700Y-34434200D02*
X80445400Y-35389900D01*
X54350000Y-35565000D02*
X57018200Y-35565000D01*
X57018200Y-35565000D02*
X58149000Y-34434200D01*
X58149000Y-34434200D02*
X79489700Y-34434200D01*
X75507000Y-29273800D02*
X77908000Y-31674800D01*
X90545000Y-30495000D02*
X89419900Y-30495000D01*
X56803900Y-29273800D02*
X75507000Y-29273800D01*
X54350000Y-27945000D02*
X55475100Y-27945000D01*
X55475100Y-27945000D02*
X56803900Y-29273800D01*
X77908000Y-31674800D02*
X88240100Y-31674800D01*
X88240100Y-31674800D02*
X89419900Y-30495000D01*
X57028200Y-25405000D02*
X54350000Y-25405000D01*
X90545000Y-22875000D02*
X89419900Y-22875000D01*
X83489300Y-29086900D02*
X77860100Y-29086900D01*
X89419900Y-22875000D02*
X89419900Y-23156300D01*
X89419900Y-23156300D02*
X83489300Y-29086900D01*
X75079200Y-26306000D02*
X71843200Y-26306000D01*
X71843200Y-26306000D02*
X71588800Y-26560400D01*
X71588800Y-26560400D02*
X58183600Y-26560400D01*
X58183600Y-26560400D02*
X57028200Y-25405000D01*
X77860100Y-29086900D02*
X75079200Y-26306000D01*
X81799900Y-20335000D02*
X80682700Y-21452200D01*
X56602300Y-21452200D02*
X55475100Y-20325000D01*
X82925000Y-20335000D02*
X81799900Y-20335000D01*
X54350000Y-20325000D02*
X55475100Y-20325000D01*
X80682700Y-21452200D02*
X56602300Y-21452200D01*
X20955000Y-27940000D02*
X20955000Y-26764900D01*
X88284300Y-19199400D02*
X76486600Y-19199400D01*
X19760800Y-25936000D02*
X20589700Y-26764900D01*
X76486600Y-19199400D02*
X71780300Y-14493100D01*
X71780300Y-14493100D02*
X22530100Y-14493100D01*
X19760800Y-17262400D02*
X19760800Y-25936000D01*
X89419900Y-20335000D02*
X88284300Y-19199400D01*
X90545000Y-20335000D02*
X89419900Y-20335000D01*
X20589700Y-26764900D02*
X20955000Y-26764900D01*
X22530100Y-14493100D02*
X19760800Y-17262400D01*
M02*
