G04 #@! TF.GenerationSoftware,KiCad,Pcbnew,(6.0.1)*
G04 #@! TF.CreationDate,2023-08-09T21:54:41+02:00*
G04 #@! TF.ProjectId,VT100_GRAPH,56543130-305f-4475-9241-50482e6b6963,rev?*
G04 #@! TF.SameCoordinates,Original*
G04 #@! TF.FileFunction,Legend,Top*
G04 #@! TF.FilePolarity,Positive*
%FSLAX46Y46*%
G04 Gerber Fmt 4.6, Leading zero omitted, Abs format (unit mm)*
G04 Created by KiCad (PCBNEW (6.0.1)) date 2023-08-09 21:54:41*
%MOMM*%
%LPD*%
G01*
G04 APERTURE LIST*
%ADD10C,0.150000*%
%ADD11C,0.120000*%
%ADD12C,1.400000*%
%ADD13O,1.400000X1.400000*%
%ADD14R,1.600000X1.600000*%
%ADD15O,1.600000X1.600000*%
%ADD16R,1.700000X1.700000*%
%ADD17O,1.700000X1.700000*%
%ADD18C,1.600000*%
%ADD19C,4.000000*%
G04 APERTURE END LIST*
D10*
X94493333Y-34092380D02*
X94160000Y-33616190D01*
X93921904Y-34092380D02*
X93921904Y-33092380D01*
X94302857Y-33092380D01*
X94398095Y-33140000D01*
X94445714Y-33187619D01*
X94493333Y-33282857D01*
X94493333Y-33425714D01*
X94445714Y-33520952D01*
X94398095Y-33568571D01*
X94302857Y-33616190D01*
X93921904Y-33616190D01*
X95350476Y-33425714D02*
X95350476Y-34092380D01*
X95112380Y-33044761D02*
X94874285Y-33759047D01*
X95493333Y-33759047D01*
X37973095Y-14902380D02*
X37973095Y-15711904D01*
X38020714Y-15807142D01*
X38068333Y-15854761D01*
X38163571Y-15902380D01*
X38354047Y-15902380D01*
X38449285Y-15854761D01*
X38496904Y-15807142D01*
X38544523Y-15711904D01*
X38544523Y-14902380D01*
X38925476Y-14902380D02*
X39544523Y-14902380D01*
X39211190Y-15283333D01*
X39354047Y-15283333D01*
X39449285Y-15330952D01*
X39496904Y-15378571D01*
X39544523Y-15473809D01*
X39544523Y-15711904D01*
X39496904Y-15807142D01*
X39449285Y-15854761D01*
X39354047Y-15902380D01*
X39068333Y-15902380D01*
X38973095Y-15854761D01*
X38925476Y-15807142D01*
X73431904Y-14907380D02*
X73431904Y-15716904D01*
X73479523Y-15812142D01*
X73527142Y-15859761D01*
X73622380Y-15907380D01*
X73812857Y-15907380D01*
X73908095Y-15859761D01*
X73955714Y-15812142D01*
X74003333Y-15716904D01*
X74003333Y-14907380D01*
X75003333Y-15907380D02*
X74431904Y-15907380D01*
X74717619Y-15907380D02*
X74717619Y-14907380D01*
X74622380Y-15050238D01*
X74527142Y-15145476D01*
X74431904Y-15193095D01*
X75622380Y-14907380D02*
X75717619Y-14907380D01*
X75812857Y-14955000D01*
X75860476Y-15002619D01*
X75908095Y-15097857D01*
X75955714Y-15288333D01*
X75955714Y-15526428D01*
X75908095Y-15716904D01*
X75860476Y-15812142D01*
X75812857Y-15859761D01*
X75717619Y-15907380D01*
X75622380Y-15907380D01*
X75527142Y-15859761D01*
X75479523Y-15812142D01*
X75431904Y-15716904D01*
X75384285Y-15526428D01*
X75384285Y-15288333D01*
X75431904Y-15097857D01*
X75479523Y-15002619D01*
X75527142Y-14955000D01*
X75622380Y-14907380D01*
X49778095Y-14907380D02*
X49778095Y-15716904D01*
X49825714Y-15812142D01*
X49873333Y-15859761D01*
X49968571Y-15907380D01*
X50159047Y-15907380D01*
X50254285Y-15859761D01*
X50301904Y-15812142D01*
X50349523Y-15716904D01*
X50349523Y-14907380D01*
X51254285Y-14907380D02*
X51063809Y-14907380D01*
X50968571Y-14955000D01*
X50920952Y-15002619D01*
X50825714Y-15145476D01*
X50778095Y-15335952D01*
X50778095Y-15716904D01*
X50825714Y-15812142D01*
X50873333Y-15859761D01*
X50968571Y-15907380D01*
X51159047Y-15907380D01*
X51254285Y-15859761D01*
X51301904Y-15812142D01*
X51349523Y-15716904D01*
X51349523Y-15478809D01*
X51301904Y-15383571D01*
X51254285Y-15335952D01*
X51159047Y-15288333D01*
X50968571Y-15288333D01*
X50873333Y-15335952D01*
X50825714Y-15383571D01*
X50778095Y-15478809D01*
X74997142Y-53546666D02*
X75044761Y-53594285D01*
X75092380Y-53737142D01*
X75092380Y-53832380D01*
X75044761Y-53975238D01*
X74949523Y-54070476D01*
X74854285Y-54118095D01*
X74663809Y-54165714D01*
X74520952Y-54165714D01*
X74330476Y-54118095D01*
X74235238Y-54070476D01*
X74140000Y-53975238D01*
X74092380Y-53832380D01*
X74092380Y-53737142D01*
X74140000Y-53594285D01*
X74187619Y-53546666D01*
X74425714Y-52689523D02*
X75092380Y-52689523D01*
X74044761Y-52927619D02*
X74759047Y-53165714D01*
X74759047Y-52546666D01*
X94493333Y-24567380D02*
X94160000Y-24091190D01*
X93921904Y-24567380D02*
X93921904Y-23567380D01*
X94302857Y-23567380D01*
X94398095Y-23615000D01*
X94445714Y-23662619D01*
X94493333Y-23757857D01*
X94493333Y-23900714D01*
X94445714Y-23995952D01*
X94398095Y-24043571D01*
X94302857Y-24091190D01*
X93921904Y-24091190D01*
X95445714Y-24567380D02*
X94874285Y-24567380D01*
X95160000Y-24567380D02*
X95160000Y-23567380D01*
X95064761Y-23710238D01*
X94969523Y-23805476D01*
X94874285Y-23853095D01*
X87987142Y-103711666D02*
X88034761Y-103759285D01*
X88082380Y-103902142D01*
X88082380Y-103997380D01*
X88034761Y-104140238D01*
X87939523Y-104235476D01*
X87844285Y-104283095D01*
X87653809Y-104330714D01*
X87510952Y-104330714D01*
X87320476Y-104283095D01*
X87225238Y-104235476D01*
X87130000Y-104140238D01*
X87082380Y-103997380D01*
X87082380Y-103902142D01*
X87130000Y-103759285D01*
X87177619Y-103711666D01*
X88082380Y-102759285D02*
X88082380Y-103330714D01*
X88082380Y-103045000D02*
X87082380Y-103045000D01*
X87225238Y-103140238D01*
X87320476Y-103235476D01*
X87368095Y-103330714D01*
X85558333Y-41977142D02*
X85510714Y-42024761D01*
X85367857Y-42072380D01*
X85272619Y-42072380D01*
X85129761Y-42024761D01*
X85034523Y-41929523D01*
X84986904Y-41834285D01*
X84939285Y-41643809D01*
X84939285Y-41500952D01*
X84986904Y-41310476D01*
X85034523Y-41215238D01*
X85129761Y-41120000D01*
X85272619Y-41072380D01*
X85367857Y-41072380D01*
X85510714Y-41120000D01*
X85558333Y-41167619D01*
X85939285Y-41167619D02*
X85986904Y-41120000D01*
X86082142Y-41072380D01*
X86320238Y-41072380D01*
X86415476Y-41120000D01*
X86463095Y-41167619D01*
X86510714Y-41262857D01*
X86510714Y-41358095D01*
X86463095Y-41500952D01*
X85891666Y-42072380D01*
X86510714Y-42072380D01*
X94493333Y-26472380D02*
X94160000Y-25996190D01*
X93921904Y-26472380D02*
X93921904Y-25472380D01*
X94302857Y-25472380D01*
X94398095Y-25520000D01*
X94445714Y-25567619D01*
X94493333Y-25662857D01*
X94493333Y-25805714D01*
X94445714Y-25900952D01*
X94398095Y-25948571D01*
X94302857Y-25996190D01*
X93921904Y-25996190D01*
X94826666Y-25472380D02*
X95445714Y-25472380D01*
X95112380Y-25853333D01*
X95255238Y-25853333D01*
X95350476Y-25900952D01*
X95398095Y-25948571D01*
X95445714Y-26043809D01*
X95445714Y-26281904D01*
X95398095Y-26377142D01*
X95350476Y-26424761D01*
X95255238Y-26472380D01*
X94969523Y-26472380D01*
X94874285Y-26424761D01*
X94826666Y-26377142D01*
X59992380Y-82666904D02*
X60801904Y-82666904D01*
X60897142Y-82619285D01*
X60944761Y-82571666D01*
X60992380Y-82476428D01*
X60992380Y-82285952D01*
X60944761Y-82190714D01*
X60897142Y-82143095D01*
X60801904Y-82095476D01*
X59992380Y-82095476D01*
X59992380Y-81143095D02*
X59992380Y-81619285D01*
X60468571Y-81666904D01*
X60420952Y-81619285D01*
X60373333Y-81524047D01*
X60373333Y-81285952D01*
X60420952Y-81190714D01*
X60468571Y-81143095D01*
X60563809Y-81095476D01*
X60801904Y-81095476D01*
X60897142Y-81143095D01*
X60944761Y-81190714D01*
X60992380Y-81285952D01*
X60992380Y-81524047D01*
X60944761Y-81619285D01*
X60897142Y-81666904D01*
X32047380Y-99186904D02*
X32856904Y-99186904D01*
X32952142Y-99139285D01*
X32999761Y-99091666D01*
X33047380Y-98996428D01*
X33047380Y-98805952D01*
X32999761Y-98710714D01*
X32952142Y-98663095D01*
X32856904Y-98615476D01*
X32047380Y-98615476D01*
X32142619Y-98186904D02*
X32095000Y-98139285D01*
X32047380Y-98044047D01*
X32047380Y-97805952D01*
X32095000Y-97710714D01*
X32142619Y-97663095D01*
X32237857Y-97615476D01*
X32333095Y-97615476D01*
X32475952Y-97663095D01*
X33047380Y-98234523D01*
X33047380Y-97615476D01*
X75398333Y-42557142D02*
X75350714Y-42604761D01*
X75207857Y-42652380D01*
X75112619Y-42652380D01*
X74969761Y-42604761D01*
X74874523Y-42509523D01*
X74826904Y-42414285D01*
X74779285Y-42223809D01*
X74779285Y-42080952D01*
X74826904Y-41890476D01*
X74874523Y-41795238D01*
X74969761Y-41700000D01*
X75112619Y-41652380D01*
X75207857Y-41652380D01*
X75350714Y-41700000D01*
X75398333Y-41747619D01*
X75731666Y-41652380D02*
X76350714Y-41652380D01*
X76017380Y-42033333D01*
X76160238Y-42033333D01*
X76255476Y-42080952D01*
X76303095Y-42128571D01*
X76350714Y-42223809D01*
X76350714Y-42461904D01*
X76303095Y-42557142D01*
X76255476Y-42604761D01*
X76160238Y-42652380D01*
X75874523Y-42652380D01*
X75779285Y-42604761D01*
X75731666Y-42557142D01*
X85496904Y-14917380D02*
X85496904Y-15726904D01*
X85544523Y-15822142D01*
X85592142Y-15869761D01*
X85687380Y-15917380D01*
X85877857Y-15917380D01*
X85973095Y-15869761D01*
X86020714Y-15822142D01*
X86068333Y-15726904D01*
X86068333Y-14917380D01*
X87068333Y-15917380D02*
X86496904Y-15917380D01*
X86782619Y-15917380D02*
X86782619Y-14917380D01*
X86687380Y-15060238D01*
X86592142Y-15155476D01*
X86496904Y-15203095D01*
X88020714Y-15917380D02*
X87449285Y-15917380D01*
X87735000Y-15917380D02*
X87735000Y-14917380D01*
X87639761Y-15060238D01*
X87544523Y-15155476D01*
X87449285Y-15203095D01*
X32052380Y-67426904D02*
X32861904Y-67426904D01*
X32957142Y-67379285D01*
X33004761Y-67331666D01*
X33052380Y-67236428D01*
X33052380Y-67045952D01*
X33004761Y-66950714D01*
X32957142Y-66903095D01*
X32861904Y-66855476D01*
X32052380Y-66855476D01*
X32052380Y-66474523D02*
X32052380Y-65807857D01*
X33052380Y-66236428D01*
X94493333Y-31552380D02*
X94160000Y-31076190D01*
X93921904Y-31552380D02*
X93921904Y-30552380D01*
X94302857Y-30552380D01*
X94398095Y-30600000D01*
X94445714Y-30647619D01*
X94493333Y-30742857D01*
X94493333Y-30885714D01*
X94445714Y-30980952D01*
X94398095Y-31028571D01*
X94302857Y-31076190D01*
X93921904Y-31076190D01*
X94874285Y-30647619D02*
X94921904Y-30600000D01*
X95017142Y-30552380D01*
X95255238Y-30552380D01*
X95350476Y-30600000D01*
X95398095Y-30647619D01*
X95445714Y-30742857D01*
X95445714Y-30838095D01*
X95398095Y-30980952D01*
X94826666Y-31552380D01*
X95445714Y-31552380D01*
X61833095Y-14902380D02*
X61833095Y-15711904D01*
X61880714Y-15807142D01*
X61928333Y-15854761D01*
X62023571Y-15902380D01*
X62214047Y-15902380D01*
X62309285Y-15854761D01*
X62356904Y-15807142D01*
X62404523Y-15711904D01*
X62404523Y-14902380D01*
X62928333Y-15902380D02*
X63118809Y-15902380D01*
X63214047Y-15854761D01*
X63261666Y-15807142D01*
X63356904Y-15664285D01*
X63404523Y-15473809D01*
X63404523Y-15092857D01*
X63356904Y-14997619D01*
X63309285Y-14950000D01*
X63214047Y-14902380D01*
X63023571Y-14902380D01*
X62928333Y-14950000D01*
X62880714Y-14997619D01*
X62833095Y-15092857D01*
X62833095Y-15330952D01*
X62880714Y-15426190D01*
X62928333Y-15473809D01*
X63023571Y-15521428D01*
X63214047Y-15521428D01*
X63309285Y-15473809D01*
X63356904Y-15426190D01*
X63404523Y-15330952D01*
X32047380Y-82676904D02*
X32856904Y-82676904D01*
X32952142Y-82629285D01*
X32999761Y-82581666D01*
X33047380Y-82486428D01*
X33047380Y-82295952D01*
X32999761Y-82200714D01*
X32952142Y-82153095D01*
X32856904Y-82105476D01*
X32047380Y-82105476D01*
X32380714Y-81200714D02*
X33047380Y-81200714D01*
X31999761Y-81438809D02*
X32714047Y-81676904D01*
X32714047Y-81057857D01*
X32047380Y-52831904D02*
X32856904Y-52831904D01*
X32952142Y-52784285D01*
X32999761Y-52736666D01*
X33047380Y-52641428D01*
X33047380Y-52450952D01*
X32999761Y-52355714D01*
X32952142Y-52308095D01*
X32856904Y-52260476D01*
X32047380Y-52260476D01*
X32475952Y-51641428D02*
X32428333Y-51736666D01*
X32380714Y-51784285D01*
X32285476Y-51831904D01*
X32237857Y-51831904D01*
X32142619Y-51784285D01*
X32095000Y-51736666D01*
X32047380Y-51641428D01*
X32047380Y-51450952D01*
X32095000Y-51355714D01*
X32142619Y-51308095D01*
X32237857Y-51260476D01*
X32285476Y-51260476D01*
X32380714Y-51308095D01*
X32428333Y-51355714D01*
X32475952Y-51450952D01*
X32475952Y-51641428D01*
X32523571Y-51736666D01*
X32571190Y-51784285D01*
X32666428Y-51831904D01*
X32856904Y-51831904D01*
X32952142Y-51784285D01*
X32999761Y-51736666D01*
X33047380Y-51641428D01*
X33047380Y-51450952D01*
X32999761Y-51355714D01*
X32952142Y-51308095D01*
X32856904Y-51260476D01*
X32666428Y-51260476D01*
X32571190Y-51308095D01*
X32523571Y-51355714D01*
X32475952Y-51450952D01*
X59992380Y-67426904D02*
X60801904Y-67426904D01*
X60897142Y-67379285D01*
X60944761Y-67331666D01*
X60992380Y-67236428D01*
X60992380Y-67045952D01*
X60944761Y-66950714D01*
X60897142Y-66903095D01*
X60801904Y-66855476D01*
X59992380Y-66855476D01*
X60992380Y-65855476D02*
X60992380Y-66426904D01*
X60992380Y-66141190D02*
X59992380Y-66141190D01*
X60135238Y-66236428D01*
X60230476Y-66331666D01*
X60278095Y-66426904D01*
D11*
X94127133Y-34860000D02*
G75*
G03*
X94030095Y-36309359I-417133J-700000D01*
G01*
X36085000Y-16450000D02*
X36085000Y-41970000D01*
X37735000Y-16450000D02*
X36085000Y-16450000D01*
X41385000Y-16450000D02*
X39735000Y-16450000D01*
X36085000Y-41970000D02*
X41385000Y-41970000D01*
X41385000Y-41970000D02*
X41385000Y-16450000D01*
X37735000Y-16450000D02*
G75*
G03*
X39735000Y-16450000I1000000J0D01*
G01*
X72020000Y-16455000D02*
X72020000Y-41975000D01*
X72020000Y-41975000D02*
X77320000Y-41975000D01*
X77320000Y-16455000D02*
X75670000Y-16455000D01*
X77320000Y-41975000D02*
X77320000Y-16455000D01*
X73670000Y-16455000D02*
X72020000Y-16455000D01*
X73670000Y-16455000D02*
G75*
G03*
X75670000Y-16455000I1000000J0D01*
G01*
X102175000Y-111820000D02*
X107375000Y-111820000D01*
X102175000Y-48260000D02*
X102175000Y-111820000D01*
X102175000Y-46990000D02*
X102175000Y-45660000D01*
X104775000Y-45660000D02*
X107375000Y-45660000D01*
X102175000Y-48260000D02*
X104775000Y-48260000D01*
X102175000Y-45660000D02*
X103505000Y-45660000D01*
X104775000Y-48260000D02*
X104775000Y-45660000D01*
X107375000Y-45660000D02*
X107375000Y-111820000D01*
X47890000Y-41975000D02*
X53190000Y-41975000D01*
X53190000Y-41975000D02*
X53190000Y-16455000D01*
X47890000Y-16455000D02*
X47890000Y-41975000D01*
X49540000Y-16455000D02*
X47890000Y-16455000D01*
X53190000Y-16455000D02*
X51540000Y-16455000D01*
X49540000Y-16455000D02*
G75*
G03*
X51540000Y-16455000I1000000J0D01*
G01*
X92015000Y-48260000D02*
X92015000Y-111820000D01*
X94615000Y-48260000D02*
X94615000Y-45660000D01*
X97215000Y-45660000D02*
X97215000Y-111820000D01*
X92015000Y-45660000D02*
X93345000Y-45660000D01*
X92015000Y-111820000D02*
X97215000Y-111820000D01*
X94615000Y-45660000D02*
X97215000Y-45660000D01*
X92015000Y-48260000D02*
X94615000Y-48260000D01*
X92015000Y-46990000D02*
X92015000Y-45660000D01*
X109855000Y-48260000D02*
X109855000Y-45660000D01*
X107255000Y-48260000D02*
X107255000Y-111820000D01*
X107255000Y-46990000D02*
X107255000Y-45660000D01*
X109855000Y-45660000D02*
X112455000Y-45660000D01*
X112455000Y-45660000D02*
X112455000Y-111820000D01*
X107255000Y-111820000D02*
X112455000Y-111820000D01*
X107255000Y-45660000D02*
X108585000Y-45660000D01*
X107255000Y-48260000D02*
X109855000Y-48260000D01*
X73510000Y-49760000D02*
X73510000Y-57000000D01*
X73510000Y-57000000D02*
X71270000Y-57000000D01*
X73510000Y-49760000D02*
X71270000Y-49760000D01*
X71270000Y-49760000D02*
X71270000Y-57000000D01*
X94127133Y-25335000D02*
G75*
G03*
X94030095Y-26784359I-417133J-700000D01*
G01*
X88750000Y-102085000D02*
X88750000Y-94845000D01*
X86510000Y-102085000D02*
X86510000Y-94845000D01*
X86510000Y-102085000D02*
X88750000Y-102085000D01*
X86510000Y-94845000D02*
X88750000Y-94845000D01*
X82105000Y-40490000D02*
X82105000Y-38250000D01*
X89345000Y-40490000D02*
X82105000Y-40490000D01*
X89345000Y-40490000D02*
X89345000Y-38250000D01*
X89345000Y-38250000D02*
X82105000Y-38250000D01*
X94127133Y-27240000D02*
G75*
G03*
X94030095Y-28689359I-417133J-700000D01*
G01*
X87060000Y-84555000D02*
X87060000Y-79255000D01*
X87060000Y-79255000D02*
X61540000Y-79255000D01*
X61540000Y-84555000D02*
X87060000Y-84555000D01*
X61540000Y-82905000D02*
X61540000Y-84555000D01*
X61540000Y-79255000D02*
X61540000Y-80905000D01*
X61540000Y-82905000D02*
G75*
G03*
X61540000Y-80905000I0J1000000D01*
G01*
X84515000Y-91965000D02*
X33595000Y-91965000D01*
X33595000Y-91965000D02*
X33595000Y-97425000D01*
X33595000Y-99425000D02*
X33595000Y-104885000D01*
X84515000Y-104885000D02*
X84515000Y-91965000D01*
X33595000Y-104885000D02*
X84515000Y-104885000D01*
X33595000Y-99425000D02*
G75*
G03*
X33595000Y-97425000I0J1000000D01*
G01*
X79185000Y-43330000D02*
X79185000Y-45570000D01*
X71945000Y-43330000D02*
X71945000Y-45570000D01*
X71945000Y-45570000D02*
X79185000Y-45570000D01*
X71945000Y-43330000D02*
X79185000Y-43330000D01*
X19625000Y-108010000D02*
X19625000Y-106680000D01*
X24825000Y-108010000D02*
X24825000Y-16450000D01*
X19625000Y-105410000D02*
X19625000Y-16450000D01*
X22225000Y-108010000D02*
X22225000Y-105410000D01*
X24825000Y-108010000D02*
X22225000Y-108010000D01*
X20955000Y-108010000D02*
X19625000Y-108010000D01*
X22225000Y-105410000D02*
X19625000Y-105410000D01*
X24825000Y-16450000D02*
X19625000Y-16450000D01*
X89385000Y-16465000D02*
X87735000Y-16465000D01*
X85735000Y-16465000D02*
X84085000Y-16465000D01*
X84085000Y-16465000D02*
X84085000Y-36905000D01*
X89385000Y-36905000D02*
X89385000Y-16465000D01*
X84085000Y-36905000D02*
X89385000Y-36905000D01*
X85735000Y-16465000D02*
G75*
G03*
X87735000Y-16465000I1000000J0D01*
G01*
X59120000Y-64015000D02*
X33600000Y-64015000D01*
X33600000Y-67665000D02*
X33600000Y-69315000D01*
X33600000Y-64015000D02*
X33600000Y-65665000D01*
X59120000Y-69315000D02*
X59120000Y-64015000D01*
X33600000Y-69315000D02*
X59120000Y-69315000D01*
X33600000Y-67665000D02*
G75*
G03*
X33600000Y-65665000I0J1000000D01*
G01*
X94127133Y-32320000D02*
G75*
G03*
X94030095Y-33769359I-417133J-700000D01*
G01*
X59945000Y-41970000D02*
X65245000Y-41970000D01*
X65245000Y-41970000D02*
X65245000Y-16450000D01*
X61595000Y-16450000D02*
X59945000Y-16450000D01*
X59945000Y-16450000D02*
X59945000Y-41970000D01*
X65245000Y-16450000D02*
X63595000Y-16450000D01*
X61595000Y-16450000D02*
G75*
G03*
X63595000Y-16450000I1000000J0D01*
G01*
X59115000Y-79265000D02*
X33595000Y-79265000D01*
X33595000Y-84565000D02*
X59115000Y-84565000D01*
X33595000Y-82915000D02*
X33595000Y-84565000D01*
X59115000Y-84565000D02*
X59115000Y-79265000D01*
X33595000Y-79265000D02*
X33595000Y-80915000D01*
X33595000Y-82915000D02*
G75*
G03*
X33595000Y-80915000I0J1000000D01*
G01*
X33595000Y-49420000D02*
X33595000Y-51070000D01*
X69275000Y-49420000D02*
X33595000Y-49420000D01*
X69275000Y-54720000D02*
X69275000Y-49420000D01*
X33595000Y-53070000D02*
X33595000Y-54720000D01*
X33595000Y-54720000D02*
X69275000Y-54720000D01*
X33595000Y-53070000D02*
G75*
G03*
X33595000Y-51070000I0J1000000D01*
G01*
X87060000Y-64015000D02*
X61540000Y-64015000D01*
X61540000Y-69315000D02*
X87060000Y-69315000D01*
X87060000Y-69315000D02*
X87060000Y-64015000D01*
X61540000Y-67665000D02*
X61540000Y-69315000D01*
X61540000Y-64015000D02*
X61540000Y-65665000D01*
X61540000Y-67665000D02*
G75*
G03*
X61540000Y-65665000I0J1000000D01*
G01*
X102210662Y-23890000D02*
X102210662Y-23390000D01*
X102643675Y-23640000D02*
X102210662Y-23890000D01*
X111705000Y-43440000D02*
X103105000Y-43440000D01*
X102210662Y-23390000D02*
X102643675Y-23640000D01*
X103105000Y-43440000D02*
X103105000Y-12470000D01*
X103105000Y-12470000D02*
X111705000Y-12470000D01*
X97095000Y-48260000D02*
X99695000Y-48260000D01*
X97095000Y-48260000D02*
X97095000Y-111820000D01*
X102295000Y-45660000D02*
X102295000Y-111820000D01*
X99695000Y-45660000D02*
X102295000Y-45660000D01*
X97095000Y-111820000D02*
X102295000Y-111820000D01*
X97095000Y-46990000D02*
X97095000Y-45660000D01*
X99695000Y-48260000D02*
X99695000Y-45660000D01*
X97095000Y-45660000D02*
X98425000Y-45660000D01*
%LPC*%
D12*
X93710000Y-35560000D03*
D13*
X95610000Y-35560000D03*
D14*
X34925000Y-17780000D03*
D15*
X34925000Y-20320000D03*
X34925000Y-22860000D03*
X34925000Y-25400000D03*
X34925000Y-27940000D03*
X34925000Y-30480000D03*
X34925000Y-33020000D03*
X34925000Y-35560000D03*
X34925000Y-38100000D03*
X34925000Y-40640000D03*
X42545000Y-40640000D03*
X42545000Y-38100000D03*
X42545000Y-35560000D03*
X42545000Y-33020000D03*
X42545000Y-30480000D03*
X42545000Y-27940000D03*
X42545000Y-25400000D03*
X42545000Y-22860000D03*
X42545000Y-20320000D03*
X42545000Y-17780000D03*
D14*
X70860000Y-17785000D03*
D15*
X70860000Y-20325000D03*
X70860000Y-22865000D03*
X70860000Y-25405000D03*
X70860000Y-27945000D03*
X70860000Y-30485000D03*
X70860000Y-33025000D03*
X70860000Y-35565000D03*
X70860000Y-38105000D03*
X70860000Y-40645000D03*
X78480000Y-40645000D03*
X78480000Y-38105000D03*
X78480000Y-35565000D03*
X78480000Y-33025000D03*
X78480000Y-30485000D03*
X78480000Y-27945000D03*
X78480000Y-25405000D03*
X78480000Y-22865000D03*
X78480000Y-20325000D03*
X78480000Y-17785000D03*
D16*
X103505000Y-46990000D03*
D17*
X106045000Y-46990000D03*
X103505000Y-49530000D03*
X106045000Y-49530000D03*
X103505000Y-52070000D03*
X106045000Y-52070000D03*
X103505000Y-54610000D03*
X106045000Y-54610000D03*
X103505000Y-57150000D03*
X106045000Y-57150000D03*
X103505000Y-59690000D03*
X106045000Y-59690000D03*
X103505000Y-62230000D03*
X106045000Y-62230000D03*
X103505000Y-64770000D03*
X106045000Y-64770000D03*
X103505000Y-67310000D03*
X106045000Y-67310000D03*
X103505000Y-69850000D03*
X106045000Y-69850000D03*
X103505000Y-72390000D03*
X106045000Y-72390000D03*
X103505000Y-74930000D03*
X106045000Y-74930000D03*
X103505000Y-77470000D03*
X106045000Y-77470000D03*
X103505000Y-80010000D03*
X106045000Y-80010000D03*
X103505000Y-82550000D03*
X106045000Y-82550000D03*
X103505000Y-85090000D03*
X106045000Y-85090000D03*
X103505000Y-87630000D03*
X106045000Y-87630000D03*
X103505000Y-90170000D03*
X106045000Y-90170000D03*
X103505000Y-92710000D03*
X106045000Y-92710000D03*
X103505000Y-95250000D03*
X106045000Y-95250000D03*
X103505000Y-97790000D03*
X106045000Y-97790000D03*
X103505000Y-100330000D03*
X106045000Y-100330000D03*
X103505000Y-102870000D03*
X106045000Y-102870000D03*
X103505000Y-105410000D03*
X106045000Y-105410000D03*
X103505000Y-107950000D03*
X106045000Y-107950000D03*
X103505000Y-110490000D03*
X106045000Y-110490000D03*
D14*
X46730000Y-17785000D03*
D15*
X46730000Y-20325000D03*
X46730000Y-22865000D03*
X46730000Y-25405000D03*
X46730000Y-27945000D03*
X46730000Y-30485000D03*
X46730000Y-33025000D03*
X46730000Y-35565000D03*
X46730000Y-38105000D03*
X46730000Y-40645000D03*
X54350000Y-40645000D03*
X54350000Y-38105000D03*
X54350000Y-35565000D03*
X54350000Y-33025000D03*
X54350000Y-30485000D03*
X54350000Y-27945000D03*
X54350000Y-25405000D03*
X54350000Y-22865000D03*
X54350000Y-20325000D03*
X54350000Y-17785000D03*
D16*
X93345000Y-46990000D03*
D17*
X95885000Y-46990000D03*
X93345000Y-49530000D03*
X95885000Y-49530000D03*
X93345000Y-52070000D03*
X95885000Y-52070000D03*
X93345000Y-54610000D03*
X95885000Y-54610000D03*
X93345000Y-57150000D03*
X95885000Y-57150000D03*
X93345000Y-59690000D03*
X95885000Y-59690000D03*
X93345000Y-62230000D03*
X95885000Y-62230000D03*
X93345000Y-64770000D03*
X95885000Y-64770000D03*
X93345000Y-67310000D03*
X95885000Y-67310000D03*
X93345000Y-69850000D03*
X95885000Y-69850000D03*
X93345000Y-72390000D03*
X95885000Y-72390000D03*
X93345000Y-74930000D03*
X95885000Y-74930000D03*
X93345000Y-77470000D03*
X95885000Y-77470000D03*
X93345000Y-80010000D03*
X95885000Y-80010000D03*
X93345000Y-82550000D03*
X95885000Y-82550000D03*
X93345000Y-85090000D03*
X95885000Y-85090000D03*
X93345000Y-87630000D03*
X95885000Y-87630000D03*
X93345000Y-90170000D03*
X95885000Y-90170000D03*
X93345000Y-92710000D03*
X95885000Y-92710000D03*
X93345000Y-95250000D03*
X95885000Y-95250000D03*
X93345000Y-97790000D03*
X95885000Y-97790000D03*
X93345000Y-100330000D03*
X95885000Y-100330000D03*
X93345000Y-102870000D03*
X95885000Y-102870000D03*
X93345000Y-105410000D03*
X95885000Y-105410000D03*
X93345000Y-107950000D03*
X95885000Y-107950000D03*
X93345000Y-110490000D03*
X95885000Y-110490000D03*
D16*
X108585000Y-46990000D03*
D17*
X111125000Y-46990000D03*
X108585000Y-49530000D03*
X111125000Y-49530000D03*
X108585000Y-52070000D03*
X111125000Y-52070000D03*
X108585000Y-54610000D03*
X111125000Y-54610000D03*
X108585000Y-57150000D03*
X111125000Y-57150000D03*
X108585000Y-59690000D03*
X111125000Y-59690000D03*
X108585000Y-62230000D03*
X111125000Y-62230000D03*
X108585000Y-64770000D03*
X111125000Y-64770000D03*
X108585000Y-67310000D03*
X111125000Y-67310000D03*
X108585000Y-69850000D03*
X111125000Y-69850000D03*
X108585000Y-72390000D03*
X111125000Y-72390000D03*
X108585000Y-74930000D03*
X111125000Y-74930000D03*
X108585000Y-77470000D03*
X111125000Y-77470000D03*
X108585000Y-80010000D03*
X111125000Y-80010000D03*
X108585000Y-82550000D03*
X111125000Y-82550000D03*
X108585000Y-85090000D03*
X111125000Y-85090000D03*
X108585000Y-87630000D03*
X111125000Y-87630000D03*
X108585000Y-90170000D03*
X111125000Y-90170000D03*
X108585000Y-92710000D03*
X111125000Y-92710000D03*
X108585000Y-95250000D03*
X111125000Y-95250000D03*
X108585000Y-97790000D03*
X111125000Y-97790000D03*
X108585000Y-100330000D03*
X111125000Y-100330000D03*
X108585000Y-102870000D03*
X111125000Y-102870000D03*
X108585000Y-105410000D03*
X111125000Y-105410000D03*
X108585000Y-107950000D03*
X111125000Y-107950000D03*
X108585000Y-110490000D03*
X111125000Y-110490000D03*
D18*
X72390000Y-50880000D03*
X72390000Y-55880000D03*
D12*
X93710000Y-26035000D03*
D13*
X95610000Y-26035000D03*
D18*
X87630000Y-100965000D03*
X87630000Y-95965000D03*
X88225000Y-39370000D03*
X83225000Y-39370000D03*
D12*
X93710000Y-27940000D03*
D13*
X95610000Y-27940000D03*
D14*
X62870000Y-85715000D03*
D15*
X65410000Y-85715000D03*
X67950000Y-85715000D03*
X70490000Y-85715000D03*
X73030000Y-85715000D03*
X75570000Y-85715000D03*
X78110000Y-85715000D03*
X80650000Y-85715000D03*
X83190000Y-85715000D03*
X85730000Y-85715000D03*
X85730000Y-78095000D03*
X83190000Y-78095000D03*
X80650000Y-78095000D03*
X78110000Y-78095000D03*
X75570000Y-78095000D03*
X73030000Y-78095000D03*
X70490000Y-78095000D03*
X67950000Y-78095000D03*
X65410000Y-78095000D03*
X62870000Y-78095000D03*
D14*
X34925000Y-106045000D03*
D15*
X37465000Y-106045000D03*
X40005000Y-106045000D03*
X42545000Y-106045000D03*
X45085000Y-106045000D03*
X47625000Y-106045000D03*
X50165000Y-106045000D03*
X52705000Y-106045000D03*
X55245000Y-106045000D03*
X57785000Y-106045000D03*
X60325000Y-106045000D03*
X62865000Y-106045000D03*
X65405000Y-106045000D03*
X67945000Y-106045000D03*
X70485000Y-106045000D03*
X73025000Y-106045000D03*
X75565000Y-106045000D03*
X78105000Y-106045000D03*
X80645000Y-106045000D03*
X83185000Y-106045000D03*
X83185000Y-90805000D03*
X80645000Y-90805000D03*
X78105000Y-90805000D03*
X75565000Y-90805000D03*
X73025000Y-90805000D03*
X70485000Y-90805000D03*
X67945000Y-90805000D03*
X65405000Y-90805000D03*
X62865000Y-90805000D03*
X60325000Y-90805000D03*
X57785000Y-90805000D03*
X55245000Y-90805000D03*
X52705000Y-90805000D03*
X50165000Y-90805000D03*
X47625000Y-90805000D03*
X45085000Y-90805000D03*
X42545000Y-90805000D03*
X40005000Y-90805000D03*
X37465000Y-90805000D03*
X34925000Y-90805000D03*
D18*
X73065000Y-44450000D03*
X78065000Y-44450000D03*
D16*
X20955000Y-106680000D03*
D17*
X23495000Y-106680000D03*
X20955000Y-104140000D03*
X23495000Y-104140000D03*
X20955000Y-101600000D03*
X23495000Y-101600000D03*
X20955000Y-99060000D03*
X23495000Y-99060000D03*
X20955000Y-96520000D03*
X23495000Y-96520000D03*
X20955000Y-93980000D03*
X23495000Y-93980000D03*
X20955000Y-91440000D03*
X23495000Y-91440000D03*
X20955000Y-88900000D03*
X23495000Y-88900000D03*
X20955000Y-86360000D03*
X23495000Y-86360000D03*
X20955000Y-83820000D03*
X23495000Y-83820000D03*
X20955000Y-81280000D03*
X23495000Y-81280000D03*
X20955000Y-78740000D03*
X23495000Y-78740000D03*
X20955000Y-76200000D03*
X23495000Y-76200000D03*
X20955000Y-73660000D03*
X23495000Y-73660000D03*
X20955000Y-71120000D03*
X23495000Y-71120000D03*
X20955000Y-68580000D03*
X23495000Y-68580000D03*
X20955000Y-66040000D03*
X23495000Y-66040000D03*
X20955000Y-63500000D03*
X23495000Y-63500000D03*
X20955000Y-60960000D03*
X23495000Y-60960000D03*
X20955000Y-58420000D03*
X23495000Y-58420000D03*
X20955000Y-55880000D03*
X23495000Y-55880000D03*
X20955000Y-53340000D03*
X23495000Y-53340000D03*
X20955000Y-50800000D03*
X23495000Y-50800000D03*
X20955000Y-48260000D03*
X23495000Y-48260000D03*
X20955000Y-45720000D03*
X23495000Y-45720000D03*
X20955000Y-43180000D03*
X23495000Y-43180000D03*
X20955000Y-40640000D03*
X23495000Y-40640000D03*
X20955000Y-38100000D03*
X23495000Y-38100000D03*
X20955000Y-35560000D03*
X23495000Y-35560000D03*
X20955000Y-33020000D03*
X23495000Y-33020000D03*
X20955000Y-30480000D03*
X23495000Y-30480000D03*
X20955000Y-27940000D03*
X23495000Y-27940000D03*
X20955000Y-25400000D03*
X23495000Y-25400000D03*
X20955000Y-22860000D03*
X23495000Y-22860000D03*
X20955000Y-20320000D03*
X23495000Y-20320000D03*
X20955000Y-17780000D03*
X23495000Y-17780000D03*
D14*
X82925000Y-17795000D03*
D15*
X82925000Y-20335000D03*
X82925000Y-22875000D03*
X82925000Y-25415000D03*
X82925000Y-27955000D03*
X82925000Y-30495000D03*
X82925000Y-33035000D03*
X82925000Y-35575000D03*
X90545000Y-35575000D03*
X90545000Y-33035000D03*
X90545000Y-30495000D03*
X90545000Y-27955000D03*
X90545000Y-25415000D03*
X90545000Y-22875000D03*
X90545000Y-20335000D03*
X90545000Y-17795000D03*
D14*
X34930000Y-70475000D03*
D15*
X37470000Y-70475000D03*
X40010000Y-70475000D03*
X42550000Y-70475000D03*
X45090000Y-70475000D03*
X47630000Y-70475000D03*
X50170000Y-70475000D03*
X52710000Y-70475000D03*
X55250000Y-70475000D03*
X57790000Y-70475000D03*
X57790000Y-62855000D03*
X55250000Y-62855000D03*
X52710000Y-62855000D03*
X50170000Y-62855000D03*
X47630000Y-62855000D03*
X45090000Y-62855000D03*
X42550000Y-62855000D03*
X40010000Y-62855000D03*
X37470000Y-62855000D03*
X34930000Y-62855000D03*
D12*
X93710000Y-33020000D03*
D13*
X95610000Y-33020000D03*
D14*
X58785000Y-17780000D03*
D15*
X58785000Y-20320000D03*
X58785000Y-22860000D03*
X58785000Y-25400000D03*
X58785000Y-27940000D03*
X58785000Y-30480000D03*
X58785000Y-33020000D03*
X58785000Y-35560000D03*
X58785000Y-38100000D03*
X58785000Y-40640000D03*
X66405000Y-40640000D03*
X66405000Y-38100000D03*
X66405000Y-35560000D03*
X66405000Y-33020000D03*
X66405000Y-30480000D03*
X66405000Y-27940000D03*
X66405000Y-25400000D03*
X66405000Y-22860000D03*
X66405000Y-20320000D03*
X66405000Y-17780000D03*
D14*
X34925000Y-85725000D03*
D15*
X37465000Y-85725000D03*
X40005000Y-85725000D03*
X42545000Y-85725000D03*
X45085000Y-85725000D03*
X47625000Y-85725000D03*
X50165000Y-85725000D03*
X52705000Y-85725000D03*
X55245000Y-85725000D03*
X57785000Y-85725000D03*
X57785000Y-78105000D03*
X55245000Y-78105000D03*
X52705000Y-78105000D03*
X50165000Y-78105000D03*
X47625000Y-78105000D03*
X45085000Y-78105000D03*
X42545000Y-78105000D03*
X40005000Y-78105000D03*
X37465000Y-78105000D03*
X34925000Y-78105000D03*
D14*
X34925000Y-55880000D03*
D15*
X37465000Y-55880000D03*
X40005000Y-55880000D03*
X42545000Y-55880000D03*
X45085000Y-55880000D03*
X47625000Y-55880000D03*
X50165000Y-55880000D03*
X52705000Y-55880000D03*
X55245000Y-55880000D03*
X57785000Y-55880000D03*
X60325000Y-55880000D03*
X62865000Y-55880000D03*
X65405000Y-55880000D03*
X67945000Y-55880000D03*
X67945000Y-48260000D03*
X65405000Y-48260000D03*
X62865000Y-48260000D03*
X60325000Y-48260000D03*
X57785000Y-48260000D03*
X55245000Y-48260000D03*
X52705000Y-48260000D03*
X50165000Y-48260000D03*
X47625000Y-48260000D03*
X45085000Y-48260000D03*
X42545000Y-48260000D03*
X40005000Y-48260000D03*
X37465000Y-48260000D03*
X34925000Y-48260000D03*
D14*
X62870000Y-70475000D03*
D15*
X65410000Y-70475000D03*
X67950000Y-70475000D03*
X70490000Y-70475000D03*
X73030000Y-70475000D03*
X75570000Y-70475000D03*
X78110000Y-70475000D03*
X80650000Y-70475000D03*
X83190000Y-70475000D03*
X85730000Y-70475000D03*
X85730000Y-62855000D03*
X83190000Y-62855000D03*
X80650000Y-62855000D03*
X78110000Y-62855000D03*
X75570000Y-62855000D03*
X73030000Y-62855000D03*
X70490000Y-62855000D03*
X67950000Y-62855000D03*
X65410000Y-62855000D03*
X62870000Y-62855000D03*
D19*
X106825000Y-15455000D03*
X106825000Y-40455000D03*
D14*
X104775000Y-23640000D03*
D18*
X104775000Y-25930000D03*
X104775000Y-28220000D03*
X104775000Y-30510000D03*
X104775000Y-32800000D03*
X106755000Y-22495000D03*
X106755000Y-24785000D03*
X106755000Y-27075000D03*
X106755000Y-29365000D03*
X106755000Y-31655000D03*
X108735000Y-23640000D03*
X108735000Y-25930000D03*
X108735000Y-28220000D03*
X108735000Y-30510000D03*
X108735000Y-32800000D03*
D16*
X98425000Y-46990000D03*
D17*
X100965000Y-46990000D03*
X98425000Y-49530000D03*
X100965000Y-49530000D03*
X98425000Y-52070000D03*
X100965000Y-52070000D03*
X98425000Y-54610000D03*
X100965000Y-54610000D03*
X98425000Y-57150000D03*
X100965000Y-57150000D03*
X98425000Y-59690000D03*
X100965000Y-59690000D03*
X98425000Y-62230000D03*
X100965000Y-62230000D03*
X98425000Y-64770000D03*
X100965000Y-64770000D03*
X98425000Y-67310000D03*
X100965000Y-67310000D03*
X98425000Y-69850000D03*
X100965000Y-69850000D03*
X98425000Y-72390000D03*
X100965000Y-72390000D03*
X98425000Y-74930000D03*
X100965000Y-74930000D03*
X98425000Y-77470000D03*
X100965000Y-77470000D03*
X98425000Y-80010000D03*
X100965000Y-80010000D03*
X98425000Y-82550000D03*
X100965000Y-82550000D03*
X98425000Y-85090000D03*
X100965000Y-85090000D03*
X98425000Y-87630000D03*
X100965000Y-87630000D03*
X98425000Y-90170000D03*
X100965000Y-90170000D03*
X98425000Y-92710000D03*
X100965000Y-92710000D03*
X98425000Y-95250000D03*
X100965000Y-95250000D03*
X98425000Y-97790000D03*
X100965000Y-97790000D03*
X98425000Y-100330000D03*
X100965000Y-100330000D03*
X98425000Y-102870000D03*
X100965000Y-102870000D03*
X98425000Y-105410000D03*
X100965000Y-105410000D03*
X98425000Y-107950000D03*
X100965000Y-107950000D03*
X98425000Y-110490000D03*
X100965000Y-110490000D03*
M02*
