M48
; DRILL file {KiCad (6.0.1)} date Wed Aug  9 21:55:17 2023
; FORMAT={-:-/ absolute / metric / decimal}
; #@! TF.CreationDate,2023-08-09T21:55:17+02:00
; #@! TF.GenerationSoftware,Kicad,Pcbnew,(6.0.1)
; #@! TF.FileFunction,Plated,1,2,PTH
FMAT,2
METRIC
; #@! TA.AperFunction,Plated,PTH,ViaDrill
T1C0.400
; #@! TA.AperFunction,Plated,PTH,ComponentDrill
T2C0.700
; #@! TA.AperFunction,Plated,PTH,ComponentDrill
T3C0.800
; #@! TA.AperFunction,Plated,PTH,ComponentDrill
T4C1.000
; #@! TA.AperFunction,Plated,PTH,ComponentDrill
T5C3.200
%
G90
G05
T1
X27.677Y-74.119
X28.647Y-84.015
X29.182Y-82.499
X31.121Y-40.34
X31.62Y-94.728
X31.919Y-62.824
X32.675Y-48.906
X33.045Y-94.281
X35.614Y-68.084
X35.716Y-50.603
X36.935Y-51.509
X38.735Y-40.533
X43.126Y-59.04
X44.582Y-15.755
X45.571Y-58.709
X46.586Y-53.931
X49.569Y-16.22
X51.2Y-75.8
X53.809Y-80.129
X54.725Y-81.29
X57.051Y-39.616
X57.176Y-65.341
X60.533Y-58.836
X60.762Y-19.399
X60.958Y-61.24
X61.382Y-77.992
X61.419Y-54.964
X61.518Y-76.669
X61.789Y-57.987
X61.858Y-60.089
X64.463Y-56.953
X66.105Y-54.42
X68.829Y-50.044
X70.879Y-56.566
X72.374Y-27.036
X72.595Y-52.281
X72.745Y-24.872
X75.14Y-51.756
X75.356Y-65.922
X75.863Y-48.597
X76.502Y-88.176
X77.527Y-51.981
X78.423Y-72.887
X79.689Y-88.201
X80.445Y-35.39
X80.693Y-67.52
T2
X93.71Y-26.035
X93.71Y-27.94
X93.71Y-33.02
X93.71Y-35.56
X95.61Y-26.035
X95.61Y-27.94
X95.61Y-33.02
X95.61Y-35.56
T3
X34.925Y-17.78
X34.925Y-20.32
X34.925Y-22.86
X34.925Y-25.4
X34.925Y-27.94
X34.925Y-30.48
X34.925Y-33.02
X34.925Y-35.56
X34.925Y-38.1
X34.925Y-40.64
X34.925Y-48.26
X34.925Y-55.88
X34.925Y-78.105
X34.925Y-85.725
X34.925Y-90.805
X34.925Y-106.045
X34.93Y-62.855
X34.93Y-70.475
X37.465Y-48.26
X37.465Y-55.88
X37.465Y-78.105
X37.465Y-85.725
X37.465Y-90.805
X37.465Y-106.045
X37.47Y-62.855
X37.47Y-70.475
X40.005Y-48.26
X40.005Y-55.88
X40.005Y-78.105
X40.005Y-85.725
X40.005Y-90.805
X40.005Y-106.045
X40.01Y-62.855
X40.01Y-70.475
X42.545Y-17.78
X42.545Y-20.32
X42.545Y-22.86
X42.545Y-25.4
X42.545Y-27.94
X42.545Y-30.48
X42.545Y-33.02
X42.545Y-35.56
X42.545Y-38.1
X42.545Y-40.64
X42.545Y-48.26
X42.545Y-55.88
X42.545Y-78.105
X42.545Y-85.725
X42.545Y-90.805
X42.545Y-106.045
X42.55Y-62.855
X42.55Y-70.475
X45.085Y-48.26
X45.085Y-55.88
X45.085Y-78.105
X45.085Y-85.725
X45.085Y-90.805
X45.085Y-106.045
X45.09Y-62.855
X45.09Y-70.475
X46.73Y-17.785
X46.73Y-20.325
X46.73Y-22.865
X46.73Y-25.405
X46.73Y-27.945
X46.73Y-30.485
X46.73Y-33.025
X46.73Y-35.565
X46.73Y-38.105
X46.73Y-40.645
X47.625Y-48.26
X47.625Y-55.88
X47.625Y-78.105
X47.625Y-85.725
X47.625Y-90.805
X47.625Y-106.045
X47.63Y-62.855
X47.63Y-70.475
X50.165Y-48.26
X50.165Y-55.88
X50.165Y-78.105
X50.165Y-85.725
X50.165Y-90.805
X50.165Y-106.045
X50.17Y-62.855
X50.17Y-70.475
X52.705Y-48.26
X52.705Y-55.88
X52.705Y-78.105
X52.705Y-85.725
X52.705Y-90.805
X52.705Y-106.045
X52.71Y-62.855
X52.71Y-70.475
X54.35Y-17.785
X54.35Y-20.325
X54.35Y-22.865
X54.35Y-25.405
X54.35Y-27.945
X54.35Y-30.485
X54.35Y-33.025
X54.35Y-35.565
X54.35Y-38.105
X54.35Y-40.645
X55.245Y-48.26
X55.245Y-55.88
X55.245Y-78.105
X55.245Y-85.725
X55.245Y-90.805
X55.245Y-106.045
X55.25Y-62.855
X55.25Y-70.475
X57.785Y-48.26
X57.785Y-55.88
X57.785Y-78.105
X57.785Y-85.725
X57.785Y-90.805
X57.785Y-106.045
X57.79Y-62.855
X57.79Y-70.475
X58.785Y-17.78
X58.785Y-20.32
X58.785Y-22.86
X58.785Y-25.4
X58.785Y-27.94
X58.785Y-30.48
X58.785Y-33.02
X58.785Y-35.56
X58.785Y-38.1
X58.785Y-40.64
X60.325Y-48.26
X60.325Y-55.88
X60.325Y-90.805
X60.325Y-106.045
X62.865Y-48.26
X62.865Y-55.88
X62.865Y-90.805
X62.865Y-106.045
X62.87Y-62.855
X62.87Y-70.475
X62.87Y-78.095
X62.87Y-85.715
X65.405Y-48.26
X65.405Y-55.88
X65.405Y-90.805
X65.405Y-106.045
X65.41Y-62.855
X65.41Y-70.475
X65.41Y-78.095
X65.41Y-85.715
X66.405Y-17.78
X66.405Y-20.32
X66.405Y-22.86
X66.405Y-25.4
X66.405Y-27.94
X66.405Y-30.48
X66.405Y-33.02
X66.405Y-35.56
X66.405Y-38.1
X66.405Y-40.64
X67.945Y-48.26
X67.945Y-55.88
X67.945Y-90.805
X67.945Y-106.045
X67.95Y-62.855
X67.95Y-70.475
X67.95Y-78.095
X67.95Y-85.715
X70.485Y-90.805
X70.485Y-106.045
X70.49Y-62.855
X70.49Y-70.475
X70.49Y-78.095
X70.49Y-85.715
X70.86Y-17.785
X70.86Y-20.325
X70.86Y-22.865
X70.86Y-25.405
X70.86Y-27.945
X70.86Y-30.485
X70.86Y-33.025
X70.86Y-35.565
X70.86Y-38.105
X70.86Y-40.645
X72.39Y-50.88
X72.39Y-55.88
X73.025Y-90.805
X73.025Y-106.045
X73.03Y-62.855
X73.03Y-70.475
X73.03Y-78.095
X73.03Y-85.715
X73.065Y-44.45
X75.565Y-90.805
X75.565Y-106.045
X75.57Y-62.855
X75.57Y-70.475
X75.57Y-78.095
X75.57Y-85.715
X78.065Y-44.45
X78.105Y-90.805
X78.105Y-106.045
X78.11Y-62.855
X78.11Y-70.475
X78.11Y-78.095
X78.11Y-85.715
X78.48Y-17.785
X78.48Y-20.325
X78.48Y-22.865
X78.48Y-25.405
X78.48Y-27.945
X78.48Y-30.485
X78.48Y-33.025
X78.48Y-35.565
X78.48Y-38.105
X78.48Y-40.645
X80.645Y-90.805
X80.645Y-106.045
X80.65Y-62.855
X80.65Y-70.475
X80.65Y-78.095
X80.65Y-85.715
X82.925Y-17.795
X82.925Y-20.335
X82.925Y-22.875
X82.925Y-25.415
X82.925Y-27.955
X82.925Y-30.495
X82.925Y-33.035
X82.925Y-35.575
X83.185Y-90.805
X83.185Y-106.045
X83.19Y-62.855
X83.19Y-70.475
X83.19Y-78.095
X83.19Y-85.715
X83.225Y-39.37
X85.73Y-62.855
X85.73Y-70.475
X85.73Y-78.095
X85.73Y-85.715
X87.63Y-95.965
X87.63Y-100.965
X88.225Y-39.37
X90.545Y-17.795
X90.545Y-20.335
X90.545Y-22.875
X90.545Y-25.415
X90.545Y-27.955
X90.545Y-30.495
X90.545Y-33.035
X90.545Y-35.575
T4
X20.955Y-17.78
X20.955Y-20.32
X20.955Y-22.86
X20.955Y-25.4
X20.955Y-27.94
X20.955Y-30.48
X20.955Y-33.02
X20.955Y-35.56
X20.955Y-38.1
X20.955Y-40.64
X20.955Y-43.18
X20.955Y-45.72
X20.955Y-48.26
X20.955Y-50.8
X20.955Y-53.34
X20.955Y-55.88
X20.955Y-58.42
X20.955Y-60.96
X20.955Y-63.5
X20.955Y-66.04
X20.955Y-68.58
X20.955Y-71.12
X20.955Y-73.66
X20.955Y-76.2
X20.955Y-78.74
X20.955Y-81.28
X20.955Y-83.82
X20.955Y-86.36
X20.955Y-88.9
X20.955Y-91.44
X20.955Y-93.98
X20.955Y-96.52
X20.955Y-99.06
X20.955Y-101.6
X20.955Y-104.14
X20.955Y-106.68
X23.495Y-17.78
X23.495Y-20.32
X23.495Y-22.86
X23.495Y-25.4
X23.495Y-27.94
X23.495Y-30.48
X23.495Y-33.02
X23.495Y-35.56
X23.495Y-38.1
X23.495Y-40.64
X23.495Y-43.18
X23.495Y-45.72
X23.495Y-48.26
X23.495Y-50.8
X23.495Y-53.34
X23.495Y-55.88
X23.495Y-58.42
X23.495Y-60.96
X23.495Y-63.5
X23.495Y-66.04
X23.495Y-68.58
X23.495Y-71.12
X23.495Y-73.66
X23.495Y-76.2
X23.495Y-78.74
X23.495Y-81.28
X23.495Y-83.82
X23.495Y-86.36
X23.495Y-88.9
X23.495Y-91.44
X23.495Y-93.98
X23.495Y-96.52
X23.495Y-99.06
X23.495Y-101.6
X23.495Y-104.14
X23.495Y-106.68
X93.345Y-46.99
X93.345Y-49.53
X93.345Y-52.07
X93.345Y-54.61
X93.345Y-57.15
X93.345Y-59.69
X93.345Y-62.23
X93.345Y-64.77
X93.345Y-67.31
X93.345Y-69.85
X93.345Y-72.39
X93.345Y-74.93
X93.345Y-77.47
X93.345Y-80.01
X93.345Y-82.55
X93.345Y-85.09
X93.345Y-87.63
X93.345Y-90.17
X93.345Y-92.71
X93.345Y-95.25
X93.345Y-97.79
X93.345Y-100.33
X93.345Y-102.87
X93.345Y-105.41
X93.345Y-107.95
X93.345Y-110.49
X95.885Y-46.99
X95.885Y-49.53
X95.885Y-52.07
X95.885Y-54.61
X95.885Y-57.15
X95.885Y-59.69
X95.885Y-62.23
X95.885Y-64.77
X95.885Y-67.31
X95.885Y-69.85
X95.885Y-72.39
X95.885Y-74.93
X95.885Y-77.47
X95.885Y-80.01
X95.885Y-82.55
X95.885Y-85.09
X95.885Y-87.63
X95.885Y-90.17
X95.885Y-92.71
X95.885Y-95.25
X95.885Y-97.79
X95.885Y-100.33
X95.885Y-102.87
X95.885Y-105.41
X95.885Y-107.95
X95.885Y-110.49
X98.425Y-46.99
X98.425Y-49.53
X98.425Y-52.07
X98.425Y-54.61
X98.425Y-57.15
X98.425Y-59.69
X98.425Y-62.23
X98.425Y-64.77
X98.425Y-67.31
X98.425Y-69.85
X98.425Y-72.39
X98.425Y-74.93
X98.425Y-77.47
X98.425Y-80.01
X98.425Y-82.55
X98.425Y-85.09
X98.425Y-87.63
X98.425Y-90.17
X98.425Y-92.71
X98.425Y-95.25
X98.425Y-97.79
X98.425Y-100.33
X98.425Y-102.87
X98.425Y-105.41
X98.425Y-107.95
X98.425Y-110.49
X100.965Y-46.99
X100.965Y-49.53
X100.965Y-52.07
X100.965Y-54.61
X100.965Y-57.15
X100.965Y-59.69
X100.965Y-62.23
X100.965Y-64.77
X100.965Y-67.31
X100.965Y-69.85
X100.965Y-72.39
X100.965Y-74.93
X100.965Y-77.47
X100.965Y-80.01
X100.965Y-82.55
X100.965Y-85.09
X100.965Y-87.63
X100.965Y-90.17
X100.965Y-92.71
X100.965Y-95.25
X100.965Y-97.79
X100.965Y-100.33
X100.965Y-102.87
X100.965Y-105.41
X100.965Y-107.95
X100.965Y-110.49
X103.505Y-46.99
X103.505Y-49.53
X103.505Y-52.07
X103.505Y-54.61
X103.505Y-57.15
X103.505Y-59.69
X103.505Y-62.23
X103.505Y-64.77
X103.505Y-67.31
X103.505Y-69.85
X103.505Y-72.39
X103.505Y-74.93
X103.505Y-77.47
X103.505Y-80.01
X103.505Y-82.55
X103.505Y-85.09
X103.505Y-87.63
X103.505Y-90.17
X103.505Y-92.71
X103.505Y-95.25
X103.505Y-97.79
X103.505Y-100.33
X103.505Y-102.87
X103.505Y-105.41
X103.505Y-107.95
X103.505Y-110.49
X104.775Y-23.64
X104.775Y-25.93
X104.775Y-28.22
X104.775Y-30.51
X104.775Y-32.8
X106.045Y-46.99
X106.045Y-49.53
X106.045Y-52.07
X106.045Y-54.61
X106.045Y-57.15
X106.045Y-59.69
X106.045Y-62.23
X106.045Y-64.77
X106.045Y-67.31
X106.045Y-69.85
X106.045Y-72.39
X106.045Y-74.93
X106.045Y-77.47
X106.045Y-80.01
X106.045Y-82.55
X106.045Y-85.09
X106.045Y-87.63
X106.045Y-90.17
X106.045Y-92.71
X106.045Y-95.25
X106.045Y-97.79
X106.045Y-100.33
X106.045Y-102.87
X106.045Y-105.41
X106.045Y-107.95
X106.045Y-110.49
X106.755Y-22.495
X106.755Y-24.785
X106.755Y-27.075
X106.755Y-29.365
X106.755Y-31.655
X108.585Y-46.99
X108.585Y-49.53
X108.585Y-52.07
X108.585Y-54.61
X108.585Y-57.15
X108.585Y-59.69
X108.585Y-62.23
X108.585Y-64.77
X108.585Y-67.31
X108.585Y-69.85
X108.585Y-72.39
X108.585Y-74.93
X108.585Y-77.47
X108.585Y-80.01
X108.585Y-82.55
X108.585Y-85.09
X108.585Y-87.63
X108.585Y-90.17
X108.585Y-92.71
X108.585Y-95.25
X108.585Y-97.79
X108.585Y-100.33
X108.585Y-102.87
X108.585Y-105.41
X108.585Y-107.95
X108.585Y-110.49
X108.735Y-23.64
X108.735Y-25.93
X108.735Y-28.22
X108.735Y-30.51
X108.735Y-32.8
X111.125Y-46.99
X111.125Y-49.53
X111.125Y-52.07
X111.125Y-54.61
X111.125Y-57.15
X111.125Y-59.69
X111.125Y-62.23
X111.125Y-64.77
X111.125Y-67.31
X111.125Y-69.85
X111.125Y-72.39
X111.125Y-74.93
X111.125Y-77.47
X111.125Y-80.01
X111.125Y-82.55
X111.125Y-85.09
X111.125Y-87.63
X111.125Y-90.17
X111.125Y-92.71
X111.125Y-95.25
X111.125Y-97.79
X111.125Y-100.33
X111.125Y-102.87
X111.125Y-105.41
X111.125Y-107.95
X111.125Y-110.49
T5
X106.825Y-15.455
X106.825Y-40.455
T0
M30
