G04 #@! TF.GenerationSoftware,KiCad,Pcbnew,(6.0.1)*
G04 #@! TF.CreationDate,2023-08-09T21:54:41+02:00*
G04 #@! TF.ProjectId,VT100_GRAPH,56543130-305f-4475-9241-50482e6b6963,rev?*
G04 #@! TF.SameCoordinates,Original*
G04 #@! TF.FileFunction,Copper,L2,Bot*
G04 #@! TF.FilePolarity,Positive*
%FSLAX46Y46*%
G04 Gerber Fmt 4.6, Leading zero omitted, Abs format (unit mm)*
G04 Created by KiCad (PCBNEW (6.0.1)) date 2023-08-09 21:54:41*
%MOMM*%
%LPD*%
G01*
G04 APERTURE LIST*
G04 #@! TA.AperFunction,ComponentPad*
%ADD10C,1.400000*%
G04 #@! TD*
G04 #@! TA.AperFunction,ComponentPad*
%ADD11O,1.400000X1.400000*%
G04 #@! TD*
G04 #@! TA.AperFunction,ComponentPad*
%ADD12R,1.600000X1.600000*%
G04 #@! TD*
G04 #@! TA.AperFunction,ComponentPad*
%ADD13O,1.600000X1.600000*%
G04 #@! TD*
G04 #@! TA.AperFunction,ComponentPad*
%ADD14R,1.700000X1.700000*%
G04 #@! TD*
G04 #@! TA.AperFunction,ComponentPad*
%ADD15O,1.700000X1.700000*%
G04 #@! TD*
G04 #@! TA.AperFunction,ComponentPad*
%ADD16C,1.600000*%
G04 #@! TD*
G04 #@! TA.AperFunction,ComponentPad*
%ADD17C,4.000000*%
G04 #@! TD*
G04 #@! TA.AperFunction,ViaPad*
%ADD18C,0.800000*%
G04 #@! TD*
G04 #@! TA.AperFunction,Conductor*
%ADD19C,0.250000*%
G04 #@! TD*
G04 #@! TA.AperFunction,Conductor*
%ADD20C,1.000000*%
G04 #@! TD*
G04 APERTURE END LIST*
D10*
X93710000Y-35560000D03*
D11*
X95610000Y-35560000D03*
D12*
X34925000Y-17780000D03*
D13*
X34925000Y-20320000D03*
X34925000Y-22860000D03*
X34925000Y-25400000D03*
X34925000Y-27940000D03*
X34925000Y-30480000D03*
X34925000Y-33020000D03*
X34925000Y-35560000D03*
X34925000Y-38100000D03*
X34925000Y-40640000D03*
X42545000Y-40640000D03*
X42545000Y-38100000D03*
X42545000Y-35560000D03*
X42545000Y-33020000D03*
X42545000Y-30480000D03*
X42545000Y-27940000D03*
X42545000Y-25400000D03*
X42545000Y-22860000D03*
X42545000Y-20320000D03*
X42545000Y-17780000D03*
D12*
X70860000Y-17785000D03*
D13*
X70860000Y-20325000D03*
X70860000Y-22865000D03*
X70860000Y-25405000D03*
X70860000Y-27945000D03*
X70860000Y-30485000D03*
X70860000Y-33025000D03*
X70860000Y-35565000D03*
X70860000Y-38105000D03*
X70860000Y-40645000D03*
X78480000Y-40645000D03*
X78480000Y-38105000D03*
X78480000Y-35565000D03*
X78480000Y-33025000D03*
X78480000Y-30485000D03*
X78480000Y-27945000D03*
X78480000Y-25405000D03*
X78480000Y-22865000D03*
X78480000Y-20325000D03*
X78480000Y-17785000D03*
D14*
X103505000Y-46990000D03*
D15*
X106045000Y-46990000D03*
X103505000Y-49530000D03*
X106045000Y-49530000D03*
X103505000Y-52070000D03*
X106045000Y-52070000D03*
X103505000Y-54610000D03*
X106045000Y-54610000D03*
X103505000Y-57150000D03*
X106045000Y-57150000D03*
X103505000Y-59690000D03*
X106045000Y-59690000D03*
X103505000Y-62230000D03*
X106045000Y-62230000D03*
X103505000Y-64770000D03*
X106045000Y-64770000D03*
X103505000Y-67310000D03*
X106045000Y-67310000D03*
X103505000Y-69850000D03*
X106045000Y-69850000D03*
X103505000Y-72390000D03*
X106045000Y-72390000D03*
X103505000Y-74930000D03*
X106045000Y-74930000D03*
X103505000Y-77470000D03*
X106045000Y-77470000D03*
X103505000Y-80010000D03*
X106045000Y-80010000D03*
X103505000Y-82550000D03*
X106045000Y-82550000D03*
X103505000Y-85090000D03*
X106045000Y-85090000D03*
X103505000Y-87630000D03*
X106045000Y-87630000D03*
X103505000Y-90170000D03*
X106045000Y-90170000D03*
X103505000Y-92710000D03*
X106045000Y-92710000D03*
X103505000Y-95250000D03*
X106045000Y-95250000D03*
X103505000Y-97790000D03*
X106045000Y-97790000D03*
X103505000Y-100330000D03*
X106045000Y-100330000D03*
X103505000Y-102870000D03*
X106045000Y-102870000D03*
X103505000Y-105410000D03*
X106045000Y-105410000D03*
X103505000Y-107950000D03*
X106045000Y-107950000D03*
X103505000Y-110490000D03*
X106045000Y-110490000D03*
D12*
X46730000Y-17785000D03*
D13*
X46730000Y-20325000D03*
X46730000Y-22865000D03*
X46730000Y-25405000D03*
X46730000Y-27945000D03*
X46730000Y-30485000D03*
X46730000Y-33025000D03*
X46730000Y-35565000D03*
X46730000Y-38105000D03*
X46730000Y-40645000D03*
X54350000Y-40645000D03*
X54350000Y-38105000D03*
X54350000Y-35565000D03*
X54350000Y-33025000D03*
X54350000Y-30485000D03*
X54350000Y-27945000D03*
X54350000Y-25405000D03*
X54350000Y-22865000D03*
X54350000Y-20325000D03*
X54350000Y-17785000D03*
D14*
X93345000Y-46990000D03*
D15*
X95885000Y-46990000D03*
X93345000Y-49530000D03*
X95885000Y-49530000D03*
X93345000Y-52070000D03*
X95885000Y-52070000D03*
X93345000Y-54610000D03*
X95885000Y-54610000D03*
X93345000Y-57150000D03*
X95885000Y-57150000D03*
X93345000Y-59690000D03*
X95885000Y-59690000D03*
X93345000Y-62230000D03*
X95885000Y-62230000D03*
X93345000Y-64770000D03*
X95885000Y-64770000D03*
X93345000Y-67310000D03*
X95885000Y-67310000D03*
X93345000Y-69850000D03*
X95885000Y-69850000D03*
X93345000Y-72390000D03*
X95885000Y-72390000D03*
X93345000Y-74930000D03*
X95885000Y-74930000D03*
X93345000Y-77470000D03*
X95885000Y-77470000D03*
X93345000Y-80010000D03*
X95885000Y-80010000D03*
X93345000Y-82550000D03*
X95885000Y-82550000D03*
X93345000Y-85090000D03*
X95885000Y-85090000D03*
X93345000Y-87630000D03*
X95885000Y-87630000D03*
X93345000Y-90170000D03*
X95885000Y-90170000D03*
X93345000Y-92710000D03*
X95885000Y-92710000D03*
X93345000Y-95250000D03*
X95885000Y-95250000D03*
X93345000Y-97790000D03*
X95885000Y-97790000D03*
X93345000Y-100330000D03*
X95885000Y-100330000D03*
X93345000Y-102870000D03*
X95885000Y-102870000D03*
X93345000Y-105410000D03*
X95885000Y-105410000D03*
X93345000Y-107950000D03*
X95885000Y-107950000D03*
X93345000Y-110490000D03*
X95885000Y-110490000D03*
D14*
X108585000Y-46990000D03*
D15*
X111125000Y-46990000D03*
X108585000Y-49530000D03*
X111125000Y-49530000D03*
X108585000Y-52070000D03*
X111125000Y-52070000D03*
X108585000Y-54610000D03*
X111125000Y-54610000D03*
X108585000Y-57150000D03*
X111125000Y-57150000D03*
X108585000Y-59690000D03*
X111125000Y-59690000D03*
X108585000Y-62230000D03*
X111125000Y-62230000D03*
X108585000Y-64770000D03*
X111125000Y-64770000D03*
X108585000Y-67310000D03*
X111125000Y-67310000D03*
X108585000Y-69850000D03*
X111125000Y-69850000D03*
X108585000Y-72390000D03*
X111125000Y-72390000D03*
X108585000Y-74930000D03*
X111125000Y-74930000D03*
X108585000Y-77470000D03*
X111125000Y-77470000D03*
X108585000Y-80010000D03*
X111125000Y-80010000D03*
X108585000Y-82550000D03*
X111125000Y-82550000D03*
X108585000Y-85090000D03*
X111125000Y-85090000D03*
X108585000Y-87630000D03*
X111125000Y-87630000D03*
X108585000Y-90170000D03*
X111125000Y-90170000D03*
X108585000Y-92710000D03*
X111125000Y-92710000D03*
X108585000Y-95250000D03*
X111125000Y-95250000D03*
X108585000Y-97790000D03*
X111125000Y-97790000D03*
X108585000Y-100330000D03*
X111125000Y-100330000D03*
X108585000Y-102870000D03*
X111125000Y-102870000D03*
X108585000Y-105410000D03*
X111125000Y-105410000D03*
X108585000Y-107950000D03*
X111125000Y-107950000D03*
X108585000Y-110490000D03*
X111125000Y-110490000D03*
D16*
X72390000Y-50880000D03*
X72390000Y-55880000D03*
D10*
X93710000Y-26035000D03*
D11*
X95610000Y-26035000D03*
D16*
X87630000Y-100965000D03*
X87630000Y-95965000D03*
X88225000Y-39370000D03*
X83225000Y-39370000D03*
D10*
X93710000Y-27940000D03*
D11*
X95610000Y-27940000D03*
D12*
X62870000Y-85715000D03*
D13*
X65410000Y-85715000D03*
X67950000Y-85715000D03*
X70490000Y-85715000D03*
X73030000Y-85715000D03*
X75570000Y-85715000D03*
X78110000Y-85715000D03*
X80650000Y-85715000D03*
X83190000Y-85715000D03*
X85730000Y-85715000D03*
X85730000Y-78095000D03*
X83190000Y-78095000D03*
X80650000Y-78095000D03*
X78110000Y-78095000D03*
X75570000Y-78095000D03*
X73030000Y-78095000D03*
X70490000Y-78095000D03*
X67950000Y-78095000D03*
X65410000Y-78095000D03*
X62870000Y-78095000D03*
D12*
X34925000Y-106045000D03*
D13*
X37465000Y-106045000D03*
X40005000Y-106045000D03*
X42545000Y-106045000D03*
X45085000Y-106045000D03*
X47625000Y-106045000D03*
X50165000Y-106045000D03*
X52705000Y-106045000D03*
X55245000Y-106045000D03*
X57785000Y-106045000D03*
X60325000Y-106045000D03*
X62865000Y-106045000D03*
X65405000Y-106045000D03*
X67945000Y-106045000D03*
X70485000Y-106045000D03*
X73025000Y-106045000D03*
X75565000Y-106045000D03*
X78105000Y-106045000D03*
X80645000Y-106045000D03*
X83185000Y-106045000D03*
X83185000Y-90805000D03*
X80645000Y-90805000D03*
X78105000Y-90805000D03*
X75565000Y-90805000D03*
X73025000Y-90805000D03*
X70485000Y-90805000D03*
X67945000Y-90805000D03*
X65405000Y-90805000D03*
X62865000Y-90805000D03*
X60325000Y-90805000D03*
X57785000Y-90805000D03*
X55245000Y-90805000D03*
X52705000Y-90805000D03*
X50165000Y-90805000D03*
X47625000Y-90805000D03*
X45085000Y-90805000D03*
X42545000Y-90805000D03*
X40005000Y-90805000D03*
X37465000Y-90805000D03*
X34925000Y-90805000D03*
D16*
X73065000Y-44450000D03*
X78065000Y-44450000D03*
D14*
X20955000Y-106680000D03*
D15*
X23495000Y-106680000D03*
X20955000Y-104140000D03*
X23495000Y-104140000D03*
X20955000Y-101600000D03*
X23495000Y-101600000D03*
X20955000Y-99060000D03*
X23495000Y-99060000D03*
X20955000Y-96520000D03*
X23495000Y-96520000D03*
X20955000Y-93980000D03*
X23495000Y-93980000D03*
X20955000Y-91440000D03*
X23495000Y-91440000D03*
X20955000Y-88900000D03*
X23495000Y-88900000D03*
X20955000Y-86360000D03*
X23495000Y-86360000D03*
X20955000Y-83820000D03*
X23495000Y-83820000D03*
X20955000Y-81280000D03*
X23495000Y-81280000D03*
X20955000Y-78740000D03*
X23495000Y-78740000D03*
X20955000Y-76200000D03*
X23495000Y-76200000D03*
X20955000Y-73660000D03*
X23495000Y-73660000D03*
X20955000Y-71120000D03*
X23495000Y-71120000D03*
X20955000Y-68580000D03*
X23495000Y-68580000D03*
X20955000Y-66040000D03*
X23495000Y-66040000D03*
X20955000Y-63500000D03*
X23495000Y-63500000D03*
X20955000Y-60960000D03*
X23495000Y-60960000D03*
X20955000Y-58420000D03*
X23495000Y-58420000D03*
X20955000Y-55880000D03*
X23495000Y-55880000D03*
X20955000Y-53340000D03*
X23495000Y-53340000D03*
X20955000Y-50800000D03*
X23495000Y-50800000D03*
X20955000Y-48260000D03*
X23495000Y-48260000D03*
X20955000Y-45720000D03*
X23495000Y-45720000D03*
X20955000Y-43180000D03*
X23495000Y-43180000D03*
X20955000Y-40640000D03*
X23495000Y-40640000D03*
X20955000Y-38100000D03*
X23495000Y-38100000D03*
X20955000Y-35560000D03*
X23495000Y-35560000D03*
X20955000Y-33020000D03*
X23495000Y-33020000D03*
X20955000Y-30480000D03*
X23495000Y-30480000D03*
X20955000Y-27940000D03*
X23495000Y-27940000D03*
X20955000Y-25400000D03*
X23495000Y-25400000D03*
X20955000Y-22860000D03*
X23495000Y-22860000D03*
X20955000Y-20320000D03*
X23495000Y-20320000D03*
X20955000Y-17780000D03*
X23495000Y-17780000D03*
D12*
X82925000Y-17795000D03*
D13*
X82925000Y-20335000D03*
X82925000Y-22875000D03*
X82925000Y-25415000D03*
X82925000Y-27955000D03*
X82925000Y-30495000D03*
X82925000Y-33035000D03*
X82925000Y-35575000D03*
X90545000Y-35575000D03*
X90545000Y-33035000D03*
X90545000Y-30495000D03*
X90545000Y-27955000D03*
X90545000Y-25415000D03*
X90545000Y-22875000D03*
X90545000Y-20335000D03*
X90545000Y-17795000D03*
D12*
X34930000Y-70475000D03*
D13*
X37470000Y-70475000D03*
X40010000Y-70475000D03*
X42550000Y-70475000D03*
X45090000Y-70475000D03*
X47630000Y-70475000D03*
X50170000Y-70475000D03*
X52710000Y-70475000D03*
X55250000Y-70475000D03*
X57790000Y-70475000D03*
X57790000Y-62855000D03*
X55250000Y-62855000D03*
X52710000Y-62855000D03*
X50170000Y-62855000D03*
X47630000Y-62855000D03*
X45090000Y-62855000D03*
X42550000Y-62855000D03*
X40010000Y-62855000D03*
X37470000Y-62855000D03*
X34930000Y-62855000D03*
D10*
X93710000Y-33020000D03*
D11*
X95610000Y-33020000D03*
D12*
X58785000Y-17780000D03*
D13*
X58785000Y-20320000D03*
X58785000Y-22860000D03*
X58785000Y-25400000D03*
X58785000Y-27940000D03*
X58785000Y-30480000D03*
X58785000Y-33020000D03*
X58785000Y-35560000D03*
X58785000Y-38100000D03*
X58785000Y-40640000D03*
X66405000Y-40640000D03*
X66405000Y-38100000D03*
X66405000Y-35560000D03*
X66405000Y-33020000D03*
X66405000Y-30480000D03*
X66405000Y-27940000D03*
X66405000Y-25400000D03*
X66405000Y-22860000D03*
X66405000Y-20320000D03*
X66405000Y-17780000D03*
D12*
X34925000Y-85725000D03*
D13*
X37465000Y-85725000D03*
X40005000Y-85725000D03*
X42545000Y-85725000D03*
X45085000Y-85725000D03*
X47625000Y-85725000D03*
X50165000Y-85725000D03*
X52705000Y-85725000D03*
X55245000Y-85725000D03*
X57785000Y-85725000D03*
X57785000Y-78105000D03*
X55245000Y-78105000D03*
X52705000Y-78105000D03*
X50165000Y-78105000D03*
X47625000Y-78105000D03*
X45085000Y-78105000D03*
X42545000Y-78105000D03*
X40005000Y-78105000D03*
X37465000Y-78105000D03*
X34925000Y-78105000D03*
D12*
X34925000Y-55880000D03*
D13*
X37465000Y-55880000D03*
X40005000Y-55880000D03*
X42545000Y-55880000D03*
X45085000Y-55880000D03*
X47625000Y-55880000D03*
X50165000Y-55880000D03*
X52705000Y-55880000D03*
X55245000Y-55880000D03*
X57785000Y-55880000D03*
X60325000Y-55880000D03*
X62865000Y-55880000D03*
X65405000Y-55880000D03*
X67945000Y-55880000D03*
X67945000Y-48260000D03*
X65405000Y-48260000D03*
X62865000Y-48260000D03*
X60325000Y-48260000D03*
X57785000Y-48260000D03*
X55245000Y-48260000D03*
X52705000Y-48260000D03*
X50165000Y-48260000D03*
X47625000Y-48260000D03*
X45085000Y-48260000D03*
X42545000Y-48260000D03*
X40005000Y-48260000D03*
X37465000Y-48260000D03*
X34925000Y-48260000D03*
D12*
X62870000Y-70475000D03*
D13*
X65410000Y-70475000D03*
X67950000Y-70475000D03*
X70490000Y-70475000D03*
X73030000Y-70475000D03*
X75570000Y-70475000D03*
X78110000Y-70475000D03*
X80650000Y-70475000D03*
X83190000Y-70475000D03*
X85730000Y-70475000D03*
X85730000Y-62855000D03*
X83190000Y-62855000D03*
X80650000Y-62855000D03*
X78110000Y-62855000D03*
X75570000Y-62855000D03*
X73030000Y-62855000D03*
X70490000Y-62855000D03*
X67950000Y-62855000D03*
X65410000Y-62855000D03*
X62870000Y-62855000D03*
D17*
X106825000Y-15455000D03*
X106825000Y-40455000D03*
D12*
X104775000Y-23640000D03*
D16*
X104775000Y-25930000D03*
X104775000Y-28220000D03*
X104775000Y-30510000D03*
X104775000Y-32800000D03*
X106755000Y-22495000D03*
X106755000Y-24785000D03*
X106755000Y-27075000D03*
X106755000Y-29365000D03*
X106755000Y-31655000D03*
X108735000Y-23640000D03*
X108735000Y-25930000D03*
X108735000Y-28220000D03*
X108735000Y-30510000D03*
X108735000Y-32800000D03*
D14*
X98425000Y-46990000D03*
D15*
X100965000Y-46990000D03*
X98425000Y-49530000D03*
X100965000Y-49530000D03*
X98425000Y-52070000D03*
X100965000Y-52070000D03*
X98425000Y-54610000D03*
X100965000Y-54610000D03*
X98425000Y-57150000D03*
X100965000Y-57150000D03*
X98425000Y-59690000D03*
X100965000Y-59690000D03*
X98425000Y-62230000D03*
X100965000Y-62230000D03*
X98425000Y-64770000D03*
X100965000Y-64770000D03*
X98425000Y-67310000D03*
X100965000Y-67310000D03*
X98425000Y-69850000D03*
X100965000Y-69850000D03*
X98425000Y-72390000D03*
X100965000Y-72390000D03*
X98425000Y-74930000D03*
X100965000Y-74930000D03*
X98425000Y-77470000D03*
X100965000Y-77470000D03*
X98425000Y-80010000D03*
X100965000Y-80010000D03*
X98425000Y-82550000D03*
X100965000Y-82550000D03*
X98425000Y-85090000D03*
X100965000Y-85090000D03*
X98425000Y-87630000D03*
X100965000Y-87630000D03*
X98425000Y-90170000D03*
X100965000Y-90170000D03*
X98425000Y-92710000D03*
X100965000Y-92710000D03*
X98425000Y-95250000D03*
X100965000Y-95250000D03*
X98425000Y-97790000D03*
X100965000Y-97790000D03*
X98425000Y-100330000D03*
X100965000Y-100330000D03*
X98425000Y-102870000D03*
X100965000Y-102870000D03*
X98425000Y-105410000D03*
X100965000Y-105410000D03*
X98425000Y-107950000D03*
X100965000Y-107950000D03*
X98425000Y-110490000D03*
X100965000Y-110490000D03*
D18*
X49568600Y-16220300D03*
X33045100Y-94281100D03*
X61518500Y-76668600D03*
X31620100Y-94728200D03*
X61381800Y-77991900D03*
X68829500Y-50044300D03*
X70879200Y-56565500D03*
X66104900Y-54420500D03*
X75863200Y-48596800D03*
X80693100Y-67519800D03*
X75139900Y-51755700D03*
X78423000Y-72887200D03*
X57050600Y-39615900D03*
X61419300Y-54963700D03*
X76501600Y-88175700D03*
X43125700Y-59039900D03*
X45571300Y-58708600D03*
X51200000Y-75800400D03*
X61789500Y-57987300D03*
X64463300Y-56953300D03*
X31918700Y-62824100D03*
X61857600Y-60088600D03*
X72595300Y-52281000D03*
X44582300Y-15755200D03*
X60761900Y-19399500D03*
X77527200Y-51980800D03*
X60533100Y-58836300D03*
X53808800Y-80129300D03*
X36935300Y-51508700D03*
X75356100Y-65922500D03*
X35715700Y-50602900D03*
X54725500Y-81289900D03*
X29182400Y-82499500D03*
X28647100Y-84015400D03*
X57175900Y-65340700D03*
X31120900Y-40340100D03*
X60958200Y-61240200D03*
X46586100Y-53930800D03*
X38735000Y-40533100D03*
X27676700Y-74119200D03*
X32675500Y-48906200D03*
X79689100Y-88201200D03*
X35613500Y-68083600D03*
X72374100Y-27036200D03*
X72745300Y-24872100D03*
X80445400Y-35389900D03*
D19*
X62861500Y-61248500D02*
X56515000Y-67595000D01*
X56515000Y-67595000D02*
X56515000Y-81167500D01*
X60325000Y-55880000D02*
X60325000Y-57005100D01*
X56325500Y-39916200D02*
X56649600Y-40240300D01*
X54119800Y-83562700D02*
X54119800Y-86072000D01*
X62861500Y-59986900D02*
X62861500Y-61248500D01*
X54119800Y-86072000D02*
X52705000Y-87486800D01*
X52705000Y-90805000D02*
X52705000Y-91930100D01*
X60325000Y-57005100D02*
X61064400Y-57744500D01*
X56515000Y-81167500D02*
X54119800Y-83562700D01*
X58785000Y-21445100D02*
X58503700Y-21445100D01*
X56370100Y-95595200D02*
X56370100Y-106568200D01*
X52705000Y-87486800D02*
X52705000Y-90805000D01*
X61587000Y-58712400D02*
X62861500Y-59986900D01*
X23495000Y-106680000D02*
X24670100Y-106680000D01*
X61064400Y-58287600D02*
X61489200Y-58712400D01*
X26396800Y-108406700D02*
X24670100Y-106680000D01*
X58785000Y-20320000D02*
X58785000Y-21445100D01*
X56649600Y-40240300D02*
X56649600Y-51079500D01*
X52705000Y-91930100D02*
X56370100Y-95595200D01*
X64284900Y-68224800D02*
X64284900Y-62672000D01*
X65410000Y-70475000D02*
X65410000Y-69349900D01*
X56325500Y-23623300D02*
X56325500Y-39916200D01*
X65410000Y-69349900D02*
X64284900Y-68224800D01*
X58503700Y-21445100D02*
X56325500Y-23623300D01*
X56370100Y-106568200D02*
X54531600Y-108406700D01*
X54531600Y-108406700D02*
X26396800Y-108406700D01*
X60325000Y-55880000D02*
X60325000Y-54754900D01*
X61489200Y-58712400D02*
X61587000Y-58712400D01*
X56649600Y-51079500D02*
X60325000Y-54754900D01*
X61064400Y-57744500D02*
X61064400Y-58287600D01*
X64284900Y-62672000D02*
X62861500Y-61248500D01*
D20*
X78480000Y-17785000D02*
X78480000Y-20325000D01*
X62870000Y-77461400D02*
X62870000Y-78095000D01*
X33424800Y-93105100D02*
X33424800Y-88725300D01*
X34925000Y-85725000D02*
X34925000Y-87225100D01*
X34925000Y-78105000D02*
X34925000Y-85725000D01*
X34930000Y-61354900D02*
X33424800Y-59849700D01*
X62870000Y-78095000D02*
X62870000Y-85715000D01*
X37465000Y-97145300D02*
X33424800Y-93105100D01*
X61334900Y-74929300D02*
X61334900Y-65890200D01*
X34925000Y-48260000D02*
X34925000Y-46759900D01*
X55850100Y-17785000D02*
X57355300Y-16279800D01*
X84050100Y-104544900D02*
X87630000Y-100965000D01*
X88225000Y-20115000D02*
X88225000Y-39370000D01*
X83185000Y-104544900D02*
X84050100Y-104544900D01*
X33424800Y-88725300D02*
X34925000Y-87225100D01*
X37465000Y-106045000D02*
X37465000Y-97145300D01*
X73065000Y-44450000D02*
X73065000Y-40310000D01*
X34930000Y-62855000D02*
X34930000Y-61354900D01*
X66405000Y-17780000D02*
X64904900Y-17780000D01*
X61334900Y-65890200D02*
X62870000Y-64355100D01*
X73065000Y-40310000D02*
X70860000Y-38105000D01*
X37625200Y-44059700D02*
X37625200Y-22699800D01*
X34930000Y-76599900D02*
X34930000Y-70475000D01*
X72390000Y-45125000D02*
X72390000Y-50880000D01*
X51133300Y-17785000D02*
X49568600Y-16220300D01*
X62870000Y-76594900D02*
X62870000Y-76464400D01*
X62870000Y-62855000D02*
X62870000Y-64355100D01*
X34925000Y-78105000D02*
X34925000Y-76604900D01*
X62870000Y-76464400D02*
X61334900Y-74929300D01*
X70860000Y-22865000D02*
X70860000Y-20325000D01*
X62870000Y-77461400D02*
X62870000Y-76594900D01*
X33424800Y-59849700D02*
X33424800Y-51260300D01*
X54350000Y-17785000D02*
X51133300Y-17785000D01*
X54350000Y-17785000D02*
X55850100Y-17785000D01*
X37625200Y-22699800D02*
X42545000Y-17780000D01*
X90545000Y-17795000D02*
X88225000Y-20115000D01*
X73065000Y-44450000D02*
X72390000Y-45125000D01*
X57355300Y-16279800D02*
X63404700Y-16279800D01*
X34925000Y-48260000D02*
X34925000Y-49760100D01*
X33424800Y-51260300D02*
X34925000Y-49760100D01*
X34925000Y-46759900D02*
X37625200Y-44059700D01*
X34925000Y-76604900D02*
X34930000Y-76599900D01*
X83185000Y-106045000D02*
X83185000Y-104544900D01*
X63404700Y-16279800D02*
X64904900Y-17780000D01*
D19*
X67950000Y-69349900D02*
X66824900Y-68224800D01*
X66824900Y-68224800D02*
X66824900Y-60965000D01*
X55478100Y-89679900D02*
X55245000Y-89679900D01*
X33045100Y-94281100D02*
X33045100Y-94358300D01*
X61518500Y-76668600D02*
X60266600Y-77920500D01*
X58785000Y-22860000D02*
X58785000Y-23985100D01*
X57635500Y-24901400D02*
X58551800Y-23985100D01*
X62865000Y-53335000D02*
X59055000Y-49525000D01*
X62865000Y-55880000D02*
X62865000Y-53335000D01*
X58551800Y-23985100D02*
X58785000Y-23985100D01*
X66824900Y-60965000D02*
X62865000Y-57005100D01*
X59055000Y-49525000D02*
X59055000Y-46656400D01*
X24438500Y-102964900D02*
X23495000Y-102964900D01*
X60266600Y-77920500D02*
X60266600Y-84891400D01*
X57635500Y-40056500D02*
X57775700Y-39916300D01*
X57635500Y-39175300D02*
X57635500Y-24901400D01*
X33045100Y-94358300D02*
X24438500Y-102964900D01*
X60266600Y-84891400D02*
X55478100Y-89679900D01*
X23495000Y-104140000D02*
X23495000Y-102964900D01*
X67950000Y-70475000D02*
X67950000Y-69349900D01*
X59055000Y-46656400D02*
X57635500Y-45236900D01*
X57775700Y-39916300D02*
X57775700Y-39315500D01*
X62865000Y-55880000D02*
X62865000Y-57005100D01*
X57635500Y-45236900D02*
X57635500Y-40056500D01*
X57775700Y-39315500D02*
X57635500Y-39175300D01*
X55245000Y-90805000D02*
X55245000Y-89679900D01*
X59018100Y-26525100D02*
X64319600Y-31826600D01*
X70490000Y-69349900D02*
X69364900Y-68224800D01*
X57785000Y-89679900D02*
X61381800Y-86083100D01*
X65670900Y-57135300D02*
X65670900Y-55880000D01*
X70490000Y-70475000D02*
X70490000Y-69349900D01*
X31620100Y-94728200D02*
X31541900Y-94728200D01*
X69364900Y-60829300D02*
X65670900Y-57135300D01*
X58785000Y-25400000D02*
X58785000Y-26525100D01*
X64319600Y-31826600D02*
X64319600Y-40319000D01*
X58785000Y-26525100D02*
X59018100Y-26525100D01*
X57785000Y-90805000D02*
X57785000Y-89679900D01*
X31541900Y-94728200D02*
X24670100Y-101600000D01*
X23495000Y-101600000D02*
X24670100Y-101600000D01*
X66986400Y-54564500D02*
X65670900Y-55880000D01*
X69070200Y-45069600D02*
X69070200Y-48778200D01*
X69070200Y-48778200D02*
X66986400Y-50862000D01*
X61381800Y-86083100D02*
X61381800Y-77991900D01*
X64319600Y-40319000D02*
X69070200Y-45069600D01*
X69364900Y-68224800D02*
X69364900Y-60829300D01*
X66986400Y-50862000D02*
X66986400Y-54564500D01*
X65405000Y-55880000D02*
X65670900Y-55880000D01*
X64284900Y-81794500D02*
X64284900Y-86421700D01*
X71904900Y-62528600D02*
X66806300Y-57430000D01*
X73030000Y-70756200D02*
X73030000Y-71600100D01*
X66806300Y-55381200D02*
X68829500Y-53358000D01*
X59018100Y-29065100D02*
X58785000Y-29065100D01*
X64284900Y-86421700D02*
X61026700Y-89679900D01*
X73030000Y-70756200D02*
X73030000Y-70475000D01*
X73030000Y-70475000D02*
X73030000Y-69349900D01*
X67945000Y-47134900D02*
X63869400Y-43059300D01*
X73030000Y-71600100D02*
X72796800Y-71600100D01*
X71904900Y-68224800D02*
X71904900Y-62528600D01*
X58785000Y-27940000D02*
X58785000Y-29065100D01*
X66806300Y-57430000D02*
X66806300Y-55381200D01*
X72796800Y-71600100D02*
X66680000Y-77716900D01*
X63869400Y-43059300D02*
X63869400Y-33916400D01*
X60325000Y-90805000D02*
X60325000Y-89679900D01*
X67945000Y-48260000D02*
X67945000Y-47134900D01*
X73030000Y-69349900D02*
X71904900Y-68224800D01*
X66680000Y-79399400D02*
X64284900Y-81794500D01*
X68829500Y-53358000D02*
X68829500Y-50044300D01*
X63869400Y-33916400D02*
X59018100Y-29065100D01*
X61026700Y-89679900D02*
X60325000Y-89679900D01*
X66680000Y-77716900D02*
X66680000Y-79399400D01*
X69220000Y-77705900D02*
X69220000Y-78455200D01*
X75570000Y-71600100D02*
X75325800Y-71600100D01*
X63363200Y-45093100D02*
X65405000Y-47134900D01*
X62865000Y-90805000D02*
X62865000Y-89679900D01*
X74631000Y-65622200D02*
X74631000Y-68410900D01*
X58785000Y-30480000D02*
X58785000Y-31605100D01*
X58785000Y-31605100D02*
X59018100Y-31605100D01*
X63363200Y-35950200D02*
X63363200Y-45093100D01*
X74631000Y-68410900D02*
X75570000Y-69349900D01*
X75570000Y-70475000D02*
X75570000Y-71600100D01*
X76740400Y-62426700D02*
X76740400Y-63512800D01*
X66104900Y-50085000D02*
X66104900Y-54420500D01*
X70879200Y-56565500D02*
X76740400Y-62426700D01*
X66680000Y-80995200D02*
X66680000Y-86097400D01*
X66680000Y-86097400D02*
X63097500Y-89679900D01*
X65405000Y-49385100D02*
X66104900Y-50085000D01*
X75570000Y-70475000D02*
X75570000Y-69349900D01*
X63097500Y-89679900D02*
X62865000Y-89679900D01*
X75325800Y-71600100D02*
X69220000Y-77705900D01*
X69220000Y-78455200D02*
X66680000Y-80995200D01*
X65405000Y-48260000D02*
X65405000Y-49385100D01*
X76740400Y-63512800D02*
X74631000Y-65622200D01*
X65405000Y-48260000D02*
X65405000Y-47134900D01*
X59018100Y-31605100D02*
X63363200Y-35950200D01*
X77865800Y-71600100D02*
X71760000Y-77705900D01*
X80693100Y-67519800D02*
X81789400Y-66423500D01*
X69146100Y-81074600D02*
X69146100Y-86171900D01*
X65405000Y-90805000D02*
X65405000Y-89679900D01*
X81789400Y-54523000D02*
X75863200Y-48596800D01*
X58785000Y-33020000D02*
X58785000Y-34145100D01*
X78110000Y-70475000D02*
X78110000Y-71600100D01*
X78110000Y-71600100D02*
X77865800Y-71600100D01*
X59018100Y-34145100D02*
X62865000Y-37992000D01*
X81789400Y-66423500D02*
X81789400Y-54523000D01*
X62865000Y-37992000D02*
X62865000Y-47134900D01*
X62865000Y-47697400D02*
X62865000Y-47134900D01*
X65638100Y-89679900D02*
X65405000Y-89679900D01*
X71760000Y-77705900D02*
X71760000Y-78460700D01*
X58785000Y-34145100D02*
X59018100Y-34145100D01*
X71760000Y-78460700D02*
X69146100Y-81074600D01*
X69146100Y-86171900D02*
X65638100Y-89679900D01*
X62865000Y-47697400D02*
X62865000Y-48260000D01*
X80650000Y-70475000D02*
X80650000Y-69349900D01*
X74300000Y-77010200D02*
X74300000Y-81115800D01*
X71760000Y-86098000D02*
X68178100Y-89679900D01*
X80650000Y-69349900D02*
X79524900Y-68224800D01*
X71760000Y-83655800D02*
X71760000Y-86098000D01*
X58785000Y-35560000D02*
X58785000Y-36685100D01*
X60325000Y-48260000D02*
X60325000Y-37992000D01*
X68178100Y-89679900D02*
X67945000Y-89679900D01*
X79524900Y-68224800D02*
X79524900Y-56140700D01*
X67945000Y-90805000D02*
X67945000Y-89679900D01*
X60325000Y-37992000D02*
X59018100Y-36685100D01*
X59018100Y-36685100D02*
X58785000Y-36685100D01*
X74300000Y-81115800D02*
X71760000Y-83655800D01*
X78423000Y-72887200D02*
X74300000Y-77010200D01*
X79524900Y-56140700D02*
X75139900Y-51755700D01*
X57785000Y-47134900D02*
X57185300Y-46535200D01*
X61419300Y-54963700D02*
X57785000Y-51329400D01*
X57785000Y-48260000D02*
X57785000Y-47134900D01*
X83190000Y-71600100D02*
X82064900Y-72725200D01*
X57185300Y-46535200D02*
X57185300Y-39750600D01*
X71610100Y-90571800D02*
X71610100Y-90805000D01*
X76704800Y-83694500D02*
X76704800Y-86171300D01*
X82064900Y-78334400D02*
X76704800Y-83694500D01*
X70485000Y-90805000D02*
X71610100Y-90805000D01*
X73050800Y-89131100D02*
X71610100Y-90571800D01*
X73745000Y-89131100D02*
X73050800Y-89131100D01*
X57185300Y-39750600D02*
X57050600Y-39615900D01*
X83190000Y-70475000D02*
X83190000Y-71600100D01*
X76704800Y-86171300D02*
X73745000Y-89131100D01*
X57785000Y-51329400D02*
X57785000Y-48260000D01*
X82064900Y-72725200D02*
X82064900Y-78334400D01*
X40010000Y-62855000D02*
X40010000Y-61729900D01*
X75565000Y-89112300D02*
X75565000Y-90805000D01*
X40435700Y-61729900D02*
X43125700Y-59039900D01*
X40010000Y-62855000D02*
X40010000Y-63980100D01*
X40005000Y-76979900D02*
X38818300Y-75793200D01*
X38818300Y-75793200D02*
X38818300Y-65171800D01*
X38818300Y-65171800D02*
X40010000Y-63980100D01*
X76501600Y-88175700D02*
X75565000Y-89112300D01*
X40010000Y-61729900D02*
X40435700Y-61729900D01*
X40005000Y-78105000D02*
X40005000Y-76979900D01*
X42550000Y-62855000D02*
X42550000Y-63980100D01*
X42550000Y-62855000D02*
X42550000Y-61729900D01*
X41359100Y-65171000D02*
X42550000Y-63980100D01*
X45571300Y-58708600D02*
X42550000Y-61729900D01*
X42545000Y-78105000D02*
X42545000Y-76979900D01*
X41359100Y-75794000D02*
X41359100Y-65171000D01*
X42545000Y-76979900D02*
X41359100Y-75794000D01*
X43959900Y-65110200D02*
X43959900Y-73243900D01*
X51579900Y-55880000D02*
X51579900Y-55598700D01*
X48895000Y-55530100D02*
X48895000Y-57924900D01*
X45090000Y-62855000D02*
X45090000Y-61729900D01*
X45085000Y-74369000D02*
X45085000Y-78105000D01*
X45090000Y-62855000D02*
X45090000Y-63980100D01*
X51579900Y-55598700D02*
X50731600Y-54750400D01*
X52705000Y-55880000D02*
X51579900Y-55880000D01*
X49674700Y-54750400D02*
X48895000Y-55530100D01*
X43959900Y-73243900D02*
X45085000Y-74369000D01*
X45090000Y-63980100D02*
X43959900Y-65110200D01*
X50731600Y-54750400D02*
X49674700Y-54750400D01*
X48895000Y-57924900D02*
X45090000Y-61729900D01*
X50165000Y-59194900D02*
X47630000Y-61729900D01*
X47630000Y-62855000D02*
X47630000Y-63980100D01*
X47630000Y-62855000D02*
X47630000Y-61729900D01*
X47625000Y-76979900D02*
X48779900Y-75825000D01*
X48779900Y-75825000D02*
X48779900Y-65130000D01*
X47625000Y-78105000D02*
X47625000Y-76979900D01*
X50165000Y-55880000D02*
X50165000Y-59194900D01*
X48779900Y-65130000D02*
X47630000Y-63980100D01*
X51200000Y-75800400D02*
X50165000Y-76835400D01*
X65410000Y-62855000D02*
X65410000Y-61607800D01*
X65410000Y-61607800D02*
X61789500Y-57987300D01*
X50165000Y-76835400D02*
X50165000Y-78105000D01*
X67950000Y-60440000D02*
X67950000Y-62855000D01*
X64463300Y-56953300D02*
X67950000Y-60440000D01*
X38879900Y-58130200D02*
X38879900Y-63043100D01*
X33587000Y-64492400D02*
X31918700Y-62824100D01*
X37430600Y-64492400D02*
X33587000Y-64492400D01*
X40005000Y-57005100D02*
X38879900Y-58130200D01*
X38879900Y-63043100D02*
X37430600Y-64492400D01*
X40005000Y-55880000D02*
X40005000Y-57005100D01*
X56515000Y-55510200D02*
X56515000Y-56265500D01*
X60338000Y-60088500D02*
X61857600Y-60088500D01*
X51810600Y-50805800D02*
X56515000Y-55510200D01*
X74180900Y-71864100D02*
X67950000Y-78095000D01*
X45982700Y-50805800D02*
X51810600Y-50805800D01*
X75570000Y-62855000D02*
X75570000Y-63980100D01*
X43670100Y-48260000D02*
X43670100Y-48493200D01*
X74180900Y-65369200D02*
X74180900Y-71864100D01*
X42545000Y-48260000D02*
X43670100Y-48260000D01*
X56515000Y-56265500D02*
X60338000Y-60088500D01*
X43670100Y-48493200D02*
X45982700Y-50805800D01*
X75570000Y-63980100D02*
X74180900Y-65369200D01*
X61857600Y-60088500D02*
X61857600Y-60088600D01*
X72595300Y-52281000D02*
X78110000Y-57795700D01*
X78110000Y-57795700D02*
X78110000Y-62855000D01*
X19229100Y-61774100D02*
X20955000Y-63500000D01*
X44226800Y-15399700D02*
X21609100Y-15399700D01*
X44582300Y-15755200D02*
X44226800Y-15399700D01*
X66405000Y-40640000D02*
X64820700Y-39055700D01*
X21609100Y-15399700D02*
X19229100Y-17779700D01*
X19229100Y-17779700D02*
X19229100Y-61774100D01*
X64820700Y-39055700D02*
X64820700Y-23458300D01*
X64820700Y-23458300D02*
X60761900Y-19399500D01*
X77527200Y-51980800D02*
X80650000Y-55103600D01*
X80650000Y-55103600D02*
X80650000Y-62855000D01*
X22319900Y-58785200D02*
X21320200Y-59784900D01*
X20955000Y-60960000D02*
X20955000Y-59784900D01*
X21320200Y-59784900D02*
X20955000Y-59784900D01*
X23127700Y-24035100D02*
X22319900Y-24842900D01*
X23495000Y-22860000D02*
X23495000Y-24035100D01*
X23495000Y-24035100D02*
X23127700Y-24035100D01*
X22319900Y-24842900D02*
X22319900Y-58785200D01*
X59055000Y-55479000D02*
X59055000Y-57358200D01*
X47625000Y-48260000D02*
X48750100Y-48260000D01*
X59055000Y-57358200D02*
X60533100Y-58836300D01*
X53733900Y-50157900D02*
X59055000Y-55479000D01*
X48750100Y-48260000D02*
X48750100Y-48493200D01*
X50414800Y-50157900D02*
X53733900Y-50157900D01*
X48750100Y-48493200D02*
X50414800Y-50157900D01*
X51547600Y-76998700D02*
X51547600Y-78555000D01*
X50170000Y-63980100D02*
X51295100Y-65105200D01*
X37465000Y-54754900D02*
X36935300Y-54225200D01*
X36935300Y-54225200D02*
X36935300Y-51508700D01*
X51295100Y-65105200D02*
X51295100Y-74293800D01*
X51944900Y-74943600D02*
X51944900Y-76601400D01*
X37465000Y-55880000D02*
X37465000Y-54754900D01*
X51547600Y-78555000D02*
X53121900Y-80129300D01*
X51295100Y-74293800D02*
X51944900Y-74943600D01*
X53121900Y-80129300D02*
X53808800Y-80129300D01*
X50170000Y-62855000D02*
X50170000Y-63980100D01*
X51944900Y-76601400D02*
X51547600Y-76998700D01*
X80650000Y-76969900D02*
X79273800Y-75593700D01*
X79273800Y-75593700D02*
X79273800Y-69840200D01*
X80650000Y-78095000D02*
X80650000Y-76969900D01*
X53835000Y-55418700D02*
X53835000Y-60604900D01*
X45397100Y-52808300D02*
X51224600Y-52808300D01*
X51224600Y-52808300D02*
X53835000Y-55418700D01*
X52710000Y-62855000D02*
X52710000Y-61729900D01*
X40005000Y-48260000D02*
X41130100Y-48260000D01*
X41130100Y-48541300D02*
X45397100Y-52808300D01*
X53835000Y-60604900D02*
X52710000Y-61729900D01*
X41130100Y-48260000D02*
X41130100Y-48541300D01*
X79273800Y-69840200D02*
X75356100Y-65922500D01*
X54071300Y-79093600D02*
X54725400Y-79747700D01*
X34925000Y-55880000D02*
X34925000Y-54754900D01*
X54071300Y-65158800D02*
X54071300Y-79093600D01*
X35715700Y-53964200D02*
X35715700Y-50602900D01*
X34925000Y-54754900D02*
X35715700Y-53964200D01*
X55250000Y-62855000D02*
X55250000Y-63980100D01*
X55250000Y-63980100D02*
X54071300Y-65158800D01*
X54725400Y-81289900D02*
X54725500Y-81289900D01*
X54725400Y-79747700D02*
X54725400Y-81289900D01*
X23862200Y-34195100D02*
X29182400Y-39515300D01*
X29182400Y-39515300D02*
X29182400Y-82499500D01*
X23495000Y-34195100D02*
X23862200Y-34195100D01*
X23495000Y-33020000D02*
X23495000Y-34195100D01*
X28411500Y-43826400D02*
X28411500Y-83779800D01*
X28411500Y-83779800D02*
X28647100Y-84015400D01*
X23495000Y-39275100D02*
X23860200Y-39275100D01*
X23495000Y-38100000D02*
X23495000Y-39275100D01*
X23860200Y-39275100D02*
X28411500Y-43826400D01*
X22130200Y-98476500D02*
X21538500Y-97884800D01*
X20655700Y-97884800D02*
X19779800Y-97008900D01*
X21538500Y-97884800D02*
X20655700Y-97884800D01*
X29907600Y-82199100D02*
X29871200Y-82162700D01*
X24003500Y-108860500D02*
X22130200Y-106987200D01*
X75289500Y-108860500D02*
X24003500Y-108860500D01*
X20549900Y-92710000D02*
X23887200Y-92710000D01*
X23862200Y-31655100D02*
X23495000Y-31655100D01*
X19779800Y-97008900D02*
X19779800Y-93480100D01*
X22130200Y-106987200D02*
X22130200Y-98476500D01*
X29871200Y-82162700D02*
X29871200Y-37664100D01*
X29907600Y-86689600D02*
X29907600Y-82199100D01*
X29871200Y-37664100D02*
X23862200Y-31655100D01*
X19779800Y-93480100D02*
X20549900Y-92710000D01*
X23495000Y-30480000D02*
X23495000Y-31655100D01*
X23887200Y-92710000D02*
X29907600Y-86689600D01*
X78105000Y-106045000D02*
X75289500Y-108860500D01*
X23862200Y-26575100D02*
X23495000Y-26575100D01*
X30321300Y-33034200D02*
X23862200Y-26575100D01*
X36339800Y-67784400D02*
X35913900Y-67358500D01*
X34925000Y-90805000D02*
X34925000Y-89679900D01*
X34925000Y-89679900D02*
X36339800Y-88265100D01*
X35401100Y-67358500D02*
X30321300Y-62278700D01*
X36339800Y-88265100D02*
X36339800Y-67784400D01*
X30321300Y-62278700D02*
X30321300Y-33034200D01*
X35913900Y-67358500D02*
X35401100Y-67358500D01*
X23495000Y-25400000D02*
X23495000Y-26575100D01*
X60958200Y-61558400D02*
X60958200Y-61240200D01*
X37470000Y-62855000D02*
X36344900Y-62855000D01*
X35500600Y-63980600D02*
X34448600Y-63980600D01*
X36344900Y-63136300D02*
X35500600Y-63980600D01*
X34448600Y-63980600D02*
X31120900Y-60652900D01*
X57175900Y-65340700D02*
X60958200Y-61558400D01*
X36344900Y-62855000D02*
X36344900Y-63136300D01*
X31120900Y-60652900D02*
X31120900Y-40340100D01*
X38735000Y-48585000D02*
X44080800Y-53930800D01*
X38735000Y-40533100D02*
X38735000Y-48585000D01*
X44080800Y-53930800D02*
X46586100Y-53930800D01*
X22319900Y-20685200D02*
X21415100Y-21590000D01*
X22969300Y-64675200D02*
X23792200Y-64675200D01*
X22130200Y-62974300D02*
X22130200Y-63836100D01*
X23495000Y-20320000D02*
X22319900Y-20320000D01*
X21385900Y-62230000D02*
X22130200Y-62974300D01*
X27676700Y-68559700D02*
X27676700Y-74119200D01*
X23792200Y-64675200D02*
X27676700Y-68559700D01*
X21415100Y-21590000D02*
X20538100Y-21590000D01*
X22319900Y-20320000D02*
X22319900Y-20685200D01*
X22130200Y-63836100D02*
X22969300Y-64675200D01*
X19712900Y-61488200D02*
X20454700Y-62230000D01*
X19712900Y-22415200D02*
X19712900Y-61488200D01*
X20454700Y-62230000D02*
X21385900Y-62230000D01*
X20538100Y-21590000D02*
X19712900Y-22415200D01*
D20*
X36425100Y-39139900D02*
X34925000Y-40640000D01*
X36425100Y-17780000D02*
X36425100Y-39139900D01*
X69445100Y-55880000D02*
X70917600Y-54407500D01*
X78065000Y-42560100D02*
X78065000Y-44450000D01*
X50165000Y-48260000D02*
X50165000Y-46759900D01*
X106755000Y-27075000D02*
X106755000Y-24785000D01*
X82925000Y-35575000D02*
X80702500Y-33352500D01*
X87237200Y-43382200D02*
X84500000Y-40645000D01*
X106755000Y-32800000D02*
X106755000Y-31655000D01*
X55245000Y-48260000D02*
X53697700Y-46712700D01*
X80702500Y-33352500D02*
X80702500Y-25087500D01*
X50351400Y-45766500D02*
X46730000Y-42145100D01*
X87237200Y-67467700D02*
X85730000Y-68974900D01*
X67945000Y-55880000D02*
X69445100Y-55880000D01*
X50165000Y-46759900D02*
X50304200Y-46759900D01*
X78480000Y-40645000D02*
X79980100Y-40645000D01*
X36443300Y-107563300D02*
X34925000Y-106045000D01*
X40005000Y-106045000D02*
X38486700Y-107563300D01*
X104775000Y-32800000D02*
X94192800Y-43382200D01*
X57785000Y-85725000D02*
X57785000Y-84224900D01*
X43551300Y-16279900D02*
X45206500Y-17935100D01*
X45206500Y-17935100D02*
X45229900Y-17935100D01*
X85730000Y-70475000D02*
X85730000Y-68974900D01*
X70917600Y-54407500D02*
X72390000Y-55880000D01*
X85730000Y-85715000D02*
X85730000Y-84214900D01*
X84500000Y-40645000D02*
X83225000Y-40645000D01*
X109354600Y-22132900D02*
X110262500Y-23040800D01*
X106755000Y-33002700D02*
X106755000Y-32800000D01*
X45380000Y-17785000D02*
X45229900Y-17935100D01*
X50304200Y-46759900D02*
X50351400Y-46712700D01*
X46730000Y-17785000D02*
X45530000Y-17785000D01*
X78480000Y-42145100D02*
X78065000Y-42560100D01*
X87252200Y-73497300D02*
X87252200Y-82692700D01*
X109442300Y-34300400D02*
X108052700Y-34300400D01*
X45530000Y-17785000D02*
X45380000Y-17785000D01*
X37925200Y-16279900D02*
X43551300Y-16279900D01*
X53697700Y-46712700D02*
X50351400Y-46712700D01*
X107117100Y-22132900D02*
X109354600Y-22132900D01*
X46730000Y-40645000D02*
X46730000Y-42145100D01*
X106755000Y-22495000D02*
X107117100Y-22132900D01*
X20955000Y-17780000D02*
X20955000Y-20320000D01*
X57790000Y-71975100D02*
X59285900Y-73471000D01*
X94192800Y-43382200D02*
X87237200Y-43382200D01*
X45229900Y-17935100D02*
X45229900Y-39144900D01*
X87237200Y-43382200D02*
X87237200Y-67467700D01*
X34925000Y-17780000D02*
X36425100Y-17780000D01*
X108052700Y-34300400D02*
X106755000Y-33002700D01*
X59285900Y-73471000D02*
X59285900Y-82724000D01*
X70860000Y-54350000D02*
X70917600Y-54407500D01*
X38486700Y-107563300D02*
X36443300Y-107563300D01*
X106755000Y-24785000D02*
X106755000Y-22495000D01*
X45229900Y-39144900D02*
X46730000Y-40645000D01*
X85730000Y-71975100D02*
X87252200Y-73497300D01*
X83225000Y-40645000D02*
X79980100Y-40645000D01*
X110262500Y-33480200D02*
X109442300Y-34300400D01*
X106755000Y-32800000D02*
X104775000Y-32800000D01*
X59285900Y-82724000D02*
X57785000Y-84224900D01*
X85730000Y-70475000D02*
X85730000Y-71975100D01*
X85805000Y-95965000D02*
X87630000Y-95965000D01*
X80645000Y-90805000D02*
X85805000Y-95965000D01*
X70860000Y-40645000D02*
X70860000Y-54350000D01*
X83225000Y-40645000D02*
X83225000Y-39370000D01*
X87252200Y-82692700D02*
X85730000Y-84214900D01*
X57790000Y-70475000D02*
X57790000Y-71975100D01*
X110262500Y-23040800D02*
X110262500Y-33480200D01*
X50351400Y-46712700D02*
X50351400Y-45766500D01*
X78480000Y-40645000D02*
X78480000Y-42145100D01*
X36425100Y-17780000D02*
X37925200Y-16279900D01*
X80702500Y-25087500D02*
X78480000Y-22865000D01*
D19*
X32675500Y-48906200D02*
X32675500Y-27770400D01*
X32675500Y-27770400D02*
X23860200Y-18955100D01*
X23860200Y-18955100D02*
X23495000Y-18955100D01*
X23495000Y-17780000D02*
X23495000Y-18955100D01*
X42545000Y-106045000D02*
X42545000Y-104919900D01*
X40005000Y-85725000D02*
X40005000Y-86850100D01*
X38814400Y-88040700D02*
X38814400Y-101189300D01*
X40005000Y-86850100D02*
X38814400Y-88040700D01*
X38814400Y-101189300D02*
X42545000Y-104919900D01*
X42545000Y-86850100D02*
X41354400Y-88040700D01*
X42545000Y-85725000D02*
X42545000Y-86850100D01*
X41354400Y-88040700D02*
X41354400Y-101189300D01*
X45085000Y-106045000D02*
X45085000Y-104919900D01*
X41354400Y-101189300D02*
X45085000Y-104919900D01*
X45085000Y-85725000D02*
X45085000Y-86850100D01*
X47625000Y-106045000D02*
X47625000Y-104919900D01*
X43894400Y-88040700D02*
X43894400Y-101189300D01*
X45085000Y-86850100D02*
X43894400Y-88040700D01*
X43894400Y-101189300D02*
X47625000Y-104919900D01*
X47625000Y-85725000D02*
X47625000Y-86850100D01*
X50165000Y-106045000D02*
X50165000Y-104919900D01*
X46434400Y-88040700D02*
X46434400Y-101189300D01*
X46434400Y-101189300D02*
X50165000Y-104919900D01*
X47625000Y-86850100D02*
X46434400Y-88040700D01*
X52705000Y-106045000D02*
X52705000Y-104919900D01*
X49008000Y-101222900D02*
X49008000Y-88007100D01*
X52705000Y-104919900D02*
X49008000Y-101222900D01*
X50165000Y-85725000D02*
X50165000Y-86850100D01*
X49008000Y-88007100D02*
X50165000Y-86850100D01*
X55245000Y-106045000D02*
X55245000Y-104919900D01*
X51565600Y-101240500D02*
X55245000Y-104919900D01*
X51565600Y-87989500D02*
X51565600Y-101240500D01*
X52705000Y-85725000D02*
X52705000Y-86850100D01*
X52705000Y-86850100D02*
X51565600Y-87989500D01*
X57785000Y-94993300D02*
X57785000Y-106045000D01*
X54105700Y-91314000D02*
X57785000Y-94993300D01*
X55245000Y-86850100D02*
X54105700Y-87989400D01*
X55245000Y-85725000D02*
X55245000Y-86850100D01*
X54105700Y-87989400D02*
X54105700Y-91314000D01*
X60325000Y-106045000D02*
X60325000Y-104919900D01*
X61450100Y-103794800D02*
X61450100Y-89938500D01*
X61450100Y-89938500D02*
X65410000Y-85978600D01*
X65410000Y-85978600D02*
X65410000Y-85715000D01*
X60325000Y-104919900D02*
X61450100Y-103794800D01*
X62865000Y-104919900D02*
X63990100Y-103794800D01*
X63990100Y-103794800D02*
X63990100Y-89674900D01*
X63990100Y-89674900D02*
X67950000Y-85715000D01*
X62865000Y-106045000D02*
X62865000Y-104919900D01*
X65405000Y-104919900D02*
X66530100Y-103794800D01*
X66530100Y-89674900D02*
X70490000Y-85715000D01*
X66530100Y-103794800D02*
X66530100Y-89674900D01*
X65405000Y-106045000D02*
X65405000Y-104919900D01*
X69070100Y-90566800D02*
X72796800Y-86840100D01*
X67945000Y-104919900D02*
X69070100Y-103794800D01*
X73030000Y-85715000D02*
X73030000Y-86840100D01*
X69070100Y-103794800D02*
X69070100Y-90566800D01*
X67945000Y-106045000D02*
X67945000Y-104919900D01*
X72796800Y-86840100D02*
X73030000Y-86840100D01*
X79375000Y-103016400D02*
X79375000Y-88515300D01*
X76835000Y-106368300D02*
X76835000Y-105556400D01*
X70485000Y-106045000D02*
X71610100Y-106045000D01*
X79375000Y-88515300D02*
X79689100Y-88201200D01*
X72459400Y-107175600D02*
X76027700Y-107175600D01*
X71610100Y-106045000D02*
X71610100Y-106326300D01*
X71610100Y-106326300D02*
X72459400Y-107175600D01*
X76835000Y-105556400D02*
X79375000Y-103016400D01*
X76027700Y-107175600D02*
X76835000Y-106368300D01*
X73025000Y-106045000D02*
X73025000Y-104919900D01*
X78110000Y-85715000D02*
X77936900Y-85715000D01*
X74150100Y-103794800D02*
X73025000Y-104919900D01*
X74150100Y-89501800D02*
X74150100Y-103794800D01*
X77936900Y-85715000D02*
X74150100Y-89501800D01*
X75565000Y-106045000D02*
X75565000Y-104919900D01*
X76690100Y-90169000D02*
X80019000Y-86840100D01*
X75565000Y-104919900D02*
X76690100Y-103794800D01*
X76690100Y-103794800D02*
X76690100Y-90169000D01*
X80019000Y-86840100D02*
X80650000Y-86840100D01*
X80650000Y-85715000D02*
X80650000Y-86840100D01*
X45090000Y-70475000D02*
X45090000Y-71600100D01*
X48798800Y-83569600D02*
X48798800Y-86313000D01*
X48798800Y-86313000D02*
X47625000Y-87486800D01*
X45090000Y-71600100D02*
X46215100Y-72725200D01*
X46215100Y-72725200D02*
X46215100Y-80985900D01*
X46215100Y-80985900D02*
X48798800Y-83569600D01*
X47625000Y-87486800D02*
X47625000Y-90805000D01*
X45085000Y-87486800D02*
X45085000Y-90805000D01*
X43815000Y-80818700D02*
X46242000Y-83245700D01*
X46242000Y-83245700D02*
X46242000Y-86329800D01*
X43815000Y-73842500D02*
X43815000Y-80818700D01*
X42550000Y-71600100D02*
X42550000Y-72577500D01*
X46242000Y-86329800D02*
X45085000Y-87486800D01*
X42550000Y-72577500D02*
X43815000Y-73842500D01*
X42550000Y-70475000D02*
X42550000Y-71600100D01*
X40010000Y-75574900D02*
X41275000Y-76839900D01*
X43702000Y-83091300D02*
X43702000Y-86329800D01*
X41275000Y-80664300D02*
X43702000Y-83091300D01*
X41275000Y-76839900D02*
X41275000Y-80664300D01*
X42545000Y-87486800D02*
X42545000Y-90805000D01*
X43702000Y-86329800D02*
X42545000Y-87486800D01*
X40010000Y-70475000D02*
X40010000Y-75574900D01*
X38735000Y-80587100D02*
X41162000Y-83014100D01*
X37470000Y-70475000D02*
X37470000Y-75574900D01*
X41162000Y-86329800D02*
X40005000Y-87486800D01*
X40005000Y-87486800D02*
X40005000Y-90805000D01*
X38735000Y-76839900D02*
X38735000Y-80587100D01*
X37470000Y-75574900D02*
X38735000Y-76839900D01*
X41162000Y-83014100D02*
X41162000Y-86329800D01*
X97685000Y-33020000D02*
X95610000Y-33020000D01*
X104775000Y-25930000D02*
X97685000Y-33020000D01*
X90545000Y-27955000D02*
X93695000Y-27955000D01*
X93695000Y-27955000D02*
X93710000Y-27940000D01*
X82925000Y-17795000D02*
X81799900Y-17795000D01*
X78852700Y-21595000D02*
X78138000Y-21595000D01*
X78138000Y-21595000D02*
X75233100Y-24499900D01*
X75233100Y-24499900D02*
X75233100Y-30299900D01*
X75233100Y-30299900D02*
X71093100Y-34439900D01*
X71093100Y-34439900D02*
X70860000Y-34439900D01*
X81799900Y-17795000D02*
X81799900Y-18647800D01*
X70860000Y-35565000D02*
X70860000Y-34439900D01*
X81799900Y-18647800D02*
X78852700Y-21595000D01*
X31299700Y-87837200D02*
X23886900Y-95250000D01*
X35613500Y-68083600D02*
X35222100Y-68083600D01*
X35222100Y-68083600D02*
X31299700Y-72006000D01*
X31299700Y-72006000D02*
X31299700Y-87837200D01*
X22130100Y-96154700D02*
X22130100Y-96520000D01*
X23034800Y-95250000D02*
X22130100Y-96154700D01*
X23886900Y-95250000D02*
X23034800Y-95250000D01*
X20955000Y-96520000D02*
X22130100Y-96520000D01*
X69734900Y-33897500D02*
X69734900Y-33025000D01*
X66405000Y-38100000D02*
X66405000Y-36974900D01*
X66657500Y-36974900D02*
X69734900Y-33897500D01*
X66405000Y-36974900D02*
X66657500Y-36974900D01*
X70860000Y-33025000D02*
X69734900Y-33025000D01*
X78480000Y-35565000D02*
X77354900Y-35565000D01*
X65270900Y-36694100D02*
X65270900Y-38559200D01*
X65270900Y-38559200D02*
X65980300Y-39268600D01*
X76084900Y-36835000D02*
X77354900Y-35565000D01*
X69269900Y-36835000D02*
X76084900Y-36835000D01*
X66836300Y-39268600D02*
X69269900Y-36835000D01*
X65980300Y-39268600D02*
X66836300Y-39268600D01*
X66405000Y-35560000D02*
X65270900Y-36694100D01*
X67530100Y-33020000D02*
X69734900Y-30815200D01*
X66405000Y-33020000D02*
X67530100Y-33020000D01*
X70860000Y-30485000D02*
X69734900Y-30485000D01*
X69734900Y-30815200D02*
X69734900Y-30485000D01*
X67530100Y-25400000D02*
X68805100Y-26675000D01*
X72012900Y-26675000D02*
X72374100Y-27036200D01*
X66405000Y-25400000D02*
X67530100Y-25400000D01*
X68805100Y-26675000D02*
X72012900Y-26675000D01*
X66405000Y-20320000D02*
X67530100Y-20320000D01*
X67530100Y-20320000D02*
X67530100Y-21163800D01*
X71863400Y-23990200D02*
X72745300Y-24872100D01*
X67530100Y-21163800D02*
X70356500Y-23990200D01*
X70356500Y-23990200D02*
X71863400Y-23990200D01*
X80867100Y-35389900D02*
X80445400Y-35389900D01*
X89419900Y-39787800D02*
X88666300Y-40541400D01*
X90545000Y-26540100D02*
X90263600Y-26540100D01*
X86018600Y-40541400D02*
X80867100Y-35389900D01*
X89419900Y-27383800D02*
X89419900Y-39787800D01*
X90545000Y-25415000D02*
X90545000Y-26540100D01*
X90263600Y-26540100D02*
X89419900Y-27383800D01*
X88666300Y-40541400D02*
X86018600Y-40541400D01*
X82925000Y-29369900D02*
X83206300Y-29369900D01*
X48995200Y-14937000D02*
X48281400Y-15650800D01*
X48281400Y-26064500D02*
X54116800Y-31899900D01*
X83206300Y-29369900D02*
X85006000Y-27570200D01*
X54350000Y-33025000D02*
X54350000Y-31899900D01*
X48281400Y-15650800D02*
X48281400Y-26064500D01*
X83532100Y-14937000D02*
X48995200Y-14937000D01*
X82925000Y-30495000D02*
X82925000Y-29369900D01*
X54116800Y-31899900D02*
X54350000Y-31899900D01*
X85006000Y-27570200D02*
X85006000Y-16410900D01*
X85006000Y-16410900D02*
X83532100Y-14937000D01*
X84054200Y-16787000D02*
X84054200Y-20902000D01*
X55487200Y-28455800D02*
X55487200Y-22018800D01*
X84054200Y-20902000D02*
X83206300Y-21749900D01*
X60461600Y-18674400D02*
X61062300Y-18674400D01*
X54350000Y-29359900D02*
X54583100Y-29359900D01*
X54350000Y-30485000D02*
X54350000Y-29359900D01*
X83898800Y-16631600D02*
X84054200Y-16787000D01*
X55487200Y-22018800D02*
X58528500Y-18977500D01*
X58528500Y-18977500D02*
X60158500Y-18977500D01*
X54583100Y-29359900D02*
X55487200Y-28455800D01*
X73314400Y-18977500D02*
X75660300Y-16631600D01*
X83206300Y-21749900D02*
X82925000Y-21749900D01*
X82925000Y-22875000D02*
X82925000Y-21749900D01*
X61365400Y-18977500D02*
X73314400Y-18977500D01*
X60158500Y-18977500D02*
X60461600Y-18674400D01*
X61062300Y-18674400D02*
X61365400Y-18977500D01*
X75660300Y-16631600D02*
X83898800Y-16631600D01*
X48731600Y-15871500D02*
X48731600Y-16587800D01*
X82925000Y-27955000D02*
X82925000Y-26829900D01*
X84555800Y-25480400D02*
X84555800Y-16597400D01*
X83353500Y-15395100D02*
X49208000Y-15395100D01*
X82925000Y-26829900D02*
X83206300Y-26829900D01*
X84555800Y-16597400D02*
X83353500Y-15395100D01*
X54350000Y-22865000D02*
X54350000Y-21739900D01*
X49208000Y-15395100D02*
X48731600Y-15871500D01*
X48731600Y-16587800D02*
X53883700Y-21739900D01*
X83206300Y-26829900D02*
X84555800Y-25480400D01*
X53883700Y-21739900D02*
X54350000Y-21739900D01*
M02*
