%FSLAX45Y45*%
G04 Gerber Fmt 4.5, Leading zero omitted, Abs format (unit mm)*
G04 Created by KiCad (PCBNEW (6.0.1)) date 2023-08-09 21:55:40*
%MOMM*%
%LPD*%
G01*
G04 APERTURE LIST*
%TA.AperFunction,Profile*%
%ADD10C,0.100000*%
%TD*%
%ADD11C,0.200000*%
%ADD12C,0.040000*%
%ADD13C,0.070000*%
%ADD14C,0.080000*%
%ADD15C,0.100000*%
%ADD16C,0.320000*%
G04 APERTURE END LIST*
D10*
X11239500Y-1206500D02*
X11239500Y-11239500D01*
X11239500Y-11239500D02*
X1206500Y-11239500D01*
X11239500Y-1206500D02*
X1206500Y-1206500D01*
X1206500Y-11239500D02*
X1206500Y-1206500D01*
D11*
D12*
X2747670Y-7391920D02*
X2787670Y-7431920D01*
X2787670Y-7391920D02*
X2747670Y-7431920D01*
X2844710Y-8381540D02*
X2884710Y-8421540D01*
X2884710Y-8381540D02*
X2844710Y-8421540D01*
X2898240Y-8229950D02*
X2938240Y-8269950D01*
X2938240Y-8229950D02*
X2898240Y-8269950D01*
X3092090Y-4014010D02*
X3132090Y-4054010D01*
X3132090Y-4014010D02*
X3092090Y-4054010D01*
X3142010Y-9452820D02*
X3182010Y-9492820D01*
X3182010Y-9452820D02*
X3142010Y-9492820D01*
X3171870Y-6262410D02*
X3211870Y-6302410D01*
X3211870Y-6262410D02*
X3171870Y-6302410D01*
X3247550Y-4870620D02*
X3287550Y-4910620D01*
X3287550Y-4870620D02*
X3247550Y-4910620D01*
X3284510Y-9408110D02*
X3324510Y-9448110D01*
X3324510Y-9408110D02*
X3284510Y-9448110D01*
X3541350Y-6788360D02*
X3581350Y-6828360D01*
X3581350Y-6788360D02*
X3541350Y-6828360D01*
X3551570Y-5040290D02*
X3591570Y-5080290D01*
X3591570Y-5040290D02*
X3551570Y-5080290D01*
X3673530Y-5130870D02*
X3713530Y-5170870D01*
X3713530Y-5130870D02*
X3673530Y-5170870D01*
X3853500Y-4033310D02*
X3893500Y-4073310D01*
X3893500Y-4033310D02*
X3853500Y-4073310D01*
X4292570Y-5883990D02*
X4332570Y-5923990D01*
X4332570Y-5883990D02*
X4292570Y-5923990D01*
X4438230Y-1555520D02*
X4478230Y-1595520D01*
X4478230Y-1555520D02*
X4438230Y-1595520D01*
X4537130Y-5850860D02*
X4577130Y-5890860D01*
X4577130Y-5850860D02*
X4537130Y-5890860D01*
X4638610Y-5373080D02*
X4678610Y-5413080D01*
X4678610Y-5373080D02*
X4638610Y-5413080D01*
X4936860Y-1602030D02*
X4976860Y-1642030D01*
X4976860Y-1602030D02*
X4936860Y-1642030D01*
X5100000Y-7560040D02*
X5140000Y-7600040D01*
X5140000Y-7560040D02*
X5100000Y-7600040D01*
X5360880Y-7992930D02*
X5400880Y-8032930D01*
X5400880Y-7992930D02*
X5360880Y-8032930D01*
X5452550Y-8108990D02*
X5492550Y-8148990D01*
X5492550Y-8108990D02*
X5452550Y-8148990D01*
X5685060Y-3941590D02*
X5725060Y-3981590D01*
X5725060Y-3941590D02*
X5685060Y-3981590D01*
X5697590Y-6514070D02*
X5737590Y-6554070D01*
X5737590Y-6514070D02*
X5697590Y-6554070D01*
X6033310Y-5863630D02*
X6073310Y-5903630D01*
X6073310Y-5863630D02*
X6033310Y-5903630D01*
X6056190Y-1919950D02*
X6096190Y-1959950D01*
X6096190Y-1919950D02*
X6056190Y-1959950D01*
X6075820Y-6104020D02*
X6115820Y-6144020D01*
X6115820Y-6104020D02*
X6075820Y-6144020D01*
X6118180Y-7779190D02*
X6158180Y-7819190D01*
X6158180Y-7779190D02*
X6118180Y-7819190D01*
X6121930Y-5476370D02*
X6161930Y-5516370D01*
X6161930Y-5476370D02*
X6121930Y-5516370D01*
X6131850Y-7646860D02*
X6171850Y-7686860D01*
X6171850Y-7646860D02*
X6131850Y-7686860D01*
X6158950Y-5778730D02*
X6198950Y-5818730D01*
X6198950Y-5778730D02*
X6158950Y-5818730D01*
X6165760Y-5988860D02*
X6205760Y-6028860D01*
X6205760Y-5988860D02*
X6165760Y-6028860D01*
X6426330Y-5675330D02*
X6466330Y-5715330D01*
X6466330Y-5675330D02*
X6426330Y-5715330D01*
X6590490Y-5422050D02*
X6630490Y-5462050D01*
X6630490Y-5422050D02*
X6590490Y-5462050D01*
X6862950Y-4984430D02*
X6902950Y-5024430D01*
X6902950Y-4984430D02*
X6862950Y-5024430D01*
X7067920Y-5636550D02*
X7107920Y-5676550D01*
X7107920Y-5636550D02*
X7067920Y-5676550D01*
X7217410Y-2683620D02*
X7257410Y-2723620D01*
X7257410Y-2683620D02*
X7217410Y-2723620D01*
X7239530Y-5208100D02*
X7279530Y-5248100D01*
X7279530Y-5208100D02*
X7239530Y-5248100D01*
X7254530Y-2467210D02*
X7294530Y-2507210D01*
X7294530Y-2467210D02*
X7254530Y-2507210D01*
X7493990Y-5155570D02*
X7533990Y-5195570D01*
X7533990Y-5155570D02*
X7493990Y-5195570D01*
X7515610Y-6572250D02*
X7555610Y-6612250D01*
X7555610Y-6572250D02*
X7515610Y-6612250D01*
X7566320Y-4839680D02*
X7606320Y-4879680D01*
X7606320Y-4839680D02*
X7566320Y-4879680D01*
X7630160Y-8797570D02*
X7670160Y-8837570D01*
X7670160Y-8797570D02*
X7630160Y-8837570D01*
X7732720Y-5178080D02*
X7772720Y-5218080D01*
X7772720Y-5178080D02*
X7732720Y-5218080D01*
X7822300Y-7268720D02*
X7862300Y-7308720D01*
X7862300Y-7268720D02*
X7822300Y-7308720D01*
X7948910Y-8800120D02*
X7988910Y-8840120D01*
X7988910Y-8800120D02*
X7948910Y-8840120D01*
X8024540Y-3518990D02*
X8064540Y-3558990D01*
X8064540Y-3518990D02*
X8024540Y-3558990D01*
X8049310Y-6731980D02*
X8089310Y-6771980D01*
X8089310Y-6731980D02*
X8049310Y-6771980D01*
D13*
X9406000Y-2603500D02*
G75*
G03*
X9406000Y-2603500I-35000J0D01*
G01*
X9406000Y-2794000D02*
G75*
G03*
X9406000Y-2794000I-35000J0D01*
G01*
X9406000Y-3302000D02*
G75*
G03*
X9406000Y-3302000I-35000J0D01*
G01*
X9406000Y-3556000D02*
G75*
G03*
X9406000Y-3556000I-35000J0D01*
G01*
X9596000Y-2603500D02*
G75*
G03*
X9596000Y-2603500I-35000J0D01*
G01*
X9596000Y-2794000D02*
G75*
G03*
X9596000Y-2794000I-35000J0D01*
G01*
X9596000Y-3302000D02*
G75*
G03*
X9596000Y-3302000I-35000J0D01*
G01*
X9596000Y-3556000D02*
G75*
G03*
X9596000Y-3556000I-35000J0D01*
G01*
D14*
X3492500Y-1738000D02*
X3492500Y-1818000D01*
X3452500Y-1778000D02*
X3532500Y-1778000D01*
X3492500Y-1992000D02*
X3492500Y-2072000D01*
X3452500Y-2032000D02*
X3532500Y-2032000D01*
X3492500Y-2246000D02*
X3492500Y-2326000D01*
X3452500Y-2286000D02*
X3532500Y-2286000D01*
X3492500Y-2500000D02*
X3492500Y-2580000D01*
X3452500Y-2540000D02*
X3532500Y-2540000D01*
X3492500Y-2754000D02*
X3492500Y-2834000D01*
X3452500Y-2794000D02*
X3532500Y-2794000D01*
X3492500Y-3008000D02*
X3492500Y-3088000D01*
X3452500Y-3048000D02*
X3532500Y-3048000D01*
X3492500Y-3262000D02*
X3492500Y-3342000D01*
X3452500Y-3302000D02*
X3532500Y-3302000D01*
X3492500Y-3516000D02*
X3492500Y-3596000D01*
X3452500Y-3556000D02*
X3532500Y-3556000D01*
X3492500Y-3770000D02*
X3492500Y-3850000D01*
X3452500Y-3810000D02*
X3532500Y-3810000D01*
X3492500Y-4024000D02*
X3492500Y-4104000D01*
X3452500Y-4064000D02*
X3532500Y-4064000D01*
X3492500Y-4786000D02*
X3492500Y-4866000D01*
X3452500Y-4826000D02*
X3532500Y-4826000D01*
X3492500Y-5548000D02*
X3492500Y-5628000D01*
X3452500Y-5588000D02*
X3532500Y-5588000D01*
X3492500Y-7770500D02*
X3492500Y-7850500D01*
X3452500Y-7810500D02*
X3532500Y-7810500D01*
X3492500Y-8532500D02*
X3492500Y-8612500D01*
X3452500Y-8572500D02*
X3532500Y-8572500D01*
X3492500Y-9040500D02*
X3492500Y-9120500D01*
X3452500Y-9080500D02*
X3532500Y-9080500D01*
X3492500Y-10564500D02*
X3492500Y-10644500D01*
X3452500Y-10604500D02*
X3532500Y-10604500D01*
X3493000Y-6245500D02*
X3493000Y-6325500D01*
X3453000Y-6285500D02*
X3533000Y-6285500D01*
X3493000Y-7007500D02*
X3493000Y-7087500D01*
X3453000Y-7047500D02*
X3533000Y-7047500D01*
X3746500Y-4786000D02*
X3746500Y-4866000D01*
X3706500Y-4826000D02*
X3786500Y-4826000D01*
X3746500Y-5548000D02*
X3746500Y-5628000D01*
X3706500Y-5588000D02*
X3786500Y-5588000D01*
X3746500Y-7770500D02*
X3746500Y-7850500D01*
X3706500Y-7810500D02*
X3786500Y-7810500D01*
X3746500Y-8532500D02*
X3746500Y-8612500D01*
X3706500Y-8572500D02*
X3786500Y-8572500D01*
X3746500Y-9040500D02*
X3746500Y-9120500D01*
X3706500Y-9080500D02*
X3786500Y-9080500D01*
X3746500Y-10564500D02*
X3746500Y-10644500D01*
X3706500Y-10604500D02*
X3786500Y-10604500D01*
X3747000Y-6245500D02*
X3747000Y-6325500D01*
X3707000Y-6285500D02*
X3787000Y-6285500D01*
X3747000Y-7007500D02*
X3747000Y-7087500D01*
X3707000Y-7047500D02*
X3787000Y-7047500D01*
X4000500Y-4786000D02*
X4000500Y-4866000D01*
X3960500Y-4826000D02*
X4040500Y-4826000D01*
X4000500Y-5548000D02*
X4000500Y-5628000D01*
X3960500Y-5588000D02*
X4040500Y-5588000D01*
X4000500Y-7770500D02*
X4000500Y-7850500D01*
X3960500Y-7810500D02*
X4040500Y-7810500D01*
X4000500Y-8532500D02*
X4000500Y-8612500D01*
X3960500Y-8572500D02*
X4040500Y-8572500D01*
X4000500Y-9040500D02*
X4000500Y-9120500D01*
X3960500Y-9080500D02*
X4040500Y-9080500D01*
X4000500Y-10564500D02*
X4000500Y-10644500D01*
X3960500Y-10604500D02*
X4040500Y-10604500D01*
X4001000Y-6245500D02*
X4001000Y-6325500D01*
X3961000Y-6285500D02*
X4041000Y-6285500D01*
X4001000Y-7007500D02*
X4001000Y-7087500D01*
X3961000Y-7047500D02*
X4041000Y-7047500D01*
X4254500Y-1738000D02*
X4254500Y-1818000D01*
X4214500Y-1778000D02*
X4294500Y-1778000D01*
X4254500Y-1992000D02*
X4254500Y-2072000D01*
X4214500Y-2032000D02*
X4294500Y-2032000D01*
X4254500Y-2246000D02*
X4254500Y-2326000D01*
X4214500Y-2286000D02*
X4294500Y-2286000D01*
X4254500Y-2500000D02*
X4254500Y-2580000D01*
X4214500Y-2540000D02*
X4294500Y-2540000D01*
X4254500Y-2754000D02*
X4254500Y-2834000D01*
X4214500Y-2794000D02*
X4294500Y-2794000D01*
X4254500Y-3008000D02*
X4254500Y-3088000D01*
X4214500Y-3048000D02*
X4294500Y-3048000D01*
X4254500Y-3262000D02*
X4254500Y-3342000D01*
X4214500Y-3302000D02*
X4294500Y-3302000D01*
X4254500Y-3516000D02*
X4254500Y-3596000D01*
X4214500Y-3556000D02*
X4294500Y-3556000D01*
X4254500Y-3770000D02*
X4254500Y-3850000D01*
X4214500Y-3810000D02*
X4294500Y-3810000D01*
X4254500Y-4024000D02*
X4254500Y-4104000D01*
X4214500Y-4064000D02*
X4294500Y-4064000D01*
X4254500Y-4786000D02*
X4254500Y-4866000D01*
X4214500Y-4826000D02*
X4294500Y-4826000D01*
X4254500Y-5548000D02*
X4254500Y-5628000D01*
X4214500Y-5588000D02*
X4294500Y-5588000D01*
X4254500Y-7770500D02*
X4254500Y-7850500D01*
X4214500Y-7810500D02*
X4294500Y-7810500D01*
X4254500Y-8532500D02*
X4254500Y-8612500D01*
X4214500Y-8572500D02*
X4294500Y-8572500D01*
X4254500Y-9040500D02*
X4254500Y-9120500D01*
X4214500Y-9080500D02*
X4294500Y-9080500D01*
X4254500Y-10564500D02*
X4254500Y-10644500D01*
X4214500Y-10604500D02*
X4294500Y-10604500D01*
X4255000Y-6245500D02*
X4255000Y-6325500D01*
X4215000Y-6285500D02*
X4295000Y-6285500D01*
X4255000Y-7007500D02*
X4255000Y-7087500D01*
X4215000Y-7047500D02*
X4295000Y-7047500D01*
X4508500Y-4786000D02*
X4508500Y-4866000D01*
X4468500Y-4826000D02*
X4548500Y-4826000D01*
X4508500Y-5548000D02*
X4508500Y-5628000D01*
X4468500Y-5588000D02*
X4548500Y-5588000D01*
X4508500Y-7770500D02*
X4508500Y-7850500D01*
X4468500Y-7810500D02*
X4548500Y-7810500D01*
X4508500Y-8532500D02*
X4508500Y-8612500D01*
X4468500Y-8572500D02*
X4548500Y-8572500D01*
X4508500Y-9040500D02*
X4508500Y-9120500D01*
X4468500Y-9080500D02*
X4548500Y-9080500D01*
X4508500Y-10564500D02*
X4508500Y-10644500D01*
X4468500Y-10604500D02*
X4548500Y-10604500D01*
X4509000Y-6245500D02*
X4509000Y-6325500D01*
X4469000Y-6285500D02*
X4549000Y-6285500D01*
X4509000Y-7007500D02*
X4509000Y-7087500D01*
X4469000Y-7047500D02*
X4549000Y-7047500D01*
X4673000Y-1738500D02*
X4673000Y-1818500D01*
X4633000Y-1778500D02*
X4713000Y-1778500D01*
X4673000Y-1992500D02*
X4673000Y-2072500D01*
X4633000Y-2032500D02*
X4713000Y-2032500D01*
X4673000Y-2246500D02*
X4673000Y-2326500D01*
X4633000Y-2286500D02*
X4713000Y-2286500D01*
X4673000Y-2500500D02*
X4673000Y-2580500D01*
X4633000Y-2540500D02*
X4713000Y-2540500D01*
X4673000Y-2754500D02*
X4673000Y-2834500D01*
X4633000Y-2794500D02*
X4713000Y-2794500D01*
X4673000Y-3008500D02*
X4673000Y-3088500D01*
X4633000Y-3048500D02*
X4713000Y-3048500D01*
X4673000Y-3262500D02*
X4673000Y-3342500D01*
X4633000Y-3302500D02*
X4713000Y-3302500D01*
X4673000Y-3516500D02*
X4673000Y-3596500D01*
X4633000Y-3556500D02*
X4713000Y-3556500D01*
X4673000Y-3770500D02*
X4673000Y-3850500D01*
X4633000Y-3810500D02*
X4713000Y-3810500D01*
X4673000Y-4024500D02*
X4673000Y-4104500D01*
X4633000Y-4064500D02*
X4713000Y-4064500D01*
X4762500Y-4786000D02*
X4762500Y-4866000D01*
X4722500Y-4826000D02*
X4802500Y-4826000D01*
X4762500Y-5548000D02*
X4762500Y-5628000D01*
X4722500Y-5588000D02*
X4802500Y-5588000D01*
X4762500Y-7770500D02*
X4762500Y-7850500D01*
X4722500Y-7810500D02*
X4802500Y-7810500D01*
X4762500Y-8532500D02*
X4762500Y-8612500D01*
X4722500Y-8572500D02*
X4802500Y-8572500D01*
X4762500Y-9040500D02*
X4762500Y-9120500D01*
X4722500Y-9080500D02*
X4802500Y-9080500D01*
X4762500Y-10564500D02*
X4762500Y-10644500D01*
X4722500Y-10604500D02*
X4802500Y-10604500D01*
X4763000Y-6245500D02*
X4763000Y-6325500D01*
X4723000Y-6285500D02*
X4803000Y-6285500D01*
X4763000Y-7007500D02*
X4763000Y-7087500D01*
X4723000Y-7047500D02*
X4803000Y-7047500D01*
X5016500Y-4786000D02*
X5016500Y-4866000D01*
X4976500Y-4826000D02*
X5056500Y-4826000D01*
X5016500Y-5548000D02*
X5016500Y-5628000D01*
X4976500Y-5588000D02*
X5056500Y-5588000D01*
X5016500Y-7770500D02*
X5016500Y-7850500D01*
X4976500Y-7810500D02*
X5056500Y-7810500D01*
X5016500Y-8532500D02*
X5016500Y-8612500D01*
X4976500Y-8572500D02*
X5056500Y-8572500D01*
X5016500Y-9040500D02*
X5016500Y-9120500D01*
X4976500Y-9080500D02*
X5056500Y-9080500D01*
X5016500Y-10564500D02*
X5016500Y-10644500D01*
X4976500Y-10604500D02*
X5056500Y-10604500D01*
X5017000Y-6245500D02*
X5017000Y-6325500D01*
X4977000Y-6285500D02*
X5057000Y-6285500D01*
X5017000Y-7007500D02*
X5017000Y-7087500D01*
X4977000Y-7047500D02*
X5057000Y-7047500D01*
X5270500Y-4786000D02*
X5270500Y-4866000D01*
X5230500Y-4826000D02*
X5310500Y-4826000D01*
X5270500Y-5548000D02*
X5270500Y-5628000D01*
X5230500Y-5588000D02*
X5310500Y-5588000D01*
X5270500Y-7770500D02*
X5270500Y-7850500D01*
X5230500Y-7810500D02*
X5310500Y-7810500D01*
X5270500Y-8532500D02*
X5270500Y-8612500D01*
X5230500Y-8572500D02*
X5310500Y-8572500D01*
X5270500Y-9040500D02*
X5270500Y-9120500D01*
X5230500Y-9080500D02*
X5310500Y-9080500D01*
X5270500Y-10564500D02*
X5270500Y-10644500D01*
X5230500Y-10604500D02*
X5310500Y-10604500D01*
X5271000Y-6245500D02*
X5271000Y-6325500D01*
X5231000Y-6285500D02*
X5311000Y-6285500D01*
X5271000Y-7007500D02*
X5271000Y-7087500D01*
X5231000Y-7047500D02*
X5311000Y-7047500D01*
X5435000Y-1738500D02*
X5435000Y-1818500D01*
X5395000Y-1778500D02*
X5475000Y-1778500D01*
X5435000Y-1992500D02*
X5435000Y-2072500D01*
X5395000Y-2032500D02*
X5475000Y-2032500D01*
X5435000Y-2246500D02*
X5435000Y-2326500D01*
X5395000Y-2286500D02*
X5475000Y-2286500D01*
X5435000Y-2500500D02*
X5435000Y-2580500D01*
X5395000Y-2540500D02*
X5475000Y-2540500D01*
X5435000Y-2754500D02*
X5435000Y-2834500D01*
X5395000Y-2794500D02*
X5475000Y-2794500D01*
X5435000Y-3008500D02*
X5435000Y-3088500D01*
X5395000Y-3048500D02*
X5475000Y-3048500D01*
X5435000Y-3262500D02*
X5435000Y-3342500D01*
X5395000Y-3302500D02*
X5475000Y-3302500D01*
X5435000Y-3516500D02*
X5435000Y-3596500D01*
X5395000Y-3556500D02*
X5475000Y-3556500D01*
X5435000Y-3770500D02*
X5435000Y-3850500D01*
X5395000Y-3810500D02*
X5475000Y-3810500D01*
X5435000Y-4024500D02*
X5435000Y-4104500D01*
X5395000Y-4064500D02*
X5475000Y-4064500D01*
X5524500Y-4786000D02*
X5524500Y-4866000D01*
X5484500Y-4826000D02*
X5564500Y-4826000D01*
X5524500Y-5548000D02*
X5524500Y-5628000D01*
X5484500Y-5588000D02*
X5564500Y-5588000D01*
X5524500Y-7770500D02*
X5524500Y-7850500D01*
X5484500Y-7810500D02*
X5564500Y-7810500D01*
X5524500Y-8532500D02*
X5524500Y-8612500D01*
X5484500Y-8572500D02*
X5564500Y-8572500D01*
X5524500Y-9040500D02*
X5524500Y-9120500D01*
X5484500Y-9080500D02*
X5564500Y-9080500D01*
X5524500Y-10564500D02*
X5524500Y-10644500D01*
X5484500Y-10604500D02*
X5564500Y-10604500D01*
X5525000Y-6245500D02*
X5525000Y-6325500D01*
X5485000Y-6285500D02*
X5565000Y-6285500D01*
X5525000Y-7007500D02*
X5525000Y-7087500D01*
X5485000Y-7047500D02*
X5565000Y-7047500D01*
X5778500Y-4786000D02*
X5778500Y-4866000D01*
X5738500Y-4826000D02*
X5818500Y-4826000D01*
X5778500Y-5548000D02*
X5778500Y-5628000D01*
X5738500Y-5588000D02*
X5818500Y-5588000D01*
X5778500Y-7770500D02*
X5778500Y-7850500D01*
X5738500Y-7810500D02*
X5818500Y-7810500D01*
X5778500Y-8532500D02*
X5778500Y-8612500D01*
X5738500Y-8572500D02*
X5818500Y-8572500D01*
X5778500Y-9040500D02*
X5778500Y-9120500D01*
X5738500Y-9080500D02*
X5818500Y-9080500D01*
X5778500Y-10564500D02*
X5778500Y-10644500D01*
X5738500Y-10604500D02*
X5818500Y-10604500D01*
X5779000Y-6245500D02*
X5779000Y-6325500D01*
X5739000Y-6285500D02*
X5819000Y-6285500D01*
X5779000Y-7007500D02*
X5779000Y-7087500D01*
X5739000Y-7047500D02*
X5819000Y-7047500D01*
X5878500Y-1738000D02*
X5878500Y-1818000D01*
X5838500Y-1778000D02*
X5918500Y-1778000D01*
X5878500Y-1992000D02*
X5878500Y-2072000D01*
X5838500Y-2032000D02*
X5918500Y-2032000D01*
X5878500Y-2246000D02*
X5878500Y-2326000D01*
X5838500Y-2286000D02*
X5918500Y-2286000D01*
X5878500Y-2500000D02*
X5878500Y-2580000D01*
X5838500Y-2540000D02*
X5918500Y-2540000D01*
X5878500Y-2754000D02*
X5878500Y-2834000D01*
X5838500Y-2794000D02*
X5918500Y-2794000D01*
X5878500Y-3008000D02*
X5878500Y-3088000D01*
X5838500Y-3048000D02*
X5918500Y-3048000D01*
X5878500Y-3262000D02*
X5878500Y-3342000D01*
X5838500Y-3302000D02*
X5918500Y-3302000D01*
X5878500Y-3516000D02*
X5878500Y-3596000D01*
X5838500Y-3556000D02*
X5918500Y-3556000D01*
X5878500Y-3770000D02*
X5878500Y-3850000D01*
X5838500Y-3810000D02*
X5918500Y-3810000D01*
X5878500Y-4024000D02*
X5878500Y-4104000D01*
X5838500Y-4064000D02*
X5918500Y-4064000D01*
X6032500Y-4786000D02*
X6032500Y-4866000D01*
X5992500Y-4826000D02*
X6072500Y-4826000D01*
X6032500Y-5548000D02*
X6032500Y-5628000D01*
X5992500Y-5588000D02*
X6072500Y-5588000D01*
X6032500Y-9040500D02*
X6032500Y-9120500D01*
X5992500Y-9080500D02*
X6072500Y-9080500D01*
X6032500Y-10564500D02*
X6032500Y-10644500D01*
X5992500Y-10604500D02*
X6072500Y-10604500D01*
X6286500Y-4786000D02*
X6286500Y-4866000D01*
X6246500Y-4826000D02*
X6326500Y-4826000D01*
X6286500Y-5548000D02*
X6286500Y-5628000D01*
X6246500Y-5588000D02*
X6326500Y-5588000D01*
X6286500Y-9040500D02*
X6286500Y-9120500D01*
X6246500Y-9080500D02*
X6326500Y-9080500D01*
X6286500Y-10564500D02*
X6286500Y-10644500D01*
X6246500Y-10604500D02*
X6326500Y-10604500D01*
X6287000Y-6245500D02*
X6287000Y-6325500D01*
X6247000Y-6285500D02*
X6327000Y-6285500D01*
X6287000Y-7007500D02*
X6287000Y-7087500D01*
X6247000Y-7047500D02*
X6327000Y-7047500D01*
X6287000Y-7769500D02*
X6287000Y-7849500D01*
X6247000Y-7809500D02*
X6327000Y-7809500D01*
X6287000Y-8531500D02*
X6287000Y-8611500D01*
X6247000Y-8571500D02*
X6327000Y-8571500D01*
X6540500Y-4786000D02*
X6540500Y-4866000D01*
X6500500Y-4826000D02*
X6580500Y-4826000D01*
X6540500Y-5548000D02*
X6540500Y-5628000D01*
X6500500Y-5588000D02*
X6580500Y-5588000D01*
X6540500Y-9040500D02*
X6540500Y-9120500D01*
X6500500Y-9080500D02*
X6580500Y-9080500D01*
X6540500Y-10564500D02*
X6540500Y-10644500D01*
X6500500Y-10604500D02*
X6580500Y-10604500D01*
X6541000Y-6245500D02*
X6541000Y-6325500D01*
X6501000Y-6285500D02*
X6581000Y-6285500D01*
X6541000Y-7007500D02*
X6541000Y-7087500D01*
X6501000Y-7047500D02*
X6581000Y-7047500D01*
X6541000Y-7769500D02*
X6541000Y-7849500D01*
X6501000Y-7809500D02*
X6581000Y-7809500D01*
X6541000Y-8531500D02*
X6541000Y-8611500D01*
X6501000Y-8571500D02*
X6581000Y-8571500D01*
X6640500Y-1738000D02*
X6640500Y-1818000D01*
X6600500Y-1778000D02*
X6680500Y-1778000D01*
X6640500Y-1992000D02*
X6640500Y-2072000D01*
X6600500Y-2032000D02*
X6680500Y-2032000D01*
X6640500Y-2246000D02*
X6640500Y-2326000D01*
X6600500Y-2286000D02*
X6680500Y-2286000D01*
X6640500Y-2500000D02*
X6640500Y-2580000D01*
X6600500Y-2540000D02*
X6680500Y-2540000D01*
X6640500Y-2754000D02*
X6640500Y-2834000D01*
X6600500Y-2794000D02*
X6680500Y-2794000D01*
X6640500Y-3008000D02*
X6640500Y-3088000D01*
X6600500Y-3048000D02*
X6680500Y-3048000D01*
X6640500Y-3262000D02*
X6640500Y-3342000D01*
X6600500Y-3302000D02*
X6680500Y-3302000D01*
X6640500Y-3516000D02*
X6640500Y-3596000D01*
X6600500Y-3556000D02*
X6680500Y-3556000D01*
X6640500Y-3770000D02*
X6640500Y-3850000D01*
X6600500Y-3810000D02*
X6680500Y-3810000D01*
X6640500Y-4024000D02*
X6640500Y-4104000D01*
X6600500Y-4064000D02*
X6680500Y-4064000D01*
X6794500Y-4786000D02*
X6794500Y-4866000D01*
X6754500Y-4826000D02*
X6834500Y-4826000D01*
X6794500Y-5548000D02*
X6794500Y-5628000D01*
X6754500Y-5588000D02*
X6834500Y-5588000D01*
X6794500Y-9040500D02*
X6794500Y-9120500D01*
X6754500Y-9080500D02*
X6834500Y-9080500D01*
X6794500Y-10564500D02*
X6794500Y-10644500D01*
X6754500Y-10604500D02*
X6834500Y-10604500D01*
X6795000Y-6245500D02*
X6795000Y-6325500D01*
X6755000Y-6285500D02*
X6835000Y-6285500D01*
X6795000Y-7007500D02*
X6795000Y-7087500D01*
X6755000Y-7047500D02*
X6835000Y-7047500D01*
X6795000Y-7769500D02*
X6795000Y-7849500D01*
X6755000Y-7809500D02*
X6835000Y-7809500D01*
X6795000Y-8531500D02*
X6795000Y-8611500D01*
X6755000Y-8571500D02*
X6835000Y-8571500D01*
X7048500Y-9040500D02*
X7048500Y-9120500D01*
X7008500Y-9080500D02*
X7088500Y-9080500D01*
X7048500Y-10564500D02*
X7048500Y-10644500D01*
X7008500Y-10604500D02*
X7088500Y-10604500D01*
X7049000Y-6245500D02*
X7049000Y-6325500D01*
X7009000Y-6285500D02*
X7089000Y-6285500D01*
X7049000Y-7007500D02*
X7049000Y-7087500D01*
X7009000Y-7047500D02*
X7089000Y-7047500D01*
X7049000Y-7769500D02*
X7049000Y-7849500D01*
X7009000Y-7809500D02*
X7089000Y-7809500D01*
X7049000Y-8531500D02*
X7049000Y-8611500D01*
X7009000Y-8571500D02*
X7089000Y-8571500D01*
X7086000Y-1738500D02*
X7086000Y-1818500D01*
X7046000Y-1778500D02*
X7126000Y-1778500D01*
X7086000Y-1992500D02*
X7086000Y-2072500D01*
X7046000Y-2032500D02*
X7126000Y-2032500D01*
X7086000Y-2246500D02*
X7086000Y-2326500D01*
X7046000Y-2286500D02*
X7126000Y-2286500D01*
X7086000Y-2500500D02*
X7086000Y-2580500D01*
X7046000Y-2540500D02*
X7126000Y-2540500D01*
X7086000Y-2754500D02*
X7086000Y-2834500D01*
X7046000Y-2794500D02*
X7126000Y-2794500D01*
X7086000Y-3008500D02*
X7086000Y-3088500D01*
X7046000Y-3048500D02*
X7126000Y-3048500D01*
X7086000Y-3262500D02*
X7086000Y-3342500D01*
X7046000Y-3302500D02*
X7126000Y-3302500D01*
X7086000Y-3516500D02*
X7086000Y-3596500D01*
X7046000Y-3556500D02*
X7126000Y-3556500D01*
X7086000Y-3770500D02*
X7086000Y-3850500D01*
X7046000Y-3810500D02*
X7126000Y-3810500D01*
X7086000Y-4024500D02*
X7086000Y-4104500D01*
X7046000Y-4064500D02*
X7126000Y-4064500D01*
X7239000Y-5048000D02*
X7239000Y-5128000D01*
X7199000Y-5088000D02*
X7279000Y-5088000D01*
X7239000Y-5548000D02*
X7239000Y-5628000D01*
X7199000Y-5588000D02*
X7279000Y-5588000D01*
X7302500Y-9040500D02*
X7302500Y-9120500D01*
X7262500Y-9080500D02*
X7342500Y-9080500D01*
X7302500Y-10564500D02*
X7302500Y-10644500D01*
X7262500Y-10604500D02*
X7342500Y-10604500D01*
X7303000Y-6245500D02*
X7303000Y-6325500D01*
X7263000Y-6285500D02*
X7343000Y-6285500D01*
X7303000Y-7007500D02*
X7303000Y-7087500D01*
X7263000Y-7047500D02*
X7343000Y-7047500D01*
X7303000Y-7769500D02*
X7303000Y-7849500D01*
X7263000Y-7809500D02*
X7343000Y-7809500D01*
X7303000Y-8531500D02*
X7303000Y-8611500D01*
X7263000Y-8571500D02*
X7343000Y-8571500D01*
X7306500Y-4405000D02*
X7306500Y-4485000D01*
X7266500Y-4445000D02*
X7346500Y-4445000D01*
X7556500Y-9040500D02*
X7556500Y-9120500D01*
X7516500Y-9080500D02*
X7596500Y-9080500D01*
X7556500Y-10564500D02*
X7556500Y-10644500D01*
X7516500Y-10604500D02*
X7596500Y-10604500D01*
X7557000Y-6245500D02*
X7557000Y-6325500D01*
X7517000Y-6285500D02*
X7597000Y-6285500D01*
X7557000Y-7007500D02*
X7557000Y-7087500D01*
X7517000Y-7047500D02*
X7597000Y-7047500D01*
X7557000Y-7769500D02*
X7557000Y-7849500D01*
X7517000Y-7809500D02*
X7597000Y-7809500D01*
X7557000Y-8531500D02*
X7557000Y-8611500D01*
X7517000Y-8571500D02*
X7597000Y-8571500D01*
X7806500Y-4405000D02*
X7806500Y-4485000D01*
X7766500Y-4445000D02*
X7846500Y-4445000D01*
X7810500Y-9040500D02*
X7810500Y-9120500D01*
X7770500Y-9080500D02*
X7850500Y-9080500D01*
X7810500Y-10564500D02*
X7810500Y-10644500D01*
X7770500Y-10604500D02*
X7850500Y-10604500D01*
X7811000Y-6245500D02*
X7811000Y-6325500D01*
X7771000Y-6285500D02*
X7851000Y-6285500D01*
X7811000Y-7007500D02*
X7811000Y-7087500D01*
X7771000Y-7047500D02*
X7851000Y-7047500D01*
X7811000Y-7769500D02*
X7811000Y-7849500D01*
X7771000Y-7809500D02*
X7851000Y-7809500D01*
X7811000Y-8531500D02*
X7811000Y-8611500D01*
X7771000Y-8571500D02*
X7851000Y-8571500D01*
X7848000Y-1738500D02*
X7848000Y-1818500D01*
X7808000Y-1778500D02*
X7888000Y-1778500D01*
X7848000Y-1992500D02*
X7848000Y-2072500D01*
X7808000Y-2032500D02*
X7888000Y-2032500D01*
X7848000Y-2246500D02*
X7848000Y-2326500D01*
X7808000Y-2286500D02*
X7888000Y-2286500D01*
X7848000Y-2500500D02*
X7848000Y-2580500D01*
X7808000Y-2540500D02*
X7888000Y-2540500D01*
X7848000Y-2754500D02*
X7848000Y-2834500D01*
X7808000Y-2794500D02*
X7888000Y-2794500D01*
X7848000Y-3008500D02*
X7848000Y-3088500D01*
X7808000Y-3048500D02*
X7888000Y-3048500D01*
X7848000Y-3262500D02*
X7848000Y-3342500D01*
X7808000Y-3302500D02*
X7888000Y-3302500D01*
X7848000Y-3516500D02*
X7848000Y-3596500D01*
X7808000Y-3556500D02*
X7888000Y-3556500D01*
X7848000Y-3770500D02*
X7848000Y-3850500D01*
X7808000Y-3810500D02*
X7888000Y-3810500D01*
X7848000Y-4024500D02*
X7848000Y-4104500D01*
X7808000Y-4064500D02*
X7888000Y-4064500D01*
X8064500Y-9040500D02*
X8064500Y-9120500D01*
X8024500Y-9080500D02*
X8104500Y-9080500D01*
X8064500Y-10564500D02*
X8064500Y-10644500D01*
X8024500Y-10604500D02*
X8104500Y-10604500D01*
X8065000Y-6245500D02*
X8065000Y-6325500D01*
X8025000Y-6285500D02*
X8105000Y-6285500D01*
X8065000Y-7007500D02*
X8065000Y-7087500D01*
X8025000Y-7047500D02*
X8105000Y-7047500D01*
X8065000Y-7769500D02*
X8065000Y-7849500D01*
X8025000Y-7809500D02*
X8105000Y-7809500D01*
X8065000Y-8531500D02*
X8065000Y-8611500D01*
X8025000Y-8571500D02*
X8105000Y-8571500D01*
X8292500Y-1739500D02*
X8292500Y-1819500D01*
X8252500Y-1779500D02*
X8332500Y-1779500D01*
X8292500Y-1993500D02*
X8292500Y-2073500D01*
X8252500Y-2033500D02*
X8332500Y-2033500D01*
X8292500Y-2247500D02*
X8292500Y-2327500D01*
X8252500Y-2287500D02*
X8332500Y-2287500D01*
X8292500Y-2501500D02*
X8292500Y-2581500D01*
X8252500Y-2541500D02*
X8332500Y-2541500D01*
X8292500Y-2755500D02*
X8292500Y-2835500D01*
X8252500Y-2795500D02*
X8332500Y-2795500D01*
X8292500Y-3009500D02*
X8292500Y-3089500D01*
X8252500Y-3049500D02*
X8332500Y-3049500D01*
X8292500Y-3263500D02*
X8292500Y-3343500D01*
X8252500Y-3303500D02*
X8332500Y-3303500D01*
X8292500Y-3517500D02*
X8292500Y-3597500D01*
X8252500Y-3557500D02*
X8332500Y-3557500D01*
X8318500Y-9040500D02*
X8318500Y-9120500D01*
X8278500Y-9080500D02*
X8358500Y-9080500D01*
X8318500Y-10564500D02*
X8318500Y-10644500D01*
X8278500Y-10604500D02*
X8358500Y-10604500D01*
X8319000Y-6245500D02*
X8319000Y-6325500D01*
X8279000Y-6285500D02*
X8359000Y-6285500D01*
X8319000Y-7007500D02*
X8319000Y-7087500D01*
X8279000Y-7047500D02*
X8359000Y-7047500D01*
X8319000Y-7769500D02*
X8319000Y-7849500D01*
X8279000Y-7809500D02*
X8359000Y-7809500D01*
X8319000Y-8531500D02*
X8319000Y-8611500D01*
X8279000Y-8571500D02*
X8359000Y-8571500D01*
X8322500Y-3897000D02*
X8322500Y-3977000D01*
X8282500Y-3937000D02*
X8362500Y-3937000D01*
X8573000Y-6245500D02*
X8573000Y-6325500D01*
X8533000Y-6285500D02*
X8613000Y-6285500D01*
X8573000Y-7007500D02*
X8573000Y-7087500D01*
X8533000Y-7047500D02*
X8613000Y-7047500D01*
X8573000Y-7769500D02*
X8573000Y-7849500D01*
X8533000Y-7809500D02*
X8613000Y-7809500D01*
X8573000Y-8531500D02*
X8573000Y-8611500D01*
X8533000Y-8571500D02*
X8613000Y-8571500D01*
X8763000Y-9556500D02*
X8763000Y-9636500D01*
X8723000Y-9596500D02*
X8803000Y-9596500D01*
X8763000Y-10056500D02*
X8763000Y-10136500D01*
X8723000Y-10096500D02*
X8803000Y-10096500D01*
X8822500Y-3897000D02*
X8822500Y-3977000D01*
X8782500Y-3937000D02*
X8862500Y-3937000D01*
X9054500Y-1739500D02*
X9054500Y-1819500D01*
X9014500Y-1779500D02*
X9094500Y-1779500D01*
X9054500Y-1993500D02*
X9054500Y-2073500D01*
X9014500Y-2033500D02*
X9094500Y-2033500D01*
X9054500Y-2247500D02*
X9054500Y-2327500D01*
X9014500Y-2287500D02*
X9094500Y-2287500D01*
X9054500Y-2501500D02*
X9054500Y-2581500D01*
X9014500Y-2541500D02*
X9094500Y-2541500D01*
X9054500Y-2755500D02*
X9054500Y-2835500D01*
X9014500Y-2795500D02*
X9094500Y-2795500D01*
X9054500Y-3009500D02*
X9054500Y-3089500D01*
X9014500Y-3049500D02*
X9094500Y-3049500D01*
X9054500Y-3263500D02*
X9054500Y-3343500D01*
X9014500Y-3303500D02*
X9094500Y-3303500D01*
X9054500Y-3517500D02*
X9054500Y-3597500D01*
X9014500Y-3557500D02*
X9094500Y-3557500D01*
D15*
X2130856Y-1813356D02*
X2130856Y-1742644D01*
X2060144Y-1742644D01*
X2060144Y-1813356D01*
X2130856Y-1813356D01*
X2130856Y-2067356D02*
X2130856Y-1996644D01*
X2060144Y-1996644D01*
X2060144Y-2067356D01*
X2130856Y-2067356D01*
X2130856Y-2321356D02*
X2130856Y-2250644D01*
X2060144Y-2250644D01*
X2060144Y-2321356D01*
X2130856Y-2321356D01*
X2130856Y-2575356D02*
X2130856Y-2504644D01*
X2060144Y-2504644D01*
X2060144Y-2575356D01*
X2130856Y-2575356D01*
X2130856Y-2829356D02*
X2130856Y-2758644D01*
X2060144Y-2758644D01*
X2060144Y-2829356D01*
X2130856Y-2829356D01*
X2130856Y-3083356D02*
X2130856Y-3012644D01*
X2060144Y-3012644D01*
X2060144Y-3083356D01*
X2130856Y-3083356D01*
X2130856Y-3337356D02*
X2130856Y-3266644D01*
X2060144Y-3266644D01*
X2060144Y-3337356D01*
X2130856Y-3337356D01*
X2130856Y-3591356D02*
X2130856Y-3520644D01*
X2060144Y-3520644D01*
X2060144Y-3591356D01*
X2130856Y-3591356D01*
X2130856Y-3845356D02*
X2130856Y-3774644D01*
X2060144Y-3774644D01*
X2060144Y-3845356D01*
X2130856Y-3845356D01*
X2130856Y-4099356D02*
X2130856Y-4028644D01*
X2060144Y-4028644D01*
X2060144Y-4099356D01*
X2130856Y-4099356D01*
X2130856Y-4353356D02*
X2130856Y-4282644D01*
X2060144Y-4282644D01*
X2060144Y-4353356D01*
X2130856Y-4353356D01*
X2130856Y-4607356D02*
X2130856Y-4536644D01*
X2060144Y-4536644D01*
X2060144Y-4607356D01*
X2130856Y-4607356D01*
X2130856Y-4861356D02*
X2130856Y-4790644D01*
X2060144Y-4790644D01*
X2060144Y-4861356D01*
X2130856Y-4861356D01*
X2130856Y-5115356D02*
X2130856Y-5044644D01*
X2060144Y-5044644D01*
X2060144Y-5115356D01*
X2130856Y-5115356D01*
X2130856Y-5369356D02*
X2130856Y-5298644D01*
X2060144Y-5298644D01*
X2060144Y-5369356D01*
X2130856Y-5369356D01*
X2130856Y-5623356D02*
X2130856Y-5552644D01*
X2060144Y-5552644D01*
X2060144Y-5623356D01*
X2130856Y-5623356D01*
X2130856Y-5877356D02*
X2130856Y-5806644D01*
X2060144Y-5806644D01*
X2060144Y-5877356D01*
X2130856Y-5877356D01*
X2130856Y-6131356D02*
X2130856Y-6060644D01*
X2060144Y-6060644D01*
X2060144Y-6131356D01*
X2130856Y-6131356D01*
X2130856Y-6385356D02*
X2130856Y-6314644D01*
X2060144Y-6314644D01*
X2060144Y-6385356D01*
X2130856Y-6385356D01*
X2130856Y-6639356D02*
X2130856Y-6568644D01*
X2060144Y-6568644D01*
X2060144Y-6639356D01*
X2130856Y-6639356D01*
X2130856Y-6893356D02*
X2130856Y-6822644D01*
X2060144Y-6822644D01*
X2060144Y-6893356D01*
X2130856Y-6893356D01*
X2130856Y-7147356D02*
X2130856Y-7076644D01*
X2060144Y-7076644D01*
X2060144Y-7147356D01*
X2130856Y-7147356D01*
X2130856Y-7401356D02*
X2130856Y-7330644D01*
X2060144Y-7330644D01*
X2060144Y-7401356D01*
X2130856Y-7401356D01*
X2130856Y-7655356D02*
X2130856Y-7584644D01*
X2060144Y-7584644D01*
X2060144Y-7655356D01*
X2130856Y-7655356D01*
X2130856Y-7909356D02*
X2130856Y-7838644D01*
X2060144Y-7838644D01*
X2060144Y-7909356D01*
X2130856Y-7909356D01*
X2130856Y-8163356D02*
X2130856Y-8092644D01*
X2060144Y-8092644D01*
X2060144Y-8163356D01*
X2130856Y-8163356D01*
X2130856Y-8417356D02*
X2130856Y-8346644D01*
X2060144Y-8346644D01*
X2060144Y-8417356D01*
X2130856Y-8417356D01*
X2130856Y-8671356D02*
X2130856Y-8600644D01*
X2060144Y-8600644D01*
X2060144Y-8671356D01*
X2130856Y-8671356D01*
X2130856Y-8925356D02*
X2130856Y-8854644D01*
X2060144Y-8854644D01*
X2060144Y-8925356D01*
X2130856Y-8925356D01*
X2130856Y-9179356D02*
X2130856Y-9108644D01*
X2060144Y-9108644D01*
X2060144Y-9179356D01*
X2130856Y-9179356D01*
X2130856Y-9433356D02*
X2130856Y-9362644D01*
X2060144Y-9362644D01*
X2060144Y-9433356D01*
X2130856Y-9433356D01*
X2130856Y-9687356D02*
X2130856Y-9616644D01*
X2060144Y-9616644D01*
X2060144Y-9687356D01*
X2130856Y-9687356D01*
X2130856Y-9941356D02*
X2130856Y-9870644D01*
X2060144Y-9870644D01*
X2060144Y-9941356D01*
X2130856Y-9941356D01*
X2130856Y-10195356D02*
X2130856Y-10124644D01*
X2060144Y-10124644D01*
X2060144Y-10195356D01*
X2130856Y-10195356D01*
X2130856Y-10449356D02*
X2130856Y-10378644D01*
X2060144Y-10378644D01*
X2060144Y-10449356D01*
X2130856Y-10449356D01*
X2130856Y-10703356D02*
X2130856Y-10632644D01*
X2060144Y-10632644D01*
X2060144Y-10703356D01*
X2130856Y-10703356D01*
X2384856Y-1813356D02*
X2384856Y-1742644D01*
X2314144Y-1742644D01*
X2314144Y-1813356D01*
X2384856Y-1813356D01*
X2384856Y-2067356D02*
X2384856Y-1996644D01*
X2314144Y-1996644D01*
X2314144Y-2067356D01*
X2384856Y-2067356D01*
X2384856Y-2321356D02*
X2384856Y-2250644D01*
X2314144Y-2250644D01*
X2314144Y-2321356D01*
X2384856Y-2321356D01*
X2384856Y-2575356D02*
X2384856Y-2504644D01*
X2314144Y-2504644D01*
X2314144Y-2575356D01*
X2384856Y-2575356D01*
X2384856Y-2829356D02*
X2384856Y-2758644D01*
X2314144Y-2758644D01*
X2314144Y-2829356D01*
X2384856Y-2829356D01*
X2384856Y-3083356D02*
X2384856Y-3012644D01*
X2314144Y-3012644D01*
X2314144Y-3083356D01*
X2384856Y-3083356D01*
X2384856Y-3337356D02*
X2384856Y-3266644D01*
X2314144Y-3266644D01*
X2314144Y-3337356D01*
X2384856Y-3337356D01*
X2384856Y-3591356D02*
X2384856Y-3520644D01*
X2314144Y-3520644D01*
X2314144Y-3591356D01*
X2384856Y-3591356D01*
X2384856Y-3845356D02*
X2384856Y-3774644D01*
X2314144Y-3774644D01*
X2314144Y-3845356D01*
X2384856Y-3845356D01*
X2384856Y-4099356D02*
X2384856Y-4028644D01*
X2314144Y-4028644D01*
X2314144Y-4099356D01*
X2384856Y-4099356D01*
X2384856Y-4353356D02*
X2384856Y-4282644D01*
X2314144Y-4282644D01*
X2314144Y-4353356D01*
X2384856Y-4353356D01*
X2384856Y-4607356D02*
X2384856Y-4536644D01*
X2314144Y-4536644D01*
X2314144Y-4607356D01*
X2384856Y-4607356D01*
X2384856Y-4861356D02*
X2384856Y-4790644D01*
X2314144Y-4790644D01*
X2314144Y-4861356D01*
X2384856Y-4861356D01*
X2384856Y-5115356D02*
X2384856Y-5044644D01*
X2314144Y-5044644D01*
X2314144Y-5115356D01*
X2384856Y-5115356D01*
X2384856Y-5369356D02*
X2384856Y-5298644D01*
X2314144Y-5298644D01*
X2314144Y-5369356D01*
X2384856Y-5369356D01*
X2384856Y-5623356D02*
X2384856Y-5552644D01*
X2314144Y-5552644D01*
X2314144Y-5623356D01*
X2384856Y-5623356D01*
X2384856Y-5877356D02*
X2384856Y-5806644D01*
X2314144Y-5806644D01*
X2314144Y-5877356D01*
X2384856Y-5877356D01*
X2384856Y-6131356D02*
X2384856Y-6060644D01*
X2314144Y-6060644D01*
X2314144Y-6131356D01*
X2384856Y-6131356D01*
X2384856Y-6385356D02*
X2384856Y-6314644D01*
X2314144Y-6314644D01*
X2314144Y-6385356D01*
X2384856Y-6385356D01*
X2384856Y-6639356D02*
X2384856Y-6568644D01*
X2314144Y-6568644D01*
X2314144Y-6639356D01*
X2384856Y-6639356D01*
X2384856Y-6893356D02*
X2384856Y-6822644D01*
X2314144Y-6822644D01*
X2314144Y-6893356D01*
X2384856Y-6893356D01*
X2384856Y-7147356D02*
X2384856Y-7076644D01*
X2314144Y-7076644D01*
X2314144Y-7147356D01*
X2384856Y-7147356D01*
X2384856Y-7401356D02*
X2384856Y-7330644D01*
X2314144Y-7330644D01*
X2314144Y-7401356D01*
X2384856Y-7401356D01*
X2384856Y-7655356D02*
X2384856Y-7584644D01*
X2314144Y-7584644D01*
X2314144Y-7655356D01*
X2384856Y-7655356D01*
X2384856Y-7909356D02*
X2384856Y-7838644D01*
X2314144Y-7838644D01*
X2314144Y-7909356D01*
X2384856Y-7909356D01*
X2384856Y-8163356D02*
X2384856Y-8092644D01*
X2314144Y-8092644D01*
X2314144Y-8163356D01*
X2384856Y-8163356D01*
X2384856Y-8417356D02*
X2384856Y-8346644D01*
X2314144Y-8346644D01*
X2314144Y-8417356D01*
X2384856Y-8417356D01*
X2384856Y-8671356D02*
X2384856Y-8600644D01*
X2314144Y-8600644D01*
X2314144Y-8671356D01*
X2384856Y-8671356D01*
X2384856Y-8925356D02*
X2384856Y-8854644D01*
X2314144Y-8854644D01*
X2314144Y-8925356D01*
X2384856Y-8925356D01*
X2384856Y-9179356D02*
X2384856Y-9108644D01*
X2314144Y-9108644D01*
X2314144Y-9179356D01*
X2384856Y-9179356D01*
X2384856Y-9433356D02*
X2384856Y-9362644D01*
X2314144Y-9362644D01*
X2314144Y-9433356D01*
X2384856Y-9433356D01*
X2384856Y-9687356D02*
X2384856Y-9616644D01*
X2314144Y-9616644D01*
X2314144Y-9687356D01*
X2384856Y-9687356D01*
X2384856Y-9941356D02*
X2384856Y-9870644D01*
X2314144Y-9870644D01*
X2314144Y-9941356D01*
X2384856Y-9941356D01*
X2384856Y-10195356D02*
X2384856Y-10124644D01*
X2314144Y-10124644D01*
X2314144Y-10195356D01*
X2384856Y-10195356D01*
X2384856Y-10449356D02*
X2384856Y-10378644D01*
X2314144Y-10378644D01*
X2314144Y-10449356D01*
X2384856Y-10449356D01*
X2384856Y-10703356D02*
X2384856Y-10632644D01*
X2314144Y-10632644D01*
X2314144Y-10703356D01*
X2384856Y-10703356D01*
X9369856Y-4734356D02*
X9369856Y-4663644D01*
X9299144Y-4663644D01*
X9299144Y-4734356D01*
X9369856Y-4734356D01*
X9369856Y-4988356D02*
X9369856Y-4917644D01*
X9299144Y-4917644D01*
X9299144Y-4988356D01*
X9369856Y-4988356D01*
X9369856Y-5242356D02*
X9369856Y-5171644D01*
X9299144Y-5171644D01*
X9299144Y-5242356D01*
X9369856Y-5242356D01*
X9369856Y-5496356D02*
X9369856Y-5425644D01*
X9299144Y-5425644D01*
X9299144Y-5496356D01*
X9369856Y-5496356D01*
X9369856Y-5750356D02*
X9369856Y-5679644D01*
X9299144Y-5679644D01*
X9299144Y-5750356D01*
X9369856Y-5750356D01*
X9369856Y-6004356D02*
X9369856Y-5933644D01*
X9299144Y-5933644D01*
X9299144Y-6004356D01*
X9369856Y-6004356D01*
X9369856Y-6258356D02*
X9369856Y-6187644D01*
X9299144Y-6187644D01*
X9299144Y-6258356D01*
X9369856Y-6258356D01*
X9369856Y-6512356D02*
X9369856Y-6441644D01*
X9299144Y-6441644D01*
X9299144Y-6512356D01*
X9369856Y-6512356D01*
X9369856Y-6766356D02*
X9369856Y-6695644D01*
X9299144Y-6695644D01*
X9299144Y-6766356D01*
X9369856Y-6766356D01*
X9369856Y-7020356D02*
X9369856Y-6949644D01*
X9299144Y-6949644D01*
X9299144Y-7020356D01*
X9369856Y-7020356D01*
X9369856Y-7274356D02*
X9369856Y-7203644D01*
X9299144Y-7203644D01*
X9299144Y-7274356D01*
X9369856Y-7274356D01*
X9369856Y-7528356D02*
X9369856Y-7457644D01*
X9299144Y-7457644D01*
X9299144Y-7528356D01*
X9369856Y-7528356D01*
X9369856Y-7782356D02*
X9369856Y-7711644D01*
X9299144Y-7711644D01*
X9299144Y-7782356D01*
X9369856Y-7782356D01*
X9369856Y-8036356D02*
X9369856Y-7965644D01*
X9299144Y-7965644D01*
X9299144Y-8036356D01*
X9369856Y-8036356D01*
X9369856Y-8290356D02*
X9369856Y-8219644D01*
X9299144Y-8219644D01*
X9299144Y-8290356D01*
X9369856Y-8290356D01*
X9369856Y-8544356D02*
X9369856Y-8473644D01*
X9299144Y-8473644D01*
X9299144Y-8544356D01*
X9369856Y-8544356D01*
X9369856Y-8798356D02*
X9369856Y-8727644D01*
X9299144Y-8727644D01*
X9299144Y-8798356D01*
X9369856Y-8798356D01*
X9369856Y-9052356D02*
X9369856Y-8981644D01*
X9299144Y-8981644D01*
X9299144Y-9052356D01*
X9369856Y-9052356D01*
X9369856Y-9306356D02*
X9369856Y-9235644D01*
X9299144Y-9235644D01*
X9299144Y-9306356D01*
X9369856Y-9306356D01*
X9369856Y-9560356D02*
X9369856Y-9489644D01*
X9299144Y-9489644D01*
X9299144Y-9560356D01*
X9369856Y-9560356D01*
X9369856Y-9814356D02*
X9369856Y-9743644D01*
X9299144Y-9743644D01*
X9299144Y-9814356D01*
X9369856Y-9814356D01*
X9369856Y-10068356D02*
X9369856Y-9997644D01*
X9299144Y-9997644D01*
X9299144Y-10068356D01*
X9369856Y-10068356D01*
X9369856Y-10322356D02*
X9369856Y-10251644D01*
X9299144Y-10251644D01*
X9299144Y-10322356D01*
X9369856Y-10322356D01*
X9369856Y-10576356D02*
X9369856Y-10505644D01*
X9299144Y-10505644D01*
X9299144Y-10576356D01*
X9369856Y-10576356D01*
X9369856Y-10830356D02*
X9369856Y-10759644D01*
X9299144Y-10759644D01*
X9299144Y-10830356D01*
X9369856Y-10830356D01*
X9369856Y-11084356D02*
X9369856Y-11013644D01*
X9299144Y-11013644D01*
X9299144Y-11084356D01*
X9369856Y-11084356D01*
X9623856Y-4734356D02*
X9623856Y-4663644D01*
X9553144Y-4663644D01*
X9553144Y-4734356D01*
X9623856Y-4734356D01*
X9623856Y-4988356D02*
X9623856Y-4917644D01*
X9553144Y-4917644D01*
X9553144Y-4988356D01*
X9623856Y-4988356D01*
X9623856Y-5242356D02*
X9623856Y-5171644D01*
X9553144Y-5171644D01*
X9553144Y-5242356D01*
X9623856Y-5242356D01*
X9623856Y-5496356D02*
X9623856Y-5425644D01*
X9553144Y-5425644D01*
X9553144Y-5496356D01*
X9623856Y-5496356D01*
X9623856Y-5750356D02*
X9623856Y-5679644D01*
X9553144Y-5679644D01*
X9553144Y-5750356D01*
X9623856Y-5750356D01*
X9623856Y-6004356D02*
X9623856Y-5933644D01*
X9553144Y-5933644D01*
X9553144Y-6004356D01*
X9623856Y-6004356D01*
X9623856Y-6258356D02*
X9623856Y-6187644D01*
X9553144Y-6187644D01*
X9553144Y-6258356D01*
X9623856Y-6258356D01*
X9623856Y-6512356D02*
X9623856Y-6441644D01*
X9553144Y-6441644D01*
X9553144Y-6512356D01*
X9623856Y-6512356D01*
X9623856Y-6766356D02*
X9623856Y-6695644D01*
X9553144Y-6695644D01*
X9553144Y-6766356D01*
X9623856Y-6766356D01*
X9623856Y-7020356D02*
X9623856Y-6949644D01*
X9553144Y-6949644D01*
X9553144Y-7020356D01*
X9623856Y-7020356D01*
X9623856Y-7274356D02*
X9623856Y-7203644D01*
X9553144Y-7203644D01*
X9553144Y-7274356D01*
X9623856Y-7274356D01*
X9623856Y-7528356D02*
X9623856Y-7457644D01*
X9553144Y-7457644D01*
X9553144Y-7528356D01*
X9623856Y-7528356D01*
X9623856Y-7782356D02*
X9623856Y-7711644D01*
X9553144Y-7711644D01*
X9553144Y-7782356D01*
X9623856Y-7782356D01*
X9623856Y-8036356D02*
X9623856Y-7965644D01*
X9553144Y-7965644D01*
X9553144Y-8036356D01*
X9623856Y-8036356D01*
X9623856Y-8290356D02*
X9623856Y-8219644D01*
X9553144Y-8219644D01*
X9553144Y-8290356D01*
X9623856Y-8290356D01*
X9623856Y-8544356D02*
X9623856Y-8473644D01*
X9553144Y-8473644D01*
X9553144Y-8544356D01*
X9623856Y-8544356D01*
X9623856Y-8798356D02*
X9623856Y-8727644D01*
X9553144Y-8727644D01*
X9553144Y-8798356D01*
X9623856Y-8798356D01*
X9623856Y-9052356D02*
X9623856Y-8981644D01*
X9553144Y-8981644D01*
X9553144Y-9052356D01*
X9623856Y-9052356D01*
X9623856Y-9306356D02*
X9623856Y-9235644D01*
X9553144Y-9235644D01*
X9553144Y-9306356D01*
X9623856Y-9306356D01*
X9623856Y-9560356D02*
X9623856Y-9489644D01*
X9553144Y-9489644D01*
X9553144Y-9560356D01*
X9623856Y-9560356D01*
X9623856Y-9814356D02*
X9623856Y-9743644D01*
X9553144Y-9743644D01*
X9553144Y-9814356D01*
X9623856Y-9814356D01*
X9623856Y-10068356D02*
X9623856Y-9997644D01*
X9553144Y-9997644D01*
X9553144Y-10068356D01*
X9623856Y-10068356D01*
X9623856Y-10322356D02*
X9623856Y-10251644D01*
X9553144Y-10251644D01*
X9553144Y-10322356D01*
X9623856Y-10322356D01*
X9623856Y-10576356D02*
X9623856Y-10505644D01*
X9553144Y-10505644D01*
X9553144Y-10576356D01*
X9623856Y-10576356D01*
X9623856Y-10830356D02*
X9623856Y-10759644D01*
X9553144Y-10759644D01*
X9553144Y-10830356D01*
X9623856Y-10830356D01*
X9623856Y-11084356D02*
X9623856Y-11013644D01*
X9553144Y-11013644D01*
X9553144Y-11084356D01*
X9623856Y-11084356D01*
X9877856Y-4734356D02*
X9877856Y-4663644D01*
X9807144Y-4663644D01*
X9807144Y-4734356D01*
X9877856Y-4734356D01*
X9877856Y-4988356D02*
X9877856Y-4917644D01*
X9807144Y-4917644D01*
X9807144Y-4988356D01*
X9877856Y-4988356D01*
X9877856Y-5242356D02*
X9877856Y-5171644D01*
X9807144Y-5171644D01*
X9807144Y-5242356D01*
X9877856Y-5242356D01*
X9877856Y-5496356D02*
X9877856Y-5425644D01*
X9807144Y-5425644D01*
X9807144Y-5496356D01*
X9877856Y-5496356D01*
X9877856Y-5750356D02*
X9877856Y-5679644D01*
X9807144Y-5679644D01*
X9807144Y-5750356D01*
X9877856Y-5750356D01*
X9877856Y-6004356D02*
X9877856Y-5933644D01*
X9807144Y-5933644D01*
X9807144Y-6004356D01*
X9877856Y-6004356D01*
X9877856Y-6258356D02*
X9877856Y-6187644D01*
X9807144Y-6187644D01*
X9807144Y-6258356D01*
X9877856Y-6258356D01*
X9877856Y-6512356D02*
X9877856Y-6441644D01*
X9807144Y-6441644D01*
X9807144Y-6512356D01*
X9877856Y-6512356D01*
X9877856Y-6766356D02*
X9877856Y-6695644D01*
X9807144Y-6695644D01*
X9807144Y-6766356D01*
X9877856Y-6766356D01*
X9877856Y-7020356D02*
X9877856Y-6949644D01*
X9807144Y-6949644D01*
X9807144Y-7020356D01*
X9877856Y-7020356D01*
X9877856Y-7274356D02*
X9877856Y-7203644D01*
X9807144Y-7203644D01*
X9807144Y-7274356D01*
X9877856Y-7274356D01*
X9877856Y-7528356D02*
X9877856Y-7457644D01*
X9807144Y-7457644D01*
X9807144Y-7528356D01*
X9877856Y-7528356D01*
X9877856Y-7782356D02*
X9877856Y-7711644D01*
X9807144Y-7711644D01*
X9807144Y-7782356D01*
X9877856Y-7782356D01*
X9877856Y-8036356D02*
X9877856Y-7965644D01*
X9807144Y-7965644D01*
X9807144Y-8036356D01*
X9877856Y-8036356D01*
X9877856Y-8290356D02*
X9877856Y-8219644D01*
X9807144Y-8219644D01*
X9807144Y-8290356D01*
X9877856Y-8290356D01*
X9877856Y-8544356D02*
X9877856Y-8473644D01*
X9807144Y-8473644D01*
X9807144Y-8544356D01*
X9877856Y-8544356D01*
X9877856Y-8798356D02*
X9877856Y-8727644D01*
X9807144Y-8727644D01*
X9807144Y-8798356D01*
X9877856Y-8798356D01*
X9877856Y-9052356D02*
X9877856Y-8981644D01*
X9807144Y-8981644D01*
X9807144Y-9052356D01*
X9877856Y-9052356D01*
X9877856Y-9306356D02*
X9877856Y-9235644D01*
X9807144Y-9235644D01*
X9807144Y-9306356D01*
X9877856Y-9306356D01*
X9877856Y-9560356D02*
X9877856Y-9489644D01*
X9807144Y-9489644D01*
X9807144Y-9560356D01*
X9877856Y-9560356D01*
X9877856Y-9814356D02*
X9877856Y-9743644D01*
X9807144Y-9743644D01*
X9807144Y-9814356D01*
X9877856Y-9814356D01*
X9877856Y-10068356D02*
X9877856Y-9997644D01*
X9807144Y-9997644D01*
X9807144Y-10068356D01*
X9877856Y-10068356D01*
X9877856Y-10322356D02*
X9877856Y-10251644D01*
X9807144Y-10251644D01*
X9807144Y-10322356D01*
X9877856Y-10322356D01*
X9877856Y-10576356D02*
X9877856Y-10505644D01*
X9807144Y-10505644D01*
X9807144Y-10576356D01*
X9877856Y-10576356D01*
X9877856Y-10830356D02*
X9877856Y-10759644D01*
X9807144Y-10759644D01*
X9807144Y-10830356D01*
X9877856Y-10830356D01*
X9877856Y-11084356D02*
X9877856Y-11013644D01*
X9807144Y-11013644D01*
X9807144Y-11084356D01*
X9877856Y-11084356D01*
X10131856Y-4734356D02*
X10131856Y-4663644D01*
X10061144Y-4663644D01*
X10061144Y-4734356D01*
X10131856Y-4734356D01*
X10131856Y-4988356D02*
X10131856Y-4917644D01*
X10061144Y-4917644D01*
X10061144Y-4988356D01*
X10131856Y-4988356D01*
X10131856Y-5242356D02*
X10131856Y-5171644D01*
X10061144Y-5171644D01*
X10061144Y-5242356D01*
X10131856Y-5242356D01*
X10131856Y-5496356D02*
X10131856Y-5425644D01*
X10061144Y-5425644D01*
X10061144Y-5496356D01*
X10131856Y-5496356D01*
X10131856Y-5750356D02*
X10131856Y-5679644D01*
X10061144Y-5679644D01*
X10061144Y-5750356D01*
X10131856Y-5750356D01*
X10131856Y-6004356D02*
X10131856Y-5933644D01*
X10061144Y-5933644D01*
X10061144Y-6004356D01*
X10131856Y-6004356D01*
X10131856Y-6258356D02*
X10131856Y-6187644D01*
X10061144Y-6187644D01*
X10061144Y-6258356D01*
X10131856Y-6258356D01*
X10131856Y-6512356D02*
X10131856Y-6441644D01*
X10061144Y-6441644D01*
X10061144Y-6512356D01*
X10131856Y-6512356D01*
X10131856Y-6766356D02*
X10131856Y-6695644D01*
X10061144Y-6695644D01*
X10061144Y-6766356D01*
X10131856Y-6766356D01*
X10131856Y-7020356D02*
X10131856Y-6949644D01*
X10061144Y-6949644D01*
X10061144Y-7020356D01*
X10131856Y-7020356D01*
X10131856Y-7274356D02*
X10131856Y-7203644D01*
X10061144Y-7203644D01*
X10061144Y-7274356D01*
X10131856Y-7274356D01*
X10131856Y-7528356D02*
X10131856Y-7457644D01*
X10061144Y-7457644D01*
X10061144Y-7528356D01*
X10131856Y-7528356D01*
X10131856Y-7782356D02*
X10131856Y-7711644D01*
X10061144Y-7711644D01*
X10061144Y-7782356D01*
X10131856Y-7782356D01*
X10131856Y-8036356D02*
X10131856Y-7965644D01*
X10061144Y-7965644D01*
X10061144Y-8036356D01*
X10131856Y-8036356D01*
X10131856Y-8290356D02*
X10131856Y-8219644D01*
X10061144Y-8219644D01*
X10061144Y-8290356D01*
X10131856Y-8290356D01*
X10131856Y-8544356D02*
X10131856Y-8473644D01*
X10061144Y-8473644D01*
X10061144Y-8544356D01*
X10131856Y-8544356D01*
X10131856Y-8798356D02*
X10131856Y-8727644D01*
X10061144Y-8727644D01*
X10061144Y-8798356D01*
X10131856Y-8798356D01*
X10131856Y-9052356D02*
X10131856Y-8981644D01*
X10061144Y-8981644D01*
X10061144Y-9052356D01*
X10131856Y-9052356D01*
X10131856Y-9306356D02*
X10131856Y-9235644D01*
X10061144Y-9235644D01*
X10061144Y-9306356D01*
X10131856Y-9306356D01*
X10131856Y-9560356D02*
X10131856Y-9489644D01*
X10061144Y-9489644D01*
X10061144Y-9560356D01*
X10131856Y-9560356D01*
X10131856Y-9814356D02*
X10131856Y-9743644D01*
X10061144Y-9743644D01*
X10061144Y-9814356D01*
X10131856Y-9814356D01*
X10131856Y-10068356D02*
X10131856Y-9997644D01*
X10061144Y-9997644D01*
X10061144Y-10068356D01*
X10131856Y-10068356D01*
X10131856Y-10322356D02*
X10131856Y-10251644D01*
X10061144Y-10251644D01*
X10061144Y-10322356D01*
X10131856Y-10322356D01*
X10131856Y-10576356D02*
X10131856Y-10505644D01*
X10061144Y-10505644D01*
X10061144Y-10576356D01*
X10131856Y-10576356D01*
X10131856Y-10830356D02*
X10131856Y-10759644D01*
X10061144Y-10759644D01*
X10061144Y-10830356D01*
X10131856Y-10830356D01*
X10131856Y-11084356D02*
X10131856Y-11013644D01*
X10061144Y-11013644D01*
X10061144Y-11084356D01*
X10131856Y-11084356D01*
X10385856Y-4734356D02*
X10385856Y-4663644D01*
X10315144Y-4663644D01*
X10315144Y-4734356D01*
X10385856Y-4734356D01*
X10385856Y-4988356D02*
X10385856Y-4917644D01*
X10315144Y-4917644D01*
X10315144Y-4988356D01*
X10385856Y-4988356D01*
X10385856Y-5242356D02*
X10385856Y-5171644D01*
X10315144Y-5171644D01*
X10315144Y-5242356D01*
X10385856Y-5242356D01*
X10385856Y-5496356D02*
X10385856Y-5425644D01*
X10315144Y-5425644D01*
X10315144Y-5496356D01*
X10385856Y-5496356D01*
X10385856Y-5750356D02*
X10385856Y-5679644D01*
X10315144Y-5679644D01*
X10315144Y-5750356D01*
X10385856Y-5750356D01*
X10385856Y-6004356D02*
X10385856Y-5933644D01*
X10315144Y-5933644D01*
X10315144Y-6004356D01*
X10385856Y-6004356D01*
X10385856Y-6258356D02*
X10385856Y-6187644D01*
X10315144Y-6187644D01*
X10315144Y-6258356D01*
X10385856Y-6258356D01*
X10385856Y-6512356D02*
X10385856Y-6441644D01*
X10315144Y-6441644D01*
X10315144Y-6512356D01*
X10385856Y-6512356D01*
X10385856Y-6766356D02*
X10385856Y-6695644D01*
X10315144Y-6695644D01*
X10315144Y-6766356D01*
X10385856Y-6766356D01*
X10385856Y-7020356D02*
X10385856Y-6949644D01*
X10315144Y-6949644D01*
X10315144Y-7020356D01*
X10385856Y-7020356D01*
X10385856Y-7274356D02*
X10385856Y-7203644D01*
X10315144Y-7203644D01*
X10315144Y-7274356D01*
X10385856Y-7274356D01*
X10385856Y-7528356D02*
X10385856Y-7457644D01*
X10315144Y-7457644D01*
X10315144Y-7528356D01*
X10385856Y-7528356D01*
X10385856Y-7782356D02*
X10385856Y-7711644D01*
X10315144Y-7711644D01*
X10315144Y-7782356D01*
X10385856Y-7782356D01*
X10385856Y-8036356D02*
X10385856Y-7965644D01*
X10315144Y-7965644D01*
X10315144Y-8036356D01*
X10385856Y-8036356D01*
X10385856Y-8290356D02*
X10385856Y-8219644D01*
X10315144Y-8219644D01*
X10315144Y-8290356D01*
X10385856Y-8290356D01*
X10385856Y-8544356D02*
X10385856Y-8473644D01*
X10315144Y-8473644D01*
X10315144Y-8544356D01*
X10385856Y-8544356D01*
X10385856Y-8798356D02*
X10385856Y-8727644D01*
X10315144Y-8727644D01*
X10315144Y-8798356D01*
X10385856Y-8798356D01*
X10385856Y-9052356D02*
X10385856Y-8981644D01*
X10315144Y-8981644D01*
X10315144Y-9052356D01*
X10385856Y-9052356D01*
X10385856Y-9306356D02*
X10385856Y-9235644D01*
X10315144Y-9235644D01*
X10315144Y-9306356D01*
X10385856Y-9306356D01*
X10385856Y-9560356D02*
X10385856Y-9489644D01*
X10315144Y-9489644D01*
X10315144Y-9560356D01*
X10385856Y-9560356D01*
X10385856Y-9814356D02*
X10385856Y-9743644D01*
X10315144Y-9743644D01*
X10315144Y-9814356D01*
X10385856Y-9814356D01*
X10385856Y-10068356D02*
X10385856Y-9997644D01*
X10315144Y-9997644D01*
X10315144Y-10068356D01*
X10385856Y-10068356D01*
X10385856Y-10322356D02*
X10385856Y-10251644D01*
X10315144Y-10251644D01*
X10315144Y-10322356D01*
X10385856Y-10322356D01*
X10385856Y-10576356D02*
X10385856Y-10505644D01*
X10315144Y-10505644D01*
X10315144Y-10576356D01*
X10385856Y-10576356D01*
X10385856Y-10830356D02*
X10385856Y-10759644D01*
X10315144Y-10759644D01*
X10315144Y-10830356D01*
X10385856Y-10830356D01*
X10385856Y-11084356D02*
X10385856Y-11013644D01*
X10315144Y-11013644D01*
X10315144Y-11084356D01*
X10385856Y-11084356D01*
X10512856Y-2399356D02*
X10512856Y-2328644D01*
X10442144Y-2328644D01*
X10442144Y-2399356D01*
X10512856Y-2399356D01*
X10512856Y-2628356D02*
X10512856Y-2557644D01*
X10442144Y-2557644D01*
X10442144Y-2628356D01*
X10512856Y-2628356D01*
X10512856Y-2857356D02*
X10512856Y-2786644D01*
X10442144Y-2786644D01*
X10442144Y-2857356D01*
X10512856Y-2857356D01*
X10512856Y-3086356D02*
X10512856Y-3015644D01*
X10442144Y-3015644D01*
X10442144Y-3086356D01*
X10512856Y-3086356D01*
X10512856Y-3315356D02*
X10512856Y-3244644D01*
X10442144Y-3244644D01*
X10442144Y-3315356D01*
X10512856Y-3315356D01*
X10639856Y-4734356D02*
X10639856Y-4663644D01*
X10569144Y-4663644D01*
X10569144Y-4734356D01*
X10639856Y-4734356D01*
X10639856Y-4988356D02*
X10639856Y-4917644D01*
X10569144Y-4917644D01*
X10569144Y-4988356D01*
X10639856Y-4988356D01*
X10639856Y-5242356D02*
X10639856Y-5171644D01*
X10569144Y-5171644D01*
X10569144Y-5242356D01*
X10639856Y-5242356D01*
X10639856Y-5496356D02*
X10639856Y-5425644D01*
X10569144Y-5425644D01*
X10569144Y-5496356D01*
X10639856Y-5496356D01*
X10639856Y-5750356D02*
X10639856Y-5679644D01*
X10569144Y-5679644D01*
X10569144Y-5750356D01*
X10639856Y-5750356D01*
X10639856Y-6004356D02*
X10639856Y-5933644D01*
X10569144Y-5933644D01*
X10569144Y-6004356D01*
X10639856Y-6004356D01*
X10639856Y-6258356D02*
X10639856Y-6187644D01*
X10569144Y-6187644D01*
X10569144Y-6258356D01*
X10639856Y-6258356D01*
X10639856Y-6512356D02*
X10639856Y-6441644D01*
X10569144Y-6441644D01*
X10569144Y-6512356D01*
X10639856Y-6512356D01*
X10639856Y-6766356D02*
X10639856Y-6695644D01*
X10569144Y-6695644D01*
X10569144Y-6766356D01*
X10639856Y-6766356D01*
X10639856Y-7020356D02*
X10639856Y-6949644D01*
X10569144Y-6949644D01*
X10569144Y-7020356D01*
X10639856Y-7020356D01*
X10639856Y-7274356D02*
X10639856Y-7203644D01*
X10569144Y-7203644D01*
X10569144Y-7274356D01*
X10639856Y-7274356D01*
X10639856Y-7528356D02*
X10639856Y-7457644D01*
X10569144Y-7457644D01*
X10569144Y-7528356D01*
X10639856Y-7528356D01*
X10639856Y-7782356D02*
X10639856Y-7711644D01*
X10569144Y-7711644D01*
X10569144Y-7782356D01*
X10639856Y-7782356D01*
X10639856Y-8036356D02*
X10639856Y-7965644D01*
X10569144Y-7965644D01*
X10569144Y-8036356D01*
X10639856Y-8036356D01*
X10639856Y-8290356D02*
X10639856Y-8219644D01*
X10569144Y-8219644D01*
X10569144Y-8290356D01*
X10639856Y-8290356D01*
X10639856Y-8544356D02*
X10639856Y-8473644D01*
X10569144Y-8473644D01*
X10569144Y-8544356D01*
X10639856Y-8544356D01*
X10639856Y-8798356D02*
X10639856Y-8727644D01*
X10569144Y-8727644D01*
X10569144Y-8798356D01*
X10639856Y-8798356D01*
X10639856Y-9052356D02*
X10639856Y-8981644D01*
X10569144Y-8981644D01*
X10569144Y-9052356D01*
X10639856Y-9052356D01*
X10639856Y-9306356D02*
X10639856Y-9235644D01*
X10569144Y-9235644D01*
X10569144Y-9306356D01*
X10639856Y-9306356D01*
X10639856Y-9560356D02*
X10639856Y-9489644D01*
X10569144Y-9489644D01*
X10569144Y-9560356D01*
X10639856Y-9560356D01*
X10639856Y-9814356D02*
X10639856Y-9743644D01*
X10569144Y-9743644D01*
X10569144Y-9814356D01*
X10639856Y-9814356D01*
X10639856Y-10068356D02*
X10639856Y-9997644D01*
X10569144Y-9997644D01*
X10569144Y-10068356D01*
X10639856Y-10068356D01*
X10639856Y-10322356D02*
X10639856Y-10251644D01*
X10569144Y-10251644D01*
X10569144Y-10322356D01*
X10639856Y-10322356D01*
X10639856Y-10576356D02*
X10639856Y-10505644D01*
X10569144Y-10505644D01*
X10569144Y-10576356D01*
X10639856Y-10576356D01*
X10639856Y-10830356D02*
X10639856Y-10759644D01*
X10569144Y-10759644D01*
X10569144Y-10830356D01*
X10639856Y-10830356D01*
X10639856Y-11084356D02*
X10639856Y-11013644D01*
X10569144Y-11013644D01*
X10569144Y-11084356D01*
X10639856Y-11084356D01*
X10710856Y-2284856D02*
X10710856Y-2214144D01*
X10640144Y-2214144D01*
X10640144Y-2284856D01*
X10710856Y-2284856D01*
X10710856Y-2513856D02*
X10710856Y-2443144D01*
X10640144Y-2443144D01*
X10640144Y-2513856D01*
X10710856Y-2513856D01*
X10710856Y-2742856D02*
X10710856Y-2672144D01*
X10640144Y-2672144D01*
X10640144Y-2742856D01*
X10710856Y-2742856D01*
X10710856Y-2971856D02*
X10710856Y-2901144D01*
X10640144Y-2901144D01*
X10640144Y-2971856D01*
X10710856Y-2971856D01*
X10710856Y-3200856D02*
X10710856Y-3130144D01*
X10640144Y-3130144D01*
X10640144Y-3200856D01*
X10710856Y-3200856D01*
X10893856Y-4734356D02*
X10893856Y-4663644D01*
X10823144Y-4663644D01*
X10823144Y-4734356D01*
X10893856Y-4734356D01*
X10893856Y-4988356D02*
X10893856Y-4917644D01*
X10823144Y-4917644D01*
X10823144Y-4988356D01*
X10893856Y-4988356D01*
X10893856Y-5242356D02*
X10893856Y-5171644D01*
X10823144Y-5171644D01*
X10823144Y-5242356D01*
X10893856Y-5242356D01*
X10893856Y-5496356D02*
X10893856Y-5425644D01*
X10823144Y-5425644D01*
X10823144Y-5496356D01*
X10893856Y-5496356D01*
X10893856Y-5750356D02*
X10893856Y-5679644D01*
X10823144Y-5679644D01*
X10823144Y-5750356D01*
X10893856Y-5750356D01*
X10893856Y-6004356D02*
X10893856Y-5933644D01*
X10823144Y-5933644D01*
X10823144Y-6004356D01*
X10893856Y-6004356D01*
X10893856Y-6258356D02*
X10893856Y-6187644D01*
X10823144Y-6187644D01*
X10823144Y-6258356D01*
X10893856Y-6258356D01*
X10893856Y-6512356D02*
X10893856Y-6441644D01*
X10823144Y-6441644D01*
X10823144Y-6512356D01*
X10893856Y-6512356D01*
X10893856Y-6766356D02*
X10893856Y-6695644D01*
X10823144Y-6695644D01*
X10823144Y-6766356D01*
X10893856Y-6766356D01*
X10893856Y-7020356D02*
X10893856Y-6949644D01*
X10823144Y-6949644D01*
X10823144Y-7020356D01*
X10893856Y-7020356D01*
X10893856Y-7274356D02*
X10893856Y-7203644D01*
X10823144Y-7203644D01*
X10823144Y-7274356D01*
X10893856Y-7274356D01*
X10893856Y-7528356D02*
X10893856Y-7457644D01*
X10823144Y-7457644D01*
X10823144Y-7528356D01*
X10893856Y-7528356D01*
X10893856Y-7782356D02*
X10893856Y-7711644D01*
X10823144Y-7711644D01*
X10823144Y-7782356D01*
X10893856Y-7782356D01*
X10893856Y-8036356D02*
X10893856Y-7965644D01*
X10823144Y-7965644D01*
X10823144Y-8036356D01*
X10893856Y-8036356D01*
X10893856Y-8290356D02*
X10893856Y-8219644D01*
X10823144Y-8219644D01*
X10823144Y-8290356D01*
X10893856Y-8290356D01*
X10893856Y-8544356D02*
X10893856Y-8473644D01*
X10823144Y-8473644D01*
X10823144Y-8544356D01*
X10893856Y-8544356D01*
X10893856Y-8798356D02*
X10893856Y-8727644D01*
X10823144Y-8727644D01*
X10823144Y-8798356D01*
X10893856Y-8798356D01*
X10893856Y-9052356D02*
X10893856Y-8981644D01*
X10823144Y-8981644D01*
X10823144Y-9052356D01*
X10893856Y-9052356D01*
X10893856Y-9306356D02*
X10893856Y-9235644D01*
X10823144Y-9235644D01*
X10823144Y-9306356D01*
X10893856Y-9306356D01*
X10893856Y-9560356D02*
X10893856Y-9489644D01*
X10823144Y-9489644D01*
X10823144Y-9560356D01*
X10893856Y-9560356D01*
X10893856Y-9814356D02*
X10893856Y-9743644D01*
X10823144Y-9743644D01*
X10823144Y-9814356D01*
X10893856Y-9814356D01*
X10893856Y-10068356D02*
X10893856Y-9997644D01*
X10823144Y-9997644D01*
X10823144Y-10068356D01*
X10893856Y-10068356D01*
X10893856Y-10322356D02*
X10893856Y-10251644D01*
X10823144Y-10251644D01*
X10823144Y-10322356D01*
X10893856Y-10322356D01*
X10893856Y-10576356D02*
X10893856Y-10505644D01*
X10823144Y-10505644D01*
X10823144Y-10576356D01*
X10893856Y-10576356D01*
X10893856Y-10830356D02*
X10893856Y-10759644D01*
X10823144Y-10759644D01*
X10823144Y-10830356D01*
X10893856Y-10830356D01*
X10893856Y-11084356D02*
X10893856Y-11013644D01*
X10823144Y-11013644D01*
X10823144Y-11084356D01*
X10893856Y-11084356D01*
X10908856Y-2399356D02*
X10908856Y-2328644D01*
X10838144Y-2328644D01*
X10838144Y-2399356D01*
X10908856Y-2399356D01*
X10908856Y-2628356D02*
X10908856Y-2557644D01*
X10838144Y-2557644D01*
X10838144Y-2628356D01*
X10908856Y-2628356D01*
X10908856Y-2857356D02*
X10908856Y-2786644D01*
X10838144Y-2786644D01*
X10838144Y-2857356D01*
X10908856Y-2857356D01*
X10908856Y-3086356D02*
X10908856Y-3015644D01*
X10838144Y-3015644D01*
X10838144Y-3086356D01*
X10908856Y-3086356D01*
X10908856Y-3315356D02*
X10908856Y-3244644D01*
X10838144Y-3244644D01*
X10838144Y-3315356D01*
X10908856Y-3315356D01*
X11147856Y-4734356D02*
X11147856Y-4663644D01*
X11077144Y-4663644D01*
X11077144Y-4734356D01*
X11147856Y-4734356D01*
X11147856Y-4988356D02*
X11147856Y-4917644D01*
X11077144Y-4917644D01*
X11077144Y-4988356D01*
X11147856Y-4988356D01*
X11147856Y-5242356D02*
X11147856Y-5171644D01*
X11077144Y-5171644D01*
X11077144Y-5242356D01*
X11147856Y-5242356D01*
X11147856Y-5496356D02*
X11147856Y-5425644D01*
X11077144Y-5425644D01*
X11077144Y-5496356D01*
X11147856Y-5496356D01*
X11147856Y-5750356D02*
X11147856Y-5679644D01*
X11077144Y-5679644D01*
X11077144Y-5750356D01*
X11147856Y-5750356D01*
X11147856Y-6004356D02*
X11147856Y-5933644D01*
X11077144Y-5933644D01*
X11077144Y-6004356D01*
X11147856Y-6004356D01*
X11147856Y-6258356D02*
X11147856Y-6187644D01*
X11077144Y-6187644D01*
X11077144Y-6258356D01*
X11147856Y-6258356D01*
X11147856Y-6512356D02*
X11147856Y-6441644D01*
X11077144Y-6441644D01*
X11077144Y-6512356D01*
X11147856Y-6512356D01*
X11147856Y-6766356D02*
X11147856Y-6695644D01*
X11077144Y-6695644D01*
X11077144Y-6766356D01*
X11147856Y-6766356D01*
X11147856Y-7020356D02*
X11147856Y-6949644D01*
X11077144Y-6949644D01*
X11077144Y-7020356D01*
X11147856Y-7020356D01*
X11147856Y-7274356D02*
X11147856Y-7203644D01*
X11077144Y-7203644D01*
X11077144Y-7274356D01*
X11147856Y-7274356D01*
X11147856Y-7528356D02*
X11147856Y-7457644D01*
X11077144Y-7457644D01*
X11077144Y-7528356D01*
X11147856Y-7528356D01*
X11147856Y-7782356D02*
X11147856Y-7711644D01*
X11077144Y-7711644D01*
X11077144Y-7782356D01*
X11147856Y-7782356D01*
X11147856Y-8036356D02*
X11147856Y-7965644D01*
X11077144Y-7965644D01*
X11077144Y-8036356D01*
X11147856Y-8036356D01*
X11147856Y-8290356D02*
X11147856Y-8219644D01*
X11077144Y-8219644D01*
X11077144Y-8290356D01*
X11147856Y-8290356D01*
X11147856Y-8544356D02*
X11147856Y-8473644D01*
X11077144Y-8473644D01*
X11077144Y-8544356D01*
X11147856Y-8544356D01*
X11147856Y-8798356D02*
X11147856Y-8727644D01*
X11077144Y-8727644D01*
X11077144Y-8798356D01*
X11147856Y-8798356D01*
X11147856Y-9052356D02*
X11147856Y-8981644D01*
X11077144Y-8981644D01*
X11077144Y-9052356D01*
X11147856Y-9052356D01*
X11147856Y-9306356D02*
X11147856Y-9235644D01*
X11077144Y-9235644D01*
X11077144Y-9306356D01*
X11147856Y-9306356D01*
X11147856Y-9560356D02*
X11147856Y-9489644D01*
X11077144Y-9489644D01*
X11077144Y-9560356D01*
X11147856Y-9560356D01*
X11147856Y-9814356D02*
X11147856Y-9743644D01*
X11077144Y-9743644D01*
X11077144Y-9814356D01*
X11147856Y-9814356D01*
X11147856Y-10068356D02*
X11147856Y-9997644D01*
X11077144Y-9997644D01*
X11077144Y-10068356D01*
X11147856Y-10068356D01*
X11147856Y-10322356D02*
X11147856Y-10251644D01*
X11077144Y-10251644D01*
X11077144Y-10322356D01*
X11147856Y-10322356D01*
X11147856Y-10576356D02*
X11147856Y-10505644D01*
X11077144Y-10505644D01*
X11077144Y-10576356D01*
X11147856Y-10576356D01*
X11147856Y-10830356D02*
X11147856Y-10759644D01*
X11077144Y-10759644D01*
X11077144Y-10830356D01*
X11147856Y-10830356D01*
X11147856Y-11084356D02*
X11147856Y-11013644D01*
X11077144Y-11013644D01*
X11077144Y-11084356D01*
X11147856Y-11084356D01*
D16*
X10682500Y-1705500D02*
X10842500Y-1545500D01*
X10682500Y-1385500D01*
X10522500Y-1545500D01*
X10682500Y-1705500D01*
X10682500Y-4205500D02*
X10842500Y-4045500D01*
X10682500Y-3885500D01*
X10522500Y-4045500D01*
X10682500Y-4205500D01*
D11*
X1459119Y-11554976D02*
X1459119Y-11354976D01*
X1506738Y-11354976D01*
X1535309Y-11364500D01*
X1554357Y-11383548D01*
X1563881Y-11402595D01*
X1573405Y-11440690D01*
X1573405Y-11469262D01*
X1563881Y-11507357D01*
X1554357Y-11526405D01*
X1535309Y-11545452D01*
X1506738Y-11554976D01*
X1459119Y-11554976D01*
X1659119Y-11554976D02*
X1659119Y-11421643D01*
X1659119Y-11459738D02*
X1668643Y-11440690D01*
X1678167Y-11431167D01*
X1697214Y-11421643D01*
X1716262Y-11421643D01*
X1782928Y-11554976D02*
X1782928Y-11421643D01*
X1782928Y-11354976D02*
X1773405Y-11364500D01*
X1782928Y-11374024D01*
X1792452Y-11364500D01*
X1782928Y-11354976D01*
X1782928Y-11374024D01*
X1906738Y-11554976D02*
X1887690Y-11545452D01*
X1878167Y-11526405D01*
X1878167Y-11354976D01*
X2011500Y-11554976D02*
X1992452Y-11545452D01*
X1982928Y-11526405D01*
X1982928Y-11354976D01*
X2240071Y-11554976D02*
X2240071Y-11354976D01*
X2306738Y-11497833D01*
X2373405Y-11354976D01*
X2373405Y-11554976D01*
X2554357Y-11554976D02*
X2554357Y-11450214D01*
X2544833Y-11431167D01*
X2525786Y-11421643D01*
X2487690Y-11421643D01*
X2468643Y-11431167D01*
X2554357Y-11545452D02*
X2535310Y-11554976D01*
X2487690Y-11554976D01*
X2468643Y-11545452D01*
X2459119Y-11526405D01*
X2459119Y-11507357D01*
X2468643Y-11488309D01*
X2487690Y-11478786D01*
X2535310Y-11478786D01*
X2554357Y-11469262D01*
X2649595Y-11421643D02*
X2649595Y-11621643D01*
X2649595Y-11431167D02*
X2668643Y-11421643D01*
X2706738Y-11421643D01*
X2725786Y-11431167D01*
X2735310Y-11440690D01*
X2744833Y-11459738D01*
X2744833Y-11516881D01*
X2735310Y-11535928D01*
X2725786Y-11545452D01*
X2706738Y-11554976D01*
X2668643Y-11554976D01*
X2649595Y-11545452D01*
X2830548Y-11535928D02*
X2840071Y-11545452D01*
X2830548Y-11554976D01*
X2821024Y-11545452D01*
X2830548Y-11535928D01*
X2830548Y-11554976D01*
X2830548Y-11431167D02*
X2840071Y-11440690D01*
X2830548Y-11450214D01*
X2821024Y-11440690D01*
X2830548Y-11431167D01*
X2830548Y-11450214D01*
D12*
X1161500Y-11864500D02*
X1201500Y-11904500D01*
X1201500Y-11864500D02*
X1161500Y-11904500D01*
D11*
X1497214Y-11774976D02*
X1516262Y-11774976D01*
X1535309Y-11784500D01*
X1544833Y-11794024D01*
X1554357Y-11813071D01*
X1563881Y-11851167D01*
X1563881Y-11898786D01*
X1554357Y-11936881D01*
X1544833Y-11955928D01*
X1535309Y-11965452D01*
X1516262Y-11974976D01*
X1497214Y-11974976D01*
X1478167Y-11965452D01*
X1468643Y-11955928D01*
X1459119Y-11936881D01*
X1449595Y-11898786D01*
X1449595Y-11851167D01*
X1459119Y-11813071D01*
X1468643Y-11794024D01*
X1478167Y-11784500D01*
X1497214Y-11774976D01*
X1649595Y-11955928D02*
X1659119Y-11965452D01*
X1649595Y-11974976D01*
X1640071Y-11965452D01*
X1649595Y-11955928D01*
X1649595Y-11974976D01*
X1830548Y-11841643D02*
X1830548Y-11974976D01*
X1782928Y-11765452D02*
X1735309Y-11908309D01*
X1859119Y-11908309D01*
X1973405Y-11774976D02*
X1992452Y-11774976D01*
X2011500Y-11784500D01*
X2021024Y-11794024D01*
X2030548Y-11813071D01*
X2040071Y-11851167D01*
X2040071Y-11898786D01*
X2030548Y-11936881D01*
X2021024Y-11955928D01*
X2011500Y-11965452D01*
X1992452Y-11974976D01*
X1973405Y-11974976D01*
X1954357Y-11965452D01*
X1944833Y-11955928D01*
X1935309Y-11936881D01*
X1925786Y-11898786D01*
X1925786Y-11851167D01*
X1935309Y-11813071D01*
X1944833Y-11794024D01*
X1954357Y-11784500D01*
X1973405Y-11774976D01*
X2163881Y-11774976D02*
X2182929Y-11774976D01*
X2201976Y-11784500D01*
X2211500Y-11794024D01*
X2221024Y-11813071D01*
X2230548Y-11851167D01*
X2230548Y-11898786D01*
X2221024Y-11936881D01*
X2211500Y-11955928D01*
X2201976Y-11965452D01*
X2182929Y-11974976D01*
X2163881Y-11974976D01*
X2144833Y-11965452D01*
X2135310Y-11955928D01*
X2125786Y-11936881D01*
X2116262Y-11898786D01*
X2116262Y-11851167D01*
X2125786Y-11813071D01*
X2135310Y-11794024D01*
X2144833Y-11784500D01*
X2163881Y-11774976D01*
X2316262Y-11974976D02*
X2316262Y-11841643D01*
X2316262Y-11860690D02*
X2325786Y-11851167D01*
X2344833Y-11841643D01*
X2373405Y-11841643D01*
X2392452Y-11851167D01*
X2401976Y-11870214D01*
X2401976Y-11974976D01*
X2401976Y-11870214D02*
X2411500Y-11851167D01*
X2430548Y-11841643D01*
X2459119Y-11841643D01*
X2478167Y-11851167D01*
X2487690Y-11870214D01*
X2487690Y-11974976D01*
X2582929Y-11974976D02*
X2582929Y-11841643D01*
X2582929Y-11860690D02*
X2592452Y-11851167D01*
X2611500Y-11841643D01*
X2640071Y-11841643D01*
X2659119Y-11851167D01*
X2668643Y-11870214D01*
X2668643Y-11974976D01*
X2668643Y-11870214D02*
X2678167Y-11851167D01*
X2697214Y-11841643D01*
X2725786Y-11841643D01*
X2744833Y-11851167D01*
X2754357Y-11870214D01*
X2754357Y-11974976D01*
X3144833Y-11765452D02*
X2973405Y-12022595D01*
X3401976Y-11774976D02*
X3421024Y-11774976D01*
X3440071Y-11784500D01*
X3449595Y-11794024D01*
X3459119Y-11813071D01*
X3468643Y-11851167D01*
X3468643Y-11898786D01*
X3459119Y-11936881D01*
X3449595Y-11955928D01*
X3440071Y-11965452D01*
X3421024Y-11974976D01*
X3401976Y-11974976D01*
X3382928Y-11965452D01*
X3373405Y-11955928D01*
X3363881Y-11936881D01*
X3354357Y-11898786D01*
X3354357Y-11851167D01*
X3363881Y-11813071D01*
X3373405Y-11794024D01*
X3382928Y-11784500D01*
X3401976Y-11774976D01*
X3554357Y-11955928D02*
X3563881Y-11965452D01*
X3554357Y-11974976D01*
X3544833Y-11965452D01*
X3554357Y-11955928D01*
X3554357Y-11974976D01*
X3687690Y-11774976D02*
X3706738Y-11774976D01*
X3725786Y-11784500D01*
X3735309Y-11794024D01*
X3744833Y-11813071D01*
X3754357Y-11851167D01*
X3754357Y-11898786D01*
X3744833Y-11936881D01*
X3735309Y-11955928D01*
X3725786Y-11965452D01*
X3706738Y-11974976D01*
X3687690Y-11974976D01*
X3668643Y-11965452D01*
X3659119Y-11955928D01*
X3649595Y-11936881D01*
X3640071Y-11898786D01*
X3640071Y-11851167D01*
X3649595Y-11813071D01*
X3659119Y-11794024D01*
X3668643Y-11784500D01*
X3687690Y-11774976D01*
X3944833Y-11974976D02*
X3830548Y-11974976D01*
X3887690Y-11974976D02*
X3887690Y-11774976D01*
X3868643Y-11803548D01*
X3849595Y-11822595D01*
X3830548Y-11832119D01*
X4125786Y-11774976D02*
X4030548Y-11774976D01*
X4021024Y-11870214D01*
X4030548Y-11860690D01*
X4049595Y-11851167D01*
X4097214Y-11851167D01*
X4116262Y-11860690D01*
X4125786Y-11870214D01*
X4135309Y-11889262D01*
X4135309Y-11936881D01*
X4125786Y-11955928D01*
X4116262Y-11965452D01*
X4097214Y-11974976D01*
X4049595Y-11974976D01*
X4030548Y-11965452D01*
X4021024Y-11955928D01*
X4201976Y-11774976D02*
X4335310Y-11774976D01*
X4249595Y-11974976D01*
X4401976Y-11774976D02*
X4401976Y-11813071D01*
X4478167Y-11774976D02*
X4478167Y-11813071D01*
X4773405Y-12051167D02*
X4763881Y-12041643D01*
X4744833Y-12013071D01*
X4735310Y-11994024D01*
X4725786Y-11965452D01*
X4716262Y-11917833D01*
X4716262Y-11879738D01*
X4725786Y-11832119D01*
X4735310Y-11803548D01*
X4744833Y-11784500D01*
X4763881Y-11755928D01*
X4773405Y-11746405D01*
X4935310Y-11841643D02*
X4935310Y-11974976D01*
X4887690Y-11765452D02*
X4840071Y-11908309D01*
X4963881Y-11908309D01*
X5125786Y-11774976D02*
X5087690Y-11774976D01*
X5068643Y-11784500D01*
X5059119Y-11794024D01*
X5040071Y-11822595D01*
X5030548Y-11860690D01*
X5030548Y-11936881D01*
X5040071Y-11955928D01*
X5049595Y-11965452D01*
X5068643Y-11974976D01*
X5106738Y-11974976D01*
X5125786Y-11965452D01*
X5135310Y-11955928D01*
X5144833Y-11936881D01*
X5144833Y-11889262D01*
X5135310Y-11870214D01*
X5125786Y-11860690D01*
X5106738Y-11851167D01*
X5068643Y-11851167D01*
X5049595Y-11860690D01*
X5040071Y-11870214D01*
X5030548Y-11889262D01*
X5382929Y-11974976D02*
X5382929Y-11774976D01*
X5468643Y-11974976D02*
X5468643Y-11870214D01*
X5459119Y-11851167D01*
X5440071Y-11841643D01*
X5411500Y-11841643D01*
X5392452Y-11851167D01*
X5382929Y-11860690D01*
X5592452Y-11974976D02*
X5573405Y-11965452D01*
X5563881Y-11955928D01*
X5554357Y-11936881D01*
X5554357Y-11879738D01*
X5563881Y-11860690D01*
X5573405Y-11851167D01*
X5592452Y-11841643D01*
X5621024Y-11841643D01*
X5640071Y-11851167D01*
X5649595Y-11860690D01*
X5659119Y-11879738D01*
X5659119Y-11936881D01*
X5649595Y-11955928D01*
X5640071Y-11965452D01*
X5621024Y-11974976D01*
X5592452Y-11974976D01*
X5773405Y-11974976D02*
X5754357Y-11965452D01*
X5744833Y-11946405D01*
X5744833Y-11774976D01*
X5925786Y-11965452D02*
X5906738Y-11974976D01*
X5868643Y-11974976D01*
X5849595Y-11965452D01*
X5840071Y-11946405D01*
X5840071Y-11870214D01*
X5849595Y-11851167D01*
X5868643Y-11841643D01*
X5906738Y-11841643D01*
X5925786Y-11851167D01*
X5935309Y-11870214D01*
X5935309Y-11889262D01*
X5840071Y-11908309D01*
X6011500Y-11965452D02*
X6030548Y-11974976D01*
X6068643Y-11974976D01*
X6087690Y-11965452D01*
X6097214Y-11946405D01*
X6097214Y-11936881D01*
X6087690Y-11917833D01*
X6068643Y-11908309D01*
X6040071Y-11908309D01*
X6021024Y-11898786D01*
X6011500Y-11879738D01*
X6011500Y-11870214D01*
X6021024Y-11851167D01*
X6040071Y-11841643D01*
X6068643Y-11841643D01*
X6087690Y-11851167D01*
X6163881Y-12051167D02*
X6173405Y-12041643D01*
X6192452Y-12013071D01*
X6201976Y-11994024D01*
X6211500Y-11965452D01*
X6221024Y-11917833D01*
X6221024Y-11879738D01*
X6211500Y-11832119D01*
X6201976Y-11803548D01*
X6192452Y-11784500D01*
X6173405Y-11755928D01*
X6163881Y-11746405D01*
D13*
X1201500Y-12148500D02*
G75*
G03*
X1201500Y-12148500I-35000J0D01*
G01*
D11*
X1497214Y-12038976D02*
X1516262Y-12038976D01*
X1535309Y-12048500D01*
X1544833Y-12058024D01*
X1554357Y-12077071D01*
X1563881Y-12115167D01*
X1563881Y-12162786D01*
X1554357Y-12200881D01*
X1544833Y-12219928D01*
X1535309Y-12229452D01*
X1516262Y-12238976D01*
X1497214Y-12238976D01*
X1478167Y-12229452D01*
X1468643Y-12219928D01*
X1459119Y-12200881D01*
X1449595Y-12162786D01*
X1449595Y-12115167D01*
X1459119Y-12077071D01*
X1468643Y-12058024D01*
X1478167Y-12048500D01*
X1497214Y-12038976D01*
X1649595Y-12219928D02*
X1659119Y-12229452D01*
X1649595Y-12238976D01*
X1640071Y-12229452D01*
X1649595Y-12219928D01*
X1649595Y-12238976D01*
X1725786Y-12038976D02*
X1859119Y-12038976D01*
X1773405Y-12238976D01*
X1973405Y-12038976D02*
X1992452Y-12038976D01*
X2011500Y-12048500D01*
X2021024Y-12058024D01*
X2030548Y-12077071D01*
X2040071Y-12115167D01*
X2040071Y-12162786D01*
X2030548Y-12200881D01*
X2021024Y-12219928D01*
X2011500Y-12229452D01*
X1992452Y-12238976D01*
X1973405Y-12238976D01*
X1954357Y-12229452D01*
X1944833Y-12219928D01*
X1935309Y-12200881D01*
X1925786Y-12162786D01*
X1925786Y-12115167D01*
X1935309Y-12077071D01*
X1944833Y-12058024D01*
X1954357Y-12048500D01*
X1973405Y-12038976D01*
X2163881Y-12038976D02*
X2182929Y-12038976D01*
X2201976Y-12048500D01*
X2211500Y-12058024D01*
X2221024Y-12077071D01*
X2230548Y-12115167D01*
X2230548Y-12162786D01*
X2221024Y-12200881D01*
X2211500Y-12219928D01*
X2201976Y-12229452D01*
X2182929Y-12238976D01*
X2163881Y-12238976D01*
X2144833Y-12229452D01*
X2135310Y-12219928D01*
X2125786Y-12200881D01*
X2116262Y-12162786D01*
X2116262Y-12115167D01*
X2125786Y-12077071D01*
X2135310Y-12058024D01*
X2144833Y-12048500D01*
X2163881Y-12038976D01*
X2316262Y-12238976D02*
X2316262Y-12105643D01*
X2316262Y-12124690D02*
X2325786Y-12115167D01*
X2344833Y-12105643D01*
X2373405Y-12105643D01*
X2392452Y-12115167D01*
X2401976Y-12134214D01*
X2401976Y-12238976D01*
X2401976Y-12134214D02*
X2411500Y-12115167D01*
X2430548Y-12105643D01*
X2459119Y-12105643D01*
X2478167Y-12115167D01*
X2487690Y-12134214D01*
X2487690Y-12238976D01*
X2582929Y-12238976D02*
X2582929Y-12105643D01*
X2582929Y-12124690D02*
X2592452Y-12115167D01*
X2611500Y-12105643D01*
X2640071Y-12105643D01*
X2659119Y-12115167D01*
X2668643Y-12134214D01*
X2668643Y-12238976D01*
X2668643Y-12134214D02*
X2678167Y-12115167D01*
X2697214Y-12105643D01*
X2725786Y-12105643D01*
X2744833Y-12115167D01*
X2754357Y-12134214D01*
X2754357Y-12238976D01*
X3144833Y-12029452D02*
X2973405Y-12286595D01*
X3401976Y-12038976D02*
X3421024Y-12038976D01*
X3440071Y-12048500D01*
X3449595Y-12058024D01*
X3459119Y-12077071D01*
X3468643Y-12115167D01*
X3468643Y-12162786D01*
X3459119Y-12200881D01*
X3449595Y-12219928D01*
X3440071Y-12229452D01*
X3421024Y-12238976D01*
X3401976Y-12238976D01*
X3382928Y-12229452D01*
X3373405Y-12219928D01*
X3363881Y-12200881D01*
X3354357Y-12162786D01*
X3354357Y-12115167D01*
X3363881Y-12077071D01*
X3373405Y-12058024D01*
X3382928Y-12048500D01*
X3401976Y-12038976D01*
X3554357Y-12219928D02*
X3563881Y-12229452D01*
X3554357Y-12238976D01*
X3544833Y-12229452D01*
X3554357Y-12219928D01*
X3554357Y-12238976D01*
X3687690Y-12038976D02*
X3706738Y-12038976D01*
X3725786Y-12048500D01*
X3735309Y-12058024D01*
X3744833Y-12077071D01*
X3754357Y-12115167D01*
X3754357Y-12162786D01*
X3744833Y-12200881D01*
X3735309Y-12219928D01*
X3725786Y-12229452D01*
X3706738Y-12238976D01*
X3687690Y-12238976D01*
X3668643Y-12229452D01*
X3659119Y-12219928D01*
X3649595Y-12200881D01*
X3640071Y-12162786D01*
X3640071Y-12115167D01*
X3649595Y-12077071D01*
X3659119Y-12058024D01*
X3668643Y-12048500D01*
X3687690Y-12038976D01*
X3830548Y-12058024D02*
X3840071Y-12048500D01*
X3859119Y-12038976D01*
X3906738Y-12038976D01*
X3925786Y-12048500D01*
X3935309Y-12058024D01*
X3944833Y-12077071D01*
X3944833Y-12096119D01*
X3935309Y-12124690D01*
X3821024Y-12238976D01*
X3944833Y-12238976D01*
X4011500Y-12038976D02*
X4144833Y-12038976D01*
X4059119Y-12238976D01*
X4306738Y-12038976D02*
X4268643Y-12038976D01*
X4249595Y-12048500D01*
X4240071Y-12058024D01*
X4221024Y-12086595D01*
X4211500Y-12124690D01*
X4211500Y-12200881D01*
X4221024Y-12219928D01*
X4230548Y-12229452D01*
X4249595Y-12238976D01*
X4287690Y-12238976D01*
X4306738Y-12229452D01*
X4316262Y-12219928D01*
X4325786Y-12200881D01*
X4325786Y-12153262D01*
X4316262Y-12134214D01*
X4306738Y-12124690D01*
X4287690Y-12115167D01*
X4249595Y-12115167D01*
X4230548Y-12124690D01*
X4221024Y-12134214D01*
X4211500Y-12153262D01*
X4401976Y-12038976D02*
X4401976Y-12077071D01*
X4478167Y-12038976D02*
X4478167Y-12077071D01*
X4773405Y-12315167D02*
X4763881Y-12305643D01*
X4744833Y-12277071D01*
X4735310Y-12258024D01*
X4725786Y-12229452D01*
X4716262Y-12181833D01*
X4716262Y-12143738D01*
X4725786Y-12096119D01*
X4735310Y-12067548D01*
X4744833Y-12048500D01*
X4763881Y-12019928D01*
X4773405Y-12010405D01*
X4878167Y-12124690D02*
X4859119Y-12115167D01*
X4849595Y-12105643D01*
X4840071Y-12086595D01*
X4840071Y-12077071D01*
X4849595Y-12058024D01*
X4859119Y-12048500D01*
X4878167Y-12038976D01*
X4916262Y-12038976D01*
X4935310Y-12048500D01*
X4944833Y-12058024D01*
X4954357Y-12077071D01*
X4954357Y-12086595D01*
X4944833Y-12105643D01*
X4935310Y-12115167D01*
X4916262Y-12124690D01*
X4878167Y-12124690D01*
X4859119Y-12134214D01*
X4849595Y-12143738D01*
X4840071Y-12162786D01*
X4840071Y-12200881D01*
X4849595Y-12219928D01*
X4859119Y-12229452D01*
X4878167Y-12238976D01*
X4916262Y-12238976D01*
X4935310Y-12229452D01*
X4944833Y-12219928D01*
X4954357Y-12200881D01*
X4954357Y-12162786D01*
X4944833Y-12143738D01*
X4935310Y-12134214D01*
X4916262Y-12124690D01*
X5192452Y-12238976D02*
X5192452Y-12038976D01*
X5278167Y-12238976D02*
X5278167Y-12134214D01*
X5268643Y-12115167D01*
X5249595Y-12105643D01*
X5221024Y-12105643D01*
X5201976Y-12115167D01*
X5192452Y-12124690D01*
X5401976Y-12238976D02*
X5382929Y-12229452D01*
X5373405Y-12219928D01*
X5363881Y-12200881D01*
X5363881Y-12143738D01*
X5373405Y-12124690D01*
X5382929Y-12115167D01*
X5401976Y-12105643D01*
X5430548Y-12105643D01*
X5449595Y-12115167D01*
X5459119Y-12124690D01*
X5468643Y-12143738D01*
X5468643Y-12200881D01*
X5459119Y-12219928D01*
X5449595Y-12229452D01*
X5430548Y-12238976D01*
X5401976Y-12238976D01*
X5582929Y-12238976D02*
X5563881Y-12229452D01*
X5554357Y-12210405D01*
X5554357Y-12038976D01*
X5735309Y-12229452D02*
X5716262Y-12238976D01*
X5678167Y-12238976D01*
X5659119Y-12229452D01*
X5649595Y-12210405D01*
X5649595Y-12134214D01*
X5659119Y-12115167D01*
X5678167Y-12105643D01*
X5716262Y-12105643D01*
X5735309Y-12115167D01*
X5744833Y-12134214D01*
X5744833Y-12153262D01*
X5649595Y-12172309D01*
X5821024Y-12229452D02*
X5840071Y-12238976D01*
X5878167Y-12238976D01*
X5897214Y-12229452D01*
X5906738Y-12210405D01*
X5906738Y-12200881D01*
X5897214Y-12181833D01*
X5878167Y-12172309D01*
X5849595Y-12172309D01*
X5830548Y-12162786D01*
X5821024Y-12143738D01*
X5821024Y-12134214D01*
X5830548Y-12115167D01*
X5849595Y-12105643D01*
X5878167Y-12105643D01*
X5897214Y-12115167D01*
X5973405Y-12315167D02*
X5982928Y-12305643D01*
X6001976Y-12277071D01*
X6011500Y-12258024D01*
X6021024Y-12229452D01*
X6030548Y-12181833D01*
X6030548Y-12143738D01*
X6021024Y-12096119D01*
X6011500Y-12067548D01*
X6001976Y-12048500D01*
X5982928Y-12019928D01*
X5973405Y-12010405D01*
D14*
X1161500Y-12372500D02*
X1161500Y-12452500D01*
X1121500Y-12412500D02*
X1201500Y-12412500D01*
D11*
X1497214Y-12302976D02*
X1516262Y-12302976D01*
X1535309Y-12312500D01*
X1544833Y-12322024D01*
X1554357Y-12341071D01*
X1563881Y-12379167D01*
X1563881Y-12426786D01*
X1554357Y-12464881D01*
X1544833Y-12483928D01*
X1535309Y-12493452D01*
X1516262Y-12502976D01*
X1497214Y-12502976D01*
X1478167Y-12493452D01*
X1468643Y-12483928D01*
X1459119Y-12464881D01*
X1449595Y-12426786D01*
X1449595Y-12379167D01*
X1459119Y-12341071D01*
X1468643Y-12322024D01*
X1478167Y-12312500D01*
X1497214Y-12302976D01*
X1649595Y-12483928D02*
X1659119Y-12493452D01*
X1649595Y-12502976D01*
X1640071Y-12493452D01*
X1649595Y-12483928D01*
X1649595Y-12502976D01*
X1773405Y-12388690D02*
X1754357Y-12379167D01*
X1744833Y-12369643D01*
X1735309Y-12350595D01*
X1735309Y-12341071D01*
X1744833Y-12322024D01*
X1754357Y-12312500D01*
X1773405Y-12302976D01*
X1811500Y-12302976D01*
X1830548Y-12312500D01*
X1840071Y-12322024D01*
X1849595Y-12341071D01*
X1849595Y-12350595D01*
X1840071Y-12369643D01*
X1830548Y-12379167D01*
X1811500Y-12388690D01*
X1773405Y-12388690D01*
X1754357Y-12398214D01*
X1744833Y-12407738D01*
X1735309Y-12426786D01*
X1735309Y-12464881D01*
X1744833Y-12483928D01*
X1754357Y-12493452D01*
X1773405Y-12502976D01*
X1811500Y-12502976D01*
X1830548Y-12493452D01*
X1840071Y-12483928D01*
X1849595Y-12464881D01*
X1849595Y-12426786D01*
X1840071Y-12407738D01*
X1830548Y-12398214D01*
X1811500Y-12388690D01*
X1973405Y-12302976D02*
X1992452Y-12302976D01*
X2011500Y-12312500D01*
X2021024Y-12322024D01*
X2030548Y-12341071D01*
X2040071Y-12379167D01*
X2040071Y-12426786D01*
X2030548Y-12464881D01*
X2021024Y-12483928D01*
X2011500Y-12493452D01*
X1992452Y-12502976D01*
X1973405Y-12502976D01*
X1954357Y-12493452D01*
X1944833Y-12483928D01*
X1935309Y-12464881D01*
X1925786Y-12426786D01*
X1925786Y-12379167D01*
X1935309Y-12341071D01*
X1944833Y-12322024D01*
X1954357Y-12312500D01*
X1973405Y-12302976D01*
X2163881Y-12302976D02*
X2182929Y-12302976D01*
X2201976Y-12312500D01*
X2211500Y-12322024D01*
X2221024Y-12341071D01*
X2230548Y-12379167D01*
X2230548Y-12426786D01*
X2221024Y-12464881D01*
X2211500Y-12483928D01*
X2201976Y-12493452D01*
X2182929Y-12502976D01*
X2163881Y-12502976D01*
X2144833Y-12493452D01*
X2135310Y-12483928D01*
X2125786Y-12464881D01*
X2116262Y-12426786D01*
X2116262Y-12379167D01*
X2125786Y-12341071D01*
X2135310Y-12322024D01*
X2144833Y-12312500D01*
X2163881Y-12302976D01*
X2316262Y-12502976D02*
X2316262Y-12369643D01*
X2316262Y-12388690D02*
X2325786Y-12379167D01*
X2344833Y-12369643D01*
X2373405Y-12369643D01*
X2392452Y-12379167D01*
X2401976Y-12398214D01*
X2401976Y-12502976D01*
X2401976Y-12398214D02*
X2411500Y-12379167D01*
X2430548Y-12369643D01*
X2459119Y-12369643D01*
X2478167Y-12379167D01*
X2487690Y-12398214D01*
X2487690Y-12502976D01*
X2582929Y-12502976D02*
X2582929Y-12369643D01*
X2582929Y-12388690D02*
X2592452Y-12379167D01*
X2611500Y-12369643D01*
X2640071Y-12369643D01*
X2659119Y-12379167D01*
X2668643Y-12398214D01*
X2668643Y-12502976D01*
X2668643Y-12398214D02*
X2678167Y-12379167D01*
X2697214Y-12369643D01*
X2725786Y-12369643D01*
X2744833Y-12379167D01*
X2754357Y-12398214D01*
X2754357Y-12502976D01*
X3144833Y-12293452D02*
X2973405Y-12550595D01*
X3401976Y-12302976D02*
X3421024Y-12302976D01*
X3440071Y-12312500D01*
X3449595Y-12322024D01*
X3459119Y-12341071D01*
X3468643Y-12379167D01*
X3468643Y-12426786D01*
X3459119Y-12464881D01*
X3449595Y-12483928D01*
X3440071Y-12493452D01*
X3421024Y-12502976D01*
X3401976Y-12502976D01*
X3382928Y-12493452D01*
X3373405Y-12483928D01*
X3363881Y-12464881D01*
X3354357Y-12426786D01*
X3354357Y-12379167D01*
X3363881Y-12341071D01*
X3373405Y-12322024D01*
X3382928Y-12312500D01*
X3401976Y-12302976D01*
X3554357Y-12483928D02*
X3563881Y-12493452D01*
X3554357Y-12502976D01*
X3544833Y-12493452D01*
X3554357Y-12483928D01*
X3554357Y-12502976D01*
X3687690Y-12302976D02*
X3706738Y-12302976D01*
X3725786Y-12312500D01*
X3735309Y-12322024D01*
X3744833Y-12341071D01*
X3754357Y-12379167D01*
X3754357Y-12426786D01*
X3744833Y-12464881D01*
X3735309Y-12483928D01*
X3725786Y-12493452D01*
X3706738Y-12502976D01*
X3687690Y-12502976D01*
X3668643Y-12493452D01*
X3659119Y-12483928D01*
X3649595Y-12464881D01*
X3640071Y-12426786D01*
X3640071Y-12379167D01*
X3649595Y-12341071D01*
X3659119Y-12322024D01*
X3668643Y-12312500D01*
X3687690Y-12302976D01*
X3821024Y-12302976D02*
X3944833Y-12302976D01*
X3878167Y-12379167D01*
X3906738Y-12379167D01*
X3925786Y-12388690D01*
X3935309Y-12398214D01*
X3944833Y-12417262D01*
X3944833Y-12464881D01*
X3935309Y-12483928D01*
X3925786Y-12493452D01*
X3906738Y-12502976D01*
X3849595Y-12502976D01*
X3830548Y-12493452D01*
X3821024Y-12483928D01*
X4135309Y-12502976D02*
X4021024Y-12502976D01*
X4078167Y-12502976D02*
X4078167Y-12302976D01*
X4059119Y-12331548D01*
X4040071Y-12350595D01*
X4021024Y-12360119D01*
X4316262Y-12302976D02*
X4221024Y-12302976D01*
X4211500Y-12398214D01*
X4221024Y-12388690D01*
X4240071Y-12379167D01*
X4287690Y-12379167D01*
X4306738Y-12388690D01*
X4316262Y-12398214D01*
X4325786Y-12417262D01*
X4325786Y-12464881D01*
X4316262Y-12483928D01*
X4306738Y-12493452D01*
X4287690Y-12502976D01*
X4240071Y-12502976D01*
X4221024Y-12493452D01*
X4211500Y-12483928D01*
X4401976Y-12302976D02*
X4401976Y-12341071D01*
X4478167Y-12302976D02*
X4478167Y-12341071D01*
X4773405Y-12579167D02*
X4763881Y-12569643D01*
X4744833Y-12541071D01*
X4735310Y-12522024D01*
X4725786Y-12493452D01*
X4716262Y-12445833D01*
X4716262Y-12407738D01*
X4725786Y-12360119D01*
X4735310Y-12331548D01*
X4744833Y-12312500D01*
X4763881Y-12283928D01*
X4773405Y-12274405D01*
X4840071Y-12322024D02*
X4849595Y-12312500D01*
X4868643Y-12302976D01*
X4916262Y-12302976D01*
X4935310Y-12312500D01*
X4944833Y-12322024D01*
X4954357Y-12341071D01*
X4954357Y-12360119D01*
X4944833Y-12388690D01*
X4830548Y-12502976D01*
X4954357Y-12502976D01*
X5135310Y-12302976D02*
X5040071Y-12302976D01*
X5030548Y-12398214D01*
X5040071Y-12388690D01*
X5059119Y-12379167D01*
X5106738Y-12379167D01*
X5125786Y-12388690D01*
X5135310Y-12398214D01*
X5144833Y-12417262D01*
X5144833Y-12464881D01*
X5135310Y-12483928D01*
X5125786Y-12493452D01*
X5106738Y-12502976D01*
X5059119Y-12502976D01*
X5040071Y-12493452D01*
X5030548Y-12483928D01*
X5221024Y-12322024D02*
X5230548Y-12312500D01*
X5249595Y-12302976D01*
X5297214Y-12302976D01*
X5316262Y-12312500D01*
X5325786Y-12322024D01*
X5335310Y-12341071D01*
X5335310Y-12360119D01*
X5325786Y-12388690D01*
X5211500Y-12502976D01*
X5335310Y-12502976D01*
X5573405Y-12502976D02*
X5573405Y-12302976D01*
X5659119Y-12502976D02*
X5659119Y-12398214D01*
X5649595Y-12379167D01*
X5630548Y-12369643D01*
X5601976Y-12369643D01*
X5582929Y-12379167D01*
X5573405Y-12388690D01*
X5782928Y-12502976D02*
X5763881Y-12493452D01*
X5754357Y-12483928D01*
X5744833Y-12464881D01*
X5744833Y-12407738D01*
X5754357Y-12388690D01*
X5763881Y-12379167D01*
X5782928Y-12369643D01*
X5811500Y-12369643D01*
X5830548Y-12379167D01*
X5840071Y-12388690D01*
X5849595Y-12407738D01*
X5849595Y-12464881D01*
X5840071Y-12483928D01*
X5830548Y-12493452D01*
X5811500Y-12502976D01*
X5782928Y-12502976D01*
X5963881Y-12502976D02*
X5944833Y-12493452D01*
X5935309Y-12474405D01*
X5935309Y-12302976D01*
X6116262Y-12493452D02*
X6097214Y-12502976D01*
X6059119Y-12502976D01*
X6040071Y-12493452D01*
X6030548Y-12474405D01*
X6030548Y-12398214D01*
X6040071Y-12379167D01*
X6059119Y-12369643D01*
X6097214Y-12369643D01*
X6116262Y-12379167D01*
X6125786Y-12398214D01*
X6125786Y-12417262D01*
X6030548Y-12436309D01*
X6201976Y-12493452D02*
X6221024Y-12502976D01*
X6259119Y-12502976D01*
X6278167Y-12493452D01*
X6287690Y-12474405D01*
X6287690Y-12464881D01*
X6278167Y-12445833D01*
X6259119Y-12436309D01*
X6230548Y-12436309D01*
X6211500Y-12426786D01*
X6201976Y-12407738D01*
X6201976Y-12398214D01*
X6211500Y-12379167D01*
X6230548Y-12369643D01*
X6259119Y-12369643D01*
X6278167Y-12379167D01*
X6354357Y-12579167D02*
X6363881Y-12569643D01*
X6382928Y-12541071D01*
X6392452Y-12522024D01*
X6401976Y-12493452D01*
X6411500Y-12445833D01*
X6411500Y-12407738D01*
X6401976Y-12360119D01*
X6392452Y-12331548D01*
X6382928Y-12312500D01*
X6363881Y-12283928D01*
X6354357Y-12274405D01*
D15*
X1186856Y-12711856D02*
X1186856Y-12641144D01*
X1116144Y-12641144D01*
X1116144Y-12711856D01*
X1186856Y-12711856D01*
D11*
X1563881Y-12766976D02*
X1449595Y-12766976D01*
X1506738Y-12766976D02*
X1506738Y-12566976D01*
X1487690Y-12595548D01*
X1468643Y-12614595D01*
X1449595Y-12624119D01*
X1649595Y-12747928D02*
X1659119Y-12757452D01*
X1649595Y-12766976D01*
X1640071Y-12757452D01*
X1649595Y-12747928D01*
X1649595Y-12766976D01*
X1782928Y-12566976D02*
X1801976Y-12566976D01*
X1821024Y-12576500D01*
X1830548Y-12586024D01*
X1840071Y-12605071D01*
X1849595Y-12643167D01*
X1849595Y-12690786D01*
X1840071Y-12728881D01*
X1830548Y-12747928D01*
X1821024Y-12757452D01*
X1801976Y-12766976D01*
X1782928Y-12766976D01*
X1763881Y-12757452D01*
X1754357Y-12747928D01*
X1744833Y-12728881D01*
X1735309Y-12690786D01*
X1735309Y-12643167D01*
X1744833Y-12605071D01*
X1754357Y-12586024D01*
X1763881Y-12576500D01*
X1782928Y-12566976D01*
X1973405Y-12566976D02*
X1992452Y-12566976D01*
X2011500Y-12576500D01*
X2021024Y-12586024D01*
X2030548Y-12605071D01*
X2040071Y-12643167D01*
X2040071Y-12690786D01*
X2030548Y-12728881D01*
X2021024Y-12747928D01*
X2011500Y-12757452D01*
X1992452Y-12766976D01*
X1973405Y-12766976D01*
X1954357Y-12757452D01*
X1944833Y-12747928D01*
X1935309Y-12728881D01*
X1925786Y-12690786D01*
X1925786Y-12643167D01*
X1935309Y-12605071D01*
X1944833Y-12586024D01*
X1954357Y-12576500D01*
X1973405Y-12566976D01*
X2163881Y-12566976D02*
X2182929Y-12566976D01*
X2201976Y-12576500D01*
X2211500Y-12586024D01*
X2221024Y-12605071D01*
X2230548Y-12643167D01*
X2230548Y-12690786D01*
X2221024Y-12728881D01*
X2211500Y-12747928D01*
X2201976Y-12757452D01*
X2182929Y-12766976D01*
X2163881Y-12766976D01*
X2144833Y-12757452D01*
X2135310Y-12747928D01*
X2125786Y-12728881D01*
X2116262Y-12690786D01*
X2116262Y-12643167D01*
X2125786Y-12605071D01*
X2135310Y-12586024D01*
X2144833Y-12576500D01*
X2163881Y-12566976D01*
X2316262Y-12766976D02*
X2316262Y-12633643D01*
X2316262Y-12652690D02*
X2325786Y-12643167D01*
X2344833Y-12633643D01*
X2373405Y-12633643D01*
X2392452Y-12643167D01*
X2401976Y-12662214D01*
X2401976Y-12766976D01*
X2401976Y-12662214D02*
X2411500Y-12643167D01*
X2430548Y-12633643D01*
X2459119Y-12633643D01*
X2478167Y-12643167D01*
X2487690Y-12662214D01*
X2487690Y-12766976D01*
X2582929Y-12766976D02*
X2582929Y-12633643D01*
X2582929Y-12652690D02*
X2592452Y-12643167D01*
X2611500Y-12633643D01*
X2640071Y-12633643D01*
X2659119Y-12643167D01*
X2668643Y-12662214D01*
X2668643Y-12766976D01*
X2668643Y-12662214D02*
X2678167Y-12643167D01*
X2697214Y-12633643D01*
X2725786Y-12633643D01*
X2744833Y-12643167D01*
X2754357Y-12662214D01*
X2754357Y-12766976D01*
X3144833Y-12557452D02*
X2973405Y-12814595D01*
X3401976Y-12566976D02*
X3421024Y-12566976D01*
X3440071Y-12576500D01*
X3449595Y-12586024D01*
X3459119Y-12605071D01*
X3468643Y-12643167D01*
X3468643Y-12690786D01*
X3459119Y-12728881D01*
X3449595Y-12747928D01*
X3440071Y-12757452D01*
X3421024Y-12766976D01*
X3401976Y-12766976D01*
X3382928Y-12757452D01*
X3373405Y-12747928D01*
X3363881Y-12728881D01*
X3354357Y-12690786D01*
X3354357Y-12643167D01*
X3363881Y-12605071D01*
X3373405Y-12586024D01*
X3382928Y-12576500D01*
X3401976Y-12566976D01*
X3554357Y-12747928D02*
X3563881Y-12757452D01*
X3554357Y-12766976D01*
X3544833Y-12757452D01*
X3554357Y-12747928D01*
X3554357Y-12766976D01*
X3687690Y-12566976D02*
X3706738Y-12566976D01*
X3725786Y-12576500D01*
X3735309Y-12586024D01*
X3744833Y-12605071D01*
X3754357Y-12643167D01*
X3754357Y-12690786D01*
X3744833Y-12728881D01*
X3735309Y-12747928D01*
X3725786Y-12757452D01*
X3706738Y-12766976D01*
X3687690Y-12766976D01*
X3668643Y-12757452D01*
X3659119Y-12747928D01*
X3649595Y-12728881D01*
X3640071Y-12690786D01*
X3640071Y-12643167D01*
X3649595Y-12605071D01*
X3659119Y-12586024D01*
X3668643Y-12576500D01*
X3687690Y-12566976D01*
X3821024Y-12566976D02*
X3944833Y-12566976D01*
X3878167Y-12643167D01*
X3906738Y-12643167D01*
X3925786Y-12652690D01*
X3935309Y-12662214D01*
X3944833Y-12681262D01*
X3944833Y-12728881D01*
X3935309Y-12747928D01*
X3925786Y-12757452D01*
X3906738Y-12766976D01*
X3849595Y-12766976D01*
X3830548Y-12757452D01*
X3821024Y-12747928D01*
X4040071Y-12766976D02*
X4078167Y-12766976D01*
X4097214Y-12757452D01*
X4106738Y-12747928D01*
X4125786Y-12719357D01*
X4135309Y-12681262D01*
X4135309Y-12605071D01*
X4125786Y-12586024D01*
X4116262Y-12576500D01*
X4097214Y-12566976D01*
X4059119Y-12566976D01*
X4040071Y-12576500D01*
X4030548Y-12586024D01*
X4021024Y-12605071D01*
X4021024Y-12652690D01*
X4030548Y-12671738D01*
X4040071Y-12681262D01*
X4059119Y-12690786D01*
X4097214Y-12690786D01*
X4116262Y-12681262D01*
X4125786Y-12671738D01*
X4135309Y-12652690D01*
X4306738Y-12633643D02*
X4306738Y-12766976D01*
X4259119Y-12557452D02*
X4211500Y-12700309D01*
X4335310Y-12700309D01*
X4401976Y-12566976D02*
X4401976Y-12605071D01*
X4478167Y-12566976D02*
X4478167Y-12605071D01*
X4773405Y-12843167D02*
X4763881Y-12833643D01*
X4744833Y-12805071D01*
X4735310Y-12786024D01*
X4725786Y-12757452D01*
X4716262Y-12709833D01*
X4716262Y-12671738D01*
X4725786Y-12624119D01*
X4735310Y-12595548D01*
X4744833Y-12576500D01*
X4763881Y-12547928D01*
X4773405Y-12538405D01*
X4840071Y-12586024D02*
X4849595Y-12576500D01*
X4868643Y-12566976D01*
X4916262Y-12566976D01*
X4935310Y-12576500D01*
X4944833Y-12586024D01*
X4954357Y-12605071D01*
X4954357Y-12624119D01*
X4944833Y-12652690D01*
X4830548Y-12766976D01*
X4954357Y-12766976D01*
X5049595Y-12766976D02*
X5087690Y-12766976D01*
X5106738Y-12757452D01*
X5116262Y-12747928D01*
X5135310Y-12719357D01*
X5144833Y-12681262D01*
X5144833Y-12605071D01*
X5135310Y-12586024D01*
X5125786Y-12576500D01*
X5106738Y-12566976D01*
X5068643Y-12566976D01*
X5049595Y-12576500D01*
X5040071Y-12586024D01*
X5030548Y-12605071D01*
X5030548Y-12652690D01*
X5040071Y-12671738D01*
X5049595Y-12681262D01*
X5068643Y-12690786D01*
X5106738Y-12690786D01*
X5125786Y-12681262D01*
X5135310Y-12671738D01*
X5144833Y-12652690D01*
X5325786Y-12566976D02*
X5230548Y-12566976D01*
X5221024Y-12662214D01*
X5230548Y-12652690D01*
X5249595Y-12643167D01*
X5297214Y-12643167D01*
X5316262Y-12652690D01*
X5325786Y-12662214D01*
X5335310Y-12681262D01*
X5335310Y-12728881D01*
X5325786Y-12747928D01*
X5316262Y-12757452D01*
X5297214Y-12766976D01*
X5249595Y-12766976D01*
X5230548Y-12757452D01*
X5221024Y-12747928D01*
X5573405Y-12766976D02*
X5573405Y-12566976D01*
X5659119Y-12766976D02*
X5659119Y-12662214D01*
X5649595Y-12643167D01*
X5630548Y-12633643D01*
X5601976Y-12633643D01*
X5582929Y-12643167D01*
X5573405Y-12652690D01*
X5782928Y-12766976D02*
X5763881Y-12757452D01*
X5754357Y-12747928D01*
X5744833Y-12728881D01*
X5744833Y-12671738D01*
X5754357Y-12652690D01*
X5763881Y-12643167D01*
X5782928Y-12633643D01*
X5811500Y-12633643D01*
X5830548Y-12643167D01*
X5840071Y-12652690D01*
X5849595Y-12671738D01*
X5849595Y-12728881D01*
X5840071Y-12747928D01*
X5830548Y-12757452D01*
X5811500Y-12766976D01*
X5782928Y-12766976D01*
X5963881Y-12766976D02*
X5944833Y-12757452D01*
X5935309Y-12738405D01*
X5935309Y-12566976D01*
X6116262Y-12757452D02*
X6097214Y-12766976D01*
X6059119Y-12766976D01*
X6040071Y-12757452D01*
X6030548Y-12738405D01*
X6030548Y-12662214D01*
X6040071Y-12643167D01*
X6059119Y-12633643D01*
X6097214Y-12633643D01*
X6116262Y-12643167D01*
X6125786Y-12662214D01*
X6125786Y-12681262D01*
X6030548Y-12700309D01*
X6201976Y-12757452D02*
X6221024Y-12766976D01*
X6259119Y-12766976D01*
X6278167Y-12757452D01*
X6287690Y-12738405D01*
X6287690Y-12728881D01*
X6278167Y-12709833D01*
X6259119Y-12700309D01*
X6230548Y-12700309D01*
X6211500Y-12690786D01*
X6201976Y-12671738D01*
X6201976Y-12662214D01*
X6211500Y-12643167D01*
X6230548Y-12633643D01*
X6259119Y-12633643D01*
X6278167Y-12643167D01*
X6354357Y-12843167D02*
X6363881Y-12833643D01*
X6382928Y-12805071D01*
X6392452Y-12786024D01*
X6401976Y-12757452D01*
X6411500Y-12709833D01*
X6411500Y-12671738D01*
X6401976Y-12624119D01*
X6392452Y-12595548D01*
X6382928Y-12576500D01*
X6363881Y-12547928D01*
X6354357Y-12538405D01*
X1101500Y-13040500D02*
X1201500Y-12940500D01*
X1101500Y-12840500D01*
X1001500Y-12940500D01*
X1101500Y-13040500D01*
X1440071Y-12830976D02*
X1563881Y-12830976D01*
X1497214Y-12907167D01*
X1525786Y-12907167D01*
X1544833Y-12916690D01*
X1554357Y-12926214D01*
X1563881Y-12945262D01*
X1563881Y-12992881D01*
X1554357Y-13011928D01*
X1544833Y-13021452D01*
X1525786Y-13030976D01*
X1468643Y-13030976D01*
X1449595Y-13021452D01*
X1440071Y-13011928D01*
X1649595Y-13011928D02*
X1659119Y-13021452D01*
X1649595Y-13030976D01*
X1640071Y-13021452D01*
X1649595Y-13011928D01*
X1649595Y-13030976D01*
X1735309Y-12850024D02*
X1744833Y-12840500D01*
X1763881Y-12830976D01*
X1811500Y-12830976D01*
X1830548Y-12840500D01*
X1840071Y-12850024D01*
X1849595Y-12869071D01*
X1849595Y-12888119D01*
X1840071Y-12916690D01*
X1725786Y-13030976D01*
X1849595Y-13030976D01*
X1973405Y-12830976D02*
X1992452Y-12830976D01*
X2011500Y-12840500D01*
X2021024Y-12850024D01*
X2030548Y-12869071D01*
X2040071Y-12907167D01*
X2040071Y-12954786D01*
X2030548Y-12992881D01*
X2021024Y-13011928D01*
X2011500Y-13021452D01*
X1992452Y-13030976D01*
X1973405Y-13030976D01*
X1954357Y-13021452D01*
X1944833Y-13011928D01*
X1935309Y-12992881D01*
X1925786Y-12954786D01*
X1925786Y-12907167D01*
X1935309Y-12869071D01*
X1944833Y-12850024D01*
X1954357Y-12840500D01*
X1973405Y-12830976D01*
X2163881Y-12830976D02*
X2182929Y-12830976D01*
X2201976Y-12840500D01*
X2211500Y-12850024D01*
X2221024Y-12869071D01*
X2230548Y-12907167D01*
X2230548Y-12954786D01*
X2221024Y-12992881D01*
X2211500Y-13011928D01*
X2201976Y-13021452D01*
X2182929Y-13030976D01*
X2163881Y-13030976D01*
X2144833Y-13021452D01*
X2135310Y-13011928D01*
X2125786Y-12992881D01*
X2116262Y-12954786D01*
X2116262Y-12907167D01*
X2125786Y-12869071D01*
X2135310Y-12850024D01*
X2144833Y-12840500D01*
X2163881Y-12830976D01*
X2316262Y-13030976D02*
X2316262Y-12897643D01*
X2316262Y-12916690D02*
X2325786Y-12907167D01*
X2344833Y-12897643D01*
X2373405Y-12897643D01*
X2392452Y-12907167D01*
X2401976Y-12926214D01*
X2401976Y-13030976D01*
X2401976Y-12926214D02*
X2411500Y-12907167D01*
X2430548Y-12897643D01*
X2459119Y-12897643D01*
X2478167Y-12907167D01*
X2487690Y-12926214D01*
X2487690Y-13030976D01*
X2582929Y-13030976D02*
X2582929Y-12897643D01*
X2582929Y-12916690D02*
X2592452Y-12907167D01*
X2611500Y-12897643D01*
X2640071Y-12897643D01*
X2659119Y-12907167D01*
X2668643Y-12926214D01*
X2668643Y-13030976D01*
X2668643Y-12926214D02*
X2678167Y-12907167D01*
X2697214Y-12897643D01*
X2725786Y-12897643D01*
X2744833Y-12907167D01*
X2754357Y-12926214D01*
X2754357Y-13030976D01*
X3144833Y-12821452D02*
X2973405Y-13078595D01*
X3401976Y-12830976D02*
X3421024Y-12830976D01*
X3440071Y-12840500D01*
X3449595Y-12850024D01*
X3459119Y-12869071D01*
X3468643Y-12907167D01*
X3468643Y-12954786D01*
X3459119Y-12992881D01*
X3449595Y-13011928D01*
X3440071Y-13021452D01*
X3421024Y-13030976D01*
X3401976Y-13030976D01*
X3382928Y-13021452D01*
X3373405Y-13011928D01*
X3363881Y-12992881D01*
X3354357Y-12954786D01*
X3354357Y-12907167D01*
X3363881Y-12869071D01*
X3373405Y-12850024D01*
X3382928Y-12840500D01*
X3401976Y-12830976D01*
X3554357Y-13011928D02*
X3563881Y-13021452D01*
X3554357Y-13030976D01*
X3544833Y-13021452D01*
X3554357Y-13011928D01*
X3554357Y-13030976D01*
X3754357Y-13030976D02*
X3640071Y-13030976D01*
X3697214Y-13030976D02*
X3697214Y-12830976D01*
X3678167Y-12859548D01*
X3659119Y-12878595D01*
X3640071Y-12888119D01*
X3830548Y-12850024D02*
X3840071Y-12840500D01*
X3859119Y-12830976D01*
X3906738Y-12830976D01*
X3925786Y-12840500D01*
X3935309Y-12850024D01*
X3944833Y-12869071D01*
X3944833Y-12888119D01*
X3935309Y-12916690D01*
X3821024Y-13030976D01*
X3944833Y-13030976D01*
X4116262Y-12830976D02*
X4078167Y-12830976D01*
X4059119Y-12840500D01*
X4049595Y-12850024D01*
X4030548Y-12878595D01*
X4021024Y-12916690D01*
X4021024Y-12992881D01*
X4030548Y-13011928D01*
X4040071Y-13021452D01*
X4059119Y-13030976D01*
X4097214Y-13030976D01*
X4116262Y-13021452D01*
X4125786Y-13011928D01*
X4135309Y-12992881D01*
X4135309Y-12945262D01*
X4125786Y-12926214D01*
X4116262Y-12916690D01*
X4097214Y-12907167D01*
X4059119Y-12907167D01*
X4040071Y-12916690D01*
X4030548Y-12926214D01*
X4021024Y-12945262D01*
X4259119Y-12830976D02*
X4278167Y-12830976D01*
X4297214Y-12840500D01*
X4306738Y-12850024D01*
X4316262Y-12869071D01*
X4325786Y-12907167D01*
X4325786Y-12954786D01*
X4316262Y-12992881D01*
X4306738Y-13011928D01*
X4297214Y-13021452D01*
X4278167Y-13030976D01*
X4259119Y-13030976D01*
X4240071Y-13021452D01*
X4230548Y-13011928D01*
X4221024Y-12992881D01*
X4211500Y-12954786D01*
X4211500Y-12907167D01*
X4221024Y-12869071D01*
X4230548Y-12850024D01*
X4240071Y-12840500D01*
X4259119Y-12830976D01*
X4401976Y-12830976D02*
X4401976Y-12869071D01*
X4478167Y-12830976D02*
X4478167Y-12869071D01*
X4773405Y-13107167D02*
X4763881Y-13097643D01*
X4744833Y-13069071D01*
X4735310Y-13050024D01*
X4725786Y-13021452D01*
X4716262Y-12973833D01*
X4716262Y-12935738D01*
X4725786Y-12888119D01*
X4735310Y-12859548D01*
X4744833Y-12840500D01*
X4763881Y-12811928D01*
X4773405Y-12802405D01*
X4840071Y-12850024D02*
X4849595Y-12840500D01*
X4868643Y-12830976D01*
X4916262Y-12830976D01*
X4935310Y-12840500D01*
X4944833Y-12850024D01*
X4954357Y-12869071D01*
X4954357Y-12888119D01*
X4944833Y-12916690D01*
X4830548Y-13030976D01*
X4954357Y-13030976D01*
X5192452Y-13030976D02*
X5192452Y-12830976D01*
X5278167Y-13030976D02*
X5278167Y-12926214D01*
X5268643Y-12907167D01*
X5249595Y-12897643D01*
X5221024Y-12897643D01*
X5201976Y-12907167D01*
X5192452Y-12916690D01*
X5401976Y-13030976D02*
X5382929Y-13021452D01*
X5373405Y-13011928D01*
X5363881Y-12992881D01*
X5363881Y-12935738D01*
X5373405Y-12916690D01*
X5382929Y-12907167D01*
X5401976Y-12897643D01*
X5430548Y-12897643D01*
X5449595Y-12907167D01*
X5459119Y-12916690D01*
X5468643Y-12935738D01*
X5468643Y-12992881D01*
X5459119Y-13011928D01*
X5449595Y-13021452D01*
X5430548Y-13030976D01*
X5401976Y-13030976D01*
X5582929Y-13030976D02*
X5563881Y-13021452D01*
X5554357Y-13002405D01*
X5554357Y-12830976D01*
X5735309Y-13021452D02*
X5716262Y-13030976D01*
X5678167Y-13030976D01*
X5659119Y-13021452D01*
X5649595Y-13002405D01*
X5649595Y-12926214D01*
X5659119Y-12907167D01*
X5678167Y-12897643D01*
X5716262Y-12897643D01*
X5735309Y-12907167D01*
X5744833Y-12926214D01*
X5744833Y-12945262D01*
X5649595Y-12964309D01*
X5821024Y-13021452D02*
X5840071Y-13030976D01*
X5878167Y-13030976D01*
X5897214Y-13021452D01*
X5906738Y-13002405D01*
X5906738Y-12992881D01*
X5897214Y-12973833D01*
X5878167Y-12964309D01*
X5849595Y-12964309D01*
X5830548Y-12954786D01*
X5821024Y-12935738D01*
X5821024Y-12926214D01*
X5830548Y-12907167D01*
X5849595Y-12897643D01*
X5878167Y-12897643D01*
X5897214Y-12907167D01*
X5973405Y-13107167D02*
X5982928Y-13097643D01*
X6001976Y-13069071D01*
X6011500Y-13050024D01*
X6021024Y-13021452D01*
X6030548Y-12973833D01*
X6030548Y-12935738D01*
X6021024Y-12888119D01*
X6011500Y-12859548D01*
X6001976Y-12840500D01*
X5982928Y-12811928D01*
X5973405Y-12802405D01*
M02*
