%FSLAX45Y45*%
G04 Gerber Fmt 4.5, Leading zero omitted, Abs format (unit mm)*
G04 Created by KiCad (PCBNEW (6.0.1)) date 2023-05-10 10:21:06*
%MOMM*%
%LPD*%
G01*
G04 APERTURE LIST*
%TA.AperFunction,Profile*%
%ADD10C,0.100000*%
%TD*%
%ADD11C,0.200000*%
%ADD12C,0.040000*%
%ADD13C,0.070000*%
%ADD14C,0.080000*%
%ADD15C,0.090000*%
%ADD16C,0.095000*%
%ADD17C,0.100000*%
%ADD18C,0.230000*%
G04 APERTURE END LIST*
D10*
X1651000Y-11430000D02*
X1651000Y-1397000D01*
X11684000Y-1397000D02*
X11684000Y-11430000D01*
X1651000Y-1397000D02*
X11684000Y-1397000D01*
X11684000Y-11430000D02*
X1651000Y-11430000D01*
D11*
D12*
X4043220Y-5517840D02*
X4083220Y-5557840D01*
X4083220Y-5517840D02*
X4043220Y-5557840D01*
X4150300Y-7730720D02*
X4190300Y-7770720D01*
X4190300Y-7730720D02*
X4150300Y-7770720D01*
X5109720Y-7611540D02*
X5149720Y-7651540D01*
X5149720Y-7611540D02*
X5109720Y-7651540D01*
X5549440Y-6133100D02*
X5589440Y-6173100D01*
X5589440Y-6133100D02*
X5549440Y-6173100D01*
X5688090Y-7537500D02*
X5728090Y-7577500D01*
X5728090Y-7537500D02*
X5688090Y-7577500D01*
X5858270Y-4743500D02*
X5898270Y-4783500D01*
X5898270Y-4743500D02*
X5858270Y-4783500D01*
X6088490Y-8599010D02*
X6128490Y-8639010D01*
X6128490Y-8599010D02*
X6088490Y-8639010D01*
X6200880Y-8168090D02*
X6240880Y-8208090D01*
X6240880Y-8168090D02*
X6200880Y-8208090D01*
X6407520Y-2986170D02*
X6447520Y-3026170D01*
X6447520Y-2986170D02*
X6407520Y-3026170D01*
X6408010Y-3195990D02*
X6448010Y-3235990D01*
X6448010Y-3195990D02*
X6408010Y-3235990D01*
X6415100Y-7930270D02*
X6455100Y-7970270D01*
X6455100Y-7930270D02*
X6415100Y-7970270D01*
X6547550Y-2941160D02*
X6587550Y-2981160D01*
X6587550Y-2941160D02*
X6547550Y-2981160D01*
X6819660Y-9441090D02*
X6859660Y-9481090D01*
X6859660Y-9441090D02*
X6819660Y-9481090D01*
X7065750Y-6133420D02*
X7105750Y-6173420D01*
X7105750Y-6133420D02*
X7065750Y-6173420D01*
X7115490Y-6039260D02*
X7155490Y-6079260D01*
X7155490Y-6039260D02*
X7115490Y-6079260D01*
X7186900Y-3657390D02*
X7226900Y-3697390D01*
X7226900Y-3657390D02*
X7186900Y-3697390D01*
X7234010Y-6876550D02*
X7274010Y-6916550D01*
X7274010Y-6876550D02*
X7234010Y-6916550D01*
X7308720Y-6662980D02*
X7348720Y-6702980D01*
X7348720Y-6662980D02*
X7308720Y-6702980D01*
X7608630Y-8804230D02*
X7648630Y-8844230D01*
X7648630Y-8804230D02*
X7608630Y-8844230D01*
X7732960Y-9064850D02*
X7772960Y-9104850D01*
X7772960Y-9064850D02*
X7732960Y-9104850D01*
X7852270Y-3167130D02*
X7892270Y-3207130D01*
X7892270Y-3167130D02*
X7852270Y-3207130D01*
X7852270Y-6727780D02*
X7892270Y-6767780D01*
X7892270Y-6727780D02*
X7852270Y-6767780D01*
X7925120Y-3982000D02*
X7965120Y-4022000D01*
X7965120Y-3982000D02*
X7925120Y-4022000D01*
X7946890Y-8898740D02*
X7986890Y-8938740D01*
X7986890Y-8898740D02*
X7946890Y-8938740D01*
X8000890Y-2837500D02*
X8040890Y-2877500D01*
X8040890Y-2837500D02*
X8000890Y-2877500D01*
X8020670Y-8973510D02*
X8060670Y-9013510D01*
X8060670Y-8973510D02*
X8020670Y-9013510D01*
X8036780Y-4290810D02*
X8076780Y-4330810D01*
X8076780Y-4290810D02*
X8036780Y-4330810D01*
X8093690Y-3091500D02*
X8133690Y-3131500D01*
X8133690Y-3091500D02*
X8093690Y-3131500D01*
X8198720Y-5260100D02*
X8238720Y-5300100D01*
X8238720Y-5260100D02*
X8198720Y-5300100D01*
X8205340Y-4289540D02*
X8245340Y-4329540D01*
X8245340Y-4289540D02*
X8205340Y-4329540D01*
X8206610Y-4173570D02*
X8246610Y-4213570D01*
X8246610Y-4173570D02*
X8206610Y-4213570D01*
X8214610Y-1926860D02*
X8254610Y-1966860D01*
X8254610Y-1926860D02*
X8214610Y-1966860D01*
X8304620Y-4626760D02*
X8344620Y-4666760D01*
X8344620Y-4626760D02*
X8304620Y-4666760D01*
X8373890Y-6060910D02*
X8413890Y-6100910D01*
X8413890Y-6060910D02*
X8373890Y-6100910D01*
X8447310Y-6523120D02*
X8487310Y-6563120D01*
X8487310Y-6523120D02*
X8447310Y-6563120D01*
X8687900Y-6596540D02*
X8727900Y-6636540D01*
X8727900Y-6596540D02*
X8687900Y-6636540D01*
X8774210Y-4101060D02*
X8814210Y-4141060D01*
X8814210Y-4101060D02*
X8774210Y-4141060D01*
X8847660Y-4016580D02*
X8887660Y-4056580D01*
X8887660Y-4016580D02*
X8847660Y-4056580D01*
X8871490Y-7274440D02*
X8911490Y-7314440D01*
X8911490Y-7274440D02*
X8871490Y-7314440D01*
X8887260Y-2152000D02*
X8927260Y-2192000D01*
X8927260Y-2152000D02*
X8887260Y-2192000D01*
X8889240Y-4884850D02*
X8929240Y-4924850D01*
X8929240Y-4884850D02*
X8889240Y-4924850D01*
X8991510Y-5251370D02*
X9031510Y-5291370D01*
X9031510Y-5251370D02*
X8991510Y-5291370D01*
X9029580Y-6129020D02*
X9069580Y-6169020D01*
X9069580Y-6129020D02*
X9029580Y-6169020D01*
X9124000Y-1885000D02*
X9164000Y-1925000D01*
X9164000Y-1885000D02*
X9124000Y-1925000D01*
X9187520Y-3091500D02*
X9227520Y-3131500D01*
X9227520Y-3091500D02*
X9187520Y-3131500D01*
X9201820Y-7219360D02*
X9241820Y-7259360D01*
X9241820Y-7219360D02*
X9201820Y-7259360D01*
X9214760Y-7033160D02*
X9254760Y-7073160D01*
X9254760Y-7033160D02*
X9214760Y-7073160D01*
X9272130Y-8804250D02*
X9312130Y-8844250D01*
X9312130Y-8804250D02*
X9272130Y-8844250D01*
X9287200Y-2482920D02*
X9327200Y-2522920D01*
X9327200Y-2482920D02*
X9287200Y-2522920D01*
X9413310Y-2556810D02*
X9453310Y-2596810D01*
X9453310Y-2556810D02*
X9413310Y-2596810D01*
X9425040Y-4860830D02*
X9465040Y-4900830D01*
X9465040Y-4860830D02*
X9425040Y-4900830D01*
X9438320Y-8513580D02*
X9478320Y-8553580D01*
X9478320Y-8513580D02*
X9438320Y-8553580D01*
X9500560Y-3797070D02*
X9540560Y-3837070D01*
X9540560Y-3797070D02*
X9500560Y-3837070D01*
X9594950Y-3233070D02*
X9634950Y-3273070D01*
X9634950Y-3233070D02*
X9594950Y-3273070D01*
X9829030Y-4538540D02*
X9869030Y-4578540D01*
X9869030Y-4538540D02*
X9829030Y-4578540D01*
X9866660Y-6372610D02*
X9906660Y-6412610D01*
X9906660Y-6372610D02*
X9866660Y-6412610D01*
X9916670Y-6577650D02*
X9956670Y-6617650D01*
X9956670Y-6577650D02*
X9916670Y-6617650D01*
X9918930Y-1978290D02*
X9958930Y-2018290D01*
X9958930Y-1978290D02*
X9918930Y-2018290D01*
X9932780Y-4184710D02*
X9972780Y-4224710D01*
X9972780Y-4184710D02*
X9932780Y-4224710D01*
X10003900Y-4528110D02*
X10043900Y-4568110D01*
X10043900Y-4528110D02*
X10003900Y-4568110D01*
X10089500Y-8693980D02*
X10129500Y-8733980D01*
X10129500Y-8693980D02*
X10089500Y-8733980D01*
X10252000Y-6012500D02*
X10292000Y-6052500D01*
X10292000Y-6012500D02*
X10252000Y-6052500D01*
X10252000Y-6203080D02*
X10292000Y-6243080D01*
X10292000Y-6203080D02*
X10252000Y-6243080D01*
X10300700Y-4580620D02*
X10340700Y-4620620D01*
X10340700Y-4580620D02*
X10300700Y-4620620D01*
X10489700Y-1539830D02*
X10529700Y-1579830D01*
X10529700Y-1539830D02*
X10489700Y-1579830D01*
X10489700Y-1973830D02*
X10529700Y-2013830D01*
X10529700Y-1973830D02*
X10489700Y-2013830D01*
X10490600Y-3323720D02*
X10530600Y-3363720D01*
X10530600Y-3323720D02*
X10490600Y-3363720D01*
X10528200Y-5377500D02*
X10568200Y-5417500D01*
X10568200Y-5377500D02*
X10528200Y-5417500D01*
X10588400Y-5945130D02*
X10628400Y-5985130D01*
X10628400Y-5945130D02*
X10588400Y-5985130D01*
X10591800Y-2620640D02*
X10631800Y-2660640D01*
X10631800Y-2620640D02*
X10591800Y-2660640D01*
X10771000Y-1584580D02*
X10811000Y-1624580D01*
X10811000Y-1584580D02*
X10771000Y-1624580D01*
X10771000Y-2009320D02*
X10811000Y-2049320D01*
X10811000Y-2009320D02*
X10771000Y-2049320D01*
X10866800Y-8513580D02*
X10906800Y-8553580D01*
X10906800Y-8513580D02*
X10866800Y-8553580D01*
X10946800Y-4541290D02*
X10986800Y-4581290D01*
X10986800Y-4541290D02*
X10946800Y-4581290D01*
X11100800Y-4869130D02*
X11140800Y-4909130D01*
X11140800Y-4869130D02*
X11100800Y-4909130D01*
D13*
X1976500Y-5461000D02*
G75*
G03*
X1976500Y-5461000I-35000J0D01*
G01*
X2166500Y-5461000D02*
G75*
G03*
X2166500Y-5461000I-35000J0D01*
G01*
X4289500Y-2383490D02*
G75*
G03*
X4289500Y-2383490I-35000J0D01*
G01*
X4289500Y-2573490D02*
G75*
G03*
X4289500Y-2573490I-35000J0D01*
G01*
D14*
X2494000Y-3516000D02*
X2494000Y-3596000D01*
X2454000Y-3556000D02*
X2534000Y-3556000D01*
X2984000Y-3516000D02*
X2984000Y-3596000D01*
X2944000Y-3556000D02*
X3024000Y-3556000D01*
X3558000Y-3454000D02*
X3558000Y-3534000D01*
X3518000Y-3494000D02*
X3598000Y-3494000D01*
X3558000Y-3708000D02*
X3558000Y-3788000D01*
X3518000Y-3748000D02*
X3598000Y-3748000D01*
X3558000Y-3962000D02*
X3558000Y-4042000D01*
X3518000Y-4002000D02*
X3598000Y-4002000D01*
X3558000Y-4216000D02*
X3558000Y-4296000D01*
X3518000Y-4256000D02*
X3598000Y-4256000D01*
X3558000Y-4470000D02*
X3558000Y-4550000D01*
X3518000Y-4510000D02*
X3598000Y-4510000D01*
X3558000Y-4724000D02*
X3558000Y-4804000D01*
X3518000Y-4764000D02*
X3598000Y-4764000D01*
X3558000Y-4978000D02*
X3558000Y-5058000D01*
X3518000Y-5018000D02*
X3598000Y-5018000D01*
X3558000Y-5232000D02*
X3558000Y-5312000D01*
X3518000Y-5272000D02*
X3598000Y-5272000D01*
X3558000Y-5486000D02*
X3558000Y-5566000D01*
X3518000Y-5526000D02*
X3598000Y-5526000D01*
X3558000Y-5740000D02*
X3558000Y-5820000D01*
X3518000Y-5780000D02*
X3598000Y-5780000D01*
X3623500Y-1738000D02*
X3623500Y-1818000D01*
X3583500Y-1778000D02*
X3663500Y-1778000D01*
X3746500Y-2313500D02*
X3746500Y-2393500D01*
X3706500Y-2353500D02*
X3786500Y-2353500D01*
X3746500Y-2563500D02*
X3746500Y-2643500D01*
X3706500Y-2603500D02*
X3786500Y-2603500D01*
X4123500Y-1738000D02*
X4123500Y-1818000D01*
X4083500Y-1778000D02*
X4163500Y-1778000D01*
X4320000Y-3454000D02*
X4320000Y-3534000D01*
X4280000Y-3494000D02*
X4360000Y-3494000D01*
X4320000Y-3708000D02*
X4320000Y-3788000D01*
X4280000Y-3748000D02*
X4360000Y-3748000D01*
X4320000Y-3962000D02*
X4320000Y-4042000D01*
X4280000Y-4002000D02*
X4360000Y-4002000D01*
X4320000Y-4216000D02*
X4320000Y-4296000D01*
X4280000Y-4256000D02*
X4360000Y-4256000D01*
X4320000Y-4470000D02*
X4320000Y-4550000D01*
X4280000Y-4510000D02*
X4360000Y-4510000D01*
X4320000Y-4724000D02*
X4320000Y-4804000D01*
X4280000Y-4764000D02*
X4360000Y-4764000D01*
X4320000Y-4978000D02*
X4320000Y-5058000D01*
X4280000Y-5018000D02*
X4360000Y-5018000D01*
X4320000Y-5232000D02*
X4320000Y-5312000D01*
X4280000Y-5272000D02*
X4360000Y-5272000D01*
X4320000Y-5486000D02*
X4320000Y-5566000D01*
X4280000Y-5526000D02*
X4360000Y-5526000D01*
X4320000Y-5740000D02*
X4320000Y-5820000D01*
X4280000Y-5780000D02*
X4360000Y-5780000D01*
X4699000Y-1738000D02*
X4699000Y-1818000D01*
X4659000Y-1778000D02*
X4739000Y-1778000D01*
X4699000Y-2500000D02*
X4699000Y-2580000D01*
X4659000Y-2540000D02*
X4739000Y-2540000D01*
X4827000Y-3707500D02*
X4827000Y-3787500D01*
X4787000Y-3747500D02*
X4867000Y-3747500D01*
X4827000Y-3961500D02*
X4827000Y-4041500D01*
X4787000Y-4001500D02*
X4867000Y-4001500D01*
X4827000Y-4215500D02*
X4827000Y-4295500D01*
X4787000Y-4255500D02*
X4867000Y-4255500D01*
X4827000Y-4469500D02*
X4827000Y-4549500D01*
X4787000Y-4509500D02*
X4867000Y-4509500D01*
X4827000Y-4723500D02*
X4827000Y-4803500D01*
X4787000Y-4763500D02*
X4867000Y-4763500D01*
X4827000Y-4977500D02*
X4827000Y-5057500D01*
X4787000Y-5017500D02*
X4867000Y-5017500D01*
X4827000Y-5231500D02*
X4827000Y-5311500D01*
X4787000Y-5271500D02*
X4867000Y-5271500D01*
X4827000Y-5485500D02*
X4827000Y-5565500D01*
X4787000Y-5525500D02*
X4867000Y-5525500D01*
X4827000Y-5739500D02*
X4827000Y-5819500D01*
X4787000Y-5779500D02*
X4867000Y-5779500D01*
X4827000Y-5993500D02*
X4827000Y-6073500D01*
X4787000Y-6033500D02*
X4867000Y-6033500D01*
X4827000Y-6247500D02*
X4827000Y-6327500D01*
X4787000Y-6287500D02*
X4867000Y-6287500D01*
X4827000Y-6501500D02*
X4827000Y-6581500D01*
X4787000Y-6541500D02*
X4867000Y-6541500D01*
X4827000Y-6755500D02*
X4827000Y-6835500D01*
X4787000Y-6795500D02*
X4867000Y-6795500D01*
X4827000Y-7009500D02*
X4827000Y-7089500D01*
X4787000Y-7049500D02*
X4867000Y-7049500D01*
X4827000Y-7263500D02*
X4827000Y-7343500D01*
X4787000Y-7303500D02*
X4867000Y-7303500D01*
X4827000Y-7517500D02*
X4827000Y-7597500D01*
X4787000Y-7557500D02*
X4867000Y-7557500D01*
X4827000Y-7771500D02*
X4827000Y-7851500D01*
X4787000Y-7811500D02*
X4867000Y-7811500D01*
X4827000Y-8025500D02*
X4827000Y-8105500D01*
X4787000Y-8065500D02*
X4867000Y-8065500D01*
X4827000Y-8279500D02*
X4827000Y-8359500D01*
X4787000Y-8319500D02*
X4867000Y-8319500D01*
X4827000Y-8533500D02*
X4827000Y-8613500D01*
X4787000Y-8573500D02*
X4867000Y-8573500D01*
X6223000Y-1738000D02*
X6223000Y-1818000D01*
X6183000Y-1778000D02*
X6263000Y-1778000D01*
X6223000Y-2500000D02*
X6223000Y-2580000D01*
X6183000Y-2540000D02*
X6263000Y-2540000D01*
X6351000Y-3707500D02*
X6351000Y-3787500D01*
X6311000Y-3747500D02*
X6391000Y-3747500D01*
X6351000Y-3961500D02*
X6351000Y-4041500D01*
X6311000Y-4001500D02*
X6391000Y-4001500D01*
X6351000Y-4215500D02*
X6351000Y-4295500D01*
X6311000Y-4255500D02*
X6391000Y-4255500D01*
X6351000Y-4469500D02*
X6351000Y-4549500D01*
X6311000Y-4509500D02*
X6391000Y-4509500D01*
X6351000Y-4723500D02*
X6351000Y-4803500D01*
X6311000Y-4763500D02*
X6391000Y-4763500D01*
X6351000Y-4977500D02*
X6351000Y-5057500D01*
X6311000Y-5017500D02*
X6391000Y-5017500D01*
X6351000Y-5231500D02*
X6351000Y-5311500D01*
X6311000Y-5271500D02*
X6391000Y-5271500D01*
X6351000Y-5485500D02*
X6351000Y-5565500D01*
X6311000Y-5525500D02*
X6391000Y-5525500D01*
X6351000Y-5739500D02*
X6351000Y-5819500D01*
X6311000Y-5779500D02*
X6391000Y-5779500D01*
X6351000Y-5993500D02*
X6351000Y-6073500D01*
X6311000Y-6033500D02*
X6391000Y-6033500D01*
X6351000Y-6247500D02*
X6351000Y-6327500D01*
X6311000Y-6287500D02*
X6391000Y-6287500D01*
X6351000Y-6501500D02*
X6351000Y-6581500D01*
X6311000Y-6541500D02*
X6391000Y-6541500D01*
X6351000Y-6755500D02*
X6351000Y-6835500D01*
X6311000Y-6795500D02*
X6391000Y-6795500D01*
X6351000Y-7009500D02*
X6351000Y-7089500D01*
X6311000Y-7049500D02*
X6391000Y-7049500D01*
X6351000Y-7263500D02*
X6351000Y-7343500D01*
X6311000Y-7303500D02*
X6391000Y-7303500D01*
X6351000Y-7517500D02*
X6351000Y-7597500D01*
X6311000Y-7557500D02*
X6391000Y-7557500D01*
X6351000Y-7771500D02*
X6351000Y-7851500D01*
X6311000Y-7811500D02*
X6391000Y-7811500D01*
X6351000Y-8025500D02*
X6351000Y-8105500D01*
X6311000Y-8065500D02*
X6391000Y-8065500D01*
X6351000Y-8279500D02*
X6351000Y-8359500D01*
X6311000Y-8319500D02*
X6391000Y-8319500D01*
X6351000Y-8533500D02*
X6351000Y-8613500D01*
X6311000Y-8573500D02*
X6391000Y-8573500D01*
X6668500Y-6501500D02*
X6668500Y-6581500D01*
X6628500Y-6541500D02*
X6708500Y-6541500D01*
X6668500Y-6755500D02*
X6668500Y-6835500D01*
X6628500Y-6795500D02*
X6708500Y-6795500D01*
X6668500Y-7009500D02*
X6668500Y-7089500D01*
X6628500Y-7049500D02*
X6708500Y-7049500D01*
X6668500Y-7263500D02*
X6668500Y-7343500D01*
X6628500Y-7303500D02*
X6708500Y-7303500D01*
X6668500Y-7517500D02*
X6668500Y-7597500D01*
X6628500Y-7557500D02*
X6708500Y-7557500D01*
X6668500Y-7771500D02*
X6668500Y-7851500D01*
X6628500Y-7811500D02*
X6708500Y-7811500D01*
X6668500Y-8025500D02*
X6668500Y-8105500D01*
X6628500Y-8065500D02*
X6708500Y-8065500D01*
X6668500Y-8279500D02*
X6668500Y-8359500D01*
X6628500Y-8319500D02*
X6708500Y-8319500D01*
X6668500Y-8533500D02*
X6668500Y-8613500D01*
X6628500Y-8573500D02*
X6708500Y-8573500D01*
X6668500Y-8787500D02*
X6668500Y-8867500D01*
X6628500Y-8827500D02*
X6708500Y-8827500D01*
X6668500Y-9041500D02*
X6668500Y-9121500D01*
X6628500Y-9081500D02*
X6708500Y-9081500D01*
X6668500Y-9295500D02*
X6668500Y-9375500D01*
X6628500Y-9335500D02*
X6708500Y-9335500D01*
X6668500Y-9549500D02*
X6668500Y-9629500D01*
X6628500Y-9589500D02*
X6708500Y-9589500D01*
X6668500Y-9803500D02*
X6668500Y-9883500D01*
X6628500Y-9843500D02*
X6708500Y-9843500D01*
X6669500Y-3708000D02*
X6669500Y-3788000D01*
X6629500Y-3748000D02*
X6709500Y-3748000D01*
X6669500Y-3962000D02*
X6669500Y-4042000D01*
X6629500Y-4002000D02*
X6709500Y-4002000D01*
X6669500Y-4216000D02*
X6669500Y-4296000D01*
X6629500Y-4256000D02*
X6709500Y-4256000D01*
X6669500Y-4470000D02*
X6669500Y-4550000D01*
X6629500Y-4510000D02*
X6709500Y-4510000D01*
X6669500Y-4724000D02*
X6669500Y-4804000D01*
X6629500Y-4764000D02*
X6709500Y-4764000D01*
X6669500Y-4978000D02*
X6669500Y-5058000D01*
X6629500Y-5018000D02*
X6709500Y-5018000D01*
X6669500Y-5232000D02*
X6669500Y-5312000D01*
X6629500Y-5272000D02*
X6709500Y-5272000D01*
X6669500Y-5486000D02*
X6669500Y-5566000D01*
X6629500Y-5526000D02*
X6709500Y-5526000D01*
X6669500Y-5740000D02*
X6669500Y-5820000D01*
X6629500Y-5780000D02*
X6709500Y-5780000D01*
X6669500Y-5994000D02*
X6669500Y-6074000D01*
X6629500Y-6034000D02*
X6709500Y-6034000D01*
X7430500Y-6501500D02*
X7430500Y-6581500D01*
X7390500Y-6541500D02*
X7470500Y-6541500D01*
X7430500Y-6755500D02*
X7430500Y-6835500D01*
X7390500Y-6795500D02*
X7470500Y-6795500D01*
X7430500Y-7009500D02*
X7430500Y-7089500D01*
X7390500Y-7049500D02*
X7470500Y-7049500D01*
X7430500Y-7263500D02*
X7430500Y-7343500D01*
X7390500Y-7303500D02*
X7470500Y-7303500D01*
X7430500Y-7517500D02*
X7430500Y-7597500D01*
X7390500Y-7557500D02*
X7470500Y-7557500D01*
X7430500Y-7771500D02*
X7430500Y-7851500D01*
X7390500Y-7811500D02*
X7470500Y-7811500D01*
X7430500Y-8025500D02*
X7430500Y-8105500D01*
X7390500Y-8065500D02*
X7470500Y-8065500D01*
X7430500Y-8279500D02*
X7430500Y-8359500D01*
X7390500Y-8319500D02*
X7470500Y-8319500D01*
X7430500Y-8533500D02*
X7430500Y-8613500D01*
X7390500Y-8573500D02*
X7470500Y-8573500D01*
X7430500Y-8787500D02*
X7430500Y-8867500D01*
X7390500Y-8827500D02*
X7470500Y-8827500D01*
X7430500Y-9041500D02*
X7430500Y-9121500D01*
X7390500Y-9081500D02*
X7470500Y-9081500D01*
X7430500Y-9295500D02*
X7430500Y-9375500D01*
X7390500Y-9335500D02*
X7470500Y-9335500D01*
X7430500Y-9549500D02*
X7430500Y-9629500D01*
X7390500Y-9589500D02*
X7470500Y-9589500D01*
X7430500Y-9803500D02*
X7430500Y-9883500D01*
X7390500Y-9843500D02*
X7470500Y-9843500D01*
X7431500Y-3708000D02*
X7431500Y-3788000D01*
X7391500Y-3748000D02*
X7471500Y-3748000D01*
X7431500Y-3962000D02*
X7431500Y-4042000D01*
X7391500Y-4002000D02*
X7471500Y-4002000D01*
X7431500Y-4216000D02*
X7431500Y-4296000D01*
X7391500Y-4256000D02*
X7471500Y-4256000D01*
X7431500Y-4470000D02*
X7431500Y-4550000D01*
X7391500Y-4510000D02*
X7471500Y-4510000D01*
X7431500Y-4724000D02*
X7431500Y-4804000D01*
X7391500Y-4764000D02*
X7471500Y-4764000D01*
X7431500Y-4978000D02*
X7431500Y-5058000D01*
X7391500Y-5018000D02*
X7471500Y-5018000D01*
X7431500Y-5232000D02*
X7431500Y-5312000D01*
X7391500Y-5272000D02*
X7471500Y-5272000D01*
X7431500Y-5486000D02*
X7431500Y-5566000D01*
X7391500Y-5526000D02*
X7471500Y-5526000D01*
X7431500Y-5740000D02*
X7431500Y-5820000D01*
X7391500Y-5780000D02*
X7471500Y-5780000D01*
X7431500Y-5994000D02*
X7431500Y-6074000D01*
X7391500Y-6034000D02*
X7471500Y-6034000D01*
X8317500Y-6690500D02*
X8317500Y-6770500D01*
X8277500Y-6730500D02*
X8357500Y-6730500D01*
X8317500Y-6944500D02*
X8317500Y-7024500D01*
X8277500Y-6984500D02*
X8357500Y-6984500D01*
X8317500Y-7198500D02*
X8317500Y-7278500D01*
X8277500Y-7238500D02*
X8357500Y-7238500D01*
X8317500Y-7452500D02*
X8317500Y-7532500D01*
X8277500Y-7492500D02*
X8357500Y-7492500D01*
X8317500Y-7706500D02*
X8317500Y-7786500D01*
X8277500Y-7746500D02*
X8357500Y-7746500D01*
X8317500Y-7960500D02*
X8317500Y-8040500D01*
X8277500Y-8000500D02*
X8357500Y-8000500D01*
X8317500Y-8214500D02*
X8317500Y-8294500D01*
X8277500Y-8254500D02*
X8357500Y-8254500D01*
X8317500Y-8468500D02*
X8317500Y-8548500D01*
X8277500Y-8508500D02*
X8357500Y-8508500D01*
X8317500Y-8722500D02*
X8317500Y-8802500D01*
X8277500Y-8762500D02*
X8357500Y-8762500D01*
X8317500Y-8976500D02*
X8317500Y-9056500D01*
X8277500Y-9016500D02*
X8357500Y-9016500D01*
X8509000Y-2055500D02*
X8509000Y-2135500D01*
X8469000Y-2095500D02*
X8549000Y-2095500D01*
X8509000Y-2309500D02*
X8509000Y-2389500D01*
X8469000Y-2349500D02*
X8549000Y-2349500D01*
X8509000Y-2563500D02*
X8509000Y-2643500D01*
X8469000Y-2603500D02*
X8549000Y-2603500D01*
X8509000Y-2817500D02*
X8509000Y-2897500D01*
X8469000Y-2857500D02*
X8549000Y-2857500D01*
X8509000Y-3071500D02*
X8509000Y-3151500D01*
X8469000Y-3111500D02*
X8549000Y-3111500D01*
X8509000Y-3325500D02*
X8509000Y-3405500D01*
X8469000Y-3365500D02*
X8549000Y-3365500D01*
X8763000Y-1801500D02*
X8763000Y-1881500D01*
X8723000Y-1841500D02*
X8803000Y-1841500D01*
X8763000Y-2055500D02*
X8763000Y-2135500D01*
X8723000Y-2095500D02*
X8803000Y-2095500D01*
X8763000Y-2309500D02*
X8763000Y-2389500D01*
X8723000Y-2349500D02*
X8803000Y-2349500D01*
X8763000Y-2563500D02*
X8763000Y-2643500D01*
X8723000Y-2603500D02*
X8803000Y-2603500D01*
X8763000Y-2817500D02*
X8763000Y-2897500D01*
X8723000Y-2857500D02*
X8803000Y-2857500D01*
X8763000Y-3071500D02*
X8763000Y-3151500D01*
X8723000Y-3111500D02*
X8803000Y-3111500D01*
X8763000Y-3325500D02*
X8763000Y-3405500D01*
X8723000Y-3365500D02*
X8803000Y-3365500D01*
X8763000Y-3579500D02*
X8763000Y-3659500D01*
X8723000Y-3619500D02*
X8803000Y-3619500D01*
X9017000Y-1801500D02*
X9017000Y-1881500D01*
X8977000Y-1841500D02*
X9057000Y-1841500D01*
X9017000Y-2055500D02*
X9017000Y-2135500D01*
X8977000Y-2095500D02*
X9057000Y-2095500D01*
X9017000Y-3325500D02*
X9017000Y-3405500D01*
X8977000Y-3365500D02*
X9057000Y-3365500D01*
X9017000Y-3579500D02*
X9017000Y-3659500D01*
X8977000Y-3619500D02*
X9057000Y-3619500D01*
X9079500Y-6690500D02*
X9079500Y-6770500D01*
X9039500Y-6730500D02*
X9119500Y-6730500D01*
X9079500Y-6944500D02*
X9079500Y-7024500D01*
X9039500Y-6984500D02*
X9119500Y-6984500D01*
X9079500Y-7198500D02*
X9079500Y-7278500D01*
X9039500Y-7238500D02*
X9119500Y-7238500D01*
X9079500Y-7452500D02*
X9079500Y-7532500D01*
X9039500Y-7492500D02*
X9119500Y-7492500D01*
X9079500Y-7706500D02*
X9079500Y-7786500D01*
X9039500Y-7746500D02*
X9119500Y-7746500D01*
X9079500Y-7960500D02*
X9079500Y-8040500D01*
X9039500Y-8000500D02*
X9119500Y-8000500D01*
X9079500Y-8214500D02*
X9079500Y-8294500D01*
X9039500Y-8254500D02*
X9119500Y-8254500D01*
X9079500Y-8468500D02*
X9079500Y-8548500D01*
X9039500Y-8508500D02*
X9119500Y-8508500D01*
X9079500Y-8722500D02*
X9079500Y-8802500D01*
X9039500Y-8762500D02*
X9119500Y-8762500D01*
X9079500Y-8976500D02*
X9079500Y-9056500D01*
X9039500Y-9016500D02*
X9119500Y-9016500D01*
X9271000Y-1801500D02*
X9271000Y-1881500D01*
X9231000Y-1841500D02*
X9311000Y-1841500D01*
X9271000Y-2055500D02*
X9271000Y-2135500D01*
X9231000Y-2095500D02*
X9311000Y-2095500D01*
X9271000Y-3325500D02*
X9271000Y-3405500D01*
X9231000Y-3365500D02*
X9311000Y-3365500D01*
X9271000Y-3579500D02*
X9271000Y-3659500D01*
X9231000Y-3619500D02*
X9311000Y-3619500D01*
X9525000Y-1801500D02*
X9525000Y-1881500D01*
X9485000Y-1841500D02*
X9565000Y-1841500D01*
X9525000Y-2055500D02*
X9525000Y-2135500D01*
X9485000Y-2095500D02*
X9565000Y-2095500D01*
X9525000Y-3325500D02*
X9525000Y-3405500D01*
X9485000Y-3365500D02*
X9565000Y-3365500D01*
X9525000Y-3579500D02*
X9525000Y-3659500D01*
X9485000Y-3619500D02*
X9565000Y-3619500D01*
X9714500Y-4722500D02*
X9714500Y-4802500D01*
X9674500Y-4762500D02*
X9754500Y-4762500D01*
X9714500Y-4976500D02*
X9714500Y-5056500D01*
X9674500Y-5016500D02*
X9754500Y-5016500D01*
X9714500Y-5230500D02*
X9714500Y-5310500D01*
X9674500Y-5270500D02*
X9754500Y-5270500D01*
X9714500Y-5484500D02*
X9714500Y-5564500D01*
X9674500Y-5524500D02*
X9754500Y-5524500D01*
X9714500Y-5738500D02*
X9714500Y-5818500D01*
X9674500Y-5778500D02*
X9754500Y-5778500D01*
X9714500Y-5992500D02*
X9714500Y-6072500D01*
X9674500Y-6032500D02*
X9754500Y-6032500D01*
X9714500Y-6246500D02*
X9714500Y-6326500D01*
X9674500Y-6286500D02*
X9754500Y-6286500D01*
X9714500Y-6500500D02*
X9714500Y-6580500D01*
X9674500Y-6540500D02*
X9754500Y-6540500D01*
X9714500Y-6754500D02*
X9714500Y-6834500D01*
X9674500Y-6794500D02*
X9754500Y-6794500D01*
X9714500Y-7008500D02*
X9714500Y-7088500D01*
X9674500Y-7048500D02*
X9754500Y-7048500D01*
X9715500Y-8786500D02*
X9715500Y-8866500D01*
X9675500Y-8826500D02*
X9755500Y-8826500D01*
X9715500Y-9040500D02*
X9715500Y-9120500D01*
X9675500Y-9080500D02*
X9755500Y-9080500D01*
X9715500Y-9294500D02*
X9715500Y-9374500D01*
X9675500Y-9334500D02*
X9755500Y-9334500D01*
X9715500Y-9548500D02*
X9715500Y-9628500D01*
X9675500Y-9588500D02*
X9755500Y-9588500D01*
X9715500Y-9802500D02*
X9715500Y-9882500D01*
X9675500Y-9842500D02*
X9755500Y-9842500D01*
X9715500Y-10056500D02*
X9715500Y-10136500D01*
X9675500Y-10096500D02*
X9755500Y-10096500D01*
X9715500Y-10310500D02*
X9715500Y-10390500D01*
X9675500Y-10350500D02*
X9755500Y-10350500D01*
X9715500Y-10564500D02*
X9715500Y-10644500D01*
X9675500Y-10604500D02*
X9755500Y-10604500D01*
X9715500Y-10818500D02*
X9715500Y-10898500D01*
X9675500Y-10858500D02*
X9755500Y-10858500D01*
X9715500Y-11072500D02*
X9715500Y-11152500D01*
X9675500Y-11112500D02*
X9755500Y-11112500D01*
X9779000Y-1801500D02*
X9779000Y-1881500D01*
X9739000Y-1841500D02*
X9819000Y-1841500D01*
X9779000Y-2055500D02*
X9779000Y-2135500D01*
X9739000Y-2095500D02*
X9819000Y-2095500D01*
X9779000Y-3325500D02*
X9779000Y-3405500D01*
X9739000Y-3365500D02*
X9819000Y-3365500D01*
X9779000Y-3579500D02*
X9779000Y-3659500D01*
X9739000Y-3619500D02*
X9819000Y-3619500D01*
X10033000Y-1801500D02*
X10033000Y-1881500D01*
X9993000Y-1841500D02*
X10073000Y-1841500D01*
X10033000Y-2055500D02*
X10033000Y-2135500D01*
X9993000Y-2095500D02*
X10073000Y-2095500D01*
X10033000Y-2309500D02*
X10033000Y-2389500D01*
X9993000Y-2349500D02*
X10073000Y-2349500D01*
X10033000Y-2563500D02*
X10033000Y-2643500D01*
X9993000Y-2603500D02*
X10073000Y-2603500D01*
X10033000Y-2817500D02*
X10033000Y-2897500D01*
X9993000Y-2857500D02*
X10073000Y-2857500D01*
X10033000Y-3071500D02*
X10033000Y-3151500D01*
X9993000Y-3111500D02*
X10073000Y-3111500D01*
X10033000Y-3325500D02*
X10033000Y-3405500D01*
X9993000Y-3365500D02*
X10073000Y-3365500D01*
X10033000Y-3579500D02*
X10033000Y-3659500D01*
X9993000Y-3619500D02*
X10073000Y-3619500D01*
X10287000Y-2055500D02*
X10287000Y-2135500D01*
X10247000Y-2095500D02*
X10327000Y-2095500D01*
X10287000Y-2309500D02*
X10287000Y-2389500D01*
X10247000Y-2349500D02*
X10327000Y-2349500D01*
X10287000Y-2563500D02*
X10287000Y-2643500D01*
X10247000Y-2603500D02*
X10327000Y-2603500D01*
X10287000Y-2817500D02*
X10287000Y-2897500D01*
X10247000Y-2857500D02*
X10327000Y-2857500D01*
X10287000Y-3071500D02*
X10287000Y-3151500D01*
X10247000Y-3111500D02*
X10327000Y-3111500D01*
X10287000Y-3325500D02*
X10287000Y-3405500D01*
X10247000Y-3365500D02*
X10327000Y-3365500D01*
X10476500Y-4722500D02*
X10476500Y-4802500D01*
X10436500Y-4762500D02*
X10516500Y-4762500D01*
X10476500Y-4976500D02*
X10476500Y-5056500D01*
X10436500Y-5016500D02*
X10516500Y-5016500D01*
X10476500Y-5230500D02*
X10476500Y-5310500D01*
X10436500Y-5270500D02*
X10516500Y-5270500D01*
X10476500Y-5484500D02*
X10476500Y-5564500D01*
X10436500Y-5524500D02*
X10516500Y-5524500D01*
X10476500Y-5738500D02*
X10476500Y-5818500D01*
X10436500Y-5778500D02*
X10516500Y-5778500D01*
X10476500Y-5992500D02*
X10476500Y-6072500D01*
X10436500Y-6032500D02*
X10516500Y-6032500D01*
X10476500Y-6246500D02*
X10476500Y-6326500D01*
X10436500Y-6286500D02*
X10516500Y-6286500D01*
X10476500Y-6500500D02*
X10476500Y-6580500D01*
X10436500Y-6540500D02*
X10516500Y-6540500D01*
X10476500Y-6754500D02*
X10476500Y-6834500D01*
X10436500Y-6794500D02*
X10516500Y-6794500D01*
X10476500Y-7008500D02*
X10476500Y-7088500D01*
X10436500Y-7048500D02*
X10516500Y-7048500D01*
X10477500Y-8786500D02*
X10477500Y-8866500D01*
X10437500Y-8826500D02*
X10517500Y-8826500D01*
X10477500Y-9040500D02*
X10477500Y-9120500D01*
X10437500Y-9080500D02*
X10517500Y-9080500D01*
X10477500Y-9294500D02*
X10477500Y-9374500D01*
X10437500Y-9334500D02*
X10517500Y-9334500D01*
X10477500Y-9548500D02*
X10477500Y-9628500D01*
X10437500Y-9588500D02*
X10517500Y-9588500D01*
X10477500Y-9802500D02*
X10477500Y-9882500D01*
X10437500Y-9842500D02*
X10517500Y-9842500D01*
X10477500Y-10056500D02*
X10477500Y-10136500D01*
X10437500Y-10096500D02*
X10517500Y-10096500D01*
X10477500Y-10310500D02*
X10477500Y-10390500D01*
X10437500Y-10350500D02*
X10517500Y-10350500D01*
X10477500Y-10564500D02*
X10477500Y-10644500D01*
X10437500Y-10604500D02*
X10517500Y-10604500D01*
X10477500Y-10818500D02*
X10477500Y-10898500D01*
X10437500Y-10858500D02*
X10517500Y-10858500D01*
X10477500Y-11072500D02*
X10477500Y-11152500D01*
X10437500Y-11112500D02*
X10517500Y-11112500D01*
D15*
X1936820Y-4921320D02*
X1936820Y-4857680D01*
X1873180Y-4857680D01*
X1873180Y-4921320D01*
X1936820Y-4921320D01*
X2190820Y-4921320D02*
X2190820Y-4857680D01*
X2127180Y-4857680D01*
X2127180Y-4921320D01*
X2190820Y-4921320D01*
D16*
X2415000Y-2812250D02*
X2462500Y-2764750D01*
X2415000Y-2717250D01*
X2367500Y-2764750D01*
X2415000Y-2812250D01*
X2415000Y-3012250D02*
X2462500Y-2964750D01*
X2415000Y-2917250D01*
X2367500Y-2964750D01*
X2415000Y-3012250D01*
X2665000Y-2812250D02*
X2712500Y-2764750D01*
X2665000Y-2717250D01*
X2617500Y-2764750D01*
X2665000Y-2812250D01*
X2665000Y-3012250D02*
X2712500Y-2964750D01*
X2665000Y-2917250D01*
X2617500Y-2964750D01*
X2665000Y-3012250D01*
D17*
X1855000Y-3380000D02*
X1955000Y-3480000D01*
X1955000Y-3380000D02*
X1855000Y-3480000D01*
X1955000Y-3430000D02*
G75*
G03*
X1955000Y-3430000I-50000J0D01*
G01*
X1855000Y-3634000D02*
X1955000Y-3734000D01*
X1955000Y-3634000D02*
X1855000Y-3734000D01*
X1955000Y-3684000D02*
G75*
G03*
X1955000Y-3684000I-50000J0D01*
G01*
X1855000Y-3888000D02*
X1955000Y-3988000D01*
X1955000Y-3888000D02*
X1855000Y-3988000D01*
X1955000Y-3938000D02*
G75*
G03*
X1955000Y-3938000I-50000J0D01*
G01*
X1855000Y-4142000D02*
X1955000Y-4242000D01*
X1955000Y-4142000D02*
X1855000Y-4242000D01*
X1955000Y-4192000D02*
G75*
G03*
X1955000Y-4192000I-50000J0D01*
G01*
X1918500Y-5855500D02*
X2018500Y-5955500D01*
X2018500Y-5855500D02*
X1918500Y-5955500D01*
X2018500Y-5905500D02*
G75*
G03*
X2018500Y-5905500I-50000J0D01*
G01*
X1918500Y-6109500D02*
X2018500Y-6209500D01*
X2018500Y-6109500D02*
X1918500Y-6209500D01*
X2018500Y-6159500D02*
G75*
G03*
X2018500Y-6159500I-50000J0D01*
G01*
X1918500Y-6363500D02*
X2018500Y-6463500D01*
X2018500Y-6363500D02*
X1918500Y-6463500D01*
X2018500Y-6413500D02*
G75*
G03*
X2018500Y-6413500I-50000J0D01*
G01*
X1918500Y-6617500D02*
X2018500Y-6717500D01*
X2018500Y-6617500D02*
X1918500Y-6717500D01*
X2018500Y-6667500D02*
G75*
G03*
X2018500Y-6667500I-50000J0D01*
G01*
X1918500Y-6871500D02*
X2018500Y-6971500D01*
X2018500Y-6871500D02*
X1918500Y-6971500D01*
X2018500Y-6921500D02*
G75*
G03*
X2018500Y-6921500I-50000J0D01*
G01*
X1918500Y-7125500D02*
X2018500Y-7225500D01*
X2018500Y-7125500D02*
X1918500Y-7225500D01*
X2018500Y-7175500D02*
G75*
G03*
X2018500Y-7175500I-50000J0D01*
G01*
X1918500Y-7379500D02*
X2018500Y-7479500D01*
X2018500Y-7379500D02*
X1918500Y-7479500D01*
X2018500Y-7429500D02*
G75*
G03*
X2018500Y-7429500I-50000J0D01*
G01*
X1918500Y-7633500D02*
X2018500Y-7733500D01*
X2018500Y-7633500D02*
X1918500Y-7733500D01*
X2018500Y-7683500D02*
G75*
G03*
X2018500Y-7683500I-50000J0D01*
G01*
X1918500Y-7887500D02*
X2018500Y-7987500D01*
X2018500Y-7887500D02*
X1918500Y-7987500D01*
X2018500Y-7937500D02*
G75*
G03*
X2018500Y-7937500I-50000J0D01*
G01*
X1918500Y-8141500D02*
X2018500Y-8241500D01*
X2018500Y-8141500D02*
X1918500Y-8241500D01*
X2018500Y-8191500D02*
G75*
G03*
X2018500Y-8191500I-50000J0D01*
G01*
X1918500Y-8395500D02*
X2018500Y-8495500D01*
X2018500Y-8395500D02*
X1918500Y-8495500D01*
X2018500Y-8445500D02*
G75*
G03*
X2018500Y-8445500I-50000J0D01*
G01*
X1918500Y-8649500D02*
X2018500Y-8749500D01*
X2018500Y-8649500D02*
X1918500Y-8749500D01*
X2018500Y-8699500D02*
G75*
G03*
X2018500Y-8699500I-50000J0D01*
G01*
X1918500Y-8903500D02*
X2018500Y-9003500D01*
X2018500Y-8903500D02*
X1918500Y-9003500D01*
X2018500Y-8953500D02*
G75*
G03*
X2018500Y-8953500I-50000J0D01*
G01*
X1918500Y-9157500D02*
X2018500Y-9257500D01*
X2018500Y-9157500D02*
X1918500Y-9257500D01*
X2018500Y-9207500D02*
G75*
G03*
X2018500Y-9207500I-50000J0D01*
G01*
X1918500Y-9411500D02*
X2018500Y-9511500D01*
X2018500Y-9411500D02*
X1918500Y-9511500D01*
X2018500Y-9461500D02*
G75*
G03*
X2018500Y-9461500I-50000J0D01*
G01*
X1918500Y-9665500D02*
X2018500Y-9765500D01*
X2018500Y-9665500D02*
X1918500Y-9765500D01*
X2018500Y-9715500D02*
G75*
G03*
X2018500Y-9715500I-50000J0D01*
G01*
X1918500Y-9919500D02*
X2018500Y-10019500D01*
X2018500Y-9919500D02*
X1918500Y-10019500D01*
X2018500Y-9969500D02*
G75*
G03*
X2018500Y-9969500I-50000J0D01*
G01*
X1918500Y-10173500D02*
X2018500Y-10273500D01*
X2018500Y-10173500D02*
X1918500Y-10273500D01*
X2018500Y-10223500D02*
G75*
G03*
X2018500Y-10223500I-50000J0D01*
G01*
X1918500Y-10427500D02*
X2018500Y-10527500D01*
X2018500Y-10427500D02*
X1918500Y-10527500D01*
X2018500Y-10477500D02*
G75*
G03*
X2018500Y-10477500I-50000J0D01*
G01*
X1918500Y-10681500D02*
X2018500Y-10781500D01*
X2018500Y-10681500D02*
X1918500Y-10781500D01*
X2018500Y-10731500D02*
G75*
G03*
X2018500Y-10731500I-50000J0D01*
G01*
X1918500Y-10935500D02*
X2018500Y-11035500D01*
X2018500Y-10935500D02*
X1918500Y-11035500D01*
X2018500Y-10985500D02*
G75*
G03*
X2018500Y-10985500I-50000J0D01*
G01*
X1918500Y-11189500D02*
X2018500Y-11289500D01*
X2018500Y-11189500D02*
X1918500Y-11289500D01*
X2018500Y-11239500D02*
G75*
G03*
X2018500Y-11239500I-50000J0D01*
G01*
X2172500Y-5855500D02*
X2272500Y-5955500D01*
X2272500Y-5855500D02*
X2172500Y-5955500D01*
X2272500Y-5905500D02*
G75*
G03*
X2272500Y-5905500I-50000J0D01*
G01*
X2172500Y-6109500D02*
X2272500Y-6209500D01*
X2272500Y-6109500D02*
X2172500Y-6209500D01*
X2272500Y-6159500D02*
G75*
G03*
X2272500Y-6159500I-50000J0D01*
G01*
X2172500Y-6363500D02*
X2272500Y-6463500D01*
X2272500Y-6363500D02*
X2172500Y-6463500D01*
X2272500Y-6413500D02*
G75*
G03*
X2272500Y-6413500I-50000J0D01*
G01*
X2172500Y-6617500D02*
X2272500Y-6717500D01*
X2272500Y-6617500D02*
X2172500Y-6717500D01*
X2272500Y-6667500D02*
G75*
G03*
X2272500Y-6667500I-50000J0D01*
G01*
X2172500Y-6871500D02*
X2272500Y-6971500D01*
X2272500Y-6871500D02*
X2172500Y-6971500D01*
X2272500Y-6921500D02*
G75*
G03*
X2272500Y-6921500I-50000J0D01*
G01*
X2172500Y-7125500D02*
X2272500Y-7225500D01*
X2272500Y-7125500D02*
X2172500Y-7225500D01*
X2272500Y-7175500D02*
G75*
G03*
X2272500Y-7175500I-50000J0D01*
G01*
X2172500Y-7379500D02*
X2272500Y-7479500D01*
X2272500Y-7379500D02*
X2172500Y-7479500D01*
X2272500Y-7429500D02*
G75*
G03*
X2272500Y-7429500I-50000J0D01*
G01*
X2172500Y-7633500D02*
X2272500Y-7733500D01*
X2272500Y-7633500D02*
X2172500Y-7733500D01*
X2272500Y-7683500D02*
G75*
G03*
X2272500Y-7683500I-50000J0D01*
G01*
X2172500Y-7887500D02*
X2272500Y-7987500D01*
X2272500Y-7887500D02*
X2172500Y-7987500D01*
X2272500Y-7937500D02*
G75*
G03*
X2272500Y-7937500I-50000J0D01*
G01*
X2172500Y-8141500D02*
X2272500Y-8241500D01*
X2272500Y-8141500D02*
X2172500Y-8241500D01*
X2272500Y-8191500D02*
G75*
G03*
X2272500Y-8191500I-50000J0D01*
G01*
X2172500Y-8395500D02*
X2272500Y-8495500D01*
X2272500Y-8395500D02*
X2172500Y-8495500D01*
X2272500Y-8445500D02*
G75*
G03*
X2272500Y-8445500I-50000J0D01*
G01*
X2172500Y-8649500D02*
X2272500Y-8749500D01*
X2272500Y-8649500D02*
X2172500Y-8749500D01*
X2272500Y-8699500D02*
G75*
G03*
X2272500Y-8699500I-50000J0D01*
G01*
X2172500Y-8903500D02*
X2272500Y-9003500D01*
X2272500Y-8903500D02*
X2172500Y-9003500D01*
X2272500Y-8953500D02*
G75*
G03*
X2272500Y-8953500I-50000J0D01*
G01*
X2172500Y-9157500D02*
X2272500Y-9257500D01*
X2272500Y-9157500D02*
X2172500Y-9257500D01*
X2272500Y-9207500D02*
G75*
G03*
X2272500Y-9207500I-50000J0D01*
G01*
X2172500Y-9411500D02*
X2272500Y-9511500D01*
X2272500Y-9411500D02*
X2172500Y-9511500D01*
X2272500Y-9461500D02*
G75*
G03*
X2272500Y-9461500I-50000J0D01*
G01*
X2172500Y-9665500D02*
X2272500Y-9765500D01*
X2272500Y-9665500D02*
X2172500Y-9765500D01*
X2272500Y-9715500D02*
G75*
G03*
X2272500Y-9715500I-50000J0D01*
G01*
X2172500Y-9919500D02*
X2272500Y-10019500D01*
X2272500Y-9919500D02*
X2172500Y-10019500D01*
X2272500Y-9969500D02*
G75*
G03*
X2272500Y-9969500I-50000J0D01*
G01*
X2172500Y-10173500D02*
X2272500Y-10273500D01*
X2272500Y-10173500D02*
X2172500Y-10273500D01*
X2272500Y-10223500D02*
G75*
G03*
X2272500Y-10223500I-50000J0D01*
G01*
X2172500Y-10427500D02*
X2272500Y-10527500D01*
X2272500Y-10427500D02*
X2172500Y-10527500D01*
X2272500Y-10477500D02*
G75*
G03*
X2272500Y-10477500I-50000J0D01*
G01*
X2172500Y-10681500D02*
X2272500Y-10781500D01*
X2272500Y-10681500D02*
X2172500Y-10781500D01*
X2272500Y-10731500D02*
G75*
G03*
X2272500Y-10731500I-50000J0D01*
G01*
X2172500Y-10935500D02*
X2272500Y-11035500D01*
X2272500Y-10935500D02*
X2172500Y-11035500D01*
X2272500Y-10985500D02*
G75*
G03*
X2272500Y-10985500I-50000J0D01*
G01*
X2172500Y-11189500D02*
X2272500Y-11289500D01*
X2272500Y-11189500D02*
X2172500Y-11289500D01*
X2272500Y-11239500D02*
G75*
G03*
X2272500Y-11239500I-50000J0D01*
G01*
X2235500Y-4077500D02*
X2335500Y-4177500D01*
X2335500Y-4077500D02*
X2235500Y-4177500D01*
X2335500Y-4127500D02*
G75*
G03*
X2335500Y-4127500I-50000J0D01*
G01*
X2426500Y-5855500D02*
X2526500Y-5955500D01*
X2526500Y-5855500D02*
X2426500Y-5955500D01*
X2526500Y-5905500D02*
G75*
G03*
X2526500Y-5905500I-50000J0D01*
G01*
X2426500Y-6109500D02*
X2526500Y-6209500D01*
X2526500Y-6109500D02*
X2426500Y-6209500D01*
X2526500Y-6159500D02*
G75*
G03*
X2526500Y-6159500I-50000J0D01*
G01*
X2426500Y-6363500D02*
X2526500Y-6463500D01*
X2526500Y-6363500D02*
X2426500Y-6463500D01*
X2526500Y-6413500D02*
G75*
G03*
X2526500Y-6413500I-50000J0D01*
G01*
X2426500Y-6617500D02*
X2526500Y-6717500D01*
X2526500Y-6617500D02*
X2426500Y-6717500D01*
X2526500Y-6667500D02*
G75*
G03*
X2526500Y-6667500I-50000J0D01*
G01*
X2426500Y-6871500D02*
X2526500Y-6971500D01*
X2526500Y-6871500D02*
X2426500Y-6971500D01*
X2526500Y-6921500D02*
G75*
G03*
X2526500Y-6921500I-50000J0D01*
G01*
X2426500Y-7125500D02*
X2526500Y-7225500D01*
X2526500Y-7125500D02*
X2426500Y-7225500D01*
X2526500Y-7175500D02*
G75*
G03*
X2526500Y-7175500I-50000J0D01*
G01*
X2426500Y-7379500D02*
X2526500Y-7479500D01*
X2526500Y-7379500D02*
X2426500Y-7479500D01*
X2526500Y-7429500D02*
G75*
G03*
X2526500Y-7429500I-50000J0D01*
G01*
X2426500Y-7633500D02*
X2526500Y-7733500D01*
X2526500Y-7633500D02*
X2426500Y-7733500D01*
X2526500Y-7683500D02*
G75*
G03*
X2526500Y-7683500I-50000J0D01*
G01*
X2426500Y-7887500D02*
X2526500Y-7987500D01*
X2526500Y-7887500D02*
X2426500Y-7987500D01*
X2526500Y-7937500D02*
G75*
G03*
X2526500Y-7937500I-50000J0D01*
G01*
X2426500Y-8141500D02*
X2526500Y-8241500D01*
X2526500Y-8141500D02*
X2426500Y-8241500D01*
X2526500Y-8191500D02*
G75*
G03*
X2526500Y-8191500I-50000J0D01*
G01*
X2426500Y-8395500D02*
X2526500Y-8495500D01*
X2526500Y-8395500D02*
X2426500Y-8495500D01*
X2526500Y-8445500D02*
G75*
G03*
X2526500Y-8445500I-50000J0D01*
G01*
X2426500Y-8649500D02*
X2526500Y-8749500D01*
X2526500Y-8649500D02*
X2426500Y-8749500D01*
X2526500Y-8699500D02*
G75*
G03*
X2526500Y-8699500I-50000J0D01*
G01*
X2426500Y-8903500D02*
X2526500Y-9003500D01*
X2526500Y-8903500D02*
X2426500Y-9003500D01*
X2526500Y-8953500D02*
G75*
G03*
X2526500Y-8953500I-50000J0D01*
G01*
X2426500Y-9157500D02*
X2526500Y-9257500D01*
X2526500Y-9157500D02*
X2426500Y-9257500D01*
X2526500Y-9207500D02*
G75*
G03*
X2526500Y-9207500I-50000J0D01*
G01*
X2426500Y-9411500D02*
X2526500Y-9511500D01*
X2526500Y-9411500D02*
X2426500Y-9511500D01*
X2526500Y-9461500D02*
G75*
G03*
X2526500Y-9461500I-50000J0D01*
G01*
X2426500Y-9665500D02*
X2526500Y-9765500D01*
X2526500Y-9665500D02*
X2426500Y-9765500D01*
X2526500Y-9715500D02*
G75*
G03*
X2526500Y-9715500I-50000J0D01*
G01*
X2426500Y-9919500D02*
X2526500Y-10019500D01*
X2526500Y-9919500D02*
X2426500Y-10019500D01*
X2526500Y-9969500D02*
G75*
G03*
X2526500Y-9969500I-50000J0D01*
G01*
X2426500Y-10173500D02*
X2526500Y-10273500D01*
X2526500Y-10173500D02*
X2426500Y-10273500D01*
X2526500Y-10223500D02*
G75*
G03*
X2526500Y-10223500I-50000J0D01*
G01*
X2426500Y-10427500D02*
X2526500Y-10527500D01*
X2526500Y-10427500D02*
X2426500Y-10527500D01*
X2526500Y-10477500D02*
G75*
G03*
X2526500Y-10477500I-50000J0D01*
G01*
X2426500Y-10681500D02*
X2526500Y-10781500D01*
X2526500Y-10681500D02*
X2426500Y-10781500D01*
X2526500Y-10731500D02*
G75*
G03*
X2526500Y-10731500I-50000J0D01*
G01*
X2426500Y-10935500D02*
X2526500Y-11035500D01*
X2526500Y-10935500D02*
X2426500Y-11035500D01*
X2526500Y-10985500D02*
G75*
G03*
X2526500Y-10985500I-50000J0D01*
G01*
X2426500Y-11189500D02*
X2526500Y-11289500D01*
X2526500Y-11189500D02*
X2426500Y-11289500D01*
X2526500Y-11239500D02*
G75*
G03*
X2526500Y-11239500I-50000J0D01*
G01*
X2489500Y-4077500D02*
X2589500Y-4177500D01*
X2589500Y-4077500D02*
X2489500Y-4177500D01*
X2589500Y-4127500D02*
G75*
G03*
X2589500Y-4127500I-50000J0D01*
G01*
X2680500Y-5855500D02*
X2780500Y-5955500D01*
X2780500Y-5855500D02*
X2680500Y-5955500D01*
X2780500Y-5905500D02*
G75*
G03*
X2780500Y-5905500I-50000J0D01*
G01*
X2680500Y-6109500D02*
X2780500Y-6209500D01*
X2780500Y-6109500D02*
X2680500Y-6209500D01*
X2780500Y-6159500D02*
G75*
G03*
X2780500Y-6159500I-50000J0D01*
G01*
X2680500Y-6363500D02*
X2780500Y-6463500D01*
X2780500Y-6363500D02*
X2680500Y-6463500D01*
X2780500Y-6413500D02*
G75*
G03*
X2780500Y-6413500I-50000J0D01*
G01*
X2680500Y-6617500D02*
X2780500Y-6717500D01*
X2780500Y-6617500D02*
X2680500Y-6717500D01*
X2780500Y-6667500D02*
G75*
G03*
X2780500Y-6667500I-50000J0D01*
G01*
X2680500Y-6871500D02*
X2780500Y-6971500D01*
X2780500Y-6871500D02*
X2680500Y-6971500D01*
X2780500Y-6921500D02*
G75*
G03*
X2780500Y-6921500I-50000J0D01*
G01*
X2680500Y-7125500D02*
X2780500Y-7225500D01*
X2780500Y-7125500D02*
X2680500Y-7225500D01*
X2780500Y-7175500D02*
G75*
G03*
X2780500Y-7175500I-50000J0D01*
G01*
X2680500Y-7379500D02*
X2780500Y-7479500D01*
X2780500Y-7379500D02*
X2680500Y-7479500D01*
X2780500Y-7429500D02*
G75*
G03*
X2780500Y-7429500I-50000J0D01*
G01*
X2680500Y-7633500D02*
X2780500Y-7733500D01*
X2780500Y-7633500D02*
X2680500Y-7733500D01*
X2780500Y-7683500D02*
G75*
G03*
X2780500Y-7683500I-50000J0D01*
G01*
X2680500Y-7887500D02*
X2780500Y-7987500D01*
X2780500Y-7887500D02*
X2680500Y-7987500D01*
X2780500Y-7937500D02*
G75*
G03*
X2780500Y-7937500I-50000J0D01*
G01*
X2680500Y-8141500D02*
X2780500Y-8241500D01*
X2780500Y-8141500D02*
X2680500Y-8241500D01*
X2780500Y-8191500D02*
G75*
G03*
X2780500Y-8191500I-50000J0D01*
G01*
X2680500Y-8395500D02*
X2780500Y-8495500D01*
X2780500Y-8395500D02*
X2680500Y-8495500D01*
X2780500Y-8445500D02*
G75*
G03*
X2780500Y-8445500I-50000J0D01*
G01*
X2680500Y-8649500D02*
X2780500Y-8749500D01*
X2780500Y-8649500D02*
X2680500Y-8749500D01*
X2780500Y-8699500D02*
G75*
G03*
X2780500Y-8699500I-50000J0D01*
G01*
X2680500Y-8903500D02*
X2780500Y-9003500D01*
X2780500Y-8903500D02*
X2680500Y-9003500D01*
X2780500Y-8953500D02*
G75*
G03*
X2780500Y-8953500I-50000J0D01*
G01*
X2680500Y-9157500D02*
X2780500Y-9257500D01*
X2780500Y-9157500D02*
X2680500Y-9257500D01*
X2780500Y-9207500D02*
G75*
G03*
X2780500Y-9207500I-50000J0D01*
G01*
X2680500Y-9411500D02*
X2780500Y-9511500D01*
X2780500Y-9411500D02*
X2680500Y-9511500D01*
X2780500Y-9461500D02*
G75*
G03*
X2780500Y-9461500I-50000J0D01*
G01*
X2680500Y-9665500D02*
X2780500Y-9765500D01*
X2780500Y-9665500D02*
X2680500Y-9765500D01*
X2780500Y-9715500D02*
G75*
G03*
X2780500Y-9715500I-50000J0D01*
G01*
X2680500Y-9919500D02*
X2780500Y-10019500D01*
X2780500Y-9919500D02*
X2680500Y-10019500D01*
X2780500Y-9969500D02*
G75*
G03*
X2780500Y-9969500I-50000J0D01*
G01*
X2680500Y-10173500D02*
X2780500Y-10273500D01*
X2780500Y-10173500D02*
X2680500Y-10273500D01*
X2780500Y-10223500D02*
G75*
G03*
X2780500Y-10223500I-50000J0D01*
G01*
X2680500Y-10427500D02*
X2780500Y-10527500D01*
X2780500Y-10427500D02*
X2680500Y-10527500D01*
X2780500Y-10477500D02*
G75*
G03*
X2780500Y-10477500I-50000J0D01*
G01*
X2680500Y-10681500D02*
X2780500Y-10781500D01*
X2780500Y-10681500D02*
X2680500Y-10781500D01*
X2780500Y-10731500D02*
G75*
G03*
X2780500Y-10731500I-50000J0D01*
G01*
X2680500Y-10935500D02*
X2780500Y-11035500D01*
X2780500Y-10935500D02*
X2680500Y-11035500D01*
X2780500Y-10985500D02*
G75*
G03*
X2780500Y-10985500I-50000J0D01*
G01*
X2680500Y-11189500D02*
X2780500Y-11289500D01*
X2780500Y-11189500D02*
X2680500Y-11289500D01*
X2780500Y-11239500D02*
G75*
G03*
X2780500Y-11239500I-50000J0D01*
G01*
X2871000Y-4077500D02*
X2971000Y-4177500D01*
X2971000Y-4077500D02*
X2871000Y-4177500D01*
X2971000Y-4127500D02*
G75*
G03*
X2971000Y-4127500I-50000J0D01*
G01*
X2934500Y-5855500D02*
X3034500Y-5955500D01*
X3034500Y-5855500D02*
X2934500Y-5955500D01*
X3034500Y-5905500D02*
G75*
G03*
X3034500Y-5905500I-50000J0D01*
G01*
X2934500Y-6109500D02*
X3034500Y-6209500D01*
X3034500Y-6109500D02*
X2934500Y-6209500D01*
X3034500Y-6159500D02*
G75*
G03*
X3034500Y-6159500I-50000J0D01*
G01*
X2934500Y-6363500D02*
X3034500Y-6463500D01*
X3034500Y-6363500D02*
X2934500Y-6463500D01*
X3034500Y-6413500D02*
G75*
G03*
X3034500Y-6413500I-50000J0D01*
G01*
X2934500Y-6617500D02*
X3034500Y-6717500D01*
X3034500Y-6617500D02*
X2934500Y-6717500D01*
X3034500Y-6667500D02*
G75*
G03*
X3034500Y-6667500I-50000J0D01*
G01*
X2934500Y-6871500D02*
X3034500Y-6971500D01*
X3034500Y-6871500D02*
X2934500Y-6971500D01*
X3034500Y-6921500D02*
G75*
G03*
X3034500Y-6921500I-50000J0D01*
G01*
X2934500Y-7125500D02*
X3034500Y-7225500D01*
X3034500Y-7125500D02*
X2934500Y-7225500D01*
X3034500Y-7175500D02*
G75*
G03*
X3034500Y-7175500I-50000J0D01*
G01*
X2934500Y-7379500D02*
X3034500Y-7479500D01*
X3034500Y-7379500D02*
X2934500Y-7479500D01*
X3034500Y-7429500D02*
G75*
G03*
X3034500Y-7429500I-50000J0D01*
G01*
X2934500Y-7633500D02*
X3034500Y-7733500D01*
X3034500Y-7633500D02*
X2934500Y-7733500D01*
X3034500Y-7683500D02*
G75*
G03*
X3034500Y-7683500I-50000J0D01*
G01*
X2934500Y-7887500D02*
X3034500Y-7987500D01*
X3034500Y-7887500D02*
X2934500Y-7987500D01*
X3034500Y-7937500D02*
G75*
G03*
X3034500Y-7937500I-50000J0D01*
G01*
X2934500Y-8141500D02*
X3034500Y-8241500D01*
X3034500Y-8141500D02*
X2934500Y-8241500D01*
X3034500Y-8191500D02*
G75*
G03*
X3034500Y-8191500I-50000J0D01*
G01*
X2934500Y-8395500D02*
X3034500Y-8495500D01*
X3034500Y-8395500D02*
X2934500Y-8495500D01*
X3034500Y-8445500D02*
G75*
G03*
X3034500Y-8445500I-50000J0D01*
G01*
X2934500Y-8649500D02*
X3034500Y-8749500D01*
X3034500Y-8649500D02*
X2934500Y-8749500D01*
X3034500Y-8699500D02*
G75*
G03*
X3034500Y-8699500I-50000J0D01*
G01*
X2934500Y-8903500D02*
X3034500Y-9003500D01*
X3034500Y-8903500D02*
X2934500Y-9003500D01*
X3034500Y-8953500D02*
G75*
G03*
X3034500Y-8953500I-50000J0D01*
G01*
X2934500Y-9157500D02*
X3034500Y-9257500D01*
X3034500Y-9157500D02*
X2934500Y-9257500D01*
X3034500Y-9207500D02*
G75*
G03*
X3034500Y-9207500I-50000J0D01*
G01*
X2934500Y-9411500D02*
X3034500Y-9511500D01*
X3034500Y-9411500D02*
X2934500Y-9511500D01*
X3034500Y-9461500D02*
G75*
G03*
X3034500Y-9461500I-50000J0D01*
G01*
X2934500Y-9665500D02*
X3034500Y-9765500D01*
X3034500Y-9665500D02*
X2934500Y-9765500D01*
X3034500Y-9715500D02*
G75*
G03*
X3034500Y-9715500I-50000J0D01*
G01*
X2934500Y-9919500D02*
X3034500Y-10019500D01*
X3034500Y-9919500D02*
X2934500Y-10019500D01*
X3034500Y-9969500D02*
G75*
G03*
X3034500Y-9969500I-50000J0D01*
G01*
X2934500Y-10173500D02*
X3034500Y-10273500D01*
X3034500Y-10173500D02*
X2934500Y-10273500D01*
X3034500Y-10223500D02*
G75*
G03*
X3034500Y-10223500I-50000J0D01*
G01*
X2934500Y-10427500D02*
X3034500Y-10527500D01*
X3034500Y-10427500D02*
X2934500Y-10527500D01*
X3034500Y-10477500D02*
G75*
G03*
X3034500Y-10477500I-50000J0D01*
G01*
X2934500Y-10681500D02*
X3034500Y-10781500D01*
X3034500Y-10681500D02*
X2934500Y-10781500D01*
X3034500Y-10731500D02*
G75*
G03*
X3034500Y-10731500I-50000J0D01*
G01*
X2934500Y-10935500D02*
X3034500Y-11035500D01*
X3034500Y-10935500D02*
X2934500Y-11035500D01*
X3034500Y-10985500D02*
G75*
G03*
X3034500Y-10985500I-50000J0D01*
G01*
X2934500Y-11189500D02*
X3034500Y-11289500D01*
X3034500Y-11189500D02*
X2934500Y-11289500D01*
X3034500Y-11239500D02*
G75*
G03*
X3034500Y-11239500I-50000J0D01*
G01*
X3125000Y-4077500D02*
X3225000Y-4177500D01*
X3225000Y-4077500D02*
X3125000Y-4177500D01*
X3225000Y-4127500D02*
G75*
G03*
X3225000Y-4127500I-50000J0D01*
G01*
X3188500Y-5855500D02*
X3288500Y-5955500D01*
X3288500Y-5855500D02*
X3188500Y-5955500D01*
X3288500Y-5905500D02*
G75*
G03*
X3288500Y-5905500I-50000J0D01*
G01*
X3188500Y-6109500D02*
X3288500Y-6209500D01*
X3288500Y-6109500D02*
X3188500Y-6209500D01*
X3288500Y-6159500D02*
G75*
G03*
X3288500Y-6159500I-50000J0D01*
G01*
X3188500Y-6363500D02*
X3288500Y-6463500D01*
X3288500Y-6363500D02*
X3188500Y-6463500D01*
X3288500Y-6413500D02*
G75*
G03*
X3288500Y-6413500I-50000J0D01*
G01*
X3188500Y-6617500D02*
X3288500Y-6717500D01*
X3288500Y-6617500D02*
X3188500Y-6717500D01*
X3288500Y-6667500D02*
G75*
G03*
X3288500Y-6667500I-50000J0D01*
G01*
X3188500Y-6871500D02*
X3288500Y-6971500D01*
X3288500Y-6871500D02*
X3188500Y-6971500D01*
X3288500Y-6921500D02*
G75*
G03*
X3288500Y-6921500I-50000J0D01*
G01*
X3188500Y-7125500D02*
X3288500Y-7225500D01*
X3288500Y-7125500D02*
X3188500Y-7225500D01*
X3288500Y-7175500D02*
G75*
G03*
X3288500Y-7175500I-50000J0D01*
G01*
X3188500Y-7379500D02*
X3288500Y-7479500D01*
X3288500Y-7379500D02*
X3188500Y-7479500D01*
X3288500Y-7429500D02*
G75*
G03*
X3288500Y-7429500I-50000J0D01*
G01*
X3188500Y-7633500D02*
X3288500Y-7733500D01*
X3288500Y-7633500D02*
X3188500Y-7733500D01*
X3288500Y-7683500D02*
G75*
G03*
X3288500Y-7683500I-50000J0D01*
G01*
X3188500Y-7887500D02*
X3288500Y-7987500D01*
X3288500Y-7887500D02*
X3188500Y-7987500D01*
X3288500Y-7937500D02*
G75*
G03*
X3288500Y-7937500I-50000J0D01*
G01*
X3188500Y-8141500D02*
X3288500Y-8241500D01*
X3288500Y-8141500D02*
X3188500Y-8241500D01*
X3288500Y-8191500D02*
G75*
G03*
X3288500Y-8191500I-50000J0D01*
G01*
X3188500Y-8395500D02*
X3288500Y-8495500D01*
X3288500Y-8395500D02*
X3188500Y-8495500D01*
X3288500Y-8445500D02*
G75*
G03*
X3288500Y-8445500I-50000J0D01*
G01*
X3188500Y-8649500D02*
X3288500Y-8749500D01*
X3288500Y-8649500D02*
X3188500Y-8749500D01*
X3288500Y-8699500D02*
G75*
G03*
X3288500Y-8699500I-50000J0D01*
G01*
X3188500Y-8903500D02*
X3288500Y-9003500D01*
X3288500Y-8903500D02*
X3188500Y-9003500D01*
X3288500Y-8953500D02*
G75*
G03*
X3288500Y-8953500I-50000J0D01*
G01*
X3188500Y-9157500D02*
X3288500Y-9257500D01*
X3288500Y-9157500D02*
X3188500Y-9257500D01*
X3288500Y-9207500D02*
G75*
G03*
X3288500Y-9207500I-50000J0D01*
G01*
X3188500Y-9411500D02*
X3288500Y-9511500D01*
X3288500Y-9411500D02*
X3188500Y-9511500D01*
X3288500Y-9461500D02*
G75*
G03*
X3288500Y-9461500I-50000J0D01*
G01*
X3188500Y-9665500D02*
X3288500Y-9765500D01*
X3288500Y-9665500D02*
X3188500Y-9765500D01*
X3288500Y-9715500D02*
G75*
G03*
X3288500Y-9715500I-50000J0D01*
G01*
X3188500Y-9919500D02*
X3288500Y-10019500D01*
X3288500Y-9919500D02*
X3188500Y-10019500D01*
X3288500Y-9969500D02*
G75*
G03*
X3288500Y-9969500I-50000J0D01*
G01*
X3188500Y-10173500D02*
X3288500Y-10273500D01*
X3288500Y-10173500D02*
X3188500Y-10273500D01*
X3288500Y-10223500D02*
G75*
G03*
X3288500Y-10223500I-50000J0D01*
G01*
X3188500Y-10427500D02*
X3288500Y-10527500D01*
X3288500Y-10427500D02*
X3188500Y-10527500D01*
X3288500Y-10477500D02*
G75*
G03*
X3288500Y-10477500I-50000J0D01*
G01*
X3188500Y-10681500D02*
X3288500Y-10781500D01*
X3288500Y-10681500D02*
X3188500Y-10781500D01*
X3288500Y-10731500D02*
G75*
G03*
X3288500Y-10731500I-50000J0D01*
G01*
X3188500Y-10935500D02*
X3288500Y-11035500D01*
X3288500Y-10935500D02*
X3188500Y-11035500D01*
X3288500Y-10985500D02*
G75*
G03*
X3288500Y-10985500I-50000J0D01*
G01*
X3188500Y-11189500D02*
X3288500Y-11289500D01*
X3288500Y-11189500D02*
X3188500Y-11289500D01*
X3288500Y-11239500D02*
G75*
G03*
X3288500Y-11239500I-50000J0D01*
G01*
X3442500Y-7633500D02*
X3542500Y-7733500D01*
X3542500Y-7633500D02*
X3442500Y-7733500D01*
X3542500Y-7683500D02*
G75*
G03*
X3542500Y-7683500I-50000J0D01*
G01*
X3442500Y-7887500D02*
X3542500Y-7987500D01*
X3542500Y-7887500D02*
X3442500Y-7987500D01*
X3542500Y-7937500D02*
G75*
G03*
X3542500Y-7937500I-50000J0D01*
G01*
X3442500Y-8141500D02*
X3542500Y-8241500D01*
X3542500Y-8141500D02*
X3442500Y-8241500D01*
X3542500Y-8191500D02*
G75*
G03*
X3542500Y-8191500I-50000J0D01*
G01*
X3442500Y-8395500D02*
X3542500Y-8495500D01*
X3542500Y-8395500D02*
X3442500Y-8495500D01*
X3542500Y-8445500D02*
G75*
G03*
X3542500Y-8445500I-50000J0D01*
G01*
X3442500Y-8649500D02*
X3542500Y-8749500D01*
X3542500Y-8649500D02*
X3442500Y-8749500D01*
X3542500Y-8699500D02*
G75*
G03*
X3542500Y-8699500I-50000J0D01*
G01*
X3442500Y-8903500D02*
X3542500Y-9003500D01*
X3542500Y-8903500D02*
X3442500Y-9003500D01*
X3542500Y-8953500D02*
G75*
G03*
X3542500Y-8953500I-50000J0D01*
G01*
X3442500Y-9157500D02*
X3542500Y-9257500D01*
X3542500Y-9157500D02*
X3442500Y-9257500D01*
X3542500Y-9207500D02*
G75*
G03*
X3542500Y-9207500I-50000J0D01*
G01*
X3442500Y-9411500D02*
X3542500Y-9511500D01*
X3542500Y-9411500D02*
X3442500Y-9511500D01*
X3542500Y-9461500D02*
G75*
G03*
X3542500Y-9461500I-50000J0D01*
G01*
X3442500Y-9665500D02*
X3542500Y-9765500D01*
X3542500Y-9665500D02*
X3442500Y-9765500D01*
X3542500Y-9715500D02*
G75*
G03*
X3542500Y-9715500I-50000J0D01*
G01*
X3442500Y-9919500D02*
X3542500Y-10019500D01*
X3542500Y-9919500D02*
X3442500Y-10019500D01*
X3542500Y-9969500D02*
G75*
G03*
X3542500Y-9969500I-50000J0D01*
G01*
X3442500Y-10173500D02*
X3542500Y-10273500D01*
X3542500Y-10173500D02*
X3442500Y-10273500D01*
X3542500Y-10223500D02*
G75*
G03*
X3542500Y-10223500I-50000J0D01*
G01*
X3442500Y-10427500D02*
X3542500Y-10527500D01*
X3542500Y-10427500D02*
X3442500Y-10527500D01*
X3542500Y-10477500D02*
G75*
G03*
X3542500Y-10477500I-50000J0D01*
G01*
X3442500Y-10681500D02*
X3542500Y-10781500D01*
X3542500Y-10681500D02*
X3442500Y-10781500D01*
X3542500Y-10731500D02*
G75*
G03*
X3542500Y-10731500I-50000J0D01*
G01*
X3442500Y-10935500D02*
X3542500Y-11035500D01*
X3542500Y-10935500D02*
X3442500Y-11035500D01*
X3542500Y-10985500D02*
G75*
G03*
X3542500Y-10985500I-50000J0D01*
G01*
X3442500Y-11189500D02*
X3542500Y-11289500D01*
X3542500Y-11189500D02*
X3442500Y-11289500D01*
X3542500Y-11239500D02*
G75*
G03*
X3542500Y-11239500I-50000J0D01*
G01*
X3696500Y-8141500D02*
X3796500Y-8241500D01*
X3796500Y-8141500D02*
X3696500Y-8241500D01*
X3796500Y-8191500D02*
G75*
G03*
X3796500Y-8191500I-50000J0D01*
G01*
X3696500Y-8395500D02*
X3796500Y-8495500D01*
X3796500Y-8395500D02*
X3696500Y-8495500D01*
X3796500Y-8445500D02*
G75*
G03*
X3796500Y-8445500I-50000J0D01*
G01*
X3696500Y-8649500D02*
X3796500Y-8749500D01*
X3796500Y-8649500D02*
X3696500Y-8749500D01*
X3796500Y-8699500D02*
G75*
G03*
X3796500Y-8699500I-50000J0D01*
G01*
X3696500Y-8903500D02*
X3796500Y-9003500D01*
X3796500Y-8903500D02*
X3696500Y-9003500D01*
X3796500Y-8953500D02*
G75*
G03*
X3796500Y-8953500I-50000J0D01*
G01*
X3696500Y-9157500D02*
X3796500Y-9257500D01*
X3796500Y-9157500D02*
X3696500Y-9257500D01*
X3796500Y-9207500D02*
G75*
G03*
X3796500Y-9207500I-50000J0D01*
G01*
X3696500Y-9411500D02*
X3796500Y-9511500D01*
X3796500Y-9411500D02*
X3696500Y-9511500D01*
X3796500Y-9461500D02*
G75*
G03*
X3796500Y-9461500I-50000J0D01*
G01*
X3696500Y-9665500D02*
X3796500Y-9765500D01*
X3796500Y-9665500D02*
X3696500Y-9765500D01*
X3796500Y-9715500D02*
G75*
G03*
X3796500Y-9715500I-50000J0D01*
G01*
X3696500Y-9919500D02*
X3796500Y-10019500D01*
X3796500Y-9919500D02*
X3696500Y-10019500D01*
X3796500Y-9969500D02*
G75*
G03*
X3796500Y-9969500I-50000J0D01*
G01*
X3696500Y-10173500D02*
X3796500Y-10273500D01*
X3796500Y-10173500D02*
X3696500Y-10273500D01*
X3796500Y-10223500D02*
G75*
G03*
X3796500Y-10223500I-50000J0D01*
G01*
X3696500Y-10427500D02*
X3796500Y-10527500D01*
X3796500Y-10427500D02*
X3696500Y-10527500D01*
X3796500Y-10477500D02*
G75*
G03*
X3796500Y-10477500I-50000J0D01*
G01*
X3696500Y-10681500D02*
X3796500Y-10781500D01*
X3796500Y-10681500D02*
X3696500Y-10781500D01*
X3796500Y-10731500D02*
G75*
G03*
X3796500Y-10731500I-50000J0D01*
G01*
X3696500Y-10935500D02*
X3796500Y-11035500D01*
X3796500Y-10935500D02*
X3696500Y-11035500D01*
X3796500Y-10985500D02*
G75*
G03*
X3796500Y-10985500I-50000J0D01*
G01*
X3696500Y-11189500D02*
X3796500Y-11289500D01*
X3796500Y-11189500D02*
X3696500Y-11289500D01*
X3796500Y-11239500D02*
G75*
G03*
X3796500Y-11239500I-50000J0D01*
G01*
X3950000Y-3061500D02*
X4050000Y-3161500D01*
X4050000Y-3061500D02*
X3950000Y-3161500D01*
X4050000Y-3111500D02*
G75*
G03*
X4050000Y-3111500I-50000J0D01*
G01*
X3950500Y-8395500D02*
X4050500Y-8495500D01*
X4050500Y-8395500D02*
X3950500Y-8495500D01*
X4050500Y-8445500D02*
G75*
G03*
X4050500Y-8445500I-50000J0D01*
G01*
X3950500Y-8649500D02*
X4050500Y-8749500D01*
X4050500Y-8649500D02*
X3950500Y-8749500D01*
X4050500Y-8699500D02*
G75*
G03*
X4050500Y-8699500I-50000J0D01*
G01*
X3950500Y-8903500D02*
X4050500Y-9003500D01*
X4050500Y-8903500D02*
X3950500Y-9003500D01*
X4050500Y-8953500D02*
G75*
G03*
X4050500Y-8953500I-50000J0D01*
G01*
X3950500Y-9157500D02*
X4050500Y-9257500D01*
X4050500Y-9157500D02*
X3950500Y-9257500D01*
X4050500Y-9207500D02*
G75*
G03*
X4050500Y-9207500I-50000J0D01*
G01*
X3950500Y-9411500D02*
X4050500Y-9511500D01*
X4050500Y-9411500D02*
X3950500Y-9511500D01*
X4050500Y-9461500D02*
G75*
G03*
X4050500Y-9461500I-50000J0D01*
G01*
X3950500Y-9665500D02*
X4050500Y-9765500D01*
X4050500Y-9665500D02*
X3950500Y-9765500D01*
X4050500Y-9715500D02*
G75*
G03*
X4050500Y-9715500I-50000J0D01*
G01*
X3950500Y-9919500D02*
X4050500Y-10019500D01*
X4050500Y-9919500D02*
X3950500Y-10019500D01*
X4050500Y-9969500D02*
G75*
G03*
X4050500Y-9969500I-50000J0D01*
G01*
X3950500Y-10173500D02*
X4050500Y-10273500D01*
X4050500Y-10173500D02*
X3950500Y-10273500D01*
X4050500Y-10223500D02*
G75*
G03*
X4050500Y-10223500I-50000J0D01*
G01*
X3950500Y-10427500D02*
X4050500Y-10527500D01*
X4050500Y-10427500D02*
X3950500Y-10527500D01*
X4050500Y-10477500D02*
G75*
G03*
X4050500Y-10477500I-50000J0D01*
G01*
X3950500Y-10681500D02*
X4050500Y-10781500D01*
X4050500Y-10681500D02*
X3950500Y-10781500D01*
X4050500Y-10731500D02*
G75*
G03*
X4050500Y-10731500I-50000J0D01*
G01*
X3950500Y-10935500D02*
X4050500Y-11035500D01*
X4050500Y-10935500D02*
X3950500Y-11035500D01*
X4050500Y-10985500D02*
G75*
G03*
X4050500Y-10985500I-50000J0D01*
G01*
X3950500Y-11189500D02*
X4050500Y-11289500D01*
X4050500Y-11189500D02*
X3950500Y-11289500D01*
X4050500Y-11239500D02*
G75*
G03*
X4050500Y-11239500I-50000J0D01*
G01*
X4204000Y-3061500D02*
X4304000Y-3161500D01*
X4304000Y-3061500D02*
X4204000Y-3161500D01*
X4304000Y-3111500D02*
G75*
G03*
X4304000Y-3111500I-50000J0D01*
G01*
X4204500Y-8649500D02*
X4304500Y-8749500D01*
X4304500Y-8649500D02*
X4204500Y-8749500D01*
X4304500Y-8699500D02*
G75*
G03*
X4304500Y-8699500I-50000J0D01*
G01*
X4204500Y-8903500D02*
X4304500Y-9003500D01*
X4304500Y-8903500D02*
X4204500Y-9003500D01*
X4304500Y-8953500D02*
G75*
G03*
X4304500Y-8953500I-50000J0D01*
G01*
X4204500Y-9157500D02*
X4304500Y-9257500D01*
X4304500Y-9157500D02*
X4204500Y-9257500D01*
X4304500Y-9207500D02*
G75*
G03*
X4304500Y-9207500I-50000J0D01*
G01*
X4204500Y-9411500D02*
X4304500Y-9511500D01*
X4304500Y-9411500D02*
X4204500Y-9511500D01*
X4304500Y-9461500D02*
G75*
G03*
X4304500Y-9461500I-50000J0D01*
G01*
X4204500Y-9665500D02*
X4304500Y-9765500D01*
X4304500Y-9665500D02*
X4204500Y-9765500D01*
X4304500Y-9715500D02*
G75*
G03*
X4304500Y-9715500I-50000J0D01*
G01*
X4204500Y-9919500D02*
X4304500Y-10019500D01*
X4304500Y-9919500D02*
X4204500Y-10019500D01*
X4304500Y-9969500D02*
G75*
G03*
X4304500Y-9969500I-50000J0D01*
G01*
X4204500Y-10173500D02*
X4304500Y-10273500D01*
X4304500Y-10173500D02*
X4204500Y-10273500D01*
X4304500Y-10223500D02*
G75*
G03*
X4304500Y-10223500I-50000J0D01*
G01*
X4204500Y-10427500D02*
X4304500Y-10527500D01*
X4304500Y-10427500D02*
X4204500Y-10527500D01*
X4304500Y-10477500D02*
G75*
G03*
X4304500Y-10477500I-50000J0D01*
G01*
X4204500Y-10681500D02*
X4304500Y-10781500D01*
X4304500Y-10681500D02*
X4204500Y-10781500D01*
X4304500Y-10731500D02*
G75*
G03*
X4304500Y-10731500I-50000J0D01*
G01*
X4204500Y-10935500D02*
X4304500Y-11035500D01*
X4304500Y-10935500D02*
X4204500Y-11035500D01*
X4304500Y-10985500D02*
G75*
G03*
X4304500Y-10985500I-50000J0D01*
G01*
X4204500Y-11189500D02*
X4304500Y-11289500D01*
X4304500Y-11189500D02*
X4204500Y-11289500D01*
X4304500Y-11239500D02*
G75*
G03*
X4304500Y-11239500I-50000J0D01*
G01*
X4458500Y-8903500D02*
X4558500Y-9003500D01*
X4558500Y-8903500D02*
X4458500Y-9003500D01*
X4558500Y-8953500D02*
G75*
G03*
X4558500Y-8953500I-50000J0D01*
G01*
X4458500Y-9157500D02*
X4558500Y-9257500D01*
X4558500Y-9157500D02*
X4458500Y-9257500D01*
X4558500Y-9207500D02*
G75*
G03*
X4558500Y-9207500I-50000J0D01*
G01*
X4458500Y-9411500D02*
X4558500Y-9511500D01*
X4558500Y-9411500D02*
X4458500Y-9511500D01*
X4558500Y-9461500D02*
G75*
G03*
X4558500Y-9461500I-50000J0D01*
G01*
X4458500Y-9665500D02*
X4558500Y-9765500D01*
X4558500Y-9665500D02*
X4458500Y-9765500D01*
X4558500Y-9715500D02*
G75*
G03*
X4558500Y-9715500I-50000J0D01*
G01*
X4458500Y-9919500D02*
X4558500Y-10019500D01*
X4558500Y-9919500D02*
X4458500Y-10019500D01*
X4558500Y-9969500D02*
G75*
G03*
X4558500Y-9969500I-50000J0D01*
G01*
X4458500Y-10173500D02*
X4558500Y-10273500D01*
X4558500Y-10173500D02*
X4458500Y-10273500D01*
X4558500Y-10223500D02*
G75*
G03*
X4558500Y-10223500I-50000J0D01*
G01*
X4458500Y-10427500D02*
X4558500Y-10527500D01*
X4558500Y-10427500D02*
X4458500Y-10527500D01*
X4558500Y-10477500D02*
G75*
G03*
X4558500Y-10477500I-50000J0D01*
G01*
X4458500Y-10681500D02*
X4558500Y-10781500D01*
X4558500Y-10681500D02*
X4458500Y-10781500D01*
X4558500Y-10731500D02*
G75*
G03*
X4558500Y-10731500I-50000J0D01*
G01*
X4458500Y-10935500D02*
X4558500Y-11035500D01*
X4558500Y-10935500D02*
X4458500Y-11035500D01*
X4558500Y-10985500D02*
G75*
G03*
X4558500Y-10985500I-50000J0D01*
G01*
X4458500Y-11189500D02*
X4558500Y-11289500D01*
X4558500Y-11189500D02*
X4458500Y-11289500D01*
X4558500Y-11239500D02*
G75*
G03*
X4558500Y-11239500I-50000J0D01*
G01*
X4712500Y-9157500D02*
X4812500Y-9257500D01*
X4812500Y-9157500D02*
X4712500Y-9257500D01*
X4812500Y-9207500D02*
G75*
G03*
X4812500Y-9207500I-50000J0D01*
G01*
X4712500Y-9411500D02*
X4812500Y-9511500D01*
X4812500Y-9411500D02*
X4712500Y-9511500D01*
X4812500Y-9461500D02*
G75*
G03*
X4812500Y-9461500I-50000J0D01*
G01*
X4712500Y-9665500D02*
X4812500Y-9765500D01*
X4812500Y-9665500D02*
X4712500Y-9765500D01*
X4812500Y-9715500D02*
G75*
G03*
X4812500Y-9715500I-50000J0D01*
G01*
X4712500Y-9919500D02*
X4812500Y-10019500D01*
X4812500Y-9919500D02*
X4712500Y-10019500D01*
X4812500Y-9969500D02*
G75*
G03*
X4812500Y-9969500I-50000J0D01*
G01*
X4712500Y-10173500D02*
X4812500Y-10273500D01*
X4812500Y-10173500D02*
X4712500Y-10273500D01*
X4812500Y-10223500D02*
G75*
G03*
X4812500Y-10223500I-50000J0D01*
G01*
X4712500Y-10427500D02*
X4812500Y-10527500D01*
X4812500Y-10427500D02*
X4712500Y-10527500D01*
X4812500Y-10477500D02*
G75*
G03*
X4812500Y-10477500I-50000J0D01*
G01*
X4712500Y-10681500D02*
X4812500Y-10781500D01*
X4812500Y-10681500D02*
X4712500Y-10781500D01*
X4812500Y-10731500D02*
G75*
G03*
X4812500Y-10731500I-50000J0D01*
G01*
X4712500Y-10935500D02*
X4812500Y-11035500D01*
X4812500Y-10935500D02*
X4712500Y-11035500D01*
X4812500Y-10985500D02*
G75*
G03*
X4812500Y-10985500I-50000J0D01*
G01*
X4712500Y-11189500D02*
X4812500Y-11289500D01*
X4812500Y-11189500D02*
X4712500Y-11289500D01*
X4812500Y-11239500D02*
G75*
G03*
X4812500Y-11239500I-50000J0D01*
G01*
X4966500Y-9157500D02*
X5066500Y-9257500D01*
X5066500Y-9157500D02*
X4966500Y-9257500D01*
X5066500Y-9207500D02*
G75*
G03*
X5066500Y-9207500I-50000J0D01*
G01*
X4966500Y-9411500D02*
X5066500Y-9511500D01*
X5066500Y-9411500D02*
X4966500Y-9511500D01*
X5066500Y-9461500D02*
G75*
G03*
X5066500Y-9461500I-50000J0D01*
G01*
X4966500Y-9665500D02*
X5066500Y-9765500D01*
X5066500Y-9665500D02*
X4966500Y-9765500D01*
X5066500Y-9715500D02*
G75*
G03*
X5066500Y-9715500I-50000J0D01*
G01*
X4966500Y-9919500D02*
X5066500Y-10019500D01*
X5066500Y-9919500D02*
X4966500Y-10019500D01*
X5066500Y-9969500D02*
G75*
G03*
X5066500Y-9969500I-50000J0D01*
G01*
X4966500Y-10173500D02*
X5066500Y-10273500D01*
X5066500Y-10173500D02*
X4966500Y-10273500D01*
X5066500Y-10223500D02*
G75*
G03*
X5066500Y-10223500I-50000J0D01*
G01*
X4966500Y-10427500D02*
X5066500Y-10527500D01*
X5066500Y-10427500D02*
X4966500Y-10527500D01*
X5066500Y-10477500D02*
G75*
G03*
X5066500Y-10477500I-50000J0D01*
G01*
X4966500Y-10681500D02*
X5066500Y-10781500D01*
X5066500Y-10681500D02*
X4966500Y-10781500D01*
X5066500Y-10731500D02*
G75*
G03*
X5066500Y-10731500I-50000J0D01*
G01*
X4966500Y-10935500D02*
X5066500Y-11035500D01*
X5066500Y-10935500D02*
X4966500Y-11035500D01*
X5066500Y-10985500D02*
G75*
G03*
X5066500Y-10985500I-50000J0D01*
G01*
X4966500Y-11189500D02*
X5066500Y-11289500D01*
X5066500Y-11189500D02*
X4966500Y-11289500D01*
X5066500Y-11239500D02*
G75*
G03*
X5066500Y-11239500I-50000J0D01*
G01*
X5220500Y-9157500D02*
X5320500Y-9257500D01*
X5320500Y-9157500D02*
X5220500Y-9257500D01*
X5320500Y-9207500D02*
G75*
G03*
X5320500Y-9207500I-50000J0D01*
G01*
X5220500Y-9411500D02*
X5320500Y-9511500D01*
X5320500Y-9411500D02*
X5220500Y-9511500D01*
X5320500Y-9461500D02*
G75*
G03*
X5320500Y-9461500I-50000J0D01*
G01*
X5220500Y-9665500D02*
X5320500Y-9765500D01*
X5320500Y-9665500D02*
X5220500Y-9765500D01*
X5320500Y-9715500D02*
G75*
G03*
X5320500Y-9715500I-50000J0D01*
G01*
X5220500Y-9919500D02*
X5320500Y-10019500D01*
X5320500Y-9919500D02*
X5220500Y-10019500D01*
X5320500Y-9969500D02*
G75*
G03*
X5320500Y-9969500I-50000J0D01*
G01*
X5220500Y-10173500D02*
X5320500Y-10273500D01*
X5320500Y-10173500D02*
X5220500Y-10273500D01*
X5320500Y-10223500D02*
G75*
G03*
X5320500Y-10223500I-50000J0D01*
G01*
X5220500Y-10427500D02*
X5320500Y-10527500D01*
X5320500Y-10427500D02*
X5220500Y-10527500D01*
X5320500Y-10477500D02*
G75*
G03*
X5320500Y-10477500I-50000J0D01*
G01*
X5220500Y-10681500D02*
X5320500Y-10781500D01*
X5320500Y-10681500D02*
X5220500Y-10781500D01*
X5320500Y-10731500D02*
G75*
G03*
X5320500Y-10731500I-50000J0D01*
G01*
X5220500Y-10935500D02*
X5320500Y-11035500D01*
X5320500Y-10935500D02*
X5220500Y-11035500D01*
X5320500Y-10985500D02*
G75*
G03*
X5320500Y-10985500I-50000J0D01*
G01*
X5220500Y-11189500D02*
X5320500Y-11289500D01*
X5320500Y-11189500D02*
X5220500Y-11289500D01*
X5320500Y-11239500D02*
G75*
G03*
X5320500Y-11239500I-50000J0D01*
G01*
X5411000Y-3252000D02*
X5511000Y-3352000D01*
X5511000Y-3252000D02*
X5411000Y-3352000D01*
X5511000Y-3302000D02*
G75*
G03*
X5511000Y-3302000I-50000J0D01*
G01*
X5474500Y-9411500D02*
X5574500Y-9511500D01*
X5574500Y-9411500D02*
X5474500Y-9511500D01*
X5574500Y-9461500D02*
G75*
G03*
X5574500Y-9461500I-50000J0D01*
G01*
X5474500Y-9665500D02*
X5574500Y-9765500D01*
X5574500Y-9665500D02*
X5474500Y-9765500D01*
X5574500Y-9715500D02*
G75*
G03*
X5574500Y-9715500I-50000J0D01*
G01*
X5474500Y-9919500D02*
X5574500Y-10019500D01*
X5574500Y-9919500D02*
X5474500Y-10019500D01*
X5574500Y-9969500D02*
G75*
G03*
X5574500Y-9969500I-50000J0D01*
G01*
X5474500Y-10173500D02*
X5574500Y-10273500D01*
X5574500Y-10173500D02*
X5474500Y-10273500D01*
X5574500Y-10223500D02*
G75*
G03*
X5574500Y-10223500I-50000J0D01*
G01*
X5474500Y-10427500D02*
X5574500Y-10527500D01*
X5574500Y-10427500D02*
X5474500Y-10527500D01*
X5574500Y-10477500D02*
G75*
G03*
X5574500Y-10477500I-50000J0D01*
G01*
X5474500Y-10681500D02*
X5574500Y-10781500D01*
X5574500Y-10681500D02*
X5474500Y-10781500D01*
X5574500Y-10731500D02*
G75*
G03*
X5574500Y-10731500I-50000J0D01*
G01*
X5474500Y-10935500D02*
X5574500Y-11035500D01*
X5574500Y-10935500D02*
X5474500Y-11035500D01*
X5574500Y-10985500D02*
G75*
G03*
X5574500Y-10985500I-50000J0D01*
G01*
X5474500Y-11189500D02*
X5574500Y-11289500D01*
X5574500Y-11189500D02*
X5474500Y-11289500D01*
X5574500Y-11239500D02*
G75*
G03*
X5574500Y-11239500I-50000J0D01*
G01*
X5665000Y-3252000D02*
X5765000Y-3352000D01*
X5765000Y-3252000D02*
X5665000Y-3352000D01*
X5765000Y-3302000D02*
G75*
G03*
X5765000Y-3302000I-50000J0D01*
G01*
X5728500Y-9665500D02*
X5828500Y-9765500D01*
X5828500Y-9665500D02*
X5728500Y-9765500D01*
X5828500Y-9715500D02*
G75*
G03*
X5828500Y-9715500I-50000J0D01*
G01*
X5728500Y-9919500D02*
X5828500Y-10019500D01*
X5828500Y-9919500D02*
X5728500Y-10019500D01*
X5828500Y-9969500D02*
G75*
G03*
X5828500Y-9969500I-50000J0D01*
G01*
X5728500Y-10173500D02*
X5828500Y-10273500D01*
X5828500Y-10173500D02*
X5728500Y-10273500D01*
X5828500Y-10223500D02*
G75*
G03*
X5828500Y-10223500I-50000J0D01*
G01*
X5728500Y-10427500D02*
X5828500Y-10527500D01*
X5828500Y-10427500D02*
X5728500Y-10527500D01*
X5828500Y-10477500D02*
G75*
G03*
X5828500Y-10477500I-50000J0D01*
G01*
X5728500Y-10681500D02*
X5828500Y-10781500D01*
X5828500Y-10681500D02*
X5728500Y-10781500D01*
X5828500Y-10731500D02*
G75*
G03*
X5828500Y-10731500I-50000J0D01*
G01*
X5728500Y-10935500D02*
X5828500Y-11035500D01*
X5828500Y-10935500D02*
X5728500Y-11035500D01*
X5828500Y-10985500D02*
G75*
G03*
X5828500Y-10985500I-50000J0D01*
G01*
X5728500Y-11189500D02*
X5828500Y-11289500D01*
X5828500Y-11189500D02*
X5728500Y-11289500D01*
X5828500Y-11239500D02*
G75*
G03*
X5828500Y-11239500I-50000J0D01*
G01*
X5982500Y-9919500D02*
X6082500Y-10019500D01*
X6082500Y-9919500D02*
X5982500Y-10019500D01*
X6082500Y-9969500D02*
G75*
G03*
X6082500Y-9969500I-50000J0D01*
G01*
X5982500Y-10173500D02*
X6082500Y-10273500D01*
X6082500Y-10173500D02*
X5982500Y-10273500D01*
X6082500Y-10223500D02*
G75*
G03*
X6082500Y-10223500I-50000J0D01*
G01*
X5982500Y-10427500D02*
X6082500Y-10527500D01*
X6082500Y-10427500D02*
X5982500Y-10527500D01*
X6082500Y-10477500D02*
G75*
G03*
X6082500Y-10477500I-50000J0D01*
G01*
X5982500Y-10681500D02*
X6082500Y-10781500D01*
X6082500Y-10681500D02*
X5982500Y-10781500D01*
X6082500Y-10731500D02*
G75*
G03*
X6082500Y-10731500I-50000J0D01*
G01*
X5982500Y-10935500D02*
X6082500Y-11035500D01*
X6082500Y-10935500D02*
X5982500Y-11035500D01*
X6082500Y-10985500D02*
G75*
G03*
X6082500Y-10985500I-50000J0D01*
G01*
X5982500Y-11189500D02*
X6082500Y-11289500D01*
X6082500Y-11189500D02*
X5982500Y-11289500D01*
X6082500Y-11239500D02*
G75*
G03*
X6082500Y-11239500I-50000J0D01*
G01*
X6236500Y-10173500D02*
X6336500Y-10273500D01*
X6336500Y-10173500D02*
X6236500Y-10273500D01*
X6336500Y-10223500D02*
G75*
G03*
X6336500Y-10223500I-50000J0D01*
G01*
X6236500Y-10427500D02*
X6336500Y-10527500D01*
X6336500Y-10427500D02*
X6236500Y-10527500D01*
X6336500Y-10477500D02*
G75*
G03*
X6336500Y-10477500I-50000J0D01*
G01*
X6236500Y-10681500D02*
X6336500Y-10781500D01*
X6336500Y-10681500D02*
X6236500Y-10781500D01*
X6336500Y-10731500D02*
G75*
G03*
X6336500Y-10731500I-50000J0D01*
G01*
X6236500Y-10935500D02*
X6336500Y-11035500D01*
X6336500Y-10935500D02*
X6236500Y-11035500D01*
X6336500Y-10985500D02*
G75*
G03*
X6336500Y-10985500I-50000J0D01*
G01*
X6236500Y-11189500D02*
X6336500Y-11289500D01*
X6336500Y-11189500D02*
X6236500Y-11289500D01*
X6336500Y-11239500D02*
G75*
G03*
X6336500Y-11239500I-50000J0D01*
G01*
X6490500Y-10427500D02*
X6590500Y-10527500D01*
X6590500Y-10427500D02*
X6490500Y-10527500D01*
X6590500Y-10477500D02*
G75*
G03*
X6590500Y-10477500I-50000J0D01*
G01*
X6490500Y-10681500D02*
X6590500Y-10781500D01*
X6590500Y-10681500D02*
X6490500Y-10781500D01*
X6590500Y-10731500D02*
G75*
G03*
X6590500Y-10731500I-50000J0D01*
G01*
X6490500Y-10935500D02*
X6590500Y-11035500D01*
X6590500Y-10935500D02*
X6490500Y-11035500D01*
X6590500Y-10985500D02*
G75*
G03*
X6590500Y-10985500I-50000J0D01*
G01*
X6490500Y-11189500D02*
X6590500Y-11289500D01*
X6590500Y-11189500D02*
X6490500Y-11289500D01*
X6590500Y-11239500D02*
G75*
G03*
X6590500Y-11239500I-50000J0D01*
G01*
X6744500Y-10681500D02*
X6844500Y-10781500D01*
X6844500Y-10681500D02*
X6744500Y-10781500D01*
X6844500Y-10731500D02*
G75*
G03*
X6844500Y-10731500I-50000J0D01*
G01*
X6744500Y-10935500D02*
X6844500Y-11035500D01*
X6844500Y-10935500D02*
X6744500Y-11035500D01*
X6844500Y-10985500D02*
G75*
G03*
X6844500Y-10985500I-50000J0D01*
G01*
X6744500Y-11189500D02*
X6844500Y-11289500D01*
X6844500Y-11189500D02*
X6744500Y-11289500D01*
X6844500Y-11239500D02*
G75*
G03*
X6844500Y-11239500I-50000J0D01*
G01*
X6808000Y-1601000D02*
X6908000Y-1701000D01*
X6908000Y-1601000D02*
X6808000Y-1701000D01*
X6908000Y-1651000D02*
G75*
G03*
X6908000Y-1651000I-50000J0D01*
G01*
X6808000Y-1855000D02*
X6908000Y-1955000D01*
X6908000Y-1855000D02*
X6808000Y-1955000D01*
X6908000Y-1905000D02*
G75*
G03*
X6908000Y-1905000I-50000J0D01*
G01*
X6873000Y-10238000D02*
X6973000Y-10338000D01*
X6973000Y-10238000D02*
X6873000Y-10338000D01*
X6973000Y-10288000D02*
G75*
G03*
X6973000Y-10288000I-50000J0D01*
G01*
X6998500Y-10935500D02*
X7098500Y-11035500D01*
X7098500Y-10935500D02*
X6998500Y-11035500D01*
X7098500Y-10985500D02*
G75*
G03*
X7098500Y-10985500I-50000J0D01*
G01*
X6998500Y-11189500D02*
X7098500Y-11289500D01*
X7098500Y-11189500D02*
X6998500Y-11289500D01*
X7098500Y-11239500D02*
G75*
G03*
X7098500Y-11239500I-50000J0D01*
G01*
X7062000Y-1601000D02*
X7162000Y-1701000D01*
X7162000Y-1601000D02*
X7062000Y-1701000D01*
X7162000Y-1651000D02*
G75*
G03*
X7162000Y-1651000I-50000J0D01*
G01*
X7062000Y-1855000D02*
X7162000Y-1955000D01*
X7162000Y-1855000D02*
X7062000Y-1955000D01*
X7162000Y-1905000D02*
G75*
G03*
X7162000Y-1905000I-50000J0D01*
G01*
X7127000Y-10238000D02*
X7227000Y-10338000D01*
X7227000Y-10238000D02*
X7127000Y-10338000D01*
X7227000Y-10288000D02*
G75*
G03*
X7227000Y-10288000I-50000J0D01*
G01*
X7252500Y-11189500D02*
X7352500Y-11289500D01*
X7352500Y-11189500D02*
X7252500Y-11289500D01*
X7352500Y-11239500D02*
G75*
G03*
X7352500Y-11239500I-50000J0D01*
G01*
X7316000Y-1601000D02*
X7416000Y-1701000D01*
X7416000Y-1601000D02*
X7316000Y-1701000D01*
X7416000Y-1651000D02*
G75*
G03*
X7416000Y-1651000I-50000J0D01*
G01*
X7316000Y-1855000D02*
X7416000Y-1955000D01*
X7416000Y-1855000D02*
X7316000Y-1955000D01*
X7416000Y-1905000D02*
G75*
G03*
X7416000Y-1905000I-50000J0D01*
G01*
X7570000Y-1601000D02*
X7670000Y-1701000D01*
X7670000Y-1601000D02*
X7570000Y-1701000D01*
X7670000Y-1651000D02*
G75*
G03*
X7670000Y-1651000I-50000J0D01*
G01*
X7570000Y-1855000D02*
X7670000Y-1955000D01*
X7670000Y-1855000D02*
X7570000Y-1955000D01*
X7670000Y-1905000D02*
G75*
G03*
X7670000Y-1905000I-50000J0D01*
G01*
X7824000Y-1601000D02*
X7924000Y-1701000D01*
X7924000Y-1601000D02*
X7824000Y-1701000D01*
X7924000Y-1651000D02*
G75*
G03*
X7924000Y-1651000I-50000J0D01*
G01*
X7824000Y-1855000D02*
X7924000Y-1955000D01*
X7924000Y-1855000D02*
X7824000Y-1955000D01*
X7924000Y-1905000D02*
G75*
G03*
X7924000Y-1905000I-50000J0D01*
G01*
X9349500Y-4142000D02*
X9449500Y-4242000D01*
X9449500Y-4142000D02*
X9349500Y-4242000D01*
X9449500Y-4192000D02*
G75*
G03*
X9449500Y-4192000I-50000J0D01*
G01*
X9603500Y-4142000D02*
X9703500Y-4242000D01*
X9703500Y-4142000D02*
X9603500Y-4242000D01*
X9703500Y-4192000D02*
G75*
G03*
X9703500Y-4192000I-50000J0D01*
G01*
X11189500Y-1918500D02*
X11289500Y-2018500D01*
X11289500Y-1918500D02*
X11189500Y-2018500D01*
X11289500Y-1968500D02*
G75*
G03*
X11289500Y-1968500I-50000J0D01*
G01*
X11189500Y-2172500D02*
X11289500Y-2272500D01*
X11289500Y-2172500D02*
X11189500Y-2272500D01*
X11289500Y-2222500D02*
G75*
G03*
X11289500Y-2222500I-50000J0D01*
G01*
X11189500Y-2426500D02*
X11289500Y-2526500D01*
X11289500Y-2426500D02*
X11189500Y-2526500D01*
X11289500Y-2476500D02*
G75*
G03*
X11289500Y-2476500I-50000J0D01*
G01*
X11189500Y-2680500D02*
X11289500Y-2780500D01*
X11289500Y-2680500D02*
X11189500Y-2780500D01*
X11289500Y-2730500D02*
G75*
G03*
X11289500Y-2730500I-50000J0D01*
G01*
X11189500Y-2934500D02*
X11289500Y-3034500D01*
X11289500Y-2934500D02*
X11189500Y-3034500D01*
X11289500Y-2984500D02*
G75*
G03*
X11289500Y-2984500I-50000J0D01*
G01*
X11189500Y-3188500D02*
X11289500Y-3288500D01*
X11289500Y-3188500D02*
X11189500Y-3288500D01*
X11289500Y-3238500D02*
G75*
G03*
X11289500Y-3238500I-50000J0D01*
G01*
X11189500Y-3442500D02*
X11289500Y-3542500D01*
X11289500Y-3442500D02*
X11189500Y-3542500D01*
X11289500Y-3492500D02*
G75*
G03*
X11289500Y-3492500I-50000J0D01*
G01*
X11189500Y-3696500D02*
X11289500Y-3796500D01*
X11289500Y-3696500D02*
X11189500Y-3796500D01*
X11289500Y-3746500D02*
G75*
G03*
X11289500Y-3746500I-50000J0D01*
G01*
X11189500Y-3950500D02*
X11289500Y-4050500D01*
X11289500Y-3950500D02*
X11189500Y-4050500D01*
X11289500Y-4000500D02*
G75*
G03*
X11289500Y-4000500I-50000J0D01*
G01*
X11189500Y-4204500D02*
X11289500Y-4304500D01*
X11289500Y-4204500D02*
X11189500Y-4304500D01*
X11289500Y-4254500D02*
G75*
G03*
X11289500Y-4254500I-50000J0D01*
G01*
X11189500Y-4458500D02*
X11289500Y-4558500D01*
X11289500Y-4458500D02*
X11189500Y-4558500D01*
X11289500Y-4508500D02*
G75*
G03*
X11289500Y-4508500I-50000J0D01*
G01*
X11189500Y-4712500D02*
X11289500Y-4812500D01*
X11289500Y-4712500D02*
X11189500Y-4812500D01*
X11289500Y-4762500D02*
G75*
G03*
X11289500Y-4762500I-50000J0D01*
G01*
X11189500Y-4966500D02*
X11289500Y-5066500D01*
X11289500Y-4966500D02*
X11189500Y-5066500D01*
X11289500Y-5016500D02*
G75*
G03*
X11289500Y-5016500I-50000J0D01*
G01*
X11189500Y-5220500D02*
X11289500Y-5320500D01*
X11289500Y-5220500D02*
X11189500Y-5320500D01*
X11289500Y-5270500D02*
G75*
G03*
X11289500Y-5270500I-50000J0D01*
G01*
X11189500Y-5474500D02*
X11289500Y-5574500D01*
X11289500Y-5474500D02*
X11189500Y-5574500D01*
X11289500Y-5524500D02*
G75*
G03*
X11289500Y-5524500I-50000J0D01*
G01*
X11189500Y-5728500D02*
X11289500Y-5828500D01*
X11289500Y-5728500D02*
X11189500Y-5828500D01*
X11289500Y-5778500D02*
G75*
G03*
X11289500Y-5778500I-50000J0D01*
G01*
X11189500Y-5982500D02*
X11289500Y-6082500D01*
X11289500Y-5982500D02*
X11189500Y-6082500D01*
X11289500Y-6032500D02*
G75*
G03*
X11289500Y-6032500I-50000J0D01*
G01*
X11189500Y-6236500D02*
X11289500Y-6336500D01*
X11289500Y-6236500D02*
X11189500Y-6336500D01*
X11289500Y-6286500D02*
G75*
G03*
X11289500Y-6286500I-50000J0D01*
G01*
X11189500Y-6490500D02*
X11289500Y-6590500D01*
X11289500Y-6490500D02*
X11189500Y-6590500D01*
X11289500Y-6540500D02*
G75*
G03*
X11289500Y-6540500I-50000J0D01*
G01*
X11189500Y-6744500D02*
X11289500Y-6844500D01*
X11289500Y-6744500D02*
X11189500Y-6844500D01*
X11289500Y-6794500D02*
G75*
G03*
X11289500Y-6794500I-50000J0D01*
G01*
X11189500Y-6998500D02*
X11289500Y-7098500D01*
X11289500Y-6998500D02*
X11189500Y-7098500D01*
X11289500Y-7048500D02*
G75*
G03*
X11289500Y-7048500I-50000J0D01*
G01*
X11189500Y-7252500D02*
X11289500Y-7352500D01*
X11289500Y-7252500D02*
X11189500Y-7352500D01*
X11289500Y-7302500D02*
G75*
G03*
X11289500Y-7302500I-50000J0D01*
G01*
X11189500Y-7506500D02*
X11289500Y-7606500D01*
X11289500Y-7506500D02*
X11189500Y-7606500D01*
X11289500Y-7556500D02*
G75*
G03*
X11289500Y-7556500I-50000J0D01*
G01*
X11189500Y-7760500D02*
X11289500Y-7860500D01*
X11289500Y-7760500D02*
X11189500Y-7860500D01*
X11289500Y-7810500D02*
G75*
G03*
X11289500Y-7810500I-50000J0D01*
G01*
X11189500Y-8014500D02*
X11289500Y-8114500D01*
X11289500Y-8014500D02*
X11189500Y-8114500D01*
X11289500Y-8064500D02*
G75*
G03*
X11289500Y-8064500I-50000J0D01*
G01*
X11189500Y-8268500D02*
X11289500Y-8368500D01*
X11289500Y-8268500D02*
X11189500Y-8368500D01*
X11289500Y-8318500D02*
G75*
G03*
X11289500Y-8318500I-50000J0D01*
G01*
X11189500Y-8522500D02*
X11289500Y-8622500D01*
X11289500Y-8522500D02*
X11189500Y-8622500D01*
X11289500Y-8572500D02*
G75*
G03*
X11289500Y-8572500I-50000J0D01*
G01*
X11189500Y-8776500D02*
X11289500Y-8876500D01*
X11289500Y-8776500D02*
X11189500Y-8876500D01*
X11289500Y-8826500D02*
G75*
G03*
X11289500Y-8826500I-50000J0D01*
G01*
X11189500Y-9030500D02*
X11289500Y-9130500D01*
X11289500Y-9030500D02*
X11189500Y-9130500D01*
X11289500Y-9080500D02*
G75*
G03*
X11289500Y-9080500I-50000J0D01*
G01*
X11189500Y-9284500D02*
X11289500Y-9384500D01*
X11289500Y-9284500D02*
X11189500Y-9384500D01*
X11289500Y-9334500D02*
G75*
G03*
X11289500Y-9334500I-50000J0D01*
G01*
X11189500Y-9538500D02*
X11289500Y-9638500D01*
X11289500Y-9538500D02*
X11189500Y-9638500D01*
X11289500Y-9588500D02*
G75*
G03*
X11289500Y-9588500I-50000J0D01*
G01*
X11189500Y-9792500D02*
X11289500Y-9892500D01*
X11289500Y-9792500D02*
X11189500Y-9892500D01*
X11289500Y-9842500D02*
G75*
G03*
X11289500Y-9842500I-50000J0D01*
G01*
X11189500Y-10046500D02*
X11289500Y-10146500D01*
X11289500Y-10046500D02*
X11189500Y-10146500D01*
X11289500Y-10096500D02*
G75*
G03*
X11289500Y-10096500I-50000J0D01*
G01*
X11189500Y-10300500D02*
X11289500Y-10400500D01*
X11289500Y-10300500D02*
X11189500Y-10400500D01*
X11289500Y-10350500D02*
G75*
G03*
X11289500Y-10350500I-50000J0D01*
G01*
X11189500Y-10554500D02*
X11289500Y-10654500D01*
X11289500Y-10554500D02*
X11189500Y-10654500D01*
X11289500Y-10604500D02*
G75*
G03*
X11289500Y-10604500I-50000J0D01*
G01*
X11189500Y-10808500D02*
X11289500Y-10908500D01*
X11289500Y-10808500D02*
X11189500Y-10908500D01*
X11289500Y-10858500D02*
G75*
G03*
X11289500Y-10858500I-50000J0D01*
G01*
X11443500Y-1918500D02*
X11543500Y-2018500D01*
X11543500Y-1918500D02*
X11443500Y-2018500D01*
X11543500Y-1968500D02*
G75*
G03*
X11543500Y-1968500I-50000J0D01*
G01*
X11443500Y-2172500D02*
X11543500Y-2272500D01*
X11543500Y-2172500D02*
X11443500Y-2272500D01*
X11543500Y-2222500D02*
G75*
G03*
X11543500Y-2222500I-50000J0D01*
G01*
X11443500Y-2426500D02*
X11543500Y-2526500D01*
X11543500Y-2426500D02*
X11443500Y-2526500D01*
X11543500Y-2476500D02*
G75*
G03*
X11543500Y-2476500I-50000J0D01*
G01*
X11443500Y-2680500D02*
X11543500Y-2780500D01*
X11543500Y-2680500D02*
X11443500Y-2780500D01*
X11543500Y-2730500D02*
G75*
G03*
X11543500Y-2730500I-50000J0D01*
G01*
X11443500Y-2934500D02*
X11543500Y-3034500D01*
X11543500Y-2934500D02*
X11443500Y-3034500D01*
X11543500Y-2984500D02*
G75*
G03*
X11543500Y-2984500I-50000J0D01*
G01*
X11443500Y-3188500D02*
X11543500Y-3288500D01*
X11543500Y-3188500D02*
X11443500Y-3288500D01*
X11543500Y-3238500D02*
G75*
G03*
X11543500Y-3238500I-50000J0D01*
G01*
X11443500Y-3442500D02*
X11543500Y-3542500D01*
X11543500Y-3442500D02*
X11443500Y-3542500D01*
X11543500Y-3492500D02*
G75*
G03*
X11543500Y-3492500I-50000J0D01*
G01*
X11443500Y-3696500D02*
X11543500Y-3796500D01*
X11543500Y-3696500D02*
X11443500Y-3796500D01*
X11543500Y-3746500D02*
G75*
G03*
X11543500Y-3746500I-50000J0D01*
G01*
X11443500Y-3950500D02*
X11543500Y-4050500D01*
X11543500Y-3950500D02*
X11443500Y-4050500D01*
X11543500Y-4000500D02*
G75*
G03*
X11543500Y-4000500I-50000J0D01*
G01*
X11443500Y-4204500D02*
X11543500Y-4304500D01*
X11543500Y-4204500D02*
X11443500Y-4304500D01*
X11543500Y-4254500D02*
G75*
G03*
X11543500Y-4254500I-50000J0D01*
G01*
X11443500Y-4458500D02*
X11543500Y-4558500D01*
X11543500Y-4458500D02*
X11443500Y-4558500D01*
X11543500Y-4508500D02*
G75*
G03*
X11543500Y-4508500I-50000J0D01*
G01*
X11443500Y-4712500D02*
X11543500Y-4812500D01*
X11543500Y-4712500D02*
X11443500Y-4812500D01*
X11543500Y-4762500D02*
G75*
G03*
X11543500Y-4762500I-50000J0D01*
G01*
X11443500Y-4966500D02*
X11543500Y-5066500D01*
X11543500Y-4966500D02*
X11443500Y-5066500D01*
X11543500Y-5016500D02*
G75*
G03*
X11543500Y-5016500I-50000J0D01*
G01*
X11443500Y-5220500D02*
X11543500Y-5320500D01*
X11543500Y-5220500D02*
X11443500Y-5320500D01*
X11543500Y-5270500D02*
G75*
G03*
X11543500Y-5270500I-50000J0D01*
G01*
X11443500Y-5474500D02*
X11543500Y-5574500D01*
X11543500Y-5474500D02*
X11443500Y-5574500D01*
X11543500Y-5524500D02*
G75*
G03*
X11543500Y-5524500I-50000J0D01*
G01*
X11443500Y-5728500D02*
X11543500Y-5828500D01*
X11543500Y-5728500D02*
X11443500Y-5828500D01*
X11543500Y-5778500D02*
G75*
G03*
X11543500Y-5778500I-50000J0D01*
G01*
X11443500Y-5982500D02*
X11543500Y-6082500D01*
X11543500Y-5982500D02*
X11443500Y-6082500D01*
X11543500Y-6032500D02*
G75*
G03*
X11543500Y-6032500I-50000J0D01*
G01*
X11443500Y-6236500D02*
X11543500Y-6336500D01*
X11543500Y-6236500D02*
X11443500Y-6336500D01*
X11543500Y-6286500D02*
G75*
G03*
X11543500Y-6286500I-50000J0D01*
G01*
X11443500Y-6490500D02*
X11543500Y-6590500D01*
X11543500Y-6490500D02*
X11443500Y-6590500D01*
X11543500Y-6540500D02*
G75*
G03*
X11543500Y-6540500I-50000J0D01*
G01*
X11443500Y-6744500D02*
X11543500Y-6844500D01*
X11543500Y-6744500D02*
X11443500Y-6844500D01*
X11543500Y-6794500D02*
G75*
G03*
X11543500Y-6794500I-50000J0D01*
G01*
X11443500Y-6998500D02*
X11543500Y-7098500D01*
X11543500Y-6998500D02*
X11443500Y-7098500D01*
X11543500Y-7048500D02*
G75*
G03*
X11543500Y-7048500I-50000J0D01*
G01*
X11443500Y-7252500D02*
X11543500Y-7352500D01*
X11543500Y-7252500D02*
X11443500Y-7352500D01*
X11543500Y-7302500D02*
G75*
G03*
X11543500Y-7302500I-50000J0D01*
G01*
X11443500Y-7506500D02*
X11543500Y-7606500D01*
X11543500Y-7506500D02*
X11443500Y-7606500D01*
X11543500Y-7556500D02*
G75*
G03*
X11543500Y-7556500I-50000J0D01*
G01*
X11443500Y-7760500D02*
X11543500Y-7860500D01*
X11543500Y-7760500D02*
X11443500Y-7860500D01*
X11543500Y-7810500D02*
G75*
G03*
X11543500Y-7810500I-50000J0D01*
G01*
X11443500Y-8014500D02*
X11543500Y-8114500D01*
X11543500Y-8014500D02*
X11443500Y-8114500D01*
X11543500Y-8064500D02*
G75*
G03*
X11543500Y-8064500I-50000J0D01*
G01*
X11443500Y-8268500D02*
X11543500Y-8368500D01*
X11543500Y-8268500D02*
X11443500Y-8368500D01*
X11543500Y-8318500D02*
G75*
G03*
X11543500Y-8318500I-50000J0D01*
G01*
X11443500Y-8522500D02*
X11543500Y-8622500D01*
X11543500Y-8522500D02*
X11443500Y-8622500D01*
X11543500Y-8572500D02*
G75*
G03*
X11543500Y-8572500I-50000J0D01*
G01*
X11443500Y-8776500D02*
X11543500Y-8876500D01*
X11543500Y-8776500D02*
X11443500Y-8876500D01*
X11543500Y-8826500D02*
G75*
G03*
X11543500Y-8826500I-50000J0D01*
G01*
X11443500Y-9030500D02*
X11543500Y-9130500D01*
X11543500Y-9030500D02*
X11443500Y-9130500D01*
X11543500Y-9080500D02*
G75*
G03*
X11543500Y-9080500I-50000J0D01*
G01*
X11443500Y-9284500D02*
X11543500Y-9384500D01*
X11543500Y-9284500D02*
X11443500Y-9384500D01*
X11543500Y-9334500D02*
G75*
G03*
X11543500Y-9334500I-50000J0D01*
G01*
X11443500Y-9538500D02*
X11543500Y-9638500D01*
X11543500Y-9538500D02*
X11443500Y-9638500D01*
X11543500Y-9588500D02*
G75*
G03*
X11543500Y-9588500I-50000J0D01*
G01*
X11443500Y-9792500D02*
X11543500Y-9892500D01*
X11543500Y-9792500D02*
X11443500Y-9892500D01*
X11543500Y-9842500D02*
G75*
G03*
X11543500Y-9842500I-50000J0D01*
G01*
X11443500Y-10046500D02*
X11543500Y-10146500D01*
X11543500Y-10046500D02*
X11443500Y-10146500D01*
X11543500Y-10096500D02*
G75*
G03*
X11543500Y-10096500I-50000J0D01*
G01*
X11443500Y-10300500D02*
X11543500Y-10400500D01*
X11543500Y-10300500D02*
X11443500Y-10400500D01*
X11543500Y-10350500D02*
G75*
G03*
X11543500Y-10350500I-50000J0D01*
G01*
X11443500Y-10554500D02*
X11543500Y-10654500D01*
X11543500Y-10554500D02*
X11443500Y-10654500D01*
X11543500Y-10604500D02*
G75*
G03*
X11543500Y-10604500I-50000J0D01*
G01*
X11443500Y-10808500D02*
X11543500Y-10908500D01*
X11543500Y-10808500D02*
X11443500Y-10908500D01*
X11543500Y-10858500D02*
G75*
G03*
X11543500Y-10858500I-50000J0D01*
G01*
D18*
X1825000Y-2363750D02*
X2055000Y-2593750D01*
X2055000Y-2363750D02*
X1825000Y-2593750D01*
X1940000Y-2363750D02*
X1940000Y-2593750D01*
X1825000Y-2478750D02*
X2055000Y-2478750D01*
X3025000Y-2363750D02*
X3255000Y-2593750D01*
X3255000Y-2363750D02*
X3025000Y-2593750D01*
X3140000Y-2363750D02*
X3140000Y-2593750D01*
X3025000Y-2478750D02*
X3255000Y-2478750D01*
D11*
X1903619Y-11745476D02*
X1903619Y-11545476D01*
X1951238Y-11545476D01*
X1979809Y-11555000D01*
X1998857Y-11574048D01*
X2008381Y-11593095D01*
X2017905Y-11631190D01*
X2017905Y-11659762D01*
X2008381Y-11697857D01*
X1998857Y-11716905D01*
X1979809Y-11735952D01*
X1951238Y-11745476D01*
X1903619Y-11745476D01*
X2103619Y-11745476D02*
X2103619Y-11612143D01*
X2103619Y-11650238D02*
X2113143Y-11631190D01*
X2122667Y-11621667D01*
X2141714Y-11612143D01*
X2160762Y-11612143D01*
X2227429Y-11745476D02*
X2227429Y-11612143D01*
X2227429Y-11545476D02*
X2217905Y-11555000D01*
X2227429Y-11564524D01*
X2236952Y-11555000D01*
X2227429Y-11545476D01*
X2227429Y-11564524D01*
X2351238Y-11745476D02*
X2332190Y-11735952D01*
X2322667Y-11716905D01*
X2322667Y-11545476D01*
X2456000Y-11745476D02*
X2436952Y-11735952D01*
X2427429Y-11716905D01*
X2427429Y-11545476D01*
X2684571Y-11745476D02*
X2684571Y-11545476D01*
X2751238Y-11688333D01*
X2817905Y-11545476D01*
X2817905Y-11745476D01*
X2998857Y-11745476D02*
X2998857Y-11640714D01*
X2989333Y-11621667D01*
X2970286Y-11612143D01*
X2932190Y-11612143D01*
X2913143Y-11621667D01*
X2998857Y-11735952D02*
X2979809Y-11745476D01*
X2932190Y-11745476D01*
X2913143Y-11735952D01*
X2903619Y-11716905D01*
X2903619Y-11697857D01*
X2913143Y-11678809D01*
X2932190Y-11669286D01*
X2979809Y-11669286D01*
X2998857Y-11659762D01*
X3094095Y-11612143D02*
X3094095Y-11812143D01*
X3094095Y-11621667D02*
X3113143Y-11612143D01*
X3151238Y-11612143D01*
X3170286Y-11621667D01*
X3179809Y-11631190D01*
X3189333Y-11650238D01*
X3189333Y-11707381D01*
X3179809Y-11726428D01*
X3170286Y-11735952D01*
X3151238Y-11745476D01*
X3113143Y-11745476D01*
X3094095Y-11735952D01*
X3275048Y-11726428D02*
X3284571Y-11735952D01*
X3275048Y-11745476D01*
X3265524Y-11735952D01*
X3275048Y-11726428D01*
X3275048Y-11745476D01*
X3275048Y-11621667D02*
X3284571Y-11631190D01*
X3275048Y-11640714D01*
X3265524Y-11631190D01*
X3275048Y-11621667D01*
X3275048Y-11640714D01*
D12*
X1606000Y-12055000D02*
X1646000Y-12095000D01*
X1646000Y-12055000D02*
X1606000Y-12095000D01*
D11*
X1941714Y-11965476D02*
X1960762Y-11965476D01*
X1979809Y-11975000D01*
X1989333Y-11984524D01*
X1998857Y-12003571D01*
X2008381Y-12041667D01*
X2008381Y-12089286D01*
X1998857Y-12127381D01*
X1989333Y-12146428D01*
X1979809Y-12155952D01*
X1960762Y-12165476D01*
X1941714Y-12165476D01*
X1922667Y-12155952D01*
X1913143Y-12146428D01*
X1903619Y-12127381D01*
X1894095Y-12089286D01*
X1894095Y-12041667D01*
X1903619Y-12003571D01*
X1913143Y-11984524D01*
X1922667Y-11975000D01*
X1941714Y-11965476D01*
X2094095Y-12146428D02*
X2103619Y-12155952D01*
X2094095Y-12165476D01*
X2084571Y-12155952D01*
X2094095Y-12146428D01*
X2094095Y-12165476D01*
X2275048Y-12032143D02*
X2275048Y-12165476D01*
X2227429Y-11955952D02*
X2179810Y-12098809D01*
X2303619Y-12098809D01*
X2417905Y-11965476D02*
X2436952Y-11965476D01*
X2456000Y-11975000D01*
X2465524Y-11984524D01*
X2475048Y-12003571D01*
X2484571Y-12041667D01*
X2484571Y-12089286D01*
X2475048Y-12127381D01*
X2465524Y-12146428D01*
X2456000Y-12155952D01*
X2436952Y-12165476D01*
X2417905Y-12165476D01*
X2398857Y-12155952D01*
X2389333Y-12146428D01*
X2379810Y-12127381D01*
X2370286Y-12089286D01*
X2370286Y-12041667D01*
X2379810Y-12003571D01*
X2389333Y-11984524D01*
X2398857Y-11975000D01*
X2417905Y-11965476D01*
X2608381Y-11965476D02*
X2627429Y-11965476D01*
X2646476Y-11975000D01*
X2656000Y-11984524D01*
X2665524Y-12003571D01*
X2675048Y-12041667D01*
X2675048Y-12089286D01*
X2665524Y-12127381D01*
X2656000Y-12146428D01*
X2646476Y-12155952D01*
X2627429Y-12165476D01*
X2608381Y-12165476D01*
X2589333Y-12155952D01*
X2579810Y-12146428D01*
X2570286Y-12127381D01*
X2560762Y-12089286D01*
X2560762Y-12041667D01*
X2570286Y-12003571D01*
X2579810Y-11984524D01*
X2589333Y-11975000D01*
X2608381Y-11965476D01*
X2760762Y-12165476D02*
X2760762Y-12032143D01*
X2760762Y-12051190D02*
X2770286Y-12041667D01*
X2789333Y-12032143D01*
X2817905Y-12032143D01*
X2836952Y-12041667D01*
X2846476Y-12060714D01*
X2846476Y-12165476D01*
X2846476Y-12060714D02*
X2856000Y-12041667D01*
X2875048Y-12032143D01*
X2903619Y-12032143D01*
X2922667Y-12041667D01*
X2932190Y-12060714D01*
X2932190Y-12165476D01*
X3027428Y-12165476D02*
X3027428Y-12032143D01*
X3027428Y-12051190D02*
X3036952Y-12041667D01*
X3056000Y-12032143D01*
X3084571Y-12032143D01*
X3103619Y-12041667D01*
X3113143Y-12060714D01*
X3113143Y-12165476D01*
X3113143Y-12060714D02*
X3122667Y-12041667D01*
X3141714Y-12032143D01*
X3170286Y-12032143D01*
X3189333Y-12041667D01*
X3198857Y-12060714D01*
X3198857Y-12165476D01*
X3589333Y-11955952D02*
X3417905Y-12213095D01*
X3846476Y-11965476D02*
X3865524Y-11965476D01*
X3884571Y-11975000D01*
X3894095Y-11984524D01*
X3903619Y-12003571D01*
X3913143Y-12041667D01*
X3913143Y-12089286D01*
X3903619Y-12127381D01*
X3894095Y-12146428D01*
X3884571Y-12155952D01*
X3865524Y-12165476D01*
X3846476Y-12165476D01*
X3827428Y-12155952D01*
X3817905Y-12146428D01*
X3808381Y-12127381D01*
X3798857Y-12089286D01*
X3798857Y-12041667D01*
X3808381Y-12003571D01*
X3817905Y-11984524D01*
X3827428Y-11975000D01*
X3846476Y-11965476D01*
X3998857Y-12146428D02*
X4008381Y-12155952D01*
X3998857Y-12165476D01*
X3989333Y-12155952D01*
X3998857Y-12146428D01*
X3998857Y-12165476D01*
X4132190Y-11965476D02*
X4151238Y-11965476D01*
X4170286Y-11975000D01*
X4179809Y-11984524D01*
X4189333Y-12003571D01*
X4198857Y-12041667D01*
X4198857Y-12089286D01*
X4189333Y-12127381D01*
X4179809Y-12146428D01*
X4170286Y-12155952D01*
X4151238Y-12165476D01*
X4132190Y-12165476D01*
X4113143Y-12155952D01*
X4103619Y-12146428D01*
X4094095Y-12127381D01*
X4084571Y-12089286D01*
X4084571Y-12041667D01*
X4094095Y-12003571D01*
X4103619Y-11984524D01*
X4113143Y-11975000D01*
X4132190Y-11965476D01*
X4389333Y-12165476D02*
X4275048Y-12165476D01*
X4332190Y-12165476D02*
X4332190Y-11965476D01*
X4313143Y-11994048D01*
X4294095Y-12013095D01*
X4275048Y-12022619D01*
X4570286Y-11965476D02*
X4475048Y-11965476D01*
X4465524Y-12060714D01*
X4475048Y-12051190D01*
X4494095Y-12041667D01*
X4541714Y-12041667D01*
X4560762Y-12051190D01*
X4570286Y-12060714D01*
X4579810Y-12079762D01*
X4579810Y-12127381D01*
X4570286Y-12146428D01*
X4560762Y-12155952D01*
X4541714Y-12165476D01*
X4494095Y-12165476D01*
X4475048Y-12155952D01*
X4465524Y-12146428D01*
X4646476Y-11965476D02*
X4779810Y-11965476D01*
X4694095Y-12165476D01*
X4846476Y-11965476D02*
X4846476Y-12003571D01*
X4922667Y-11965476D02*
X4922667Y-12003571D01*
X5217905Y-12241667D02*
X5208381Y-12232143D01*
X5189333Y-12203571D01*
X5179810Y-12184524D01*
X5170286Y-12155952D01*
X5160762Y-12108333D01*
X5160762Y-12070238D01*
X5170286Y-12022619D01*
X5179810Y-11994048D01*
X5189333Y-11975000D01*
X5208381Y-11946428D01*
X5217905Y-11936905D01*
X5275048Y-11965476D02*
X5408381Y-11965476D01*
X5322667Y-12165476D01*
X5579810Y-11965476D02*
X5484571Y-11965476D01*
X5475048Y-12060714D01*
X5484571Y-12051190D01*
X5503619Y-12041667D01*
X5551238Y-12041667D01*
X5570286Y-12051190D01*
X5579810Y-12060714D01*
X5589333Y-12079762D01*
X5589333Y-12127381D01*
X5579810Y-12146428D01*
X5570286Y-12155952D01*
X5551238Y-12165476D01*
X5503619Y-12165476D01*
X5484571Y-12155952D01*
X5475048Y-12146428D01*
X5827428Y-12165476D02*
X5827428Y-11965476D01*
X5913143Y-12165476D02*
X5913143Y-12060714D01*
X5903619Y-12041667D01*
X5884571Y-12032143D01*
X5856000Y-12032143D01*
X5836952Y-12041667D01*
X5827428Y-12051190D01*
X6036952Y-12165476D02*
X6017905Y-12155952D01*
X6008381Y-12146428D01*
X5998857Y-12127381D01*
X5998857Y-12070238D01*
X6008381Y-12051190D01*
X6017905Y-12041667D01*
X6036952Y-12032143D01*
X6065524Y-12032143D01*
X6084571Y-12041667D01*
X6094095Y-12051190D01*
X6103619Y-12070238D01*
X6103619Y-12127381D01*
X6094095Y-12146428D01*
X6084571Y-12155952D01*
X6065524Y-12165476D01*
X6036952Y-12165476D01*
X6217905Y-12165476D02*
X6198857Y-12155952D01*
X6189333Y-12136905D01*
X6189333Y-11965476D01*
X6370286Y-12155952D02*
X6351238Y-12165476D01*
X6313143Y-12165476D01*
X6294095Y-12155952D01*
X6284571Y-12136905D01*
X6284571Y-12060714D01*
X6294095Y-12041667D01*
X6313143Y-12032143D01*
X6351238Y-12032143D01*
X6370286Y-12041667D01*
X6379809Y-12060714D01*
X6379809Y-12079762D01*
X6284571Y-12098809D01*
X6456000Y-12155952D02*
X6475048Y-12165476D01*
X6513143Y-12165476D01*
X6532190Y-12155952D01*
X6541714Y-12136905D01*
X6541714Y-12127381D01*
X6532190Y-12108333D01*
X6513143Y-12098809D01*
X6484571Y-12098809D01*
X6465524Y-12089286D01*
X6456000Y-12070238D01*
X6456000Y-12060714D01*
X6465524Y-12041667D01*
X6484571Y-12032143D01*
X6513143Y-12032143D01*
X6532190Y-12041667D01*
X6608381Y-12241667D02*
X6617905Y-12232143D01*
X6636952Y-12203571D01*
X6646476Y-12184524D01*
X6656000Y-12155952D01*
X6665524Y-12108333D01*
X6665524Y-12070238D01*
X6656000Y-12022619D01*
X6646476Y-11994048D01*
X6636952Y-11975000D01*
X6617905Y-11946428D01*
X6608381Y-11936905D01*
D13*
X1646000Y-12339000D02*
G75*
G03*
X1646000Y-12339000I-35000J0D01*
G01*
D11*
X1941714Y-12229476D02*
X1960762Y-12229476D01*
X1979809Y-12239000D01*
X1989333Y-12248524D01*
X1998857Y-12267571D01*
X2008381Y-12305667D01*
X2008381Y-12353286D01*
X1998857Y-12391381D01*
X1989333Y-12410428D01*
X1979809Y-12419952D01*
X1960762Y-12429476D01*
X1941714Y-12429476D01*
X1922667Y-12419952D01*
X1913143Y-12410428D01*
X1903619Y-12391381D01*
X1894095Y-12353286D01*
X1894095Y-12305667D01*
X1903619Y-12267571D01*
X1913143Y-12248524D01*
X1922667Y-12239000D01*
X1941714Y-12229476D01*
X2094095Y-12410428D02*
X2103619Y-12419952D01*
X2094095Y-12429476D01*
X2084571Y-12419952D01*
X2094095Y-12410428D01*
X2094095Y-12429476D01*
X2170286Y-12229476D02*
X2303619Y-12229476D01*
X2217905Y-12429476D01*
X2417905Y-12229476D02*
X2436952Y-12229476D01*
X2456000Y-12239000D01*
X2465524Y-12248524D01*
X2475048Y-12267571D01*
X2484571Y-12305667D01*
X2484571Y-12353286D01*
X2475048Y-12391381D01*
X2465524Y-12410428D01*
X2456000Y-12419952D01*
X2436952Y-12429476D01*
X2417905Y-12429476D01*
X2398857Y-12419952D01*
X2389333Y-12410428D01*
X2379810Y-12391381D01*
X2370286Y-12353286D01*
X2370286Y-12305667D01*
X2379810Y-12267571D01*
X2389333Y-12248524D01*
X2398857Y-12239000D01*
X2417905Y-12229476D01*
X2608381Y-12229476D02*
X2627429Y-12229476D01*
X2646476Y-12239000D01*
X2656000Y-12248524D01*
X2665524Y-12267571D01*
X2675048Y-12305667D01*
X2675048Y-12353286D01*
X2665524Y-12391381D01*
X2656000Y-12410428D01*
X2646476Y-12419952D01*
X2627429Y-12429476D01*
X2608381Y-12429476D01*
X2589333Y-12419952D01*
X2579810Y-12410428D01*
X2570286Y-12391381D01*
X2560762Y-12353286D01*
X2560762Y-12305667D01*
X2570286Y-12267571D01*
X2579810Y-12248524D01*
X2589333Y-12239000D01*
X2608381Y-12229476D01*
X2760762Y-12429476D02*
X2760762Y-12296143D01*
X2760762Y-12315190D02*
X2770286Y-12305667D01*
X2789333Y-12296143D01*
X2817905Y-12296143D01*
X2836952Y-12305667D01*
X2846476Y-12324714D01*
X2846476Y-12429476D01*
X2846476Y-12324714D02*
X2856000Y-12305667D01*
X2875048Y-12296143D01*
X2903619Y-12296143D01*
X2922667Y-12305667D01*
X2932190Y-12324714D01*
X2932190Y-12429476D01*
X3027428Y-12429476D02*
X3027428Y-12296143D01*
X3027428Y-12315190D02*
X3036952Y-12305667D01*
X3056000Y-12296143D01*
X3084571Y-12296143D01*
X3103619Y-12305667D01*
X3113143Y-12324714D01*
X3113143Y-12429476D01*
X3113143Y-12324714D02*
X3122667Y-12305667D01*
X3141714Y-12296143D01*
X3170286Y-12296143D01*
X3189333Y-12305667D01*
X3198857Y-12324714D01*
X3198857Y-12429476D01*
X3589333Y-12219952D02*
X3417905Y-12477095D01*
X3846476Y-12229476D02*
X3865524Y-12229476D01*
X3884571Y-12239000D01*
X3894095Y-12248524D01*
X3903619Y-12267571D01*
X3913143Y-12305667D01*
X3913143Y-12353286D01*
X3903619Y-12391381D01*
X3894095Y-12410428D01*
X3884571Y-12419952D01*
X3865524Y-12429476D01*
X3846476Y-12429476D01*
X3827428Y-12419952D01*
X3817905Y-12410428D01*
X3808381Y-12391381D01*
X3798857Y-12353286D01*
X3798857Y-12305667D01*
X3808381Y-12267571D01*
X3817905Y-12248524D01*
X3827428Y-12239000D01*
X3846476Y-12229476D01*
X3998857Y-12410428D02*
X4008381Y-12419952D01*
X3998857Y-12429476D01*
X3989333Y-12419952D01*
X3998857Y-12410428D01*
X3998857Y-12429476D01*
X4132190Y-12229476D02*
X4151238Y-12229476D01*
X4170286Y-12239000D01*
X4179809Y-12248524D01*
X4189333Y-12267571D01*
X4198857Y-12305667D01*
X4198857Y-12353286D01*
X4189333Y-12391381D01*
X4179809Y-12410428D01*
X4170286Y-12419952D01*
X4151238Y-12429476D01*
X4132190Y-12429476D01*
X4113143Y-12419952D01*
X4103619Y-12410428D01*
X4094095Y-12391381D01*
X4084571Y-12353286D01*
X4084571Y-12305667D01*
X4094095Y-12267571D01*
X4103619Y-12248524D01*
X4113143Y-12239000D01*
X4132190Y-12229476D01*
X4275048Y-12248524D02*
X4284571Y-12239000D01*
X4303619Y-12229476D01*
X4351238Y-12229476D01*
X4370286Y-12239000D01*
X4379810Y-12248524D01*
X4389333Y-12267571D01*
X4389333Y-12286619D01*
X4379810Y-12315190D01*
X4265524Y-12429476D01*
X4389333Y-12429476D01*
X4456000Y-12229476D02*
X4589333Y-12229476D01*
X4503619Y-12429476D01*
X4751238Y-12229476D02*
X4713143Y-12229476D01*
X4694095Y-12239000D01*
X4684571Y-12248524D01*
X4665524Y-12277095D01*
X4656000Y-12315190D01*
X4656000Y-12391381D01*
X4665524Y-12410428D01*
X4675048Y-12419952D01*
X4694095Y-12429476D01*
X4732190Y-12429476D01*
X4751238Y-12419952D01*
X4760762Y-12410428D01*
X4770286Y-12391381D01*
X4770286Y-12343762D01*
X4760762Y-12324714D01*
X4751238Y-12315190D01*
X4732190Y-12305667D01*
X4694095Y-12305667D01*
X4675048Y-12315190D01*
X4665524Y-12324714D01*
X4656000Y-12343762D01*
X4846476Y-12229476D02*
X4846476Y-12267571D01*
X4922667Y-12229476D02*
X4922667Y-12267571D01*
X5217905Y-12505667D02*
X5208381Y-12496143D01*
X5189333Y-12467571D01*
X5179810Y-12448524D01*
X5170286Y-12419952D01*
X5160762Y-12372333D01*
X5160762Y-12334238D01*
X5170286Y-12286619D01*
X5179810Y-12258048D01*
X5189333Y-12239000D01*
X5208381Y-12210428D01*
X5217905Y-12200905D01*
X5379810Y-12296143D02*
X5379810Y-12429476D01*
X5332190Y-12219952D02*
X5284571Y-12362809D01*
X5408381Y-12362809D01*
X5636952Y-12429476D02*
X5636952Y-12229476D01*
X5722667Y-12429476D02*
X5722667Y-12324714D01*
X5713143Y-12305667D01*
X5694095Y-12296143D01*
X5665524Y-12296143D01*
X5646476Y-12305667D01*
X5636952Y-12315190D01*
X5846476Y-12429476D02*
X5827428Y-12419952D01*
X5817905Y-12410428D01*
X5808381Y-12391381D01*
X5808381Y-12334238D01*
X5817905Y-12315190D01*
X5827428Y-12305667D01*
X5846476Y-12296143D01*
X5875048Y-12296143D01*
X5894095Y-12305667D01*
X5903619Y-12315190D01*
X5913143Y-12334238D01*
X5913143Y-12391381D01*
X5903619Y-12410428D01*
X5894095Y-12419952D01*
X5875048Y-12429476D01*
X5846476Y-12429476D01*
X6027428Y-12429476D02*
X6008381Y-12419952D01*
X5998857Y-12400905D01*
X5998857Y-12229476D01*
X6179809Y-12419952D02*
X6160762Y-12429476D01*
X6122667Y-12429476D01*
X6103619Y-12419952D01*
X6094095Y-12400905D01*
X6094095Y-12324714D01*
X6103619Y-12305667D01*
X6122667Y-12296143D01*
X6160762Y-12296143D01*
X6179809Y-12305667D01*
X6189333Y-12324714D01*
X6189333Y-12343762D01*
X6094095Y-12362809D01*
X6265524Y-12419952D02*
X6284571Y-12429476D01*
X6322667Y-12429476D01*
X6341714Y-12419952D01*
X6351238Y-12400905D01*
X6351238Y-12391381D01*
X6341714Y-12372333D01*
X6322667Y-12362809D01*
X6294095Y-12362809D01*
X6275048Y-12353286D01*
X6265524Y-12334238D01*
X6265524Y-12324714D01*
X6275048Y-12305667D01*
X6294095Y-12296143D01*
X6322667Y-12296143D01*
X6341714Y-12305667D01*
X6417905Y-12505667D02*
X6427428Y-12496143D01*
X6446476Y-12467571D01*
X6456000Y-12448524D01*
X6465524Y-12419952D01*
X6475048Y-12372333D01*
X6475048Y-12334238D01*
X6465524Y-12286619D01*
X6456000Y-12258048D01*
X6446476Y-12239000D01*
X6427428Y-12210428D01*
X6417905Y-12200905D01*
D14*
X1606000Y-12563000D02*
X1606000Y-12643000D01*
X1566000Y-12603000D02*
X1646000Y-12603000D01*
D11*
X1941714Y-12493476D02*
X1960762Y-12493476D01*
X1979809Y-12503000D01*
X1989333Y-12512524D01*
X1998857Y-12531571D01*
X2008381Y-12569667D01*
X2008381Y-12617286D01*
X1998857Y-12655381D01*
X1989333Y-12674428D01*
X1979809Y-12683952D01*
X1960762Y-12693476D01*
X1941714Y-12693476D01*
X1922667Y-12683952D01*
X1913143Y-12674428D01*
X1903619Y-12655381D01*
X1894095Y-12617286D01*
X1894095Y-12569667D01*
X1903619Y-12531571D01*
X1913143Y-12512524D01*
X1922667Y-12503000D01*
X1941714Y-12493476D01*
X2094095Y-12674428D02*
X2103619Y-12683952D01*
X2094095Y-12693476D01*
X2084571Y-12683952D01*
X2094095Y-12674428D01*
X2094095Y-12693476D01*
X2217905Y-12579190D02*
X2198857Y-12569667D01*
X2189333Y-12560143D01*
X2179810Y-12541095D01*
X2179810Y-12531571D01*
X2189333Y-12512524D01*
X2198857Y-12503000D01*
X2217905Y-12493476D01*
X2256000Y-12493476D01*
X2275048Y-12503000D01*
X2284571Y-12512524D01*
X2294095Y-12531571D01*
X2294095Y-12541095D01*
X2284571Y-12560143D01*
X2275048Y-12569667D01*
X2256000Y-12579190D01*
X2217905Y-12579190D01*
X2198857Y-12588714D01*
X2189333Y-12598238D01*
X2179810Y-12617286D01*
X2179810Y-12655381D01*
X2189333Y-12674428D01*
X2198857Y-12683952D01*
X2217905Y-12693476D01*
X2256000Y-12693476D01*
X2275048Y-12683952D01*
X2284571Y-12674428D01*
X2294095Y-12655381D01*
X2294095Y-12617286D01*
X2284571Y-12598238D01*
X2275048Y-12588714D01*
X2256000Y-12579190D01*
X2417905Y-12493476D02*
X2436952Y-12493476D01*
X2456000Y-12503000D01*
X2465524Y-12512524D01*
X2475048Y-12531571D01*
X2484571Y-12569667D01*
X2484571Y-12617286D01*
X2475048Y-12655381D01*
X2465524Y-12674428D01*
X2456000Y-12683952D01*
X2436952Y-12693476D01*
X2417905Y-12693476D01*
X2398857Y-12683952D01*
X2389333Y-12674428D01*
X2379810Y-12655381D01*
X2370286Y-12617286D01*
X2370286Y-12569667D01*
X2379810Y-12531571D01*
X2389333Y-12512524D01*
X2398857Y-12503000D01*
X2417905Y-12493476D01*
X2608381Y-12493476D02*
X2627429Y-12493476D01*
X2646476Y-12503000D01*
X2656000Y-12512524D01*
X2665524Y-12531571D01*
X2675048Y-12569667D01*
X2675048Y-12617286D01*
X2665524Y-12655381D01*
X2656000Y-12674428D01*
X2646476Y-12683952D01*
X2627429Y-12693476D01*
X2608381Y-12693476D01*
X2589333Y-12683952D01*
X2579810Y-12674428D01*
X2570286Y-12655381D01*
X2560762Y-12617286D01*
X2560762Y-12569667D01*
X2570286Y-12531571D01*
X2579810Y-12512524D01*
X2589333Y-12503000D01*
X2608381Y-12493476D01*
X2760762Y-12693476D02*
X2760762Y-12560143D01*
X2760762Y-12579190D02*
X2770286Y-12569667D01*
X2789333Y-12560143D01*
X2817905Y-12560143D01*
X2836952Y-12569667D01*
X2846476Y-12588714D01*
X2846476Y-12693476D01*
X2846476Y-12588714D02*
X2856000Y-12569667D01*
X2875048Y-12560143D01*
X2903619Y-12560143D01*
X2922667Y-12569667D01*
X2932190Y-12588714D01*
X2932190Y-12693476D01*
X3027428Y-12693476D02*
X3027428Y-12560143D01*
X3027428Y-12579190D02*
X3036952Y-12569667D01*
X3056000Y-12560143D01*
X3084571Y-12560143D01*
X3103619Y-12569667D01*
X3113143Y-12588714D01*
X3113143Y-12693476D01*
X3113143Y-12588714D02*
X3122667Y-12569667D01*
X3141714Y-12560143D01*
X3170286Y-12560143D01*
X3189333Y-12569667D01*
X3198857Y-12588714D01*
X3198857Y-12693476D01*
X3589333Y-12483952D02*
X3417905Y-12741095D01*
X3846476Y-12493476D02*
X3865524Y-12493476D01*
X3884571Y-12503000D01*
X3894095Y-12512524D01*
X3903619Y-12531571D01*
X3913143Y-12569667D01*
X3913143Y-12617286D01*
X3903619Y-12655381D01*
X3894095Y-12674428D01*
X3884571Y-12683952D01*
X3865524Y-12693476D01*
X3846476Y-12693476D01*
X3827428Y-12683952D01*
X3817905Y-12674428D01*
X3808381Y-12655381D01*
X3798857Y-12617286D01*
X3798857Y-12569667D01*
X3808381Y-12531571D01*
X3817905Y-12512524D01*
X3827428Y-12503000D01*
X3846476Y-12493476D01*
X3998857Y-12674428D02*
X4008381Y-12683952D01*
X3998857Y-12693476D01*
X3989333Y-12683952D01*
X3998857Y-12674428D01*
X3998857Y-12693476D01*
X4132190Y-12493476D02*
X4151238Y-12493476D01*
X4170286Y-12503000D01*
X4179809Y-12512524D01*
X4189333Y-12531571D01*
X4198857Y-12569667D01*
X4198857Y-12617286D01*
X4189333Y-12655381D01*
X4179809Y-12674428D01*
X4170286Y-12683952D01*
X4151238Y-12693476D01*
X4132190Y-12693476D01*
X4113143Y-12683952D01*
X4103619Y-12674428D01*
X4094095Y-12655381D01*
X4084571Y-12617286D01*
X4084571Y-12569667D01*
X4094095Y-12531571D01*
X4103619Y-12512524D01*
X4113143Y-12503000D01*
X4132190Y-12493476D01*
X4265524Y-12493476D02*
X4389333Y-12493476D01*
X4322667Y-12569667D01*
X4351238Y-12569667D01*
X4370286Y-12579190D01*
X4379810Y-12588714D01*
X4389333Y-12607762D01*
X4389333Y-12655381D01*
X4379810Y-12674428D01*
X4370286Y-12683952D01*
X4351238Y-12693476D01*
X4294095Y-12693476D01*
X4275048Y-12683952D01*
X4265524Y-12674428D01*
X4579810Y-12693476D02*
X4465524Y-12693476D01*
X4522667Y-12693476D02*
X4522667Y-12493476D01*
X4503619Y-12522048D01*
X4484571Y-12541095D01*
X4465524Y-12550619D01*
X4760762Y-12493476D02*
X4665524Y-12493476D01*
X4656000Y-12588714D01*
X4665524Y-12579190D01*
X4684571Y-12569667D01*
X4732190Y-12569667D01*
X4751238Y-12579190D01*
X4760762Y-12588714D01*
X4770286Y-12607762D01*
X4770286Y-12655381D01*
X4760762Y-12674428D01*
X4751238Y-12683952D01*
X4732190Y-12693476D01*
X4684571Y-12693476D01*
X4665524Y-12683952D01*
X4656000Y-12674428D01*
X4846476Y-12493476D02*
X4846476Y-12531571D01*
X4922667Y-12493476D02*
X4922667Y-12531571D01*
X5217905Y-12769667D02*
X5208381Y-12760143D01*
X5189333Y-12731571D01*
X5179810Y-12712524D01*
X5170286Y-12683952D01*
X5160762Y-12636333D01*
X5160762Y-12598238D01*
X5170286Y-12550619D01*
X5179810Y-12522048D01*
X5189333Y-12503000D01*
X5208381Y-12474428D01*
X5217905Y-12464905D01*
X5284571Y-12512524D02*
X5294095Y-12503000D01*
X5313143Y-12493476D01*
X5360762Y-12493476D01*
X5379810Y-12503000D01*
X5389333Y-12512524D01*
X5398857Y-12531571D01*
X5398857Y-12550619D01*
X5389333Y-12579190D01*
X5275048Y-12693476D01*
X5398857Y-12693476D01*
X5475048Y-12512524D02*
X5484571Y-12503000D01*
X5503619Y-12493476D01*
X5551238Y-12493476D01*
X5570286Y-12503000D01*
X5579810Y-12512524D01*
X5589333Y-12531571D01*
X5589333Y-12550619D01*
X5579810Y-12579190D01*
X5465524Y-12693476D01*
X5589333Y-12693476D01*
X5665524Y-12512524D02*
X5675048Y-12503000D01*
X5694095Y-12493476D01*
X5741714Y-12493476D01*
X5760762Y-12503000D01*
X5770286Y-12512524D01*
X5779809Y-12531571D01*
X5779809Y-12550619D01*
X5770286Y-12579190D01*
X5656000Y-12693476D01*
X5779809Y-12693476D01*
X6017905Y-12693476D02*
X6017905Y-12493476D01*
X6103619Y-12693476D02*
X6103619Y-12588714D01*
X6094095Y-12569667D01*
X6075048Y-12560143D01*
X6046476Y-12560143D01*
X6027428Y-12569667D01*
X6017905Y-12579190D01*
X6227428Y-12693476D02*
X6208381Y-12683952D01*
X6198857Y-12674428D01*
X6189333Y-12655381D01*
X6189333Y-12598238D01*
X6198857Y-12579190D01*
X6208381Y-12569667D01*
X6227428Y-12560143D01*
X6256000Y-12560143D01*
X6275048Y-12569667D01*
X6284571Y-12579190D01*
X6294095Y-12598238D01*
X6294095Y-12655381D01*
X6284571Y-12674428D01*
X6275048Y-12683952D01*
X6256000Y-12693476D01*
X6227428Y-12693476D01*
X6408381Y-12693476D02*
X6389333Y-12683952D01*
X6379809Y-12664905D01*
X6379809Y-12493476D01*
X6560762Y-12683952D02*
X6541714Y-12693476D01*
X6503619Y-12693476D01*
X6484571Y-12683952D01*
X6475048Y-12664905D01*
X6475048Y-12588714D01*
X6484571Y-12569667D01*
X6503619Y-12560143D01*
X6541714Y-12560143D01*
X6560762Y-12569667D01*
X6570286Y-12588714D01*
X6570286Y-12607762D01*
X6475048Y-12626809D01*
X6646476Y-12683952D02*
X6665524Y-12693476D01*
X6703619Y-12693476D01*
X6722667Y-12683952D01*
X6732190Y-12664905D01*
X6732190Y-12655381D01*
X6722667Y-12636333D01*
X6703619Y-12626809D01*
X6675048Y-12626809D01*
X6656000Y-12617286D01*
X6646476Y-12598238D01*
X6646476Y-12588714D01*
X6656000Y-12569667D01*
X6675048Y-12560143D01*
X6703619Y-12560143D01*
X6722667Y-12569667D01*
X6798857Y-12769667D02*
X6808381Y-12760143D01*
X6827428Y-12731571D01*
X6836952Y-12712524D01*
X6846476Y-12683952D01*
X6856000Y-12636333D01*
X6856000Y-12598238D01*
X6846476Y-12550619D01*
X6836952Y-12522048D01*
X6827428Y-12503000D01*
X6808381Y-12474428D01*
X6798857Y-12464905D01*
D15*
X1632820Y-12898820D02*
X1632820Y-12835180D01*
X1569180Y-12835180D01*
X1569180Y-12898820D01*
X1632820Y-12898820D01*
D11*
X1941714Y-12757476D02*
X1960762Y-12757476D01*
X1979809Y-12767000D01*
X1989333Y-12776524D01*
X1998857Y-12795571D01*
X2008381Y-12833667D01*
X2008381Y-12881286D01*
X1998857Y-12919381D01*
X1989333Y-12938428D01*
X1979809Y-12947952D01*
X1960762Y-12957476D01*
X1941714Y-12957476D01*
X1922667Y-12947952D01*
X1913143Y-12938428D01*
X1903619Y-12919381D01*
X1894095Y-12881286D01*
X1894095Y-12833667D01*
X1903619Y-12795571D01*
X1913143Y-12776524D01*
X1922667Y-12767000D01*
X1941714Y-12757476D01*
X2094095Y-12938428D02*
X2103619Y-12947952D01*
X2094095Y-12957476D01*
X2084571Y-12947952D01*
X2094095Y-12938428D01*
X2094095Y-12957476D01*
X2198857Y-12957476D02*
X2236952Y-12957476D01*
X2256000Y-12947952D01*
X2265524Y-12938428D01*
X2284571Y-12909857D01*
X2294095Y-12871762D01*
X2294095Y-12795571D01*
X2284571Y-12776524D01*
X2275048Y-12767000D01*
X2256000Y-12757476D01*
X2217905Y-12757476D01*
X2198857Y-12767000D01*
X2189333Y-12776524D01*
X2179810Y-12795571D01*
X2179810Y-12843190D01*
X2189333Y-12862238D01*
X2198857Y-12871762D01*
X2217905Y-12881286D01*
X2256000Y-12881286D01*
X2275048Y-12871762D01*
X2284571Y-12862238D01*
X2294095Y-12843190D01*
X2417905Y-12757476D02*
X2436952Y-12757476D01*
X2456000Y-12767000D01*
X2465524Y-12776524D01*
X2475048Y-12795571D01*
X2484571Y-12833667D01*
X2484571Y-12881286D01*
X2475048Y-12919381D01*
X2465524Y-12938428D01*
X2456000Y-12947952D01*
X2436952Y-12957476D01*
X2417905Y-12957476D01*
X2398857Y-12947952D01*
X2389333Y-12938428D01*
X2379810Y-12919381D01*
X2370286Y-12881286D01*
X2370286Y-12833667D01*
X2379810Y-12795571D01*
X2389333Y-12776524D01*
X2398857Y-12767000D01*
X2417905Y-12757476D01*
X2608381Y-12757476D02*
X2627429Y-12757476D01*
X2646476Y-12767000D01*
X2656000Y-12776524D01*
X2665524Y-12795571D01*
X2675048Y-12833667D01*
X2675048Y-12881286D01*
X2665524Y-12919381D01*
X2656000Y-12938428D01*
X2646476Y-12947952D01*
X2627429Y-12957476D01*
X2608381Y-12957476D01*
X2589333Y-12947952D01*
X2579810Y-12938428D01*
X2570286Y-12919381D01*
X2560762Y-12881286D01*
X2560762Y-12833667D01*
X2570286Y-12795571D01*
X2579810Y-12776524D01*
X2589333Y-12767000D01*
X2608381Y-12757476D01*
X2760762Y-12957476D02*
X2760762Y-12824143D01*
X2760762Y-12843190D02*
X2770286Y-12833667D01*
X2789333Y-12824143D01*
X2817905Y-12824143D01*
X2836952Y-12833667D01*
X2846476Y-12852714D01*
X2846476Y-12957476D01*
X2846476Y-12852714D02*
X2856000Y-12833667D01*
X2875048Y-12824143D01*
X2903619Y-12824143D01*
X2922667Y-12833667D01*
X2932190Y-12852714D01*
X2932190Y-12957476D01*
X3027428Y-12957476D02*
X3027428Y-12824143D01*
X3027428Y-12843190D02*
X3036952Y-12833667D01*
X3056000Y-12824143D01*
X3084571Y-12824143D01*
X3103619Y-12833667D01*
X3113143Y-12852714D01*
X3113143Y-12957476D01*
X3113143Y-12852714D02*
X3122667Y-12833667D01*
X3141714Y-12824143D01*
X3170286Y-12824143D01*
X3189333Y-12833667D01*
X3198857Y-12852714D01*
X3198857Y-12957476D01*
X3589333Y-12747952D02*
X3417905Y-13005095D01*
X3846476Y-12757476D02*
X3865524Y-12757476D01*
X3884571Y-12767000D01*
X3894095Y-12776524D01*
X3903619Y-12795571D01*
X3913143Y-12833667D01*
X3913143Y-12881286D01*
X3903619Y-12919381D01*
X3894095Y-12938428D01*
X3884571Y-12947952D01*
X3865524Y-12957476D01*
X3846476Y-12957476D01*
X3827428Y-12947952D01*
X3817905Y-12938428D01*
X3808381Y-12919381D01*
X3798857Y-12881286D01*
X3798857Y-12833667D01*
X3808381Y-12795571D01*
X3817905Y-12776524D01*
X3827428Y-12767000D01*
X3846476Y-12757476D01*
X3998857Y-12938428D02*
X4008381Y-12947952D01*
X3998857Y-12957476D01*
X3989333Y-12947952D01*
X3998857Y-12938428D01*
X3998857Y-12957476D01*
X4132190Y-12757476D02*
X4151238Y-12757476D01*
X4170286Y-12767000D01*
X4179809Y-12776524D01*
X4189333Y-12795571D01*
X4198857Y-12833667D01*
X4198857Y-12881286D01*
X4189333Y-12919381D01*
X4179809Y-12938428D01*
X4170286Y-12947952D01*
X4151238Y-12957476D01*
X4132190Y-12957476D01*
X4113143Y-12947952D01*
X4103619Y-12938428D01*
X4094095Y-12919381D01*
X4084571Y-12881286D01*
X4084571Y-12833667D01*
X4094095Y-12795571D01*
X4103619Y-12776524D01*
X4113143Y-12767000D01*
X4132190Y-12757476D01*
X4265524Y-12757476D02*
X4389333Y-12757476D01*
X4322667Y-12833667D01*
X4351238Y-12833667D01*
X4370286Y-12843190D01*
X4379810Y-12852714D01*
X4389333Y-12871762D01*
X4389333Y-12919381D01*
X4379810Y-12938428D01*
X4370286Y-12947952D01*
X4351238Y-12957476D01*
X4294095Y-12957476D01*
X4275048Y-12947952D01*
X4265524Y-12938428D01*
X4570286Y-12757476D02*
X4475048Y-12757476D01*
X4465524Y-12852714D01*
X4475048Y-12843190D01*
X4494095Y-12833667D01*
X4541714Y-12833667D01*
X4560762Y-12843190D01*
X4570286Y-12852714D01*
X4579810Y-12871762D01*
X4579810Y-12919381D01*
X4570286Y-12938428D01*
X4560762Y-12947952D01*
X4541714Y-12957476D01*
X4494095Y-12957476D01*
X4475048Y-12947952D01*
X4465524Y-12938428D01*
X4751238Y-12824143D02*
X4751238Y-12957476D01*
X4703619Y-12747952D02*
X4656000Y-12890809D01*
X4779810Y-12890809D01*
X4846476Y-12757476D02*
X4846476Y-12795571D01*
X4922667Y-12757476D02*
X4922667Y-12795571D01*
X5217905Y-13033667D02*
X5208381Y-13024143D01*
X5189333Y-12995571D01*
X5179810Y-12976524D01*
X5170286Y-12947952D01*
X5160762Y-12900333D01*
X5160762Y-12862238D01*
X5170286Y-12814619D01*
X5179810Y-12786048D01*
X5189333Y-12767000D01*
X5208381Y-12738428D01*
X5217905Y-12728905D01*
X5284571Y-12776524D02*
X5294095Y-12767000D01*
X5313143Y-12757476D01*
X5360762Y-12757476D01*
X5379810Y-12767000D01*
X5389333Y-12776524D01*
X5398857Y-12795571D01*
X5398857Y-12814619D01*
X5389333Y-12843190D01*
X5275048Y-12957476D01*
X5398857Y-12957476D01*
X5636952Y-12957476D02*
X5636952Y-12757476D01*
X5722667Y-12957476D02*
X5722667Y-12852714D01*
X5713143Y-12833667D01*
X5694095Y-12824143D01*
X5665524Y-12824143D01*
X5646476Y-12833667D01*
X5636952Y-12843190D01*
X5846476Y-12957476D02*
X5827428Y-12947952D01*
X5817905Y-12938428D01*
X5808381Y-12919381D01*
X5808381Y-12862238D01*
X5817905Y-12843190D01*
X5827428Y-12833667D01*
X5846476Y-12824143D01*
X5875048Y-12824143D01*
X5894095Y-12833667D01*
X5903619Y-12843190D01*
X5913143Y-12862238D01*
X5913143Y-12919381D01*
X5903619Y-12938428D01*
X5894095Y-12947952D01*
X5875048Y-12957476D01*
X5846476Y-12957476D01*
X6027428Y-12957476D02*
X6008381Y-12947952D01*
X5998857Y-12928905D01*
X5998857Y-12757476D01*
X6179809Y-12947952D02*
X6160762Y-12957476D01*
X6122667Y-12957476D01*
X6103619Y-12947952D01*
X6094095Y-12928905D01*
X6094095Y-12852714D01*
X6103619Y-12833667D01*
X6122667Y-12824143D01*
X6160762Y-12824143D01*
X6179809Y-12833667D01*
X6189333Y-12852714D01*
X6189333Y-12871762D01*
X6094095Y-12890809D01*
X6265524Y-12947952D02*
X6284571Y-12957476D01*
X6322667Y-12957476D01*
X6341714Y-12947952D01*
X6351238Y-12928905D01*
X6351238Y-12919381D01*
X6341714Y-12900333D01*
X6322667Y-12890809D01*
X6294095Y-12890809D01*
X6275048Y-12881286D01*
X6265524Y-12862238D01*
X6265524Y-12852714D01*
X6275048Y-12833667D01*
X6294095Y-12824143D01*
X6322667Y-12824143D01*
X6341714Y-12833667D01*
X6417905Y-13033667D02*
X6427428Y-13024143D01*
X6446476Y-12995571D01*
X6456000Y-12976524D01*
X6465524Y-12947952D01*
X6475048Y-12900333D01*
X6475048Y-12862238D01*
X6465524Y-12814619D01*
X6456000Y-12786048D01*
X6446476Y-12767000D01*
X6427428Y-12738428D01*
X6417905Y-12728905D01*
D16*
X1598500Y-13178500D02*
X1646000Y-13131000D01*
X1598500Y-13083500D01*
X1551000Y-13131000D01*
X1598500Y-13178500D01*
D11*
X1941714Y-13021476D02*
X1960762Y-13021476D01*
X1979809Y-13031000D01*
X1989333Y-13040524D01*
X1998857Y-13059571D01*
X2008381Y-13097667D01*
X2008381Y-13145286D01*
X1998857Y-13183381D01*
X1989333Y-13202428D01*
X1979809Y-13211952D01*
X1960762Y-13221476D01*
X1941714Y-13221476D01*
X1922667Y-13211952D01*
X1913143Y-13202428D01*
X1903619Y-13183381D01*
X1894095Y-13145286D01*
X1894095Y-13097667D01*
X1903619Y-13059571D01*
X1913143Y-13040524D01*
X1922667Y-13031000D01*
X1941714Y-13021476D01*
X2094095Y-13202428D02*
X2103619Y-13211952D01*
X2094095Y-13221476D01*
X2084571Y-13211952D01*
X2094095Y-13202428D01*
X2094095Y-13221476D01*
X2198857Y-13221476D02*
X2236952Y-13221476D01*
X2256000Y-13211952D01*
X2265524Y-13202428D01*
X2284571Y-13173857D01*
X2294095Y-13135762D01*
X2294095Y-13059571D01*
X2284571Y-13040524D01*
X2275048Y-13031000D01*
X2256000Y-13021476D01*
X2217905Y-13021476D01*
X2198857Y-13031000D01*
X2189333Y-13040524D01*
X2179810Y-13059571D01*
X2179810Y-13107190D01*
X2189333Y-13126238D01*
X2198857Y-13135762D01*
X2217905Y-13145286D01*
X2256000Y-13145286D01*
X2275048Y-13135762D01*
X2284571Y-13126238D01*
X2294095Y-13107190D01*
X2475048Y-13021476D02*
X2379810Y-13021476D01*
X2370286Y-13116714D01*
X2379810Y-13107190D01*
X2398857Y-13097667D01*
X2446476Y-13097667D01*
X2465524Y-13107190D01*
X2475048Y-13116714D01*
X2484571Y-13135762D01*
X2484571Y-13183381D01*
X2475048Y-13202428D01*
X2465524Y-13211952D01*
X2446476Y-13221476D01*
X2398857Y-13221476D01*
X2379810Y-13211952D01*
X2370286Y-13202428D01*
X2608381Y-13021476D02*
X2627429Y-13021476D01*
X2646476Y-13031000D01*
X2656000Y-13040524D01*
X2665524Y-13059571D01*
X2675048Y-13097667D01*
X2675048Y-13145286D01*
X2665524Y-13183381D01*
X2656000Y-13202428D01*
X2646476Y-13211952D01*
X2627429Y-13221476D01*
X2608381Y-13221476D01*
X2589333Y-13211952D01*
X2579810Y-13202428D01*
X2570286Y-13183381D01*
X2560762Y-13145286D01*
X2560762Y-13097667D01*
X2570286Y-13059571D01*
X2579810Y-13040524D01*
X2589333Y-13031000D01*
X2608381Y-13021476D01*
X2760762Y-13221476D02*
X2760762Y-13088143D01*
X2760762Y-13107190D02*
X2770286Y-13097667D01*
X2789333Y-13088143D01*
X2817905Y-13088143D01*
X2836952Y-13097667D01*
X2846476Y-13116714D01*
X2846476Y-13221476D01*
X2846476Y-13116714D02*
X2856000Y-13097667D01*
X2875048Y-13088143D01*
X2903619Y-13088143D01*
X2922667Y-13097667D01*
X2932190Y-13116714D01*
X2932190Y-13221476D01*
X3027428Y-13221476D02*
X3027428Y-13088143D01*
X3027428Y-13107190D02*
X3036952Y-13097667D01*
X3056000Y-13088143D01*
X3084571Y-13088143D01*
X3103619Y-13097667D01*
X3113143Y-13116714D01*
X3113143Y-13221476D01*
X3113143Y-13116714D02*
X3122667Y-13097667D01*
X3141714Y-13088143D01*
X3170286Y-13088143D01*
X3189333Y-13097667D01*
X3198857Y-13116714D01*
X3198857Y-13221476D01*
X3589333Y-13011952D02*
X3417905Y-13269095D01*
X3846476Y-13021476D02*
X3865524Y-13021476D01*
X3884571Y-13031000D01*
X3894095Y-13040524D01*
X3903619Y-13059571D01*
X3913143Y-13097667D01*
X3913143Y-13145286D01*
X3903619Y-13183381D01*
X3894095Y-13202428D01*
X3884571Y-13211952D01*
X3865524Y-13221476D01*
X3846476Y-13221476D01*
X3827428Y-13211952D01*
X3817905Y-13202428D01*
X3808381Y-13183381D01*
X3798857Y-13145286D01*
X3798857Y-13097667D01*
X3808381Y-13059571D01*
X3817905Y-13040524D01*
X3827428Y-13031000D01*
X3846476Y-13021476D01*
X3998857Y-13202428D02*
X4008381Y-13211952D01*
X3998857Y-13221476D01*
X3989333Y-13211952D01*
X3998857Y-13202428D01*
X3998857Y-13221476D01*
X4132190Y-13021476D02*
X4151238Y-13021476D01*
X4170286Y-13031000D01*
X4179809Y-13040524D01*
X4189333Y-13059571D01*
X4198857Y-13097667D01*
X4198857Y-13145286D01*
X4189333Y-13183381D01*
X4179809Y-13202428D01*
X4170286Y-13211952D01*
X4151238Y-13221476D01*
X4132190Y-13221476D01*
X4113143Y-13211952D01*
X4103619Y-13202428D01*
X4094095Y-13183381D01*
X4084571Y-13145286D01*
X4084571Y-13097667D01*
X4094095Y-13059571D01*
X4103619Y-13040524D01*
X4113143Y-13031000D01*
X4132190Y-13021476D01*
X4265524Y-13021476D02*
X4389333Y-13021476D01*
X4322667Y-13097667D01*
X4351238Y-13097667D01*
X4370286Y-13107190D01*
X4379810Y-13116714D01*
X4389333Y-13135762D01*
X4389333Y-13183381D01*
X4379810Y-13202428D01*
X4370286Y-13211952D01*
X4351238Y-13221476D01*
X4294095Y-13221476D01*
X4275048Y-13211952D01*
X4265524Y-13202428D01*
X4456000Y-13021476D02*
X4589333Y-13021476D01*
X4503619Y-13221476D01*
X4751238Y-13088143D02*
X4751238Y-13221476D01*
X4703619Y-13011952D02*
X4656000Y-13154809D01*
X4779810Y-13154809D01*
X4846476Y-13021476D02*
X4846476Y-13059571D01*
X4922667Y-13021476D02*
X4922667Y-13059571D01*
X5217905Y-13297667D02*
X5208381Y-13288143D01*
X5189333Y-13259571D01*
X5179810Y-13240524D01*
X5170286Y-13211952D01*
X5160762Y-13164333D01*
X5160762Y-13126238D01*
X5170286Y-13078619D01*
X5179810Y-13050048D01*
X5189333Y-13031000D01*
X5208381Y-13002428D01*
X5217905Y-12992905D01*
X5379810Y-13088143D02*
X5379810Y-13221476D01*
X5332190Y-13011952D02*
X5284571Y-13154809D01*
X5408381Y-13154809D01*
X5636952Y-13221476D02*
X5636952Y-13021476D01*
X5722667Y-13221476D02*
X5722667Y-13116714D01*
X5713143Y-13097667D01*
X5694095Y-13088143D01*
X5665524Y-13088143D01*
X5646476Y-13097667D01*
X5636952Y-13107190D01*
X5846476Y-13221476D02*
X5827428Y-13211952D01*
X5817905Y-13202428D01*
X5808381Y-13183381D01*
X5808381Y-13126238D01*
X5817905Y-13107190D01*
X5827428Y-13097667D01*
X5846476Y-13088143D01*
X5875048Y-13088143D01*
X5894095Y-13097667D01*
X5903619Y-13107190D01*
X5913143Y-13126238D01*
X5913143Y-13183381D01*
X5903619Y-13202428D01*
X5894095Y-13211952D01*
X5875048Y-13221476D01*
X5846476Y-13221476D01*
X6027428Y-13221476D02*
X6008381Y-13211952D01*
X5998857Y-13192905D01*
X5998857Y-13021476D01*
X6179809Y-13211952D02*
X6160762Y-13221476D01*
X6122667Y-13221476D01*
X6103619Y-13211952D01*
X6094095Y-13192905D01*
X6094095Y-13116714D01*
X6103619Y-13097667D01*
X6122667Y-13088143D01*
X6160762Y-13088143D01*
X6179809Y-13097667D01*
X6189333Y-13116714D01*
X6189333Y-13135762D01*
X6094095Y-13154809D01*
X6265524Y-13211952D02*
X6284571Y-13221476D01*
X6322667Y-13221476D01*
X6341714Y-13211952D01*
X6351238Y-13192905D01*
X6351238Y-13183381D01*
X6341714Y-13164333D01*
X6322667Y-13154809D01*
X6294095Y-13154809D01*
X6275048Y-13145286D01*
X6265524Y-13126238D01*
X6265524Y-13116714D01*
X6275048Y-13097667D01*
X6294095Y-13088143D01*
X6322667Y-13088143D01*
X6341714Y-13097667D01*
X6417905Y-13297667D02*
X6427428Y-13288143D01*
X6446476Y-13259571D01*
X6456000Y-13240524D01*
X6465524Y-13211952D01*
X6475048Y-13164333D01*
X6475048Y-13126238D01*
X6465524Y-13078619D01*
X6456000Y-13050048D01*
X6446476Y-13031000D01*
X6427428Y-13002428D01*
X6417905Y-12992905D01*
D17*
X1546000Y-13345000D02*
X1646000Y-13445000D01*
X1646000Y-13345000D02*
X1546000Y-13445000D01*
X1646000Y-13395000D02*
G75*
G03*
X1646000Y-13395000I-50000J0D01*
G01*
D11*
X2008381Y-13485476D02*
X1894095Y-13485476D01*
X1951238Y-13485476D02*
X1951238Y-13285476D01*
X1932190Y-13314048D01*
X1913143Y-13333095D01*
X1894095Y-13342619D01*
X2094095Y-13466428D02*
X2103619Y-13475952D01*
X2094095Y-13485476D01*
X2084571Y-13475952D01*
X2094095Y-13466428D01*
X2094095Y-13485476D01*
X2227429Y-13285476D02*
X2246476Y-13285476D01*
X2265524Y-13295000D01*
X2275048Y-13304524D01*
X2284571Y-13323571D01*
X2294095Y-13361667D01*
X2294095Y-13409286D01*
X2284571Y-13447381D01*
X2275048Y-13466428D01*
X2265524Y-13475952D01*
X2246476Y-13485476D01*
X2227429Y-13485476D01*
X2208381Y-13475952D01*
X2198857Y-13466428D01*
X2189333Y-13447381D01*
X2179810Y-13409286D01*
X2179810Y-13361667D01*
X2189333Y-13323571D01*
X2198857Y-13304524D01*
X2208381Y-13295000D01*
X2227429Y-13285476D01*
X2417905Y-13285476D02*
X2436952Y-13285476D01*
X2456000Y-13295000D01*
X2465524Y-13304524D01*
X2475048Y-13323571D01*
X2484571Y-13361667D01*
X2484571Y-13409286D01*
X2475048Y-13447381D01*
X2465524Y-13466428D01*
X2456000Y-13475952D01*
X2436952Y-13485476D01*
X2417905Y-13485476D01*
X2398857Y-13475952D01*
X2389333Y-13466428D01*
X2379810Y-13447381D01*
X2370286Y-13409286D01*
X2370286Y-13361667D01*
X2379810Y-13323571D01*
X2389333Y-13304524D01*
X2398857Y-13295000D01*
X2417905Y-13285476D01*
X2608381Y-13285476D02*
X2627429Y-13285476D01*
X2646476Y-13295000D01*
X2656000Y-13304524D01*
X2665524Y-13323571D01*
X2675048Y-13361667D01*
X2675048Y-13409286D01*
X2665524Y-13447381D01*
X2656000Y-13466428D01*
X2646476Y-13475952D01*
X2627429Y-13485476D01*
X2608381Y-13485476D01*
X2589333Y-13475952D01*
X2579810Y-13466428D01*
X2570286Y-13447381D01*
X2560762Y-13409286D01*
X2560762Y-13361667D01*
X2570286Y-13323571D01*
X2579810Y-13304524D01*
X2589333Y-13295000D01*
X2608381Y-13285476D01*
X2760762Y-13485476D02*
X2760762Y-13352143D01*
X2760762Y-13371190D02*
X2770286Y-13361667D01*
X2789333Y-13352143D01*
X2817905Y-13352143D01*
X2836952Y-13361667D01*
X2846476Y-13380714D01*
X2846476Y-13485476D01*
X2846476Y-13380714D02*
X2856000Y-13361667D01*
X2875048Y-13352143D01*
X2903619Y-13352143D01*
X2922667Y-13361667D01*
X2932190Y-13380714D01*
X2932190Y-13485476D01*
X3027428Y-13485476D02*
X3027428Y-13352143D01*
X3027428Y-13371190D02*
X3036952Y-13361667D01*
X3056000Y-13352143D01*
X3084571Y-13352143D01*
X3103619Y-13361667D01*
X3113143Y-13380714D01*
X3113143Y-13485476D01*
X3113143Y-13380714D02*
X3122667Y-13361667D01*
X3141714Y-13352143D01*
X3170286Y-13352143D01*
X3189333Y-13361667D01*
X3198857Y-13380714D01*
X3198857Y-13485476D01*
X3589333Y-13275952D02*
X3417905Y-13533095D01*
X3846476Y-13285476D02*
X3865524Y-13285476D01*
X3884571Y-13295000D01*
X3894095Y-13304524D01*
X3903619Y-13323571D01*
X3913143Y-13361667D01*
X3913143Y-13409286D01*
X3903619Y-13447381D01*
X3894095Y-13466428D01*
X3884571Y-13475952D01*
X3865524Y-13485476D01*
X3846476Y-13485476D01*
X3827428Y-13475952D01*
X3817905Y-13466428D01*
X3808381Y-13447381D01*
X3798857Y-13409286D01*
X3798857Y-13361667D01*
X3808381Y-13323571D01*
X3817905Y-13304524D01*
X3827428Y-13295000D01*
X3846476Y-13285476D01*
X3998857Y-13466428D02*
X4008381Y-13475952D01*
X3998857Y-13485476D01*
X3989333Y-13475952D01*
X3998857Y-13466428D01*
X3998857Y-13485476D01*
X4132190Y-13285476D02*
X4151238Y-13285476D01*
X4170286Y-13295000D01*
X4179809Y-13304524D01*
X4189333Y-13323571D01*
X4198857Y-13361667D01*
X4198857Y-13409286D01*
X4189333Y-13447381D01*
X4179809Y-13466428D01*
X4170286Y-13475952D01*
X4151238Y-13485476D01*
X4132190Y-13485476D01*
X4113143Y-13475952D01*
X4103619Y-13466428D01*
X4094095Y-13447381D01*
X4084571Y-13409286D01*
X4084571Y-13361667D01*
X4094095Y-13323571D01*
X4103619Y-13304524D01*
X4113143Y-13295000D01*
X4132190Y-13285476D01*
X4265524Y-13285476D02*
X4389333Y-13285476D01*
X4322667Y-13361667D01*
X4351238Y-13361667D01*
X4370286Y-13371190D01*
X4379810Y-13380714D01*
X4389333Y-13399762D01*
X4389333Y-13447381D01*
X4379810Y-13466428D01*
X4370286Y-13475952D01*
X4351238Y-13485476D01*
X4294095Y-13485476D01*
X4275048Y-13475952D01*
X4265524Y-13466428D01*
X4484571Y-13485476D02*
X4522667Y-13485476D01*
X4541714Y-13475952D01*
X4551238Y-13466428D01*
X4570286Y-13437857D01*
X4579810Y-13399762D01*
X4579810Y-13323571D01*
X4570286Y-13304524D01*
X4560762Y-13295000D01*
X4541714Y-13285476D01*
X4503619Y-13285476D01*
X4484571Y-13295000D01*
X4475048Y-13304524D01*
X4465524Y-13323571D01*
X4465524Y-13371190D01*
X4475048Y-13390238D01*
X4484571Y-13399762D01*
X4503619Y-13409286D01*
X4541714Y-13409286D01*
X4560762Y-13399762D01*
X4570286Y-13390238D01*
X4579810Y-13371190D01*
X4751238Y-13352143D02*
X4751238Y-13485476D01*
X4703619Y-13275952D02*
X4656000Y-13418809D01*
X4779810Y-13418809D01*
X4846476Y-13285476D02*
X4846476Y-13323571D01*
X4922667Y-13285476D02*
X4922667Y-13323571D01*
X5217905Y-13561667D02*
X5208381Y-13552143D01*
X5189333Y-13523571D01*
X5179810Y-13504524D01*
X5170286Y-13475952D01*
X5160762Y-13428333D01*
X5160762Y-13390238D01*
X5170286Y-13342619D01*
X5179810Y-13314048D01*
X5189333Y-13295000D01*
X5208381Y-13266428D01*
X5217905Y-13256905D01*
X5275048Y-13285476D02*
X5398857Y-13285476D01*
X5332190Y-13361667D01*
X5360762Y-13361667D01*
X5379810Y-13371190D01*
X5389333Y-13380714D01*
X5398857Y-13399762D01*
X5398857Y-13447381D01*
X5389333Y-13466428D01*
X5379810Y-13475952D01*
X5360762Y-13485476D01*
X5303619Y-13485476D01*
X5284571Y-13475952D01*
X5275048Y-13466428D01*
X5579810Y-13285476D02*
X5484571Y-13285476D01*
X5475048Y-13380714D01*
X5484571Y-13371190D01*
X5503619Y-13361667D01*
X5551238Y-13361667D01*
X5570286Y-13371190D01*
X5579810Y-13380714D01*
X5589333Y-13399762D01*
X5589333Y-13447381D01*
X5579810Y-13466428D01*
X5570286Y-13475952D01*
X5551238Y-13485476D01*
X5503619Y-13485476D01*
X5484571Y-13475952D01*
X5475048Y-13466428D01*
X5760762Y-13352143D02*
X5760762Y-13485476D01*
X5713143Y-13275952D02*
X5665524Y-13418809D01*
X5789333Y-13418809D01*
X6017905Y-13485476D02*
X6017905Y-13285476D01*
X6103619Y-13485476D02*
X6103619Y-13380714D01*
X6094095Y-13361667D01*
X6075048Y-13352143D01*
X6046476Y-13352143D01*
X6027428Y-13361667D01*
X6017905Y-13371190D01*
X6227428Y-13485476D02*
X6208381Y-13475952D01*
X6198857Y-13466428D01*
X6189333Y-13447381D01*
X6189333Y-13390238D01*
X6198857Y-13371190D01*
X6208381Y-13361667D01*
X6227428Y-13352143D01*
X6256000Y-13352143D01*
X6275048Y-13361667D01*
X6284571Y-13371190D01*
X6294095Y-13390238D01*
X6294095Y-13447381D01*
X6284571Y-13466428D01*
X6275048Y-13475952D01*
X6256000Y-13485476D01*
X6227428Y-13485476D01*
X6408381Y-13485476D02*
X6389333Y-13475952D01*
X6379809Y-13456905D01*
X6379809Y-13285476D01*
X6560762Y-13475952D02*
X6541714Y-13485476D01*
X6503619Y-13485476D01*
X6484571Y-13475952D01*
X6475048Y-13456905D01*
X6475048Y-13380714D01*
X6484571Y-13361667D01*
X6503619Y-13352143D01*
X6541714Y-13352143D01*
X6560762Y-13361667D01*
X6570286Y-13380714D01*
X6570286Y-13399762D01*
X6475048Y-13418809D01*
X6646476Y-13475952D02*
X6665524Y-13485476D01*
X6703619Y-13485476D01*
X6722667Y-13475952D01*
X6732190Y-13456905D01*
X6732190Y-13447381D01*
X6722667Y-13428333D01*
X6703619Y-13418809D01*
X6675048Y-13418809D01*
X6656000Y-13409286D01*
X6646476Y-13390238D01*
X6646476Y-13380714D01*
X6656000Y-13361667D01*
X6675048Y-13352143D01*
X6703619Y-13352143D01*
X6722667Y-13361667D01*
X6798857Y-13561667D02*
X6808381Y-13552143D01*
X6827428Y-13523571D01*
X6836952Y-13504524D01*
X6846476Y-13475952D01*
X6856000Y-13428333D01*
X6856000Y-13390238D01*
X6846476Y-13342619D01*
X6836952Y-13314048D01*
X6827428Y-13295000D01*
X6808381Y-13266428D01*
X6798857Y-13256905D01*
X1446000Y-13559000D02*
X1646000Y-13759000D01*
X1646000Y-13559000D02*
X1446000Y-13759000D01*
X1546000Y-13559000D02*
X1546000Y-13759000D01*
X1446000Y-13659000D02*
X1646000Y-13659000D01*
X1894095Y-13568524D02*
X1903619Y-13559000D01*
X1922667Y-13549476D01*
X1970286Y-13549476D01*
X1989333Y-13559000D01*
X1998857Y-13568524D01*
X2008381Y-13587571D01*
X2008381Y-13606619D01*
X1998857Y-13635190D01*
X1884571Y-13749476D01*
X2008381Y-13749476D01*
X2094095Y-13730428D02*
X2103619Y-13739952D01*
X2094095Y-13749476D01*
X2084571Y-13739952D01*
X2094095Y-13730428D01*
X2094095Y-13749476D01*
X2170286Y-13549476D02*
X2294095Y-13549476D01*
X2227429Y-13625667D01*
X2256000Y-13625667D01*
X2275048Y-13635190D01*
X2284571Y-13644714D01*
X2294095Y-13663762D01*
X2294095Y-13711381D01*
X2284571Y-13730428D01*
X2275048Y-13739952D01*
X2256000Y-13749476D01*
X2198857Y-13749476D01*
X2179810Y-13739952D01*
X2170286Y-13730428D01*
X2417905Y-13549476D02*
X2436952Y-13549476D01*
X2456000Y-13559000D01*
X2465524Y-13568524D01*
X2475048Y-13587571D01*
X2484571Y-13625667D01*
X2484571Y-13673286D01*
X2475048Y-13711381D01*
X2465524Y-13730428D01*
X2456000Y-13739952D01*
X2436952Y-13749476D01*
X2417905Y-13749476D01*
X2398857Y-13739952D01*
X2389333Y-13730428D01*
X2379810Y-13711381D01*
X2370286Y-13673286D01*
X2370286Y-13625667D01*
X2379810Y-13587571D01*
X2389333Y-13568524D01*
X2398857Y-13559000D01*
X2417905Y-13549476D01*
X2608381Y-13549476D02*
X2627429Y-13549476D01*
X2646476Y-13559000D01*
X2656000Y-13568524D01*
X2665524Y-13587571D01*
X2675048Y-13625667D01*
X2675048Y-13673286D01*
X2665524Y-13711381D01*
X2656000Y-13730428D01*
X2646476Y-13739952D01*
X2627429Y-13749476D01*
X2608381Y-13749476D01*
X2589333Y-13739952D01*
X2579810Y-13730428D01*
X2570286Y-13711381D01*
X2560762Y-13673286D01*
X2560762Y-13625667D01*
X2570286Y-13587571D01*
X2579810Y-13568524D01*
X2589333Y-13559000D01*
X2608381Y-13549476D01*
X2760762Y-13749476D02*
X2760762Y-13616143D01*
X2760762Y-13635190D02*
X2770286Y-13625667D01*
X2789333Y-13616143D01*
X2817905Y-13616143D01*
X2836952Y-13625667D01*
X2846476Y-13644714D01*
X2846476Y-13749476D01*
X2846476Y-13644714D02*
X2856000Y-13625667D01*
X2875048Y-13616143D01*
X2903619Y-13616143D01*
X2922667Y-13625667D01*
X2932190Y-13644714D01*
X2932190Y-13749476D01*
X3027428Y-13749476D02*
X3027428Y-13616143D01*
X3027428Y-13635190D02*
X3036952Y-13625667D01*
X3056000Y-13616143D01*
X3084571Y-13616143D01*
X3103619Y-13625667D01*
X3113143Y-13644714D01*
X3113143Y-13749476D01*
X3113143Y-13644714D02*
X3122667Y-13625667D01*
X3141714Y-13616143D01*
X3170286Y-13616143D01*
X3189333Y-13625667D01*
X3198857Y-13644714D01*
X3198857Y-13749476D01*
X3589333Y-13539952D02*
X3417905Y-13797095D01*
X3846476Y-13549476D02*
X3865524Y-13549476D01*
X3884571Y-13559000D01*
X3894095Y-13568524D01*
X3903619Y-13587571D01*
X3913143Y-13625667D01*
X3913143Y-13673286D01*
X3903619Y-13711381D01*
X3894095Y-13730428D01*
X3884571Y-13739952D01*
X3865524Y-13749476D01*
X3846476Y-13749476D01*
X3827428Y-13739952D01*
X3817905Y-13730428D01*
X3808381Y-13711381D01*
X3798857Y-13673286D01*
X3798857Y-13625667D01*
X3808381Y-13587571D01*
X3817905Y-13568524D01*
X3827428Y-13559000D01*
X3846476Y-13549476D01*
X3998857Y-13730428D02*
X4008381Y-13739952D01*
X3998857Y-13749476D01*
X3989333Y-13739952D01*
X3998857Y-13730428D01*
X3998857Y-13749476D01*
X4132190Y-13549476D02*
X4151238Y-13549476D01*
X4170286Y-13559000D01*
X4179809Y-13568524D01*
X4189333Y-13587571D01*
X4198857Y-13625667D01*
X4198857Y-13673286D01*
X4189333Y-13711381D01*
X4179809Y-13730428D01*
X4170286Y-13739952D01*
X4151238Y-13749476D01*
X4132190Y-13749476D01*
X4113143Y-13739952D01*
X4103619Y-13730428D01*
X4094095Y-13711381D01*
X4084571Y-13673286D01*
X4084571Y-13625667D01*
X4094095Y-13587571D01*
X4103619Y-13568524D01*
X4113143Y-13559000D01*
X4132190Y-13549476D01*
X4294095Y-13749476D02*
X4332190Y-13749476D01*
X4351238Y-13739952D01*
X4360762Y-13730428D01*
X4379810Y-13701857D01*
X4389333Y-13663762D01*
X4389333Y-13587571D01*
X4379810Y-13568524D01*
X4370286Y-13559000D01*
X4351238Y-13549476D01*
X4313143Y-13549476D01*
X4294095Y-13559000D01*
X4284571Y-13568524D01*
X4275048Y-13587571D01*
X4275048Y-13635190D01*
X4284571Y-13654238D01*
X4294095Y-13663762D01*
X4313143Y-13673286D01*
X4351238Y-13673286D01*
X4370286Y-13663762D01*
X4379810Y-13654238D01*
X4389333Y-13635190D01*
X4513143Y-13549476D02*
X4532190Y-13549476D01*
X4551238Y-13559000D01*
X4560762Y-13568524D01*
X4570286Y-13587571D01*
X4579810Y-13625667D01*
X4579810Y-13673286D01*
X4570286Y-13711381D01*
X4560762Y-13730428D01*
X4551238Y-13739952D01*
X4532190Y-13749476D01*
X4513143Y-13749476D01*
X4494095Y-13739952D01*
X4484571Y-13730428D01*
X4475048Y-13711381D01*
X4465524Y-13673286D01*
X4465524Y-13625667D01*
X4475048Y-13587571D01*
X4484571Y-13568524D01*
X4494095Y-13559000D01*
X4513143Y-13549476D01*
X4751238Y-13549476D02*
X4713143Y-13549476D01*
X4694095Y-13559000D01*
X4684571Y-13568524D01*
X4665524Y-13597095D01*
X4656000Y-13635190D01*
X4656000Y-13711381D01*
X4665524Y-13730428D01*
X4675048Y-13739952D01*
X4694095Y-13749476D01*
X4732190Y-13749476D01*
X4751238Y-13739952D01*
X4760762Y-13730428D01*
X4770286Y-13711381D01*
X4770286Y-13663762D01*
X4760762Y-13644714D01*
X4751238Y-13635190D01*
X4732190Y-13625667D01*
X4694095Y-13625667D01*
X4675048Y-13635190D01*
X4665524Y-13644714D01*
X4656000Y-13663762D01*
X4846476Y-13549476D02*
X4846476Y-13587571D01*
X4922667Y-13549476D02*
X4922667Y-13587571D01*
X5217905Y-13825667D02*
X5208381Y-13816143D01*
X5189333Y-13787571D01*
X5179810Y-13768524D01*
X5170286Y-13739952D01*
X5160762Y-13692333D01*
X5160762Y-13654238D01*
X5170286Y-13606619D01*
X5179810Y-13578048D01*
X5189333Y-13559000D01*
X5208381Y-13530428D01*
X5217905Y-13520905D01*
X5284571Y-13568524D02*
X5294095Y-13559000D01*
X5313143Y-13549476D01*
X5360762Y-13549476D01*
X5379810Y-13559000D01*
X5389333Y-13568524D01*
X5398857Y-13587571D01*
X5398857Y-13606619D01*
X5389333Y-13635190D01*
X5275048Y-13749476D01*
X5398857Y-13749476D01*
X5636952Y-13749476D02*
X5636952Y-13549476D01*
X5722667Y-13749476D02*
X5722667Y-13644714D01*
X5713143Y-13625667D01*
X5694095Y-13616143D01*
X5665524Y-13616143D01*
X5646476Y-13625667D01*
X5636952Y-13635190D01*
X5846476Y-13749476D02*
X5827428Y-13739952D01*
X5817905Y-13730428D01*
X5808381Y-13711381D01*
X5808381Y-13654238D01*
X5817905Y-13635190D01*
X5827428Y-13625667D01*
X5846476Y-13616143D01*
X5875048Y-13616143D01*
X5894095Y-13625667D01*
X5903619Y-13635190D01*
X5913143Y-13654238D01*
X5913143Y-13711381D01*
X5903619Y-13730428D01*
X5894095Y-13739952D01*
X5875048Y-13749476D01*
X5846476Y-13749476D01*
X6027428Y-13749476D02*
X6008381Y-13739952D01*
X5998857Y-13720905D01*
X5998857Y-13549476D01*
X6179809Y-13739952D02*
X6160762Y-13749476D01*
X6122667Y-13749476D01*
X6103619Y-13739952D01*
X6094095Y-13720905D01*
X6094095Y-13644714D01*
X6103619Y-13625667D01*
X6122667Y-13616143D01*
X6160762Y-13616143D01*
X6179809Y-13625667D01*
X6189333Y-13644714D01*
X6189333Y-13663762D01*
X6094095Y-13682809D01*
X6265524Y-13739952D02*
X6284571Y-13749476D01*
X6322667Y-13749476D01*
X6341714Y-13739952D01*
X6351238Y-13720905D01*
X6351238Y-13711381D01*
X6341714Y-13692333D01*
X6322667Y-13682809D01*
X6294095Y-13682809D01*
X6275048Y-13673286D01*
X6265524Y-13654238D01*
X6265524Y-13644714D01*
X6275048Y-13625667D01*
X6294095Y-13616143D01*
X6322667Y-13616143D01*
X6341714Y-13625667D01*
X6417905Y-13825667D02*
X6427428Y-13816143D01*
X6446476Y-13787571D01*
X6456000Y-13768524D01*
X6465524Y-13739952D01*
X6475048Y-13692333D01*
X6475048Y-13654238D01*
X6465524Y-13606619D01*
X6456000Y-13578048D01*
X6446476Y-13559000D01*
X6427428Y-13530428D01*
X6417905Y-13520905D01*
M02*
