G04 #@! TF.GenerationSoftware,KiCad,Pcbnew,(6.0.1)*
G04 #@! TF.CreationDate,2023-05-10T10:19:22+02:00*
G04 #@! TF.ProjectId,VT100_MCU,56543130-305f-44d4-9355-2e6b69636164,rev?*
G04 #@! TF.SameCoordinates,Original*
G04 #@! TF.FileFunction,Copper,L2,Bot*
G04 #@! TF.FilePolarity,Positive*
%FSLAX46Y46*%
G04 Gerber Fmt 4.6, Leading zero omitted, Abs format (unit mm)*
G04 Created by KiCad (PCBNEW (6.0.1)) date 2023-05-10 10:19:22*
%MOMM*%
%LPD*%
G01*
G04 APERTURE LIST*
G04 #@! TA.AperFunction,ComponentPad*
%ADD10R,1.700000X1.700000*%
G04 #@! TD*
G04 #@! TA.AperFunction,ComponentPad*
%ADD11O,1.700000X1.700000*%
G04 #@! TD*
G04 #@! TA.AperFunction,ComponentPad*
%ADD12R,1.600000X1.600000*%
G04 #@! TD*
G04 #@! TA.AperFunction,ComponentPad*
%ADD13O,1.600000X1.600000*%
G04 #@! TD*
G04 #@! TA.AperFunction,ComponentPad*
%ADD14R,1.800000X1.800000*%
G04 #@! TD*
G04 #@! TA.AperFunction,ComponentPad*
%ADD15C,1.800000*%
G04 #@! TD*
G04 #@! TA.AperFunction,ComponentPad*
%ADD16C,1.600000*%
G04 #@! TD*
G04 #@! TA.AperFunction,ComponentPad*
%ADD17C,1.400000*%
G04 #@! TD*
G04 #@! TA.AperFunction,ComponentPad*
%ADD18O,1.400000X1.400000*%
G04 #@! TD*
G04 #@! TA.AperFunction,ComponentPad*
%ADD19C,1.500000*%
G04 #@! TD*
G04 #@! TA.AperFunction,ComponentPad*
%ADD20R,1.422400X1.422400*%
G04 #@! TD*
G04 #@! TA.AperFunction,ComponentPad*
%ADD21C,1.422400*%
G04 #@! TD*
G04 #@! TA.AperFunction,ComponentPad*
%ADD22C,4.000000*%
G04 #@! TD*
G04 #@! TA.AperFunction,ViaPad*
%ADD23C,0.800000*%
G04 #@! TD*
G04 #@! TA.AperFunction,Conductor*
%ADD24C,0.250000*%
G04 #@! TD*
G04 #@! TA.AperFunction,Conductor*
%ADD25C,1.000000*%
G04 #@! TD*
G04 APERTURE END LIST*
D10*
X45085000Y-89535000D03*
D11*
X45085000Y-92075000D03*
X45085000Y-94615000D03*
X45085000Y-97155000D03*
X45085000Y-99695000D03*
X45085000Y-102235000D03*
X45085000Y-104775000D03*
X45085000Y-107315000D03*
X45085000Y-109855000D03*
X45085000Y-112395000D03*
D10*
X73025000Y-112395000D03*
D12*
X66695000Y-37480000D03*
D13*
X66695000Y-40020000D03*
X66695000Y-42560000D03*
X66695000Y-45100000D03*
X66695000Y-47640000D03*
X66695000Y-50180000D03*
X66695000Y-52720000D03*
X66695000Y-55260000D03*
X66695000Y-57800000D03*
X66695000Y-60340000D03*
X74315000Y-60340000D03*
X74315000Y-57800000D03*
X74315000Y-55260000D03*
X74315000Y-52720000D03*
X74315000Y-50180000D03*
X74315000Y-47640000D03*
X74315000Y-45100000D03*
X74315000Y-42560000D03*
X74315000Y-40020000D03*
X74315000Y-37480000D03*
D10*
X31750000Y-41275000D03*
D11*
X29210000Y-41275000D03*
D14*
X19050000Y-48895000D03*
D15*
X21590000Y-48895000D03*
D10*
X19685000Y-59055000D03*
D11*
X19685000Y-61595000D03*
X19685000Y-64135000D03*
X19685000Y-66675000D03*
X19685000Y-69215000D03*
X19685000Y-71755000D03*
X19685000Y-74295000D03*
X19685000Y-76835000D03*
X19685000Y-79375000D03*
X19685000Y-81915000D03*
X19685000Y-84455000D03*
X19685000Y-86995000D03*
X19685000Y-89535000D03*
X19685000Y-92075000D03*
X19685000Y-94615000D03*
X19685000Y-97155000D03*
X19685000Y-99695000D03*
X19685000Y-102235000D03*
X19685000Y-104775000D03*
X19685000Y-107315000D03*
X19685000Y-109855000D03*
X19685000Y-112395000D03*
D12*
X46990000Y-25400000D03*
D16*
X62230000Y-25400000D03*
X62230000Y-17780000D03*
X46990000Y-17780000D03*
D10*
X32385000Y-59055000D03*
D11*
X32385000Y-61595000D03*
X32385000Y-64135000D03*
X32385000Y-66675000D03*
X32385000Y-69215000D03*
X32385000Y-71755000D03*
X32385000Y-74295000D03*
X32385000Y-76835000D03*
X32385000Y-79375000D03*
X32385000Y-81915000D03*
X32385000Y-84455000D03*
X32385000Y-86995000D03*
X32385000Y-89535000D03*
X32385000Y-92075000D03*
X32385000Y-94615000D03*
X32385000Y-97155000D03*
X32385000Y-99695000D03*
X32385000Y-102235000D03*
X32385000Y-104775000D03*
X32385000Y-107315000D03*
X32385000Y-109855000D03*
X32385000Y-112395000D03*
D10*
X40000000Y-31115000D03*
D11*
X42540000Y-31115000D03*
D10*
X47625000Y-92075000D03*
D11*
X47625000Y-94615000D03*
X47625000Y-97155000D03*
X47625000Y-99695000D03*
X47625000Y-102235000D03*
X47625000Y-104775000D03*
X47625000Y-107315000D03*
X47625000Y-109855000D03*
X47625000Y-112395000D03*
D10*
X24765000Y-59055000D03*
D11*
X24765000Y-61595000D03*
X24765000Y-64135000D03*
X24765000Y-66675000D03*
X24765000Y-69215000D03*
X24765000Y-71755000D03*
X24765000Y-74295000D03*
X24765000Y-76835000D03*
X24765000Y-79375000D03*
X24765000Y-81915000D03*
X24765000Y-84455000D03*
X24765000Y-86995000D03*
X24765000Y-89535000D03*
X24765000Y-92075000D03*
X24765000Y-94615000D03*
X24765000Y-97155000D03*
X24765000Y-99695000D03*
X24765000Y-102235000D03*
X24765000Y-104775000D03*
X24765000Y-107315000D03*
X24765000Y-109855000D03*
X24765000Y-112395000D03*
D17*
X42545000Y-25734900D03*
D18*
X42545000Y-23834900D03*
D12*
X35580000Y-34940000D03*
D13*
X35580000Y-37480000D03*
X35580000Y-40020000D03*
X35580000Y-42560000D03*
X35580000Y-45100000D03*
X35580000Y-47640000D03*
X35580000Y-50180000D03*
X35580000Y-52720000D03*
X35580000Y-55260000D03*
X35580000Y-57800000D03*
X43200000Y-57800000D03*
X43200000Y-55260000D03*
X43200000Y-52720000D03*
X43200000Y-50180000D03*
X43200000Y-47640000D03*
X43200000Y-45100000D03*
X43200000Y-42560000D03*
X43200000Y-40020000D03*
X43200000Y-37480000D03*
X43200000Y-34940000D03*
D12*
X37465000Y-26035000D03*
D16*
X37465000Y-23535000D03*
D17*
X19415000Y-54610000D03*
D18*
X21315000Y-54610000D03*
D10*
X71770000Y-102880000D03*
D11*
X69230000Y-102880000D03*
D10*
X22225000Y-59055000D03*
D11*
X22225000Y-61595000D03*
X22225000Y-64135000D03*
X22225000Y-66675000D03*
X22225000Y-69215000D03*
X22225000Y-71755000D03*
X22225000Y-74295000D03*
X22225000Y-76835000D03*
X22225000Y-79375000D03*
X22225000Y-81915000D03*
X22225000Y-84455000D03*
X22225000Y-86995000D03*
X22225000Y-89535000D03*
X22225000Y-92075000D03*
X22225000Y-94615000D03*
X22225000Y-97155000D03*
X22225000Y-99695000D03*
X22225000Y-102235000D03*
X22225000Y-104775000D03*
X22225000Y-107315000D03*
X22225000Y-109855000D03*
X22225000Y-112395000D03*
D12*
X48270000Y-37475000D03*
D13*
X48270000Y-40015000D03*
X48270000Y-42555000D03*
X48270000Y-45095000D03*
X48270000Y-47635000D03*
X48270000Y-50175000D03*
X48270000Y-52715000D03*
X48270000Y-55255000D03*
X48270000Y-57795000D03*
X48270000Y-60335000D03*
X48270000Y-62875000D03*
X48270000Y-65415000D03*
X48270000Y-67955000D03*
X48270000Y-70495000D03*
X48270000Y-73035000D03*
X48270000Y-75575000D03*
X48270000Y-78115000D03*
X48270000Y-80655000D03*
X48270000Y-83195000D03*
X48270000Y-85735000D03*
X63510000Y-85735000D03*
X63510000Y-83195000D03*
X63510000Y-80655000D03*
X63510000Y-78115000D03*
X63510000Y-75575000D03*
X63510000Y-73035000D03*
X63510000Y-70495000D03*
X63510000Y-67955000D03*
X63510000Y-65415000D03*
X63510000Y-62875000D03*
X63510000Y-60335000D03*
X63510000Y-57795000D03*
X63510000Y-55255000D03*
X63510000Y-52715000D03*
X63510000Y-50175000D03*
X63510000Y-47635000D03*
X63510000Y-45095000D03*
X63510000Y-42555000D03*
X63510000Y-40015000D03*
X63510000Y-37475000D03*
D10*
X67945000Y-107315000D03*
D11*
X67945000Y-109855000D03*
X67945000Y-112395000D03*
D10*
X29845000Y-59055000D03*
D11*
X29845000Y-61595000D03*
X29845000Y-64135000D03*
X29845000Y-66675000D03*
X29845000Y-69215000D03*
X29845000Y-71755000D03*
X29845000Y-74295000D03*
X29845000Y-76835000D03*
X29845000Y-79375000D03*
X29845000Y-81915000D03*
X29845000Y-84455000D03*
X29845000Y-86995000D03*
X29845000Y-89535000D03*
X29845000Y-92075000D03*
X29845000Y-94615000D03*
X29845000Y-97155000D03*
X29845000Y-99695000D03*
X29845000Y-102235000D03*
X29845000Y-104775000D03*
X29845000Y-107315000D03*
X29845000Y-109855000D03*
X29845000Y-112395000D03*
D10*
X27305000Y-59055000D03*
D11*
X27305000Y-61595000D03*
X27305000Y-64135000D03*
X27305000Y-66675000D03*
X27305000Y-69215000D03*
X27305000Y-71755000D03*
X27305000Y-74295000D03*
X27305000Y-76835000D03*
X27305000Y-79375000D03*
X27305000Y-81915000D03*
X27305000Y-84455000D03*
X27305000Y-86995000D03*
X27305000Y-89535000D03*
X27305000Y-92075000D03*
X27305000Y-94615000D03*
X27305000Y-97155000D03*
X27305000Y-99695000D03*
X27305000Y-102235000D03*
X27305000Y-104775000D03*
X27305000Y-107315000D03*
X27305000Y-109855000D03*
X27305000Y-112395000D03*
D10*
X78740000Y-16510000D03*
D11*
X78740000Y-19050000D03*
X76200000Y-16510000D03*
X76200000Y-19050000D03*
X73660000Y-16510000D03*
X73660000Y-19050000D03*
X71120000Y-16510000D03*
X71120000Y-19050000D03*
X68580000Y-16510000D03*
X68580000Y-19050000D03*
D19*
X29840000Y-35560000D03*
X24940000Y-35560000D03*
D10*
X62865000Y-102235000D03*
D11*
X62865000Y-104775000D03*
X62865000Y-107315000D03*
X62865000Y-109855000D03*
X62865000Y-112395000D03*
D10*
X65405000Y-104775000D03*
D11*
X65405000Y-107315000D03*
X65405000Y-109855000D03*
X65405000Y-112395000D03*
D10*
X50165000Y-92075000D03*
D11*
X50165000Y-94615000D03*
X50165000Y-97155000D03*
X50165000Y-99695000D03*
X50165000Y-102235000D03*
X50165000Y-104775000D03*
X50165000Y-107315000D03*
X50165000Y-109855000D03*
X50165000Y-112395000D03*
D10*
X96535000Y-41920000D03*
D11*
X93995000Y-41920000D03*
D10*
X70485000Y-109855000D03*
D11*
X70485000Y-112395000D03*
D10*
X54610000Y-33020000D03*
D11*
X57150000Y-33020000D03*
D12*
X90795000Y-90165000D03*
D13*
X90795000Y-87625000D03*
X90795000Y-85085000D03*
X90795000Y-82545000D03*
X90795000Y-80005000D03*
X90795000Y-77465000D03*
X90795000Y-74925000D03*
X90795000Y-72385000D03*
X90795000Y-69845000D03*
X90795000Y-67305000D03*
X83175000Y-67305000D03*
X83175000Y-69845000D03*
X83175000Y-72385000D03*
X83175000Y-74925000D03*
X83175000Y-77465000D03*
X83175000Y-80005000D03*
X83175000Y-82545000D03*
X83175000Y-85085000D03*
X83175000Y-87625000D03*
X83175000Y-90165000D03*
D10*
X60325000Y-99695000D03*
D11*
X60325000Y-102235000D03*
X60325000Y-104775000D03*
X60325000Y-107315000D03*
X60325000Y-109855000D03*
X60325000Y-112395000D03*
D10*
X57785000Y-97155000D03*
D11*
X57785000Y-99695000D03*
X57785000Y-102235000D03*
X57785000Y-104775000D03*
X57785000Y-107315000D03*
X57785000Y-109855000D03*
X57785000Y-112395000D03*
D20*
X92710000Y-33655000D03*
D21*
X95250000Y-36195000D03*
X95250000Y-33655000D03*
X97790000Y-36195000D03*
X97790000Y-33655000D03*
X100330000Y-36195000D03*
X102870000Y-33655000D03*
X100330000Y-33655000D03*
X102870000Y-31115000D03*
X100330000Y-31115000D03*
X102870000Y-28575000D03*
X100330000Y-28575000D03*
X102870000Y-26035000D03*
X100330000Y-26035000D03*
X102870000Y-23495000D03*
X100330000Y-23495000D03*
X102870000Y-20955000D03*
X100330000Y-18415000D03*
X100330000Y-20955000D03*
X97790000Y-18415000D03*
X97790000Y-20955000D03*
X95250000Y-18415000D03*
X95250000Y-20955000D03*
X92710000Y-18415000D03*
X92710000Y-20955000D03*
X90170000Y-18415000D03*
X90170000Y-20955000D03*
X87630000Y-18415000D03*
X85090000Y-20955000D03*
X87630000Y-20955000D03*
X85090000Y-23495000D03*
X87630000Y-23495000D03*
X85090000Y-26035000D03*
X87630000Y-26035000D03*
X85090000Y-28575000D03*
X87630000Y-28575000D03*
X85090000Y-31115000D03*
X87630000Y-31115000D03*
X85090000Y-33655000D03*
X87630000Y-36195000D03*
X87630000Y-33655000D03*
X90170000Y-36195000D03*
X90170000Y-33655000D03*
X92710000Y-36195000D03*
D10*
X42545000Y-86995000D03*
D11*
X42545000Y-89535000D03*
X42545000Y-92075000D03*
X42545000Y-94615000D03*
X42545000Y-97155000D03*
X42545000Y-99695000D03*
X42545000Y-102235000D03*
X42545000Y-104775000D03*
X42545000Y-107315000D03*
X42545000Y-109855000D03*
X42545000Y-112395000D03*
D12*
X97155000Y-88265000D03*
D13*
X97155000Y-90805000D03*
X97155000Y-93345000D03*
X97155000Y-95885000D03*
X97155000Y-98425000D03*
X97155000Y-100965000D03*
X97155000Y-103505000D03*
X97155000Y-106045000D03*
X97155000Y-108585000D03*
X97155000Y-111125000D03*
X104775000Y-111125000D03*
X104775000Y-108585000D03*
X104775000Y-106045000D03*
X104775000Y-103505000D03*
X104775000Y-100965000D03*
X104775000Y-98425000D03*
X104775000Y-95885000D03*
X104775000Y-93345000D03*
X104775000Y-90805000D03*
X104775000Y-88265000D03*
D10*
X40005000Y-84455000D03*
D11*
X40005000Y-86995000D03*
X40005000Y-89535000D03*
X40005000Y-92075000D03*
X40005000Y-94615000D03*
X40005000Y-97155000D03*
X40005000Y-99695000D03*
X40005000Y-102235000D03*
X40005000Y-104775000D03*
X40005000Y-107315000D03*
X40005000Y-109855000D03*
X40005000Y-112395000D03*
D12*
X66685000Y-65415000D03*
D13*
X66685000Y-67955000D03*
X66685000Y-70495000D03*
X66685000Y-73035000D03*
X66685000Y-75575000D03*
X66685000Y-78115000D03*
X66685000Y-80655000D03*
X66685000Y-83195000D03*
X66685000Y-85735000D03*
X66685000Y-88275000D03*
X66685000Y-90815000D03*
X66685000Y-93355000D03*
X66685000Y-95895000D03*
X66685000Y-98435000D03*
X74305000Y-98435000D03*
X74305000Y-95895000D03*
X74305000Y-93355000D03*
X74305000Y-90815000D03*
X74305000Y-88275000D03*
X74305000Y-85735000D03*
X74305000Y-83195000D03*
X74305000Y-80655000D03*
X74305000Y-78115000D03*
X74305000Y-75575000D03*
X74305000Y-73035000D03*
X74305000Y-70495000D03*
X74305000Y-67955000D03*
X74305000Y-65415000D03*
D16*
X36235000Y-17780000D03*
X41235000Y-17780000D03*
D12*
X104765000Y-70485000D03*
D13*
X104765000Y-67945000D03*
X104765000Y-65405000D03*
X104765000Y-62865000D03*
X104765000Y-60325000D03*
X104765000Y-57785000D03*
X104765000Y-55245000D03*
X104765000Y-52705000D03*
X104765000Y-50165000D03*
X104765000Y-47625000D03*
X97145000Y-47625000D03*
X97145000Y-50165000D03*
X97145000Y-52705000D03*
X97145000Y-55245000D03*
X97145000Y-57785000D03*
X97145000Y-60325000D03*
X97145000Y-62865000D03*
X97145000Y-65405000D03*
X97145000Y-67945000D03*
X97145000Y-70485000D03*
D10*
X19050000Y-34300000D03*
D11*
X19050000Y-36840000D03*
X19050000Y-39380000D03*
X19050000Y-41920000D03*
D10*
X55245000Y-94615000D03*
D11*
X55245000Y-97155000D03*
X55245000Y-99695000D03*
X55245000Y-102235000D03*
X55245000Y-104775000D03*
X55245000Y-107315000D03*
X55245000Y-109855000D03*
X55245000Y-112395000D03*
D10*
X22855000Y-41275000D03*
D11*
X25395000Y-41275000D03*
D10*
X52705000Y-92075000D03*
D11*
X52705000Y-94615000D03*
X52705000Y-97155000D03*
X52705000Y-99695000D03*
X52705000Y-102235000D03*
X52705000Y-104775000D03*
X52705000Y-107315000D03*
X52705000Y-109855000D03*
X52705000Y-112395000D03*
D10*
X112395000Y-108585000D03*
D11*
X114935000Y-108585000D03*
X112395000Y-106045000D03*
X114935000Y-106045000D03*
X112395000Y-103505000D03*
X114935000Y-103505000D03*
X112395000Y-100965000D03*
X114935000Y-100965000D03*
X112395000Y-98425000D03*
X114935000Y-98425000D03*
X112395000Y-95885000D03*
X114935000Y-95885000D03*
X112395000Y-93345000D03*
X114935000Y-93345000D03*
X112395000Y-90805000D03*
X114935000Y-90805000D03*
X112395000Y-88265000D03*
X114935000Y-88265000D03*
X112395000Y-85725000D03*
X114935000Y-85725000D03*
X112395000Y-83185000D03*
X114935000Y-83185000D03*
X112395000Y-80645000D03*
X114935000Y-80645000D03*
X112395000Y-78105000D03*
X114935000Y-78105000D03*
X112395000Y-75565000D03*
X114935000Y-75565000D03*
X112395000Y-73025000D03*
X114935000Y-73025000D03*
X112395000Y-70485000D03*
X114935000Y-70485000D03*
X112395000Y-67945000D03*
X114935000Y-67945000D03*
X112395000Y-65405000D03*
X114935000Y-65405000D03*
X112395000Y-62865000D03*
X114935000Y-62865000D03*
X112395000Y-60325000D03*
X114935000Y-60325000D03*
X112395000Y-57785000D03*
X114935000Y-57785000D03*
X112395000Y-55245000D03*
X114935000Y-55245000D03*
X112395000Y-52705000D03*
X114935000Y-52705000D03*
X112395000Y-50165000D03*
X114935000Y-50165000D03*
X112395000Y-47625000D03*
X114935000Y-47625000D03*
X112395000Y-45085000D03*
X114935000Y-45085000D03*
X112395000Y-42545000D03*
X114935000Y-42545000D03*
X112395000Y-40005000D03*
X114935000Y-40005000D03*
X112395000Y-37465000D03*
X114935000Y-37465000D03*
X112395000Y-34925000D03*
X114935000Y-34925000D03*
X112395000Y-32385000D03*
X114935000Y-32385000D03*
X112395000Y-29845000D03*
X114935000Y-29845000D03*
X112395000Y-27305000D03*
X114935000Y-27305000D03*
X112395000Y-24765000D03*
X114935000Y-24765000D03*
X112395000Y-22225000D03*
X114935000Y-22225000D03*
X112395000Y-19685000D03*
X114935000Y-19685000D03*
D10*
X34925000Y-76835000D03*
D11*
X34925000Y-79375000D03*
X34925000Y-81915000D03*
X34925000Y-84455000D03*
X34925000Y-86995000D03*
X34925000Y-89535000D03*
X34925000Y-92075000D03*
X34925000Y-94615000D03*
X34925000Y-97155000D03*
X34925000Y-99695000D03*
X34925000Y-102235000D03*
X34925000Y-104775000D03*
X34925000Y-107315000D03*
X34925000Y-109855000D03*
X34925000Y-112395000D03*
D10*
X37465000Y-81915000D03*
D11*
X37465000Y-84455000D03*
X37465000Y-86995000D03*
X37465000Y-89535000D03*
X37465000Y-92075000D03*
X37465000Y-94615000D03*
X37465000Y-97155000D03*
X37465000Y-99695000D03*
X37465000Y-102235000D03*
X37465000Y-104775000D03*
X37465000Y-107315000D03*
X37465000Y-109855000D03*
X37465000Y-112395000D03*
D12*
X24150000Y-29647500D03*
D16*
X26650000Y-29647500D03*
X26650000Y-27647500D03*
X24150000Y-27647500D03*
D22*
X19400000Y-24787500D03*
X31400000Y-24787500D03*
D23*
X91440000Y-19050000D03*
X78722700Y-31871300D03*
X64280100Y-32159900D03*
X57080900Y-75575000D03*
X78722700Y-67477800D03*
X65675500Y-29611600D03*
X51297200Y-76315400D03*
X84673100Y-65431200D03*
X92347600Y-70531600D03*
X73287200Y-66829800D03*
X101095000Y-87139800D03*
X99366700Y-65976500D03*
X80406700Y-89935100D03*
X79668900Y-89187400D03*
X94583200Y-85335800D03*
X92921300Y-88242500D03*
X108868000Y-85335800D03*
X87079000Y-66165400D03*
X90495800Y-61490200D03*
X70857500Y-61534200D03*
X98866600Y-63926100D03*
X72540100Y-68965500D03*
X71354900Y-60592600D03*
X62208800Y-81880900D03*
X72069000Y-36773900D03*
X64351000Y-79502700D03*
X61084900Y-86190100D03*
X58782700Y-47635000D03*
X83938900Y-60809100D03*
X80567800Y-43108100D03*
X79451200Y-40020000D03*
X76286300Y-88242300D03*
X82187200Y-52801000D03*
X109668000Y-45612900D03*
X88914900Y-72944400D03*
X92218200Y-72393600D03*
X102720000Y-60325000D03*
X102720000Y-62230800D03*
X82346100Y-19468600D03*
X41703000Y-77507200D03*
X68396600Y-94610900D03*
X77529600Y-90848500D03*
X40632200Y-55378400D03*
X90115100Y-52713700D03*
X89092400Y-49048500D03*
X83246200Y-46467600D03*
X98490300Y-45585400D03*
X87942100Y-41210600D03*
X96149500Y-32530700D03*
X55694400Y-61531000D03*
X64275200Y-30061700D03*
X95205600Y-38170700D03*
X105097000Y-15598300D03*
X105097000Y-19938300D03*
X107910000Y-20293200D03*
X107910000Y-16045800D03*
X99389300Y-19982900D03*
X88676600Y-40365800D03*
X106084000Y-59651300D03*
X92075200Y-31115000D03*
X82266100Y-41935700D03*
X103207000Y-46006200D03*
X111208000Y-48891300D03*
X99527800Y-42047100D03*
X81136900Y-31115000D03*
X94450400Y-48808300D03*
X80208900Y-28575000D03*
X82253400Y-43095400D03*
X100239000Y-45481100D03*
X105482000Y-53975000D03*
X89072600Y-21720000D03*
X93072000Y-25029200D03*
X105106000Y-33437200D03*
X106118000Y-26406400D03*
X94333100Y-25768100D03*
D24*
X35946300Y-46370000D02*
X35193400Y-46370000D01*
X35193400Y-46370000D02*
X31750000Y-42926600D01*
X31750000Y-42926600D02*
X31750000Y-41275000D01*
X38997700Y-49421400D02*
X35946300Y-46370000D01*
X48036700Y-79529900D02*
X38997700Y-70490900D01*
X29840000Y-38189900D02*
X31750000Y-40099900D01*
X31750000Y-40099900D02*
X31750000Y-41275000D01*
X29840000Y-35560000D02*
X29840000Y-38189900D01*
X38997700Y-70490900D02*
X38997700Y-49421400D01*
X48270000Y-80655000D02*
X48270000Y-79529900D01*
X48270000Y-79529900D02*
X48036700Y-79529900D01*
D25*
X93995000Y-43470100D02*
X99783700Y-43470100D01*
X35580000Y-73045000D02*
X35580000Y-57800000D01*
D24*
X95250000Y-20955000D02*
X93745700Y-19450700D01*
D25*
X25119900Y-42825100D02*
X19050000Y-48895000D01*
X25395000Y-42825100D02*
X25119900Y-42825100D01*
X69230000Y-101330000D02*
X69230000Y-102880000D01*
X66685000Y-99935100D02*
X67835200Y-99935100D01*
X25395000Y-41275000D02*
X25395000Y-42825100D01*
X67029900Y-20600100D02*
X62230000Y-25400000D01*
D24*
X91840700Y-19450700D02*
X91440000Y-19050000D01*
D25*
X42540000Y-31115000D02*
X42540000Y-29564900D01*
X29210000Y-51430000D02*
X29210000Y-41275000D01*
X66695000Y-60340000D02*
X65172700Y-58817700D01*
D24*
X93745700Y-19450700D02*
X91840700Y-19450700D01*
D25*
X66695000Y-37859600D02*
X66695000Y-37480000D01*
X43945100Y-23834900D02*
X42545000Y-23834900D01*
X23556600Y-27647500D02*
X24150000Y-27647500D01*
X93995000Y-42498100D02*
X93995000Y-43470100D01*
X68580000Y-20600100D02*
X67029900Y-20600100D01*
X102107000Y-45793100D02*
X102107000Y-46466800D01*
X68580000Y-19050000D02*
X68580000Y-20600100D01*
X93995000Y-41920000D02*
X93995000Y-42498100D01*
X95433200Y-21138200D02*
X95250000Y-20955000D01*
X62230000Y-25400000D02*
X57150000Y-30480000D01*
X114935000Y-19685000D02*
X114935000Y-22225000D01*
X83662800Y-34280600D02*
X83662800Y-24922200D01*
X35580000Y-57800000D02*
X29210000Y-51430000D01*
X42540000Y-29564900D02*
X43945100Y-28159800D01*
X65172700Y-58817700D02*
X65172700Y-39381900D01*
X48270000Y-85735000D02*
X35580000Y-73045000D01*
X103265000Y-47625000D02*
X104765000Y-47625000D01*
X83662800Y-24922200D02*
X85090000Y-23495000D01*
X19050000Y-36840000D02*
X20600100Y-36840000D01*
X95433200Y-26218200D02*
X95433200Y-21138200D01*
X57150000Y-30480000D02*
X57150000Y-33020000D01*
X20600100Y-36840000D02*
X20600100Y-30604000D01*
X20600100Y-30604000D02*
X23556600Y-27647500D01*
X102107000Y-46466800D02*
X103265000Y-47625000D01*
X92364700Y-42498100D02*
X89132300Y-39265700D01*
X66685000Y-98435000D02*
X66685000Y-99935100D01*
X100330000Y-31115000D02*
X95433200Y-26218200D01*
X88647900Y-39265700D02*
X83662800Y-34280600D01*
X93995000Y-42498100D02*
X92364700Y-42498100D01*
X67835200Y-99935100D02*
X69230000Y-101330000D01*
X99783700Y-43470100D02*
X102107000Y-45793100D01*
X65172700Y-39381900D02*
X66695000Y-37859600D01*
X43945100Y-28159800D02*
X43945100Y-23834900D01*
X89132300Y-39265700D02*
X88647900Y-39265700D01*
X65010100Y-37475000D02*
X63510000Y-37475000D01*
X71770000Y-102880000D02*
X73320100Y-102880000D01*
X39182500Y-27535100D02*
X37465000Y-27535100D01*
X39182500Y-19832500D02*
X41235000Y-17780000D01*
X97145000Y-70485000D02*
X97145000Y-71985100D01*
X76200000Y-19050000D02*
X76200000Y-33482700D01*
X19050000Y-34300000D02*
X17449800Y-35900200D01*
X73320100Y-102880000D02*
X83175000Y-93025100D01*
X83175000Y-93025100D02*
X83175000Y-90165000D01*
X97145000Y-71985100D02*
X104775000Y-79615100D01*
X87630000Y-23495000D02*
X89046100Y-24911100D01*
X74305000Y-65415000D02*
X75805100Y-65415000D01*
X77639900Y-39604800D02*
X77639900Y-63580200D01*
X114935000Y-106045000D02*
X114935000Y-108585000D01*
X104775000Y-79615100D02*
X104775000Y-88265000D01*
X74315000Y-37480000D02*
X74315000Y-36279900D01*
X39182500Y-27535100D02*
X39182500Y-19832500D01*
X74315000Y-36279900D02*
X74315000Y-35979900D01*
X40000000Y-31115000D02*
X40000000Y-29564900D01*
X74008900Y-35673800D02*
X65864000Y-35673800D01*
X40000000Y-29564900D02*
X39182500Y-28747400D01*
X37465000Y-27535100D02*
X37465000Y-26035000D01*
X77639900Y-63580200D02*
X75805100Y-65415000D01*
X65010100Y-36527700D02*
X65010100Y-37475000D01*
X89046100Y-32238900D02*
X87630000Y-33655000D01*
X17449800Y-35900200D02*
X17449800Y-52644800D01*
X75805100Y-82795100D02*
X75805100Y-65415000D01*
X74315000Y-36279900D02*
X77639900Y-39604800D01*
X76200000Y-33482700D02*
X74008900Y-35673800D01*
X65864000Y-35673800D02*
X65010100Y-36527700D01*
X89046100Y-24911100D02*
X89046100Y-32238900D01*
X83175000Y-90165000D02*
X75805100Y-82795100D01*
X17449800Y-52644800D02*
X19415000Y-54610000D01*
X39182500Y-28747400D02*
X39182500Y-27535100D01*
X74315000Y-35979900D02*
X74008900Y-35673800D01*
D24*
X37465000Y-23535000D02*
X37465000Y-19010000D01*
X47144900Y-55826200D02*
X47144900Y-39798600D01*
X41349700Y-26930200D02*
X42545000Y-25734900D01*
X41349700Y-34698100D02*
X41349700Y-26930200D01*
X43649000Y-36302700D02*
X42954300Y-36302700D01*
X42954300Y-36302700D02*
X41349700Y-34698100D01*
X37465000Y-19010000D02*
X36235000Y-17780000D01*
X47144900Y-39798600D02*
X43649000Y-36302700D01*
X48270000Y-56669900D02*
X47988600Y-56669900D01*
X48270000Y-57795000D02*
X48270000Y-56669900D01*
X47988600Y-56669900D02*
X47144900Y-55826200D01*
X30480000Y-49276600D02*
X30480000Y-40850400D01*
X30480000Y-40850400D02*
X27644500Y-38014900D01*
X22855000Y-41275000D02*
X22855000Y-40099900D01*
X35949400Y-53990000D02*
X35193400Y-53990000D01*
X27644500Y-38014900D02*
X24940000Y-38014900D01*
X22855000Y-40099900D02*
X24940000Y-38014900D01*
X38060400Y-72093500D02*
X38060400Y-56101000D01*
X48270000Y-83195000D02*
X48270000Y-82069900D01*
X38060400Y-56101000D02*
X35949400Y-53990000D01*
X48036800Y-82069900D02*
X38060400Y-72093500D01*
X24940000Y-35560000D02*
X24940000Y-38014900D01*
X35193400Y-53990000D02*
X30480000Y-49276600D01*
X48270000Y-82069900D02*
X48036800Y-82069900D01*
X31400000Y-24787500D02*
X19400000Y-24787500D01*
X112837000Y-46366300D02*
X108943000Y-46366300D01*
X96753700Y-35158700D02*
X95250000Y-33655000D01*
X99219000Y-36642000D02*
X99219000Y-36144900D01*
X113572000Y-47101100D02*
X112837000Y-46366300D01*
X99219000Y-36144900D02*
X98232800Y-35158700D01*
X112760000Y-48989900D02*
X113572000Y-48178100D01*
X98232800Y-35158700D02*
X96753700Y-35158700D01*
X78722700Y-31871300D02*
X78722700Y-67477800D01*
X108943000Y-46366300D02*
X99219000Y-36642000D01*
X57080900Y-39359100D02*
X57080900Y-75575000D01*
X112395000Y-48989900D02*
X112760000Y-48989900D01*
X64280100Y-32159900D02*
X57080900Y-39359100D01*
X113572000Y-48178100D02*
X113572000Y-47101100D01*
X112395000Y-50165000D02*
X112395000Y-48989900D01*
X65675500Y-29611600D02*
X65675500Y-29790400D01*
X56485300Y-71127300D02*
X51297200Y-76315400D01*
X56485300Y-38842100D02*
X56485300Y-71127300D01*
X63892700Y-31434700D02*
X56485300Y-38842100D01*
X64031200Y-31434700D02*
X63892700Y-31434700D01*
X65675500Y-29790400D02*
X64031200Y-31434700D01*
X84673100Y-65556000D02*
X90087300Y-70970200D01*
X65760200Y-84609900D02*
X64635100Y-85735000D01*
X74071800Y-74160100D02*
X72440200Y-75791700D01*
X72440200Y-79071500D02*
X66901800Y-84609900D01*
X84673100Y-65431200D02*
X84673100Y-65556000D01*
X74305000Y-74160100D02*
X74071800Y-74160100D01*
X71815000Y-68665300D02*
X73287200Y-67193100D01*
X90087300Y-70970200D02*
X91909000Y-70970200D01*
X72440200Y-75791700D02*
X72440200Y-79071500D01*
X71815000Y-71903300D02*
X71815000Y-68665300D01*
X91909000Y-70970200D02*
X92347600Y-70531600D01*
X74305000Y-73035000D02*
X74305000Y-74160100D01*
X73287200Y-67193100D02*
X73287200Y-66829800D01*
X64635100Y-85735000D02*
X63510000Y-85735000D01*
X66901800Y-84609900D02*
X65760200Y-84609900D01*
X74071800Y-74160100D02*
X71815000Y-71903300D01*
X98813000Y-66530200D02*
X96966200Y-66530200D01*
X63510000Y-83195000D02*
X63510000Y-84320100D01*
X63510000Y-84320100D02*
X63228700Y-84320100D01*
X62367800Y-86250800D02*
X63038000Y-86921000D01*
X96002400Y-67494000D02*
X96002400Y-73033000D01*
X74305000Y-76700100D02*
X74305000Y-75575000D01*
X70471900Y-83543400D02*
X73115200Y-80900100D01*
X99366700Y-65976500D02*
X98813000Y-66530200D01*
X75976300Y-86891400D02*
X79020000Y-89935100D01*
X62367800Y-85181000D02*
X62367800Y-86250800D01*
X73819900Y-86891400D02*
X75976300Y-86891400D01*
X63038000Y-86921000D02*
X67094300Y-86921000D01*
X73115200Y-80900100D02*
X73115200Y-77713500D01*
X96002400Y-73033000D02*
X101095000Y-78125300D01*
X70471900Y-83543400D02*
X73819900Y-86891400D01*
X101095000Y-78125300D02*
X101095000Y-87139800D01*
X96966200Y-66530200D02*
X96002400Y-67494000D01*
X73115200Y-77713500D02*
X74128600Y-76700100D01*
X79020000Y-89935100D02*
X80406700Y-89935100D01*
X67094300Y-86921000D02*
X70471900Y-83543400D01*
X74128600Y-76700100D02*
X74305000Y-76700100D01*
X63228700Y-84320100D02*
X62367800Y-85181000D01*
X106180000Y-66575600D02*
X108868000Y-69263700D01*
X74305000Y-84320100D02*
X74801600Y-84320100D01*
X106180000Y-65171800D02*
X106180000Y-66575600D01*
X74801600Y-84320100D02*
X79668900Y-89187400D01*
X108868000Y-69263700D02*
X108868000Y-85335800D01*
X104998000Y-63990100D02*
X106180000Y-65171800D01*
X104765000Y-63990100D02*
X104998000Y-63990100D01*
X94583200Y-86580600D02*
X94583200Y-85335800D01*
X74305000Y-83195000D02*
X74305000Y-84320100D01*
X104765000Y-62865000D02*
X104765000Y-63990100D01*
X92921300Y-88242500D02*
X94583200Y-86580600D01*
X90495800Y-61490200D02*
X87079000Y-64907000D01*
X87079000Y-64907000D02*
X87079000Y-66165400D01*
X63510000Y-75575000D02*
X63510000Y-74449900D01*
X66451800Y-69080100D02*
X66685000Y-69080100D01*
X66685000Y-68517500D02*
X68321000Y-66881500D01*
X66685000Y-69080100D02*
X66685000Y-68517500D01*
X68321000Y-66881500D02*
X68321000Y-64070700D01*
X68321000Y-64070700D02*
X70857500Y-61534200D01*
X65085200Y-70446700D02*
X66451800Y-69080100D01*
X63510000Y-74449900D02*
X63791400Y-74449900D01*
X63791400Y-74449900D02*
X65085200Y-73156100D01*
X65085200Y-73156100D02*
X65085200Y-70446700D01*
X66685000Y-68517500D02*
X66685000Y-67955000D01*
X73179900Y-70495000D02*
X73179900Y-69605300D01*
X104765000Y-55245000D02*
X104765000Y-56370100D01*
X104765000Y-56370100D02*
X104484000Y-56370100D01*
X74305000Y-70495000D02*
X73179900Y-70495000D01*
X73179900Y-69605300D02*
X72540100Y-68965500D01*
X101837000Y-59016400D02*
X101837000Y-60955400D01*
X104484000Y-56370100D02*
X101837000Y-59016400D01*
X101837000Y-60955400D02*
X98866600Y-63926100D01*
X66685000Y-65415000D02*
X66685000Y-64289900D01*
X66685000Y-64289900D02*
X70382300Y-60592600D01*
X70382300Y-60592600D02*
X71354900Y-60592600D01*
X63791400Y-66829900D02*
X64635100Y-65986200D01*
X65057600Y-64287400D02*
X64635100Y-64287400D01*
X64635100Y-64287400D02*
X62967100Y-64287400D01*
X61483300Y-65771200D02*
X61483300Y-81155400D01*
X61483300Y-81155400D02*
X62208800Y-81880900D01*
X62967100Y-64287400D02*
X61483300Y-65771200D01*
X72069000Y-57276000D02*
X65057600Y-64287400D01*
X63510000Y-66829900D02*
X63791400Y-66829900D01*
X72069000Y-36773900D02*
X72069000Y-57276000D01*
X63510000Y-67955000D02*
X63510000Y-66829900D01*
X64635100Y-65986200D02*
X64635100Y-64287400D01*
X61933400Y-78160300D02*
X61933400Y-66991600D01*
X63275800Y-79502700D02*
X61933400Y-78160300D01*
X64351000Y-79502700D02*
X63275800Y-79502700D01*
X61933400Y-66991600D02*
X63510000Y-65415000D01*
X63510000Y-53840100D02*
X63510000Y-52715000D01*
X60583100Y-85688300D02*
X60583100Y-56533800D01*
X60583100Y-56533800D02*
X63276800Y-53840100D01*
X61084900Y-86190100D02*
X60583100Y-85688300D01*
X63276800Y-53840100D02*
X63510000Y-53840100D01*
X65809400Y-91940100D02*
X60133000Y-86263700D01*
X69225000Y-91940100D02*
X65809400Y-91940100D01*
X60133000Y-54395800D02*
X63228700Y-51300100D01*
X73179900Y-95895000D02*
X69225000Y-91940100D01*
X63228700Y-51300100D02*
X63510000Y-51300100D01*
X74305000Y-95895000D02*
X73179900Y-95895000D01*
X63510000Y-51300100D02*
X63510000Y-50175000D01*
X60133000Y-86263700D02*
X60133000Y-54395800D01*
X69716200Y-104068000D02*
X68722000Y-104068000D01*
X58782700Y-94128700D02*
X58782700Y-47635000D01*
X68722000Y-104068000D02*
X58782700Y-94128700D01*
X73179900Y-98435000D02*
X70594800Y-101020000D01*
X74305000Y-98435000D02*
X73179900Y-98435000D01*
X70594800Y-103189000D02*
X69716200Y-104068000D01*
X70594800Y-101020000D02*
X70594800Y-103189000D01*
X59682900Y-49765900D02*
X63228700Y-46220100D01*
X63510000Y-46220100D02*
X63510000Y-45095000D01*
X59682900Y-88001000D02*
X59682900Y-49765900D01*
X66685000Y-94769900D02*
X66451800Y-94769900D01*
X63228700Y-46220100D02*
X63510000Y-46220100D01*
X66451800Y-94769900D02*
X59682900Y-88001000D01*
X66685000Y-95895000D02*
X66685000Y-94769900D01*
X66259100Y-97072300D02*
X59232800Y-90046000D01*
X59825800Y-47834700D02*
X59825800Y-47131100D01*
X67135000Y-97072300D02*
X66259100Y-97072300D01*
X59232800Y-48427700D02*
X59825800Y-47834700D01*
X63276800Y-43680100D02*
X63510000Y-43680100D01*
X59232800Y-90046000D02*
X59232800Y-48427700D01*
X66685000Y-93924700D02*
X67831200Y-95070900D01*
X66685000Y-93355000D02*
X66685000Y-93924700D01*
X67831200Y-95070900D02*
X67831200Y-96376100D01*
X59825800Y-47131100D02*
X63276800Y-43680100D01*
X63510000Y-43680100D02*
X63510000Y-42555000D01*
X67831200Y-96376100D02*
X67135000Y-97072300D01*
X66685000Y-89689900D02*
X66685000Y-90815000D01*
X63285900Y-61500400D02*
X61033200Y-63753100D01*
X61810000Y-85732000D02*
X61810000Y-86329600D01*
X67843100Y-42011900D02*
X67843100Y-60840700D01*
X61810000Y-86329600D02*
X65170300Y-89689900D01*
X67843100Y-60840700D02*
X67183400Y-61500400D01*
X66976300Y-41145100D02*
X67843100Y-42011900D01*
X66695000Y-41145100D02*
X66976300Y-41145100D01*
X66695000Y-40020000D02*
X66695000Y-41145100D01*
X61033200Y-63753100D02*
X61033200Y-84955200D01*
X65170300Y-89689900D02*
X66685000Y-89689900D01*
X67183400Y-61500400D02*
X63285900Y-61500400D01*
X61033200Y-84955200D02*
X61810000Y-85732000D01*
X71689200Y-63132200D02*
X71689200Y-61372900D01*
X70257500Y-66922500D02*
X70257500Y-64563900D01*
X71689200Y-61372900D02*
X74137000Y-58925100D01*
X74315000Y-58925100D02*
X74315000Y-57800000D01*
X66685000Y-70495000D02*
X70257500Y-66922500D01*
X85398200Y-65573300D02*
X85398200Y-62268400D01*
X74137000Y-58925100D02*
X74315000Y-58925100D01*
X90795000Y-69845000D02*
X89669900Y-69845000D01*
X89669900Y-69845000D02*
X85398200Y-65573300D01*
X70257500Y-64563900D02*
X71689200Y-63132200D01*
X85398200Y-62268400D02*
X83938900Y-60809100D01*
X74101500Y-62033500D02*
X71211800Y-64923200D01*
X74315000Y-56385100D02*
X74596300Y-56385100D01*
X75464500Y-60795800D02*
X74226800Y-62033500D01*
X75464500Y-57253300D02*
X75464500Y-60795800D01*
X74226800Y-62033500D02*
X74101500Y-62033500D01*
X74315000Y-55260000D02*
X74315000Y-56385100D01*
X66918100Y-71909900D02*
X66685000Y-71909900D01*
X66685000Y-71909900D02*
X66685000Y-73035000D01*
X71211800Y-66722000D02*
X70014600Y-67919200D01*
X71211800Y-64923200D02*
X71211800Y-66722000D01*
X74596300Y-56385100D02*
X75464500Y-57253300D01*
X70014600Y-68813400D02*
X66918100Y-71909900D01*
X70014600Y-67919200D02*
X70014600Y-68813400D01*
X71661900Y-66908500D02*
X70464700Y-68105700D01*
X74253900Y-62642900D02*
X74134600Y-62642900D01*
X66685000Y-74449900D02*
X66685000Y-75575000D01*
X66966400Y-74449900D02*
X66685000Y-74449900D01*
X74134600Y-62642900D02*
X71661900Y-65115600D01*
X71661900Y-65115600D02*
X71661900Y-66908500D01*
X75914600Y-60982200D02*
X74253900Y-62642900D01*
X74519800Y-53845100D02*
X75914600Y-55239900D01*
X74315000Y-52720000D02*
X74315000Y-53845100D01*
X75914600Y-55239900D02*
X75914600Y-60982200D01*
X74315000Y-53845100D02*
X74519800Y-53845100D01*
X70464700Y-68105700D02*
X70464700Y-70951600D01*
X70464700Y-70951600D02*
X66966400Y-74449900D01*
X64434800Y-76989900D02*
X63326100Y-76989900D01*
X63875500Y-71765000D02*
X64635100Y-71005400D01*
X62383500Y-76047300D02*
X62383500Y-72562900D01*
X72925900Y-57055800D02*
X72925900Y-52461000D01*
X64635100Y-69622600D02*
X65163400Y-69094300D01*
X66685000Y-78115000D02*
X65559900Y-78115000D01*
X74315000Y-51305100D02*
X74315000Y-50180000D01*
X63181400Y-71765000D02*
X63875500Y-71765000D01*
X65559900Y-78115000D02*
X64434800Y-76989900D01*
X64635100Y-71005400D02*
X64635100Y-69622600D01*
X62383500Y-72562900D02*
X63181400Y-71765000D01*
X63326100Y-76989900D02*
X62383500Y-76047300D01*
X65163400Y-64818300D02*
X72925900Y-57055800D01*
X74081800Y-51305100D02*
X74315000Y-51305100D01*
X65163400Y-69094300D02*
X65163400Y-64818300D01*
X72925900Y-52461000D02*
X74081800Y-51305100D01*
X74480200Y-63093000D02*
X74360900Y-63093000D01*
X72112000Y-67095000D02*
X70914800Y-68292200D01*
X72112000Y-65341900D02*
X72112000Y-67095000D01*
X74315000Y-48765100D02*
X74520500Y-48765100D01*
X74520500Y-48765100D02*
X76350800Y-50595400D01*
X66966400Y-79529900D02*
X66685000Y-79529900D01*
X74360900Y-63093000D02*
X72112000Y-65341900D01*
X76364700Y-54256400D02*
X76364700Y-61208500D01*
X66685000Y-79529900D02*
X66685000Y-80655000D01*
X70914800Y-68292200D02*
X70914800Y-75581500D01*
X76350800Y-54242500D02*
X76364700Y-54256400D01*
X70914800Y-75581500D02*
X66966400Y-79529900D01*
X76364700Y-61208500D02*
X74480200Y-63093000D01*
X74315000Y-47640000D02*
X74315000Y-48765100D01*
X76350800Y-50595400D02*
X76350800Y-54242500D01*
X74315000Y-46225100D02*
X74520500Y-46225100D01*
X74520500Y-46225100D02*
X76800900Y-48505500D01*
X66685000Y-82069900D02*
X66685000Y-83195000D01*
X71364900Y-77671300D02*
X66966300Y-82069900D01*
X72562100Y-67281500D02*
X71364900Y-68478700D01*
X76800900Y-48505500D02*
X76800900Y-54056000D01*
X71364900Y-68478700D02*
X71364900Y-77671300D01*
X74547400Y-63543100D02*
X72562100Y-65528400D01*
X72562100Y-65528400D02*
X72562100Y-67281500D01*
X76814800Y-54069900D02*
X76814800Y-61395000D01*
X76800900Y-54056000D02*
X76814800Y-54069900D01*
X76814800Y-61395000D02*
X74666700Y-63543100D01*
X74315000Y-45100000D02*
X74315000Y-46225100D01*
X74666700Y-63543100D02*
X74547400Y-63543100D01*
X66966300Y-82069900D02*
X66685000Y-82069900D01*
X80567800Y-68898200D02*
X80567800Y-43108100D01*
X90795000Y-85085000D02*
X90795000Y-83959900D01*
X82784600Y-71115000D02*
X80567800Y-68898200D01*
X90590500Y-83959900D02*
X85151600Y-78521000D01*
X83572300Y-71115000D02*
X82784600Y-71115000D01*
X85151600Y-78521000D02*
X85151600Y-72694300D01*
X85151600Y-72694300D02*
X83572300Y-71115000D01*
X90795000Y-83959900D02*
X90590500Y-83959900D01*
X90795000Y-86499900D02*
X90561800Y-86499900D01*
X66685000Y-88275000D02*
X67810100Y-88275000D01*
X79451200Y-70326200D02*
X79451200Y-40020000D01*
X75063000Y-89465600D02*
X76286300Y-88242300D01*
X67810100Y-88275000D02*
X69000700Y-89465600D01*
X84476500Y-74576900D02*
X83610200Y-73710600D01*
X84476500Y-80414600D02*
X84476500Y-74576900D01*
X83610200Y-73710600D02*
X82835600Y-73710600D01*
X82835600Y-73710600D02*
X79451200Y-70326200D01*
X90561800Y-86499900D02*
X84476500Y-80414600D01*
X90795000Y-87625000D02*
X90795000Y-86499900D01*
X69000700Y-89465600D02*
X75063000Y-89465600D01*
X99214200Y-102082000D02*
X104448000Y-107315000D01*
X105928000Y-108124000D02*
X105928000Y-109128000D01*
X104448000Y-107315000D02*
X105119000Y-107315000D01*
X89605300Y-74660100D02*
X89605300Y-77906200D01*
X109668000Y-45612900D02*
X109668000Y-37465000D01*
X96781300Y-97155000D02*
X97532800Y-97155000D01*
X104140000Y-37465000D02*
X100330000Y-33655000D01*
X92196200Y-92569900D02*
X96781300Y-97155000D01*
X105056000Y-110000000D02*
X104775000Y-110000000D01*
X99214200Y-98836400D02*
X99214200Y-102082000D01*
X83175000Y-68430100D02*
X83375300Y-68430100D01*
X105119000Y-107315000D02*
X105928000Y-108124000D01*
X82187200Y-65192100D02*
X83175000Y-66179900D01*
X89605300Y-77906200D02*
X90434100Y-78735000D01*
X112395000Y-37465000D02*
X109668000Y-37465000D01*
X109668000Y-37465000D02*
X104140000Y-37465000D01*
X83175000Y-67305000D02*
X83175000Y-68430100D01*
X97532800Y-97155000D02*
X99214200Y-98836400D01*
X91185700Y-78735000D02*
X92196200Y-79745500D01*
X82187200Y-52801000D02*
X82187200Y-65192100D01*
X90434100Y-78735000D02*
X91185700Y-78735000D01*
X92196200Y-79745500D02*
X92196200Y-92569900D01*
X104775000Y-110000000D02*
X104775000Y-111125000D01*
X83175000Y-66179900D02*
X83175000Y-67305000D01*
X83375300Y-68430100D02*
X89605300Y-74660100D01*
X105928000Y-109128000D02*
X105056000Y-110000000D01*
X89480700Y-73510200D02*
X91373500Y-73510200D01*
X88914900Y-72944400D02*
X89480700Y-73510200D01*
X91373500Y-73510200D02*
X92218200Y-72665500D01*
X92218200Y-72665500D02*
X92218200Y-72393600D01*
X102720000Y-62230800D02*
X102720000Y-60325000D01*
X82991200Y-43408500D02*
X82991200Y-41635400D01*
X82991200Y-41635400D02*
X82346100Y-40990300D01*
X97155000Y-86882200D02*
X93416500Y-83143700D01*
X82514900Y-43884800D02*
X82991200Y-43408500D01*
X93416500Y-83143700D02*
X93416500Y-63004800D01*
X82514900Y-52103200D02*
X82514900Y-43884800D01*
X82346100Y-40990300D02*
X82346100Y-19468600D01*
X97155000Y-88265000D02*
X97155000Y-86882200D01*
X93416500Y-63004800D02*
X82514900Y-52103200D01*
X77529600Y-90848500D02*
X77529600Y-94267800D01*
X74706300Y-97091100D02*
X70876800Y-97091100D01*
X36994800Y-57566800D02*
X36994800Y-72799000D01*
X35813100Y-56385100D02*
X36994800Y-57566800D01*
X70876800Y-97091100D02*
X68396600Y-94610900D01*
X112395000Y-90805000D02*
X104775000Y-90805000D01*
X36994800Y-72799000D02*
X41703000Y-77507200D01*
X35580000Y-56385100D02*
X35813100Y-56385100D01*
X35580000Y-55260000D02*
X35580000Y-56385100D01*
X77529600Y-94267800D02*
X74706300Y-97091100D01*
X105271000Y-112255000D02*
X75586600Y-112255000D01*
X48634000Y-76845000D02*
X47872700Y-76845000D01*
X40632200Y-69604500D02*
X40632200Y-55378400D01*
X112395000Y-94520100D02*
X112030000Y-94520100D01*
X112395000Y-93345000D02*
X112395000Y-94520100D01*
X49395200Y-86063600D02*
X49395200Y-77606200D01*
X49395200Y-77606200D02*
X48634000Y-76845000D01*
X111030000Y-95519600D02*
X111030000Y-106496000D01*
X47872700Y-76845000D02*
X40632200Y-69604500D01*
X75586600Y-112255000D02*
X49395200Y-86063600D01*
X111030000Y-106496000D02*
X105271000Y-112255000D01*
X112030000Y-94520100D02*
X111030000Y-95519600D01*
X94766800Y-81286100D02*
X99689000Y-86208300D01*
X94766800Y-57365400D02*
X94766800Y-81286100D01*
X99689000Y-87433200D02*
X100139000Y-87883300D01*
X90115100Y-52713700D02*
X94766800Y-57365400D01*
X99689000Y-86208300D02*
X99689000Y-87433200D01*
X100139000Y-87883300D02*
X100139000Y-91249100D01*
X100139000Y-91249100D02*
X104775000Y-95885000D01*
X94316700Y-58092500D02*
X94316700Y-81864100D01*
X94316700Y-81864100D02*
X99238900Y-86786300D01*
X104775000Y-97299900D02*
X104775000Y-98425000D01*
X99238900Y-86786300D02*
X99238900Y-92045100D01*
X104494000Y-97299900D02*
X104775000Y-97299900D01*
X89092400Y-49048500D02*
X89092400Y-52868200D01*
X99238900Y-92045100D02*
X104494000Y-97299900D01*
X89092400Y-52868200D02*
X94316700Y-58092500D01*
X98280200Y-86991900D02*
X93866600Y-82578300D01*
X104542000Y-99839900D02*
X98280200Y-93578300D01*
X93866600Y-82578300D02*
X93866600Y-58278900D01*
X104775000Y-99839900D02*
X104542000Y-99839900D01*
X83246200Y-47658500D02*
X83246200Y-46467600D01*
X98280200Y-93578300D02*
X98280200Y-86991900D01*
X93866600Y-58278900D02*
X83246200Y-47658500D01*
X104775000Y-100965000D02*
X104775000Y-99839900D01*
X98141500Y-63625800D02*
X98490300Y-63277000D01*
X112826000Y-89535000D02*
X111922000Y-89535000D01*
X98490300Y-63277000D02*
X98490300Y-45585400D01*
X112395000Y-102330000D02*
X112762000Y-102330000D01*
X113570000Y-101522000D02*
X113570000Y-90279300D01*
X98141500Y-64226400D02*
X98141500Y-63625800D01*
X111922000Y-89535000D02*
X108143000Y-85755300D01*
X100092000Y-72361200D02*
X100092000Y-65676100D01*
X99667100Y-65251400D02*
X99166500Y-65251400D01*
X108143000Y-85755300D02*
X108143000Y-80412200D01*
X99166500Y-65251400D02*
X98141500Y-64226400D01*
X108143000Y-80412200D02*
X100092000Y-72361200D01*
X112395000Y-103505000D02*
X112395000Y-102330000D01*
X100092000Y-65676100D02*
X99667100Y-65251400D01*
X113570000Y-90279300D02*
X112826000Y-89535000D01*
X112762000Y-102330000D02*
X113570000Y-101522000D01*
X100139000Y-87246600D02*
X100589000Y-87696700D01*
X105925000Y-95381700D02*
X105925000Y-104051000D01*
X104775000Y-104920000D02*
X104775000Y-106045000D01*
X87942100Y-41210600D02*
X95278500Y-48547000D01*
X104435000Y-94614200D02*
X105158000Y-94614200D01*
X105925000Y-104051000D02*
X105056000Y-104920000D01*
X95278500Y-80496800D02*
X100139000Y-85357400D01*
X105056000Y-104920000D02*
X104775000Y-104920000D01*
X100589000Y-90768700D02*
X104435000Y-94614200D01*
X95278500Y-48547000D02*
X95278500Y-80496800D01*
X105158000Y-94614200D02*
X105925000Y-95381700D01*
X100589000Y-87696700D02*
X100589000Y-90768700D01*
X100139000Y-85357400D02*
X100139000Y-87246600D01*
X103650000Y-108585000D02*
X104775000Y-108585000D01*
X50365600Y-60773000D02*
X50365600Y-86348300D01*
X35580000Y-37480000D02*
X35580000Y-38605100D01*
X73792900Y-109776000D02*
X102459000Y-109776000D01*
X47928200Y-59065000D02*
X48657600Y-59065000D01*
X48657600Y-59065000D02*
X50365600Y-60773000D01*
X45101600Y-56238400D02*
X47928200Y-59065000D01*
X36994800Y-39786800D02*
X36994800Y-40566800D01*
X36994800Y-40566800D02*
X42798000Y-46370000D01*
X43601600Y-46370000D02*
X45101600Y-47870000D01*
X45101600Y-47870000D02*
X45101600Y-56238400D01*
X35813100Y-38605100D02*
X36994800Y-39786800D01*
X35580000Y-38605100D02*
X35813100Y-38605100D01*
X50365600Y-86348300D02*
X73792900Y-109776000D01*
X102459000Y-109776000D02*
X103650000Y-108585000D01*
X42798000Y-46370000D02*
X43601600Y-46370000D01*
X97315300Y-34708500D02*
X96753600Y-34146800D01*
X98843500Y-34708500D02*
X97315300Y-34708500D01*
X100330000Y-36195000D02*
X98843500Y-34708500D01*
X55694400Y-38642500D02*
X64275200Y-30061700D01*
X55694400Y-61531000D02*
X55694400Y-38642500D01*
X96753600Y-34146800D02*
X96753600Y-33134800D01*
X96753600Y-33134800D02*
X96149500Y-32530700D01*
X90637400Y-34691300D02*
X91673700Y-33655000D01*
X114935000Y-70485000D02*
X113760000Y-70485000D01*
X89125300Y-35732700D02*
X90166700Y-34691300D01*
X112934000Y-71675600D02*
X111917000Y-71675600D01*
X89125300Y-36669400D02*
X89125300Y-35732700D01*
X99640100Y-40246200D02*
X92702100Y-40246200D01*
X106810000Y-47415600D02*
X99640100Y-40246200D01*
X91673700Y-33655000D02*
X92710000Y-33655000D01*
X113760000Y-70485000D02*
X113760000Y-70850200D01*
X90166700Y-34691300D02*
X90637400Y-34691300D01*
X92702100Y-40246200D02*
X89125300Y-36669400D01*
X113760000Y-70850200D02*
X112934000Y-71675600D01*
X111917000Y-71675600D02*
X106810000Y-66568100D01*
X106810000Y-66568100D02*
X106810000Y-47415600D01*
X114935000Y-62865000D02*
X114935000Y-61689900D01*
X108529000Y-55581500D02*
X108529000Y-47225200D01*
X112921000Y-59149800D02*
X112097000Y-59149800D01*
X116126000Y-26773400D02*
X115387000Y-26035000D01*
X114620000Y-61689900D02*
X113665000Y-60734900D01*
X112097000Y-59149800D02*
X108529000Y-55581500D01*
X113570000Y-24765000D02*
X112395000Y-24765000D01*
X113665000Y-59894100D02*
X112921000Y-59149800D01*
X115302000Y-61689900D02*
X116126000Y-60866300D01*
X114935000Y-61689900D02*
X115302000Y-61689900D01*
X114475000Y-26035000D02*
X113570000Y-25130300D01*
X116126000Y-60866300D02*
X116126000Y-26773400D01*
X108529000Y-47225200D02*
X99474700Y-38170800D01*
X115387000Y-26035000D02*
X114475000Y-26035000D01*
X99474700Y-38170800D02*
X95205600Y-38170800D01*
X114935000Y-61689900D02*
X114620000Y-61689900D01*
X113665000Y-60734900D02*
X113665000Y-59894100D01*
X95205600Y-38170800D02*
X95205600Y-38170700D01*
X113570000Y-25130300D02*
X113570000Y-24765000D01*
X105097000Y-19938300D02*
X105097000Y-15598300D01*
X107910000Y-16045800D02*
X107910000Y-20293200D01*
X112921000Y-21049800D02*
X113665000Y-21794100D01*
X113665000Y-22685200D02*
X114570000Y-23589900D01*
X113665000Y-21794100D02*
X113665000Y-22685200D01*
X114570000Y-23589900D02*
X114935000Y-23589900D01*
X105183000Y-21049800D02*
X112921000Y-21049800D01*
X97790000Y-18415000D02*
X98842000Y-17363000D01*
X101496000Y-17363000D02*
X105183000Y-21049800D01*
X98842000Y-17363000D02*
X101496000Y-17363000D01*
X114935000Y-23589900D02*
X114935000Y-24765000D01*
X98893500Y-19453300D02*
X99089000Y-19257800D01*
X109380000Y-25940200D02*
X112760000Y-25940200D01*
X112760000Y-25940200D02*
X113760000Y-26939800D01*
X95250000Y-18415000D02*
X96288300Y-19453300D01*
X100335000Y-19903300D02*
X103343000Y-19903300D01*
X96288300Y-19453300D02*
X98893500Y-19453300D01*
X99089000Y-19257800D02*
X99689700Y-19257800D01*
X103343000Y-19903300D02*
X109380000Y-25940200D01*
X113760000Y-26939800D02*
X113760000Y-27305000D01*
X113760000Y-27305000D02*
X114935000Y-27305000D01*
X99689700Y-19257800D02*
X100335000Y-19903300D01*
X110328000Y-28575000D02*
X103978000Y-22225000D01*
X103978000Y-22225000D02*
X100098000Y-22225000D01*
X99293600Y-20078600D02*
X99389300Y-19982900D01*
X112855000Y-28575000D02*
X110328000Y-28575000D01*
X100098000Y-22225000D02*
X99293600Y-21420200D01*
X114935000Y-29845000D02*
X113760000Y-29845000D01*
X113760000Y-29845000D02*
X113760000Y-29479800D01*
X99293600Y-21420200D02*
X99293600Y-20078600D01*
X113760000Y-29479800D02*
X112855000Y-28575000D01*
X87630000Y-20955000D02*
X84360200Y-17685200D01*
X77719200Y-17685200D02*
X77375100Y-17341100D01*
X77375100Y-17341100D02*
X77375100Y-16510000D01*
X77375100Y-16510000D02*
X76200000Y-16510000D01*
X84360200Y-17685200D02*
X77719200Y-17685200D01*
X115389000Y-69153700D02*
X111911000Y-69153700D01*
X107260000Y-47229100D02*
X99376600Y-39346000D01*
X116177000Y-68365200D02*
X115389000Y-69153700D01*
X107260000Y-64502400D02*
X107260000Y-47229100D01*
X114935000Y-65405000D02*
X116177000Y-66647300D01*
X93321000Y-39346000D02*
X90170000Y-36195000D01*
X99376600Y-39346000D02*
X93321000Y-39346000D01*
X111911000Y-69153700D02*
X107260000Y-64502400D01*
X116177000Y-66647300D02*
X116177000Y-68365200D01*
X114935000Y-66769900D02*
X114570000Y-66769900D01*
X113665000Y-62375600D02*
X112979000Y-61689800D01*
X114935000Y-67945000D02*
X114935000Y-66769900D01*
X99563000Y-38895900D02*
X94837100Y-38895900D01*
X112097000Y-61689800D02*
X108079000Y-57671400D01*
X113665000Y-65865200D02*
X113665000Y-62375600D01*
X112979000Y-61689800D02*
X112097000Y-61689800D01*
X92710000Y-36768800D02*
X92710000Y-36195000D01*
X108079000Y-57671400D02*
X108079000Y-47411900D01*
X94837100Y-38895900D02*
X92710000Y-36768800D01*
X114570000Y-66769900D02*
X113665000Y-65865200D01*
X108079000Y-47411900D02*
X99563000Y-38895900D01*
X97145000Y-50165000D02*
X97145000Y-49039900D01*
X96968600Y-49039900D02*
X88676600Y-40747900D01*
X88676600Y-40747900D02*
X88676600Y-40365800D01*
X97145000Y-49039900D02*
X96968600Y-49039900D01*
X106278000Y-59457200D02*
X106084000Y-59651300D01*
X88670800Y-36882300D02*
X92484900Y-40696400D01*
X88670800Y-35731100D02*
X88670800Y-36882300D01*
X99453600Y-40696400D02*
X106278000Y-47521300D01*
X86364400Y-34929400D02*
X87869100Y-34929400D01*
X106278000Y-47521300D02*
X106278000Y-59457200D01*
X85090000Y-33655000D02*
X86364400Y-34929400D01*
X92484900Y-40696400D02*
X99453600Y-40696400D01*
X87869100Y-34929400D02*
X88670800Y-35731100D01*
X94059400Y-33099200D02*
X94059400Y-33974000D01*
X113760000Y-57419800D02*
X113760000Y-57785000D01*
X99536300Y-37595900D02*
X110376000Y-48435500D01*
X92075200Y-31115000D02*
X94059400Y-33099200D01*
X96520000Y-35974700D02*
X96520000Y-36481400D01*
X110376000Y-48435500D02*
X110376000Y-54888400D01*
X94851100Y-34765700D02*
X95311000Y-34765700D01*
X112855000Y-56515000D02*
X113760000Y-57419800D01*
X96520000Y-36481400D02*
X97634500Y-37595900D01*
X95311000Y-34765700D02*
X96520000Y-35974700D01*
X112002000Y-56515000D02*
X112855000Y-56515000D01*
X97634500Y-37595900D02*
X99536300Y-37595900D01*
X94059400Y-33974000D02*
X94851100Y-34765700D01*
X113760000Y-57785000D02*
X114935000Y-57785000D01*
X110376000Y-54888400D02*
X112002000Y-56515000D01*
X99527800Y-42047100D02*
X103207000Y-45726100D01*
X103207000Y-45726100D02*
X103207000Y-46006200D01*
X82266100Y-41935700D02*
X81136900Y-40806500D01*
X113760000Y-55245000D02*
X113760000Y-54879800D01*
X114935000Y-55245000D02*
X113760000Y-55245000D01*
X81136900Y-40806500D02*
X81136900Y-31115000D01*
X111208000Y-53179800D02*
X111208000Y-48891300D01*
X113760000Y-54879800D02*
X112855000Y-53975000D01*
X112003000Y-53975000D02*
X111208000Y-53179800D01*
X112855000Y-53975000D02*
X112003000Y-53975000D01*
X82796200Y-24299900D02*
X82796200Y-37154100D01*
X82796200Y-37154100D02*
X94450400Y-48808300D01*
X84653400Y-22442700D02*
X82796200Y-24299900D01*
X85541000Y-22442700D02*
X84653400Y-22442700D01*
X87630000Y-28575000D02*
X86559800Y-27504800D01*
X86559800Y-27504800D02*
X86559800Y-23461500D01*
X86559800Y-23461500D02*
X85541000Y-22442700D01*
X82253400Y-43095400D02*
X80208900Y-41050900D01*
X100239000Y-49809500D02*
X104404000Y-53975000D01*
X80208900Y-41050900D02*
X80208900Y-28575000D01*
X104404000Y-53975000D02*
X105482000Y-53975000D01*
X100239000Y-45481100D02*
X100239000Y-49809500D01*
X101600000Y-33876200D02*
X101600000Y-33396100D01*
X113760000Y-37140100D02*
X112910000Y-36289800D01*
X112910000Y-36289800D02*
X104014000Y-36289800D01*
X89072600Y-22115800D02*
X89072600Y-21720000D01*
X114935000Y-41369900D02*
X114568000Y-41369900D01*
X113760000Y-40562100D02*
X113760000Y-37140100D01*
X91896700Y-25576600D02*
X91896700Y-24939900D01*
X114568000Y-41369900D02*
X113760000Y-40562100D01*
X101600000Y-33396100D02*
X100814000Y-32609900D01*
X91896700Y-24939900D02*
X89072600Y-22115800D01*
X100814000Y-32609900D02*
X98930000Y-32609900D01*
X104014000Y-36289800D02*
X101600000Y-33876200D01*
X114935000Y-42545000D02*
X114935000Y-41369900D01*
X98930000Y-32609900D02*
X91896700Y-25576600D01*
X91663500Y-20968600D02*
X91663500Y-23417300D01*
X87630000Y-18415000D02*
X88740600Y-19525600D01*
X88740600Y-19525600D02*
X90220500Y-19525600D01*
X93072000Y-24825800D02*
X93072000Y-25029200D01*
X91663500Y-23417300D02*
X93072000Y-24825800D01*
X90220500Y-19525600D02*
X91663500Y-20968600D01*
X99108000Y-32151400D02*
X92346800Y-25390200D01*
X103820000Y-32151400D02*
X99108000Y-32151400D01*
X92346800Y-25390200D02*
X92346800Y-24753500D01*
X90170000Y-22576700D02*
X90170000Y-20955000D01*
X92346800Y-24753500D02*
X90170000Y-22576700D01*
X105106000Y-33437200D02*
X103820000Y-32151400D01*
X95758900Y-19908400D02*
X96520000Y-20669500D01*
X113760000Y-34559800D02*
X113760000Y-34925000D01*
X112855000Y-33655000D02*
X113760000Y-34559800D01*
X90170000Y-18415000D02*
X91248100Y-17336900D01*
X100091000Y-24765000D02*
X103113000Y-24765000D01*
X96520000Y-20669500D02*
X96520000Y-21193600D01*
X103113000Y-24765000D02*
X112003000Y-33655000D01*
X93111100Y-17336900D02*
X93746400Y-17972200D01*
X112003000Y-33655000D02*
X112855000Y-33655000D01*
X95220300Y-19908400D02*
X95758900Y-19908400D01*
X93746400Y-17972200D02*
X93746400Y-18434500D01*
X93746400Y-18434500D02*
X95220300Y-19908400D01*
X113760000Y-34925000D02*
X114935000Y-34925000D01*
X96520000Y-21193600D02*
X100091000Y-24765000D01*
X91248100Y-17336900D02*
X93111100Y-17336900D01*
X110826000Y-31115000D02*
X112855000Y-31115000D01*
X113760000Y-32019800D02*
X113760000Y-32385000D01*
X113760000Y-32385000D02*
X114935000Y-32385000D01*
X94333100Y-22578100D02*
X94333100Y-25768100D01*
X92710000Y-20955000D02*
X94333100Y-22578100D01*
X106118000Y-26406400D02*
X110826000Y-31115000D01*
X112855000Y-31115000D02*
X113760000Y-32019800D01*
X21315000Y-53584900D02*
X21590000Y-53309900D01*
X21590000Y-53309900D02*
X21590000Y-48895000D01*
X21315000Y-54610000D02*
X21315000Y-53584900D01*
M02*
