M48
; DRILL file {KiCad (6.0.1)} date Wed May 10 10:20:40 2023
; FORMAT={-:-/ absolute / metric / decimal}
; #@! TF.CreationDate,2023-05-10T10:20:40+02:00
; #@! TF.GenerationSoftware,Kicad,Pcbnew,(6.0.1)
; #@! TF.FileFunction,Plated,1,2,PTH
FMAT,2
METRIC
; #@! TA.AperFunction,Plated,PTH,ViaDrill
T1C0.400
; #@! TA.AperFunction,Plated,PTH,ComponentDrill
T2C0.700
; #@! TA.AperFunction,Plated,PTH,ComponentDrill
T3C0.800
; #@! TA.AperFunction,Plated,PTH,ComponentDrill
T4C0.900
; #@! TA.AperFunction,Plated,PTH,ComponentDrill
T5C0.950
; #@! TA.AperFunction,Plated,PTH,ComponentDrill
T6C1.000
; #@! TA.AperFunction,Plated,PTH,ComponentDrill
T7C2.300
%
G90
G05
T1
X40.632Y-55.378
X41.703Y-77.507
X51.297Y-76.315
X55.694Y-61.531
X57.081Y-75.575
X58.783Y-47.635
X61.085Y-86.19
X62.209Y-81.881
X64.275Y-30.062
X64.28Y-32.16
X64.351Y-79.503
X65.675Y-29.612
X68.397Y-94.611
X70.858Y-61.534
X71.355Y-60.593
X72.069Y-36.774
X72.54Y-68.965
X73.287Y-66.83
X76.286Y-88.242
X77.53Y-90.849
X78.723Y-31.871
X78.723Y-67.478
X79.451Y-40.02
X79.669Y-89.187
X80.209Y-28.575
X80.407Y-89.935
X80.568Y-43.108
X81.137Y-31.115
X82.187Y-52.801
X82.253Y-43.095
X82.266Y-41.936
X82.346Y-19.469
X83.246Y-46.468
X83.939Y-60.809
X84.673Y-65.431
X87.079Y-66.165
X87.942Y-41.211
X88.677Y-40.366
X88.915Y-72.944
X89.073Y-21.72
X89.092Y-49.048
X90.115Y-52.714
X90.496Y-61.49
X91.44Y-19.05
X92.075Y-31.115
X92.218Y-72.394
X92.348Y-70.532
X92.921Y-88.242
X93.072Y-25.029
X94.333Y-25.768
X94.45Y-48.808
X94.583Y-85.336
X95.206Y-38.171
X96.149Y-32.531
X98.49Y-45.585
X98.867Y-63.926
X99.367Y-65.977
X99.389Y-19.983
X99.528Y-42.047
X100.239Y-45.481
X101.095Y-87.14
X102.72Y-60.325
X102.72Y-62.231
X103.207Y-46.006
X105.097Y-15.598
X105.097Y-19.938
X105.106Y-33.437
X105.482Y-53.975
X106.084Y-59.651
X106.118Y-26.406
X107.91Y-16.046
X107.91Y-20.293
X108.868Y-85.336
X109.668Y-45.613
X111.208Y-48.891
T2
X19.415Y-54.61
X21.315Y-54.61
X42.545Y-23.835
X42.545Y-25.735
T3
X24.94Y-35.56
X29.84Y-35.56
X35.58Y-34.94
X35.58Y-37.48
X35.58Y-40.02
X35.58Y-42.56
X35.58Y-45.1
X35.58Y-47.64
X35.58Y-50.18
X35.58Y-52.72
X35.58Y-55.26
X35.58Y-57.8
X36.235Y-17.78
X37.465Y-23.535
X37.465Y-26.035
X41.235Y-17.78
X43.2Y-34.94
X43.2Y-37.48
X43.2Y-40.02
X43.2Y-42.56
X43.2Y-45.1
X43.2Y-47.64
X43.2Y-50.18
X43.2Y-52.72
X43.2Y-55.26
X43.2Y-57.8
X46.99Y-17.78
X46.99Y-25.4
X48.27Y-37.475
X48.27Y-40.015
X48.27Y-42.555
X48.27Y-45.095
X48.27Y-47.635
X48.27Y-50.175
X48.27Y-52.715
X48.27Y-55.255
X48.27Y-57.795
X48.27Y-60.335
X48.27Y-62.875
X48.27Y-65.415
X48.27Y-67.955
X48.27Y-70.495
X48.27Y-73.035
X48.27Y-75.575
X48.27Y-78.115
X48.27Y-80.655
X48.27Y-83.195
X48.27Y-85.735
X62.23Y-17.78
X62.23Y-25.4
X63.51Y-37.475
X63.51Y-40.015
X63.51Y-42.555
X63.51Y-45.095
X63.51Y-47.635
X63.51Y-50.175
X63.51Y-52.715
X63.51Y-55.255
X63.51Y-57.795
X63.51Y-60.335
X63.51Y-62.875
X63.51Y-65.415
X63.51Y-67.955
X63.51Y-70.495
X63.51Y-73.035
X63.51Y-75.575
X63.51Y-78.115
X63.51Y-80.655
X63.51Y-83.195
X63.51Y-85.735
X66.685Y-65.415
X66.685Y-67.955
X66.685Y-70.495
X66.685Y-73.035
X66.685Y-75.575
X66.685Y-78.115
X66.685Y-80.655
X66.685Y-83.195
X66.685Y-85.735
X66.685Y-88.275
X66.685Y-90.815
X66.685Y-93.355
X66.685Y-95.895
X66.685Y-98.435
X66.695Y-37.48
X66.695Y-40.02
X66.695Y-42.56
X66.695Y-45.1
X66.695Y-47.64
X66.695Y-50.18
X66.695Y-52.72
X66.695Y-55.26
X66.695Y-57.8
X66.695Y-60.34
X74.305Y-65.415
X74.305Y-67.955
X74.305Y-70.495
X74.305Y-73.035
X74.305Y-75.575
X74.305Y-78.115
X74.305Y-80.655
X74.305Y-83.195
X74.305Y-85.735
X74.305Y-88.275
X74.305Y-90.815
X74.305Y-93.355
X74.305Y-95.895
X74.305Y-98.435
X74.315Y-37.48
X74.315Y-40.02
X74.315Y-42.56
X74.315Y-45.1
X74.315Y-47.64
X74.315Y-50.18
X74.315Y-52.72
X74.315Y-55.26
X74.315Y-57.8
X74.315Y-60.34
X83.175Y-67.305
X83.175Y-69.845
X83.175Y-72.385
X83.175Y-74.925
X83.175Y-77.465
X83.175Y-80.005
X83.175Y-82.545
X83.175Y-85.085
X83.175Y-87.625
X83.175Y-90.165
X85.09Y-20.955
X85.09Y-23.495
X85.09Y-26.035
X85.09Y-28.575
X85.09Y-31.115
X85.09Y-33.655
X87.63Y-18.415
X87.63Y-20.955
X87.63Y-23.495
X87.63Y-26.035
X87.63Y-28.575
X87.63Y-31.115
X87.63Y-33.655
X87.63Y-36.195
X90.17Y-18.415
X90.17Y-20.955
X90.17Y-33.655
X90.17Y-36.195
X90.795Y-67.305
X90.795Y-69.845
X90.795Y-72.385
X90.795Y-74.925
X90.795Y-77.465
X90.795Y-80.005
X90.795Y-82.545
X90.795Y-85.085
X90.795Y-87.625
X90.795Y-90.165
X92.71Y-18.415
X92.71Y-20.955
X92.71Y-33.655
X92.71Y-36.195
X95.25Y-18.415
X95.25Y-20.955
X95.25Y-33.655
X95.25Y-36.195
X97.145Y-47.625
X97.145Y-50.165
X97.145Y-52.705
X97.145Y-55.245
X97.145Y-57.785
X97.145Y-60.325
X97.145Y-62.865
X97.145Y-65.405
X97.145Y-67.945
X97.145Y-70.485
X97.155Y-88.265
X97.155Y-90.805
X97.155Y-93.345
X97.155Y-95.885
X97.155Y-98.425
X97.155Y-100.965
X97.155Y-103.505
X97.155Y-106.045
X97.155Y-108.585
X97.155Y-111.125
X97.79Y-18.415
X97.79Y-20.955
X97.79Y-33.655
X97.79Y-36.195
X100.33Y-18.415
X100.33Y-20.955
X100.33Y-23.495
X100.33Y-26.035
X100.33Y-28.575
X100.33Y-31.115
X100.33Y-33.655
X100.33Y-36.195
X102.87Y-20.955
X102.87Y-23.495
X102.87Y-26.035
X102.87Y-28.575
X102.87Y-31.115
X102.87Y-33.655
X104.765Y-47.625
X104.765Y-50.165
X104.765Y-52.705
X104.765Y-55.245
X104.765Y-57.785
X104.765Y-60.325
X104.765Y-62.865
X104.765Y-65.405
X104.765Y-67.945
X104.765Y-70.485
X104.775Y-88.265
X104.775Y-90.805
X104.775Y-93.345
X104.775Y-95.885
X104.775Y-98.425
X104.775Y-100.965
X104.775Y-103.505
X104.775Y-106.045
X104.775Y-108.585
X104.775Y-111.125
T4
X19.05Y-48.895
X21.59Y-48.895
T5
X24.15Y-27.647
X24.15Y-29.647
X26.65Y-27.647
X26.65Y-29.647
T6
X19.05Y-34.3
X19.05Y-36.84
X19.05Y-39.38
X19.05Y-41.92
X19.685Y-59.055
X19.685Y-61.595
X19.685Y-64.135
X19.685Y-66.675
X19.685Y-69.215
X19.685Y-71.755
X19.685Y-74.295
X19.685Y-76.835
X19.685Y-79.375
X19.685Y-81.915
X19.685Y-84.455
X19.685Y-86.995
X19.685Y-89.535
X19.685Y-92.075
X19.685Y-94.615
X19.685Y-97.155
X19.685Y-99.695
X19.685Y-102.235
X19.685Y-104.775
X19.685Y-107.315
X19.685Y-109.855
X19.685Y-112.395
X22.225Y-59.055
X22.225Y-61.595
X22.225Y-64.135
X22.225Y-66.675
X22.225Y-69.215
X22.225Y-71.755
X22.225Y-74.295
X22.225Y-76.835
X22.225Y-79.375
X22.225Y-81.915
X22.225Y-84.455
X22.225Y-86.995
X22.225Y-89.535
X22.225Y-92.075
X22.225Y-94.615
X22.225Y-97.155
X22.225Y-99.695
X22.225Y-102.235
X22.225Y-104.775
X22.225Y-107.315
X22.225Y-109.855
X22.225Y-112.395
X22.855Y-41.275
X24.765Y-59.055
X24.765Y-61.595
X24.765Y-64.135
X24.765Y-66.675
X24.765Y-69.215
X24.765Y-71.755
X24.765Y-74.295
X24.765Y-76.835
X24.765Y-79.375
X24.765Y-81.915
X24.765Y-84.455
X24.765Y-86.995
X24.765Y-89.535
X24.765Y-92.075
X24.765Y-94.615
X24.765Y-97.155
X24.765Y-99.695
X24.765Y-102.235
X24.765Y-104.775
X24.765Y-107.315
X24.765Y-109.855
X24.765Y-112.395
X25.395Y-41.275
X27.305Y-59.055
X27.305Y-61.595
X27.305Y-64.135
X27.305Y-66.675
X27.305Y-69.215
X27.305Y-71.755
X27.305Y-74.295
X27.305Y-76.835
X27.305Y-79.375
X27.305Y-81.915
X27.305Y-84.455
X27.305Y-86.995
X27.305Y-89.535
X27.305Y-92.075
X27.305Y-94.615
X27.305Y-97.155
X27.305Y-99.695
X27.305Y-102.235
X27.305Y-104.775
X27.305Y-107.315
X27.305Y-109.855
X27.305Y-112.395
X29.21Y-41.275
X29.845Y-59.055
X29.845Y-61.595
X29.845Y-64.135
X29.845Y-66.675
X29.845Y-69.215
X29.845Y-71.755
X29.845Y-74.295
X29.845Y-76.835
X29.845Y-79.375
X29.845Y-81.915
X29.845Y-84.455
X29.845Y-86.995
X29.845Y-89.535
X29.845Y-92.075
X29.845Y-94.615
X29.845Y-97.155
X29.845Y-99.695
X29.845Y-102.235
X29.845Y-104.775
X29.845Y-107.315
X29.845Y-109.855
X29.845Y-112.395
X31.75Y-41.275
X32.385Y-59.055
X32.385Y-61.595
X32.385Y-64.135
X32.385Y-66.675
X32.385Y-69.215
X32.385Y-71.755
X32.385Y-74.295
X32.385Y-76.835
X32.385Y-79.375
X32.385Y-81.915
X32.385Y-84.455
X32.385Y-86.995
X32.385Y-89.535
X32.385Y-92.075
X32.385Y-94.615
X32.385Y-97.155
X32.385Y-99.695
X32.385Y-102.235
X32.385Y-104.775
X32.385Y-107.315
X32.385Y-109.855
X32.385Y-112.395
X34.925Y-76.835
X34.925Y-79.375
X34.925Y-81.915
X34.925Y-84.455
X34.925Y-86.995
X34.925Y-89.535
X34.925Y-92.075
X34.925Y-94.615
X34.925Y-97.155
X34.925Y-99.695
X34.925Y-102.235
X34.925Y-104.775
X34.925Y-107.315
X34.925Y-109.855
X34.925Y-112.395
X37.465Y-81.915
X37.465Y-84.455
X37.465Y-86.995
X37.465Y-89.535
X37.465Y-92.075
X37.465Y-94.615
X37.465Y-97.155
X37.465Y-99.695
X37.465Y-102.235
X37.465Y-104.775
X37.465Y-107.315
X37.465Y-109.855
X37.465Y-112.395
X40.0Y-31.115
X40.005Y-84.455
X40.005Y-86.995
X40.005Y-89.535
X40.005Y-92.075
X40.005Y-94.615
X40.005Y-97.155
X40.005Y-99.695
X40.005Y-102.235
X40.005Y-104.775
X40.005Y-107.315
X40.005Y-109.855
X40.005Y-112.395
X42.54Y-31.115
X42.545Y-86.995
X42.545Y-89.535
X42.545Y-92.075
X42.545Y-94.615
X42.545Y-97.155
X42.545Y-99.695
X42.545Y-102.235
X42.545Y-104.775
X42.545Y-107.315
X42.545Y-109.855
X42.545Y-112.395
X45.085Y-89.535
X45.085Y-92.075
X45.085Y-94.615
X45.085Y-97.155
X45.085Y-99.695
X45.085Y-102.235
X45.085Y-104.775
X45.085Y-107.315
X45.085Y-109.855
X45.085Y-112.395
X47.625Y-92.075
X47.625Y-94.615
X47.625Y-97.155
X47.625Y-99.695
X47.625Y-102.235
X47.625Y-104.775
X47.625Y-107.315
X47.625Y-109.855
X47.625Y-112.395
X50.165Y-92.075
X50.165Y-94.615
X50.165Y-97.155
X50.165Y-99.695
X50.165Y-102.235
X50.165Y-104.775
X50.165Y-107.315
X50.165Y-109.855
X50.165Y-112.395
X52.705Y-92.075
X52.705Y-94.615
X52.705Y-97.155
X52.705Y-99.695
X52.705Y-102.235
X52.705Y-104.775
X52.705Y-107.315
X52.705Y-109.855
X52.705Y-112.395
X54.61Y-33.02
X55.245Y-94.615
X55.245Y-97.155
X55.245Y-99.695
X55.245Y-102.235
X55.245Y-104.775
X55.245Y-107.315
X55.245Y-109.855
X55.245Y-112.395
X57.15Y-33.02
X57.785Y-97.155
X57.785Y-99.695
X57.785Y-102.235
X57.785Y-104.775
X57.785Y-107.315
X57.785Y-109.855
X57.785Y-112.395
X60.325Y-99.695
X60.325Y-102.235
X60.325Y-104.775
X60.325Y-107.315
X60.325Y-109.855
X60.325Y-112.395
X62.865Y-102.235
X62.865Y-104.775
X62.865Y-107.315
X62.865Y-109.855
X62.865Y-112.395
X65.405Y-104.775
X65.405Y-107.315
X65.405Y-109.855
X65.405Y-112.395
X67.945Y-107.315
X67.945Y-109.855
X67.945Y-112.395
X68.58Y-16.51
X68.58Y-19.05
X69.23Y-102.88
X70.485Y-109.855
X70.485Y-112.395
X71.12Y-16.51
X71.12Y-19.05
X71.77Y-102.88
X73.025Y-112.395
X73.66Y-16.51
X73.66Y-19.05
X76.2Y-16.51
X76.2Y-19.05
X78.74Y-16.51
X78.74Y-19.05
X93.995Y-41.92
X96.535Y-41.92
X112.395Y-19.685
X112.395Y-22.225
X112.395Y-24.765
X112.395Y-27.305
X112.395Y-29.845
X112.395Y-32.385
X112.395Y-34.925
X112.395Y-37.465
X112.395Y-40.005
X112.395Y-42.545
X112.395Y-45.085
X112.395Y-47.625
X112.395Y-50.165
X112.395Y-52.705
X112.395Y-55.245
X112.395Y-57.785
X112.395Y-60.325
X112.395Y-62.865
X112.395Y-65.405
X112.395Y-67.945
X112.395Y-70.485
X112.395Y-73.025
X112.395Y-75.565
X112.395Y-78.105
X112.395Y-80.645
X112.395Y-83.185
X112.395Y-85.725
X112.395Y-88.265
X112.395Y-90.805
X112.395Y-93.345
X112.395Y-95.885
X112.395Y-98.425
X112.395Y-100.965
X112.395Y-103.505
X112.395Y-106.045
X112.395Y-108.585
X114.935Y-19.685
X114.935Y-22.225
X114.935Y-24.765
X114.935Y-27.305
X114.935Y-29.845
X114.935Y-32.385
X114.935Y-34.925
X114.935Y-37.465
X114.935Y-40.005
X114.935Y-42.545
X114.935Y-45.085
X114.935Y-47.625
X114.935Y-50.165
X114.935Y-52.705
X114.935Y-55.245
X114.935Y-57.785
X114.935Y-60.325
X114.935Y-62.865
X114.935Y-65.405
X114.935Y-67.945
X114.935Y-70.485
X114.935Y-73.025
X114.935Y-75.565
X114.935Y-78.105
X114.935Y-80.645
X114.935Y-83.185
X114.935Y-85.725
X114.935Y-88.265
X114.935Y-90.805
X114.935Y-93.345
X114.935Y-95.885
X114.935Y-98.425
X114.935Y-100.965
X114.935Y-103.505
X114.935Y-106.045
X114.935Y-108.585
T7
X19.4Y-24.787
X31.4Y-24.787
T0
M30
