G04 #@! TF.GenerationSoftware,KiCad,Pcbnew,(6.0.1)*
G04 #@! TF.CreationDate,2023-05-10T10:19:22+02:00*
G04 #@! TF.ProjectId,VT100_MCU,56543130-305f-44d4-9355-2e6b69636164,rev?*
G04 #@! TF.SameCoordinates,Original*
G04 #@! TF.FileFunction,Copper,L1,Top*
G04 #@! TF.FilePolarity,Positive*
%FSLAX46Y46*%
G04 Gerber Fmt 4.6, Leading zero omitted, Abs format (unit mm)*
G04 Created by KiCad (PCBNEW (6.0.1)) date 2023-05-10 10:19:22*
%MOMM*%
%LPD*%
G01*
G04 APERTURE LIST*
G04 #@! TA.AperFunction,ComponentPad*
%ADD10R,1.700000X1.700000*%
G04 #@! TD*
G04 #@! TA.AperFunction,ComponentPad*
%ADD11O,1.700000X1.700000*%
G04 #@! TD*
G04 #@! TA.AperFunction,ComponentPad*
%ADD12R,1.600000X1.600000*%
G04 #@! TD*
G04 #@! TA.AperFunction,ComponentPad*
%ADD13O,1.600000X1.600000*%
G04 #@! TD*
G04 #@! TA.AperFunction,ComponentPad*
%ADD14R,1.800000X1.800000*%
G04 #@! TD*
G04 #@! TA.AperFunction,ComponentPad*
%ADD15C,1.800000*%
G04 #@! TD*
G04 #@! TA.AperFunction,ComponentPad*
%ADD16C,1.600000*%
G04 #@! TD*
G04 #@! TA.AperFunction,ComponentPad*
%ADD17C,1.400000*%
G04 #@! TD*
G04 #@! TA.AperFunction,ComponentPad*
%ADD18O,1.400000X1.400000*%
G04 #@! TD*
G04 #@! TA.AperFunction,ComponentPad*
%ADD19C,1.500000*%
G04 #@! TD*
G04 #@! TA.AperFunction,ComponentPad*
%ADD20R,1.422400X1.422400*%
G04 #@! TD*
G04 #@! TA.AperFunction,ComponentPad*
%ADD21C,1.422400*%
G04 #@! TD*
G04 #@! TA.AperFunction,ComponentPad*
%ADD22C,4.000000*%
G04 #@! TD*
G04 #@! TA.AperFunction,ViaPad*
%ADD23C,0.800000*%
G04 #@! TD*
G04 #@! TA.AperFunction,Conductor*
%ADD24C,1.000000*%
G04 #@! TD*
G04 #@! TA.AperFunction,Conductor*
%ADD25C,0.250000*%
G04 #@! TD*
G04 APERTURE END LIST*
D10*
X45085000Y-89535000D03*
D11*
X45085000Y-92075000D03*
X45085000Y-94615000D03*
X45085000Y-97155000D03*
X45085000Y-99695000D03*
X45085000Y-102235000D03*
X45085000Y-104775000D03*
X45085000Y-107315000D03*
X45085000Y-109855000D03*
X45085000Y-112395000D03*
D10*
X73025000Y-112395000D03*
D12*
X66695000Y-37480000D03*
D13*
X66695000Y-40020000D03*
X66695000Y-42560000D03*
X66695000Y-45100000D03*
X66695000Y-47640000D03*
X66695000Y-50180000D03*
X66695000Y-52720000D03*
X66695000Y-55260000D03*
X66695000Y-57800000D03*
X66695000Y-60340000D03*
X74315000Y-60340000D03*
X74315000Y-57800000D03*
X74315000Y-55260000D03*
X74315000Y-52720000D03*
X74315000Y-50180000D03*
X74315000Y-47640000D03*
X74315000Y-45100000D03*
X74315000Y-42560000D03*
X74315000Y-40020000D03*
X74315000Y-37480000D03*
D10*
X31750000Y-41275000D03*
D11*
X29210000Y-41275000D03*
D14*
X19050000Y-48895000D03*
D15*
X21590000Y-48895000D03*
D10*
X19685000Y-59055000D03*
D11*
X19685000Y-61595000D03*
X19685000Y-64135000D03*
X19685000Y-66675000D03*
X19685000Y-69215000D03*
X19685000Y-71755000D03*
X19685000Y-74295000D03*
X19685000Y-76835000D03*
X19685000Y-79375000D03*
X19685000Y-81915000D03*
X19685000Y-84455000D03*
X19685000Y-86995000D03*
X19685000Y-89535000D03*
X19685000Y-92075000D03*
X19685000Y-94615000D03*
X19685000Y-97155000D03*
X19685000Y-99695000D03*
X19685000Y-102235000D03*
X19685000Y-104775000D03*
X19685000Y-107315000D03*
X19685000Y-109855000D03*
X19685000Y-112395000D03*
D12*
X46990000Y-25400000D03*
D16*
X62230000Y-25400000D03*
X62230000Y-17780000D03*
X46990000Y-17780000D03*
D10*
X32385000Y-59055000D03*
D11*
X32385000Y-61595000D03*
X32385000Y-64135000D03*
X32385000Y-66675000D03*
X32385000Y-69215000D03*
X32385000Y-71755000D03*
X32385000Y-74295000D03*
X32385000Y-76835000D03*
X32385000Y-79375000D03*
X32385000Y-81915000D03*
X32385000Y-84455000D03*
X32385000Y-86995000D03*
X32385000Y-89535000D03*
X32385000Y-92075000D03*
X32385000Y-94615000D03*
X32385000Y-97155000D03*
X32385000Y-99695000D03*
X32385000Y-102235000D03*
X32385000Y-104775000D03*
X32385000Y-107315000D03*
X32385000Y-109855000D03*
X32385000Y-112395000D03*
D10*
X40000000Y-31115000D03*
D11*
X42540000Y-31115000D03*
D10*
X47625000Y-92075000D03*
D11*
X47625000Y-94615000D03*
X47625000Y-97155000D03*
X47625000Y-99695000D03*
X47625000Y-102235000D03*
X47625000Y-104775000D03*
X47625000Y-107315000D03*
X47625000Y-109855000D03*
X47625000Y-112395000D03*
D10*
X24765000Y-59055000D03*
D11*
X24765000Y-61595000D03*
X24765000Y-64135000D03*
X24765000Y-66675000D03*
X24765000Y-69215000D03*
X24765000Y-71755000D03*
X24765000Y-74295000D03*
X24765000Y-76835000D03*
X24765000Y-79375000D03*
X24765000Y-81915000D03*
X24765000Y-84455000D03*
X24765000Y-86995000D03*
X24765000Y-89535000D03*
X24765000Y-92075000D03*
X24765000Y-94615000D03*
X24765000Y-97155000D03*
X24765000Y-99695000D03*
X24765000Y-102235000D03*
X24765000Y-104775000D03*
X24765000Y-107315000D03*
X24765000Y-109855000D03*
X24765000Y-112395000D03*
D17*
X42545000Y-25734900D03*
D18*
X42545000Y-23834900D03*
D12*
X35580000Y-34940000D03*
D13*
X35580000Y-37480000D03*
X35580000Y-40020000D03*
X35580000Y-42560000D03*
X35580000Y-45100000D03*
X35580000Y-47640000D03*
X35580000Y-50180000D03*
X35580000Y-52720000D03*
X35580000Y-55260000D03*
X35580000Y-57800000D03*
X43200000Y-57800000D03*
X43200000Y-55260000D03*
X43200000Y-52720000D03*
X43200000Y-50180000D03*
X43200000Y-47640000D03*
X43200000Y-45100000D03*
X43200000Y-42560000D03*
X43200000Y-40020000D03*
X43200000Y-37480000D03*
X43200000Y-34940000D03*
D12*
X37465000Y-26035000D03*
D16*
X37465000Y-23535000D03*
D17*
X19415000Y-54610000D03*
D18*
X21315000Y-54610000D03*
D10*
X71770000Y-102880000D03*
D11*
X69230000Y-102880000D03*
D10*
X22225000Y-59055000D03*
D11*
X22225000Y-61595000D03*
X22225000Y-64135000D03*
X22225000Y-66675000D03*
X22225000Y-69215000D03*
X22225000Y-71755000D03*
X22225000Y-74295000D03*
X22225000Y-76835000D03*
X22225000Y-79375000D03*
X22225000Y-81915000D03*
X22225000Y-84455000D03*
X22225000Y-86995000D03*
X22225000Y-89535000D03*
X22225000Y-92075000D03*
X22225000Y-94615000D03*
X22225000Y-97155000D03*
X22225000Y-99695000D03*
X22225000Y-102235000D03*
X22225000Y-104775000D03*
X22225000Y-107315000D03*
X22225000Y-109855000D03*
X22225000Y-112395000D03*
D12*
X48270000Y-37475000D03*
D13*
X48270000Y-40015000D03*
X48270000Y-42555000D03*
X48270000Y-45095000D03*
X48270000Y-47635000D03*
X48270000Y-50175000D03*
X48270000Y-52715000D03*
X48270000Y-55255000D03*
X48270000Y-57795000D03*
X48270000Y-60335000D03*
X48270000Y-62875000D03*
X48270000Y-65415000D03*
X48270000Y-67955000D03*
X48270000Y-70495000D03*
X48270000Y-73035000D03*
X48270000Y-75575000D03*
X48270000Y-78115000D03*
X48270000Y-80655000D03*
X48270000Y-83195000D03*
X48270000Y-85735000D03*
X63510000Y-85735000D03*
X63510000Y-83195000D03*
X63510000Y-80655000D03*
X63510000Y-78115000D03*
X63510000Y-75575000D03*
X63510000Y-73035000D03*
X63510000Y-70495000D03*
X63510000Y-67955000D03*
X63510000Y-65415000D03*
X63510000Y-62875000D03*
X63510000Y-60335000D03*
X63510000Y-57795000D03*
X63510000Y-55255000D03*
X63510000Y-52715000D03*
X63510000Y-50175000D03*
X63510000Y-47635000D03*
X63510000Y-45095000D03*
X63510000Y-42555000D03*
X63510000Y-40015000D03*
X63510000Y-37475000D03*
D10*
X67945000Y-107315000D03*
D11*
X67945000Y-109855000D03*
X67945000Y-112395000D03*
D10*
X29845000Y-59055000D03*
D11*
X29845000Y-61595000D03*
X29845000Y-64135000D03*
X29845000Y-66675000D03*
X29845000Y-69215000D03*
X29845000Y-71755000D03*
X29845000Y-74295000D03*
X29845000Y-76835000D03*
X29845000Y-79375000D03*
X29845000Y-81915000D03*
X29845000Y-84455000D03*
X29845000Y-86995000D03*
X29845000Y-89535000D03*
X29845000Y-92075000D03*
X29845000Y-94615000D03*
X29845000Y-97155000D03*
X29845000Y-99695000D03*
X29845000Y-102235000D03*
X29845000Y-104775000D03*
X29845000Y-107315000D03*
X29845000Y-109855000D03*
X29845000Y-112395000D03*
D10*
X27305000Y-59055000D03*
D11*
X27305000Y-61595000D03*
X27305000Y-64135000D03*
X27305000Y-66675000D03*
X27305000Y-69215000D03*
X27305000Y-71755000D03*
X27305000Y-74295000D03*
X27305000Y-76835000D03*
X27305000Y-79375000D03*
X27305000Y-81915000D03*
X27305000Y-84455000D03*
X27305000Y-86995000D03*
X27305000Y-89535000D03*
X27305000Y-92075000D03*
X27305000Y-94615000D03*
X27305000Y-97155000D03*
X27305000Y-99695000D03*
X27305000Y-102235000D03*
X27305000Y-104775000D03*
X27305000Y-107315000D03*
X27305000Y-109855000D03*
X27305000Y-112395000D03*
D10*
X78740000Y-16510000D03*
D11*
X78740000Y-19050000D03*
X76200000Y-16510000D03*
X76200000Y-19050000D03*
X73660000Y-16510000D03*
X73660000Y-19050000D03*
X71120000Y-16510000D03*
X71120000Y-19050000D03*
X68580000Y-16510000D03*
X68580000Y-19050000D03*
D19*
X29840000Y-35560000D03*
X24940000Y-35560000D03*
D10*
X62865000Y-102235000D03*
D11*
X62865000Y-104775000D03*
X62865000Y-107315000D03*
X62865000Y-109855000D03*
X62865000Y-112395000D03*
D10*
X65405000Y-104775000D03*
D11*
X65405000Y-107315000D03*
X65405000Y-109855000D03*
X65405000Y-112395000D03*
D10*
X50165000Y-92075000D03*
D11*
X50165000Y-94615000D03*
X50165000Y-97155000D03*
X50165000Y-99695000D03*
X50165000Y-102235000D03*
X50165000Y-104775000D03*
X50165000Y-107315000D03*
X50165000Y-109855000D03*
X50165000Y-112395000D03*
D10*
X96535000Y-41920000D03*
D11*
X93995000Y-41920000D03*
D10*
X70485000Y-109855000D03*
D11*
X70485000Y-112395000D03*
D10*
X54610000Y-33020000D03*
D11*
X57150000Y-33020000D03*
D12*
X90795000Y-90165000D03*
D13*
X90795000Y-87625000D03*
X90795000Y-85085000D03*
X90795000Y-82545000D03*
X90795000Y-80005000D03*
X90795000Y-77465000D03*
X90795000Y-74925000D03*
X90795000Y-72385000D03*
X90795000Y-69845000D03*
X90795000Y-67305000D03*
X83175000Y-67305000D03*
X83175000Y-69845000D03*
X83175000Y-72385000D03*
X83175000Y-74925000D03*
X83175000Y-77465000D03*
X83175000Y-80005000D03*
X83175000Y-82545000D03*
X83175000Y-85085000D03*
X83175000Y-87625000D03*
X83175000Y-90165000D03*
D10*
X60325000Y-99695000D03*
D11*
X60325000Y-102235000D03*
X60325000Y-104775000D03*
X60325000Y-107315000D03*
X60325000Y-109855000D03*
X60325000Y-112395000D03*
D10*
X57785000Y-97155000D03*
D11*
X57785000Y-99695000D03*
X57785000Y-102235000D03*
X57785000Y-104775000D03*
X57785000Y-107315000D03*
X57785000Y-109855000D03*
X57785000Y-112395000D03*
D20*
X92710000Y-33655000D03*
D21*
X95250000Y-36195000D03*
X95250000Y-33655000D03*
X97790000Y-36195000D03*
X97790000Y-33655000D03*
X100330000Y-36195000D03*
X102870000Y-33655000D03*
X100330000Y-33655000D03*
X102870000Y-31115000D03*
X100330000Y-31115000D03*
X102870000Y-28575000D03*
X100330000Y-28575000D03*
X102870000Y-26035000D03*
X100330000Y-26035000D03*
X102870000Y-23495000D03*
X100330000Y-23495000D03*
X102870000Y-20955000D03*
X100330000Y-18415000D03*
X100330000Y-20955000D03*
X97790000Y-18415000D03*
X97790000Y-20955000D03*
X95250000Y-18415000D03*
X95250000Y-20955000D03*
X92710000Y-18415000D03*
X92710000Y-20955000D03*
X90170000Y-18415000D03*
X90170000Y-20955000D03*
X87630000Y-18415000D03*
X85090000Y-20955000D03*
X87630000Y-20955000D03*
X85090000Y-23495000D03*
X87630000Y-23495000D03*
X85090000Y-26035000D03*
X87630000Y-26035000D03*
X85090000Y-28575000D03*
X87630000Y-28575000D03*
X85090000Y-31115000D03*
X87630000Y-31115000D03*
X85090000Y-33655000D03*
X87630000Y-36195000D03*
X87630000Y-33655000D03*
X90170000Y-36195000D03*
X90170000Y-33655000D03*
X92710000Y-36195000D03*
D10*
X42545000Y-86995000D03*
D11*
X42545000Y-89535000D03*
X42545000Y-92075000D03*
X42545000Y-94615000D03*
X42545000Y-97155000D03*
X42545000Y-99695000D03*
X42545000Y-102235000D03*
X42545000Y-104775000D03*
X42545000Y-107315000D03*
X42545000Y-109855000D03*
X42545000Y-112395000D03*
D12*
X97155000Y-88265000D03*
D13*
X97155000Y-90805000D03*
X97155000Y-93345000D03*
X97155000Y-95885000D03*
X97155000Y-98425000D03*
X97155000Y-100965000D03*
X97155000Y-103505000D03*
X97155000Y-106045000D03*
X97155000Y-108585000D03*
X97155000Y-111125000D03*
X104775000Y-111125000D03*
X104775000Y-108585000D03*
X104775000Y-106045000D03*
X104775000Y-103505000D03*
X104775000Y-100965000D03*
X104775000Y-98425000D03*
X104775000Y-95885000D03*
X104775000Y-93345000D03*
X104775000Y-90805000D03*
X104775000Y-88265000D03*
D10*
X40005000Y-84455000D03*
D11*
X40005000Y-86995000D03*
X40005000Y-89535000D03*
X40005000Y-92075000D03*
X40005000Y-94615000D03*
X40005000Y-97155000D03*
X40005000Y-99695000D03*
X40005000Y-102235000D03*
X40005000Y-104775000D03*
X40005000Y-107315000D03*
X40005000Y-109855000D03*
X40005000Y-112395000D03*
D12*
X66685000Y-65415000D03*
D13*
X66685000Y-67955000D03*
X66685000Y-70495000D03*
X66685000Y-73035000D03*
X66685000Y-75575000D03*
X66685000Y-78115000D03*
X66685000Y-80655000D03*
X66685000Y-83195000D03*
X66685000Y-85735000D03*
X66685000Y-88275000D03*
X66685000Y-90815000D03*
X66685000Y-93355000D03*
X66685000Y-95895000D03*
X66685000Y-98435000D03*
X74305000Y-98435000D03*
X74305000Y-95895000D03*
X74305000Y-93355000D03*
X74305000Y-90815000D03*
X74305000Y-88275000D03*
X74305000Y-85735000D03*
X74305000Y-83195000D03*
X74305000Y-80655000D03*
X74305000Y-78115000D03*
X74305000Y-75575000D03*
X74305000Y-73035000D03*
X74305000Y-70495000D03*
X74305000Y-67955000D03*
X74305000Y-65415000D03*
D16*
X36235000Y-17780000D03*
X41235000Y-17780000D03*
D12*
X104765000Y-70485000D03*
D13*
X104765000Y-67945000D03*
X104765000Y-65405000D03*
X104765000Y-62865000D03*
X104765000Y-60325000D03*
X104765000Y-57785000D03*
X104765000Y-55245000D03*
X104765000Y-52705000D03*
X104765000Y-50165000D03*
X104765000Y-47625000D03*
X97145000Y-47625000D03*
X97145000Y-50165000D03*
X97145000Y-52705000D03*
X97145000Y-55245000D03*
X97145000Y-57785000D03*
X97145000Y-60325000D03*
X97145000Y-62865000D03*
X97145000Y-65405000D03*
X97145000Y-67945000D03*
X97145000Y-70485000D03*
D10*
X19050000Y-34300000D03*
D11*
X19050000Y-36840000D03*
X19050000Y-39380000D03*
X19050000Y-41920000D03*
D10*
X55245000Y-94615000D03*
D11*
X55245000Y-97155000D03*
X55245000Y-99695000D03*
X55245000Y-102235000D03*
X55245000Y-104775000D03*
X55245000Y-107315000D03*
X55245000Y-109855000D03*
X55245000Y-112395000D03*
D10*
X22855000Y-41275000D03*
D11*
X25395000Y-41275000D03*
D10*
X52705000Y-92075000D03*
D11*
X52705000Y-94615000D03*
X52705000Y-97155000D03*
X52705000Y-99695000D03*
X52705000Y-102235000D03*
X52705000Y-104775000D03*
X52705000Y-107315000D03*
X52705000Y-109855000D03*
X52705000Y-112395000D03*
D10*
X112395000Y-108585000D03*
D11*
X114935000Y-108585000D03*
X112395000Y-106045000D03*
X114935000Y-106045000D03*
X112395000Y-103505000D03*
X114935000Y-103505000D03*
X112395000Y-100965000D03*
X114935000Y-100965000D03*
X112395000Y-98425000D03*
X114935000Y-98425000D03*
X112395000Y-95885000D03*
X114935000Y-95885000D03*
X112395000Y-93345000D03*
X114935000Y-93345000D03*
X112395000Y-90805000D03*
X114935000Y-90805000D03*
X112395000Y-88265000D03*
X114935000Y-88265000D03*
X112395000Y-85725000D03*
X114935000Y-85725000D03*
X112395000Y-83185000D03*
X114935000Y-83185000D03*
X112395000Y-80645000D03*
X114935000Y-80645000D03*
X112395000Y-78105000D03*
X114935000Y-78105000D03*
X112395000Y-75565000D03*
X114935000Y-75565000D03*
X112395000Y-73025000D03*
X114935000Y-73025000D03*
X112395000Y-70485000D03*
X114935000Y-70485000D03*
X112395000Y-67945000D03*
X114935000Y-67945000D03*
X112395000Y-65405000D03*
X114935000Y-65405000D03*
X112395000Y-62865000D03*
X114935000Y-62865000D03*
X112395000Y-60325000D03*
X114935000Y-60325000D03*
X112395000Y-57785000D03*
X114935000Y-57785000D03*
X112395000Y-55245000D03*
X114935000Y-55245000D03*
X112395000Y-52705000D03*
X114935000Y-52705000D03*
X112395000Y-50165000D03*
X114935000Y-50165000D03*
X112395000Y-47625000D03*
X114935000Y-47625000D03*
X112395000Y-45085000D03*
X114935000Y-45085000D03*
X112395000Y-42545000D03*
X114935000Y-42545000D03*
X112395000Y-40005000D03*
X114935000Y-40005000D03*
X112395000Y-37465000D03*
X114935000Y-37465000D03*
X112395000Y-34925000D03*
X114935000Y-34925000D03*
X112395000Y-32385000D03*
X114935000Y-32385000D03*
X112395000Y-29845000D03*
X114935000Y-29845000D03*
X112395000Y-27305000D03*
X114935000Y-27305000D03*
X112395000Y-24765000D03*
X114935000Y-24765000D03*
X112395000Y-22225000D03*
X114935000Y-22225000D03*
X112395000Y-19685000D03*
X114935000Y-19685000D03*
D10*
X34925000Y-76835000D03*
D11*
X34925000Y-79375000D03*
X34925000Y-81915000D03*
X34925000Y-84455000D03*
X34925000Y-86995000D03*
X34925000Y-89535000D03*
X34925000Y-92075000D03*
X34925000Y-94615000D03*
X34925000Y-97155000D03*
X34925000Y-99695000D03*
X34925000Y-102235000D03*
X34925000Y-104775000D03*
X34925000Y-107315000D03*
X34925000Y-109855000D03*
X34925000Y-112395000D03*
D10*
X37465000Y-81915000D03*
D11*
X37465000Y-84455000D03*
X37465000Y-86995000D03*
X37465000Y-89535000D03*
X37465000Y-92075000D03*
X37465000Y-94615000D03*
X37465000Y-97155000D03*
X37465000Y-99695000D03*
X37465000Y-102235000D03*
X37465000Y-104775000D03*
X37465000Y-107315000D03*
X37465000Y-109855000D03*
X37465000Y-112395000D03*
D12*
X24150000Y-29647500D03*
D16*
X26650000Y-29647500D03*
X26650000Y-27647500D03*
X24150000Y-27647500D03*
D22*
X19400000Y-24787500D03*
X31400000Y-24787500D03*
D23*
X91440000Y-19050000D03*
X78722700Y-31871300D03*
X64280100Y-32159900D03*
X57080900Y-75575000D03*
X78722700Y-67477800D03*
X65675500Y-29611600D03*
X51297200Y-76315400D03*
X84673100Y-65431200D03*
X92347600Y-70531600D03*
X73287200Y-66829800D03*
X101095000Y-87139800D03*
X99366700Y-65976500D03*
X80406700Y-89935100D03*
X79668900Y-89187400D03*
X94583200Y-85335800D03*
X92921300Y-88242500D03*
X108868000Y-85335800D03*
X87079000Y-66165400D03*
X90495800Y-61490200D03*
X70857500Y-61534200D03*
X98866600Y-63926100D03*
X72540100Y-68965500D03*
X71354900Y-60592600D03*
X62208800Y-81880900D03*
X72069000Y-36773900D03*
X64351000Y-79502700D03*
X61084900Y-86190100D03*
X58782700Y-47635000D03*
X83938900Y-60809100D03*
X80567800Y-43108100D03*
X79451200Y-40020000D03*
X76286300Y-88242300D03*
X82187200Y-52801000D03*
X109668000Y-45612900D03*
X88914900Y-72944400D03*
X92218200Y-72393600D03*
X102720000Y-60325000D03*
X102720000Y-62230800D03*
X82346100Y-19468600D03*
X41703000Y-77507200D03*
X68396600Y-94610900D03*
X77529600Y-90848500D03*
X40632200Y-55378400D03*
X90115100Y-52713700D03*
X89092400Y-49048500D03*
X83246200Y-46467600D03*
X98490300Y-45585400D03*
X87942100Y-41210600D03*
X96149500Y-32530700D03*
X55694400Y-61531000D03*
X64275200Y-30061700D03*
X95205600Y-38170700D03*
X105097000Y-15598300D03*
X105097000Y-19938300D03*
X107910000Y-20293200D03*
X107910000Y-16045800D03*
X99389300Y-19982900D03*
X88676600Y-40365800D03*
X106084000Y-59651300D03*
X92075200Y-31115000D03*
X82266100Y-41935700D03*
X103207000Y-46006200D03*
X111208000Y-48891300D03*
X99527800Y-42047100D03*
X81136900Y-31115000D03*
X94450400Y-48808300D03*
X80208900Y-28575000D03*
X82253400Y-43095400D03*
X100239000Y-45481100D03*
X105482000Y-53975000D03*
X89072600Y-21720000D03*
X93072000Y-25029200D03*
X105106000Y-33437200D03*
X106118000Y-26406400D03*
X94333100Y-25768100D03*
D24*
X56020100Y-31115000D02*
X57150000Y-32244900D01*
X90795000Y-67305000D02*
X89294900Y-67305000D01*
X69791800Y-100042000D02*
X84571600Y-100042000D01*
X29776900Y-22020600D02*
X24150000Y-27647500D01*
X84735100Y-23495000D02*
X85090000Y-23495000D01*
X78740000Y-19050000D02*
X79515100Y-19050000D01*
X22510100Y-36840000D02*
X19050000Y-36840000D01*
X114935000Y-18134900D02*
X114935000Y-19685000D01*
X60428600Y-32244900D02*
X65194900Y-37011200D01*
X85278700Y-62809400D02*
X70554500Y-62809400D01*
X102620000Y-17002100D02*
X102766000Y-17148500D01*
X80290100Y-19050000D02*
X84735100Y-23495000D01*
X39330600Y-22020600D02*
X29776900Y-22020600D01*
X84571600Y-100042000D02*
X95654900Y-111125000D01*
D25*
X91440000Y-17145000D02*
X91582900Y-17002100D01*
D24*
X89294900Y-67305000D02*
X89294900Y-66825600D01*
X70554500Y-62809400D02*
X68195100Y-60450000D01*
X52484900Y-85735000D02*
X48270000Y-85735000D01*
X42540000Y-31115000D02*
X56020100Y-31115000D01*
X65194900Y-37011200D02*
X65194900Y-37480000D01*
X77958900Y-20606200D02*
X70136200Y-20606200D01*
X80290100Y-19050000D02*
X82338000Y-17002100D01*
X79515100Y-19050000D02*
X77958900Y-20606200D01*
X66685000Y-98435000D02*
X68185100Y-98435000D01*
X70136200Y-20606200D02*
X68580000Y-19050000D01*
X68195100Y-60340000D02*
X66695000Y-60340000D01*
X65184900Y-98435000D02*
X52484900Y-85735000D01*
X82338000Y-17002100D02*
X91582900Y-17002100D01*
X57150000Y-32244900D02*
X60428600Y-32244900D01*
X42545000Y-23834900D02*
X41144900Y-23834900D01*
X66685000Y-98435000D02*
X65184900Y-98435000D01*
X91582900Y-17002100D02*
X102620000Y-17002100D01*
X29210000Y-41275000D02*
X25395000Y-41275000D01*
X41144900Y-23834900D02*
X39330600Y-22020600D01*
X25395000Y-41275000D02*
X25395000Y-39724900D01*
D25*
X91440000Y-19050000D02*
X91440000Y-17145000D01*
D24*
X65194900Y-37480000D02*
X66695000Y-37480000D01*
X68185100Y-98435000D02*
X69791800Y-100042000D01*
X68195100Y-60450000D02*
X68195100Y-60340000D01*
X89294900Y-66825600D02*
X85278700Y-62809400D01*
X25395000Y-39724900D02*
X22510100Y-36840000D01*
X95654900Y-111125000D02*
X97155000Y-111125000D01*
X79515100Y-19050000D02*
X80290100Y-19050000D01*
X57150000Y-33020000D02*
X57150000Y-32244900D01*
X102766000Y-17148500D02*
X113949000Y-17148500D01*
X113949000Y-17148500D02*
X114935000Y-18134900D01*
X69621300Y-65415000D02*
X74305000Y-65415000D01*
X43200000Y-34940000D02*
X44700100Y-34940000D01*
X83074800Y-112635000D02*
X73320100Y-102880000D01*
X63510000Y-37475000D02*
X59065000Y-37475000D01*
X89132300Y-39265700D02*
X88655000Y-39265700D01*
X85337200Y-35947800D02*
X83805000Y-37480000D01*
X40000000Y-32665100D02*
X40000000Y-31713200D01*
X95250000Y-23495000D02*
X97790000Y-20955000D01*
X103272000Y-112635000D02*
X103272000Y-89767800D01*
X65010100Y-60335000D02*
X65010100Y-60803800D01*
X114935000Y-108585000D02*
X114935000Y-110135000D01*
X41699900Y-34940000D02*
X41699900Y-34365000D01*
X46990000Y-17780000D02*
X41235000Y-17780000D01*
X93351100Y-43484500D02*
X89132300Y-39265700D01*
X73320100Y-102880000D02*
X71770000Y-102880000D01*
X94970500Y-43484500D02*
X93351100Y-43484500D01*
X87630000Y-33655000D02*
X85337200Y-35947800D01*
X41699900Y-34365000D02*
X40000000Y-32665100D01*
X103272000Y-89767800D02*
X104775000Y-88265000D01*
X114935000Y-110135000D02*
X112435000Y-112635000D01*
X112435000Y-112635000D02*
X103272000Y-112635000D01*
X23752500Y-31147600D02*
X24150000Y-31147600D01*
X43200000Y-34940000D02*
X41699900Y-34940000D01*
X19050000Y-34300000D02*
X20600100Y-34300000D01*
X24715600Y-31713200D02*
X24150000Y-31147600D01*
X63510000Y-60335000D02*
X65010100Y-60335000D01*
X83805000Y-37480000D02*
X74315000Y-37480000D01*
X103272000Y-112635000D02*
X83074800Y-112635000D01*
X59065000Y-37475000D02*
X54610000Y-33020000D01*
X44700100Y-34940000D02*
X46620100Y-33020000D01*
X96535000Y-41920000D02*
X94970500Y-43484500D01*
X40000000Y-31115000D02*
X40000000Y-31713200D01*
X87630000Y-23495000D02*
X95250000Y-23495000D01*
X88655000Y-39265700D02*
X85337200Y-35947800D01*
X20600100Y-34300000D02*
X23752500Y-31147600D01*
X24150000Y-29647500D02*
X24150000Y-31147600D01*
X65010100Y-60803800D02*
X69621300Y-65415000D01*
X40000000Y-31713200D02*
X24715600Y-31713200D01*
X46620100Y-33020000D02*
X54610000Y-33020000D01*
D25*
X42545000Y-25734900D02*
X39664900Y-25734900D01*
X39664900Y-25734900D02*
X37465000Y-23535000D01*
X19899200Y-40555100D02*
X19050000Y-40555100D01*
X47144900Y-60053700D02*
X43621200Y-56530000D01*
X42809300Y-56530000D02*
X37729300Y-51450000D01*
X48270000Y-60335000D02*
X47144900Y-60335000D01*
X30794100Y-51450000D02*
X19899200Y-40555100D01*
X19050000Y-40555100D02*
X19050000Y-39380000D01*
X43621200Y-56530000D02*
X42809300Y-56530000D01*
X47144900Y-60335000D02*
X47144900Y-60053700D01*
X37729300Y-51450000D02*
X30794100Y-51450000D01*
X19050000Y-41920000D02*
X20225100Y-41920000D01*
X20225100Y-41920000D02*
X34979900Y-56674800D01*
X34979900Y-56674800D02*
X37721200Y-56674800D01*
X43921400Y-62875000D02*
X48270000Y-62875000D01*
X37721200Y-56674800D02*
X43921400Y-62875000D01*
X47144900Y-37475000D02*
X47139900Y-37480000D01*
X47139900Y-37480000D02*
X43200000Y-37480000D01*
X48270000Y-37475000D02*
X47144900Y-37475000D01*
X47144900Y-40015000D02*
X47139900Y-40020000D01*
X48270000Y-40015000D02*
X47144900Y-40015000D01*
X47139900Y-40020000D02*
X43200000Y-40020000D01*
X47144900Y-42555000D02*
X47139900Y-42560000D01*
X48270000Y-42555000D02*
X47144900Y-42555000D01*
X47139900Y-42560000D02*
X43200000Y-42560000D01*
X47139900Y-45100000D02*
X43200000Y-45100000D01*
X47144900Y-45095000D02*
X47139900Y-45100000D01*
X48270000Y-45095000D02*
X47144900Y-45095000D01*
X47139900Y-47640000D02*
X43200000Y-47640000D01*
X47144900Y-47635000D02*
X47139900Y-47640000D01*
X48270000Y-47635000D02*
X47144900Y-47635000D01*
X48270000Y-50175000D02*
X47144900Y-50175000D01*
X47139900Y-50180000D02*
X43200000Y-50180000D01*
X47144900Y-50175000D02*
X47139900Y-50180000D01*
X47144900Y-52715000D02*
X47139900Y-52720000D01*
X48270000Y-52715000D02*
X47144900Y-52715000D01*
X47139900Y-52720000D02*
X43200000Y-52720000D01*
X48270000Y-55255000D02*
X47144900Y-55255000D01*
X47144900Y-55255000D02*
X47139900Y-55260000D01*
X47139900Y-55260000D02*
X43200000Y-55260000D01*
X63061300Y-54108100D02*
X91019700Y-54108100D01*
X97943500Y-51435000D02*
X99213500Y-50165000D01*
X48885300Y-69369900D02*
X60179600Y-58075600D01*
X99213500Y-50165000D02*
X104765000Y-50165000D01*
X48270000Y-70495000D02*
X48270000Y-69369900D01*
X60179600Y-58075600D02*
X60179600Y-56989800D01*
X48270000Y-69369900D02*
X48885300Y-69369900D01*
X60179600Y-56989800D02*
X63061300Y-54108100D01*
X91019700Y-54108100D02*
X93692800Y-51435000D01*
X93692800Y-51435000D02*
X97943500Y-51435000D01*
X93841600Y-32159900D02*
X78722700Y-32159900D01*
X75430100Y-67955000D02*
X75907300Y-67477800D01*
X78722700Y-32159900D02*
X64280100Y-32159900D01*
X75907300Y-67477800D02*
X78722700Y-67477800D01*
X78722700Y-32159900D02*
X78722700Y-31871300D01*
X95250000Y-33655000D02*
X95250000Y-33568300D01*
X74305000Y-67955000D02*
X75430100Y-67955000D01*
X48270000Y-75575000D02*
X57080900Y-75575000D01*
X95250000Y-33568300D02*
X93841600Y-32159900D01*
X96744000Y-36617100D02*
X96744000Y-32961800D01*
X96903400Y-32802400D02*
X96903400Y-32259100D01*
X94255900Y-29611600D02*
X65675500Y-29611600D01*
X104549000Y-44422200D02*
X96744000Y-36617100D01*
X110557000Y-44422200D02*
X104549000Y-44422200D01*
X96744000Y-32961800D02*
X96903400Y-32802400D01*
X51194700Y-76315400D02*
X51297200Y-76315400D01*
X111220000Y-45085000D02*
X110557000Y-44422200D01*
X96903400Y-32259100D02*
X94255900Y-29611600D01*
X49395100Y-78115000D02*
X51194700Y-76315400D01*
X48270000Y-78115000D02*
X49395100Y-78115000D01*
X112395000Y-45085000D02*
X111220000Y-45085000D01*
X98906800Y-67945000D02*
X104765000Y-67945000D01*
X92347600Y-70531600D02*
X96115000Y-66764200D01*
X96115000Y-66764200D02*
X97726000Y-66764200D01*
X97726000Y-66764200D02*
X98906800Y-67945000D01*
X76547500Y-66829800D02*
X73287200Y-66829800D01*
X84673100Y-65431200D02*
X77946100Y-65431200D01*
X77946100Y-65431200D02*
X76547500Y-66829800D01*
X80685900Y-89935100D02*
X80406700Y-89935100D01*
X99366700Y-65976500D02*
X99938200Y-65405000D01*
X92066600Y-91293700D02*
X87504300Y-91293700D01*
X96220500Y-87139800D02*
X92066600Y-91293700D01*
X82494700Y-91743900D02*
X80685900Y-89935100D01*
X101095000Y-87139800D02*
X96220500Y-87139800D01*
X99938200Y-65405000D02*
X104765000Y-65405000D01*
X87504300Y-91293700D02*
X87054100Y-91743900D01*
X87054100Y-91743900D02*
X82494700Y-91743900D01*
X86871100Y-91290200D02*
X82677700Y-91290200D01*
X92124000Y-89039800D02*
X89121500Y-89039800D01*
X73179900Y-83195000D02*
X74305000Y-83195000D01*
X63510000Y-80655000D02*
X64635100Y-80655000D01*
X89121500Y-89039800D02*
X86871100Y-91290200D01*
X80783900Y-89187400D02*
X79668900Y-89187400D01*
X81583300Y-89986800D02*
X80783900Y-89187400D01*
X94583200Y-85335800D02*
X108868000Y-85335800D01*
X92921300Y-88242500D02*
X92124000Y-89039800D01*
X81583300Y-90195800D02*
X81583300Y-89986800D01*
X65760200Y-81780100D02*
X71765000Y-81780100D01*
X71765000Y-81780100D02*
X73179900Y-83195000D01*
X82677700Y-91290200D02*
X81583300Y-90195800D01*
X64635100Y-80655000D02*
X65760200Y-81780100D01*
X73167900Y-69363200D02*
X78357700Y-69363200D01*
X68446800Y-78115000D02*
X74305000Y-78115000D01*
X65559400Y-76952600D02*
X67284400Y-76952600D01*
X66397100Y-71684900D02*
X67585000Y-71684900D01*
X90495800Y-61490200D02*
X102585000Y-61490200D01*
X65559400Y-76952600D02*
X65559400Y-72522600D01*
X78357700Y-69363200D02*
X81555500Y-66165400D01*
X72840500Y-69690600D02*
X73167900Y-69363200D01*
X67284400Y-76952600D02*
X68446800Y-78115000D01*
X64635100Y-77876900D02*
X65559400Y-76952600D01*
X67585000Y-71684900D02*
X69579300Y-69690600D01*
X103640000Y-60325000D02*
X104765000Y-60325000D01*
X69579300Y-69690600D02*
X72840500Y-69690600D01*
X63510000Y-78115000D02*
X64635100Y-78115000D01*
X81555500Y-66165400D02*
X87079000Y-66165400D01*
X64635100Y-78115000D02*
X64635100Y-77876900D01*
X102585000Y-61490200D02*
X103640000Y-60434900D01*
X65559400Y-72522600D02*
X66397100Y-71684900D01*
X103640000Y-60434900D02*
X103640000Y-60325000D01*
X71307600Y-61984300D02*
X70857500Y-61534200D01*
X94018700Y-56628000D02*
X88662400Y-61984300D01*
X97749800Y-56628000D02*
X94018700Y-56628000D01*
X88662400Y-61984300D02*
X71307600Y-61984300D01*
X104765000Y-57785000D02*
X98906800Y-57785000D01*
X98906800Y-57785000D02*
X97749800Y-56628000D01*
X98657700Y-64135000D02*
X96428600Y-64135000D01*
X63510000Y-71909900D02*
X63774500Y-71909900D01*
X64635100Y-71049300D02*
X64635100Y-70926200D01*
X79862900Y-68719800D02*
X78087700Y-70495000D01*
X63774500Y-71909900D02*
X64635100Y-71049300D01*
X98866600Y-63926100D02*
X98657700Y-64135000D01*
X72367400Y-69138200D02*
X72540100Y-68965500D01*
X64635100Y-70926200D02*
X66423100Y-69138200D01*
X96428600Y-64135000D02*
X91843800Y-68719800D01*
X66423100Y-69138200D02*
X72367400Y-69138200D01*
X63510000Y-73035000D02*
X63510000Y-71909900D01*
X91843800Y-68719800D02*
X79862900Y-68719800D01*
X78087700Y-70495000D02*
X74305000Y-70495000D01*
X66685000Y-66540100D02*
X66488400Y-66540100D01*
X63510000Y-69369900D02*
X63510000Y-70495000D01*
X65559900Y-67601400D02*
X63791400Y-69369900D01*
X63791400Y-69369900D02*
X63510000Y-69369900D01*
X103640000Y-52705000D02*
X102357000Y-53987700D01*
X85315000Y-61534200D02*
X72296500Y-61534200D01*
X102357000Y-53987700D02*
X92861500Y-53987700D01*
X66685000Y-65415000D02*
X66685000Y-66540100D01*
X72296500Y-61534200D02*
X71354900Y-60592600D01*
X104765000Y-52705000D02*
X103640000Y-52705000D01*
X65559900Y-67468600D02*
X65559900Y-67601400D01*
X92861500Y-53987700D02*
X85315000Y-61534200D01*
X66488400Y-66540100D02*
X65559900Y-67468600D01*
X94213600Y-33251700D02*
X93571900Y-32610000D01*
X67504800Y-84465000D02*
X68774800Y-85735000D01*
X66338900Y-84465000D02*
X67504800Y-84465000D01*
X94213600Y-35158600D02*
X94213600Y-33251700D01*
X68774800Y-85735000D02*
X74305000Y-85735000D01*
X65242300Y-83368400D02*
X66338900Y-84465000D01*
X63828100Y-81880900D02*
X65242300Y-83295100D01*
X95250000Y-36195000D02*
X94213600Y-35158600D01*
X93571900Y-32610000D02*
X76232900Y-32610000D01*
X62208800Y-81880900D02*
X63828100Y-81880900D01*
X65242300Y-83295100D02*
X65242300Y-83368400D01*
X76232900Y-32610000D02*
X72069000Y-36773900D01*
X74305000Y-80655000D02*
X68446800Y-80655000D01*
X67294500Y-79502700D02*
X64351000Y-79502700D01*
X68446800Y-80655000D02*
X67294500Y-79502700D01*
X74315000Y-60340000D02*
X73189900Y-60340000D01*
X72054800Y-59204900D02*
X62978700Y-59204900D01*
X63228700Y-61749900D02*
X63510000Y-61749900D01*
X62363200Y-59820400D02*
X62363200Y-60884400D01*
X73189900Y-60340000D02*
X72054800Y-59204900D01*
X62978700Y-59204900D02*
X62363200Y-59820400D01*
X63510000Y-61749900D02*
X63510000Y-62875000D01*
X62363200Y-60884400D02*
X63228700Y-61749900D01*
X61432100Y-82794900D02*
X62957400Y-84320200D01*
X65569900Y-57800000D02*
X65564900Y-57795000D01*
X65097500Y-85708200D02*
X65097500Y-85780300D01*
X87282800Y-92194000D02*
X87732900Y-91743900D01*
X76241900Y-89320000D02*
X78722800Y-89320000D01*
X96029900Y-90805000D02*
X97155000Y-90805000D01*
X82308100Y-92194000D02*
X87282800Y-92194000D01*
X75430100Y-88508200D02*
X76241900Y-89320000D01*
X63510000Y-57795000D02*
X61432100Y-59872900D01*
X66695000Y-57800000D02*
X65569900Y-57800000D01*
X63709500Y-84320200D02*
X65097500Y-85708200D01*
X74305000Y-88275000D02*
X75430100Y-88275000D01*
X80083800Y-90681000D02*
X80795100Y-90681000D01*
X65097500Y-85780300D02*
X66410800Y-87093600D01*
X87732900Y-91743900D02*
X95091000Y-91743900D01*
X71884600Y-88275000D02*
X74305000Y-88275000D01*
X61432100Y-59872900D02*
X61432100Y-82794900D01*
X70703200Y-87093600D02*
X71884600Y-88275000D01*
X80795100Y-90681000D02*
X82308100Y-92194000D01*
X75430100Y-88275000D02*
X75430100Y-88508200D01*
X66410800Y-87093600D02*
X70703200Y-87093600D01*
X65564900Y-57795000D02*
X63510000Y-57795000D01*
X78722800Y-89320000D02*
X80083800Y-90681000D01*
X95091000Y-91743900D02*
X96029900Y-90805000D01*
X62957400Y-84320200D02*
X63709500Y-84320200D01*
X75430100Y-90815000D02*
X76196300Y-91581200D01*
X63276800Y-56380100D02*
X60982000Y-58674900D01*
X96029900Y-93345000D02*
X97155000Y-93345000D01*
X95779100Y-93094200D02*
X96029900Y-93345000D01*
X76196300Y-91581200D02*
X80422100Y-91581200D01*
X65569900Y-55260000D02*
X65564900Y-55255000D01*
X74305000Y-90815000D02*
X75430100Y-90815000D01*
X66695000Y-55260000D02*
X65569900Y-55260000D01*
X80422100Y-91581200D02*
X81935100Y-93094200D01*
X65564900Y-55255000D02*
X63510000Y-55255000D01*
X60982000Y-58674900D02*
X60982000Y-84878100D01*
X81935100Y-93094200D02*
X95779100Y-93094200D01*
X65793800Y-89689900D02*
X72054800Y-89689900D01*
X63510000Y-55255000D02*
X63510000Y-56380100D01*
X73179900Y-90815000D02*
X74305000Y-90815000D01*
X63510000Y-56380100D02*
X63276800Y-56380100D01*
X60982000Y-84878100D02*
X65793800Y-89689900D01*
X72054800Y-89689900D02*
X73179900Y-90815000D01*
X66695000Y-52720000D02*
X65569900Y-52720000D01*
X96029900Y-95885000D02*
X97155000Y-95885000D01*
X67215000Y-92085000D02*
X66357900Y-92085000D01*
X66357900Y-92085000D02*
X61084900Y-86812000D01*
X75430100Y-93355000D02*
X76069500Y-93994400D01*
X74305000Y-93355000D02*
X68485000Y-93355000D01*
X94139300Y-93994400D02*
X96029900Y-95885000D01*
X61084900Y-86812000D02*
X61084900Y-86190100D01*
X76069500Y-93994400D02*
X94139300Y-93994400D01*
X65569900Y-52720000D02*
X65564900Y-52715000D01*
X74305000Y-93355000D02*
X75430100Y-93355000D01*
X65564900Y-52715000D02*
X63510000Y-52715000D01*
X68485000Y-93355000D02*
X67215000Y-92085000D01*
X65569900Y-50180000D02*
X65564900Y-50175000D01*
X96029900Y-98425000D02*
X97155000Y-98425000D01*
X74305000Y-95895000D02*
X93499900Y-95895000D01*
X93499900Y-95895000D02*
X96029900Y-98425000D01*
X66695000Y-50180000D02*
X65569900Y-50180000D01*
X65564900Y-50175000D02*
X63510000Y-50175000D01*
X65564900Y-47635000D02*
X63510000Y-47635000D01*
X66695000Y-47640000D02*
X65569900Y-47640000D01*
X96029900Y-100965000D02*
X97155000Y-100965000D01*
X74305000Y-98435000D02*
X93499900Y-98435000D01*
X63510000Y-47635000D02*
X58782700Y-47635000D01*
X93499900Y-98435000D02*
X96029900Y-100965000D01*
X65569900Y-47640000D02*
X65564900Y-47635000D01*
X66695000Y-45100000D02*
X65569900Y-45100000D01*
X98306500Y-100485000D02*
X97516700Y-99695000D01*
X67810100Y-95895000D02*
X66685000Y-95895000D01*
X95396700Y-99695000D02*
X92721800Y-97020100D01*
X68935200Y-97020100D02*
X67810100Y-95895000D01*
X92721800Y-97020100D02*
X68935200Y-97020100D01*
X97516700Y-99695000D02*
X95396700Y-99695000D01*
X98306500Y-101462000D02*
X98306500Y-100485000D01*
X65564900Y-45095000D02*
X63510000Y-45095000D01*
X97388100Y-102380000D02*
X98306500Y-101462000D01*
X97155000Y-102380000D02*
X97388100Y-102380000D01*
X97155000Y-103505000D02*
X97155000Y-102380000D01*
X65569900Y-45100000D02*
X65564900Y-45095000D01*
X65569900Y-42560000D02*
X65564900Y-42555000D01*
X66695000Y-42560000D02*
X65569900Y-42560000D01*
X68697000Y-93885800D02*
X68340900Y-93885800D01*
X95890000Y-97155000D02*
X93215100Y-94480100D01*
X68340900Y-93885800D02*
X67810100Y-93355000D01*
X67810100Y-93355000D02*
X66685000Y-93355000D01*
X97155000Y-104920000D02*
X97388100Y-104920000D01*
X93215100Y-94480100D02*
X69291300Y-94480100D01*
X97155000Y-106045000D02*
X97155000Y-104920000D01*
X97497600Y-97155000D02*
X95890000Y-97155000D01*
X98772300Y-103536000D02*
X98772300Y-98429700D01*
X97388100Y-104920000D02*
X98772300Y-103536000D01*
X98772300Y-98429700D02*
X97497600Y-97155000D01*
X69291300Y-94480100D02*
X68697000Y-93885800D01*
X65564900Y-42555000D02*
X63510000Y-42555000D01*
X80276000Y-92071700D02*
X81748600Y-93544300D01*
X65564900Y-40015000D02*
X63510000Y-40015000D01*
X94819300Y-93544300D02*
X95890000Y-94615000D01*
X65569900Y-40020000D02*
X65564900Y-40015000D01*
X66685000Y-90815000D02*
X67810100Y-90815000D01*
X66695000Y-40020000D02*
X65569900Y-40020000D01*
X95890000Y-94615000D02*
X97505100Y-94615000D01*
X69066800Y-92071700D02*
X80276000Y-92071700D01*
X97388100Y-107460000D02*
X97155000Y-107460000D01*
X67810100Y-90815000D02*
X69066800Y-92071700D01*
X97155000Y-107460000D02*
X97155000Y-108585000D01*
X99243500Y-105604000D02*
X97388100Y-107460000D01*
X99243500Y-96353400D02*
X99243500Y-105604000D01*
X81748600Y-93544300D02*
X94819300Y-93544300D01*
X97505100Y-94615000D02*
X99243500Y-96353400D01*
X74315000Y-57800000D02*
X75440100Y-57800000D01*
X78449200Y-60809100D02*
X83938900Y-60809100D01*
X75440100Y-57800000D02*
X78449200Y-60809100D01*
X67810100Y-73035000D02*
X66685000Y-73035000D01*
X89669900Y-72385000D02*
X89504200Y-72219300D01*
X84033800Y-71251500D02*
X80390300Y-71251500D01*
X89504200Y-72219300D02*
X85001600Y-72219300D01*
X68935200Y-71909900D02*
X67810100Y-73035000D01*
X80390300Y-71251500D02*
X79731900Y-71909900D01*
X90795000Y-72385000D02*
X89669900Y-72385000D01*
X85001600Y-72219300D02*
X84033800Y-71251500D01*
X79731900Y-71909900D02*
X68935200Y-71909900D01*
X68990000Y-76754900D02*
X81995100Y-76754900D01*
X84584900Y-76050200D02*
X85710100Y-74925000D01*
X66685000Y-75575000D02*
X67810100Y-75575000D01*
X67810100Y-75575000D02*
X68990000Y-76754900D01*
X85710100Y-74925000D02*
X90795000Y-74925000D01*
X81995100Y-76754900D02*
X82699800Y-76050200D01*
X82699800Y-76050200D02*
X84584900Y-76050200D01*
X68990000Y-79294900D02*
X81995100Y-79294900D01*
X82699800Y-78590200D02*
X84584900Y-78590200D01*
X67810100Y-78115000D02*
X68990000Y-79294900D01*
X66685000Y-78115000D02*
X67810100Y-78115000D01*
X85710100Y-77465000D02*
X90795000Y-77465000D01*
X84584900Y-78590200D02*
X85710100Y-77465000D01*
X81995100Y-79294900D02*
X82699800Y-78590200D01*
X66685000Y-80655000D02*
X67810100Y-80655000D01*
X89669900Y-80005000D02*
X90795000Y-80005000D01*
X73848000Y-81789300D02*
X82040700Y-81789300D01*
X73179900Y-81121200D02*
X73848000Y-81789300D01*
X82040700Y-81789300D02*
X82699800Y-81130200D01*
X85259900Y-80455200D02*
X89219700Y-80455200D01*
X84584900Y-81130200D02*
X85259900Y-80455200D01*
X82699800Y-81130200D02*
X84584900Y-81130200D01*
X89219700Y-80455200D02*
X89669900Y-80005000D01*
X67810100Y-80655000D02*
X68276300Y-81121200D01*
X68276300Y-81121200D02*
X73179900Y-81121200D01*
X66685000Y-83195000D02*
X67810100Y-83195000D01*
X67810100Y-83195000D02*
X68935300Y-84320200D01*
X84584900Y-83670200D02*
X85710100Y-82545000D01*
X77650800Y-84320200D02*
X78300800Y-83670200D01*
X85710100Y-82545000D02*
X90795000Y-82545000D01*
X78300800Y-83670200D02*
X84584900Y-83670200D01*
X68935300Y-84320200D02*
X77650800Y-84320200D01*
X76098200Y-86868600D02*
X71340000Y-86868600D01*
X76557000Y-86409800D02*
X76098200Y-86868600D01*
X75440100Y-42560000D02*
X75988200Y-43108100D01*
X75988200Y-43108100D02*
X80567800Y-43108100D01*
X67810100Y-85735000D02*
X66685000Y-85735000D01*
X84385300Y-86409800D02*
X76557000Y-86409800D01*
X74315000Y-42560000D02*
X75440100Y-42560000D01*
X85710100Y-85085000D02*
X84385300Y-86409800D01*
X90795000Y-85085000D02*
X85710100Y-85085000D01*
X68493700Y-86418600D02*
X67810100Y-85735000D01*
X71340000Y-86868600D02*
X70890000Y-86418600D01*
X70890000Y-86418600D02*
X68493700Y-86418600D01*
X88539600Y-88755300D02*
X81416400Y-88755300D01*
X89669900Y-87625000D02*
X88539600Y-88755300D01*
X80903400Y-88242300D02*
X76286300Y-88242300D01*
X90795000Y-87625000D02*
X89669900Y-87625000D01*
X81416400Y-88755300D02*
X80903400Y-88242300D01*
X74315000Y-40020000D02*
X79451200Y-40020000D01*
X95527600Y-86661600D02*
X92024200Y-90165000D01*
X101722000Y-86661600D02*
X101395000Y-86335100D01*
X100794000Y-86335100D02*
X100468000Y-86661600D01*
X92024200Y-90165000D02*
X90795000Y-90165000D01*
X110583000Y-70485000D02*
X111789000Y-69279400D01*
X104765000Y-70485000D02*
X110583000Y-70485000D01*
X111789000Y-69279400D02*
X112854000Y-69279400D01*
X105572000Y-86661600D02*
X101722000Y-86661600D01*
X112923000Y-89440200D02*
X108351000Y-89440200D01*
X112854000Y-69279400D02*
X113572000Y-69997400D01*
X113572000Y-69997400D02*
X113572000Y-88791200D01*
X100468000Y-86661600D02*
X95527600Y-86661600D01*
X101395000Y-86335100D02*
X100794000Y-86335100D01*
X108351000Y-89440200D02*
X105572000Y-86661600D01*
X113572000Y-88791200D02*
X112923000Y-89440200D01*
X103839000Y-45612900D02*
X103507000Y-45281100D01*
X94178500Y-47625000D02*
X89002500Y-52801000D01*
X103507000Y-45281100D02*
X101464000Y-45281100D01*
X109668000Y-45612900D02*
X103839000Y-45612900D01*
X89002500Y-52801000D02*
X82187200Y-52801000D01*
X101464000Y-45281100D02*
X99120400Y-47625000D01*
X99120400Y-47625000D02*
X97145000Y-47625000D01*
X97145000Y-47625000D02*
X94178500Y-47625000D01*
X112395000Y-70485000D02*
X111220000Y-70485000D01*
X110095000Y-71610100D02*
X91920100Y-71610100D01*
X84300100Y-69845000D02*
X83175000Y-69845000D01*
X111220000Y-70485000D02*
X110095000Y-71610100D01*
X91280100Y-70970100D02*
X85425200Y-70970100D01*
X85425200Y-70970100D02*
X84300100Y-69845000D01*
X91920100Y-71610100D02*
X91280100Y-70970100D01*
X84300100Y-72385000D02*
X84859500Y-72944400D01*
X110588000Y-72393600D02*
X92218200Y-72393600D01*
X112395000Y-73025000D02*
X111220000Y-73025000D01*
X111220000Y-73025000D02*
X110588000Y-72393600D01*
X84859500Y-72944400D02*
X88914900Y-72944400D01*
X83175000Y-72385000D02*
X84300100Y-72385000D01*
X85427100Y-73798000D02*
X84300100Y-74925000D01*
X112395000Y-75565000D02*
X111220000Y-75565000D01*
X111220000Y-75565000D02*
X109453000Y-73798000D01*
X84300100Y-74925000D02*
X83175000Y-74925000D01*
X109453000Y-73798000D02*
X85427100Y-73798000D01*
X112395000Y-78105000D02*
X111220000Y-78105000D01*
X85433800Y-76331300D02*
X84300100Y-77465000D01*
X111220000Y-78105000D02*
X109446000Y-76331300D01*
X84300100Y-77465000D02*
X83175000Y-77465000D01*
X109446000Y-76331300D02*
X85433800Y-76331300D01*
X86525600Y-78871300D02*
X85391900Y-80005000D01*
X85391900Y-80005000D02*
X83175000Y-80005000D01*
X109446000Y-78871300D02*
X86525600Y-78871300D01*
X111220000Y-80645000D02*
X109446000Y-78871300D01*
X112395000Y-80645000D02*
X111220000Y-80645000D01*
X109446000Y-81411300D02*
X85433800Y-81411300D01*
X111220000Y-83185000D02*
X109446000Y-81411300D01*
X112395000Y-83185000D02*
X111220000Y-83185000D01*
X85433800Y-81411300D02*
X84300100Y-82545000D01*
X84300100Y-82545000D02*
X83175000Y-82545000D01*
X109455000Y-83959700D02*
X85425400Y-83959700D01*
X111220000Y-85725000D02*
X109455000Y-83959700D01*
X112395000Y-85725000D02*
X111220000Y-85725000D01*
X85425400Y-83959700D02*
X84300100Y-85085000D01*
X84300100Y-85085000D02*
X83175000Y-85085000D01*
X101582000Y-85885000D02*
X100608000Y-85885000D01*
X84300100Y-87625000D02*
X83175000Y-87625000D01*
X111220000Y-88265000D02*
X109166000Y-86211500D01*
X100281000Y-86211500D02*
X85713600Y-86211500D01*
X85713600Y-86211500D02*
X84300100Y-87625000D01*
X101908000Y-86211500D02*
X101582000Y-85885000D01*
X112395000Y-88265000D02*
X111220000Y-88265000D01*
X109166000Y-86211500D02*
X101908000Y-86211500D01*
X100608000Y-85885000D02*
X100281000Y-86211500D01*
X99416600Y-51558500D02*
X110073000Y-51558500D01*
X111220000Y-52705000D02*
X112395000Y-52705000D01*
X97145000Y-52705000D02*
X98270100Y-52705000D01*
X110073000Y-51558500D02*
X111220000Y-52705000D01*
X98270100Y-52705000D02*
X99416600Y-51558500D01*
X110029000Y-56435600D02*
X111220000Y-55245000D01*
X97145000Y-55245000D02*
X98270100Y-55245000D01*
X111220000Y-55245000D02*
X112395000Y-55245000D01*
X98270100Y-55245000D02*
X99460700Y-56435600D01*
X99460700Y-56435600D02*
X110029000Y-56435600D01*
X111220000Y-57785000D02*
X112395000Y-57785000D01*
X110095000Y-58910100D02*
X111220000Y-57785000D01*
X97145000Y-57785000D02*
X98270100Y-57785000D01*
X99395200Y-58910100D02*
X110095000Y-58910100D01*
X98270100Y-57785000D02*
X99395200Y-58910100D01*
X103451000Y-61500100D02*
X102720000Y-62230800D01*
X110045000Y-61500100D02*
X103451000Y-61500100D01*
X97145000Y-60325000D02*
X102720000Y-60325000D01*
X111220000Y-60325000D02*
X110045000Y-61500100D01*
X112395000Y-60325000D02*
X111220000Y-60325000D01*
X112395000Y-62865000D02*
X111220000Y-62865000D01*
X98831000Y-62865000D02*
X97145000Y-62865000D01*
X110070000Y-64014500D02*
X99980500Y-64014500D01*
X99980500Y-64014500D02*
X98831000Y-62865000D01*
X111220000Y-62865000D02*
X110070000Y-64014500D01*
X97145000Y-65405000D02*
X98270100Y-65405000D01*
X99066400Y-66701600D02*
X109923000Y-66701600D01*
X98270100Y-65905300D02*
X99066400Y-66701600D01*
X109923000Y-66701600D02*
X111220000Y-65405000D01*
X111220000Y-65405000D02*
X112395000Y-65405000D01*
X98270100Y-65405000D02*
X98270100Y-65905300D01*
X97145000Y-67945000D02*
X98270100Y-67945000D01*
X110085000Y-69080200D02*
X111220000Y-67945000D01*
X111220000Y-67945000D02*
X112395000Y-67945000D01*
X99405300Y-69080200D02*
X110085000Y-69080200D01*
X98270100Y-67945000D02*
X99405300Y-69080200D01*
X102096000Y-19188900D02*
X100330000Y-20955000D01*
X112395000Y-19685000D02*
X111220000Y-19685000D01*
X111220000Y-19685000D02*
X110724000Y-19188900D01*
X99332400Y-20955000D02*
X98296100Y-19918700D01*
X110724000Y-19188900D02*
X102096000Y-19188900D01*
X88627900Y-19468600D02*
X82346100Y-19468600D01*
X89078000Y-19918700D02*
X88627900Y-19468600D01*
X100330000Y-20955000D02*
X99332400Y-20955000D01*
X98296100Y-19918700D02*
X89078000Y-19918700D01*
X82121600Y-92644100D02*
X80608600Y-91131100D01*
X104136000Y-87111700D02*
X99053900Y-92194000D01*
X105909000Y-87765600D02*
X105255000Y-87111700D01*
X51569700Y-81925000D02*
X46120800Y-81925000D01*
X104775000Y-89679900D02*
X105056000Y-89679900D01*
X68396600Y-94610900D02*
X64255600Y-94610900D01*
X80608600Y-91131100D02*
X77812200Y-91131100D01*
X105255000Y-87111700D02*
X104136000Y-87111700D01*
X105909000Y-88827000D02*
X105909000Y-87765600D01*
X87469300Y-92644100D02*
X82121600Y-92644100D01*
X99053900Y-92194000D02*
X87919400Y-92194000D01*
X87919400Y-92194000D02*
X87469300Y-92644100D01*
X105056000Y-89679900D02*
X105909000Y-88827000D01*
X77812200Y-91131100D02*
X77529600Y-90848500D01*
X104775000Y-90805000D02*
X104775000Y-89679900D01*
X64255600Y-94610900D02*
X51569700Y-81925000D01*
X46120800Y-81925000D02*
X41703000Y-77507200D01*
X35580000Y-52720000D02*
X37973800Y-52720000D01*
X37973800Y-52720000D02*
X40632200Y-55378400D01*
X112395000Y-93345000D02*
X104775000Y-93345000D01*
X112395000Y-95885000D02*
X104775000Y-95885000D01*
X89279300Y-53549500D02*
X81799700Y-53549500D01*
X79700200Y-51450000D02*
X39878400Y-51450000D01*
X81799700Y-53549500D02*
X79700200Y-51450000D01*
X90115100Y-52713700D02*
X89279300Y-53549500D01*
X38608400Y-50180000D02*
X35580000Y-50180000D01*
X39878400Y-51450000D02*
X38608400Y-50180000D01*
X112395000Y-98425000D02*
X104775000Y-98425000D01*
X36705100Y-47640000D02*
X38113600Y-49048500D01*
X38113600Y-49048500D02*
X89092400Y-49048500D01*
X35580000Y-47640000D02*
X36705100Y-47640000D01*
X36705100Y-45100000D02*
X38072700Y-46467600D01*
X35580000Y-45100000D02*
X36705100Y-45100000D01*
X112395000Y-100965000D02*
X104775000Y-100965000D01*
X38072700Y-46467600D02*
X83246200Y-46467600D01*
X112395000Y-103505000D02*
X104775000Y-103505000D01*
X81787300Y-43902500D02*
X83470200Y-45585400D01*
X36705100Y-42560000D02*
X38047600Y-43902500D01*
X35580000Y-42560000D02*
X36705100Y-42560000D01*
X38047600Y-43902500D02*
X81787300Y-43902500D01*
X83470200Y-45585400D02*
X98490300Y-45585400D01*
X35580000Y-40020000D02*
X36705100Y-40020000D01*
X112395000Y-106045000D02*
X104775000Y-106045000D01*
X37895700Y-41210600D02*
X87942100Y-41210600D01*
X36705100Y-40020000D02*
X37895700Y-41210600D01*
X112395000Y-108585000D02*
X104775000Y-108585000D01*
X66275000Y-30061700D02*
X93680500Y-30061700D01*
X106680000Y-42545000D02*
X100330000Y-36195000D01*
X64275200Y-30061700D02*
X64574300Y-30360800D01*
X93680500Y-30061700D02*
X96149500Y-32530700D01*
X43200000Y-57800000D02*
X46931000Y-61531000D01*
X46931000Y-61531000D02*
X55694400Y-61531000D01*
X64574300Y-30360800D02*
X65975900Y-30360800D01*
X112395000Y-42545000D02*
X106680000Y-42545000D01*
X65975900Y-30360800D02*
X66275000Y-30061700D01*
X71613200Y-27163200D02*
X62230000Y-17780000D01*
X97790000Y-33655000D02*
X97790000Y-32509100D01*
X92444100Y-27163200D02*
X71613200Y-27163200D01*
X97790000Y-32509100D02*
X92444100Y-27163200D01*
X102870000Y-33655000D02*
X109220000Y-40005000D01*
X109220000Y-40005000D02*
X112395000Y-40005000D01*
X112395000Y-34925000D02*
X111220000Y-34925000D01*
X111220000Y-34925000D02*
X107410000Y-31115000D01*
X107410000Y-31115000D02*
X102870000Y-31115000D01*
X112826000Y-28575000D02*
X102870000Y-28575000D01*
X112395000Y-32385000D02*
X112395000Y-31209900D01*
X112395000Y-31209900D02*
X112760000Y-31209900D01*
X113612000Y-29361700D02*
X112826000Y-28575000D01*
X112760000Y-31209900D02*
X113612000Y-30357600D01*
X113612000Y-30357600D02*
X113612000Y-29361700D01*
X100330000Y-28575000D02*
X101600000Y-29845000D01*
X101600000Y-29845000D02*
X112395000Y-29845000D01*
X112395000Y-27305000D02*
X111220000Y-27305000D01*
X103224000Y-25681300D02*
X102870000Y-26035000D01*
X111220000Y-27305000D02*
X109596000Y-25681300D01*
X109596000Y-25681300D02*
X103224000Y-25681300D01*
X101600000Y-24765000D02*
X112395000Y-24765000D01*
X89605700Y-38170700D02*
X95205600Y-38170700D01*
X87630000Y-36195000D02*
X89605700Y-38170700D01*
X100330000Y-26035000D02*
X101600000Y-24765000D01*
X115328000Y-20955000D02*
X116111000Y-20171500D01*
X102870000Y-23495000D02*
X112812000Y-23495000D01*
X69755100Y-16510000D02*
X68580000Y-16510000D01*
X116111000Y-18085100D02*
X112896000Y-14870600D01*
X71029200Y-14870600D02*
X69755100Y-16144700D01*
X113697000Y-21777900D02*
X114520000Y-20955000D01*
X112812000Y-23495000D02*
X113697000Y-22609800D01*
X116111000Y-20171500D02*
X116111000Y-18085100D01*
X113697000Y-22609800D02*
X113697000Y-21777900D01*
X114520000Y-20955000D02*
X115328000Y-20955000D01*
X69755100Y-16144700D02*
X69755100Y-16510000D01*
X112896000Y-14870600D02*
X71029200Y-14870600D01*
X101834000Y-21991300D02*
X101834000Y-20525900D01*
X73660000Y-16510000D02*
X74835100Y-16510000D01*
X100330000Y-23495000D02*
X101834000Y-21991300D01*
X74835100Y-16510000D02*
X74835100Y-16203600D01*
X74835100Y-16203600D02*
X75703800Y-15334900D01*
X104833000Y-15334900D02*
X105097000Y-15598300D01*
X102454000Y-19905600D02*
X105064000Y-19905600D01*
X105064000Y-19905600D02*
X105097000Y-19938300D01*
X101834000Y-20525900D02*
X102454000Y-19905600D01*
X75703800Y-15334900D02*
X104833000Y-15334900D01*
X79915100Y-16510000D02*
X80256400Y-16168700D01*
X107249000Y-20955000D02*
X107910000Y-20293200D01*
X102870000Y-20955000D02*
X107249000Y-20955000D01*
X78740000Y-16510000D02*
X79915100Y-16510000D01*
X80256400Y-16168700D02*
X102954000Y-16168700D01*
X102954000Y-16168700D02*
X103108000Y-16323400D01*
X103108000Y-16323400D02*
X107633000Y-16323400D01*
X107633000Y-16323400D02*
X107910000Y-16045800D01*
X112395000Y-21049900D02*
X112760000Y-21049900D01*
X112800000Y-18415000D02*
X100330000Y-18415000D01*
X112395000Y-22225000D02*
X112395000Y-21049900D01*
X113611000Y-20199100D02*
X113611000Y-19225500D01*
X112760000Y-21049900D02*
X113611000Y-20199100D01*
X113611000Y-19225500D02*
X112800000Y-18415000D01*
X98857800Y-19451400D02*
X99389300Y-19982900D01*
X93746400Y-19451400D02*
X98857800Y-19451400D01*
X92710000Y-18415000D02*
X93746400Y-19451400D01*
X95012300Y-37445600D02*
X94064900Y-36498200D01*
X94064900Y-36058200D02*
X93006000Y-34999300D01*
X111220000Y-47625000D02*
X111220000Y-46138800D01*
X94064900Y-36498200D02*
X94064900Y-36058200D01*
X111220000Y-46138800D02*
X109969000Y-44887800D01*
X112395000Y-47625000D02*
X111220000Y-47625000D01*
X96308300Y-37445600D02*
X95012300Y-37445600D01*
X91514300Y-34999300D02*
X90170000Y-33655000D01*
X93006000Y-34999300D02*
X91514300Y-34999300D01*
X103750000Y-44887800D02*
X96308300Y-37445600D01*
X109969000Y-44887800D02*
X103750000Y-44887800D01*
X40405800Y-38640700D02*
X86834500Y-38640700D01*
X88559600Y-40365800D02*
X88676600Y-40365800D01*
X86834500Y-38640700D02*
X88559600Y-40365800D01*
X36705100Y-34940000D02*
X40405800Y-38640700D01*
X35580000Y-34940000D02*
X36705100Y-34940000D01*
X110473000Y-59651300D02*
X106084000Y-59651300D01*
X113760000Y-59959800D02*
X112930000Y-59129500D01*
X113760000Y-60325000D02*
X113760000Y-59959800D01*
X110995000Y-59129500D02*
X110473000Y-59651300D01*
X112930000Y-59129500D02*
X110995000Y-59129500D01*
X114935000Y-60325000D02*
X113760000Y-60325000D01*
X87630000Y-31115000D02*
X92075200Y-31115000D01*
X84680700Y-44350300D02*
X97224600Y-44350300D01*
X82266100Y-41935700D02*
X84680700Y-44350300D01*
X103323000Y-46122200D02*
X108439000Y-46122200D01*
X103207000Y-46006200D02*
X103323000Y-46122200D01*
X97224600Y-44350300D02*
X99527800Y-42047100D01*
X108439000Y-46122200D02*
X111208000Y-48891300D01*
X85090000Y-31115000D02*
X81136900Y-31115000D01*
X109226000Y-48808300D02*
X94450400Y-48808300D01*
X113760000Y-52337700D02*
X112952000Y-51529900D01*
X112952000Y-51529900D02*
X111948000Y-51529900D01*
X111948000Y-51529900D02*
X109226000Y-48808300D01*
X114935000Y-52705000D02*
X113760000Y-52705000D01*
X113760000Y-52705000D02*
X113760000Y-52337700D01*
X115302000Y-51340100D02*
X116124000Y-52162100D01*
X99558200Y-44800400D02*
X100239000Y-45481100D01*
X114935000Y-51340100D02*
X115302000Y-51340100D01*
X115328000Y-53975000D02*
X105482000Y-53975000D01*
X83958400Y-44800400D02*
X99558200Y-44800400D01*
X85090000Y-28575000D02*
X80208900Y-28575000D01*
X82253400Y-43095400D02*
X83958400Y-44800400D01*
X114935000Y-50165000D02*
X114935000Y-51340100D01*
X116124000Y-53178300D02*
X115328000Y-53975000D01*
X116124000Y-52162100D02*
X116124000Y-53178300D01*
X106320000Y-43732200D02*
X98826400Y-36238200D01*
X112738000Y-43732200D02*
X106320000Y-43732200D01*
X113570000Y-45450400D02*
X113570000Y-44564600D01*
X114935000Y-47625000D02*
X114935000Y-46449900D01*
X114935000Y-46449900D02*
X114570000Y-46449900D01*
X114570000Y-46449900D02*
X113570000Y-45450400D01*
X98826400Y-36238200D02*
X98826400Y-32908900D01*
X98826400Y-32908900D02*
X91952500Y-26035000D01*
X91952500Y-26035000D02*
X87630000Y-26035000D01*
X113570000Y-44564600D02*
X112738000Y-43732200D01*
X100102000Y-34925000D02*
X99276600Y-34099400D01*
X99276600Y-32722500D02*
X91515000Y-24960900D01*
X113665000Y-43005200D02*
X113665000Y-42114100D01*
X102955000Y-34925000D02*
X100102000Y-34925000D01*
X114935000Y-45085000D02*
X114935000Y-43909900D01*
X113665000Y-42114100D02*
X112921000Y-41369800D01*
X99276600Y-34099400D02*
X99276600Y-32722500D01*
X112921000Y-41369800D02*
X109400000Y-41369800D01*
X114935000Y-43909900D02*
X114570000Y-43909900D01*
X109400000Y-41369800D02*
X102955000Y-34925000D01*
X86164100Y-24960900D02*
X85090000Y-26035000D01*
X114570000Y-43909900D02*
X113665000Y-43005200D01*
X91515000Y-24960900D02*
X86164100Y-24960900D01*
X89072600Y-20918500D02*
X89072600Y-21720000D01*
X88072800Y-19918700D02*
X89072600Y-20918500D01*
X86126300Y-19918700D02*
X88072800Y-19918700D01*
X85090000Y-20955000D02*
X86126300Y-19918700D01*
X109378000Y-38735000D02*
X104381000Y-33737500D01*
X103104000Y-32385000D02*
X102620000Y-32385000D01*
X104381000Y-33662400D02*
X103104000Y-32385000D01*
X100402000Y-29685700D02*
X97225300Y-29685700D01*
X113760000Y-39639800D02*
X112855000Y-38735000D01*
X93072000Y-25532400D02*
X93072000Y-25029200D01*
X97225300Y-29685700D02*
X93072000Y-25532400D01*
X101834000Y-31117400D02*
X100402000Y-29685700D01*
X101834000Y-31599000D02*
X101834000Y-31117400D01*
X114935000Y-40005000D02*
X113760000Y-40005000D01*
X112855000Y-38735000D02*
X109378000Y-38735000D01*
X113760000Y-40005000D02*
X113760000Y-39639800D01*
X104381000Y-33737500D02*
X104381000Y-33662400D01*
X102620000Y-32385000D02*
X101834000Y-31599000D01*
X113760000Y-37465000D02*
X113760000Y-37099800D01*
X114935000Y-37465000D02*
X113760000Y-37465000D01*
X112855000Y-36195000D02*
X107864000Y-36195000D01*
X113760000Y-37099800D02*
X112855000Y-36195000D01*
X107864000Y-36195000D02*
X105106000Y-33437200D01*
X94333100Y-25768100D02*
X95645300Y-27080300D01*
X105444000Y-27080300D02*
X106118000Y-26406400D01*
X95645300Y-27080300D02*
X105444000Y-27080300D01*
M02*
