%TF.GenerationSoftware,KiCad,Pcbnew,(6.0.1)*%
%TF.CreationDate,2022-03-08T21:02:58+01:00*%
%TF.ProjectId,Z80CPM,5a383043-504d-42e6-9b69-6361645f7063,rev?*%
%TF.SameCoordinates,Original*%
%TF.FileFunction,Soldermask,Top*%
%TF.FilePolarity,Negative*%
%FSLAX46Y46*%
G04 Gerber Fmt 4.6, Leading zero omitted, Abs format (unit mm)*
G04 Created by KiCad (PCBNEW (6.0.1)) date 2022-03-08 21:02:58*
%MOMM*%
%LPD*%
G01*
G04 APERTURE LIST*
%ADD10R,1.700000X1.700000*%
%ADD11O,1.700000X1.700000*%
%ADD12C,1.600000*%
%ADD13O,1.600000X1.600000*%
%ADD14C,1.500000*%
%ADD15R,1.600000X2.400000*%
%ADD16O,1.600000X2.400000*%
%ADD17R,1.600000X1.600000*%
%ADD18C,4.000000*%
%ADD19R,1.422400X1.422400*%
%ADD20C,1.422400*%
%ADD21R,1.800000X1.800000*%
%ADD22C,1.800000*%
%ADD23C,1.400000*%
%ADD24O,1.400000X1.400000*%
G04 APERTURE END LIST*
D10*
%TO.C,*%
X36830000Y-121920000D03*
D11*
X39370000Y-121920000D03*
X41910000Y-121920000D03*
X44450000Y-121920000D03*
X46990000Y-121920000D03*
X49530000Y-121920000D03*
X52070000Y-121920000D03*
X54610000Y-121920000D03*
X57150000Y-121920000D03*
X59690000Y-121920000D03*
X62230000Y-121920000D03*
X64770000Y-121920000D03*
X67310000Y-121920000D03*
X69850000Y-121920000D03*
X72390000Y-121920000D03*
X74930000Y-121920000D03*
X77470000Y-121920000D03*
X80010000Y-121920000D03*
X82550000Y-121920000D03*
X85090000Y-121920000D03*
X87630000Y-121920000D03*
X90170000Y-121920000D03*
X92710000Y-121920000D03*
X95250000Y-121920000D03*
X97790000Y-121920000D03*
X100330000Y-121920000D03*
%TD*%
D10*
%TO.C,*%
X36830000Y-119380000D03*
D11*
X39370000Y-119380000D03*
X41910000Y-119380000D03*
X44450000Y-119380000D03*
X46990000Y-119380000D03*
X49530000Y-119380000D03*
X52070000Y-119380000D03*
X54610000Y-119380000D03*
X57150000Y-119380000D03*
X59690000Y-119380000D03*
X62230000Y-119380000D03*
X64770000Y-119380000D03*
X67310000Y-119380000D03*
X69850000Y-119380000D03*
X72390000Y-119380000D03*
X74930000Y-119380000D03*
X77470000Y-119380000D03*
X80010000Y-119380000D03*
X82550000Y-119380000D03*
X85090000Y-119380000D03*
X87630000Y-119380000D03*
X90170000Y-119380000D03*
X92710000Y-119380000D03*
X95250000Y-119380000D03*
X97790000Y-119380000D03*
X100330000Y-119380000D03*
%TD*%
D10*
%TO.C,*%
X31765000Y-109220000D03*
D11*
X34305000Y-109220000D03*
X36845000Y-109220000D03*
X39385000Y-109220000D03*
X41925000Y-109220000D03*
X44465000Y-109220000D03*
X47005000Y-109220000D03*
X49545000Y-109220000D03*
X52085000Y-109220000D03*
X54625000Y-109220000D03*
X57165000Y-109220000D03*
X59705000Y-109220000D03*
X62245000Y-109220000D03*
X64785000Y-109220000D03*
X67325000Y-109220000D03*
X69865000Y-109220000D03*
X72405000Y-109220000D03*
X74945000Y-109220000D03*
X77485000Y-109220000D03*
X80025000Y-109220000D03*
X82565000Y-109220000D03*
X85105000Y-109220000D03*
X87645000Y-109220000D03*
X90185000Y-109220000D03*
X92725000Y-109220000D03*
X95265000Y-109220000D03*
X97805000Y-109220000D03*
X100345000Y-109220000D03*
%TD*%
D10*
%TO.C,*%
X31765000Y-111760000D03*
D11*
X34305000Y-111760000D03*
X36845000Y-111760000D03*
X39385000Y-111760000D03*
X41925000Y-111760000D03*
X44465000Y-111760000D03*
X47005000Y-111760000D03*
X49545000Y-111760000D03*
X52085000Y-111760000D03*
X54625000Y-111760000D03*
X57165000Y-111760000D03*
X59705000Y-111760000D03*
X62245000Y-111760000D03*
X64785000Y-111760000D03*
X67325000Y-111760000D03*
X69865000Y-111760000D03*
X72405000Y-111760000D03*
X74945000Y-111760000D03*
X77485000Y-111760000D03*
X80025000Y-111760000D03*
X82565000Y-111760000D03*
X85105000Y-111760000D03*
X87645000Y-111760000D03*
X90185000Y-111760000D03*
X92725000Y-111760000D03*
X95265000Y-111760000D03*
X97805000Y-111760000D03*
X100345000Y-111760000D03*
%TD*%
D10*
%TO.C,*%
X31765000Y-114300000D03*
D11*
X34305000Y-114300000D03*
X36845000Y-114300000D03*
X39385000Y-114300000D03*
X41925000Y-114300000D03*
X44465000Y-114300000D03*
X47005000Y-114300000D03*
X49545000Y-114300000D03*
X52085000Y-114300000D03*
X54625000Y-114300000D03*
X57165000Y-114300000D03*
X59705000Y-114300000D03*
X62245000Y-114300000D03*
X64785000Y-114300000D03*
X67325000Y-114300000D03*
X69865000Y-114300000D03*
X72405000Y-114300000D03*
X74945000Y-114300000D03*
X77485000Y-114300000D03*
X80025000Y-114300000D03*
X82565000Y-114300000D03*
X85105000Y-114300000D03*
X87645000Y-114300000D03*
X90185000Y-114300000D03*
X92725000Y-114300000D03*
X95265000Y-114300000D03*
X97805000Y-114300000D03*
X100345000Y-114300000D03*
%TD*%
%TO.C,*%
X102870000Y-124470000D03*
X102870000Y-121930000D03*
X102870000Y-119390000D03*
X102870000Y-116850000D03*
X102870000Y-114310000D03*
X102870000Y-111770000D03*
X102870000Y-109230000D03*
X102870000Y-106690000D03*
X102870000Y-104150000D03*
X102870000Y-101610000D03*
X102870000Y-99070000D03*
X102870000Y-96530000D03*
X102870000Y-93990000D03*
X102870000Y-91450000D03*
X102870000Y-88910000D03*
X102870000Y-86370000D03*
X102870000Y-83830000D03*
X102870000Y-81290000D03*
X102870000Y-78750000D03*
X102870000Y-76210000D03*
X102870000Y-73670000D03*
X102870000Y-71130000D03*
X102870000Y-68590000D03*
X102870000Y-66050000D03*
X102870000Y-63510000D03*
X102870000Y-60970000D03*
X102870000Y-58430000D03*
X102870000Y-55890000D03*
X102870000Y-53350000D03*
X102870000Y-50810000D03*
X102870000Y-48270000D03*
X102870000Y-45730000D03*
X102870000Y-43190000D03*
X102870000Y-40650000D03*
X102870000Y-38110000D03*
X102870000Y-35570000D03*
X102870000Y-33030000D03*
X102870000Y-30490000D03*
D10*
X102870000Y-27950000D03*
%TD*%
D11*
%TO.C,*%
X105410000Y-124470000D03*
X105410000Y-121930000D03*
X105410000Y-119390000D03*
X105410000Y-116850000D03*
X105410000Y-114310000D03*
X105410000Y-111770000D03*
X105410000Y-109230000D03*
X105410000Y-106690000D03*
X105410000Y-104150000D03*
X105410000Y-101610000D03*
X105410000Y-99070000D03*
X105410000Y-96530000D03*
X105410000Y-93990000D03*
X105410000Y-91450000D03*
X105410000Y-88910000D03*
X105410000Y-86370000D03*
X105410000Y-83830000D03*
X105410000Y-81290000D03*
X105410000Y-78750000D03*
X105410000Y-76210000D03*
X105410000Y-73670000D03*
X105410000Y-71130000D03*
X105410000Y-68590000D03*
X105410000Y-66050000D03*
X105410000Y-63510000D03*
X105410000Y-60970000D03*
X105410000Y-58430000D03*
X105410000Y-55890000D03*
X105410000Y-53350000D03*
X105410000Y-50810000D03*
X105410000Y-48270000D03*
X105410000Y-45730000D03*
X105410000Y-43190000D03*
X105410000Y-40650000D03*
X105410000Y-38110000D03*
X105410000Y-35570000D03*
X105410000Y-33030000D03*
X105410000Y-30490000D03*
D10*
X105410000Y-27950000D03*
%TD*%
D11*
%TO.C,*%
X107950000Y-124470000D03*
X107950000Y-121930000D03*
X107950000Y-119390000D03*
X107950000Y-116850000D03*
X107950000Y-114310000D03*
X107950000Y-111770000D03*
X107950000Y-109230000D03*
X107950000Y-106690000D03*
X107950000Y-104150000D03*
X107950000Y-101610000D03*
X107950000Y-99070000D03*
X107950000Y-96530000D03*
X107950000Y-93990000D03*
X107950000Y-91450000D03*
X107950000Y-88910000D03*
X107950000Y-86370000D03*
X107950000Y-83830000D03*
X107950000Y-81290000D03*
X107950000Y-78750000D03*
X107950000Y-76210000D03*
X107950000Y-73670000D03*
X107950000Y-71130000D03*
X107950000Y-68590000D03*
X107950000Y-66050000D03*
X107950000Y-63510000D03*
X107950000Y-60970000D03*
X107950000Y-58430000D03*
X107950000Y-55890000D03*
X107950000Y-53350000D03*
X107950000Y-50810000D03*
X107950000Y-48270000D03*
X107950000Y-45730000D03*
X107950000Y-43190000D03*
X107950000Y-40650000D03*
X107950000Y-38110000D03*
X107950000Y-35570000D03*
X107950000Y-33030000D03*
X107950000Y-30490000D03*
D10*
X107950000Y-27950000D03*
%TD*%
D11*
%TO.C,*%
X110490000Y-124470000D03*
X110490000Y-121930000D03*
X110490000Y-119390000D03*
X110490000Y-116850000D03*
X110490000Y-114310000D03*
X110490000Y-111770000D03*
X110490000Y-109230000D03*
X110490000Y-106690000D03*
X110490000Y-104150000D03*
X110490000Y-101610000D03*
X110490000Y-99070000D03*
X110490000Y-96530000D03*
X110490000Y-93990000D03*
X110490000Y-91450000D03*
X110490000Y-88910000D03*
X110490000Y-86370000D03*
X110490000Y-83830000D03*
X110490000Y-81290000D03*
X110490000Y-78750000D03*
X110490000Y-76210000D03*
X110490000Y-73670000D03*
X110490000Y-71130000D03*
X110490000Y-68590000D03*
X110490000Y-66050000D03*
X110490000Y-63510000D03*
X110490000Y-60970000D03*
X110490000Y-58430000D03*
X110490000Y-55890000D03*
X110490000Y-53350000D03*
X110490000Y-50810000D03*
X110490000Y-48270000D03*
X110490000Y-45730000D03*
X110490000Y-43190000D03*
X110490000Y-40650000D03*
X110490000Y-38110000D03*
X110490000Y-35570000D03*
X110490000Y-33030000D03*
X110490000Y-30490000D03*
D10*
X110490000Y-27950000D03*
%TD*%
D11*
%TO.C,*%
X113030000Y-124470000D03*
X113030000Y-121930000D03*
X113030000Y-119390000D03*
X113030000Y-116850000D03*
X113030000Y-114310000D03*
X113030000Y-111770000D03*
X113030000Y-109230000D03*
X113030000Y-106690000D03*
X113030000Y-104150000D03*
X113030000Y-101610000D03*
X113030000Y-99070000D03*
X113030000Y-96530000D03*
X113030000Y-93990000D03*
X113030000Y-91450000D03*
X113030000Y-88910000D03*
X113030000Y-86370000D03*
X113030000Y-83830000D03*
X113030000Y-81290000D03*
X113030000Y-78750000D03*
X113030000Y-76210000D03*
X113030000Y-73670000D03*
X113030000Y-71130000D03*
X113030000Y-68590000D03*
X113030000Y-66050000D03*
X113030000Y-63510000D03*
X113030000Y-60970000D03*
X113030000Y-58430000D03*
X113030000Y-55890000D03*
X113030000Y-53350000D03*
X113030000Y-50810000D03*
X113030000Y-48270000D03*
X113030000Y-45730000D03*
X113030000Y-43190000D03*
X113030000Y-40650000D03*
X113030000Y-38110000D03*
X113030000Y-35570000D03*
X113030000Y-33030000D03*
X113030000Y-30490000D03*
D10*
X113030000Y-27950000D03*
%TD*%
D11*
%TO.C,*%
X115570000Y-124470000D03*
X115570000Y-121930000D03*
X115570000Y-119390000D03*
X115570000Y-116850000D03*
X115570000Y-114310000D03*
X115570000Y-111770000D03*
X115570000Y-109230000D03*
X115570000Y-106690000D03*
X115570000Y-104150000D03*
X115570000Y-101610000D03*
X115570000Y-99070000D03*
X115570000Y-96530000D03*
X115570000Y-93990000D03*
X115570000Y-91450000D03*
X115570000Y-88910000D03*
X115570000Y-86370000D03*
X115570000Y-83830000D03*
X115570000Y-81290000D03*
X115570000Y-78750000D03*
X115570000Y-76210000D03*
X115570000Y-73670000D03*
X115570000Y-71130000D03*
X115570000Y-68590000D03*
X115570000Y-66050000D03*
X115570000Y-63510000D03*
X115570000Y-60970000D03*
X115570000Y-58430000D03*
X115570000Y-55890000D03*
X115570000Y-53350000D03*
X115570000Y-50810000D03*
X115570000Y-48270000D03*
X115570000Y-45730000D03*
X115570000Y-43190000D03*
X115570000Y-40650000D03*
X115570000Y-38110000D03*
X115570000Y-35570000D03*
X115570000Y-33030000D03*
X115570000Y-30490000D03*
D10*
X115570000Y-27950000D03*
%TD*%
D11*
%TO.C,*%
X118110000Y-124470000D03*
X118110000Y-121930000D03*
X118110000Y-119390000D03*
X118110000Y-116850000D03*
X118110000Y-114310000D03*
X118110000Y-111770000D03*
X118110000Y-109230000D03*
X118110000Y-106690000D03*
X118110000Y-104150000D03*
X118110000Y-101610000D03*
X118110000Y-99070000D03*
X118110000Y-96530000D03*
X118110000Y-93990000D03*
X118110000Y-91450000D03*
X118110000Y-88910000D03*
X118110000Y-86370000D03*
X118110000Y-83830000D03*
X118110000Y-81290000D03*
X118110000Y-78750000D03*
X118110000Y-76210000D03*
X118110000Y-73670000D03*
X118110000Y-71130000D03*
X118110000Y-68590000D03*
X118110000Y-66050000D03*
X118110000Y-63510000D03*
X118110000Y-60970000D03*
X118110000Y-58430000D03*
X118110000Y-55890000D03*
X118110000Y-53350000D03*
X118110000Y-50810000D03*
X118110000Y-48270000D03*
X118110000Y-45730000D03*
X118110000Y-43190000D03*
X118110000Y-40650000D03*
X118110000Y-38110000D03*
X118110000Y-35570000D03*
X118110000Y-33030000D03*
X118110000Y-30490000D03*
D10*
X118110000Y-27950000D03*
%TD*%
D11*
%TO.C,*%
X120650000Y-124470000D03*
X120650000Y-121930000D03*
X120650000Y-119390000D03*
X120650000Y-116850000D03*
X120650000Y-114310000D03*
X120650000Y-111770000D03*
X120650000Y-109230000D03*
X120650000Y-106690000D03*
X120650000Y-104150000D03*
X120650000Y-101610000D03*
X120650000Y-99070000D03*
X120650000Y-96530000D03*
X120650000Y-93990000D03*
X120650000Y-91450000D03*
X120650000Y-88910000D03*
X120650000Y-86370000D03*
X120650000Y-83830000D03*
X120650000Y-81290000D03*
X120650000Y-78750000D03*
X120650000Y-76210000D03*
X120650000Y-73670000D03*
X120650000Y-71130000D03*
X120650000Y-68590000D03*
X120650000Y-66050000D03*
X120650000Y-63510000D03*
X120650000Y-60970000D03*
X120650000Y-58430000D03*
X120650000Y-55890000D03*
X120650000Y-53350000D03*
X120650000Y-50810000D03*
X120650000Y-48270000D03*
X120650000Y-45730000D03*
X120650000Y-43190000D03*
X120650000Y-40650000D03*
X120650000Y-38110000D03*
X120650000Y-35570000D03*
X120650000Y-33030000D03*
X120650000Y-30490000D03*
D10*
X120650000Y-27950000D03*
%TD*%
%TO.C,*%
X100330000Y-99060000D03*
%TD*%
%TO.C,*%
X100330000Y-106680000D03*
%TD*%
%TO.C,*%
X97790000Y-106680000D03*
%TD*%
%TO.C,*%
X95250000Y-106680000D03*
%TD*%
%TO.C,*%
X92710000Y-106680000D03*
%TD*%
%TO.C,*%
X95250000Y-104140000D03*
%TD*%
%TO.C,*%
X97790000Y-104140000D03*
%TD*%
%TO.C,*%
X100330000Y-104140000D03*
%TD*%
%TO.C,*%
X100330000Y-101600000D03*
%TD*%
%TO.C,*%
X97790000Y-101600000D03*
%TD*%
%TO.C,*%
X31765000Y-124460000D03*
D11*
X34305000Y-124460000D03*
X36845000Y-124460000D03*
X39385000Y-124460000D03*
X41925000Y-124460000D03*
X44465000Y-124460000D03*
X47005000Y-124460000D03*
X49545000Y-124460000D03*
X52085000Y-124460000D03*
X54625000Y-124460000D03*
X57165000Y-124460000D03*
X59705000Y-124460000D03*
X62245000Y-124460000D03*
X64785000Y-124460000D03*
X67325000Y-124460000D03*
X69865000Y-124460000D03*
X72405000Y-124460000D03*
X74945000Y-124460000D03*
X77485000Y-124460000D03*
X80025000Y-124460000D03*
X82565000Y-124460000D03*
X85105000Y-124460000D03*
X87645000Y-124460000D03*
X90185000Y-124460000D03*
X92725000Y-124460000D03*
X95265000Y-124460000D03*
X97805000Y-124460000D03*
X100345000Y-124460000D03*
%TD*%
D10*
%TO.C,*%
X36830000Y-116840000D03*
D11*
X39370000Y-116840000D03*
X41910000Y-116840000D03*
X44450000Y-116840000D03*
X46990000Y-116840000D03*
X49530000Y-116840000D03*
X52070000Y-116840000D03*
X54610000Y-116840000D03*
X57150000Y-116840000D03*
X59690000Y-116840000D03*
X62230000Y-116840000D03*
X64770000Y-116840000D03*
X67310000Y-116840000D03*
X69850000Y-116840000D03*
X72390000Y-116840000D03*
X74930000Y-116840000D03*
X77470000Y-116840000D03*
X80010000Y-116840000D03*
X82550000Y-116840000D03*
X85090000Y-116840000D03*
X87630000Y-116840000D03*
X90170000Y-116840000D03*
X92710000Y-116840000D03*
X95250000Y-116840000D03*
X97790000Y-116840000D03*
X100330000Y-116840000D03*
%TD*%
%TO.C,*%
X123190000Y-124460000D03*
X123190000Y-121920000D03*
X123190000Y-119380000D03*
X123190000Y-116840000D03*
X123190000Y-114300000D03*
X123190000Y-111760000D03*
X123190000Y-109220000D03*
X123190000Y-106680000D03*
X123190000Y-104140000D03*
X123190000Y-101600000D03*
X123190000Y-99060000D03*
X123190000Y-96520000D03*
X123190000Y-93980000D03*
X123190000Y-91440000D03*
X123190000Y-88900000D03*
X123190000Y-86360000D03*
X123190000Y-83820000D03*
X123190000Y-81280000D03*
X123190000Y-78740000D03*
X123190000Y-76200000D03*
X123190000Y-73660000D03*
X123190000Y-71120000D03*
X123190000Y-68580000D03*
X123190000Y-66040000D03*
X123190000Y-63500000D03*
X123190000Y-60960000D03*
X123190000Y-58420000D03*
X123190000Y-55880000D03*
X123190000Y-53340000D03*
X123190000Y-50800000D03*
X123190000Y-48260000D03*
X123190000Y-45720000D03*
X123190000Y-43180000D03*
X123190000Y-40640000D03*
X123190000Y-38100000D03*
X123190000Y-35560000D03*
X123190000Y-33020000D03*
X123190000Y-30480000D03*
D10*
X123190000Y-27940000D03*
%TD*%
%TO.C,C2*%
X39370000Y-48260000D03*
D11*
X39370000Y-45720000D03*
%TD*%
D12*
%TO.C,R2*%
X50800000Y-59690000D03*
D13*
X50800000Y-49530000D03*
%TD*%
D14*
%TO.C,3\u002C6864Mhz1*%
X34200000Y-60960000D03*
X29300000Y-60960000D03*
%TD*%
D15*
%TO.C,U2*%
X93975000Y-90180000D03*
D16*
X91435000Y-90180000D03*
X88895000Y-90180000D03*
X86355000Y-90180000D03*
X83815000Y-90180000D03*
X81275000Y-90180000D03*
X78735000Y-90180000D03*
X76195000Y-90180000D03*
X73655000Y-90180000D03*
X71115000Y-90180000D03*
X71115000Y-97800000D03*
X73655000Y-97800000D03*
X76195000Y-97800000D03*
X78735000Y-97800000D03*
X81275000Y-97800000D03*
X83815000Y-97800000D03*
X86355000Y-97800000D03*
X88895000Y-97800000D03*
X91435000Y-97800000D03*
X93975000Y-97800000D03*
%TD*%
D15*
%TO.C,U5*%
X93970000Y-77455000D03*
D16*
X91430000Y-77455000D03*
X88890000Y-77455000D03*
X86350000Y-77455000D03*
X83810000Y-77455000D03*
X81270000Y-77455000D03*
X78730000Y-77455000D03*
X76190000Y-77455000D03*
X73650000Y-77455000D03*
X71110000Y-77455000D03*
X68570000Y-77455000D03*
X66030000Y-77455000D03*
X63490000Y-77455000D03*
X60950000Y-77455000D03*
X60950000Y-85075000D03*
X63490000Y-85075000D03*
X66030000Y-85075000D03*
X68570000Y-85075000D03*
X71110000Y-85075000D03*
X73650000Y-85075000D03*
X76190000Y-85075000D03*
X78730000Y-85075000D03*
X81270000Y-85075000D03*
X83810000Y-85075000D03*
X86350000Y-85075000D03*
X88890000Y-85075000D03*
X91430000Y-85075000D03*
X93970000Y-85075000D03*
%TD*%
D12*
%TO.C,R1*%
X55880000Y-49530000D03*
D13*
X55880000Y-59690000D03*
%TD*%
D17*
%TO.C,J1*%
X33040000Y-41077500D03*
D12*
X35540000Y-41077500D03*
X35540000Y-39077500D03*
X33040000Y-39077500D03*
D18*
X28290000Y-36217500D03*
X40290000Y-36217500D03*
%TD*%
D17*
%TO.C,U3*%
X93970000Y-46985000D03*
D13*
X91430000Y-46985000D03*
X88890000Y-46985000D03*
X86350000Y-46985000D03*
X83810000Y-46985000D03*
X81270000Y-46985000D03*
X78730000Y-46985000D03*
X76190000Y-46985000D03*
X73650000Y-46985000D03*
X71110000Y-46985000D03*
X68570000Y-46985000D03*
X66030000Y-46985000D03*
X63490000Y-46985000D03*
X60950000Y-46985000D03*
X60950000Y-62225000D03*
X63490000Y-62225000D03*
X66030000Y-62225000D03*
X68570000Y-62225000D03*
X71110000Y-62225000D03*
X73650000Y-62225000D03*
X76190000Y-62225000D03*
X78730000Y-62225000D03*
X81270000Y-62225000D03*
X83810000Y-62225000D03*
X86350000Y-62225000D03*
X88890000Y-62225000D03*
X91430000Y-62225000D03*
X93970000Y-62225000D03*
%TD*%
D10*
%TO.C,J2*%
X35550000Y-97790000D03*
D11*
X33010000Y-97790000D03*
X30470000Y-97790000D03*
X27930000Y-97790000D03*
%TD*%
D15*
%TO.C,U1*%
X93920000Y-28085000D03*
D16*
X91380000Y-28085000D03*
X88840000Y-28085000D03*
X86300000Y-28085000D03*
X83760000Y-28085000D03*
X81220000Y-28085000D03*
X78680000Y-28085000D03*
X76140000Y-28085000D03*
X73600000Y-28085000D03*
X71060000Y-28085000D03*
X68520000Y-28085000D03*
X65980000Y-28085000D03*
X63440000Y-28085000D03*
X60900000Y-28085000D03*
X58360000Y-28085000D03*
X55820000Y-28085000D03*
X53280000Y-28085000D03*
X50740000Y-28085000D03*
X48200000Y-28085000D03*
X45660000Y-28085000D03*
X45660000Y-43325000D03*
X48200000Y-43325000D03*
X50740000Y-43325000D03*
X53280000Y-43325000D03*
X55820000Y-43325000D03*
X58360000Y-43325000D03*
X60900000Y-43325000D03*
X63440000Y-43325000D03*
X65980000Y-43325000D03*
X68520000Y-43325000D03*
X71060000Y-43325000D03*
X73600000Y-43325000D03*
X76140000Y-43325000D03*
X78680000Y-43325000D03*
X81220000Y-43325000D03*
X83760000Y-43325000D03*
X86300000Y-43325000D03*
X88840000Y-43325000D03*
X91380000Y-43325000D03*
X93920000Y-43325000D03*
%TD*%
D12*
%TO.C,R5*%
X53340000Y-59690000D03*
D13*
X53340000Y-49530000D03*
%TD*%
D12*
%TO.C,R7*%
X38100000Y-93980000D03*
D13*
X27940000Y-93980000D03*
%TD*%
D10*
%TO.C,C4*%
X97790000Y-71120000D03*
D11*
X97790000Y-68580000D03*
%TD*%
D10*
%TO.C,C8*%
X97790000Y-54610000D03*
D11*
X97790000Y-57150000D03*
%TD*%
D10*
%TO.C,C9*%
X97790000Y-40640000D03*
D11*
X97790000Y-43180000D03*
%TD*%
D12*
%TO.C,R3*%
X45720000Y-59690000D03*
D13*
X45720000Y-49530000D03*
%TD*%
D15*
%TO.C,U4*%
X93980000Y-66025000D03*
D16*
X91440000Y-66025000D03*
X88900000Y-66025000D03*
X86360000Y-66025000D03*
X83820000Y-66025000D03*
X81280000Y-66025000D03*
X78740000Y-66025000D03*
X76200000Y-66025000D03*
X73660000Y-66025000D03*
X71120000Y-66025000D03*
X68580000Y-66025000D03*
X66040000Y-66025000D03*
X63500000Y-66025000D03*
X60960000Y-66025000D03*
X60960000Y-73645000D03*
X63500000Y-73645000D03*
X66040000Y-73645000D03*
X68580000Y-73645000D03*
X71120000Y-73645000D03*
X73660000Y-73645000D03*
X76200000Y-73645000D03*
X78740000Y-73645000D03*
X81280000Y-73645000D03*
X83820000Y-73645000D03*
X86360000Y-73645000D03*
X88900000Y-73645000D03*
X91440000Y-73645000D03*
X93980000Y-73645000D03*
%TD*%
D10*
%TO.C,C6*%
X36830000Y-54610000D03*
D11*
X39370000Y-54610000D03*
%TD*%
D10*
%TO.C,J3*%
X81285000Y-104140000D03*
D11*
X78745000Y-104140000D03*
X76205000Y-104140000D03*
X73665000Y-104140000D03*
X71125000Y-104140000D03*
X68585000Y-104140000D03*
X66045000Y-104140000D03*
X63505000Y-104140000D03*
X60965000Y-104140000D03*
X58425000Y-104140000D03*
X55885000Y-104140000D03*
X53345000Y-104140000D03*
X50805000Y-104140000D03*
X48265000Y-104140000D03*
X45725000Y-104140000D03*
X43185000Y-104140000D03*
X40645000Y-104140000D03*
X38105000Y-104140000D03*
X35565000Y-104140000D03*
X33025000Y-104140000D03*
X30485000Y-104140000D03*
X27945000Y-104140000D03*
%TD*%
D12*
%TO.C,SW1*%
X32980000Y-119380000D03*
X27980000Y-119380000D03*
%TD*%
%TO.C,R4*%
X48260000Y-59690000D03*
D13*
X48260000Y-49530000D03*
%TD*%
D10*
%TO.C,C7*%
X45720000Y-64770000D03*
D11*
X43180000Y-64770000D03*
%TD*%
D19*
%TO.C,U6*%
X36830000Y-86360000D03*
D20*
X39370000Y-88900000D03*
X39370000Y-86360000D03*
X41910000Y-88900000D03*
X41910000Y-86360000D03*
X44450000Y-88900000D03*
X46990000Y-86360000D03*
X44450000Y-86360000D03*
X46990000Y-83820000D03*
X44450000Y-83820000D03*
X46990000Y-81280000D03*
X44450000Y-81280000D03*
X46990000Y-78740000D03*
X44450000Y-78740000D03*
X46990000Y-76200000D03*
X44450000Y-76200000D03*
X46990000Y-73660000D03*
X44450000Y-71120000D03*
X44450000Y-73660000D03*
X41910000Y-71120000D03*
X41910000Y-73660000D03*
X39370000Y-71120000D03*
X39370000Y-73660000D03*
X36830000Y-71120000D03*
X36830000Y-73660000D03*
X34290000Y-71120000D03*
X34290000Y-73660000D03*
X31750000Y-71120000D03*
X29210000Y-73660000D03*
X31750000Y-73660000D03*
X29210000Y-76200000D03*
X31750000Y-76200000D03*
X29210000Y-78740000D03*
X31750000Y-78740000D03*
X29210000Y-81280000D03*
X31750000Y-81280000D03*
X29210000Y-83820000D03*
X31750000Y-83820000D03*
X29210000Y-86360000D03*
X31750000Y-88900000D03*
X31750000Y-86360000D03*
X34290000Y-88900000D03*
X34290000Y-86360000D03*
X36830000Y-88900000D03*
%TD*%
D21*
%TO.C,D1*%
X31750000Y-48260000D03*
D22*
X29210000Y-48260000D03*
%TD*%
D17*
%TO.C,C1*%
X50800000Y-64770000D03*
D12*
X53300000Y-64770000D03*
%TD*%
D23*
%TO.C,R6*%
X35560000Y-48260000D03*
D24*
X35560000Y-46360000D03*
%TD*%
D10*
%TO.C,C3*%
X31750000Y-54610000D03*
D11*
X29210000Y-54610000D03*
%TD*%
D10*
%TO.C,C5*%
X97790000Y-82550000D03*
D11*
X97790000Y-80010000D03*
%TD*%
M02*
