%TF.GenerationSoftware,KiCad,Pcbnew,(6.0.1)*%
%TF.CreationDate,2022-03-08T21:02:58+01:00*%
%TF.ProjectId,Z80CPM,5a383043-504d-42e6-9b69-6361645f7063,rev?*%
%TF.SameCoordinates,Original*%
%TF.FileFunction,Copper,L1,Top*%
%TF.FilePolarity,Positive*%
%FSLAX46Y46*%
G04 Gerber Fmt 4.6, Leading zero omitted, Abs format (unit mm)*
G04 Created by KiCad (PCBNEW (6.0.1)) date 2022-03-08 21:02:58*
%MOMM*%
%LPD*%
G01*
G04 APERTURE LIST*
%TA.AperFunction,ComponentPad*%
%ADD10R,1.700000X1.700000*%
%TD*%
%TA.AperFunction,ComponentPad*%
%ADD11O,1.700000X1.700000*%
%TD*%
%TA.AperFunction,ComponentPad*%
%ADD12C,1.600000*%
%TD*%
%TA.AperFunction,ComponentPad*%
%ADD13O,1.600000X1.600000*%
%TD*%
%TA.AperFunction,ComponentPad*%
%ADD14C,1.500000*%
%TD*%
%TA.AperFunction,ComponentPad*%
%ADD15R,1.600000X2.400000*%
%TD*%
%TA.AperFunction,ComponentPad*%
%ADD16O,1.600000X2.400000*%
%TD*%
%TA.AperFunction,ComponentPad*%
%ADD17R,1.600000X1.600000*%
%TD*%
%TA.AperFunction,ComponentPad*%
%ADD18C,4.000000*%
%TD*%
%TA.AperFunction,ComponentPad*%
%ADD19R,1.422400X1.422400*%
%TD*%
%TA.AperFunction,ComponentPad*%
%ADD20C,1.422400*%
%TD*%
%TA.AperFunction,ComponentPad*%
%ADD21R,1.800000X1.800000*%
%TD*%
%TA.AperFunction,ComponentPad*%
%ADD22C,1.800000*%
%TD*%
%TA.AperFunction,ComponentPad*%
%ADD23C,1.400000*%
%TD*%
%TA.AperFunction,ComponentPad*%
%ADD24O,1.400000X1.400000*%
%TD*%
%TA.AperFunction,ViaPad*%
%ADD25C,0.800000*%
%TD*%
%TA.AperFunction,Conductor*%
%ADD26C,0.500000*%
%TD*%
%TA.AperFunction,Conductor*%
%ADD27C,1.000000*%
%TD*%
G04 APERTURE END LIST*
D10*
%TO.P,,1*%
%TO.N,N/C*%
X36830000Y-121920000D03*
D11*
%TO.P,,2*%
X39370000Y-121920000D03*
%TO.P,,3*%
X41910000Y-121920000D03*
%TO.P,,4*%
X44450000Y-121920000D03*
%TO.P,,5*%
X46990000Y-121920000D03*
%TO.P,,6*%
X49530000Y-121920000D03*
%TO.P,,7*%
X52070000Y-121920000D03*
%TO.P,,8*%
X54610000Y-121920000D03*
%TO.P,,9*%
X57150000Y-121920000D03*
%TO.P,,10*%
X59690000Y-121920000D03*
%TO.P,,11*%
X62230000Y-121920000D03*
%TO.P,,12*%
X64770000Y-121920000D03*
%TO.P,,13*%
X67310000Y-121920000D03*
%TO.P,,14*%
X69850000Y-121920000D03*
%TO.P,,15*%
X72390000Y-121920000D03*
%TO.P,,16*%
X74930000Y-121920000D03*
%TO.P,,17*%
X77470000Y-121920000D03*
%TO.P,,18*%
X80010000Y-121920000D03*
%TO.P,,19*%
X82550000Y-121920000D03*
%TO.P,,20*%
X85090000Y-121920000D03*
%TO.P,,21*%
X87630000Y-121920000D03*
%TO.P,,22*%
X90170000Y-121920000D03*
%TO.P,,23*%
X92710000Y-121920000D03*
%TO.P,,24*%
X95250000Y-121920000D03*
%TO.P,,25*%
X97790000Y-121920000D03*
%TO.P,,26*%
X100330000Y-121920000D03*
%TD*%
D10*
%TO.P,,1*%
%TO.N,N/C*%
X36830000Y-119380000D03*
D11*
%TO.P,,2*%
X39370000Y-119380000D03*
%TO.P,,3*%
X41910000Y-119380000D03*
%TO.P,,4*%
X44450000Y-119380000D03*
%TO.P,,5*%
X46990000Y-119380000D03*
%TO.P,,6*%
X49530000Y-119380000D03*
%TO.P,,7*%
X52070000Y-119380000D03*
%TO.P,,8*%
X54610000Y-119380000D03*
%TO.P,,9*%
X57150000Y-119380000D03*
%TO.P,,10*%
X59690000Y-119380000D03*
%TO.P,,11*%
X62230000Y-119380000D03*
%TO.P,,12*%
X64770000Y-119380000D03*
%TO.P,,13*%
X67310000Y-119380000D03*
%TO.P,,14*%
X69850000Y-119380000D03*
%TO.P,,15*%
X72390000Y-119380000D03*
%TO.P,,16*%
X74930000Y-119380000D03*
%TO.P,,17*%
X77470000Y-119380000D03*
%TO.P,,18*%
X80010000Y-119380000D03*
%TO.P,,19*%
X82550000Y-119380000D03*
%TO.P,,20*%
X85090000Y-119380000D03*
%TO.P,,21*%
X87630000Y-119380000D03*
%TO.P,,22*%
X90170000Y-119380000D03*
%TO.P,,23*%
X92710000Y-119380000D03*
%TO.P,,24*%
X95250000Y-119380000D03*
%TO.P,,25*%
X97790000Y-119380000D03*
%TO.P,,26*%
X100330000Y-119380000D03*
%TD*%
D10*
%TO.P,,1*%
%TO.N,N/C*%
X31765000Y-109220000D03*
D11*
%TO.P,,2*%
X34305000Y-109220000D03*
%TO.P,,3*%
X36845000Y-109220000D03*
%TO.P,,4*%
X39385000Y-109220000D03*
%TO.P,,5*%
X41925000Y-109220000D03*
%TO.P,,6*%
X44465000Y-109220000D03*
%TO.P,,7*%
X47005000Y-109220000D03*
%TO.P,,8*%
X49545000Y-109220000D03*
%TO.P,,9*%
X52085000Y-109220000D03*
%TO.P,,10*%
X54625000Y-109220000D03*
%TO.P,,11*%
X57165000Y-109220000D03*
%TO.P,,12*%
X59705000Y-109220000D03*
%TO.P,,13*%
X62245000Y-109220000D03*
%TO.P,,14*%
X64785000Y-109220000D03*
%TO.P,,15*%
X67325000Y-109220000D03*
%TO.P,,16*%
X69865000Y-109220000D03*
%TO.P,,17*%
X72405000Y-109220000D03*
%TO.P,,18*%
X74945000Y-109220000D03*
%TO.P,,19*%
X77485000Y-109220000D03*
%TO.P,,20*%
X80025000Y-109220000D03*
%TO.P,,21*%
X82565000Y-109220000D03*
%TO.P,,22*%
X85105000Y-109220000D03*
%TO.P,,23*%
X87645000Y-109220000D03*
%TO.P,,24*%
X90185000Y-109220000D03*
%TO.P,,25*%
X92725000Y-109220000D03*
%TO.P,,26*%
X95265000Y-109220000D03*
%TO.P,,27*%
X97805000Y-109220000D03*
%TO.P,,28*%
X100345000Y-109220000D03*
%TD*%
D10*
%TO.P,,1*%
%TO.N,N/C*%
X31765000Y-111760000D03*
D11*
%TO.P,,2*%
X34305000Y-111760000D03*
%TO.P,,3*%
X36845000Y-111760000D03*
%TO.P,,4*%
X39385000Y-111760000D03*
%TO.P,,5*%
X41925000Y-111760000D03*
%TO.P,,6*%
X44465000Y-111760000D03*
%TO.P,,7*%
X47005000Y-111760000D03*
%TO.P,,8*%
X49545000Y-111760000D03*
%TO.P,,9*%
X52085000Y-111760000D03*
%TO.P,,10*%
X54625000Y-111760000D03*
%TO.P,,11*%
X57165000Y-111760000D03*
%TO.P,,12*%
X59705000Y-111760000D03*
%TO.P,,13*%
X62245000Y-111760000D03*
%TO.P,,14*%
X64785000Y-111760000D03*
%TO.P,,15*%
X67325000Y-111760000D03*
%TO.P,,16*%
X69865000Y-111760000D03*
%TO.P,,17*%
X72405000Y-111760000D03*
%TO.P,,18*%
X74945000Y-111760000D03*
%TO.P,,19*%
X77485000Y-111760000D03*
%TO.P,,20*%
X80025000Y-111760000D03*
%TO.P,,21*%
X82565000Y-111760000D03*
%TO.P,,22*%
X85105000Y-111760000D03*
%TO.P,,23*%
X87645000Y-111760000D03*
%TO.P,,24*%
X90185000Y-111760000D03*
%TO.P,,25*%
X92725000Y-111760000D03*
%TO.P,,26*%
X95265000Y-111760000D03*
%TO.P,,27*%
X97805000Y-111760000D03*
%TO.P,,28*%
X100345000Y-111760000D03*
%TD*%
D10*
%TO.P,,1*%
%TO.N,N/C*%
X31765000Y-114300000D03*
D11*
%TO.P,,2*%
X34305000Y-114300000D03*
%TO.P,,3*%
X36845000Y-114300000D03*
%TO.P,,4*%
X39385000Y-114300000D03*
%TO.P,,5*%
X41925000Y-114300000D03*
%TO.P,,6*%
X44465000Y-114300000D03*
%TO.P,,7*%
X47005000Y-114300000D03*
%TO.P,,8*%
X49545000Y-114300000D03*
%TO.P,,9*%
X52085000Y-114300000D03*
%TO.P,,10*%
X54625000Y-114300000D03*
%TO.P,,11*%
X57165000Y-114300000D03*
%TO.P,,12*%
X59705000Y-114300000D03*
%TO.P,,13*%
X62245000Y-114300000D03*
%TO.P,,14*%
X64785000Y-114300000D03*
%TO.P,,15*%
X67325000Y-114300000D03*
%TO.P,,16*%
X69865000Y-114300000D03*
%TO.P,,17*%
X72405000Y-114300000D03*
%TO.P,,18*%
X74945000Y-114300000D03*
%TO.P,,19*%
X77485000Y-114300000D03*
%TO.P,,20*%
X80025000Y-114300000D03*
%TO.P,,21*%
X82565000Y-114300000D03*
%TO.P,,22*%
X85105000Y-114300000D03*
%TO.P,,23*%
X87645000Y-114300000D03*
%TO.P,,24*%
X90185000Y-114300000D03*
%TO.P,,25*%
X92725000Y-114300000D03*
%TO.P,,26*%
X95265000Y-114300000D03*
%TO.P,,27*%
X97805000Y-114300000D03*
%TO.P,,28*%
X100345000Y-114300000D03*
%TD*%
%TO.P,,39*%
%TO.N,N/C*%
X102870000Y-124470000D03*
%TO.P,,38*%
X102870000Y-121930000D03*
%TO.P,,37*%
X102870000Y-119390000D03*
%TO.P,,36*%
X102870000Y-116850000D03*
%TO.P,,35*%
X102870000Y-114310000D03*
%TO.P,,34*%
X102870000Y-111770000D03*
%TO.P,,33*%
X102870000Y-109230000D03*
%TO.P,,32*%
X102870000Y-106690000D03*
%TO.P,,31*%
X102870000Y-104150000D03*
%TO.P,,30*%
X102870000Y-101610000D03*
%TO.P,,29*%
X102870000Y-99070000D03*
%TO.P,,28*%
X102870000Y-96530000D03*
%TO.P,,27*%
X102870000Y-93990000D03*
%TO.P,,26*%
X102870000Y-91450000D03*
%TO.P,,25*%
X102870000Y-88910000D03*
%TO.P,,24*%
X102870000Y-86370000D03*
%TO.P,,23*%
X102870000Y-83830000D03*
%TO.P,,22*%
X102870000Y-81290000D03*
%TO.P,,21*%
X102870000Y-78750000D03*
%TO.P,,20*%
X102870000Y-76210000D03*
%TO.P,,19*%
X102870000Y-73670000D03*
%TO.P,,18*%
X102870000Y-71130000D03*
%TO.P,,17*%
X102870000Y-68590000D03*
%TO.P,,16*%
X102870000Y-66050000D03*
%TO.P,,15*%
X102870000Y-63510000D03*
%TO.P,,14*%
X102870000Y-60970000D03*
%TO.P,,13*%
X102870000Y-58430000D03*
%TO.P,,12*%
X102870000Y-55890000D03*
%TO.P,,11*%
X102870000Y-53350000D03*
%TO.P,,10*%
X102870000Y-50810000D03*
%TO.P,,9*%
X102870000Y-48270000D03*
%TO.P,,8*%
X102870000Y-45730000D03*
%TO.P,,7*%
X102870000Y-43190000D03*
%TO.P,,6*%
X102870000Y-40650000D03*
%TO.P,,5*%
X102870000Y-38110000D03*
%TO.P,,4*%
X102870000Y-35570000D03*
%TO.P,,3*%
X102870000Y-33030000D03*
%TO.P,,2*%
X102870000Y-30490000D03*
D10*
%TO.P,,1*%
X102870000Y-27950000D03*
%TD*%
D11*
%TO.P,,39*%
%TO.N,N/C*%
X105410000Y-124470000D03*
%TO.P,,38*%
X105410000Y-121930000D03*
%TO.P,,37*%
X105410000Y-119390000D03*
%TO.P,,36*%
X105410000Y-116850000D03*
%TO.P,,35*%
X105410000Y-114310000D03*
%TO.P,,34*%
X105410000Y-111770000D03*
%TO.P,,33*%
X105410000Y-109230000D03*
%TO.P,,32*%
X105410000Y-106690000D03*
%TO.P,,31*%
X105410000Y-104150000D03*
%TO.P,,30*%
X105410000Y-101610000D03*
%TO.P,,29*%
X105410000Y-99070000D03*
%TO.P,,28*%
X105410000Y-96530000D03*
%TO.P,,27*%
X105410000Y-93990000D03*
%TO.P,,26*%
X105410000Y-91450000D03*
%TO.P,,25*%
X105410000Y-88910000D03*
%TO.P,,24*%
X105410000Y-86370000D03*
%TO.P,,23*%
X105410000Y-83830000D03*
%TO.P,,22*%
X105410000Y-81290000D03*
%TO.P,,21*%
X105410000Y-78750000D03*
%TO.P,,20*%
X105410000Y-76210000D03*
%TO.P,,19*%
X105410000Y-73670000D03*
%TO.P,,18*%
X105410000Y-71130000D03*
%TO.P,,17*%
X105410000Y-68590000D03*
%TO.P,,16*%
X105410000Y-66050000D03*
%TO.P,,15*%
X105410000Y-63510000D03*
%TO.P,,14*%
X105410000Y-60970000D03*
%TO.P,,13*%
X105410000Y-58430000D03*
%TO.P,,12*%
X105410000Y-55890000D03*
%TO.P,,11*%
X105410000Y-53350000D03*
%TO.P,,10*%
X105410000Y-50810000D03*
%TO.P,,9*%
X105410000Y-48270000D03*
%TO.P,,8*%
X105410000Y-45730000D03*
%TO.P,,7*%
X105410000Y-43190000D03*
%TO.P,,6*%
X105410000Y-40650000D03*
%TO.P,,5*%
X105410000Y-38110000D03*
%TO.P,,4*%
X105410000Y-35570000D03*
%TO.P,,3*%
X105410000Y-33030000D03*
%TO.P,,2*%
X105410000Y-30490000D03*
D10*
%TO.P,,1*%
X105410000Y-27950000D03*
%TD*%
D11*
%TO.P,,39*%
%TO.N,N/C*%
X107950000Y-124470000D03*
%TO.P,,38*%
X107950000Y-121930000D03*
%TO.P,,37*%
X107950000Y-119390000D03*
%TO.P,,36*%
X107950000Y-116850000D03*
%TO.P,,35*%
X107950000Y-114310000D03*
%TO.P,,34*%
X107950000Y-111770000D03*
%TO.P,,33*%
X107950000Y-109230000D03*
%TO.P,,32*%
X107950000Y-106690000D03*
%TO.P,,31*%
X107950000Y-104150000D03*
%TO.P,,30*%
X107950000Y-101610000D03*
%TO.P,,29*%
X107950000Y-99070000D03*
%TO.P,,28*%
X107950000Y-96530000D03*
%TO.P,,27*%
X107950000Y-93990000D03*
%TO.P,,26*%
X107950000Y-91450000D03*
%TO.P,,25*%
X107950000Y-88910000D03*
%TO.P,,24*%
X107950000Y-86370000D03*
%TO.P,,23*%
X107950000Y-83830000D03*
%TO.P,,22*%
X107950000Y-81290000D03*
%TO.P,,21*%
X107950000Y-78750000D03*
%TO.P,,20*%
X107950000Y-76210000D03*
%TO.P,,19*%
X107950000Y-73670000D03*
%TO.P,,18*%
X107950000Y-71130000D03*
%TO.P,,17*%
X107950000Y-68590000D03*
%TO.P,,16*%
X107950000Y-66050000D03*
%TO.P,,15*%
X107950000Y-63510000D03*
%TO.P,,14*%
X107950000Y-60970000D03*
%TO.P,,13*%
X107950000Y-58430000D03*
%TO.P,,12*%
X107950000Y-55890000D03*
%TO.P,,11*%
X107950000Y-53350000D03*
%TO.P,,10*%
X107950000Y-50810000D03*
%TO.P,,9*%
X107950000Y-48270000D03*
%TO.P,,8*%
X107950000Y-45730000D03*
%TO.P,,7*%
X107950000Y-43190000D03*
%TO.P,,6*%
X107950000Y-40650000D03*
%TO.P,,5*%
X107950000Y-38110000D03*
%TO.P,,4*%
X107950000Y-35570000D03*
%TO.P,,3*%
X107950000Y-33030000D03*
%TO.P,,2*%
X107950000Y-30490000D03*
D10*
%TO.P,,1*%
X107950000Y-27950000D03*
%TD*%
D11*
%TO.P,,39*%
%TO.N,N/C*%
X110490000Y-124470000D03*
%TO.P,,38*%
X110490000Y-121930000D03*
%TO.P,,37*%
X110490000Y-119390000D03*
%TO.P,,36*%
X110490000Y-116850000D03*
%TO.P,,35*%
X110490000Y-114310000D03*
%TO.P,,34*%
X110490000Y-111770000D03*
%TO.P,,33*%
X110490000Y-109230000D03*
%TO.P,,32*%
X110490000Y-106690000D03*
%TO.P,,31*%
X110490000Y-104150000D03*
%TO.P,,30*%
X110490000Y-101610000D03*
%TO.P,,29*%
X110490000Y-99070000D03*
%TO.P,,28*%
X110490000Y-96530000D03*
%TO.P,,27*%
X110490000Y-93990000D03*
%TO.P,,26*%
X110490000Y-91450000D03*
%TO.P,,25*%
X110490000Y-88910000D03*
%TO.P,,24*%
X110490000Y-86370000D03*
%TO.P,,23*%
X110490000Y-83830000D03*
%TO.P,,22*%
X110490000Y-81290000D03*
%TO.P,,21*%
X110490000Y-78750000D03*
%TO.P,,20*%
X110490000Y-76210000D03*
%TO.P,,19*%
X110490000Y-73670000D03*
%TO.P,,18*%
X110490000Y-71130000D03*
%TO.P,,17*%
X110490000Y-68590000D03*
%TO.P,,16*%
X110490000Y-66050000D03*
%TO.P,,15*%
X110490000Y-63510000D03*
%TO.P,,14*%
X110490000Y-60970000D03*
%TO.P,,13*%
X110490000Y-58430000D03*
%TO.P,,12*%
X110490000Y-55890000D03*
%TO.P,,11*%
X110490000Y-53350000D03*
%TO.P,,10*%
X110490000Y-50810000D03*
%TO.P,,9*%
X110490000Y-48270000D03*
%TO.P,,8*%
X110490000Y-45730000D03*
%TO.P,,7*%
X110490000Y-43190000D03*
%TO.P,,6*%
X110490000Y-40650000D03*
%TO.P,,5*%
X110490000Y-38110000D03*
%TO.P,,4*%
X110490000Y-35570000D03*
%TO.P,,3*%
X110490000Y-33030000D03*
%TO.P,,2*%
X110490000Y-30490000D03*
D10*
%TO.P,,1*%
X110490000Y-27950000D03*
%TD*%
D11*
%TO.P,,39*%
%TO.N,N/C*%
X113030000Y-124470000D03*
%TO.P,,38*%
X113030000Y-121930000D03*
%TO.P,,37*%
X113030000Y-119390000D03*
%TO.P,,36*%
X113030000Y-116850000D03*
%TO.P,,35*%
X113030000Y-114310000D03*
%TO.P,,34*%
X113030000Y-111770000D03*
%TO.P,,33*%
X113030000Y-109230000D03*
%TO.P,,32*%
X113030000Y-106690000D03*
%TO.P,,31*%
X113030000Y-104150000D03*
%TO.P,,30*%
X113030000Y-101610000D03*
%TO.P,,29*%
X113030000Y-99070000D03*
%TO.P,,28*%
X113030000Y-96530000D03*
%TO.P,,27*%
X113030000Y-93990000D03*
%TO.P,,26*%
X113030000Y-91450000D03*
%TO.P,,25*%
X113030000Y-88910000D03*
%TO.P,,24*%
X113030000Y-86370000D03*
%TO.P,,23*%
X113030000Y-83830000D03*
%TO.P,,22*%
X113030000Y-81290000D03*
%TO.P,,21*%
X113030000Y-78750000D03*
%TO.P,,20*%
X113030000Y-76210000D03*
%TO.P,,19*%
X113030000Y-73670000D03*
%TO.P,,18*%
X113030000Y-71130000D03*
%TO.P,,17*%
X113030000Y-68590000D03*
%TO.P,,16*%
X113030000Y-66050000D03*
%TO.P,,15*%
X113030000Y-63510000D03*
%TO.P,,14*%
X113030000Y-60970000D03*
%TO.P,,13*%
X113030000Y-58430000D03*
%TO.P,,12*%
X113030000Y-55890000D03*
%TO.P,,11*%
X113030000Y-53350000D03*
%TO.P,,10*%
X113030000Y-50810000D03*
%TO.P,,9*%
X113030000Y-48270000D03*
%TO.P,,8*%
X113030000Y-45730000D03*
%TO.P,,7*%
X113030000Y-43190000D03*
%TO.P,,6*%
X113030000Y-40650000D03*
%TO.P,,5*%
X113030000Y-38110000D03*
%TO.P,,4*%
X113030000Y-35570000D03*
%TO.P,,3*%
X113030000Y-33030000D03*
%TO.P,,2*%
X113030000Y-30490000D03*
D10*
%TO.P,,1*%
X113030000Y-27950000D03*
%TD*%
D11*
%TO.P,,39*%
%TO.N,N/C*%
X115570000Y-124470000D03*
%TO.P,,38*%
X115570000Y-121930000D03*
%TO.P,,37*%
X115570000Y-119390000D03*
%TO.P,,36*%
X115570000Y-116850000D03*
%TO.P,,35*%
X115570000Y-114310000D03*
%TO.P,,34*%
X115570000Y-111770000D03*
%TO.P,,33*%
X115570000Y-109230000D03*
%TO.P,,32*%
X115570000Y-106690000D03*
%TO.P,,31*%
X115570000Y-104150000D03*
%TO.P,,30*%
X115570000Y-101610000D03*
%TO.P,,29*%
X115570000Y-99070000D03*
%TO.P,,28*%
X115570000Y-96530000D03*
%TO.P,,27*%
X115570000Y-93990000D03*
%TO.P,,26*%
X115570000Y-91450000D03*
%TO.P,,25*%
X115570000Y-88910000D03*
%TO.P,,24*%
X115570000Y-86370000D03*
%TO.P,,23*%
X115570000Y-83830000D03*
%TO.P,,22*%
X115570000Y-81290000D03*
%TO.P,,21*%
X115570000Y-78750000D03*
%TO.P,,20*%
X115570000Y-76210000D03*
%TO.P,,19*%
X115570000Y-73670000D03*
%TO.P,,18*%
X115570000Y-71130000D03*
%TO.P,,17*%
X115570000Y-68590000D03*
%TO.P,,16*%
X115570000Y-66050000D03*
%TO.P,,15*%
X115570000Y-63510000D03*
%TO.P,,14*%
X115570000Y-60970000D03*
%TO.P,,13*%
X115570000Y-58430000D03*
%TO.P,,12*%
X115570000Y-55890000D03*
%TO.P,,11*%
X115570000Y-53350000D03*
%TO.P,,10*%
X115570000Y-50810000D03*
%TO.P,,9*%
X115570000Y-48270000D03*
%TO.P,,8*%
X115570000Y-45730000D03*
%TO.P,,7*%
X115570000Y-43190000D03*
%TO.P,,6*%
X115570000Y-40650000D03*
%TO.P,,5*%
X115570000Y-38110000D03*
%TO.P,,4*%
X115570000Y-35570000D03*
%TO.P,,3*%
X115570000Y-33030000D03*
%TO.P,,2*%
X115570000Y-30490000D03*
D10*
%TO.P,,1*%
X115570000Y-27950000D03*
%TD*%
D11*
%TO.P,,39*%
%TO.N,N/C*%
X118110000Y-124470000D03*
%TO.P,,38*%
X118110000Y-121930000D03*
%TO.P,,37*%
X118110000Y-119390000D03*
%TO.P,,36*%
X118110000Y-116850000D03*
%TO.P,,35*%
X118110000Y-114310000D03*
%TO.P,,34*%
X118110000Y-111770000D03*
%TO.P,,33*%
X118110000Y-109230000D03*
%TO.P,,32*%
X118110000Y-106690000D03*
%TO.P,,31*%
X118110000Y-104150000D03*
%TO.P,,30*%
X118110000Y-101610000D03*
%TO.P,,29*%
X118110000Y-99070000D03*
%TO.P,,28*%
X118110000Y-96530000D03*
%TO.P,,27*%
X118110000Y-93990000D03*
%TO.P,,26*%
X118110000Y-91450000D03*
%TO.P,,25*%
X118110000Y-88910000D03*
%TO.P,,24*%
X118110000Y-86370000D03*
%TO.P,,23*%
X118110000Y-83830000D03*
%TO.P,,22*%
X118110000Y-81290000D03*
%TO.P,,21*%
X118110000Y-78750000D03*
%TO.P,,20*%
X118110000Y-76210000D03*
%TO.P,,19*%
X118110000Y-73670000D03*
%TO.P,,18*%
X118110000Y-71130000D03*
%TO.P,,17*%
X118110000Y-68590000D03*
%TO.P,,16*%
X118110000Y-66050000D03*
%TO.P,,15*%
X118110000Y-63510000D03*
%TO.P,,14*%
X118110000Y-60970000D03*
%TO.P,,13*%
X118110000Y-58430000D03*
%TO.P,,12*%
X118110000Y-55890000D03*
%TO.P,,11*%
X118110000Y-53350000D03*
%TO.P,,10*%
X118110000Y-50810000D03*
%TO.P,,9*%
X118110000Y-48270000D03*
%TO.P,,8*%
X118110000Y-45730000D03*
%TO.P,,7*%
X118110000Y-43190000D03*
%TO.P,,6*%
X118110000Y-40650000D03*
%TO.P,,5*%
X118110000Y-38110000D03*
%TO.P,,4*%
X118110000Y-35570000D03*
%TO.P,,3*%
X118110000Y-33030000D03*
%TO.P,,2*%
X118110000Y-30490000D03*
D10*
%TO.P,,1*%
X118110000Y-27950000D03*
%TD*%
D11*
%TO.P,,39*%
%TO.N,N/C*%
X120650000Y-124470000D03*
%TO.P,,38*%
X120650000Y-121930000D03*
%TO.P,,37*%
X120650000Y-119390000D03*
%TO.P,,36*%
X120650000Y-116850000D03*
%TO.P,,35*%
X120650000Y-114310000D03*
%TO.P,,34*%
X120650000Y-111770000D03*
%TO.P,,33*%
X120650000Y-109230000D03*
%TO.P,,32*%
X120650000Y-106690000D03*
%TO.P,,31*%
X120650000Y-104150000D03*
%TO.P,,30*%
X120650000Y-101610000D03*
%TO.P,,29*%
X120650000Y-99070000D03*
%TO.P,,28*%
X120650000Y-96530000D03*
%TO.P,,27*%
X120650000Y-93990000D03*
%TO.P,,26*%
X120650000Y-91450000D03*
%TO.P,,25*%
X120650000Y-88910000D03*
%TO.P,,24*%
X120650000Y-86370000D03*
%TO.P,,23*%
X120650000Y-83830000D03*
%TO.P,,22*%
X120650000Y-81290000D03*
%TO.P,,21*%
X120650000Y-78750000D03*
%TO.P,,20*%
X120650000Y-76210000D03*
%TO.P,,19*%
X120650000Y-73670000D03*
%TO.P,,18*%
X120650000Y-71130000D03*
%TO.P,,17*%
X120650000Y-68590000D03*
%TO.P,,16*%
X120650000Y-66050000D03*
%TO.P,,15*%
X120650000Y-63510000D03*
%TO.P,,14*%
X120650000Y-60970000D03*
%TO.P,,13*%
X120650000Y-58430000D03*
%TO.P,,12*%
X120650000Y-55890000D03*
%TO.P,,11*%
X120650000Y-53350000D03*
%TO.P,,10*%
X120650000Y-50810000D03*
%TO.P,,9*%
X120650000Y-48270000D03*
%TO.P,,8*%
X120650000Y-45730000D03*
%TO.P,,7*%
X120650000Y-43190000D03*
%TO.P,,6*%
X120650000Y-40650000D03*
%TO.P,,5*%
X120650000Y-38110000D03*
%TO.P,,4*%
X120650000Y-35570000D03*
%TO.P,,3*%
X120650000Y-33030000D03*
%TO.P,,2*%
X120650000Y-30490000D03*
D10*
%TO.P,,1*%
X120650000Y-27950000D03*
%TD*%
%TO.P,,1*%
%TO.N,N/C*%
X100330000Y-99060000D03*
%TD*%
%TO.P,,1*%
%TO.N,N/C*%
X100330000Y-106680000D03*
%TD*%
%TO.P,,1*%
%TO.N,N/C*%
X97790000Y-106680000D03*
%TD*%
%TO.P,,1*%
%TO.N,N/C*%
X95250000Y-106680000D03*
%TD*%
%TO.P,,1*%
%TO.N,N/C*%
X92710000Y-106680000D03*
%TD*%
%TO.P,,1*%
%TO.N,N/C*%
X95250000Y-104140000D03*
%TD*%
%TO.P,,1*%
%TO.N,N/C*%
X97790000Y-104140000D03*
%TD*%
%TO.P,,1*%
%TO.N,N/C*%
X100330000Y-104140000D03*
%TD*%
%TO.P,,1*%
%TO.N,N/C*%
X100330000Y-101600000D03*
%TD*%
%TO.P,,1*%
%TO.N,N/C*%
X97790000Y-101600000D03*
%TD*%
%TO.P,,1*%
%TO.N,N/C*%
X31765000Y-124460000D03*
D11*
%TO.P,,2*%
X34305000Y-124460000D03*
%TO.P,,3*%
X36845000Y-124460000D03*
%TO.P,,4*%
X39385000Y-124460000D03*
%TO.P,,5*%
X41925000Y-124460000D03*
%TO.P,,6*%
X44465000Y-124460000D03*
%TO.P,,7*%
X47005000Y-124460000D03*
%TO.P,,8*%
X49545000Y-124460000D03*
%TO.P,,9*%
X52085000Y-124460000D03*
%TO.P,,10*%
X54625000Y-124460000D03*
%TO.P,,11*%
X57165000Y-124460000D03*
%TO.P,,12*%
X59705000Y-124460000D03*
%TO.P,,13*%
X62245000Y-124460000D03*
%TO.P,,14*%
X64785000Y-124460000D03*
%TO.P,,15*%
X67325000Y-124460000D03*
%TO.P,,16*%
X69865000Y-124460000D03*
%TO.P,,17*%
X72405000Y-124460000D03*
%TO.P,,18*%
X74945000Y-124460000D03*
%TO.P,,19*%
X77485000Y-124460000D03*
%TO.P,,20*%
X80025000Y-124460000D03*
%TO.P,,21*%
X82565000Y-124460000D03*
%TO.P,,22*%
X85105000Y-124460000D03*
%TO.P,,23*%
X87645000Y-124460000D03*
%TO.P,,24*%
X90185000Y-124460000D03*
%TO.P,,25*%
X92725000Y-124460000D03*
%TO.P,,26*%
X95265000Y-124460000D03*
%TO.P,,27*%
X97805000Y-124460000D03*
%TO.P,,28*%
X100345000Y-124460000D03*
%TD*%
D10*
%TO.P,,1*%
%TO.N,N/C*%
X36830000Y-116840000D03*
D11*
%TO.P,,2*%
X39370000Y-116840000D03*
%TO.P,,3*%
X41910000Y-116840000D03*
%TO.P,,4*%
X44450000Y-116840000D03*
%TO.P,,5*%
X46990000Y-116840000D03*
%TO.P,,6*%
X49530000Y-116840000D03*
%TO.P,,7*%
X52070000Y-116840000D03*
%TO.P,,8*%
X54610000Y-116840000D03*
%TO.P,,9*%
X57150000Y-116840000D03*
%TO.P,,10*%
X59690000Y-116840000D03*
%TO.P,,11*%
X62230000Y-116840000D03*
%TO.P,,12*%
X64770000Y-116840000D03*
%TO.P,,13*%
X67310000Y-116840000D03*
%TO.P,,14*%
X69850000Y-116840000D03*
%TO.P,,15*%
X72390000Y-116840000D03*
%TO.P,,16*%
X74930000Y-116840000D03*
%TO.P,,17*%
X77470000Y-116840000D03*
%TO.P,,18*%
X80010000Y-116840000D03*
%TO.P,,19*%
X82550000Y-116840000D03*
%TO.P,,20*%
X85090000Y-116840000D03*
%TO.P,,21*%
X87630000Y-116840000D03*
%TO.P,,22*%
X90170000Y-116840000D03*
%TO.P,,23*%
X92710000Y-116840000D03*
%TO.P,,24*%
X95250000Y-116840000D03*
%TO.P,,25*%
X97790000Y-116840000D03*
%TO.P,,26*%
X100330000Y-116840000D03*
%TD*%
%TO.P,,39*%
%TO.N,N/C*%
X123190000Y-124460000D03*
%TO.P,,38*%
X123190000Y-121920000D03*
%TO.P,,37*%
X123190000Y-119380000D03*
%TO.P,,36*%
X123190000Y-116840000D03*
%TO.P,,35*%
X123190000Y-114300000D03*
%TO.P,,34*%
X123190000Y-111760000D03*
%TO.P,,33*%
X123190000Y-109220000D03*
%TO.P,,32*%
X123190000Y-106680000D03*
%TO.P,,31*%
X123190000Y-104140000D03*
%TO.P,,30*%
X123190000Y-101600000D03*
%TO.P,,29*%
X123190000Y-99060000D03*
%TO.P,,28*%
X123190000Y-96520000D03*
%TO.P,,27*%
X123190000Y-93980000D03*
%TO.P,,26*%
X123190000Y-91440000D03*
%TO.P,,25*%
X123190000Y-88900000D03*
%TO.P,,24*%
X123190000Y-86360000D03*
%TO.P,,23*%
X123190000Y-83820000D03*
%TO.P,,22*%
X123190000Y-81280000D03*
%TO.P,,21*%
X123190000Y-78740000D03*
%TO.P,,20*%
X123190000Y-76200000D03*
%TO.P,,19*%
X123190000Y-73660000D03*
%TO.P,,18*%
X123190000Y-71120000D03*
%TO.P,,17*%
X123190000Y-68580000D03*
%TO.P,,16*%
X123190000Y-66040000D03*
%TO.P,,15*%
X123190000Y-63500000D03*
%TO.P,,14*%
X123190000Y-60960000D03*
%TO.P,,13*%
X123190000Y-58420000D03*
%TO.P,,12*%
X123190000Y-55880000D03*
%TO.P,,11*%
X123190000Y-53340000D03*
%TO.P,,10*%
X123190000Y-50800000D03*
%TO.P,,9*%
X123190000Y-48260000D03*
%TO.P,,8*%
X123190000Y-45720000D03*
%TO.P,,7*%
X123190000Y-43180000D03*
%TO.P,,6*%
X123190000Y-40640000D03*
%TO.P,,5*%
X123190000Y-38100000D03*
%TO.P,,4*%
X123190000Y-35560000D03*
%TO.P,,3*%
X123190000Y-33020000D03*
%TO.P,,2*%
X123190000Y-30480000D03*
D10*
%TO.P,,1*%
X123190000Y-27940000D03*
%TD*%
%TO.P,C2,1*%
%TO.N,+5V*%
X39370000Y-48260000D03*
D11*
%TO.P,C2,2*%
%TO.N,GND*%
X39370000Y-45720000D03*
%TD*%
D12*
%TO.P,R2,1*%
%TO.N,+5V*%
X50800000Y-59690000D03*
D13*
%TO.P,R2,2*%
%TO.N,INT\u005C*%
X50800000Y-49530000D03*
%TD*%
D14*
%TO.P,3\u002C6864Mhz1,1,1*%
%TO.N,X1{slash}CLK*%
X34200000Y-60960000D03*
%TO.P,3\u002C6864Mhz1,2,2*%
%TO.N,X2*%
X29300000Y-60960000D03*
%TD*%
D15*
%TO.P,U2,1,I1/CLK*%
%TO.N,/A13*%
X93975000Y-90180000D03*
D16*
%TO.P,U2,2,I2*%
%TO.N,/A14*%
X91435000Y-90180000D03*
%TO.P,U2,3,I3*%
%TO.N,/A15*%
X88895000Y-90180000D03*
%TO.P,U2,4,I4*%
%TO.N,MEMRQ\u005C*%
X86355000Y-90180000D03*
%TO.P,U2,5,I5*%
%TO.N,IORQ\u005C*%
X83815000Y-90180000D03*
%TO.P,U2,6,I6*%
%TO.N,OP7*%
X81275000Y-90180000D03*
%TO.P,U2,7,I7*%
%TO.N,X1{slash}CLK*%
X78735000Y-90180000D03*
%TO.P,U2,8,I8*%
%TO.N,RFSH\u005C*%
X76195000Y-90180000D03*
%TO.P,U2,9,I9*%
%TO.N,RD\u005C*%
X73655000Y-90180000D03*
%TO.P,U2,10,GND*%
%TO.N,GND*%
X71115000Y-90180000D03*
%TO.P,U2,11,I10/~{OE}*%
%TO.N,M1\u005C*%
X71115000Y-97800000D03*
%TO.P,U2,12,IO8*%
%TO.N,WR\u005C*%
X73655000Y-97800000D03*
%TO.P,U2,13,IO7*%
%TO.N,unconnected-(U2-Pad13)*%
X76195000Y-97800000D03*
%TO.P,U2,14,IO6*%
%TO.N,unconnected-(U2-Pad14)*%
X78735000Y-97800000D03*
%TO.P,U2,15,IO5*%
%TO.N,M1IOREQ\u005C*%
X81275000Y-97800000D03*
%TO.P,U2,16,IO4*%
%TO.N,CLK*%
X83815000Y-97800000D03*
%TO.P,U2,17,I03*%
%TO.N,Net-(U2-Pad17)*%
X86355000Y-97800000D03*
%TO.P,U2,18,IO2*%
%TO.N,Net-(U2-Pad18)*%
X88895000Y-97800000D03*
%TO.P,U2,19,IO1*%
%TO.N,Net-(U2-Pad19)*%
X91435000Y-97800000D03*
%TO.P,U2,20,VCC*%
%TO.N,+5V*%
X93975000Y-97800000D03*
%TD*%
D15*
%TO.P,U5,1,A14*%
%TO.N,/A14*%
X93970000Y-77455000D03*
D16*
%TO.P,U5,2,A12*%
%TO.N,/A12*%
X91430000Y-77455000D03*
%TO.P,U5,3,A7*%
%TO.N,/A7*%
X88890000Y-77455000D03*
%TO.P,U5,4,A6*%
%TO.N,/A6*%
X86350000Y-77455000D03*
%TO.P,U5,5,A5*%
%TO.N,/A5*%
X83810000Y-77455000D03*
%TO.P,U5,6,A4*%
%TO.N,/A4*%
X81270000Y-77455000D03*
%TO.P,U5,7,A3*%
%TO.N,/A3*%
X78730000Y-77455000D03*
%TO.P,U5,8,A2*%
%TO.N,/A2*%
X76190000Y-77455000D03*
%TO.P,U5,9,A1*%
%TO.N,/A1*%
X73650000Y-77455000D03*
%TO.P,U5,10,A0*%
%TO.N,/A0*%
X71110000Y-77455000D03*
%TO.P,U5,11,D0*%
%TO.N,/D0*%
X68570000Y-77455000D03*
%TO.P,U5,12,D1*%
%TO.N,/D1*%
X66030000Y-77455000D03*
%TO.P,U5,13,D2*%
%TO.N,/D2*%
X63490000Y-77455000D03*
%TO.P,U5,14,GND*%
%TO.N,GND*%
X60950000Y-77455000D03*
%TO.P,U5,15,D3*%
%TO.N,/D3*%
X60950000Y-85075000D03*
%TO.P,U5,16,D4*%
%TO.N,/D4*%
X63490000Y-85075000D03*
%TO.P,U5,17,D5*%
%TO.N,/D5*%
X66030000Y-85075000D03*
%TO.P,U5,18,D6*%
%TO.N,/D6*%
X68570000Y-85075000D03*
%TO.P,U5,19,D7*%
%TO.N,/D7*%
X71110000Y-85075000D03*
%TO.P,U5,20,~{CE}*%
%TO.N,Net-(U2-Pad17)*%
X73650000Y-85075000D03*
%TO.P,U5,21,A10*%
%TO.N,/A10*%
X76190000Y-85075000D03*
%TO.P,U5,22,~{OE}*%
%TO.N,RD\u005C*%
X78730000Y-85075000D03*
%TO.P,U5,23,A11*%
%TO.N,/A11*%
X81270000Y-85075000D03*
%TO.P,U5,24,A9*%
%TO.N,/A9*%
X83810000Y-85075000D03*
%TO.P,U5,25,A8*%
%TO.N,/A8*%
X86350000Y-85075000D03*
%TO.P,U5,26,A13*%
%TO.N,/A13*%
X88890000Y-85075000D03*
%TO.P,U5,27,~{WE}*%
%TO.N,WR\u005C*%
X91430000Y-85075000D03*
%TO.P,U5,28,VCC*%
%TO.N,+5V*%
X93970000Y-85075000D03*
%TD*%
D12*
%TO.P,R1,1*%
%TO.N,Net-(U1-Pad17)*%
X55880000Y-49530000D03*
D13*
%TO.P,R1,2*%
%TO.N,+5V*%
X55880000Y-59690000D03*
%TD*%
D17*
%TO.P,J1,1,VBUS*%
%TO.N,+5V*%
X33040000Y-41077500D03*
D12*
%TO.P,J1,2,D-*%
%TO.N,unconnected-(J1-Pad2)*%
X35540000Y-41077500D03*
%TO.P,J1,3,D+*%
%TO.N,unconnected-(J1-Pad3)*%
X35540000Y-39077500D03*
%TO.P,J1,4,GND*%
%TO.N,GND*%
X33040000Y-39077500D03*
D18*
%TO.P,J1,5,Shield*%
%TO.N,unconnected-(J1-Pad5)*%
X28290000Y-36217500D03*
X40290000Y-36217500D03*
%TD*%
D17*
%TO.P,U3,1,VPP*%
%TO.N,GND*%
X93970000Y-46985000D03*
D13*
%TO.P,U3,2,A12*%
%TO.N,/A12*%
X91430000Y-46985000D03*
%TO.P,U3,3,A7*%
%TO.N,/A7*%
X88890000Y-46985000D03*
%TO.P,U3,4,A6*%
%TO.N,/A6*%
X86350000Y-46985000D03*
%TO.P,U3,5,A5*%
%TO.N,/A5*%
X83810000Y-46985000D03*
%TO.P,U3,6,A4*%
%TO.N,/A4*%
X81270000Y-46985000D03*
%TO.P,U3,7,A3*%
%TO.N,/A3*%
X78730000Y-46985000D03*
%TO.P,U3,8,A2*%
%TO.N,/A2*%
X76190000Y-46985000D03*
%TO.P,U3,9,A1*%
%TO.N,/A1*%
X73650000Y-46985000D03*
%TO.P,U3,10,A0*%
%TO.N,/A0*%
X71110000Y-46985000D03*
%TO.P,U3,11,D0*%
%TO.N,/D0*%
X68570000Y-46985000D03*
%TO.P,U3,12,D1*%
%TO.N,/D1*%
X66030000Y-46985000D03*
%TO.P,U3,13,D2*%
%TO.N,/D2*%
X63490000Y-46985000D03*
%TO.P,U3,14,GND*%
%TO.N,GND*%
X60950000Y-46985000D03*
%TO.P,U3,15,D3*%
%TO.N,/D3*%
X60950000Y-62225000D03*
%TO.P,U3,16,D4*%
%TO.N,/D4*%
X63490000Y-62225000D03*
%TO.P,U3,17,D5*%
%TO.N,/D5*%
X66030000Y-62225000D03*
%TO.P,U3,18,D6*%
%TO.N,/D6*%
X68570000Y-62225000D03*
%TO.P,U3,19,D7*%
%TO.N,/D7*%
X71110000Y-62225000D03*
%TO.P,U3,20,~{CE}*%
%TO.N,Net-(U2-Pad19)*%
X73650000Y-62225000D03*
%TO.P,U3,21,A10*%
%TO.N,/A10*%
X76190000Y-62225000D03*
%TO.P,U3,22,~{OE}*%
%TO.N,RD\u005C*%
X78730000Y-62225000D03*
%TO.P,U3,23,A11*%
%TO.N,/A11*%
X81270000Y-62225000D03*
%TO.P,U3,24,A9*%
%TO.N,/A9*%
X83810000Y-62225000D03*
%TO.P,U3,25,A8*%
%TO.N,/A8*%
X86350000Y-62225000D03*
%TO.P,U3,26,A13*%
%TO.N,/A13*%
X88890000Y-62225000D03*
%TO.P,U3,27,A14*%
%TO.N,+5V*%
X91430000Y-62225000D03*
%TO.P,U3,28,VCC*%
X93970000Y-62225000D03*
%TD*%
D10*
%TO.P,J2,1,Pin_1*%
%TO.N,GND*%
X35550000Y-97790000D03*
D11*
%TO.P,J2,2,Pin_2*%
%TO.N,+5V*%
X33010000Y-97790000D03*
%TO.P,J2,3,Pin_3*%
%TO.N,/B2*%
X30470000Y-97790000D03*
%TO.P,J2,4,Pin_4*%
%TO.N,/B3*%
X27930000Y-97790000D03*
%TD*%
D15*
%TO.P,U1,1,A11*%
%TO.N,/A11*%
X93920000Y-28085000D03*
D16*
%TO.P,U1,2,A12*%
%TO.N,/A12*%
X91380000Y-28085000D03*
%TO.P,U1,3,A13*%
%TO.N,/A13*%
X88840000Y-28085000D03*
%TO.P,U1,4,A14*%
%TO.N,/A14*%
X86300000Y-28085000D03*
%TO.P,U1,5,A15*%
%TO.N,/A15*%
X83760000Y-28085000D03*
%TO.P,U1,6,~{CLK}*%
%TO.N,CLK*%
X81220000Y-28085000D03*
%TO.P,U1,7,D4*%
%TO.N,/D4*%
X78680000Y-28085000D03*
%TO.P,U1,8,D3*%
%TO.N,/D3*%
X76140000Y-28085000D03*
%TO.P,U1,9,D5*%
%TO.N,/D5*%
X73600000Y-28085000D03*
%TO.P,U1,10,D6*%
%TO.N,/D6*%
X71060000Y-28085000D03*
%TO.P,U1,11,VCC*%
%TO.N,+5V*%
X68520000Y-28085000D03*
%TO.P,U1,12,D2*%
%TO.N,/D2*%
X65980000Y-28085000D03*
%TO.P,U1,13,D7*%
%TO.N,/D7*%
X63440000Y-28085000D03*
%TO.P,U1,14,D0*%
%TO.N,/D0*%
X60900000Y-28085000D03*
%TO.P,U1,15,D1*%
%TO.N,/D1*%
X58360000Y-28085000D03*
%TO.P,U1,16,~{INT}*%
%TO.N,INT\u005C*%
X55820000Y-28085000D03*
%TO.P,U1,17,~{NMI}*%
%TO.N,Net-(U1-Pad17)*%
X53280000Y-28085000D03*
%TO.P,U1,18,~{HALT}*%
%TO.N,unconnected-(U1-Pad18)*%
X50740000Y-28085000D03*
%TO.P,U1,19,~{MREQ}*%
%TO.N,MEMRQ\u005C*%
X48200000Y-28085000D03*
%TO.P,U1,20,~{IORQ}*%
%TO.N,IORQ\u005C*%
X45660000Y-28085000D03*
%TO.P,U1,21,~{RD}*%
%TO.N,RD\u005C*%
X45660000Y-43325000D03*
%TO.P,U1,22,~{WR}*%
%TO.N,WR\u005C*%
X48200000Y-43325000D03*
%TO.P,U1,23,~{BUSACK}*%
%TO.N,unconnected-(U1-Pad23)*%
X50740000Y-43325000D03*
%TO.P,U1,24,~{WAIT}*%
%TO.N,Net-(R3-Pad2)*%
X53280000Y-43325000D03*
%TO.P,U1,25,~{BUSRQ}*%
%TO.N,Net-(R4-Pad2)*%
X55820000Y-43325000D03*
%TO.P,U1,26,~{RESET}*%
%TO.N,RES\u005C*%
X58360000Y-43325000D03*
%TO.P,U1,27,~{M1}*%
%TO.N,M1\u005C*%
X60900000Y-43325000D03*
%TO.P,U1,28,~{RFSH}*%
%TO.N,RFSH\u005C*%
X63440000Y-43325000D03*
%TO.P,U1,29,GND*%
%TO.N,GND*%
X65980000Y-43325000D03*
%TO.P,U1,30,A0*%
%TO.N,/A0*%
X68520000Y-43325000D03*
%TO.P,U1,31,A1*%
%TO.N,/A1*%
X71060000Y-43325000D03*
%TO.P,U1,32,A2*%
%TO.N,/A2*%
X73600000Y-43325000D03*
%TO.P,U1,33,A3*%
%TO.N,/A3*%
X76140000Y-43325000D03*
%TO.P,U1,34,A4*%
%TO.N,/A4*%
X78680000Y-43325000D03*
%TO.P,U1,35,A5*%
%TO.N,/A5*%
X81220000Y-43325000D03*
%TO.P,U1,36,A6*%
%TO.N,/A6*%
X83760000Y-43325000D03*
%TO.P,U1,37,A7*%
%TO.N,/A7*%
X86300000Y-43325000D03*
%TO.P,U1,38,A8*%
%TO.N,/A8*%
X88840000Y-43325000D03*
%TO.P,U1,39,A9*%
%TO.N,/A9*%
X91380000Y-43325000D03*
%TO.P,U1,40,A10*%
%TO.N,/A10*%
X93920000Y-43325000D03*
%TD*%
D12*
%TO.P,R5,1*%
%TO.N,+5V*%
X53340000Y-59690000D03*
D13*
%TO.P,R5,2*%
%TO.N,RES\u005C*%
X53340000Y-49530000D03*
%TD*%
D12*
%TO.P,R7,1*%
%TO.N,+5V*%
X38100000Y-93980000D03*
D13*
%TO.P,R7,2*%
%TO.N,Net-(R7-Pad2)*%
X27940000Y-93980000D03*
%TD*%
D10*
%TO.P,C4,1*%
%TO.N,+5V*%
X97790000Y-71120000D03*
D11*
%TO.P,C4,2*%
%TO.N,GND*%
X97790000Y-68580000D03*
%TD*%
D10*
%TO.P,C8,1*%
%TO.N,+5V*%
X97790000Y-54610000D03*
D11*
%TO.P,C8,2*%
%TO.N,GND*%
X97790000Y-57150000D03*
%TD*%
D10*
%TO.P,C9,1*%
%TO.N,+5V*%
X97790000Y-40640000D03*
D11*
%TO.P,C9,2*%
%TO.N,GND*%
X97790000Y-43180000D03*
%TD*%
D12*
%TO.P,R3,1*%
%TO.N,+5V*%
X45720000Y-59690000D03*
D13*
%TO.P,R3,2*%
%TO.N,Net-(R3-Pad2)*%
X45720000Y-49530000D03*
%TD*%
D15*
%TO.P,U4,1,A14*%
%TO.N,/A14*%
X93980000Y-66025000D03*
D16*
%TO.P,U4,2,A12*%
%TO.N,/A12*%
X91440000Y-66025000D03*
%TO.P,U4,3,A7*%
%TO.N,/A7*%
X88900000Y-66025000D03*
%TO.P,U4,4,A6*%
%TO.N,/A6*%
X86360000Y-66025000D03*
%TO.P,U4,5,A5*%
%TO.N,/A5*%
X83820000Y-66025000D03*
%TO.P,U4,6,A4*%
%TO.N,/A4*%
X81280000Y-66025000D03*
%TO.P,U4,7,A3*%
%TO.N,/A3*%
X78740000Y-66025000D03*
%TO.P,U4,8,A2*%
%TO.N,/A2*%
X76200000Y-66025000D03*
%TO.P,U4,9,A1*%
%TO.N,/A1*%
X73660000Y-66025000D03*
%TO.P,U4,10,A0*%
%TO.N,/A0*%
X71120000Y-66025000D03*
%TO.P,U4,11,D0*%
%TO.N,/D0*%
X68580000Y-66025000D03*
%TO.P,U4,12,D1*%
%TO.N,/D1*%
X66040000Y-66025000D03*
%TO.P,U4,13,D2*%
%TO.N,/D2*%
X63500000Y-66025000D03*
%TO.P,U4,14,GND*%
%TO.N,GND*%
X60960000Y-66025000D03*
%TO.P,U4,15,D3*%
%TO.N,/D3*%
X60960000Y-73645000D03*
%TO.P,U4,16,D4*%
%TO.N,/D4*%
X63500000Y-73645000D03*
%TO.P,U4,17,D5*%
%TO.N,/D5*%
X66040000Y-73645000D03*
%TO.P,U4,18,D6*%
%TO.N,/D6*%
X68580000Y-73645000D03*
%TO.P,U4,19,D7*%
%TO.N,/D7*%
X71120000Y-73645000D03*
%TO.P,U4,20,~{CE}*%
%TO.N,Net-(U2-Pad18)*%
X73660000Y-73645000D03*
%TO.P,U4,21,A10*%
%TO.N,/A10*%
X76200000Y-73645000D03*
%TO.P,U4,22,~{OE}*%
%TO.N,RD\u005C*%
X78740000Y-73645000D03*
%TO.P,U4,23,A11*%
%TO.N,/A11*%
X81280000Y-73645000D03*
%TO.P,U4,24,A9*%
%TO.N,/A9*%
X83820000Y-73645000D03*
%TO.P,U4,25,A8*%
%TO.N,/A8*%
X86360000Y-73645000D03*
%TO.P,U4,26,A13*%
%TO.N,/A13*%
X88900000Y-73645000D03*
%TO.P,U4,27,~{WE}*%
%TO.N,WR\u005C*%
X91440000Y-73645000D03*
%TO.P,U4,28,VCC*%
%TO.N,+5V*%
X93980000Y-73645000D03*
%TD*%
D10*
%TO.P,C6,1*%
%TO.N,GND*%
X36830000Y-54610000D03*
D11*
%TO.P,C6,2*%
%TO.N,X1{slash}CLK*%
X39370000Y-54610000D03*
%TD*%
D10*
%TO.P,J3,1,Pin_1*%
%TO.N,+5V*%
X81285000Y-104140000D03*
D11*
%TO.P,J3,2,Pin_2*%
X78745000Y-104140000D03*
%TO.P,J3,3,Pin_3*%
%TO.N,GND*%
X76205000Y-104140000D03*
%TO.P,J3,4,Pin_4*%
X73665000Y-104140000D03*
%TO.P,J3,5,Pin_5*%
%TO.N,/B0*%
X71125000Y-104140000D03*
%TO.P,J3,6,Pin_6*%
%TO.N,/B1*%
X68585000Y-104140000D03*
%TO.P,J3,7,Pin_7*%
%TO.N,/B2*%
X66045000Y-104140000D03*
%TO.P,J3,8,Pin_8*%
%TO.N,/B3*%
X63505000Y-104140000D03*
%TO.P,J3,9,Pin_9*%
%TO.N,/B4*%
X60965000Y-104140000D03*
%TO.P,J3,10,Pin_10*%
%TO.N,/B5*%
X58425000Y-104140000D03*
%TO.P,J3,11,Pin_11*%
%TO.N,/B6*%
X55885000Y-104140000D03*
%TO.P,J3,12,Pin_12*%
%TO.N,/B7*%
X53345000Y-104140000D03*
%TO.P,J3,13,Pin_13*%
%TO.N,/B8*%
X50805000Y-104140000D03*
%TO.P,J3,14,Pin_14*%
%TO.N,/B9*%
X48265000Y-104140000D03*
%TO.P,J3,15,Pin_15*%
%TO.N,/B10*%
X45725000Y-104140000D03*
%TO.P,J3,16,Pin_16*%
%TO.N,OP7*%
X43185000Y-104140000D03*
%TO.P,J3,17,Pin_17*%
%TO.N,/B12*%
X40645000Y-104140000D03*
%TO.P,J3,18,Pin_18*%
%TO.N,/B13*%
X38105000Y-104140000D03*
%TO.P,J3,19,Pin_19*%
%TO.N,/B14*%
X35565000Y-104140000D03*
%TO.P,J3,20,Pin_20*%
%TO.N,/B15*%
X33025000Y-104140000D03*
%TO.P,J3,21,Pin_21*%
%TO.N,/B16*%
X30485000Y-104140000D03*
%TO.P,J3,22,Pin_22*%
%TO.N,/B17*%
X27945000Y-104140000D03*
%TD*%
D12*
%TO.P,SW1,1,1*%
%TO.N,GND*%
X32980000Y-119380000D03*
%TO.P,SW1,2,2*%
%TO.N,RES\u005C*%
X27980000Y-119380000D03*
%TD*%
%TO.P,R4,1*%
%TO.N,+5V*%
X48260000Y-59690000D03*
D13*
%TO.P,R4,2*%
%TO.N,Net-(R4-Pad2)*%
X48260000Y-49530000D03*
%TD*%
D10*
%TO.P,C7,1*%
%TO.N,+5V*%
X45720000Y-64770000D03*
D11*
%TO.P,C7,2*%
%TO.N,GND*%
X43180000Y-64770000D03*
%TD*%
D19*
%TO.P,U6,1,NC*%
%TO.N,unconnected-(U6-Pad1)*%
X36830000Y-86360000D03*
D20*
%TO.P,U6,2,A1*%
%TO.N,/A0*%
X39370000Y-88900000D03*
%TO.P,U6,3,IP3*%
%TO.N,/B15*%
X39370000Y-86360000D03*
%TO.P,U6,4,A2*%
%TO.N,/A1*%
X41910000Y-88900000D03*
%TO.P,U6,5,IP1*%
%TO.N,/B13*%
X41910000Y-86360000D03*
%TO.P,U6,6,A3*%
%TO.N,/A2*%
X44450000Y-88900000D03*
%TO.P,U6,7,A4*%
%TO.N,/A3*%
X46990000Y-86360000D03*
%TO.P,U6,8,IP0*%
%TO.N,/B12*%
X44450000Y-86360000D03*
%TO.P,U6,9,R/~{W}*%
%TO.N,WR\u005C*%
X46990000Y-83820000D03*
%TO.P,U6,10,~{DTACK}*%
%TO.N,unconnected-(U6-Pad10)*%
X44450000Y-83820000D03*
%TO.P,U6,11,RXDB*%
%TO.N,/B2*%
X46990000Y-81280000D03*
%TO.P,U6,12,NC*%
%TO.N,unconnected-(U6-Pad12)*%
X44450000Y-81280000D03*
%TO.P,U6,13,TXDB*%
%TO.N,/B3*%
X46990000Y-78740000D03*
%TO.P,U6,14,OP1*%
%TO.N,/B5*%
X44450000Y-78740000D03*
%TO.P,U6,15,OP3*%
%TO.N,/B7*%
X46990000Y-76200000D03*
%TO.P,U6,16,OP5*%
%TO.N,/B9*%
X44450000Y-76200000D03*
%TO.P,U6,17,OP7*%
%TO.N,OP7*%
X46990000Y-73660000D03*
%TO.P,U6,18,D1*%
%TO.N,/D1*%
X44450000Y-71120000D03*
%TO.P,U6,19,D3*%
%TO.N,/D3*%
X44450000Y-73660000D03*
%TO.P,U6,20,D5*%
%TO.N,/D5*%
X41910000Y-71120000D03*
%TO.P,U6,21,D7*%
%TO.N,/D7*%
X41910000Y-73660000D03*
%TO.P,U6,22,GND*%
%TO.N,GND*%
X39370000Y-71120000D03*
%TO.P,U6,23,NC*%
%TO.N,unconnected-(U6-Pad23)*%
X39370000Y-73660000D03*
%TO.P,U6,24,~{INTR}*%
%TO.N,INT\u005C*%
X36830000Y-71120000D03*
%TO.P,U6,25,D6*%
%TO.N,/D6*%
X36830000Y-73660000D03*
%TO.P,U6,26,D4*%
%TO.N,/D4*%
X34290000Y-71120000D03*
%TO.P,U6,27,D2*%
%TO.N,/D2*%
X34290000Y-73660000D03*
%TO.P,U6,28,D0*%
%TO.N,/D0*%
X31750000Y-71120000D03*
%TO.P,U6,29,OP6*%
%TO.N,/B10*%
X29210000Y-73660000D03*
%TO.P,U6,30,OP4*%
%TO.N,/B8*%
X31750000Y-73660000D03*
%TO.P,U6,31,OP2*%
%TO.N,/B6*%
X29210000Y-76200000D03*
%TO.P,U6,32,OP0*%
%TO.N,/B4*%
X31750000Y-76200000D03*
%TO.P,U6,33,TXDA*%
%TO.N,/B1*%
X29210000Y-78740000D03*
%TO.P,U6,34,NC*%
%TO.N,unconnected-(U6-Pad34)*%
X31750000Y-78740000D03*
%TO.P,U6,35,RXDA*%
%TO.N,/B0*%
X29210000Y-81280000D03*
%TO.P,U6,36,X1/CLK*%
%TO.N,X1{slash}CLK*%
X31750000Y-81280000D03*
%TO.P,U6,37,X2*%
%TO.N,X2*%
X29210000Y-83820000D03*
%TO.P,U6,38,~{RESET}*%
%TO.N,RES\u005C*%
X31750000Y-83820000D03*
%TO.P,U6,39,~{CS}*%
%TO.N,M1IOREQ\u005C*%
X29210000Y-86360000D03*
%TO.P,U6,40,IP2*%
%TO.N,/B14*%
X31750000Y-88900000D03*
%TO.P,U6,41,~{IACK}*%
%TO.N,Net-(R7-Pad2)*%
X31750000Y-86360000D03*
%TO.P,U6,42,IP5*%
%TO.N,/B17*%
X34290000Y-88900000D03*
%TO.P,U6,43,IP4*%
%TO.N,/B16*%
X34290000Y-86360000D03*
%TO.P,U6,44,VCC*%
%TO.N,+5V*%
X36830000Y-88900000D03*
%TD*%
D21*
%TO.P,D1,1,K*%
%TO.N,Net-(D1-Pad1)*%
X31750000Y-48260000D03*
D22*
%TO.P,D1,2,A*%
%TO.N,GND*%
X29210000Y-48260000D03*
%TD*%
D17*
%TO.P,C1,1*%
%TO.N,RES\u005C*%
X50800000Y-64770000D03*
D12*
%TO.P,C1,2*%
%TO.N,GND*%
X53300000Y-64770000D03*
%TD*%
D23*
%TO.P,R6,1*%
%TO.N,+5V*%
X35560000Y-48260000D03*
D24*
%TO.P,R6,2*%
%TO.N,Net-(D1-Pad1)*%
X35560000Y-46360000D03*
%TD*%
D10*
%TO.P,C3,1*%
%TO.N,GND*%
X31750000Y-54610000D03*
D11*
%TO.P,C3,2*%
%TO.N,X2*%
X29210000Y-54610000D03*
%TD*%
D10*
%TO.P,C5,1*%
%TO.N,+5V*%
X97790000Y-82550000D03*
D11*
%TO.P,C5,2*%
%TO.N,GND*%
X97790000Y-80010000D03*
%TD*%
D25*
%TO.N,Net-(U1-Pad17)*%
X54530300Y-46080000D03*
%TO.N,RES\u005C*%
X26337200Y-73174700D03*
%TO.N,/A11*%
X81442700Y-49223300D03*
X91819400Y-36081000D03*
%TO.N,/A12*%
X92756100Y-38080600D03*
%TO.N,X1{slash}CLK*%
X55639000Y-98742800D03*
X41780800Y-83536200D03*
X75514800Y-94795300D03*
%TO.N,/D3*%
X61474600Y-49790300D03*
%TO.N,/D5*%
X73600000Y-33608000D03*
X66393500Y-49446800D03*
%TO.N,/D6*%
X71261100Y-32036000D03*
X44715900Y-61362400D03*
%TO.N,/D2*%
X69501500Y-41753100D03*
X64750300Y-71866700D03*
%TO.N,/D7*%
X51073500Y-58281700D03*
X62212400Y-32507500D03*
%TO.N,MEMRQ\u005C*%
X95658700Y-37344300D03*
%TO.N,IORQ\u005C*%
X93240100Y-36434400D03*
%TO.N,WR\u005C*%
X79527500Y-87206900D03*
X77465000Y-82895600D03*
%TO.N,GND*%
X59872800Y-83615400D03*
%TO.N,/A1*%
X44482200Y-44571200D03*
X30518900Y-75563100D03*
%TO.N,/A2*%
X75914500Y-82768400D03*
%TO.N,/A9*%
X91253000Y-54818900D03*
%TO.N,M1IOREQ\u005C*%
X56022100Y-87272200D03*
X57948100Y-90269500D03*
%TO.N,RFSH\u005C*%
X95131800Y-57717900D03*
X90423800Y-75534600D03*
%TO.N,OP7*%
X57676400Y-89093400D03*
%TO.N,Net-(U2-Pad18)*%
X76819400Y-80301900D03*
%TO.N,Net-(U2-Pad19)*%
X74131500Y-79741300D03*
X74905400Y-91716000D03*
%TO.N,/B1*%
X39833800Y-80147500D03*
%TO.N,/B2*%
X50937900Y-90245800D03*
%TO.N,/B3*%
X52529700Y-92771200D03*
X52594200Y-89346700D03*
%TO.N,/B4*%
X41921100Y-80982900D03*
%TO.N,/B6*%
X41672100Y-90677300D03*
%TO.N,/B7*%
X58157900Y-93887600D03*
%TO.N,/B9*%
X56806100Y-93192500D03*
%TO.N,/B12*%
X42126000Y-91677100D03*
%TO.N,+5V*%
X55457300Y-100255900D03*
X46392000Y-91490900D03*
%TD*%
D26*
%TO.N,Net-(U1-Pad17)*%
X53280000Y-29785000D02*
X54530300Y-31035300D01*
X54530300Y-31035300D02*
X54530300Y-46080000D01*
X53280000Y-28085000D02*
X53280000Y-29785000D01*
%TO.N,INT\u005C*%
X50800000Y-49530000D02*
X50800000Y-50830000D01*
X57090000Y-44741100D02*
X54159300Y-47671800D01*
X36830000Y-64800000D02*
X50800000Y-50830000D01*
X54159300Y-47671800D02*
X52658200Y-47671800D01*
X36830000Y-71120000D02*
X36830000Y-64800000D01*
X52658200Y-47671800D02*
X50800000Y-49530000D01*
X57090000Y-31055000D02*
X57090000Y-44741100D01*
X55820000Y-28085000D02*
X55820000Y-29785000D01*
X55820000Y-29785000D02*
X57090000Y-31055000D01*
%TO.N,RES\u005C*%
X52070000Y-52100000D02*
X52070000Y-62200000D01*
X26337200Y-82627700D02*
X28799500Y-85090000D01*
X53340000Y-50830000D02*
X52070000Y-52100000D01*
X50800000Y-64770000D02*
X50800000Y-63470000D01*
X25926600Y-87962900D02*
X28799500Y-85090000D01*
X30480000Y-85090000D02*
X31750000Y-83820000D01*
X26337200Y-73174700D02*
X26337200Y-82627700D01*
X53340000Y-50120200D02*
X58360000Y-45100200D01*
X58360000Y-45100200D02*
X58360000Y-43325000D01*
X25926600Y-117326600D02*
X25926600Y-87962900D01*
X53340000Y-49530000D02*
X53340000Y-50120200D01*
X27980000Y-119380000D02*
X25926600Y-117326600D01*
X28799500Y-85090000D02*
X30480000Y-85090000D01*
X53340000Y-50120200D02*
X53340000Y-50830000D01*
X52070000Y-62200000D02*
X50800000Y-63470000D01*
%TO.N,/A11*%
X81270000Y-60925000D02*
X81442700Y-60752300D01*
X82539900Y-82105100D02*
X81270000Y-83375000D01*
X81382500Y-75345000D02*
X82539900Y-76502400D01*
X82539900Y-76502400D02*
X82539900Y-82105100D01*
X81442700Y-60752300D02*
X81442700Y-49223300D01*
X81280000Y-73645000D02*
X81280000Y-75345000D01*
X93920000Y-28085000D02*
X93920000Y-33980400D01*
X81270000Y-85075000D02*
X81270000Y-83375000D01*
X81270000Y-62225000D02*
X81270000Y-60925000D01*
X81280000Y-75345000D02*
X81382500Y-75345000D01*
X93920000Y-33980400D02*
X91819400Y-36081000D01*
%TO.N,/A12*%
X91380000Y-28085000D02*
X91380000Y-29785000D01*
X92616500Y-38080600D02*
X92756100Y-38080600D01*
X92699800Y-63065200D02*
X91440000Y-64325000D01*
X90969100Y-36433200D02*
X92616500Y-38080600D01*
X91430000Y-46985000D02*
X91430000Y-48285000D01*
X91440000Y-66025000D02*
X91440000Y-64325000D01*
X91380000Y-29785000D02*
X90969100Y-30195900D01*
X90969100Y-30195900D02*
X90969100Y-36433200D01*
X92699800Y-49554800D02*
X92699800Y-63065200D01*
X91430000Y-48285000D02*
X92699800Y-49554800D01*
%TO.N,/A13*%
X87610400Y-64624100D02*
X87610400Y-67794700D01*
X88890000Y-62225000D02*
X88890000Y-63344500D01*
X90165000Y-88050000D02*
X90165000Y-91081900D01*
X90165000Y-91081900D02*
X90955600Y-91872500D01*
X92282500Y-91872500D02*
X93975000Y-90180000D01*
X88900000Y-75345000D02*
X89000200Y-75345000D01*
X88900000Y-73645000D02*
X88900000Y-75345000D01*
X90955600Y-91872500D02*
X92282500Y-91872500D01*
X90159900Y-82105100D02*
X88890000Y-83375000D01*
X87610400Y-67794700D02*
X88900000Y-69084300D01*
X88900000Y-69084300D02*
X88900000Y-73645000D01*
X90159900Y-76504700D02*
X90159900Y-82105100D01*
X88890000Y-85075000D02*
X88890000Y-86775000D01*
X88890000Y-63344500D02*
X87610400Y-64624100D01*
X88890000Y-85075000D02*
X88890000Y-83375000D01*
X89000200Y-75345000D02*
X90159900Y-76504700D01*
X88890000Y-86775000D02*
X90165000Y-88050000D01*
%TO.N,/A14*%
X93980000Y-66025000D02*
X93980000Y-67725000D01*
X93970000Y-76605000D02*
X93970000Y-75755000D01*
X93970000Y-76605000D02*
X95269500Y-77904500D01*
X93970000Y-77455000D02*
X93970000Y-76605000D01*
X91435000Y-90180000D02*
X91435000Y-88480000D01*
X92753500Y-88480000D02*
X91435000Y-88480000D01*
X95269500Y-85964000D02*
X92753500Y-88480000D01*
X94049500Y-75755000D02*
X93970000Y-75755000D01*
X93980000Y-67725000D02*
X95239600Y-68984600D01*
X95269500Y-77904500D02*
X95269500Y-85964000D01*
X95239600Y-74564900D02*
X94049500Y-75755000D01*
X95239600Y-68984600D02*
X95239600Y-74564900D01*
%TO.N,/A15*%
X89640600Y-92625600D02*
X88895000Y-91880000D01*
X83760000Y-30327500D02*
X92508200Y-39075700D01*
X88895000Y-90180000D02*
X88895000Y-91880000D01*
X98597300Y-39075700D02*
X99090400Y-39568800D01*
X92508200Y-39075700D02*
X98597300Y-39075700D01*
X94184600Y-92625600D02*
X89640600Y-92625600D01*
X99090400Y-39568800D02*
X99090400Y-87719800D01*
X83760000Y-28085000D02*
X83760000Y-30327500D01*
X99090400Y-87719800D02*
X94184600Y-92625600D01*
%TO.N,X1{slash}CLK*%
X45720000Y-85925000D02*
X45720000Y-88823800D01*
X34200000Y-60960000D02*
X39200000Y-55960000D01*
X45720000Y-88823800D02*
X55639000Y-98742800D01*
X31750000Y-81280000D02*
X33101800Y-79928200D01*
X78735000Y-90180000D02*
X78735000Y-91880000D01*
X39370000Y-54610000D02*
X39370000Y-55960000D01*
X44955200Y-85160200D02*
X45720000Y-85925000D01*
X39200000Y-55960000D02*
X39370000Y-55960000D01*
X78735000Y-91880000D02*
X78430100Y-91880000D01*
X78430100Y-91880000D02*
X75514800Y-94795300D01*
X43404800Y-85160200D02*
X44955200Y-85160200D01*
X41780800Y-83536200D02*
X43404800Y-85160200D01*
X33101800Y-79928200D02*
X33101800Y-62058200D01*
X33101800Y-62058200D02*
X34200000Y-60960000D01*
%TO.N,/D4*%
X49530000Y-48606700D02*
X52010000Y-46126700D01*
X78680000Y-28085000D02*
X78680000Y-26385000D01*
X63500000Y-73645000D02*
X63500000Y-75345000D01*
X34290000Y-66159200D02*
X49530000Y-50919200D01*
X34290000Y-71120000D02*
X34290000Y-66159200D01*
X63490000Y-85075000D02*
X63490000Y-83375000D01*
X63500000Y-75345000D02*
X63392500Y-75345000D01*
X52010000Y-46126700D02*
X52010000Y-27126900D01*
X63392500Y-75345000D02*
X62220100Y-76517400D01*
X49530000Y-50919200D02*
X49530000Y-48606700D01*
X62220100Y-82105100D02*
X63490000Y-83375000D01*
X62220100Y-76517400D02*
X62220100Y-82105100D01*
X52010000Y-27126900D02*
X52751900Y-26385000D01*
X52751900Y-26385000D02*
X78680000Y-26385000D01*
%TO.N,/D3*%
X60853700Y-75345000D02*
X58873100Y-77325600D01*
X60950000Y-50314900D02*
X61474600Y-49790300D01*
X60950000Y-62225000D02*
X60950000Y-50314900D01*
X60960000Y-73645000D02*
X60960000Y-75345000D01*
X59917400Y-85075000D02*
X60950000Y-85075000D01*
X58873100Y-84030700D02*
X59917400Y-85075000D01*
X60960000Y-75345000D02*
X60853700Y-75345000D01*
X58873100Y-77325600D02*
X58873100Y-84030700D01*
%TO.N,/D5*%
X61403900Y-70967900D02*
X56613800Y-75758000D01*
X65062900Y-70967900D02*
X61403900Y-70967900D01*
X56613800Y-75758000D02*
X58026300Y-77170600D01*
X66040000Y-71945000D02*
X65062900Y-70967900D01*
X43074600Y-72284600D02*
X53140300Y-72284600D01*
X58026300Y-77170600D02*
X58026300Y-84321900D01*
X53140300Y-72284600D02*
X56613800Y-75758000D01*
X73600000Y-28085000D02*
X73600000Y-33608000D01*
X41910000Y-71120000D02*
X43074600Y-72284600D01*
X60479400Y-86775000D02*
X66030000Y-86775000D01*
X58026300Y-84321900D02*
X60479400Y-86775000D01*
X66393500Y-60561500D02*
X66393500Y-49446800D01*
X66030000Y-85075000D02*
X66030000Y-86775000D01*
X66030000Y-60925000D02*
X66393500Y-60561500D01*
X66040000Y-73645000D02*
X66040000Y-71945000D01*
X66030000Y-62225000D02*
X66030000Y-60925000D01*
%TO.N,/D6*%
X67300100Y-82105100D02*
X68570000Y-83375000D01*
X68466400Y-75345000D02*
X67300100Y-76511300D01*
X38009700Y-68068600D02*
X44715900Y-61362400D01*
X68570000Y-85075000D02*
X68570000Y-83375000D01*
X71261100Y-29986100D02*
X71261100Y-32036000D01*
X38009700Y-72480300D02*
X38009700Y-68068600D01*
X36830000Y-73660000D02*
X38009700Y-72480300D01*
X71060000Y-28085000D02*
X71060000Y-29785000D01*
X68580000Y-73645000D02*
X68580000Y-75345000D01*
X67300100Y-76511300D02*
X67300100Y-82105100D01*
X68580000Y-75345000D02*
X68466400Y-75345000D01*
X71060000Y-29785000D02*
X71261100Y-29986100D01*
%TO.N,/D2*%
X63490000Y-46985000D02*
X63490000Y-48285000D01*
X62220100Y-63045100D02*
X63500000Y-64325000D01*
X65980000Y-28085000D02*
X65980000Y-38231600D01*
X63490000Y-49032000D02*
X62220100Y-50301900D01*
X62220100Y-50301900D02*
X62220100Y-63045100D01*
X65980000Y-38231600D02*
X69501500Y-41753100D01*
X63500000Y-66025000D02*
X63500000Y-64325000D01*
X64750300Y-76194700D02*
X64750300Y-71866700D01*
X63490000Y-48285000D02*
X63490000Y-49032000D01*
X63490000Y-77455000D02*
X64750300Y-76194700D01*
%TO.N,/D7*%
X69859600Y-76502800D02*
X71017400Y-75345000D01*
X40713900Y-70608400D02*
X44206000Y-67116300D01*
X71017400Y-75345000D02*
X71120000Y-75345000D01*
X49530000Y-63332700D02*
X49530000Y-59132300D01*
X50380600Y-58281700D02*
X51073500Y-58281700D01*
X40713900Y-72463900D02*
X40713900Y-70608400D01*
X44206000Y-67116300D02*
X45746400Y-67116300D01*
X49530000Y-59132300D02*
X50380600Y-58281700D01*
X71110000Y-85075000D02*
X71110000Y-83375000D01*
X62212400Y-32507500D02*
X63440000Y-31279900D01*
X71110000Y-83375000D02*
X69859600Y-82124600D01*
X45746400Y-67116300D02*
X49530000Y-63332700D01*
X71120000Y-73645000D02*
X71120000Y-75345000D01*
X63440000Y-31279900D02*
X63440000Y-28085000D01*
X41910000Y-73660000D02*
X40713900Y-72463900D01*
X69859600Y-82124600D02*
X69859600Y-76502800D01*
%TO.N,/D0*%
X68580000Y-66025000D02*
X68580000Y-64325000D01*
X69839900Y-49554900D02*
X68570000Y-48285000D01*
X60900000Y-36026800D02*
X60900000Y-28085000D01*
X68570000Y-46985000D02*
X68570000Y-48285000D01*
X68570000Y-46985000D02*
X68570000Y-46151600D01*
X68570000Y-46151600D02*
X67250000Y-44831600D01*
X69839900Y-63065100D02*
X69839900Y-49554900D01*
X68580000Y-64325000D02*
X69839900Y-63065100D01*
X67250000Y-42376800D02*
X60900000Y-36026800D01*
X67250000Y-44831600D02*
X67250000Y-42376800D01*
%TO.N,/D1*%
X66030000Y-47741100D02*
X66030000Y-48285000D01*
X59648000Y-44267100D02*
X59648000Y-31073000D01*
X66040000Y-66025000D02*
X66040000Y-67725000D01*
X66030000Y-77455000D02*
X66030000Y-75755000D01*
X59648000Y-31073000D02*
X58360000Y-29785000D01*
X66030000Y-47741100D02*
X66030000Y-47342300D01*
X64363500Y-45675800D02*
X61056700Y-45675800D01*
X66030000Y-46985000D02*
X66030000Y-47342300D01*
X67329600Y-74530600D02*
X67329600Y-69014600D01*
X66030000Y-75755000D02*
X66105200Y-75755000D01*
X61056700Y-45675800D02*
X59648000Y-44267100D01*
X58360000Y-28085000D02*
X58360000Y-29785000D01*
X66105200Y-75755000D02*
X67329600Y-74530600D01*
X66030000Y-47342300D02*
X64363500Y-45675800D01*
X66040000Y-66025000D02*
X66040000Y-64325000D01*
X67329600Y-69014600D02*
X66040000Y-67725000D01*
X44450000Y-71120000D02*
X47845000Y-67725000D01*
X47845000Y-67725000D02*
X66040000Y-67725000D01*
X64760000Y-63045000D02*
X64760000Y-49555000D01*
X66040000Y-64325000D02*
X64760000Y-63045000D01*
X64760000Y-49555000D02*
X66030000Y-48285000D01*
%TO.N,MEMRQ\u005C*%
X87801000Y-93326000D02*
X86355000Y-91880000D01*
X86355000Y-90180000D02*
X86355000Y-91880000D01*
X94546800Y-93326000D02*
X87801000Y-93326000D01*
X97878700Y-37344300D02*
X99791900Y-39257500D01*
X95658700Y-37344300D02*
X97878700Y-37344300D01*
X99791900Y-39257500D02*
X99791900Y-88080900D01*
X99791900Y-88080900D02*
X94546800Y-93326000D01*
%TO.N,IORQ\u005C*%
X100496700Y-38919500D02*
X100496700Y-88404400D01*
X83815000Y-90180000D02*
X83815000Y-91880000D01*
X94843000Y-94058100D02*
X85993100Y-94058100D01*
X85993100Y-94058100D02*
X83815000Y-91880000D01*
X100496700Y-88404400D02*
X94843000Y-94058100D01*
X98011700Y-36434500D02*
X100496700Y-38919500D01*
X93240100Y-36434400D02*
X93240100Y-36434500D01*
X93240100Y-36434500D02*
X98011700Y-36434500D01*
%TO.N,WR\u005C*%
X73655000Y-97800000D02*
X73655000Y-96100000D01*
X77465000Y-87206900D02*
X79527500Y-87206900D01*
X92719500Y-76517100D02*
X91547400Y-75345000D01*
X91430000Y-83375000D02*
X92719500Y-82085500D01*
X92719500Y-82085500D02*
X92719500Y-76517100D01*
X91430000Y-85075000D02*
X91430000Y-83375000D01*
X91440000Y-73645000D02*
X91440000Y-75345000D01*
X73655000Y-95109500D02*
X73655000Y-96100000D01*
X77465000Y-87206900D02*
X77465000Y-91299500D01*
X91547400Y-75345000D02*
X91440000Y-75345000D01*
X77465000Y-91299500D02*
X73655000Y-95109500D01*
X77465000Y-87206900D02*
X77465000Y-82895600D01*
%TO.N,M1\u005C*%
X72370300Y-72027600D02*
X72370300Y-94844700D01*
X71115000Y-97800000D02*
X71115000Y-96100000D01*
X67290400Y-66947700D02*
X72370300Y-72027600D01*
X72370300Y-94844700D02*
X71115000Y-96100000D01*
X65801300Y-44975400D02*
X67290400Y-46464500D01*
X62550400Y-44975400D02*
X65801300Y-44975400D01*
X67290400Y-46464500D02*
X67290400Y-66947700D01*
X60900000Y-43325000D02*
X62550400Y-44975400D01*
%TO.N,X2*%
X29300000Y-60960000D02*
X28048400Y-62211600D01*
X28048400Y-62211600D02*
X28048400Y-82658400D01*
X29210000Y-60870000D02*
X29300000Y-60960000D01*
X28048400Y-82658400D02*
X29210000Y-83820000D01*
X29210000Y-54610000D02*
X29210000Y-60870000D01*
D27*
%TO.N,GND*%
X73331700Y-102540000D02*
X69609200Y-98817500D01*
X57545500Y-64770000D02*
X59449700Y-62865800D01*
X73665000Y-104140000D02*
X73665000Y-102540000D01*
X39370000Y-45720000D02*
X37770000Y-45720000D01*
X60960000Y-66025000D02*
X60960000Y-64075000D01*
X97790000Y-57150000D02*
X97790000Y-58750000D01*
X60950000Y-46985000D02*
X60950000Y-48535000D01*
X31750000Y-53010000D02*
X29210000Y-50470000D01*
X97790000Y-80010000D02*
X97790000Y-78410000D01*
X29210000Y-48260000D02*
X29210000Y-47199600D01*
X60950000Y-77455000D02*
X60950000Y-79405000D01*
X33040000Y-39077500D02*
X32446700Y-39077500D01*
X36638600Y-44588600D02*
X37770000Y-45720000D01*
X53300000Y-64770000D02*
X57545500Y-64770000D01*
X97790000Y-68580000D02*
X96190000Y-68580000D01*
X60950000Y-48535000D02*
X59449700Y-50035300D01*
X29210000Y-47199600D02*
X31821000Y-44588600D01*
X31515600Y-44283200D02*
X31821000Y-44588600D01*
X71115000Y-90180000D02*
X71115000Y-92130000D01*
X97790000Y-68580000D02*
X97790000Y-66980000D01*
X31515600Y-40008600D02*
X31515600Y-44283200D01*
X97790000Y-66980000D02*
X97790000Y-58750000D01*
X69609200Y-98817500D02*
X69609200Y-93635800D01*
X97790000Y-78410000D02*
X96190000Y-76810000D01*
X59872800Y-80482200D02*
X59872800Y-83615400D01*
X60950000Y-79405000D02*
X59872800Y-80482200D01*
X96190000Y-76810000D02*
X96190000Y-68580000D01*
X39370000Y-71120000D02*
X39370000Y-70180000D01*
X31750000Y-54610000D02*
X31750000Y-53010000D01*
X60658900Y-64075000D02*
X60960000Y-64075000D01*
X59449700Y-50035300D02*
X59449700Y-62865800D01*
X73665000Y-102540000D02*
X73331700Y-102540000D01*
X31821000Y-44588600D02*
X36638600Y-44588600D01*
X32446700Y-39077500D02*
X31515600Y-40008600D01*
X43180000Y-64770000D02*
X43180000Y-66370000D01*
X59449700Y-62865800D02*
X60658900Y-64075000D01*
X69609200Y-93635800D02*
X71115000Y-92130000D01*
X39370000Y-70180000D02*
X43180000Y-66370000D01*
X29210000Y-50470000D02*
X29210000Y-48260000D01*
D26*
%TO.N,/A0*%
X72399500Y-49574500D02*
X71110000Y-48285000D01*
X68520000Y-43325000D02*
X68520000Y-45025000D01*
X68520000Y-45025000D02*
X69150000Y-45025000D01*
X71120000Y-64325000D02*
X72399500Y-63045500D01*
X72399500Y-63045500D02*
X72399500Y-49574500D01*
X71110000Y-46985000D02*
X71110000Y-48285000D01*
X69150000Y-45025000D02*
X71110000Y-46985000D01*
X71120000Y-66025000D02*
X71120000Y-64325000D01*
%TO.N,/A1*%
X74949600Y-74554500D02*
X73749100Y-75755000D01*
X39945500Y-50079800D02*
X44482200Y-45543100D01*
X74939500Y-63045500D02*
X74939500Y-49574500D01*
X30518900Y-58552100D02*
X38991200Y-50079800D01*
X38991200Y-50079800D02*
X39945500Y-50079800D01*
X74939500Y-49574500D02*
X73650000Y-48285000D01*
X74949600Y-69014600D02*
X74949600Y-74554500D01*
X73650000Y-77455000D02*
X73650000Y-75755000D01*
X73749100Y-75755000D02*
X73650000Y-75755000D01*
X73660000Y-64325000D02*
X74939500Y-63045500D01*
X30518900Y-75563100D02*
X30518900Y-58552100D01*
X71060000Y-43325000D02*
X71060000Y-45025000D01*
X71060000Y-45025000D02*
X71690000Y-45025000D01*
X73660000Y-67725000D02*
X74949600Y-69014600D01*
X73660000Y-66025000D02*
X73660000Y-67725000D01*
X73650000Y-46985000D02*
X73650000Y-48285000D01*
X73660000Y-66025000D02*
X73660000Y-64325000D01*
X44482200Y-45543100D02*
X44482200Y-44571200D01*
X71690000Y-45025000D02*
X73650000Y-46985000D01*
%TO.N,/A2*%
X75914500Y-82768400D02*
X75914500Y-79430500D01*
X76190000Y-77455000D02*
X76190000Y-79155000D01*
X76200000Y-66025000D02*
X77479500Y-64745500D01*
X77479500Y-64745500D02*
X77479500Y-49574500D01*
X77479500Y-49574500D02*
X76190000Y-48285000D01*
X75914500Y-79430500D02*
X76190000Y-79155000D01*
X76190000Y-46985000D02*
X76190000Y-48285000D01*
%TO.N,/A3*%
X78730000Y-77455000D02*
X78730000Y-75755000D01*
X78730000Y-46985000D02*
X78730000Y-48285000D01*
X77450500Y-74582900D02*
X77450500Y-69014500D01*
X78740000Y-66025000D02*
X78740000Y-64325000D01*
X78730000Y-75755000D02*
X78622600Y-75755000D01*
X79990300Y-63074700D02*
X79990300Y-49545300D01*
X78622600Y-75755000D02*
X77450500Y-74582900D01*
X78740000Y-64325000D02*
X79990300Y-63074700D01*
X79990300Y-49545300D02*
X78730000Y-48285000D01*
X77450500Y-69014500D02*
X78740000Y-67725000D01*
X78740000Y-66025000D02*
X78740000Y-67725000D01*
%TO.N,/A4*%
X81280000Y-66025000D02*
X81280000Y-64325000D01*
X82539900Y-49117900D02*
X81707000Y-48285000D01*
X81707000Y-48285000D02*
X81270000Y-48285000D01*
X82539900Y-63065100D02*
X82539900Y-49117900D01*
X81280000Y-64325000D02*
X82539900Y-63065100D01*
X81270000Y-46985000D02*
X81270000Y-48285000D01*
%TO.N,/A5*%
X85079900Y-63065100D02*
X83820000Y-64325000D01*
X83820000Y-66025000D02*
X83820000Y-64325000D01*
X85079900Y-49554900D02*
X85079900Y-63065100D01*
X81220000Y-45025000D02*
X81850000Y-45025000D01*
X81220000Y-43325000D02*
X81220000Y-45025000D01*
X83810000Y-46985000D02*
X83810000Y-48285000D01*
X81850000Y-45025000D02*
X83810000Y-46985000D01*
X83810000Y-48285000D02*
X85079900Y-49554900D01*
%TO.N,/A6*%
X86350000Y-75755000D02*
X86457500Y-75755000D01*
X87629800Y-68994800D02*
X86360000Y-67725000D01*
X87619900Y-49554900D02*
X86350000Y-48285000D01*
X86360000Y-66025000D02*
X86360000Y-64325000D01*
X87619900Y-63065100D02*
X87619900Y-49554900D01*
X86350000Y-46985000D02*
X86350000Y-48285000D01*
X86360000Y-64325000D02*
X87619900Y-63065100D01*
X87629800Y-74582700D02*
X87629800Y-68994800D01*
X86457500Y-75755000D02*
X87629800Y-74582700D01*
X86350000Y-77455000D02*
X86350000Y-75755000D01*
X86360000Y-66025000D02*
X86360000Y-67725000D01*
%TO.N,/A7*%
X90160100Y-63064900D02*
X90160100Y-49555100D01*
X90160100Y-49555100D02*
X88890000Y-48285000D01*
X88890000Y-46985000D02*
X88890000Y-48285000D01*
X88900000Y-66025000D02*
X88900000Y-64325000D01*
X88900000Y-64325000D02*
X90160100Y-63064900D01*
%TO.N,/A8*%
X85080000Y-46484100D02*
X86539100Y-45025000D01*
X86350000Y-63344500D02*
X86350000Y-62225000D01*
X85070400Y-70655400D02*
X85070400Y-64624100D01*
X86360000Y-73645000D02*
X86360000Y-71945000D01*
X86350000Y-49834500D02*
X85080000Y-48564500D01*
X86539100Y-45025000D02*
X88840000Y-45025000D01*
X86350000Y-62225000D02*
X86350000Y-49834500D01*
X85080000Y-48564500D02*
X85080000Y-46484100D01*
X85070400Y-64624100D02*
X86350000Y-63344500D01*
X86360000Y-71945000D02*
X85070400Y-70655400D01*
X88840000Y-43325000D02*
X88840000Y-45025000D01*
%TO.N,/A9*%
X91380000Y-43325000D02*
X91380000Y-45025000D01*
X91253000Y-49467300D02*
X90160100Y-48374400D01*
X83810000Y-85075000D02*
X83810000Y-83375000D01*
X90160100Y-46244900D02*
X91380000Y-45025000D01*
X85099500Y-76517100D02*
X85099500Y-82085500D01*
X85099500Y-82085500D02*
X83810000Y-83375000D01*
X83810000Y-62225000D02*
X83810000Y-63344500D01*
X83810000Y-63344500D02*
X82530500Y-64624000D01*
X82530500Y-70655500D02*
X83820000Y-71945000D01*
X91253000Y-54818900D02*
X91253000Y-49467300D01*
X82530500Y-64624000D02*
X82530500Y-70655500D01*
X83820000Y-73645000D02*
X83820000Y-71945000D01*
X90160100Y-48374400D02*
X90160100Y-46244900D01*
X83820000Y-75345000D02*
X83927400Y-75345000D01*
X83927400Y-75345000D02*
X85099500Y-76517100D01*
X83820000Y-73645000D02*
X83820000Y-75345000D01*
%TO.N,/A10*%
X74910400Y-64804600D02*
X76190000Y-63525000D01*
X76190000Y-62225000D02*
X76190000Y-63525000D01*
X78856900Y-45335400D02*
X79950000Y-44242300D01*
X80721700Y-41625000D02*
X93920000Y-41625000D01*
X74920000Y-76511300D02*
X74920000Y-79282600D01*
X76190000Y-62225000D02*
X76190000Y-49834500D01*
X76200000Y-75345000D02*
X76086300Y-75345000D01*
X76200000Y-73645000D02*
X76200000Y-69084300D01*
X93920000Y-43325000D02*
X93920000Y-41625000D01*
X76086300Y-75345000D02*
X74920000Y-76511300D01*
X79950000Y-42396700D02*
X80721700Y-41625000D01*
X76200000Y-74495000D02*
X76200000Y-75345000D01*
X74920000Y-48564500D02*
X74920000Y-46442100D01*
X76190000Y-49834500D02*
X74920000Y-48564500D01*
X75064200Y-79426800D02*
X75064200Y-83120600D01*
X74910400Y-67794700D02*
X74910400Y-64804600D01*
X76200000Y-74495000D02*
X76200000Y-73645000D01*
X76026700Y-45335400D02*
X78856900Y-45335400D01*
X74920000Y-46442100D02*
X76026700Y-45335400D01*
X75064200Y-83120600D02*
X76190000Y-84246400D01*
X76200000Y-69084300D02*
X74910400Y-67794700D01*
X79950000Y-44242300D02*
X79950000Y-42396700D01*
X76190000Y-84246400D02*
X76190000Y-85075000D01*
X74920000Y-79282600D02*
X75064200Y-79426800D01*
%TO.N,M1IOREQ\u005C*%
X56826100Y-89445600D02*
X57650000Y-90269500D01*
X56826100Y-88076200D02*
X56826100Y-89445600D01*
X57650000Y-90269500D02*
X57948100Y-90269500D01*
X56022100Y-87272200D02*
X56826100Y-88076200D01*
%TO.N,CLK*%
X83815000Y-97800000D02*
X83815000Y-96100000D01*
X81220000Y-26385000D02*
X94862800Y-26385000D01*
X94862800Y-26385000D02*
X101233400Y-32755600D01*
X101233400Y-32755600D02*
X101233400Y-88658200D01*
X101233400Y-88658200D02*
X93791600Y-96100000D01*
X81220000Y-28085000D02*
X81220000Y-26385000D01*
X93791600Y-96100000D02*
X83815000Y-96100000D01*
%TO.N,RFSH\u005C*%
X95239400Y-57825500D02*
X95239400Y-62734600D01*
X93314100Y-64050600D02*
X92719300Y-64645400D01*
X90159900Y-71066100D02*
X90159900Y-75270700D01*
X93923400Y-64050600D02*
X93314100Y-64050600D01*
X92719300Y-68506700D02*
X90159900Y-71066100D01*
X95239400Y-62734600D02*
X93923400Y-64050600D01*
X90159900Y-75270700D02*
X90423800Y-75534600D01*
X92719300Y-64645400D02*
X92719300Y-68506700D01*
X95131800Y-57717900D02*
X95239400Y-57825500D01*
%TO.N,unconnected-(J1-Pad5)*%
X40290000Y-36217500D02*
X28290000Y-36217500D01*
%TO.N,OP7*%
X43185000Y-104140000D02*
X44520300Y-105475300D01*
X82306700Y-105475300D02*
X82585400Y-105196600D01*
X56872500Y-83429300D02*
X56872500Y-86016700D01*
X80005100Y-93149900D02*
X81275000Y-91880000D01*
X44520300Y-105475300D02*
X82306700Y-105475300D01*
X46990000Y-73660000D02*
X47103200Y-73660000D01*
X80005100Y-99483200D02*
X80005100Y-93149900D01*
X56872500Y-86016700D02*
X57676400Y-86820600D01*
X82585400Y-105196600D02*
X82585400Y-102063500D01*
X81275000Y-90180000D02*
X81275000Y-91880000D01*
X82585400Y-102063500D02*
X80005100Y-99483200D01*
X47103200Y-73660000D02*
X56872500Y-83429300D01*
X57676400Y-86820600D02*
X57676400Y-89093400D01*
%TO.N,Net-(U2-Pad18)*%
X82545000Y-88555600D02*
X80000000Y-86010600D01*
X80000000Y-86010600D02*
X80000000Y-83482500D01*
X88895000Y-99500000D02*
X83290100Y-99500000D01*
X80000000Y-83482500D02*
X76819400Y-80301900D01*
X88895000Y-97800000D02*
X88895000Y-99500000D01*
X83290100Y-99500000D02*
X82545000Y-98754900D01*
X82545000Y-98754900D02*
X82545000Y-88555600D01*
%TO.N,Net-(U2-Pad19)*%
X74131500Y-79741300D02*
X74131500Y-83178400D01*
X74131500Y-83178400D02*
X74905400Y-83952300D01*
X74905400Y-83952300D02*
X74905400Y-91716000D01*
%TO.N,Net-(R7-Pad2)*%
X27940000Y-90170000D02*
X27940000Y-93980000D01*
X31750000Y-86360000D02*
X27940000Y-90170000D01*
%TO.N,/B0*%
X56125800Y-89437000D02*
X56125800Y-89735800D01*
X41274100Y-75037600D02*
X47470700Y-75037600D01*
X30400600Y-82470600D02*
X33841100Y-82470600D01*
X56125800Y-89735800D02*
X70530000Y-104140000D01*
X70530000Y-104140000D02*
X71125000Y-104140000D01*
X33841100Y-82470600D02*
X41274100Y-75037600D01*
X47470700Y-75037600D02*
X54675000Y-82241900D01*
X54675000Y-87986200D02*
X56125800Y-89437000D01*
X54675000Y-82241900D02*
X54675000Y-87986200D01*
X29210000Y-81280000D02*
X30400600Y-82470600D01*
%TO.N,/B1*%
X51042100Y-88997400D02*
X52241700Y-90197000D01*
X47474000Y-80095300D02*
X51042100Y-83663400D01*
X52241700Y-90197000D02*
X52556500Y-90197000D01*
X58643400Y-96283900D02*
X60728900Y-96283900D01*
X60728900Y-96283900D02*
X68585000Y-104140000D01*
X52556500Y-90197000D02*
X58643400Y-96283900D01*
X39833800Y-80147500D02*
X39886000Y-80095300D01*
X51042100Y-83663400D02*
X51042100Y-88997400D01*
X39886000Y-80095300D02*
X47474000Y-80095300D01*
%TO.N,/B2*%
X66045000Y-104140000D02*
X63255900Y-101350900D01*
X50237700Y-89545600D02*
X50237700Y-84527700D01*
X63255900Y-101350900D02*
X62719900Y-101350900D01*
X52266300Y-90897300D02*
X51589400Y-90897300D01*
X62719900Y-101350900D02*
X52266300Y-90897300D01*
X50937900Y-90245800D02*
X50237700Y-89545600D01*
X50237700Y-84527700D02*
X46990000Y-81280000D01*
X51589400Y-90897300D02*
X50937900Y-90245800D01*
%TO.N,/B3*%
X62548500Y-102790000D02*
X52529700Y-92771200D01*
X63505000Y-102790000D02*
X62548500Y-102790000D01*
X52422500Y-84053300D02*
X52422500Y-89175100D01*
X47109200Y-78740000D02*
X52422500Y-84053300D01*
X63505000Y-104140000D02*
X63505000Y-102790000D01*
X52422500Y-89175100D02*
X52422600Y-89175100D01*
X52422600Y-89175100D02*
X52594200Y-89346700D01*
X46990000Y-78740000D02*
X47109200Y-78740000D01*
%TO.N,/B4*%
X45719800Y-83447100D02*
X45719800Y-84260000D01*
X44822700Y-82550000D02*
X45719800Y-83447100D01*
X49066900Y-86740700D02*
X49066900Y-90891900D01*
X47416200Y-85090000D02*
X49066900Y-86740700D01*
X46549800Y-85090000D02*
X47416200Y-85090000D01*
X41921100Y-80982900D02*
X43488200Y-82550000D01*
X43488200Y-82550000D02*
X44822700Y-82550000D01*
X49066900Y-90891900D02*
X60965000Y-102790000D01*
X60965000Y-104140000D02*
X60965000Y-102790000D01*
X45719800Y-84260000D02*
X46549800Y-85090000D01*
%TO.N,/B5*%
X55682200Y-102166700D02*
X56451700Y-102166700D01*
X43180000Y-85965700D02*
X43180000Y-89664500D01*
X38926900Y-81884800D02*
X41428600Y-84386500D01*
X40037300Y-78740000D02*
X38926900Y-79850400D01*
X41600800Y-84386500D02*
X43180000Y-85965700D01*
X56451700Y-102166700D02*
X58425000Y-104140000D01*
X41428600Y-84386500D02*
X41600800Y-84386500D01*
X43180000Y-89664500D02*
X55682200Y-102166700D01*
X44450000Y-78740000D02*
X40037300Y-78740000D01*
X38926900Y-79850400D02*
X38926900Y-81884800D01*
%TO.N,/B6*%
X41672100Y-90677300D02*
X42422300Y-90677300D01*
X42422300Y-90677300D02*
X55885000Y-104140000D01*
%TO.N,/B7*%
X55425500Y-89727200D02*
X55425500Y-90026000D01*
X47109400Y-76200000D02*
X53823300Y-82913900D01*
X46990000Y-76200000D02*
X47109400Y-76200000D01*
X58157900Y-92758400D02*
X58157900Y-93887600D01*
X53823300Y-88125000D02*
X55425500Y-89727200D01*
X53823300Y-82913900D02*
X53823300Y-88125000D01*
X55425500Y-90026000D02*
X58157900Y-92758400D01*
%TO.N,/B9*%
X54725200Y-90017400D02*
X54725200Y-91111600D01*
X44450000Y-76200000D02*
X45720000Y-77470000D01*
X54725200Y-91111600D02*
X56806100Y-93192500D01*
X47388900Y-77470000D02*
X53122900Y-83204000D01*
X45720000Y-77470000D02*
X47388900Y-77470000D01*
X53122900Y-88415100D02*
X54725200Y-90017400D01*
X53122900Y-83204000D02*
X53122900Y-88415100D01*
%TO.N,/B12*%
X42126000Y-91677100D02*
X42126000Y-101309000D01*
X42126000Y-101309000D02*
X40645000Y-102790000D01*
X40645000Y-104140000D02*
X40645000Y-102790000D01*
%TO.N,/B13*%
X40640000Y-87630000D02*
X41910000Y-86360000D01*
X40640000Y-100255000D02*
X40640000Y-87630000D01*
X38105000Y-102790000D02*
X40640000Y-100255000D01*
X38105000Y-104140000D02*
X38105000Y-102790000D01*
%TO.N,/B14*%
X26627000Y-104662400D02*
X27436100Y-105471500D01*
X34233500Y-105471500D02*
X35565000Y-104140000D01*
X27436100Y-105471500D02*
X34233500Y-105471500D01*
X31750000Y-92010100D02*
X26627000Y-97133100D01*
X26627000Y-97133100D02*
X26627000Y-104662400D01*
X31750000Y-88900000D02*
X31750000Y-92010100D01*
%TO.N,/B15*%
X39370000Y-86360000D02*
X38179400Y-87550600D01*
X38179400Y-87550600D02*
X38179400Y-91139700D01*
X38179400Y-91139700D02*
X39407300Y-92367600D01*
X39407300Y-92367600D02*
X39407300Y-98301200D01*
X33568500Y-104140000D02*
X33025000Y-104140000D01*
X39407300Y-98301200D02*
X33568500Y-104140000D01*
%TO.N,/B16*%
X37550800Y-99167200D02*
X34592200Y-102125800D01*
X34290000Y-86360000D02*
X35498500Y-87568500D01*
X37550800Y-96220800D02*
X37550800Y-99167200D01*
X35498500Y-94168500D02*
X37550800Y-96220800D01*
X32499200Y-102125800D02*
X30485000Y-104140000D01*
X35498500Y-87568500D02*
X35498500Y-94168500D01*
X34592200Y-102125800D02*
X32499200Y-102125800D01*
%TO.N,/B17*%
X32369800Y-99715200D02*
X27945000Y-104140000D01*
X34290000Y-88900000D02*
X34290000Y-93950600D01*
X36003700Y-99715200D02*
X32369800Y-99715200D01*
X36850400Y-96511000D02*
X36850400Y-98868500D01*
X36850400Y-98868500D02*
X36003700Y-99715200D01*
X34290000Y-93950600D02*
X36850400Y-96511000D01*
D27*
%TO.N,+5V*%
X96232500Y-51452500D02*
X96232500Y-42197500D01*
X38100000Y-93980000D02*
X36830000Y-92710000D01*
X94476700Y-40441700D02*
X96232500Y-42197500D01*
X68520000Y-30915400D02*
X78046300Y-40441700D01*
X45720000Y-64770000D02*
X45720000Y-63170000D01*
X46692300Y-91490900D02*
X46392000Y-91490900D01*
X96232500Y-42197500D02*
X97790000Y-40640000D01*
X36830000Y-92710000D02*
X36830000Y-88900000D01*
X53340000Y-59690000D02*
X55880000Y-59690000D01*
X45828800Y-59690000D02*
X48260000Y-59690000D01*
X45828800Y-63061200D02*
X45828800Y-59690000D01*
X97790000Y-54610000D02*
X97790000Y-53010000D01*
X45720000Y-59690000D02*
X45828800Y-59690000D01*
X97790000Y-53010000D02*
X96232500Y-51452500D01*
X93970000Y-56830000D02*
X93970000Y-62225000D01*
X97790000Y-54610000D02*
X96190000Y-54610000D01*
X45720000Y-63170000D02*
X45828800Y-63061200D01*
X96190000Y-54610000D02*
X93970000Y-56830000D01*
X55457300Y-100255900D02*
X46692300Y-91490900D01*
X68520000Y-28085000D02*
X68520000Y-30035000D01*
X78046300Y-40441700D02*
X94476700Y-40441700D01*
X68520000Y-30035000D02*
X68520000Y-30915400D01*
%TD*%
M02*
