%TF.GenerationSoftware,KiCad,Pcbnew,(6.0.1)*%
%TF.CreationDate,2022-03-08T21:02:58+01:00*%
%TF.ProjectId,Z80CPM,5a383043-504d-42e6-9b69-6361645f7063,rev?*%
%TF.SameCoordinates,Original*%
%TF.FileFunction,Copper,L2,Bot*%
%TF.FilePolarity,Positive*%
%FSLAX46Y46*%
G04 Gerber Fmt 4.6, Leading zero omitted, Abs format (unit mm)*
G04 Created by KiCad (PCBNEW (6.0.1)) date 2022-03-08 21:02:58*
%MOMM*%
%LPD*%
G01*
G04 APERTURE LIST*
%TA.AperFunction,ComponentPad*%
%ADD10R,1.700000X1.700000*%
%TD*%
%TA.AperFunction,ComponentPad*%
%ADD11O,1.700000X1.700000*%
%TD*%
%TA.AperFunction,ComponentPad*%
%ADD12C,1.600000*%
%TD*%
%TA.AperFunction,ComponentPad*%
%ADD13O,1.600000X1.600000*%
%TD*%
%TA.AperFunction,ComponentPad*%
%ADD14C,1.500000*%
%TD*%
%TA.AperFunction,ComponentPad*%
%ADD15R,1.600000X2.400000*%
%TD*%
%TA.AperFunction,ComponentPad*%
%ADD16O,1.600000X2.400000*%
%TD*%
%TA.AperFunction,ComponentPad*%
%ADD17R,1.600000X1.600000*%
%TD*%
%TA.AperFunction,ComponentPad*%
%ADD18C,4.000000*%
%TD*%
%TA.AperFunction,ComponentPad*%
%ADD19R,1.422400X1.422400*%
%TD*%
%TA.AperFunction,ComponentPad*%
%ADD20C,1.422400*%
%TD*%
%TA.AperFunction,ComponentPad*%
%ADD21R,1.800000X1.800000*%
%TD*%
%TA.AperFunction,ComponentPad*%
%ADD22C,1.800000*%
%TD*%
%TA.AperFunction,ComponentPad*%
%ADD23C,1.400000*%
%TD*%
%TA.AperFunction,ComponentPad*%
%ADD24O,1.400000X1.400000*%
%TD*%
%TA.AperFunction,ViaPad*%
%ADD25C,0.800000*%
%TD*%
%TA.AperFunction,Conductor*%
%ADD26C,0.500000*%
%TD*%
%TA.AperFunction,Conductor*%
%ADD27C,1.000000*%
%TD*%
G04 APERTURE END LIST*
D10*
%TO.P,,1*%
%TO.N,N/C*%
X36830000Y-121920000D03*
D11*
%TO.P,,2*%
X39370000Y-121920000D03*
%TO.P,,3*%
X41910000Y-121920000D03*
%TO.P,,4*%
X44450000Y-121920000D03*
%TO.P,,5*%
X46990000Y-121920000D03*
%TO.P,,6*%
X49530000Y-121920000D03*
%TO.P,,7*%
X52070000Y-121920000D03*
%TO.P,,8*%
X54610000Y-121920000D03*
%TO.P,,9*%
X57150000Y-121920000D03*
%TO.P,,10*%
X59690000Y-121920000D03*
%TO.P,,11*%
X62230000Y-121920000D03*
%TO.P,,12*%
X64770000Y-121920000D03*
%TO.P,,13*%
X67310000Y-121920000D03*
%TO.P,,14*%
X69850000Y-121920000D03*
%TO.P,,15*%
X72390000Y-121920000D03*
%TO.P,,16*%
X74930000Y-121920000D03*
%TO.P,,17*%
X77470000Y-121920000D03*
%TO.P,,18*%
X80010000Y-121920000D03*
%TO.P,,19*%
X82550000Y-121920000D03*
%TO.P,,20*%
X85090000Y-121920000D03*
%TO.P,,21*%
X87630000Y-121920000D03*
%TO.P,,22*%
X90170000Y-121920000D03*
%TO.P,,23*%
X92710000Y-121920000D03*
%TO.P,,24*%
X95250000Y-121920000D03*
%TO.P,,25*%
X97790000Y-121920000D03*
%TO.P,,26*%
X100330000Y-121920000D03*
%TD*%
D10*
%TO.P,,1*%
%TO.N,N/C*%
X36830000Y-119380000D03*
D11*
%TO.P,,2*%
X39370000Y-119380000D03*
%TO.P,,3*%
X41910000Y-119380000D03*
%TO.P,,4*%
X44450000Y-119380000D03*
%TO.P,,5*%
X46990000Y-119380000D03*
%TO.P,,6*%
X49530000Y-119380000D03*
%TO.P,,7*%
X52070000Y-119380000D03*
%TO.P,,8*%
X54610000Y-119380000D03*
%TO.P,,9*%
X57150000Y-119380000D03*
%TO.P,,10*%
X59690000Y-119380000D03*
%TO.P,,11*%
X62230000Y-119380000D03*
%TO.P,,12*%
X64770000Y-119380000D03*
%TO.P,,13*%
X67310000Y-119380000D03*
%TO.P,,14*%
X69850000Y-119380000D03*
%TO.P,,15*%
X72390000Y-119380000D03*
%TO.P,,16*%
X74930000Y-119380000D03*
%TO.P,,17*%
X77470000Y-119380000D03*
%TO.P,,18*%
X80010000Y-119380000D03*
%TO.P,,19*%
X82550000Y-119380000D03*
%TO.P,,20*%
X85090000Y-119380000D03*
%TO.P,,21*%
X87630000Y-119380000D03*
%TO.P,,22*%
X90170000Y-119380000D03*
%TO.P,,23*%
X92710000Y-119380000D03*
%TO.P,,24*%
X95250000Y-119380000D03*
%TO.P,,25*%
X97790000Y-119380000D03*
%TO.P,,26*%
X100330000Y-119380000D03*
%TD*%
D10*
%TO.P,,1*%
%TO.N,N/C*%
X31765000Y-109220000D03*
D11*
%TO.P,,2*%
X34305000Y-109220000D03*
%TO.P,,3*%
X36845000Y-109220000D03*
%TO.P,,4*%
X39385000Y-109220000D03*
%TO.P,,5*%
X41925000Y-109220000D03*
%TO.P,,6*%
X44465000Y-109220000D03*
%TO.P,,7*%
X47005000Y-109220000D03*
%TO.P,,8*%
X49545000Y-109220000D03*
%TO.P,,9*%
X52085000Y-109220000D03*
%TO.P,,10*%
X54625000Y-109220000D03*
%TO.P,,11*%
X57165000Y-109220000D03*
%TO.P,,12*%
X59705000Y-109220000D03*
%TO.P,,13*%
X62245000Y-109220000D03*
%TO.P,,14*%
X64785000Y-109220000D03*
%TO.P,,15*%
X67325000Y-109220000D03*
%TO.P,,16*%
X69865000Y-109220000D03*
%TO.P,,17*%
X72405000Y-109220000D03*
%TO.P,,18*%
X74945000Y-109220000D03*
%TO.P,,19*%
X77485000Y-109220000D03*
%TO.P,,20*%
X80025000Y-109220000D03*
%TO.P,,21*%
X82565000Y-109220000D03*
%TO.P,,22*%
X85105000Y-109220000D03*
%TO.P,,23*%
X87645000Y-109220000D03*
%TO.P,,24*%
X90185000Y-109220000D03*
%TO.P,,25*%
X92725000Y-109220000D03*
%TO.P,,26*%
X95265000Y-109220000D03*
%TO.P,,27*%
X97805000Y-109220000D03*
%TO.P,,28*%
X100345000Y-109220000D03*
%TD*%
D10*
%TO.P,,1*%
%TO.N,N/C*%
X31765000Y-111760000D03*
D11*
%TO.P,,2*%
X34305000Y-111760000D03*
%TO.P,,3*%
X36845000Y-111760000D03*
%TO.P,,4*%
X39385000Y-111760000D03*
%TO.P,,5*%
X41925000Y-111760000D03*
%TO.P,,6*%
X44465000Y-111760000D03*
%TO.P,,7*%
X47005000Y-111760000D03*
%TO.P,,8*%
X49545000Y-111760000D03*
%TO.P,,9*%
X52085000Y-111760000D03*
%TO.P,,10*%
X54625000Y-111760000D03*
%TO.P,,11*%
X57165000Y-111760000D03*
%TO.P,,12*%
X59705000Y-111760000D03*
%TO.P,,13*%
X62245000Y-111760000D03*
%TO.P,,14*%
X64785000Y-111760000D03*
%TO.P,,15*%
X67325000Y-111760000D03*
%TO.P,,16*%
X69865000Y-111760000D03*
%TO.P,,17*%
X72405000Y-111760000D03*
%TO.P,,18*%
X74945000Y-111760000D03*
%TO.P,,19*%
X77485000Y-111760000D03*
%TO.P,,20*%
X80025000Y-111760000D03*
%TO.P,,21*%
X82565000Y-111760000D03*
%TO.P,,22*%
X85105000Y-111760000D03*
%TO.P,,23*%
X87645000Y-111760000D03*
%TO.P,,24*%
X90185000Y-111760000D03*
%TO.P,,25*%
X92725000Y-111760000D03*
%TO.P,,26*%
X95265000Y-111760000D03*
%TO.P,,27*%
X97805000Y-111760000D03*
%TO.P,,28*%
X100345000Y-111760000D03*
%TD*%
D10*
%TO.P,,1*%
%TO.N,N/C*%
X31765000Y-114300000D03*
D11*
%TO.P,,2*%
X34305000Y-114300000D03*
%TO.P,,3*%
X36845000Y-114300000D03*
%TO.P,,4*%
X39385000Y-114300000D03*
%TO.P,,5*%
X41925000Y-114300000D03*
%TO.P,,6*%
X44465000Y-114300000D03*
%TO.P,,7*%
X47005000Y-114300000D03*
%TO.P,,8*%
X49545000Y-114300000D03*
%TO.P,,9*%
X52085000Y-114300000D03*
%TO.P,,10*%
X54625000Y-114300000D03*
%TO.P,,11*%
X57165000Y-114300000D03*
%TO.P,,12*%
X59705000Y-114300000D03*
%TO.P,,13*%
X62245000Y-114300000D03*
%TO.P,,14*%
X64785000Y-114300000D03*
%TO.P,,15*%
X67325000Y-114300000D03*
%TO.P,,16*%
X69865000Y-114300000D03*
%TO.P,,17*%
X72405000Y-114300000D03*
%TO.P,,18*%
X74945000Y-114300000D03*
%TO.P,,19*%
X77485000Y-114300000D03*
%TO.P,,20*%
X80025000Y-114300000D03*
%TO.P,,21*%
X82565000Y-114300000D03*
%TO.P,,22*%
X85105000Y-114300000D03*
%TO.P,,23*%
X87645000Y-114300000D03*
%TO.P,,24*%
X90185000Y-114300000D03*
%TO.P,,25*%
X92725000Y-114300000D03*
%TO.P,,26*%
X95265000Y-114300000D03*
%TO.P,,27*%
X97805000Y-114300000D03*
%TO.P,,28*%
X100345000Y-114300000D03*
%TD*%
%TO.P,,39*%
%TO.N,N/C*%
X102870000Y-124470000D03*
%TO.P,,38*%
X102870000Y-121930000D03*
%TO.P,,37*%
X102870000Y-119390000D03*
%TO.P,,36*%
X102870000Y-116850000D03*
%TO.P,,35*%
X102870000Y-114310000D03*
%TO.P,,34*%
X102870000Y-111770000D03*
%TO.P,,33*%
X102870000Y-109230000D03*
%TO.P,,32*%
X102870000Y-106690000D03*
%TO.P,,31*%
X102870000Y-104150000D03*
%TO.P,,30*%
X102870000Y-101610000D03*
%TO.P,,29*%
X102870000Y-99070000D03*
%TO.P,,28*%
X102870000Y-96530000D03*
%TO.P,,27*%
X102870000Y-93990000D03*
%TO.P,,26*%
X102870000Y-91450000D03*
%TO.P,,25*%
X102870000Y-88910000D03*
%TO.P,,24*%
X102870000Y-86370000D03*
%TO.P,,23*%
X102870000Y-83830000D03*
%TO.P,,22*%
X102870000Y-81290000D03*
%TO.P,,21*%
X102870000Y-78750000D03*
%TO.P,,20*%
X102870000Y-76210000D03*
%TO.P,,19*%
X102870000Y-73670000D03*
%TO.P,,18*%
X102870000Y-71130000D03*
%TO.P,,17*%
X102870000Y-68590000D03*
%TO.P,,16*%
X102870000Y-66050000D03*
%TO.P,,15*%
X102870000Y-63510000D03*
%TO.P,,14*%
X102870000Y-60970000D03*
%TO.P,,13*%
X102870000Y-58430000D03*
%TO.P,,12*%
X102870000Y-55890000D03*
%TO.P,,11*%
X102870000Y-53350000D03*
%TO.P,,10*%
X102870000Y-50810000D03*
%TO.P,,9*%
X102870000Y-48270000D03*
%TO.P,,8*%
X102870000Y-45730000D03*
%TO.P,,7*%
X102870000Y-43190000D03*
%TO.P,,6*%
X102870000Y-40650000D03*
%TO.P,,5*%
X102870000Y-38110000D03*
%TO.P,,4*%
X102870000Y-35570000D03*
%TO.P,,3*%
X102870000Y-33030000D03*
%TO.P,,2*%
X102870000Y-30490000D03*
D10*
%TO.P,,1*%
X102870000Y-27950000D03*
%TD*%
D11*
%TO.P,,39*%
%TO.N,N/C*%
X105410000Y-124470000D03*
%TO.P,,38*%
X105410000Y-121930000D03*
%TO.P,,37*%
X105410000Y-119390000D03*
%TO.P,,36*%
X105410000Y-116850000D03*
%TO.P,,35*%
X105410000Y-114310000D03*
%TO.P,,34*%
X105410000Y-111770000D03*
%TO.P,,33*%
X105410000Y-109230000D03*
%TO.P,,32*%
X105410000Y-106690000D03*
%TO.P,,31*%
X105410000Y-104150000D03*
%TO.P,,30*%
X105410000Y-101610000D03*
%TO.P,,29*%
X105410000Y-99070000D03*
%TO.P,,28*%
X105410000Y-96530000D03*
%TO.P,,27*%
X105410000Y-93990000D03*
%TO.P,,26*%
X105410000Y-91450000D03*
%TO.P,,25*%
X105410000Y-88910000D03*
%TO.P,,24*%
X105410000Y-86370000D03*
%TO.P,,23*%
X105410000Y-83830000D03*
%TO.P,,22*%
X105410000Y-81290000D03*
%TO.P,,21*%
X105410000Y-78750000D03*
%TO.P,,20*%
X105410000Y-76210000D03*
%TO.P,,19*%
X105410000Y-73670000D03*
%TO.P,,18*%
X105410000Y-71130000D03*
%TO.P,,17*%
X105410000Y-68590000D03*
%TO.P,,16*%
X105410000Y-66050000D03*
%TO.P,,15*%
X105410000Y-63510000D03*
%TO.P,,14*%
X105410000Y-60970000D03*
%TO.P,,13*%
X105410000Y-58430000D03*
%TO.P,,12*%
X105410000Y-55890000D03*
%TO.P,,11*%
X105410000Y-53350000D03*
%TO.P,,10*%
X105410000Y-50810000D03*
%TO.P,,9*%
X105410000Y-48270000D03*
%TO.P,,8*%
X105410000Y-45730000D03*
%TO.P,,7*%
X105410000Y-43190000D03*
%TO.P,,6*%
X105410000Y-40650000D03*
%TO.P,,5*%
X105410000Y-38110000D03*
%TO.P,,4*%
X105410000Y-35570000D03*
%TO.P,,3*%
X105410000Y-33030000D03*
%TO.P,,2*%
X105410000Y-30490000D03*
D10*
%TO.P,,1*%
X105410000Y-27950000D03*
%TD*%
D11*
%TO.P,,39*%
%TO.N,N/C*%
X107950000Y-124470000D03*
%TO.P,,38*%
X107950000Y-121930000D03*
%TO.P,,37*%
X107950000Y-119390000D03*
%TO.P,,36*%
X107950000Y-116850000D03*
%TO.P,,35*%
X107950000Y-114310000D03*
%TO.P,,34*%
X107950000Y-111770000D03*
%TO.P,,33*%
X107950000Y-109230000D03*
%TO.P,,32*%
X107950000Y-106690000D03*
%TO.P,,31*%
X107950000Y-104150000D03*
%TO.P,,30*%
X107950000Y-101610000D03*
%TO.P,,29*%
X107950000Y-99070000D03*
%TO.P,,28*%
X107950000Y-96530000D03*
%TO.P,,27*%
X107950000Y-93990000D03*
%TO.P,,26*%
X107950000Y-91450000D03*
%TO.P,,25*%
X107950000Y-88910000D03*
%TO.P,,24*%
X107950000Y-86370000D03*
%TO.P,,23*%
X107950000Y-83830000D03*
%TO.P,,22*%
X107950000Y-81290000D03*
%TO.P,,21*%
X107950000Y-78750000D03*
%TO.P,,20*%
X107950000Y-76210000D03*
%TO.P,,19*%
X107950000Y-73670000D03*
%TO.P,,18*%
X107950000Y-71130000D03*
%TO.P,,17*%
X107950000Y-68590000D03*
%TO.P,,16*%
X107950000Y-66050000D03*
%TO.P,,15*%
X107950000Y-63510000D03*
%TO.P,,14*%
X107950000Y-60970000D03*
%TO.P,,13*%
X107950000Y-58430000D03*
%TO.P,,12*%
X107950000Y-55890000D03*
%TO.P,,11*%
X107950000Y-53350000D03*
%TO.P,,10*%
X107950000Y-50810000D03*
%TO.P,,9*%
X107950000Y-48270000D03*
%TO.P,,8*%
X107950000Y-45730000D03*
%TO.P,,7*%
X107950000Y-43190000D03*
%TO.P,,6*%
X107950000Y-40650000D03*
%TO.P,,5*%
X107950000Y-38110000D03*
%TO.P,,4*%
X107950000Y-35570000D03*
%TO.P,,3*%
X107950000Y-33030000D03*
%TO.P,,2*%
X107950000Y-30490000D03*
D10*
%TO.P,,1*%
X107950000Y-27950000D03*
%TD*%
D11*
%TO.P,,39*%
%TO.N,N/C*%
X110490000Y-124470000D03*
%TO.P,,38*%
X110490000Y-121930000D03*
%TO.P,,37*%
X110490000Y-119390000D03*
%TO.P,,36*%
X110490000Y-116850000D03*
%TO.P,,35*%
X110490000Y-114310000D03*
%TO.P,,34*%
X110490000Y-111770000D03*
%TO.P,,33*%
X110490000Y-109230000D03*
%TO.P,,32*%
X110490000Y-106690000D03*
%TO.P,,31*%
X110490000Y-104150000D03*
%TO.P,,30*%
X110490000Y-101610000D03*
%TO.P,,29*%
X110490000Y-99070000D03*
%TO.P,,28*%
X110490000Y-96530000D03*
%TO.P,,27*%
X110490000Y-93990000D03*
%TO.P,,26*%
X110490000Y-91450000D03*
%TO.P,,25*%
X110490000Y-88910000D03*
%TO.P,,24*%
X110490000Y-86370000D03*
%TO.P,,23*%
X110490000Y-83830000D03*
%TO.P,,22*%
X110490000Y-81290000D03*
%TO.P,,21*%
X110490000Y-78750000D03*
%TO.P,,20*%
X110490000Y-76210000D03*
%TO.P,,19*%
X110490000Y-73670000D03*
%TO.P,,18*%
X110490000Y-71130000D03*
%TO.P,,17*%
X110490000Y-68590000D03*
%TO.P,,16*%
X110490000Y-66050000D03*
%TO.P,,15*%
X110490000Y-63510000D03*
%TO.P,,14*%
X110490000Y-60970000D03*
%TO.P,,13*%
X110490000Y-58430000D03*
%TO.P,,12*%
X110490000Y-55890000D03*
%TO.P,,11*%
X110490000Y-53350000D03*
%TO.P,,10*%
X110490000Y-50810000D03*
%TO.P,,9*%
X110490000Y-48270000D03*
%TO.P,,8*%
X110490000Y-45730000D03*
%TO.P,,7*%
X110490000Y-43190000D03*
%TO.P,,6*%
X110490000Y-40650000D03*
%TO.P,,5*%
X110490000Y-38110000D03*
%TO.P,,4*%
X110490000Y-35570000D03*
%TO.P,,3*%
X110490000Y-33030000D03*
%TO.P,,2*%
X110490000Y-30490000D03*
D10*
%TO.P,,1*%
X110490000Y-27950000D03*
%TD*%
D11*
%TO.P,,39*%
%TO.N,N/C*%
X113030000Y-124470000D03*
%TO.P,,38*%
X113030000Y-121930000D03*
%TO.P,,37*%
X113030000Y-119390000D03*
%TO.P,,36*%
X113030000Y-116850000D03*
%TO.P,,35*%
X113030000Y-114310000D03*
%TO.P,,34*%
X113030000Y-111770000D03*
%TO.P,,33*%
X113030000Y-109230000D03*
%TO.P,,32*%
X113030000Y-106690000D03*
%TO.P,,31*%
X113030000Y-104150000D03*
%TO.P,,30*%
X113030000Y-101610000D03*
%TO.P,,29*%
X113030000Y-99070000D03*
%TO.P,,28*%
X113030000Y-96530000D03*
%TO.P,,27*%
X113030000Y-93990000D03*
%TO.P,,26*%
X113030000Y-91450000D03*
%TO.P,,25*%
X113030000Y-88910000D03*
%TO.P,,24*%
X113030000Y-86370000D03*
%TO.P,,23*%
X113030000Y-83830000D03*
%TO.P,,22*%
X113030000Y-81290000D03*
%TO.P,,21*%
X113030000Y-78750000D03*
%TO.P,,20*%
X113030000Y-76210000D03*
%TO.P,,19*%
X113030000Y-73670000D03*
%TO.P,,18*%
X113030000Y-71130000D03*
%TO.P,,17*%
X113030000Y-68590000D03*
%TO.P,,16*%
X113030000Y-66050000D03*
%TO.P,,15*%
X113030000Y-63510000D03*
%TO.P,,14*%
X113030000Y-60970000D03*
%TO.P,,13*%
X113030000Y-58430000D03*
%TO.P,,12*%
X113030000Y-55890000D03*
%TO.P,,11*%
X113030000Y-53350000D03*
%TO.P,,10*%
X113030000Y-50810000D03*
%TO.P,,9*%
X113030000Y-48270000D03*
%TO.P,,8*%
X113030000Y-45730000D03*
%TO.P,,7*%
X113030000Y-43190000D03*
%TO.P,,6*%
X113030000Y-40650000D03*
%TO.P,,5*%
X113030000Y-38110000D03*
%TO.P,,4*%
X113030000Y-35570000D03*
%TO.P,,3*%
X113030000Y-33030000D03*
%TO.P,,2*%
X113030000Y-30490000D03*
D10*
%TO.P,,1*%
X113030000Y-27950000D03*
%TD*%
D11*
%TO.P,,39*%
%TO.N,N/C*%
X115570000Y-124470000D03*
%TO.P,,38*%
X115570000Y-121930000D03*
%TO.P,,37*%
X115570000Y-119390000D03*
%TO.P,,36*%
X115570000Y-116850000D03*
%TO.P,,35*%
X115570000Y-114310000D03*
%TO.P,,34*%
X115570000Y-111770000D03*
%TO.P,,33*%
X115570000Y-109230000D03*
%TO.P,,32*%
X115570000Y-106690000D03*
%TO.P,,31*%
X115570000Y-104150000D03*
%TO.P,,30*%
X115570000Y-101610000D03*
%TO.P,,29*%
X115570000Y-99070000D03*
%TO.P,,28*%
X115570000Y-96530000D03*
%TO.P,,27*%
X115570000Y-93990000D03*
%TO.P,,26*%
X115570000Y-91450000D03*
%TO.P,,25*%
X115570000Y-88910000D03*
%TO.P,,24*%
X115570000Y-86370000D03*
%TO.P,,23*%
X115570000Y-83830000D03*
%TO.P,,22*%
X115570000Y-81290000D03*
%TO.P,,21*%
X115570000Y-78750000D03*
%TO.P,,20*%
X115570000Y-76210000D03*
%TO.P,,19*%
X115570000Y-73670000D03*
%TO.P,,18*%
X115570000Y-71130000D03*
%TO.P,,17*%
X115570000Y-68590000D03*
%TO.P,,16*%
X115570000Y-66050000D03*
%TO.P,,15*%
X115570000Y-63510000D03*
%TO.P,,14*%
X115570000Y-60970000D03*
%TO.P,,13*%
X115570000Y-58430000D03*
%TO.P,,12*%
X115570000Y-55890000D03*
%TO.P,,11*%
X115570000Y-53350000D03*
%TO.P,,10*%
X115570000Y-50810000D03*
%TO.P,,9*%
X115570000Y-48270000D03*
%TO.P,,8*%
X115570000Y-45730000D03*
%TO.P,,7*%
X115570000Y-43190000D03*
%TO.P,,6*%
X115570000Y-40650000D03*
%TO.P,,5*%
X115570000Y-38110000D03*
%TO.P,,4*%
X115570000Y-35570000D03*
%TO.P,,3*%
X115570000Y-33030000D03*
%TO.P,,2*%
X115570000Y-30490000D03*
D10*
%TO.P,,1*%
X115570000Y-27950000D03*
%TD*%
D11*
%TO.P,,39*%
%TO.N,N/C*%
X118110000Y-124470000D03*
%TO.P,,38*%
X118110000Y-121930000D03*
%TO.P,,37*%
X118110000Y-119390000D03*
%TO.P,,36*%
X118110000Y-116850000D03*
%TO.P,,35*%
X118110000Y-114310000D03*
%TO.P,,34*%
X118110000Y-111770000D03*
%TO.P,,33*%
X118110000Y-109230000D03*
%TO.P,,32*%
X118110000Y-106690000D03*
%TO.P,,31*%
X118110000Y-104150000D03*
%TO.P,,30*%
X118110000Y-101610000D03*
%TO.P,,29*%
X118110000Y-99070000D03*
%TO.P,,28*%
X118110000Y-96530000D03*
%TO.P,,27*%
X118110000Y-93990000D03*
%TO.P,,26*%
X118110000Y-91450000D03*
%TO.P,,25*%
X118110000Y-88910000D03*
%TO.P,,24*%
X118110000Y-86370000D03*
%TO.P,,23*%
X118110000Y-83830000D03*
%TO.P,,22*%
X118110000Y-81290000D03*
%TO.P,,21*%
X118110000Y-78750000D03*
%TO.P,,20*%
X118110000Y-76210000D03*
%TO.P,,19*%
X118110000Y-73670000D03*
%TO.P,,18*%
X118110000Y-71130000D03*
%TO.P,,17*%
X118110000Y-68590000D03*
%TO.P,,16*%
X118110000Y-66050000D03*
%TO.P,,15*%
X118110000Y-63510000D03*
%TO.P,,14*%
X118110000Y-60970000D03*
%TO.P,,13*%
X118110000Y-58430000D03*
%TO.P,,12*%
X118110000Y-55890000D03*
%TO.P,,11*%
X118110000Y-53350000D03*
%TO.P,,10*%
X118110000Y-50810000D03*
%TO.P,,9*%
X118110000Y-48270000D03*
%TO.P,,8*%
X118110000Y-45730000D03*
%TO.P,,7*%
X118110000Y-43190000D03*
%TO.P,,6*%
X118110000Y-40650000D03*
%TO.P,,5*%
X118110000Y-38110000D03*
%TO.P,,4*%
X118110000Y-35570000D03*
%TO.P,,3*%
X118110000Y-33030000D03*
%TO.P,,2*%
X118110000Y-30490000D03*
D10*
%TO.P,,1*%
X118110000Y-27950000D03*
%TD*%
D11*
%TO.P,,39*%
%TO.N,N/C*%
X120650000Y-124470000D03*
%TO.P,,38*%
X120650000Y-121930000D03*
%TO.P,,37*%
X120650000Y-119390000D03*
%TO.P,,36*%
X120650000Y-116850000D03*
%TO.P,,35*%
X120650000Y-114310000D03*
%TO.P,,34*%
X120650000Y-111770000D03*
%TO.P,,33*%
X120650000Y-109230000D03*
%TO.P,,32*%
X120650000Y-106690000D03*
%TO.P,,31*%
X120650000Y-104150000D03*
%TO.P,,30*%
X120650000Y-101610000D03*
%TO.P,,29*%
X120650000Y-99070000D03*
%TO.P,,28*%
X120650000Y-96530000D03*
%TO.P,,27*%
X120650000Y-93990000D03*
%TO.P,,26*%
X120650000Y-91450000D03*
%TO.P,,25*%
X120650000Y-88910000D03*
%TO.P,,24*%
X120650000Y-86370000D03*
%TO.P,,23*%
X120650000Y-83830000D03*
%TO.P,,22*%
X120650000Y-81290000D03*
%TO.P,,21*%
X120650000Y-78750000D03*
%TO.P,,20*%
X120650000Y-76210000D03*
%TO.P,,19*%
X120650000Y-73670000D03*
%TO.P,,18*%
X120650000Y-71130000D03*
%TO.P,,17*%
X120650000Y-68590000D03*
%TO.P,,16*%
X120650000Y-66050000D03*
%TO.P,,15*%
X120650000Y-63510000D03*
%TO.P,,14*%
X120650000Y-60970000D03*
%TO.P,,13*%
X120650000Y-58430000D03*
%TO.P,,12*%
X120650000Y-55890000D03*
%TO.P,,11*%
X120650000Y-53350000D03*
%TO.P,,10*%
X120650000Y-50810000D03*
%TO.P,,9*%
X120650000Y-48270000D03*
%TO.P,,8*%
X120650000Y-45730000D03*
%TO.P,,7*%
X120650000Y-43190000D03*
%TO.P,,6*%
X120650000Y-40650000D03*
%TO.P,,5*%
X120650000Y-38110000D03*
%TO.P,,4*%
X120650000Y-35570000D03*
%TO.P,,3*%
X120650000Y-33030000D03*
%TO.P,,2*%
X120650000Y-30490000D03*
D10*
%TO.P,,1*%
X120650000Y-27950000D03*
%TD*%
%TO.P,,1*%
%TO.N,N/C*%
X100330000Y-99060000D03*
%TD*%
%TO.P,,1*%
%TO.N,N/C*%
X100330000Y-106680000D03*
%TD*%
%TO.P,,1*%
%TO.N,N/C*%
X97790000Y-106680000D03*
%TD*%
%TO.P,,1*%
%TO.N,N/C*%
X95250000Y-106680000D03*
%TD*%
%TO.P,,1*%
%TO.N,N/C*%
X92710000Y-106680000D03*
%TD*%
%TO.P,,1*%
%TO.N,N/C*%
X95250000Y-104140000D03*
%TD*%
%TO.P,,1*%
%TO.N,N/C*%
X97790000Y-104140000D03*
%TD*%
%TO.P,,1*%
%TO.N,N/C*%
X100330000Y-104140000D03*
%TD*%
%TO.P,,1*%
%TO.N,N/C*%
X100330000Y-101600000D03*
%TD*%
%TO.P,,1*%
%TO.N,N/C*%
X97790000Y-101600000D03*
%TD*%
%TO.P,,1*%
%TO.N,N/C*%
X31765000Y-124460000D03*
D11*
%TO.P,,2*%
X34305000Y-124460000D03*
%TO.P,,3*%
X36845000Y-124460000D03*
%TO.P,,4*%
X39385000Y-124460000D03*
%TO.P,,5*%
X41925000Y-124460000D03*
%TO.P,,6*%
X44465000Y-124460000D03*
%TO.P,,7*%
X47005000Y-124460000D03*
%TO.P,,8*%
X49545000Y-124460000D03*
%TO.P,,9*%
X52085000Y-124460000D03*
%TO.P,,10*%
X54625000Y-124460000D03*
%TO.P,,11*%
X57165000Y-124460000D03*
%TO.P,,12*%
X59705000Y-124460000D03*
%TO.P,,13*%
X62245000Y-124460000D03*
%TO.P,,14*%
X64785000Y-124460000D03*
%TO.P,,15*%
X67325000Y-124460000D03*
%TO.P,,16*%
X69865000Y-124460000D03*
%TO.P,,17*%
X72405000Y-124460000D03*
%TO.P,,18*%
X74945000Y-124460000D03*
%TO.P,,19*%
X77485000Y-124460000D03*
%TO.P,,20*%
X80025000Y-124460000D03*
%TO.P,,21*%
X82565000Y-124460000D03*
%TO.P,,22*%
X85105000Y-124460000D03*
%TO.P,,23*%
X87645000Y-124460000D03*
%TO.P,,24*%
X90185000Y-124460000D03*
%TO.P,,25*%
X92725000Y-124460000D03*
%TO.P,,26*%
X95265000Y-124460000D03*
%TO.P,,27*%
X97805000Y-124460000D03*
%TO.P,,28*%
X100345000Y-124460000D03*
%TD*%
D10*
%TO.P,,1*%
%TO.N,N/C*%
X36830000Y-116840000D03*
D11*
%TO.P,,2*%
X39370000Y-116840000D03*
%TO.P,,3*%
X41910000Y-116840000D03*
%TO.P,,4*%
X44450000Y-116840000D03*
%TO.P,,5*%
X46990000Y-116840000D03*
%TO.P,,6*%
X49530000Y-116840000D03*
%TO.P,,7*%
X52070000Y-116840000D03*
%TO.P,,8*%
X54610000Y-116840000D03*
%TO.P,,9*%
X57150000Y-116840000D03*
%TO.P,,10*%
X59690000Y-116840000D03*
%TO.P,,11*%
X62230000Y-116840000D03*
%TO.P,,12*%
X64770000Y-116840000D03*
%TO.P,,13*%
X67310000Y-116840000D03*
%TO.P,,14*%
X69850000Y-116840000D03*
%TO.P,,15*%
X72390000Y-116840000D03*
%TO.P,,16*%
X74930000Y-116840000D03*
%TO.P,,17*%
X77470000Y-116840000D03*
%TO.P,,18*%
X80010000Y-116840000D03*
%TO.P,,19*%
X82550000Y-116840000D03*
%TO.P,,20*%
X85090000Y-116840000D03*
%TO.P,,21*%
X87630000Y-116840000D03*
%TO.P,,22*%
X90170000Y-116840000D03*
%TO.P,,23*%
X92710000Y-116840000D03*
%TO.P,,24*%
X95250000Y-116840000D03*
%TO.P,,25*%
X97790000Y-116840000D03*
%TO.P,,26*%
X100330000Y-116840000D03*
%TD*%
%TO.P,,39*%
%TO.N,N/C*%
X123190000Y-124460000D03*
%TO.P,,38*%
X123190000Y-121920000D03*
%TO.P,,37*%
X123190000Y-119380000D03*
%TO.P,,36*%
X123190000Y-116840000D03*
%TO.P,,35*%
X123190000Y-114300000D03*
%TO.P,,34*%
X123190000Y-111760000D03*
%TO.P,,33*%
X123190000Y-109220000D03*
%TO.P,,32*%
X123190000Y-106680000D03*
%TO.P,,31*%
X123190000Y-104140000D03*
%TO.P,,30*%
X123190000Y-101600000D03*
%TO.P,,29*%
X123190000Y-99060000D03*
%TO.P,,28*%
X123190000Y-96520000D03*
%TO.P,,27*%
X123190000Y-93980000D03*
%TO.P,,26*%
X123190000Y-91440000D03*
%TO.P,,25*%
X123190000Y-88900000D03*
%TO.P,,24*%
X123190000Y-86360000D03*
%TO.P,,23*%
X123190000Y-83820000D03*
%TO.P,,22*%
X123190000Y-81280000D03*
%TO.P,,21*%
X123190000Y-78740000D03*
%TO.P,,20*%
X123190000Y-76200000D03*
%TO.P,,19*%
X123190000Y-73660000D03*
%TO.P,,18*%
X123190000Y-71120000D03*
%TO.P,,17*%
X123190000Y-68580000D03*
%TO.P,,16*%
X123190000Y-66040000D03*
%TO.P,,15*%
X123190000Y-63500000D03*
%TO.P,,14*%
X123190000Y-60960000D03*
%TO.P,,13*%
X123190000Y-58420000D03*
%TO.P,,12*%
X123190000Y-55880000D03*
%TO.P,,11*%
X123190000Y-53340000D03*
%TO.P,,10*%
X123190000Y-50800000D03*
%TO.P,,9*%
X123190000Y-48260000D03*
%TO.P,,8*%
X123190000Y-45720000D03*
%TO.P,,7*%
X123190000Y-43180000D03*
%TO.P,,6*%
X123190000Y-40640000D03*
%TO.P,,5*%
X123190000Y-38100000D03*
%TO.P,,4*%
X123190000Y-35560000D03*
%TO.P,,3*%
X123190000Y-33020000D03*
%TO.P,,2*%
X123190000Y-30480000D03*
D10*
%TO.P,,1*%
X123190000Y-27940000D03*
%TD*%
%TO.P,C2,1*%
%TO.N,+5V*%
X39370000Y-48260000D03*
D11*
%TO.P,C2,2*%
%TO.N,GND*%
X39370000Y-45720000D03*
%TD*%
D12*
%TO.P,R2,1*%
%TO.N,+5V*%
X50800000Y-59690000D03*
D13*
%TO.P,R2,2*%
%TO.N,INT\u005C*%
X50800000Y-49530000D03*
%TD*%
D14*
%TO.P,3\u002C6864Mhz1,1,1*%
%TO.N,X1{slash}CLK*%
X34200000Y-60960000D03*
%TO.P,3\u002C6864Mhz1,2,2*%
%TO.N,X2*%
X29300000Y-60960000D03*
%TD*%
D15*
%TO.P,U2,1,I1/CLK*%
%TO.N,/A13*%
X93975000Y-90180000D03*
D16*
%TO.P,U2,2,I2*%
%TO.N,/A14*%
X91435000Y-90180000D03*
%TO.P,U2,3,I3*%
%TO.N,/A15*%
X88895000Y-90180000D03*
%TO.P,U2,4,I4*%
%TO.N,MEMRQ\u005C*%
X86355000Y-90180000D03*
%TO.P,U2,5,I5*%
%TO.N,IORQ\u005C*%
X83815000Y-90180000D03*
%TO.P,U2,6,I6*%
%TO.N,OP7*%
X81275000Y-90180000D03*
%TO.P,U2,7,I7*%
%TO.N,X1{slash}CLK*%
X78735000Y-90180000D03*
%TO.P,U2,8,I8*%
%TO.N,RFSH\u005C*%
X76195000Y-90180000D03*
%TO.P,U2,9,I9*%
%TO.N,RD\u005C*%
X73655000Y-90180000D03*
%TO.P,U2,10,GND*%
%TO.N,GND*%
X71115000Y-90180000D03*
%TO.P,U2,11,I10/~{OE}*%
%TO.N,M1\u005C*%
X71115000Y-97800000D03*
%TO.P,U2,12,IO8*%
%TO.N,WR\u005C*%
X73655000Y-97800000D03*
%TO.P,U2,13,IO7*%
%TO.N,unconnected-(U2-Pad13)*%
X76195000Y-97800000D03*
%TO.P,U2,14,IO6*%
%TO.N,unconnected-(U2-Pad14)*%
X78735000Y-97800000D03*
%TO.P,U2,15,IO5*%
%TO.N,M1IOREQ\u005C*%
X81275000Y-97800000D03*
%TO.P,U2,16,IO4*%
%TO.N,CLK*%
X83815000Y-97800000D03*
%TO.P,U2,17,I03*%
%TO.N,Net-(U2-Pad17)*%
X86355000Y-97800000D03*
%TO.P,U2,18,IO2*%
%TO.N,Net-(U2-Pad18)*%
X88895000Y-97800000D03*
%TO.P,U2,19,IO1*%
%TO.N,Net-(U2-Pad19)*%
X91435000Y-97800000D03*
%TO.P,U2,20,VCC*%
%TO.N,+5V*%
X93975000Y-97800000D03*
%TD*%
D15*
%TO.P,U5,1,A14*%
%TO.N,/A14*%
X93970000Y-77455000D03*
D16*
%TO.P,U5,2,A12*%
%TO.N,/A12*%
X91430000Y-77455000D03*
%TO.P,U5,3,A7*%
%TO.N,/A7*%
X88890000Y-77455000D03*
%TO.P,U5,4,A6*%
%TO.N,/A6*%
X86350000Y-77455000D03*
%TO.P,U5,5,A5*%
%TO.N,/A5*%
X83810000Y-77455000D03*
%TO.P,U5,6,A4*%
%TO.N,/A4*%
X81270000Y-77455000D03*
%TO.P,U5,7,A3*%
%TO.N,/A3*%
X78730000Y-77455000D03*
%TO.P,U5,8,A2*%
%TO.N,/A2*%
X76190000Y-77455000D03*
%TO.P,U5,9,A1*%
%TO.N,/A1*%
X73650000Y-77455000D03*
%TO.P,U5,10,A0*%
%TO.N,/A0*%
X71110000Y-77455000D03*
%TO.P,U5,11,D0*%
%TO.N,/D0*%
X68570000Y-77455000D03*
%TO.P,U5,12,D1*%
%TO.N,/D1*%
X66030000Y-77455000D03*
%TO.P,U5,13,D2*%
%TO.N,/D2*%
X63490000Y-77455000D03*
%TO.P,U5,14,GND*%
%TO.N,GND*%
X60950000Y-77455000D03*
%TO.P,U5,15,D3*%
%TO.N,/D3*%
X60950000Y-85075000D03*
%TO.P,U5,16,D4*%
%TO.N,/D4*%
X63490000Y-85075000D03*
%TO.P,U5,17,D5*%
%TO.N,/D5*%
X66030000Y-85075000D03*
%TO.P,U5,18,D6*%
%TO.N,/D6*%
X68570000Y-85075000D03*
%TO.P,U5,19,D7*%
%TO.N,/D7*%
X71110000Y-85075000D03*
%TO.P,U5,20,~{CE}*%
%TO.N,Net-(U2-Pad17)*%
X73650000Y-85075000D03*
%TO.P,U5,21,A10*%
%TO.N,/A10*%
X76190000Y-85075000D03*
%TO.P,U5,22,~{OE}*%
%TO.N,RD\u005C*%
X78730000Y-85075000D03*
%TO.P,U5,23,A11*%
%TO.N,/A11*%
X81270000Y-85075000D03*
%TO.P,U5,24,A9*%
%TO.N,/A9*%
X83810000Y-85075000D03*
%TO.P,U5,25,A8*%
%TO.N,/A8*%
X86350000Y-85075000D03*
%TO.P,U5,26,A13*%
%TO.N,/A13*%
X88890000Y-85075000D03*
%TO.P,U5,27,~{WE}*%
%TO.N,WR\u005C*%
X91430000Y-85075000D03*
%TO.P,U5,28,VCC*%
%TO.N,+5V*%
X93970000Y-85075000D03*
%TD*%
D12*
%TO.P,R1,1*%
%TO.N,Net-(U1-Pad17)*%
X55880000Y-49530000D03*
D13*
%TO.P,R1,2*%
%TO.N,+5V*%
X55880000Y-59690000D03*
%TD*%
D17*
%TO.P,J1,1,VBUS*%
%TO.N,+5V*%
X33040000Y-41077500D03*
D12*
%TO.P,J1,2,D-*%
%TO.N,unconnected-(J1-Pad2)*%
X35540000Y-41077500D03*
%TO.P,J1,3,D+*%
%TO.N,unconnected-(J1-Pad3)*%
X35540000Y-39077500D03*
%TO.P,J1,4,GND*%
%TO.N,GND*%
X33040000Y-39077500D03*
D18*
%TO.P,J1,5,Shield*%
%TO.N,unconnected-(J1-Pad5)*%
X28290000Y-36217500D03*
X40290000Y-36217500D03*
%TD*%
D17*
%TO.P,U3,1,VPP*%
%TO.N,GND*%
X93970000Y-46985000D03*
D13*
%TO.P,U3,2,A12*%
%TO.N,/A12*%
X91430000Y-46985000D03*
%TO.P,U3,3,A7*%
%TO.N,/A7*%
X88890000Y-46985000D03*
%TO.P,U3,4,A6*%
%TO.N,/A6*%
X86350000Y-46985000D03*
%TO.P,U3,5,A5*%
%TO.N,/A5*%
X83810000Y-46985000D03*
%TO.P,U3,6,A4*%
%TO.N,/A4*%
X81270000Y-46985000D03*
%TO.P,U3,7,A3*%
%TO.N,/A3*%
X78730000Y-46985000D03*
%TO.P,U3,8,A2*%
%TO.N,/A2*%
X76190000Y-46985000D03*
%TO.P,U3,9,A1*%
%TO.N,/A1*%
X73650000Y-46985000D03*
%TO.P,U3,10,A0*%
%TO.N,/A0*%
X71110000Y-46985000D03*
%TO.P,U3,11,D0*%
%TO.N,/D0*%
X68570000Y-46985000D03*
%TO.P,U3,12,D1*%
%TO.N,/D1*%
X66030000Y-46985000D03*
%TO.P,U3,13,D2*%
%TO.N,/D2*%
X63490000Y-46985000D03*
%TO.P,U3,14,GND*%
%TO.N,GND*%
X60950000Y-46985000D03*
%TO.P,U3,15,D3*%
%TO.N,/D3*%
X60950000Y-62225000D03*
%TO.P,U3,16,D4*%
%TO.N,/D4*%
X63490000Y-62225000D03*
%TO.P,U3,17,D5*%
%TO.N,/D5*%
X66030000Y-62225000D03*
%TO.P,U3,18,D6*%
%TO.N,/D6*%
X68570000Y-62225000D03*
%TO.P,U3,19,D7*%
%TO.N,/D7*%
X71110000Y-62225000D03*
%TO.P,U3,20,~{CE}*%
%TO.N,Net-(U2-Pad19)*%
X73650000Y-62225000D03*
%TO.P,U3,21,A10*%
%TO.N,/A10*%
X76190000Y-62225000D03*
%TO.P,U3,22,~{OE}*%
%TO.N,RD\u005C*%
X78730000Y-62225000D03*
%TO.P,U3,23,A11*%
%TO.N,/A11*%
X81270000Y-62225000D03*
%TO.P,U3,24,A9*%
%TO.N,/A9*%
X83810000Y-62225000D03*
%TO.P,U3,25,A8*%
%TO.N,/A8*%
X86350000Y-62225000D03*
%TO.P,U3,26,A13*%
%TO.N,/A13*%
X88890000Y-62225000D03*
%TO.P,U3,27,A14*%
%TO.N,+5V*%
X91430000Y-62225000D03*
%TO.P,U3,28,VCC*%
X93970000Y-62225000D03*
%TD*%
D10*
%TO.P,J2,1,Pin_1*%
%TO.N,GND*%
X35550000Y-97790000D03*
D11*
%TO.P,J2,2,Pin_2*%
%TO.N,+5V*%
X33010000Y-97790000D03*
%TO.P,J2,3,Pin_3*%
%TO.N,/B2*%
X30470000Y-97790000D03*
%TO.P,J2,4,Pin_4*%
%TO.N,/B3*%
X27930000Y-97790000D03*
%TD*%
D15*
%TO.P,U1,1,A11*%
%TO.N,/A11*%
X93920000Y-28085000D03*
D16*
%TO.P,U1,2,A12*%
%TO.N,/A12*%
X91380000Y-28085000D03*
%TO.P,U1,3,A13*%
%TO.N,/A13*%
X88840000Y-28085000D03*
%TO.P,U1,4,A14*%
%TO.N,/A14*%
X86300000Y-28085000D03*
%TO.P,U1,5,A15*%
%TO.N,/A15*%
X83760000Y-28085000D03*
%TO.P,U1,6,~{CLK}*%
%TO.N,CLK*%
X81220000Y-28085000D03*
%TO.P,U1,7,D4*%
%TO.N,/D4*%
X78680000Y-28085000D03*
%TO.P,U1,8,D3*%
%TO.N,/D3*%
X76140000Y-28085000D03*
%TO.P,U1,9,D5*%
%TO.N,/D5*%
X73600000Y-28085000D03*
%TO.P,U1,10,D6*%
%TO.N,/D6*%
X71060000Y-28085000D03*
%TO.P,U1,11,VCC*%
%TO.N,+5V*%
X68520000Y-28085000D03*
%TO.P,U1,12,D2*%
%TO.N,/D2*%
X65980000Y-28085000D03*
%TO.P,U1,13,D7*%
%TO.N,/D7*%
X63440000Y-28085000D03*
%TO.P,U1,14,D0*%
%TO.N,/D0*%
X60900000Y-28085000D03*
%TO.P,U1,15,D1*%
%TO.N,/D1*%
X58360000Y-28085000D03*
%TO.P,U1,16,~{INT}*%
%TO.N,INT\u005C*%
X55820000Y-28085000D03*
%TO.P,U1,17,~{NMI}*%
%TO.N,Net-(U1-Pad17)*%
X53280000Y-28085000D03*
%TO.P,U1,18,~{HALT}*%
%TO.N,unconnected-(U1-Pad18)*%
X50740000Y-28085000D03*
%TO.P,U1,19,~{MREQ}*%
%TO.N,MEMRQ\u005C*%
X48200000Y-28085000D03*
%TO.P,U1,20,~{IORQ}*%
%TO.N,IORQ\u005C*%
X45660000Y-28085000D03*
%TO.P,U1,21,~{RD}*%
%TO.N,RD\u005C*%
X45660000Y-43325000D03*
%TO.P,U1,22,~{WR}*%
%TO.N,WR\u005C*%
X48200000Y-43325000D03*
%TO.P,U1,23,~{BUSACK}*%
%TO.N,unconnected-(U1-Pad23)*%
X50740000Y-43325000D03*
%TO.P,U1,24,~{WAIT}*%
%TO.N,Net-(R3-Pad2)*%
X53280000Y-43325000D03*
%TO.P,U1,25,~{BUSRQ}*%
%TO.N,Net-(R4-Pad2)*%
X55820000Y-43325000D03*
%TO.P,U1,26,~{RESET}*%
%TO.N,RES\u005C*%
X58360000Y-43325000D03*
%TO.P,U1,27,~{M1}*%
%TO.N,M1\u005C*%
X60900000Y-43325000D03*
%TO.P,U1,28,~{RFSH}*%
%TO.N,RFSH\u005C*%
X63440000Y-43325000D03*
%TO.P,U1,29,GND*%
%TO.N,GND*%
X65980000Y-43325000D03*
%TO.P,U1,30,A0*%
%TO.N,/A0*%
X68520000Y-43325000D03*
%TO.P,U1,31,A1*%
%TO.N,/A1*%
X71060000Y-43325000D03*
%TO.P,U1,32,A2*%
%TO.N,/A2*%
X73600000Y-43325000D03*
%TO.P,U1,33,A3*%
%TO.N,/A3*%
X76140000Y-43325000D03*
%TO.P,U1,34,A4*%
%TO.N,/A4*%
X78680000Y-43325000D03*
%TO.P,U1,35,A5*%
%TO.N,/A5*%
X81220000Y-43325000D03*
%TO.P,U1,36,A6*%
%TO.N,/A6*%
X83760000Y-43325000D03*
%TO.P,U1,37,A7*%
%TO.N,/A7*%
X86300000Y-43325000D03*
%TO.P,U1,38,A8*%
%TO.N,/A8*%
X88840000Y-43325000D03*
%TO.P,U1,39,A9*%
%TO.N,/A9*%
X91380000Y-43325000D03*
%TO.P,U1,40,A10*%
%TO.N,/A10*%
X93920000Y-43325000D03*
%TD*%
D12*
%TO.P,R5,1*%
%TO.N,+5V*%
X53340000Y-59690000D03*
D13*
%TO.P,R5,2*%
%TO.N,RES\u005C*%
X53340000Y-49530000D03*
%TD*%
D12*
%TO.P,R7,1*%
%TO.N,+5V*%
X38100000Y-93980000D03*
D13*
%TO.P,R7,2*%
%TO.N,Net-(R7-Pad2)*%
X27940000Y-93980000D03*
%TD*%
D10*
%TO.P,C4,1*%
%TO.N,+5V*%
X97790000Y-71120000D03*
D11*
%TO.P,C4,2*%
%TO.N,GND*%
X97790000Y-68580000D03*
%TD*%
D10*
%TO.P,C8,1*%
%TO.N,+5V*%
X97790000Y-54610000D03*
D11*
%TO.P,C8,2*%
%TO.N,GND*%
X97790000Y-57150000D03*
%TD*%
D10*
%TO.P,C9,1*%
%TO.N,+5V*%
X97790000Y-40640000D03*
D11*
%TO.P,C9,2*%
%TO.N,GND*%
X97790000Y-43180000D03*
%TD*%
D12*
%TO.P,R3,1*%
%TO.N,+5V*%
X45720000Y-59690000D03*
D13*
%TO.P,R3,2*%
%TO.N,Net-(R3-Pad2)*%
X45720000Y-49530000D03*
%TD*%
D15*
%TO.P,U4,1,A14*%
%TO.N,/A14*%
X93980000Y-66025000D03*
D16*
%TO.P,U4,2,A12*%
%TO.N,/A12*%
X91440000Y-66025000D03*
%TO.P,U4,3,A7*%
%TO.N,/A7*%
X88900000Y-66025000D03*
%TO.P,U4,4,A6*%
%TO.N,/A6*%
X86360000Y-66025000D03*
%TO.P,U4,5,A5*%
%TO.N,/A5*%
X83820000Y-66025000D03*
%TO.P,U4,6,A4*%
%TO.N,/A4*%
X81280000Y-66025000D03*
%TO.P,U4,7,A3*%
%TO.N,/A3*%
X78740000Y-66025000D03*
%TO.P,U4,8,A2*%
%TO.N,/A2*%
X76200000Y-66025000D03*
%TO.P,U4,9,A1*%
%TO.N,/A1*%
X73660000Y-66025000D03*
%TO.P,U4,10,A0*%
%TO.N,/A0*%
X71120000Y-66025000D03*
%TO.P,U4,11,D0*%
%TO.N,/D0*%
X68580000Y-66025000D03*
%TO.P,U4,12,D1*%
%TO.N,/D1*%
X66040000Y-66025000D03*
%TO.P,U4,13,D2*%
%TO.N,/D2*%
X63500000Y-66025000D03*
%TO.P,U4,14,GND*%
%TO.N,GND*%
X60960000Y-66025000D03*
%TO.P,U4,15,D3*%
%TO.N,/D3*%
X60960000Y-73645000D03*
%TO.P,U4,16,D4*%
%TO.N,/D4*%
X63500000Y-73645000D03*
%TO.P,U4,17,D5*%
%TO.N,/D5*%
X66040000Y-73645000D03*
%TO.P,U4,18,D6*%
%TO.N,/D6*%
X68580000Y-73645000D03*
%TO.P,U4,19,D7*%
%TO.N,/D7*%
X71120000Y-73645000D03*
%TO.P,U4,20,~{CE}*%
%TO.N,Net-(U2-Pad18)*%
X73660000Y-73645000D03*
%TO.P,U4,21,A10*%
%TO.N,/A10*%
X76200000Y-73645000D03*
%TO.P,U4,22,~{OE}*%
%TO.N,RD\u005C*%
X78740000Y-73645000D03*
%TO.P,U4,23,A11*%
%TO.N,/A11*%
X81280000Y-73645000D03*
%TO.P,U4,24,A9*%
%TO.N,/A9*%
X83820000Y-73645000D03*
%TO.P,U4,25,A8*%
%TO.N,/A8*%
X86360000Y-73645000D03*
%TO.P,U4,26,A13*%
%TO.N,/A13*%
X88900000Y-73645000D03*
%TO.P,U4,27,~{WE}*%
%TO.N,WR\u005C*%
X91440000Y-73645000D03*
%TO.P,U4,28,VCC*%
%TO.N,+5V*%
X93980000Y-73645000D03*
%TD*%
D10*
%TO.P,C6,1*%
%TO.N,GND*%
X36830000Y-54610000D03*
D11*
%TO.P,C6,2*%
%TO.N,X1{slash}CLK*%
X39370000Y-54610000D03*
%TD*%
D10*
%TO.P,J3,1,Pin_1*%
%TO.N,+5V*%
X81285000Y-104140000D03*
D11*
%TO.P,J3,2,Pin_2*%
X78745000Y-104140000D03*
%TO.P,J3,3,Pin_3*%
%TO.N,GND*%
X76205000Y-104140000D03*
%TO.P,J3,4,Pin_4*%
X73665000Y-104140000D03*
%TO.P,J3,5,Pin_5*%
%TO.N,/B0*%
X71125000Y-104140000D03*
%TO.P,J3,6,Pin_6*%
%TO.N,/B1*%
X68585000Y-104140000D03*
%TO.P,J3,7,Pin_7*%
%TO.N,/B2*%
X66045000Y-104140000D03*
%TO.P,J3,8,Pin_8*%
%TO.N,/B3*%
X63505000Y-104140000D03*
%TO.P,J3,9,Pin_9*%
%TO.N,/B4*%
X60965000Y-104140000D03*
%TO.P,J3,10,Pin_10*%
%TO.N,/B5*%
X58425000Y-104140000D03*
%TO.P,J3,11,Pin_11*%
%TO.N,/B6*%
X55885000Y-104140000D03*
%TO.P,J3,12,Pin_12*%
%TO.N,/B7*%
X53345000Y-104140000D03*
%TO.P,J3,13,Pin_13*%
%TO.N,/B8*%
X50805000Y-104140000D03*
%TO.P,J3,14,Pin_14*%
%TO.N,/B9*%
X48265000Y-104140000D03*
%TO.P,J3,15,Pin_15*%
%TO.N,/B10*%
X45725000Y-104140000D03*
%TO.P,J3,16,Pin_16*%
%TO.N,OP7*%
X43185000Y-104140000D03*
%TO.P,J3,17,Pin_17*%
%TO.N,/B12*%
X40645000Y-104140000D03*
%TO.P,J3,18,Pin_18*%
%TO.N,/B13*%
X38105000Y-104140000D03*
%TO.P,J3,19,Pin_19*%
%TO.N,/B14*%
X35565000Y-104140000D03*
%TO.P,J3,20,Pin_20*%
%TO.N,/B15*%
X33025000Y-104140000D03*
%TO.P,J3,21,Pin_21*%
%TO.N,/B16*%
X30485000Y-104140000D03*
%TO.P,J3,22,Pin_22*%
%TO.N,/B17*%
X27945000Y-104140000D03*
%TD*%
D12*
%TO.P,SW1,1,1*%
%TO.N,GND*%
X32980000Y-119380000D03*
%TO.P,SW1,2,2*%
%TO.N,RES\u005C*%
X27980000Y-119380000D03*
%TD*%
%TO.P,R4,1*%
%TO.N,+5V*%
X48260000Y-59690000D03*
D13*
%TO.P,R4,2*%
%TO.N,Net-(R4-Pad2)*%
X48260000Y-49530000D03*
%TD*%
D10*
%TO.P,C7,1*%
%TO.N,+5V*%
X45720000Y-64770000D03*
D11*
%TO.P,C7,2*%
%TO.N,GND*%
X43180000Y-64770000D03*
%TD*%
D19*
%TO.P,U6,1,NC*%
%TO.N,unconnected-(U6-Pad1)*%
X36830000Y-86360000D03*
D20*
%TO.P,U6,2,A1*%
%TO.N,/A0*%
X39370000Y-88900000D03*
%TO.P,U6,3,IP3*%
%TO.N,/B15*%
X39370000Y-86360000D03*
%TO.P,U6,4,A2*%
%TO.N,/A1*%
X41910000Y-88900000D03*
%TO.P,U6,5,IP1*%
%TO.N,/B13*%
X41910000Y-86360000D03*
%TO.P,U6,6,A3*%
%TO.N,/A2*%
X44450000Y-88900000D03*
%TO.P,U6,7,A4*%
%TO.N,/A3*%
X46990000Y-86360000D03*
%TO.P,U6,8,IP0*%
%TO.N,/B12*%
X44450000Y-86360000D03*
%TO.P,U6,9,R/~{W}*%
%TO.N,WR\u005C*%
X46990000Y-83820000D03*
%TO.P,U6,10,~{DTACK}*%
%TO.N,unconnected-(U6-Pad10)*%
X44450000Y-83820000D03*
%TO.P,U6,11,RXDB*%
%TO.N,/B2*%
X46990000Y-81280000D03*
%TO.P,U6,12,NC*%
%TO.N,unconnected-(U6-Pad12)*%
X44450000Y-81280000D03*
%TO.P,U6,13,TXDB*%
%TO.N,/B3*%
X46990000Y-78740000D03*
%TO.P,U6,14,OP1*%
%TO.N,/B5*%
X44450000Y-78740000D03*
%TO.P,U6,15,OP3*%
%TO.N,/B7*%
X46990000Y-76200000D03*
%TO.P,U6,16,OP5*%
%TO.N,/B9*%
X44450000Y-76200000D03*
%TO.P,U6,17,OP7*%
%TO.N,OP7*%
X46990000Y-73660000D03*
%TO.P,U6,18,D1*%
%TO.N,/D1*%
X44450000Y-71120000D03*
%TO.P,U6,19,D3*%
%TO.N,/D3*%
X44450000Y-73660000D03*
%TO.P,U6,20,D5*%
%TO.N,/D5*%
X41910000Y-71120000D03*
%TO.P,U6,21,D7*%
%TO.N,/D7*%
X41910000Y-73660000D03*
%TO.P,U6,22,GND*%
%TO.N,GND*%
X39370000Y-71120000D03*
%TO.P,U6,23,NC*%
%TO.N,unconnected-(U6-Pad23)*%
X39370000Y-73660000D03*
%TO.P,U6,24,~{INTR}*%
%TO.N,INT\u005C*%
X36830000Y-71120000D03*
%TO.P,U6,25,D6*%
%TO.N,/D6*%
X36830000Y-73660000D03*
%TO.P,U6,26,D4*%
%TO.N,/D4*%
X34290000Y-71120000D03*
%TO.P,U6,27,D2*%
%TO.N,/D2*%
X34290000Y-73660000D03*
%TO.P,U6,28,D0*%
%TO.N,/D0*%
X31750000Y-71120000D03*
%TO.P,U6,29,OP6*%
%TO.N,/B10*%
X29210000Y-73660000D03*
%TO.P,U6,30,OP4*%
%TO.N,/B8*%
X31750000Y-73660000D03*
%TO.P,U6,31,OP2*%
%TO.N,/B6*%
X29210000Y-76200000D03*
%TO.P,U6,32,OP0*%
%TO.N,/B4*%
X31750000Y-76200000D03*
%TO.P,U6,33,TXDA*%
%TO.N,/B1*%
X29210000Y-78740000D03*
%TO.P,U6,34,NC*%
%TO.N,unconnected-(U6-Pad34)*%
X31750000Y-78740000D03*
%TO.P,U6,35,RXDA*%
%TO.N,/B0*%
X29210000Y-81280000D03*
%TO.P,U6,36,X1/CLK*%
%TO.N,X1{slash}CLK*%
X31750000Y-81280000D03*
%TO.P,U6,37,X2*%
%TO.N,X2*%
X29210000Y-83820000D03*
%TO.P,U6,38,~{RESET}*%
%TO.N,RES\u005C*%
X31750000Y-83820000D03*
%TO.P,U6,39,~{CS}*%
%TO.N,M1IOREQ\u005C*%
X29210000Y-86360000D03*
%TO.P,U6,40,IP2*%
%TO.N,/B14*%
X31750000Y-88900000D03*
%TO.P,U6,41,~{IACK}*%
%TO.N,Net-(R7-Pad2)*%
X31750000Y-86360000D03*
%TO.P,U6,42,IP5*%
%TO.N,/B17*%
X34290000Y-88900000D03*
%TO.P,U6,43,IP4*%
%TO.N,/B16*%
X34290000Y-86360000D03*
%TO.P,U6,44,VCC*%
%TO.N,+5V*%
X36830000Y-88900000D03*
%TD*%
D21*
%TO.P,D1,1,K*%
%TO.N,Net-(D1-Pad1)*%
X31750000Y-48260000D03*
D22*
%TO.P,D1,2,A*%
%TO.N,GND*%
X29210000Y-48260000D03*
%TD*%
D17*
%TO.P,C1,1*%
%TO.N,RES\u005C*%
X50800000Y-64770000D03*
D12*
%TO.P,C1,2*%
%TO.N,GND*%
X53300000Y-64770000D03*
%TD*%
D23*
%TO.P,R6,1*%
%TO.N,+5V*%
X35560000Y-48260000D03*
D24*
%TO.P,R6,2*%
%TO.N,Net-(D1-Pad1)*%
X35560000Y-46360000D03*
%TD*%
D10*
%TO.P,C3,1*%
%TO.N,GND*%
X31750000Y-54610000D03*
D11*
%TO.P,C3,2*%
%TO.N,X2*%
X29210000Y-54610000D03*
%TD*%
D10*
%TO.P,C5,1*%
%TO.N,+5V*%
X97790000Y-82550000D03*
D11*
%TO.P,C5,2*%
%TO.N,GND*%
X97790000Y-80010000D03*
%TD*%
D25*
%TO.N,Net-(U1-Pad17)*%
X54530300Y-46080000D03*
%TO.N,RES\u005C*%
X26337200Y-73174700D03*
%TO.N,/A11*%
X81442700Y-49223300D03*
X91819400Y-36081000D03*
%TO.N,/A12*%
X92756100Y-38080600D03*
%TO.N,X1{slash}CLK*%
X55639000Y-98742800D03*
X41780800Y-83536200D03*
X75514800Y-94795300D03*
%TO.N,/D3*%
X61474600Y-49790300D03*
%TO.N,/D5*%
X73600000Y-33608000D03*
X66393500Y-49446800D03*
%TO.N,/D6*%
X71261100Y-32036000D03*
X44715900Y-61362400D03*
%TO.N,/D2*%
X69501500Y-41753100D03*
X64750300Y-71866700D03*
%TO.N,/D7*%
X51073500Y-58281700D03*
X62212400Y-32507500D03*
%TO.N,MEMRQ\u005C*%
X95658700Y-37344300D03*
%TO.N,IORQ\u005C*%
X93240100Y-36434400D03*
%TO.N,WR\u005C*%
X79527500Y-87206900D03*
X77465000Y-82895600D03*
%TO.N,GND*%
X59872800Y-83615400D03*
%TO.N,/A1*%
X44482200Y-44571200D03*
X30518900Y-75563100D03*
%TO.N,/A2*%
X75914500Y-82768400D03*
%TO.N,/A9*%
X91253000Y-54818900D03*
%TO.N,M1IOREQ\u005C*%
X56022100Y-87272200D03*
X57948100Y-90269500D03*
%TO.N,RFSH\u005C*%
X95131800Y-57717900D03*
X90423800Y-75534600D03*
%TO.N,OP7*%
X57676400Y-89093400D03*
%TO.N,Net-(U2-Pad18)*%
X76819400Y-80301900D03*
%TO.N,Net-(U2-Pad19)*%
X74131500Y-79741300D03*
X74905400Y-91716000D03*
%TO.N,/B1*%
X39833800Y-80147500D03*
%TO.N,/B2*%
X50937900Y-90245800D03*
%TO.N,/B3*%
X52529700Y-92771200D03*
X52594200Y-89346700D03*
%TO.N,/B4*%
X41921100Y-80982900D03*
%TO.N,/B6*%
X41672100Y-90677300D03*
%TO.N,/B7*%
X58157900Y-93887600D03*
%TO.N,/B9*%
X56806100Y-93192500D03*
%TO.N,/B12*%
X42126000Y-91677100D03*
%TO.N,+5V*%
X55457300Y-100255900D03*
X46392000Y-91490900D03*
%TD*%
D26*
%TO.N,Net-(U1-Pad17)*%
X55880000Y-47429700D02*
X54530300Y-46080000D01*
X55880000Y-49530000D02*
X55880000Y-47429700D01*
%TO.N,Net-(R3-Pad2)*%
X46970400Y-48279600D02*
X48325400Y-48279600D01*
X48325400Y-48279600D02*
X53280000Y-43325000D01*
X45720000Y-49530000D02*
X46970400Y-48279600D01*
%TO.N,Net-(R4-Pad2)*%
X55820000Y-43325000D02*
X55820000Y-45025000D01*
X52765000Y-45025000D02*
X55820000Y-45025000D01*
X48260000Y-49530000D02*
X52765000Y-45025000D01*
%TO.N,RES\u005C*%
X31454800Y-68057100D02*
X26337200Y-73174700D01*
X46212900Y-68057100D02*
X31454800Y-68057100D01*
X49500000Y-64770000D02*
X46212900Y-68057100D01*
X50800000Y-64770000D02*
X49500000Y-64770000D01*
%TO.N,/A11*%
X82490000Y-44250100D02*
X82490000Y-42398900D01*
X81280000Y-73645000D02*
X81280000Y-71945000D01*
X80010100Y-70675100D02*
X80010100Y-64784900D01*
X81280000Y-71945000D02*
X80010100Y-70675100D01*
X80010100Y-64784900D02*
X81270000Y-63525000D01*
X82540000Y-44300100D02*
X82490000Y-44250100D01*
X82540000Y-48126000D02*
X82540000Y-44300100D01*
X81270000Y-62225000D02*
X81270000Y-63525000D01*
X82490000Y-42398900D02*
X88807900Y-36081000D01*
X88807900Y-36081000D02*
X91819400Y-36081000D01*
X81442700Y-49223300D02*
X82540000Y-48126000D01*
%TO.N,/A12*%
X92709900Y-68994900D02*
X92709900Y-74582600D01*
X91430000Y-46985000D02*
X91430000Y-45685000D01*
X91430000Y-45685000D02*
X92649900Y-44465100D01*
X92709900Y-74582600D02*
X91537500Y-75755000D01*
X91430000Y-77455000D02*
X91430000Y-75755000D01*
X91440000Y-66025000D02*
X91440000Y-67725000D01*
X92649900Y-38186800D02*
X92756100Y-38080600D01*
X91440000Y-67725000D02*
X92709900Y-68994900D01*
X92649900Y-44465100D02*
X92649900Y-38186800D01*
X91537500Y-75755000D02*
X91430000Y-75755000D01*
%TO.N,/A13*%
X88890000Y-60925000D02*
X90309500Y-59505500D01*
X88840000Y-28738200D02*
X88840000Y-28085000D01*
X95195000Y-35093200D02*
X88840000Y-28738200D01*
X99790700Y-39180300D02*
X95703600Y-35093200D01*
X95703600Y-35093200D02*
X95195000Y-35093200D01*
X98277200Y-59505500D02*
X99790700Y-57992000D01*
X99790700Y-57992000D02*
X99790700Y-39180300D01*
X88890000Y-62225000D02*
X88890000Y-60925000D01*
X90309500Y-59505500D02*
X98277200Y-59505500D01*
%TO.N,/A14*%
X90160000Y-61630800D02*
X91584900Y-60205900D01*
X100520900Y-38915800D02*
X95076000Y-33470900D01*
X91584900Y-60205900D02*
X98567300Y-60205900D01*
X89342000Y-26385000D02*
X86300000Y-26385000D01*
X94565600Y-33470900D02*
X90110000Y-29015300D01*
X91979800Y-64024800D02*
X91460100Y-64024800D01*
X90110000Y-29015300D02*
X90110000Y-27153000D01*
X100520900Y-58252300D02*
X100520900Y-38915800D01*
X95076000Y-33470900D02*
X94565600Y-33470900D01*
X90160000Y-62724700D02*
X90160000Y-61630800D01*
X91460100Y-64024800D02*
X90160000Y-62724700D01*
X93980000Y-66025000D02*
X91979800Y-64024800D01*
X98567300Y-60205900D02*
X100520900Y-58252300D01*
X86300000Y-28085000D02*
X86300000Y-26385000D01*
X90110000Y-27153000D02*
X89342000Y-26385000D01*
%TO.N,X1{slash}CLK*%
X59586500Y-94795300D02*
X55639000Y-98742800D01*
X31750000Y-81280000D02*
X39524600Y-81280000D01*
X75514800Y-94795300D02*
X59586500Y-94795300D01*
X39524600Y-81280000D02*
X41780800Y-83536200D01*
%TO.N,/D4*%
X51627000Y-68934100D02*
X59612900Y-60948200D01*
X34290000Y-71120000D02*
X36475900Y-68934100D01*
X36475900Y-68934100D02*
X51627000Y-68934100D01*
X63490000Y-62225000D02*
X63490000Y-63525000D01*
X62230100Y-70675100D02*
X62230100Y-64784900D01*
X62230100Y-64784900D02*
X63490000Y-63525000D01*
X59612900Y-60948200D02*
X62213200Y-60948200D01*
X63500000Y-71945000D02*
X62230100Y-70675100D01*
X62213200Y-60948200D02*
X63490000Y-62225000D01*
X63500000Y-73645000D02*
X63500000Y-71945000D01*
%TO.N,/D3*%
X76140000Y-28085000D02*
X76140000Y-29785000D01*
X99090300Y-39542900D02*
X99090300Y-57701900D01*
X60760100Y-71945000D02*
X60960000Y-72144900D01*
X94750300Y-58592800D02*
X92507100Y-56349600D01*
X95511900Y-36493900D02*
X96041300Y-36493900D01*
X88803000Y-29785000D02*
X95511900Y-36493900D01*
X59669200Y-71945000D02*
X59669200Y-64805800D01*
X92507100Y-54862800D02*
X91376100Y-53731800D01*
X60960000Y-73645000D02*
X60960000Y-72144900D01*
X96041300Y-36493900D02*
X99090300Y-39542900D01*
X46165000Y-71945000D02*
X59669200Y-71945000D01*
X98199400Y-58592800D02*
X94750300Y-58592800D01*
X59669200Y-71945000D02*
X60760100Y-71945000D01*
X99090300Y-57701900D02*
X98199400Y-58592800D01*
X44450000Y-73660000D02*
X46165000Y-71945000D01*
X60950000Y-62225000D02*
X60950000Y-63525000D01*
X59669200Y-64805800D02*
X60950000Y-63525000D01*
X76140000Y-29785000D02*
X88803000Y-29785000D01*
X92507100Y-56349600D02*
X92507100Y-54862800D01*
X91376100Y-53731800D02*
X65416100Y-53731800D01*
X65416100Y-53731800D02*
X61474600Y-49790300D01*
%TO.N,/D5*%
X70902900Y-45335400D02*
X71259800Y-45335400D01*
X69840000Y-46398300D02*
X70902900Y-45335400D01*
X71259800Y-45335400D02*
X72318500Y-44276700D01*
X66040000Y-69084300D02*
X64770100Y-67814400D01*
X69840000Y-47515200D02*
X69840000Y-46398300D01*
X66040000Y-73645000D02*
X66040000Y-69084300D01*
X67908400Y-49446800D02*
X69840000Y-47515200D01*
X72318500Y-44276700D02*
X72318500Y-34889500D01*
X66393500Y-49446800D02*
X67908400Y-49446800D01*
X64770100Y-64784900D02*
X66030000Y-63525000D01*
X66030000Y-62225000D02*
X66030000Y-63525000D01*
X64770100Y-67814400D02*
X64770100Y-64784900D01*
X72318500Y-34889500D02*
X73600000Y-33608000D01*
%TO.N,/D6*%
X46990000Y-60974700D02*
X46602300Y-61362400D01*
X67310000Y-64785000D02*
X68570000Y-63525000D01*
X42915500Y-52496400D02*
X46990000Y-56570900D01*
X66562700Y-60217700D02*
X68570000Y-62225000D01*
X58451100Y-60974700D02*
X59208100Y-60217700D01*
X42915500Y-41723800D02*
X42915500Y-52496400D01*
X46602300Y-61362400D02*
X44715900Y-61362400D01*
X62564700Y-31657200D02*
X52982100Y-31657200D01*
X71261100Y-32036000D02*
X62943500Y-32036000D01*
X68580000Y-71945000D02*
X67310000Y-70675000D01*
X67310000Y-70675000D02*
X67310000Y-64785000D01*
X52982100Y-31657200D02*
X42915500Y-41723800D01*
X46990000Y-56570900D02*
X46990000Y-60974700D01*
X68580000Y-73645000D02*
X68580000Y-71945000D01*
X59208100Y-60217700D02*
X66562700Y-60217700D01*
X62943500Y-32036000D02*
X62564700Y-31657200D01*
X68570000Y-62225000D02*
X68570000Y-63525000D01*
X46990000Y-60974700D02*
X58451100Y-60974700D01*
%TO.N,/D2*%
X63490000Y-79155000D02*
X57257600Y-79155000D01*
X69770400Y-44264400D02*
X69770400Y-42022000D01*
X68982400Y-45052400D02*
X69770400Y-44264400D01*
X66526600Y-48280100D02*
X67300000Y-47506700D01*
X67300000Y-46426300D02*
X68673900Y-45052400D01*
X67300000Y-47506700D02*
X67300000Y-46426300D01*
X63500000Y-67725000D02*
X64750300Y-68975300D01*
X63490000Y-46985000D02*
X64785100Y-48280100D01*
X38032700Y-77550400D02*
X34290000Y-73807700D01*
X34290000Y-73807700D02*
X34290000Y-73660000D01*
X69770400Y-42022000D02*
X69501500Y-41753100D01*
X57257600Y-79155000D02*
X55653000Y-77550400D01*
X64750300Y-68975300D02*
X64750300Y-71866700D01*
X68673900Y-45052400D02*
X68982400Y-45052400D01*
X63500000Y-66025000D02*
X63500000Y-67725000D01*
X63490000Y-77455000D02*
X63490000Y-79155000D01*
X55653000Y-77550400D02*
X38032700Y-77550400D01*
X64785100Y-48280100D02*
X66526600Y-48280100D01*
%TO.N,/D7*%
X71110000Y-62858500D02*
X71110000Y-63525000D01*
X69850100Y-64784900D02*
X69850100Y-70675100D01*
X67166700Y-58281700D02*
X51073500Y-58281700D01*
X69850100Y-70675100D02*
X71120000Y-71945000D01*
X43615900Y-42013900D02*
X53122300Y-32507500D01*
X71120000Y-73645000D02*
X71120000Y-71945000D01*
X71110000Y-62225000D02*
X67166700Y-58281700D01*
X71110000Y-63525000D02*
X69850100Y-64784900D01*
X71110000Y-62225000D02*
X71110000Y-62858500D01*
X51073500Y-58281700D02*
X43615900Y-50824100D01*
X43615900Y-50824100D02*
X43615900Y-42013900D01*
X53122300Y-32507500D02*
X62212400Y-32507500D01*
%TO.N,/D0*%
X31750000Y-71120000D02*
X33128400Y-72498400D01*
X68672700Y-75755000D02*
X68570000Y-75755000D01*
X33128400Y-72498400D02*
X34782200Y-72498400D01*
X47786200Y-74930000D02*
X48611200Y-75755000D01*
X36402800Y-74930000D02*
X47786200Y-74930000D01*
X48611200Y-75755000D02*
X68570000Y-75755000D01*
X68570000Y-77455000D02*
X68570000Y-75755000D01*
X35560000Y-73276200D02*
X35560000Y-74087200D01*
X69850000Y-74577700D02*
X68672700Y-75755000D01*
X68580000Y-70395500D02*
X69850000Y-71665500D01*
X34782200Y-72498400D02*
X35560000Y-73276200D01*
X68580000Y-66025000D02*
X68580000Y-70395500D01*
X35560000Y-74087200D02*
X36402800Y-74930000D01*
X69850000Y-71665500D02*
X69850000Y-74577700D01*
%TO.N,MEMRQ\u005C*%
X95371800Y-37344300D02*
X88512800Y-30485300D01*
X48200000Y-28085000D02*
X48200000Y-29785000D01*
X64162200Y-30485300D02*
X63461900Y-29785000D01*
X95658700Y-37344300D02*
X95371800Y-37344300D01*
X88512800Y-30485300D02*
X64162200Y-30485300D01*
X63461900Y-29785000D02*
X48200000Y-29785000D01*
%TO.N,IORQ\u005C*%
X63872000Y-31185600D02*
X63643300Y-30956900D01*
X45660000Y-28085000D02*
X45660000Y-29785000D01*
X93240100Y-36434400D02*
X93240100Y-36298900D01*
X46831900Y-30956900D02*
X45660000Y-29785000D01*
X88126800Y-31185600D02*
X63872000Y-31185600D01*
X63643300Y-30956900D02*
X46831900Y-30956900D01*
X93240100Y-36298900D02*
X88126800Y-31185600D01*
%TO.N,RD\u005C*%
X78847400Y-75345000D02*
X80019500Y-76517100D01*
X80019500Y-76517100D02*
X80019500Y-82085500D01*
X50735000Y-56324400D02*
X72829400Y-56324400D01*
X78730000Y-62225000D02*
X78730000Y-63525000D01*
X78730000Y-85075000D02*
X78730000Y-83375000D01*
X78730000Y-85075000D02*
X78730000Y-86775000D01*
X45660000Y-45025000D02*
X44463100Y-46221900D01*
X80019500Y-82085500D02*
X78730000Y-83375000D01*
X75360000Y-86775000D02*
X73655000Y-88480000D01*
X44463100Y-50052500D02*
X50735000Y-56324400D01*
X45660000Y-43325000D02*
X45660000Y-45025000D01*
X44463100Y-46221900D02*
X44463100Y-50052500D01*
X78740000Y-69084300D02*
X78740000Y-73645000D01*
X78730000Y-63525000D02*
X77470100Y-64784900D01*
X73655000Y-90180000D02*
X73655000Y-88480000D01*
X77470100Y-67814400D02*
X78740000Y-69084300D01*
X78740000Y-75345000D02*
X78847400Y-75345000D01*
X77470100Y-64784900D02*
X77470100Y-67814400D01*
X72829400Y-56324400D02*
X78730000Y-62225000D01*
X78740000Y-73645000D02*
X78740000Y-75345000D01*
X78730000Y-86775000D02*
X75360000Y-86775000D01*
%TO.N,WR\u005C*%
X88771300Y-63661400D02*
X90170000Y-65060100D01*
X77465000Y-82895600D02*
X76487500Y-81918100D01*
X57090000Y-46619900D02*
X65393800Y-54923700D01*
X76487500Y-81918100D02*
X75562300Y-81918100D01*
X75445400Y-82035000D02*
X62208600Y-82035000D01*
X62208600Y-82035000D02*
X62136100Y-81962500D01*
X48200000Y-43325000D02*
X48200000Y-41625000D01*
X89298100Y-87206900D02*
X79527500Y-87206900D01*
X65393800Y-54923700D02*
X75801200Y-54923700D01*
X82540000Y-62723400D02*
X83478000Y-63661400D01*
X62136100Y-81962500D02*
X50313400Y-81962500D01*
X82540000Y-61662500D02*
X82540000Y-62723400D01*
X91430000Y-85075000D02*
X89298100Y-87206900D01*
X56307300Y-41625000D02*
X57090000Y-42407700D01*
X57090000Y-42407700D02*
X57090000Y-46619900D01*
X48200000Y-41625000D02*
X56307300Y-41625000D01*
X90170000Y-70675000D02*
X91440000Y-71945000D01*
X75562300Y-81918100D02*
X75445400Y-82035000D01*
X83478000Y-63661400D02*
X88771300Y-63661400D01*
X48455900Y-83820000D02*
X46990000Y-83820000D01*
X75801200Y-54923700D02*
X82540000Y-61662500D01*
X50313400Y-81962500D02*
X48455900Y-83820000D01*
X91440000Y-73645000D02*
X91440000Y-71945000D01*
X90170000Y-65060100D02*
X90170000Y-70675000D01*
D27*
%TO.N,GND*%
X59679400Y-88230000D02*
X59435100Y-87985700D01*
X59435100Y-87985700D02*
X59435100Y-84053100D01*
X99390000Y-96039600D02*
X89714600Y-105715000D01*
X99390000Y-80010000D02*
X99390000Y-96039600D01*
X51837700Y-63170000D02*
X53300000Y-64632300D01*
X37150000Y-97790000D02*
X41790400Y-97790000D01*
X73665000Y-104140000D02*
X75265000Y-104140000D01*
X53300000Y-64632300D02*
X53300000Y-64770000D01*
X36830000Y-56820000D02*
X43180000Y-63170000D01*
X96190000Y-43602500D02*
X94357500Y-45435000D01*
X93970000Y-46985000D02*
X93970000Y-45435000D01*
X35550000Y-97790000D02*
X37150000Y-97790000D01*
X65980000Y-45275000D02*
X63076500Y-45275000D01*
X65980000Y-43325000D02*
X65980000Y-45275000D01*
X61367300Y-46984200D02*
X61366500Y-46985000D01*
X36830000Y-54610000D02*
X33350000Y-54610000D01*
X70275500Y-107529500D02*
X73665000Y-104140000D01*
X32004000Y-119380000D02*
X28455200Y-115831200D01*
X96190000Y-52792400D02*
X93970000Y-50572400D01*
X76205000Y-104140000D02*
X75265000Y-104140000D01*
X61367300Y-46984200D02*
X64955500Y-50572400D01*
X28455200Y-108954400D02*
X29880100Y-107529500D01*
X71115000Y-90180000D02*
X71115000Y-88230000D01*
X31750000Y-54610000D02*
X33350000Y-54610000D01*
X64955500Y-50572400D02*
X93970000Y-50572400D01*
X59435100Y-84053100D02*
X59872800Y-83615400D01*
X96190000Y-43180000D02*
X96190000Y-43602500D01*
X93970000Y-50572400D02*
X93970000Y-48535000D01*
X55360800Y-88239600D02*
X55515000Y-88393800D01*
X93970000Y-46985000D02*
X93970000Y-48535000D01*
X77780000Y-105715000D02*
X76205000Y-104140000D01*
X96190000Y-57150000D02*
X96190000Y-52792400D01*
X61366500Y-46985000D02*
X60950000Y-46985000D01*
X43180000Y-64770000D02*
X43180000Y-63170000D01*
X97790000Y-80010000D02*
X99390000Y-80010000D01*
X56529300Y-88393800D02*
X56937400Y-87985700D01*
X32980000Y-119380000D02*
X32004000Y-119380000D01*
X36830000Y-54610000D02*
X36830000Y-56820000D01*
X43180000Y-63170000D02*
X51837700Y-63170000D01*
X97790000Y-57150000D02*
X96190000Y-57150000D01*
X55515000Y-88393800D02*
X56529300Y-88393800D01*
X51340800Y-88239600D02*
X55360800Y-88239600D01*
X56937400Y-87985700D02*
X59435100Y-87985700D01*
X89714600Y-105715000D02*
X77780000Y-105715000D01*
X94357500Y-45435000D02*
X93970000Y-45435000D01*
X97790000Y-43180000D02*
X96190000Y-43180000D01*
X29880100Y-107529500D02*
X70275500Y-107529500D01*
X63076500Y-45275000D02*
X61367300Y-46984200D01*
X28455200Y-115831200D02*
X28455200Y-108954400D01*
X41790400Y-97790000D02*
X51340800Y-88239600D01*
X71115000Y-88230000D02*
X59679400Y-88230000D01*
D26*
%TO.N,/A0*%
X72375300Y-68980300D02*
X72375300Y-74602100D01*
X71222400Y-75755000D02*
X71110000Y-75755000D01*
X43986500Y-80094300D02*
X43222500Y-80858300D01*
X72375300Y-74602100D02*
X71222400Y-75755000D01*
X70170700Y-80094300D02*
X43986500Y-80094300D01*
X71110000Y-77455000D02*
X71110000Y-75755000D01*
X40640000Y-85985900D02*
X40640000Y-87630000D01*
X71120000Y-67725000D02*
X72375300Y-68980300D01*
X71120000Y-66025000D02*
X71120000Y-67725000D01*
X40640000Y-87630000D02*
X39370000Y-88900000D01*
X43222500Y-83403400D02*
X40640000Y-85985900D01*
X71110000Y-77455000D02*
X71110000Y-79155000D01*
X71110000Y-79155000D02*
X70170700Y-80094300D01*
X43222500Y-80858300D02*
X43222500Y-83403400D01*
%TO.N,/A1*%
X45864400Y-40881700D02*
X44392000Y-42354100D01*
X32162900Y-82550000D02*
X28798300Y-82550000D01*
X30518900Y-76556100D02*
X30518900Y-75563100D01*
X37991500Y-88418800D02*
X37311200Y-87738500D01*
X37311200Y-87738500D02*
X36093500Y-87738500D01*
X41910000Y-88900000D02*
X40735900Y-90074100D01*
X44392000Y-44481000D02*
X44482200Y-44571200D01*
X71060000Y-41625000D02*
X70316700Y-40881700D01*
X35668500Y-87313500D02*
X35668500Y-86055600D01*
X28021900Y-81773600D02*
X28021900Y-78254600D01*
X36093500Y-87738500D02*
X35668500Y-87313500D01*
X38890500Y-90074100D02*
X37991500Y-89175100D01*
X71060000Y-43325000D02*
X71060000Y-41625000D01*
X44392000Y-42354100D02*
X44392000Y-44481000D01*
X29663500Y-77411500D02*
X30518900Y-76556100D01*
X28865000Y-77411500D02*
X29663500Y-77411500D01*
X40735900Y-90074100D02*
X38890500Y-90074100D01*
X37991500Y-89175100D02*
X37991500Y-88418800D01*
X28798300Y-82550000D02*
X28021900Y-81773600D01*
X70316700Y-40881700D02*
X45864400Y-40881700D01*
X28021900Y-78254600D02*
X28865000Y-77411500D01*
X35668500Y-86055600D02*
X32162900Y-82550000D01*
%TO.N,/A2*%
X52393500Y-82662800D02*
X46156300Y-88900000D01*
X76190000Y-45685000D02*
X74260000Y-45685000D01*
X46156300Y-88900000D02*
X44450000Y-88900000D01*
X61845900Y-82662800D02*
X52393500Y-82662800D01*
X76190000Y-46985000D02*
X76190000Y-45685000D01*
X75914500Y-82768400D02*
X61951500Y-82768400D01*
X73600000Y-43325000D02*
X73600000Y-45025000D01*
X76200000Y-66025000D02*
X76200000Y-67725000D01*
X77469900Y-74582600D02*
X77469900Y-68994900D01*
X76297500Y-75755000D02*
X77469900Y-74582600D01*
X61951500Y-82768400D02*
X61845900Y-82662800D01*
X76190000Y-75755000D02*
X76297500Y-75755000D01*
X74260000Y-45685000D02*
X73600000Y-45025000D01*
X76190000Y-77455000D02*
X76190000Y-75755000D01*
X77469900Y-68994900D02*
X76200000Y-67725000D01*
%TO.N,/A3*%
X77106100Y-81217800D02*
X75272100Y-81217800D01*
X72472800Y-81201500D02*
X49049300Y-81201500D01*
X78730000Y-45685000D02*
X78500000Y-45685000D01*
X78500000Y-45685000D02*
X76140000Y-43325000D01*
X72597700Y-81326400D02*
X72472800Y-81201500D01*
X45779800Y-85149800D02*
X46990000Y-86360000D01*
X46508700Y-82588600D02*
X45779800Y-83317500D01*
X45779800Y-83317500D02*
X45779800Y-85149800D01*
X78730000Y-46985000D02*
X78730000Y-45685000D01*
X75272100Y-81217800D02*
X75163500Y-81326400D01*
X78730000Y-77455000D02*
X78730000Y-79155000D01*
X78730000Y-79593900D02*
X77106100Y-81217800D01*
X47662200Y-82588600D02*
X46508700Y-82588600D01*
X78730000Y-79155000D02*
X78730000Y-79593900D01*
X49049300Y-81201500D02*
X47662200Y-82588600D01*
X75163500Y-81326400D02*
X72597700Y-81326400D01*
%TO.N,/A4*%
X81280000Y-67725000D02*
X82530400Y-68975400D01*
X81270000Y-46985000D02*
X81270000Y-45685000D01*
X81270000Y-45685000D02*
X81040000Y-45685000D01*
X82530400Y-68975400D02*
X82530400Y-74619900D01*
X81040000Y-45685000D02*
X78680000Y-43325000D01*
X81270000Y-77455000D02*
X81270000Y-75755000D01*
X82530400Y-74619900D02*
X81395300Y-75755000D01*
X81395300Y-75755000D02*
X81270000Y-75755000D01*
X81280000Y-66025000D02*
X81280000Y-67725000D01*
%TO.N,/A5*%
X83820000Y-67725000D02*
X85089900Y-68994900D01*
X83810000Y-77455000D02*
X83810000Y-75755000D01*
X83820000Y-66025000D02*
X83820000Y-67725000D01*
X85089900Y-68994900D02*
X85089900Y-74582600D01*
X83917500Y-75755000D02*
X83810000Y-75755000D01*
X85089900Y-74582600D02*
X83917500Y-75755000D01*
%TO.N,/A6*%
X86350000Y-46985000D02*
X86350000Y-45685000D01*
X86350000Y-45685000D02*
X84420000Y-45685000D01*
X83760000Y-43325000D02*
X83760000Y-45025000D01*
X84420000Y-45685000D02*
X83760000Y-45025000D01*
%TO.N,/A7*%
X88660000Y-45685000D02*
X86300000Y-43325000D01*
X87630000Y-74597500D02*
X88787500Y-75755000D01*
X87630000Y-68995000D02*
X87630000Y-74597500D01*
X88890000Y-46985000D02*
X88890000Y-45685000D01*
X88787500Y-75755000D02*
X88890000Y-75755000D01*
X88900000Y-66025000D02*
X88900000Y-67725000D01*
X88890000Y-45685000D02*
X88660000Y-45685000D01*
X88890000Y-77455000D02*
X88890000Y-75755000D01*
X88900000Y-67725000D02*
X87630000Y-68995000D01*
%TO.N,/A8*%
X86360000Y-73645000D02*
X86360000Y-75345000D01*
X86350000Y-85075000D02*
X86350000Y-83375000D01*
X87619900Y-76493900D02*
X87619900Y-82105100D01*
X86360000Y-75345000D02*
X86471000Y-75345000D01*
X87619900Y-82105100D02*
X86350000Y-83375000D01*
X86471000Y-75345000D02*
X87619900Y-76493900D01*
%TO.N,/A9*%
X83810000Y-62225000D02*
X91216100Y-54818900D01*
X91216100Y-54818900D02*
X91253000Y-54818900D01*
%TO.N,M1IOREQ\u005C*%
X78958800Y-93783800D02*
X61462400Y-93783800D01*
X48774600Y-87272200D02*
X56022100Y-87272200D01*
X29210000Y-86360000D02*
X29210000Y-88071700D01*
X81275000Y-97800000D02*
X81275000Y-96100000D01*
X29210000Y-88071700D02*
X33665800Y-92527500D01*
X61462400Y-93783800D02*
X57948100Y-90269500D01*
X43519300Y-92527500D02*
X48774600Y-87272200D01*
X33665800Y-92527500D02*
X43519300Y-92527500D01*
X81275000Y-96100000D02*
X78958800Y-93783800D01*
%TO.N,RFSH\u005C*%
X95131800Y-56497000D02*
X90926000Y-52291200D01*
X59699500Y-46424100D02*
X60768600Y-45355000D01*
X76195000Y-88480000D02*
X90248100Y-88480000D01*
X65178000Y-52291100D02*
X61826900Y-48940000D01*
X92700000Y-86028100D02*
X92700000Y-84144800D01*
X92700000Y-84144800D02*
X90160000Y-81604800D01*
X90926000Y-52291200D02*
X65178000Y-52291200D01*
X60768600Y-45355000D02*
X61410000Y-45355000D01*
X61128900Y-48940000D02*
X59699500Y-47510600D01*
X90160000Y-81604800D02*
X90160000Y-75798400D01*
X90248100Y-88480000D02*
X92700000Y-86028100D01*
X65178000Y-52291200D02*
X65178000Y-52291100D01*
X61410000Y-45355000D02*
X63440000Y-43325000D01*
X90160000Y-75798400D02*
X90423800Y-75534600D01*
X95131800Y-57717900D02*
X95131800Y-56497000D01*
X76195000Y-90180000D02*
X76195000Y-88480000D01*
X61826900Y-48940000D02*
X61128900Y-48940000D01*
X59699500Y-47510600D02*
X59699500Y-46424100D01*
%TO.N,OP7*%
X43185000Y-104140000D02*
X43185000Y-102790000D01*
X57676400Y-89093400D02*
X43979800Y-102790000D01*
X43979800Y-102790000D02*
X43185000Y-102790000D01*
%TO.N,Net-(U2-Pad17)*%
X73937500Y-92638300D02*
X72404600Y-91105400D01*
X72404600Y-88020400D02*
X73650000Y-86775000D01*
X86355000Y-97800000D02*
X86355000Y-96100000D01*
X86355000Y-96100000D02*
X82893300Y-92638300D01*
X82893300Y-92638300D02*
X73937500Y-92638300D01*
X72404600Y-91105400D02*
X72404600Y-88020400D01*
X73650000Y-85075000D02*
X73650000Y-86775000D01*
%TO.N,Net-(U2-Pad18)*%
X73779300Y-80591600D02*
X72360400Y-79172700D01*
X73660000Y-73645000D02*
X73660000Y-75345000D01*
X72360400Y-76515000D02*
X73530400Y-75345000D01*
X72360400Y-79172700D02*
X72360400Y-76515000D01*
X73530400Y-75345000D02*
X73660000Y-75345000D01*
X75197500Y-80301900D02*
X74907800Y-80591600D01*
X76819400Y-80301900D02*
X75197500Y-80301900D01*
X74907800Y-80591600D02*
X73779300Y-80591600D01*
%TO.N,Net-(U2-Pad19)*%
X73650000Y-63525000D02*
X74910400Y-64785400D01*
X73650000Y-62225000D02*
X73650000Y-63525000D01*
X74910400Y-64785400D02*
X74910400Y-78962400D01*
X75055500Y-91866100D02*
X74905400Y-91716000D01*
X91435000Y-96100000D02*
X87201100Y-91866100D01*
X74910400Y-78962400D02*
X74131500Y-79741300D01*
X91435000Y-97800000D02*
X91435000Y-96100000D01*
X87201100Y-91866100D02*
X75055500Y-91866100D01*
%TO.N,/B1*%
X29210000Y-78740000D02*
X30490700Y-80020700D01*
X30490700Y-80020700D02*
X39707000Y-80020700D01*
X39707000Y-80020700D02*
X39833800Y-80147500D01*
%TO.N,/B2*%
X42064600Y-99119100D02*
X50937900Y-90245800D01*
X30470000Y-97790000D02*
X31799100Y-99119100D01*
X31799100Y-99119100D02*
X42064600Y-99119100D01*
%TO.N,/B3*%
X29959400Y-99819400D02*
X45481500Y-99819400D01*
X52594200Y-92706700D02*
X52529700Y-92771200D01*
X45481500Y-99819400D02*
X52529700Y-92771200D01*
X52594200Y-89346700D02*
X52594200Y-92706700D01*
X27930000Y-97790000D02*
X29959400Y-99819400D01*
%TO.N,/B4*%
X31750000Y-76200000D02*
X34076200Y-78526200D01*
X34076200Y-78526200D02*
X39464400Y-78526200D01*
X39464400Y-78526200D02*
X41921100Y-80982900D01*
%TO.N,/B6*%
X27313500Y-83600100D02*
X28911800Y-85198400D01*
X35560000Y-89275200D02*
X37059300Y-90774500D01*
X29210000Y-76200000D02*
X29061600Y-76200000D01*
X30588400Y-86084600D02*
X30588400Y-86852100D01*
X34555100Y-87521600D02*
X35560000Y-88526500D01*
X35560000Y-88526500D02*
X35560000Y-89275200D01*
X31257900Y-87521600D02*
X34555100Y-87521600D01*
X29061600Y-76200000D02*
X27313500Y-77948100D01*
X29702200Y-85198400D02*
X30588400Y-86084600D01*
X41574900Y-90774500D02*
X41672100Y-90677300D01*
X37059300Y-90774500D02*
X41574900Y-90774500D01*
X30588400Y-86852100D02*
X31257900Y-87521600D01*
X28911800Y-85198400D02*
X29702200Y-85198400D01*
X27313500Y-77948100D02*
X27313500Y-83600100D01*
%TO.N,/B7*%
X58157900Y-93887600D02*
X53345000Y-98700500D01*
X53345000Y-98700500D02*
X53345000Y-104140000D01*
%TO.N,/B8*%
X28704700Y-72497400D02*
X25912700Y-75289400D01*
X27136200Y-106179900D02*
X48765100Y-106179900D01*
X25912700Y-75289400D02*
X25912700Y-104956400D01*
X25912700Y-104956400D02*
X27136200Y-106179900D01*
X30587400Y-72497400D02*
X28704700Y-72497400D01*
X48765100Y-106179900D02*
X50805000Y-104140000D01*
X31750000Y-73660000D02*
X30587400Y-72497400D01*
%TO.N,/B9*%
X48265000Y-104140000D02*
X48265000Y-102790000D01*
X56806100Y-94248900D02*
X56806100Y-93192500D01*
X48265000Y-102790000D02*
X56806100Y-94248900D01*
%TO.N,/B10*%
X44385500Y-105479500D02*
X45725000Y-104140000D01*
X27426300Y-105479500D02*
X44385500Y-105479500D01*
X26613100Y-104666300D02*
X27426300Y-105479500D01*
X26613100Y-76256900D02*
X26613100Y-104666300D01*
X29210000Y-73660000D02*
X26613100Y-76256900D01*
%TO.N,/B12*%
X44450000Y-86360000D02*
X43288400Y-87521600D01*
X43288400Y-90514700D02*
X42126000Y-91677100D01*
X43288400Y-87521600D02*
X43288400Y-90514700D01*
%TO.N,Net-(D1-Pad1)*%
X35560000Y-46360000D02*
X34360000Y-46360000D01*
X34360000Y-47050000D02*
X33150000Y-48260000D01*
X31750000Y-48260000D02*
X33150000Y-48260000D01*
X34360000Y-46360000D02*
X34360000Y-47050000D01*
D27*
%TO.N,+5V*%
X97790000Y-71120000D02*
X96190000Y-71120000D01*
X37171200Y-47661200D02*
X37171200Y-45983700D01*
X94766700Y-63775000D02*
X93970000Y-63775000D01*
X96190000Y-71120000D02*
X96068600Y-70998600D01*
X93970000Y-62225000D02*
X93970000Y-62806300D01*
X93970000Y-62815800D02*
X93970000Y-62806300D01*
X78745000Y-104140000D02*
X74860900Y-100255900D01*
X37586300Y-33633900D02*
X37586300Y-41162700D01*
X96068600Y-70998600D02*
X95496600Y-70998600D01*
X33010000Y-97790000D02*
X33010000Y-96190000D01*
X74860900Y-100255900D02*
X55457300Y-100255900D01*
X33040000Y-41077500D02*
X33040000Y-42627500D01*
X78745000Y-104140000D02*
X81285000Y-104140000D01*
X39370000Y-48260000D02*
X39370000Y-50759500D01*
X53340000Y-59690000D02*
X50800000Y-59690000D01*
X93975000Y-95850000D02*
X95511300Y-94313700D01*
X93975000Y-97800000D02*
X93975000Y-99750000D01*
X93975000Y-99750000D02*
X87275000Y-99750000D01*
X81285000Y-104140000D02*
X82885000Y-104140000D01*
X43902900Y-93980000D02*
X38100000Y-93980000D01*
X93970000Y-85075000D02*
X93970000Y-87025000D01*
X95511300Y-94313700D02*
X95511300Y-88566300D01*
X68520000Y-28085000D02*
X68520000Y-26135000D01*
X96190000Y-82550000D02*
X95473200Y-82550000D01*
X39370000Y-50759500D02*
X45720000Y-57109500D01*
X35560000Y-48260000D02*
X36572400Y-48260000D01*
X93970000Y-85075000D02*
X93970000Y-83125000D01*
X95496600Y-64504900D02*
X94766700Y-63775000D01*
X68520000Y-26135000D02*
X45085200Y-26135000D01*
X33815000Y-42627500D02*
X33040000Y-42627500D01*
X33010000Y-96190000D02*
X35890000Y-96190000D01*
X39370000Y-48260000D02*
X37770000Y-48260000D01*
X45720000Y-57109500D02*
X45720000Y-59690000D01*
X46392000Y-91490900D02*
X43902900Y-93980000D01*
X37586300Y-41162700D02*
X34968300Y-43780700D01*
X97790000Y-82550000D02*
X96190000Y-82550000D01*
X37171200Y-45983700D02*
X34968300Y-43780700D01*
X95473200Y-75138200D02*
X93980000Y-73645000D01*
X48260000Y-59690000D02*
X50800000Y-59690000D01*
X95473200Y-82550000D02*
X95473200Y-75138200D01*
X34968300Y-43780700D02*
X33815000Y-42627500D01*
X94545000Y-82550000D02*
X93970000Y-83125000D01*
X93980000Y-73645000D02*
X93980000Y-71695000D01*
X95496600Y-70998600D02*
X94676400Y-70998600D01*
X93561300Y-62806300D02*
X92980000Y-62225000D01*
X93970000Y-62815800D02*
X93970000Y-63775000D01*
X95511300Y-88566300D02*
X93970000Y-87025000D01*
X93975000Y-97366500D02*
X93975000Y-97800000D01*
X45085200Y-26135000D02*
X37586300Y-33633900D01*
X87275000Y-99750000D02*
X82885000Y-104140000D01*
X93970000Y-62806300D02*
X93561300Y-62806300D01*
X35890000Y-96190000D02*
X38100000Y-93980000D01*
X91430000Y-62225000D02*
X92980000Y-62225000D01*
X93975000Y-97366500D02*
X93975000Y-95850000D01*
X95473200Y-82550000D02*
X94545000Y-82550000D01*
X95496600Y-70998600D02*
X95496600Y-64504900D01*
X36572400Y-48260000D02*
X37171200Y-47661200D01*
X94676400Y-70998600D02*
X93980000Y-71695000D01*
X37171200Y-47661200D02*
X37770000Y-48260000D01*
%TD*%
M02*
