%FSLAX45Y45*%
G04 Gerber Fmt 4.5, Leading zero omitted, Abs format (unit mm)*
G04 Created by KiCad (PCBNEW (6.0.1)) date 2022-03-08 21:02:39*
%MOMM*%
%LPD*%
G01*
G04 APERTURE LIST*
%TA.AperFunction,Profile*%
%ADD10C,0.100000*%
%TD*%
%ADD11C,0.200000*%
G04 APERTURE END LIST*
D10*
X2540000Y-12573000D02*
X2540000Y-2540000D01*
X12446000Y-12573000D02*
X12446000Y-2540000D01*
X2540000Y-12573000D02*
X12446000Y-12573000D01*
X2540000Y-2540000D02*
X12446000Y-2540000D01*
D11*
X2792619Y-12888476D02*
X2792619Y-12688476D01*
X2840238Y-12688476D01*
X2868809Y-12698000D01*
X2887857Y-12717048D01*
X2897381Y-12736095D01*
X2906905Y-12774190D01*
X2906905Y-12802762D01*
X2897381Y-12840857D01*
X2887857Y-12859905D01*
X2868809Y-12878952D01*
X2840238Y-12888476D01*
X2792619Y-12888476D01*
X2992619Y-12888476D02*
X2992619Y-12755143D01*
X2992619Y-12793238D02*
X3002143Y-12774190D01*
X3011667Y-12764667D01*
X3030714Y-12755143D01*
X3049762Y-12755143D01*
X3116428Y-12888476D02*
X3116428Y-12755143D01*
X3116428Y-12688476D02*
X3106905Y-12698000D01*
X3116428Y-12707524D01*
X3125952Y-12698000D01*
X3116428Y-12688476D01*
X3116428Y-12707524D01*
X3240238Y-12888476D02*
X3221190Y-12878952D01*
X3211667Y-12859905D01*
X3211667Y-12688476D01*
X3345000Y-12888476D02*
X3325952Y-12878952D01*
X3316428Y-12859905D01*
X3316428Y-12688476D01*
X3573571Y-12888476D02*
X3573571Y-12688476D01*
X3640238Y-12831333D01*
X3706905Y-12688476D01*
X3706905Y-12888476D01*
X3887857Y-12888476D02*
X3887857Y-12783714D01*
X3878333Y-12764667D01*
X3859286Y-12755143D01*
X3821190Y-12755143D01*
X3802143Y-12764667D01*
X3887857Y-12878952D02*
X3868809Y-12888476D01*
X3821190Y-12888476D01*
X3802143Y-12878952D01*
X3792619Y-12859905D01*
X3792619Y-12840857D01*
X3802143Y-12821809D01*
X3821190Y-12812286D01*
X3868809Y-12812286D01*
X3887857Y-12802762D01*
X3983095Y-12755143D02*
X3983095Y-12955143D01*
X3983095Y-12764667D02*
X4002143Y-12755143D01*
X4040238Y-12755143D01*
X4059286Y-12764667D01*
X4068809Y-12774190D01*
X4078333Y-12793238D01*
X4078333Y-12850381D01*
X4068809Y-12869428D01*
X4059286Y-12878952D01*
X4040238Y-12888476D01*
X4002143Y-12888476D01*
X3983095Y-12878952D01*
X4164048Y-12869428D02*
X4173571Y-12878952D01*
X4164048Y-12888476D01*
X4154524Y-12878952D01*
X4164048Y-12869428D01*
X4164048Y-12888476D01*
X4164048Y-12764667D02*
X4173571Y-12774190D01*
X4164048Y-12783714D01*
X4154524Y-12774190D01*
X4164048Y-12764667D01*
X4164048Y-12783714D01*
M02*
