M48
; DRILL file {KiCad (6.0.1)} date Tue Mar  8 21:02:31 2022
; FORMAT={-:-/ absolute / inch / decimal}
; #@! TF.CreationDate,2022-03-08T21:02:31+01:00
; #@! TF.GenerationSoftware,Kicad,Pcbnew,(6.0.1)
; #@! TF.FileFunction,Plated,1,2,PTH
FMAT,2
INCH
; #@! TA.AperFunction,Plated,PTH,ViaDrill
T1C0.0157
; #@! TA.AperFunction,Plated,PTH,ComponentDrill
T2C0.0276
; #@! TA.AperFunction,Plated,PTH,ComponentDrill
T3C0.0315
; #@! TA.AperFunction,Plated,PTH,ComponentDrill
T4C0.0354
; #@! TA.AperFunction,Plated,PTH,ComponentDrill
T5C0.0374
; #@! TA.AperFunction,Plated,PTH,ComponentDrill
T6C0.0394
; #@! TA.AperFunction,Plated,PTH,ComponentDrill
T7C0.0906
%
G90
G05
T1
X1.0369Y-2.8809
X1.2015Y-2.9749
X1.5683Y-3.1554
X1.6406Y-3.57
X1.6449Y-3.2888
X1.6504Y-3.1883
X1.6585Y-3.6093
X1.7513Y-1.7548
X1.7605Y-2.4158
X1.8265Y-3.602
X2.0054Y-3.553
X2.0108Y-2.2946
X2.0681Y-3.6524
X2.0706Y-3.5176
X2.1469Y-1.8142
X2.1834Y-3.9471
X2.1905Y-3.8875
X2.2056Y-3.4359
X2.2365Y-3.669
X2.2707Y-3.5076
X2.2814Y-3.5539
X2.2897Y-3.6964
X2.3572Y-3.2919
X2.4203Y-1.9602
X2.4493Y-1.2798
X2.5492Y-2.8294
X2.6139Y-1.9467
X2.7363Y-1.6438
X2.8056Y-1.2613
X2.8976Y-1.3231
X2.9186Y-3.1394
X2.949Y-3.6109
X2.973Y-3.7321
X2.9888Y-3.2586
X3.0244Y-3.1615
X3.0498Y-3.2636
X3.131Y-3.4333
X3.2064Y-1.9379
X3.56Y-2.9738
X3.5926Y-2.1582
X3.6149Y-1.4205
X3.6518Y-1.4992
X3.6709Y-1.4344
X3.7453Y-2.2724
X3.7661Y-1.4702
T2
X1.4Y-1.8252
X1.4Y-1.9
T3
X1.1Y-3.7
X1.1016Y-4.7
X1.15Y-2.9
X1.15Y-3.0
X1.15Y-3.1
X1.15Y-3.2
X1.15Y-3.3
X1.15Y-3.4
X1.1535Y-2.4
X1.25Y-2.8
X1.25Y-2.9
X1.25Y-3.0
X1.25Y-3.1
X1.25Y-3.2
X1.25Y-3.3
X1.25Y-3.4
X1.25Y-3.5
X1.2984Y-4.7
X1.3465Y-2.4
X1.35Y-2.8
X1.35Y-2.9
X1.35Y-3.4
X1.35Y-3.5
X1.45Y-2.8
X1.45Y-2.9
X1.45Y-3.4
X1.45Y-3.5
X1.5Y-3.7
X1.55Y-2.8
X1.55Y-2.9
X1.55Y-3.4
X1.55Y-3.5
X1.65Y-2.8
X1.65Y-2.9
X1.65Y-3.4
X1.65Y-3.5
X1.75Y-2.8
X1.75Y-2.9
X1.75Y-3.0
X1.75Y-3.1
X1.75Y-3.2
X1.75Y-3.3
X1.75Y-3.4
X1.75Y-3.5
X1.7976Y-1.1057
X1.7976Y-1.7057
X1.8Y-1.95
X1.8Y-2.35
X1.85Y-2.9
X1.85Y-3.0
X1.85Y-3.1
X1.85Y-3.2
X1.85Y-3.3
X1.85Y-3.4
X1.8976Y-1.1057
X1.8976Y-1.7057
X1.9Y-1.95
X1.9Y-2.35
X1.9976Y-1.1057
X1.9976Y-1.7057
X2.0Y-1.95
X2.0Y-2.35
X2.0Y-2.55
X2.0976Y-1.1057
X2.0976Y-1.7057
X2.0984Y-2.55
X2.1Y-1.95
X2.1Y-2.35
X2.1976Y-1.1057
X2.1976Y-1.7057
X2.2Y-1.95
X2.2Y-2.35
X2.2976Y-1.1057
X2.2976Y-1.7057
X2.3976Y-1.1057
X2.3976Y-1.7057
X2.3996Y-1.8498
X2.3996Y-2.4498
X2.3996Y-3.0494
X2.3996Y-3.3494
X2.4Y-2.5994
X2.4Y-2.8994
X2.4976Y-1.1057
X2.4976Y-1.7057
X2.4996Y-1.8498
X2.4996Y-2.4498
X2.4996Y-3.0494
X2.4996Y-3.3494
X2.5Y-2.5994
X2.5Y-2.8994
X2.5976Y-1.1057
X2.5976Y-1.7057
X2.5996Y-1.8498
X2.5996Y-2.4498
X2.5996Y-3.0494
X2.5996Y-3.3494
X2.6Y-2.5994
X2.6Y-2.8994
X2.6976Y-1.1057
X2.6976Y-1.7057
X2.6996Y-1.8498
X2.6996Y-2.4498
X2.6996Y-3.0494
X2.6996Y-3.3494
X2.7Y-2.5994
X2.7Y-2.8994
X2.7976Y-1.1057
X2.7976Y-1.7057
X2.7996Y-1.8498
X2.7996Y-2.4498
X2.7996Y-3.0494
X2.7996Y-3.3494
X2.7998Y-3.5504
X2.7998Y-3.8504
X2.8Y-2.5994
X2.8Y-2.8994
X2.8976Y-1.1057
X2.8976Y-1.7057
X2.8996Y-1.8498
X2.8996Y-2.4498
X2.8996Y-3.0494
X2.8996Y-3.3494
X2.8998Y-3.5504
X2.8998Y-3.8504
X2.9Y-2.5994
X2.9Y-2.8994
X2.9976Y-1.1057
X2.9976Y-1.7057
X2.9996Y-1.8498
X2.9996Y-2.4498
X2.9996Y-3.0494
X2.9996Y-3.3494
X2.9998Y-3.5504
X2.9998Y-3.8504
X3.0Y-2.5994
X3.0Y-2.8994
X3.0976Y-1.1057
X3.0976Y-1.7057
X3.0996Y-1.8498
X3.0996Y-2.4498
X3.0996Y-3.0494
X3.0996Y-3.3494
X3.0998Y-3.5504
X3.0998Y-3.8504
X3.1Y-2.5994
X3.1Y-2.8994
X3.1976Y-1.1057
X3.1976Y-1.7057
X3.1996Y-1.8498
X3.1996Y-2.4498
X3.1996Y-3.0494
X3.1996Y-3.3494
X3.1998Y-3.5504
X3.1998Y-3.8504
X3.2Y-2.5994
X3.2Y-2.8994
X3.2976Y-1.1057
X3.2976Y-1.7057
X3.2996Y-1.8498
X3.2996Y-2.4498
X3.2996Y-3.0494
X3.2996Y-3.3494
X3.2998Y-3.5504
X3.2998Y-3.8504
X3.3Y-2.5994
X3.3Y-2.8994
X3.3976Y-1.1057
X3.3976Y-1.7057
X3.3996Y-1.8498
X3.3996Y-2.4498
X3.3996Y-3.0494
X3.3996Y-3.3494
X3.3998Y-3.5504
X3.3998Y-3.8504
X3.4Y-2.5994
X3.4Y-2.8994
X3.4976Y-1.1057
X3.4976Y-1.7057
X3.4996Y-1.8498
X3.4996Y-2.4498
X3.4996Y-3.0494
X3.4996Y-3.3494
X3.4998Y-3.5504
X3.4998Y-3.8504
X3.5Y-2.5994
X3.5Y-2.8994
X3.5976Y-1.1057
X3.5976Y-1.7057
X3.5996Y-1.8498
X3.5996Y-2.4498
X3.5996Y-3.0494
X3.5996Y-3.3494
X3.5998Y-3.5504
X3.5998Y-3.8504
X3.6Y-2.5994
X3.6Y-2.8994
X3.6976Y-1.1057
X3.6976Y-1.7057
X3.6996Y-1.8498
X3.6996Y-2.4498
X3.6996Y-3.0494
X3.6996Y-3.3494
X3.6998Y-3.5504
X3.6998Y-3.8504
X3.7Y-2.5994
X3.7Y-2.8994
T4
X1.15Y-1.9
X1.25Y-1.9
T5
X1.3008Y-1.5385
X1.3008Y-1.6172
X1.3992Y-1.5385
X1.3992Y-1.6172
T6
X1.0996Y-3.85
X1.1002Y-4.1
X1.15Y-2.15
X1.1996Y-3.85
X1.2002Y-4.1
X1.25Y-2.15
X1.2506Y-4.3
X1.2506Y-4.4
X1.2506Y-4.5
X1.2506Y-4.9
X1.2996Y-3.85
X1.3002Y-4.1
X1.3506Y-4.3
X1.3506Y-4.4
X1.3506Y-4.5
X1.3506Y-4.9
X1.3996Y-3.85
X1.4002Y-4.1
X1.45Y-2.15
X1.45Y-4.6
X1.45Y-4.7
X1.45Y-4.8
X1.4506Y-4.3
X1.4506Y-4.4
X1.4506Y-4.5
X1.4506Y-4.9
X1.5002Y-4.1
X1.55Y-1.8
X1.55Y-1.9
X1.55Y-2.15
X1.55Y-4.6
X1.55Y-4.7
X1.55Y-4.8
X1.5506Y-4.3
X1.5506Y-4.4
X1.5506Y-4.5
X1.5506Y-4.9
X1.6002Y-4.1
X1.65Y-4.6
X1.65Y-4.7
X1.65Y-4.8
X1.6506Y-4.3
X1.6506Y-4.4
X1.6506Y-4.5
X1.6506Y-4.9
X1.7Y-2.55
X1.7002Y-4.1
X1.75Y-4.6
X1.75Y-4.7
X1.75Y-4.8
X1.7506Y-4.3
X1.7506Y-4.4
X1.7506Y-4.5
X1.7506Y-4.9
X1.8Y-2.55
X1.8002Y-4.1
X1.85Y-4.6
X1.85Y-4.7
X1.85Y-4.8
X1.8506Y-4.3
X1.8506Y-4.4
X1.8506Y-4.5
X1.8506Y-4.9
X1.9002Y-4.1
X1.95Y-4.6
X1.95Y-4.7
X1.95Y-4.8
X1.9506Y-4.3
X1.9506Y-4.4
X1.9506Y-4.5
X1.9506Y-4.9
X2.0002Y-4.1
X2.05Y-4.6
X2.05Y-4.7
X2.05Y-4.8
X2.0506Y-4.3
X2.0506Y-4.4
X2.0506Y-4.5
X2.0506Y-4.9
X2.1002Y-4.1
X2.15Y-4.6
X2.15Y-4.7
X2.15Y-4.8
X2.1506Y-4.3
X2.1506Y-4.4
X2.1506Y-4.5
X2.1506Y-4.9
X2.2002Y-4.1
X2.25Y-4.6
X2.25Y-4.7
X2.25Y-4.8
X2.2506Y-4.3
X2.2506Y-4.4
X2.2506Y-4.5
X2.2506Y-4.9
X2.3002Y-4.1
X2.35Y-4.6
X2.35Y-4.7
X2.35Y-4.8
X2.3506Y-4.3
X2.3506Y-4.4
X2.3506Y-4.5
X2.3506Y-4.9
X2.4002Y-4.1
X2.45Y-4.6
X2.45Y-4.7
X2.45Y-4.8
X2.4506Y-4.3
X2.4506Y-4.4
X2.4506Y-4.5
X2.4506Y-4.9
X2.5002Y-4.1
X2.55Y-4.6
X2.55Y-4.7
X2.55Y-4.8
X2.5506Y-4.3
X2.5506Y-4.4
X2.5506Y-4.5
X2.5506Y-4.9
X2.6002Y-4.1
X2.65Y-4.6
X2.65Y-4.7
X2.65Y-4.8
X2.6506Y-4.3
X2.6506Y-4.4
X2.6506Y-4.5
X2.6506Y-4.9
X2.7002Y-4.1
X2.75Y-4.6
X2.75Y-4.7
X2.75Y-4.8
X2.7506Y-4.3
X2.7506Y-4.4
X2.7506Y-4.5
X2.7506Y-4.9
X2.8002Y-4.1
X2.85Y-4.6
X2.85Y-4.7
X2.85Y-4.8
X2.8506Y-4.3
X2.8506Y-4.4
X2.8506Y-4.5
X2.8506Y-4.9
X2.9002Y-4.1
X2.95Y-4.6
X2.95Y-4.7
X2.95Y-4.8
X2.9506Y-4.3
X2.9506Y-4.4
X2.9506Y-4.5
X2.9506Y-4.9
X3.0002Y-4.1
X3.05Y-4.6
X3.05Y-4.7
X3.05Y-4.8
X3.0506Y-4.3
X3.0506Y-4.4
X3.0506Y-4.5
X3.0506Y-4.9
X3.1002Y-4.1
X3.15Y-4.6
X3.15Y-4.7
X3.15Y-4.8
X3.1506Y-4.3
X3.1506Y-4.4
X3.1506Y-4.5
X3.1506Y-4.9
X3.2002Y-4.1
X3.25Y-4.6
X3.25Y-4.7
X3.25Y-4.8
X3.2506Y-4.3
X3.2506Y-4.4
X3.2506Y-4.5
X3.2506Y-4.9
X3.35Y-4.6
X3.35Y-4.7
X3.35Y-4.8
X3.3506Y-4.3
X3.3506Y-4.4
X3.3506Y-4.5
X3.3506Y-4.9
X3.45Y-4.6
X3.45Y-4.7
X3.45Y-4.8
X3.4506Y-4.3
X3.4506Y-4.4
X3.4506Y-4.5
X3.4506Y-4.9
X3.55Y-4.6
X3.55Y-4.7
X3.55Y-4.8
X3.5506Y-4.3
X3.5506Y-4.4
X3.5506Y-4.5
X3.5506Y-4.9
X3.65Y-4.2
X3.65Y-4.6
X3.65Y-4.7
X3.65Y-4.8
X3.6506Y-4.3
X3.6506Y-4.4
X3.6506Y-4.5
X3.6506Y-4.9
X3.75Y-4.1
X3.75Y-4.2
X3.75Y-4.6
X3.75Y-4.7
X3.75Y-4.8
X3.7506Y-4.3
X3.7506Y-4.4
X3.7506Y-4.5
X3.7506Y-4.9
X3.85Y-1.6
X3.85Y-1.7
X3.85Y-2.15
X3.85Y-2.25
X3.85Y-2.7
X3.85Y-2.8
X3.85Y-3.15
X3.85Y-3.25
X3.85Y-4.0
X3.85Y-4.1
X3.85Y-4.2
X3.85Y-4.6
X3.85Y-4.7
X3.85Y-4.8
X3.8506Y-4.3
X3.8506Y-4.4
X3.8506Y-4.5
X3.8506Y-4.9
X3.95Y-3.9
X3.95Y-4.0
X3.95Y-4.1
X3.95Y-4.2
X3.95Y-4.6
X3.95Y-4.7
X3.95Y-4.8
X3.9506Y-4.3
X3.9506Y-4.4
X3.9506Y-4.5
X3.9506Y-4.9
X4.05Y-1.1004
X4.05Y-1.2004
X4.05Y-1.3004
X4.05Y-1.4004
X4.05Y-1.5004
X4.05Y-1.6004
X4.05Y-1.7004
X4.05Y-1.8004
X4.05Y-1.9004
X4.05Y-2.0004
X4.05Y-2.1004
X4.05Y-2.2004
X4.05Y-2.3004
X4.05Y-2.4004
X4.05Y-2.5004
X4.05Y-2.6004
X4.05Y-2.7004
X4.05Y-2.8004
X4.05Y-2.9004
X4.05Y-3.0004
X4.05Y-3.1004
X4.05Y-3.2004
X4.05Y-3.3004
X4.05Y-3.4004
X4.05Y-3.5004
X4.05Y-3.6004
X4.05Y-3.7004
X4.05Y-3.8004
X4.05Y-3.9004
X4.05Y-4.0004
X4.05Y-4.1004
X4.05Y-4.2004
X4.05Y-4.3004
X4.05Y-4.4004
X4.05Y-4.5004
X4.05Y-4.6004
X4.05Y-4.7004
X4.05Y-4.8004
X4.05Y-4.9004
X4.15Y-1.1004
X4.15Y-1.2004
X4.15Y-1.3004
X4.15Y-1.4004
X4.15Y-1.5004
X4.15Y-1.6004
X4.15Y-1.7004
X4.15Y-1.8004
X4.15Y-1.9004
X4.15Y-2.0004
X4.15Y-2.1004
X4.15Y-2.2004
X4.15Y-2.3004
X4.15Y-2.4004
X4.15Y-2.5004
X4.15Y-2.6004
X4.15Y-2.7004
X4.15Y-2.8004
X4.15Y-2.9004
X4.15Y-3.0004
X4.15Y-3.1004
X4.15Y-3.2004
X4.15Y-3.3004
X4.15Y-3.4004
X4.15Y-3.5004
X4.15Y-3.6004
X4.15Y-3.7004
X4.15Y-3.8004
X4.15Y-3.9004
X4.15Y-4.0004
X4.15Y-4.1004
X4.15Y-4.2004
X4.15Y-4.3004
X4.15Y-4.4004
X4.15Y-4.5004
X4.15Y-4.6004
X4.15Y-4.7004
X4.15Y-4.8004
X4.15Y-4.9004
X4.25Y-1.1004
X4.25Y-1.2004
X4.25Y-1.3004
X4.25Y-1.4004
X4.25Y-1.5004
X4.25Y-1.6004
X4.25Y-1.7004
X4.25Y-1.8004
X4.25Y-1.9004
X4.25Y-2.0004
X4.25Y-2.1004
X4.25Y-2.2004
X4.25Y-2.3004
X4.25Y-2.4004
X4.25Y-2.5004
X4.25Y-2.6004
X4.25Y-2.7004
X4.25Y-2.8004
X4.25Y-2.9004
X4.25Y-3.0004
X4.25Y-3.1004
X4.25Y-3.2004
X4.25Y-3.3004
X4.25Y-3.4004
X4.25Y-3.5004
X4.25Y-3.6004
X4.25Y-3.7004
X4.25Y-3.8004
X4.25Y-3.9004
X4.25Y-4.0004
X4.25Y-4.1004
X4.25Y-4.2004
X4.25Y-4.3004
X4.25Y-4.4004
X4.25Y-4.5004
X4.25Y-4.6004
X4.25Y-4.7004
X4.25Y-4.8004
X4.25Y-4.9004
X4.35Y-1.1004
X4.35Y-1.2004
X4.35Y-1.3004
X4.35Y-1.4004
X4.35Y-1.5004
X4.35Y-1.6004
X4.35Y-1.7004
X4.35Y-1.8004
X4.35Y-1.9004
X4.35Y-2.0004
X4.35Y-2.1004
X4.35Y-2.2004
X4.35Y-2.3004
X4.35Y-2.4004
X4.35Y-2.5004
X4.35Y-2.6004
X4.35Y-2.7004
X4.35Y-2.8004
X4.35Y-2.9004
X4.35Y-3.0004
X4.35Y-3.1004
X4.35Y-3.2004
X4.35Y-3.3004
X4.35Y-3.4004
X4.35Y-3.5004
X4.35Y-3.6004
X4.35Y-3.7004
X4.35Y-3.8004
X4.35Y-3.9004
X4.35Y-4.0004
X4.35Y-4.1004
X4.35Y-4.2004
X4.35Y-4.3004
X4.35Y-4.4004
X4.35Y-4.5004
X4.35Y-4.6004
X4.35Y-4.7004
X4.35Y-4.8004
X4.35Y-4.9004
X4.45Y-1.1004
X4.45Y-1.2004
X4.45Y-1.3004
X4.45Y-1.4004
X4.45Y-1.5004
X4.45Y-1.6004
X4.45Y-1.7004
X4.45Y-1.8004
X4.45Y-1.9004
X4.45Y-2.0004
X4.45Y-2.1004
X4.45Y-2.2004
X4.45Y-2.3004
X4.45Y-2.4004
X4.45Y-2.5004
X4.45Y-2.6004
X4.45Y-2.7004
X4.45Y-2.8004
X4.45Y-2.9004
X4.45Y-3.0004
X4.45Y-3.1004
X4.45Y-3.2004
X4.45Y-3.3004
X4.45Y-3.4004
X4.45Y-3.5004
X4.45Y-3.6004
X4.45Y-3.7004
X4.45Y-3.8004
X4.45Y-3.9004
X4.45Y-4.0004
X4.45Y-4.1004
X4.45Y-4.2004
X4.45Y-4.3004
X4.45Y-4.4004
X4.45Y-4.5004
X4.45Y-4.6004
X4.45Y-4.7004
X4.45Y-4.8004
X4.45Y-4.9004
X4.55Y-1.1004
X4.55Y-1.2004
X4.55Y-1.3004
X4.55Y-1.4004
X4.55Y-1.5004
X4.55Y-1.6004
X4.55Y-1.7004
X4.55Y-1.8004
X4.55Y-1.9004
X4.55Y-2.0004
X4.55Y-2.1004
X4.55Y-2.2004
X4.55Y-2.3004
X4.55Y-2.4004
X4.55Y-2.5004
X4.55Y-2.6004
X4.55Y-2.7004
X4.55Y-2.8004
X4.55Y-2.9004
X4.55Y-3.0004
X4.55Y-3.1004
X4.55Y-3.2004
X4.55Y-3.3004
X4.55Y-3.4004
X4.55Y-3.5004
X4.55Y-3.6004
X4.55Y-3.7004
X4.55Y-3.8004
X4.55Y-3.9004
X4.55Y-4.0004
X4.55Y-4.1004
X4.55Y-4.2004
X4.55Y-4.3004
X4.55Y-4.4004
X4.55Y-4.5004
X4.55Y-4.6004
X4.55Y-4.7004
X4.55Y-4.8004
X4.55Y-4.9004
X4.65Y-1.1004
X4.65Y-1.2004
X4.65Y-1.3004
X4.65Y-1.4004
X4.65Y-1.5004
X4.65Y-1.6004
X4.65Y-1.7004
X4.65Y-1.8004
X4.65Y-1.9004
X4.65Y-2.0004
X4.65Y-2.1004
X4.65Y-2.2004
X4.65Y-2.3004
X4.65Y-2.4004
X4.65Y-2.5004
X4.65Y-2.6004
X4.65Y-2.7004
X4.65Y-2.8004
X4.65Y-2.9004
X4.65Y-3.0004
X4.65Y-3.1004
X4.65Y-3.2004
X4.65Y-3.3004
X4.65Y-3.4004
X4.65Y-3.5004
X4.65Y-3.6004
X4.65Y-3.7004
X4.65Y-3.8004
X4.65Y-3.9004
X4.65Y-4.0004
X4.65Y-4.1004
X4.65Y-4.2004
X4.65Y-4.3004
X4.65Y-4.4004
X4.65Y-4.5004
X4.65Y-4.6004
X4.65Y-4.7004
X4.65Y-4.8004
X4.65Y-4.9004
X4.75Y-1.1004
X4.75Y-1.2004
X4.75Y-1.3004
X4.75Y-1.4004
X4.75Y-1.5004
X4.75Y-1.6004
X4.75Y-1.7004
X4.75Y-1.8004
X4.75Y-1.9004
X4.75Y-2.0004
X4.75Y-2.1004
X4.75Y-2.2004
X4.75Y-2.3004
X4.75Y-2.4004
X4.75Y-2.5004
X4.75Y-2.6004
X4.75Y-2.7004
X4.75Y-2.8004
X4.75Y-2.9004
X4.75Y-3.0004
X4.75Y-3.1004
X4.75Y-3.2004
X4.75Y-3.3004
X4.75Y-3.4004
X4.75Y-3.5004
X4.75Y-3.6004
X4.75Y-3.7004
X4.75Y-3.8004
X4.75Y-3.9004
X4.75Y-4.0004
X4.75Y-4.1004
X4.75Y-4.2004
X4.75Y-4.3004
X4.75Y-4.4004
X4.75Y-4.5004
X4.75Y-4.6004
X4.75Y-4.7004
X4.75Y-4.8004
X4.75Y-4.9004
X4.85Y-1.1
X4.85Y-1.2
X4.85Y-1.3
X4.85Y-1.4
X4.85Y-1.5
X4.85Y-1.6
X4.85Y-1.7
X4.85Y-1.8
X4.85Y-1.9
X4.85Y-2.0
X4.85Y-2.1
X4.85Y-2.2
X4.85Y-2.3
X4.85Y-2.4
X4.85Y-2.5
X4.85Y-2.6
X4.85Y-2.7
X4.85Y-2.8
X4.85Y-2.9
X4.85Y-3.0
X4.85Y-3.1
X4.85Y-3.2
X4.85Y-3.3
X4.85Y-3.4
X4.85Y-3.5
X4.85Y-3.6
X4.85Y-3.7
X4.85Y-3.8
X4.85Y-3.9
X4.85Y-4.0
X4.85Y-4.1
X4.85Y-4.2
X4.85Y-4.3
X4.85Y-4.4
X4.85Y-4.5
X4.85Y-4.6
X4.85Y-4.7
X4.85Y-4.8
X4.85Y-4.9
T7
X1.1138Y-1.4259
X1.5862Y-1.4259
T0
M30
