%TF.GenerationSoftware,KiCad,Pcbnew,(6.0.1)*%
%TF.CreationDate,2022-03-08T21:02:58+01:00*%
%TF.ProjectId,Z80CPM,5a383043-504d-42e6-9b69-6361645f7063,rev?*%
%TF.SameCoordinates,Original*%
%TF.FileFunction,Legend,Top*%
%TF.FilePolarity,Positive*%
%FSLAX46Y46*%
G04 Gerber Fmt 4.6, Leading zero omitted, Abs format (unit mm)*
G04 Created by KiCad (PCBNEW (6.0.1)) date 2022-03-08 21:02:58*
%MOMM*%
%LPD*%
G01*
G04 APERTURE LIST*
%ADD10C,0.150000*%
%ADD11C,0.120000*%
G04 APERTURE END LIST*
D10*
%TO.C,C2*%
X39203333Y-50947142D02*
X39155714Y-50994761D01*
X39012857Y-51042380D01*
X38917619Y-51042380D01*
X38774761Y-50994761D01*
X38679523Y-50899523D01*
X38631904Y-50804285D01*
X38584285Y-50613809D01*
X38584285Y-50470952D01*
X38631904Y-50280476D01*
X38679523Y-50185238D01*
X38774761Y-50090000D01*
X38917619Y-50042380D01*
X39012857Y-50042380D01*
X39155714Y-50090000D01*
X39203333Y-50137619D01*
X39584285Y-50137619D02*
X39631904Y-50090000D01*
X39727142Y-50042380D01*
X39965238Y-50042380D01*
X40060476Y-50090000D01*
X40108095Y-50137619D01*
X40155714Y-50232857D01*
X40155714Y-50328095D01*
X40108095Y-50470952D01*
X39536666Y-51042380D01*
X40155714Y-51042380D01*
%TO.C,R2*%
X48882380Y-54776666D02*
X48406190Y-55110000D01*
X48882380Y-55348095D02*
X47882380Y-55348095D01*
X47882380Y-54967142D01*
X47930000Y-54871904D01*
X47977619Y-54824285D01*
X48072857Y-54776666D01*
X48215714Y-54776666D01*
X48310952Y-54824285D01*
X48358571Y-54871904D01*
X48406190Y-54967142D01*
X48406190Y-55348095D01*
X47977619Y-54395714D02*
X47930000Y-54348095D01*
X47882380Y-54252857D01*
X47882380Y-54014761D01*
X47930000Y-53919523D01*
X47977619Y-53871904D01*
X48072857Y-53824285D01*
X48168095Y-53824285D01*
X48310952Y-53871904D01*
X48882380Y-54443333D01*
X48882380Y-53824285D01*
%TO.C,3\u002C6864Mhz1*%
X27369047Y-63937380D02*
X27988095Y-63937380D01*
X27654761Y-64318333D01*
X27797619Y-64318333D01*
X27892857Y-64365952D01*
X27940476Y-64413571D01*
X27988095Y-64508809D01*
X27988095Y-64746904D01*
X27940476Y-64842142D01*
X27892857Y-64889761D01*
X27797619Y-64937380D01*
X27511904Y-64937380D01*
X27416666Y-64889761D01*
X27369047Y-64842142D01*
X28464285Y-64889761D02*
X28464285Y-64937380D01*
X28416666Y-65032619D01*
X28369047Y-65080238D01*
X29321428Y-63937380D02*
X29130952Y-63937380D01*
X29035714Y-63985000D01*
X28988095Y-64032619D01*
X28892857Y-64175476D01*
X28845238Y-64365952D01*
X28845238Y-64746904D01*
X28892857Y-64842142D01*
X28940476Y-64889761D01*
X29035714Y-64937380D01*
X29226190Y-64937380D01*
X29321428Y-64889761D01*
X29369047Y-64842142D01*
X29416666Y-64746904D01*
X29416666Y-64508809D01*
X29369047Y-64413571D01*
X29321428Y-64365952D01*
X29226190Y-64318333D01*
X29035714Y-64318333D01*
X28940476Y-64365952D01*
X28892857Y-64413571D01*
X28845238Y-64508809D01*
X29988095Y-64365952D02*
X29892857Y-64318333D01*
X29845238Y-64270714D01*
X29797619Y-64175476D01*
X29797619Y-64127857D01*
X29845238Y-64032619D01*
X29892857Y-63985000D01*
X29988095Y-63937380D01*
X30178571Y-63937380D01*
X30273809Y-63985000D01*
X30321428Y-64032619D01*
X30369047Y-64127857D01*
X30369047Y-64175476D01*
X30321428Y-64270714D01*
X30273809Y-64318333D01*
X30178571Y-64365952D01*
X29988095Y-64365952D01*
X29892857Y-64413571D01*
X29845238Y-64461190D01*
X29797619Y-64556428D01*
X29797619Y-64746904D01*
X29845238Y-64842142D01*
X29892857Y-64889761D01*
X29988095Y-64937380D01*
X30178571Y-64937380D01*
X30273809Y-64889761D01*
X30321428Y-64842142D01*
X30369047Y-64746904D01*
X30369047Y-64556428D01*
X30321428Y-64461190D01*
X30273809Y-64413571D01*
X30178571Y-64365952D01*
X31226190Y-63937380D02*
X31035714Y-63937380D01*
X30940476Y-63985000D01*
X30892857Y-64032619D01*
X30797619Y-64175476D01*
X30750000Y-64365952D01*
X30750000Y-64746904D01*
X30797619Y-64842142D01*
X30845238Y-64889761D01*
X30940476Y-64937380D01*
X31130952Y-64937380D01*
X31226190Y-64889761D01*
X31273809Y-64842142D01*
X31321428Y-64746904D01*
X31321428Y-64508809D01*
X31273809Y-64413571D01*
X31226190Y-64365952D01*
X31130952Y-64318333D01*
X30940476Y-64318333D01*
X30845238Y-64365952D01*
X30797619Y-64413571D01*
X30750000Y-64508809D01*
X32178571Y-64270714D02*
X32178571Y-64937380D01*
X31940476Y-63889761D02*
X31702380Y-64604047D01*
X32321428Y-64604047D01*
X32702380Y-64937380D02*
X32702380Y-63937380D01*
X33035714Y-64651666D01*
X33369047Y-63937380D01*
X33369047Y-64937380D01*
X33845238Y-64937380D02*
X33845238Y-63937380D01*
X34273809Y-64937380D02*
X34273809Y-64413571D01*
X34226190Y-64318333D01*
X34130952Y-64270714D01*
X33988095Y-64270714D01*
X33892857Y-64318333D01*
X33845238Y-64365952D01*
X34654761Y-64270714D02*
X35178571Y-64270714D01*
X34654761Y-64937380D01*
X35178571Y-64937380D01*
X36083333Y-64937380D02*
X35511904Y-64937380D01*
X35797619Y-64937380D02*
X35797619Y-63937380D01*
X35702380Y-64080238D01*
X35607142Y-64175476D01*
X35511904Y-64223095D01*
%TO.C,U5*%
X95752380Y-82026904D02*
X96561904Y-82026904D01*
X96657142Y-81979285D01*
X96704761Y-81931666D01*
X96752380Y-81836428D01*
X96752380Y-81645952D01*
X96704761Y-81550714D01*
X96657142Y-81503095D01*
X96561904Y-81455476D01*
X95752380Y-81455476D01*
X95752380Y-80503095D02*
X95752380Y-80979285D01*
X96228571Y-81026904D01*
X96180952Y-80979285D01*
X96133333Y-80884047D01*
X96133333Y-80645952D01*
X96180952Y-80550714D01*
X96228571Y-80503095D01*
X96323809Y-80455476D01*
X96561904Y-80455476D01*
X96657142Y-80503095D01*
X96704761Y-80550714D01*
X96752380Y-80645952D01*
X96752380Y-80884047D01*
X96704761Y-80979285D01*
X96657142Y-81026904D01*
%TO.C,R1*%
X58702380Y-54776666D02*
X58226190Y-55110000D01*
X58702380Y-55348095D02*
X57702380Y-55348095D01*
X57702380Y-54967142D01*
X57750000Y-54871904D01*
X57797619Y-54824285D01*
X57892857Y-54776666D01*
X58035714Y-54776666D01*
X58130952Y-54824285D01*
X58178571Y-54871904D01*
X58226190Y-54967142D01*
X58226190Y-55348095D01*
X58702380Y-53824285D02*
X58702380Y-54395714D01*
X58702380Y-54110000D02*
X57702380Y-54110000D01*
X57845238Y-54205238D01*
X57940476Y-54300476D01*
X57988095Y-54395714D01*
%TO.C,U3*%
X95752380Y-55366904D02*
X96561904Y-55366904D01*
X96657142Y-55319285D01*
X96704761Y-55271666D01*
X96752380Y-55176428D01*
X96752380Y-54985952D01*
X96704761Y-54890714D01*
X96657142Y-54843095D01*
X96561904Y-54795476D01*
X95752380Y-54795476D01*
X95752380Y-54414523D02*
X95752380Y-53795476D01*
X96133333Y-54128809D01*
X96133333Y-53985952D01*
X96180952Y-53890714D01*
X96228571Y-53843095D01*
X96323809Y-53795476D01*
X96561904Y-53795476D01*
X96657142Y-53843095D01*
X96704761Y-53890714D01*
X96752380Y-53985952D01*
X96752380Y-54271666D01*
X96704761Y-54366904D01*
X96657142Y-54414523D01*
%TO.C,J2*%
X37332380Y-98123333D02*
X38046666Y-98123333D01*
X38189523Y-98170952D01*
X38284761Y-98266190D01*
X38332380Y-98409047D01*
X38332380Y-98504285D01*
X37427619Y-97694761D02*
X37380000Y-97647142D01*
X37332380Y-97551904D01*
X37332380Y-97313809D01*
X37380000Y-97218571D01*
X37427619Y-97170952D01*
X37522857Y-97123333D01*
X37618095Y-97123333D01*
X37760952Y-97170952D01*
X38332380Y-97742380D01*
X38332380Y-97123333D01*
%TO.C,U1*%
X95702380Y-36466904D02*
X96511904Y-36466904D01*
X96607142Y-36419285D01*
X96654761Y-36371666D01*
X96702380Y-36276428D01*
X96702380Y-36085952D01*
X96654761Y-35990714D01*
X96607142Y-35943095D01*
X96511904Y-35895476D01*
X95702380Y-35895476D01*
X96702380Y-34895476D02*
X96702380Y-35466904D01*
X96702380Y-35181190D02*
X95702380Y-35181190D01*
X95845238Y-35276428D01*
X95940476Y-35371666D01*
X95988095Y-35466904D01*
%TO.C,R5*%
X51422380Y-54776666D02*
X50946190Y-55110000D01*
X51422380Y-55348095D02*
X50422380Y-55348095D01*
X50422380Y-54967142D01*
X50470000Y-54871904D01*
X50517619Y-54824285D01*
X50612857Y-54776666D01*
X50755714Y-54776666D01*
X50850952Y-54824285D01*
X50898571Y-54871904D01*
X50946190Y-54967142D01*
X50946190Y-55348095D01*
X50422380Y-53871904D02*
X50422380Y-54348095D01*
X50898571Y-54395714D01*
X50850952Y-54348095D01*
X50803333Y-54252857D01*
X50803333Y-54014761D01*
X50850952Y-53919523D01*
X50898571Y-53871904D01*
X50993809Y-53824285D01*
X51231904Y-53824285D01*
X51327142Y-53871904D01*
X51374761Y-53919523D01*
X51422380Y-54014761D01*
X51422380Y-54252857D01*
X51374761Y-54348095D01*
X51327142Y-54395714D01*
%TO.C,R7*%
X32853333Y-96802380D02*
X32520000Y-96326190D01*
X32281904Y-96802380D02*
X32281904Y-95802380D01*
X32662857Y-95802380D01*
X32758095Y-95850000D01*
X32805714Y-95897619D01*
X32853333Y-95992857D01*
X32853333Y-96135714D01*
X32805714Y-96230952D01*
X32758095Y-96278571D01*
X32662857Y-96326190D01*
X32281904Y-96326190D01*
X33186666Y-95802380D02*
X33853333Y-95802380D01*
X33424761Y-96802380D01*
%TO.C,C4*%
X97623333Y-73807142D02*
X97575714Y-73854761D01*
X97432857Y-73902380D01*
X97337619Y-73902380D01*
X97194761Y-73854761D01*
X97099523Y-73759523D01*
X97051904Y-73664285D01*
X97004285Y-73473809D01*
X97004285Y-73330952D01*
X97051904Y-73140476D01*
X97099523Y-73045238D01*
X97194761Y-72950000D01*
X97337619Y-72902380D01*
X97432857Y-72902380D01*
X97575714Y-72950000D01*
X97623333Y-72997619D01*
X98480476Y-73235714D02*
X98480476Y-73902380D01*
X98242380Y-72854761D02*
X98004285Y-73569047D01*
X98623333Y-73569047D01*
%TO.C,C8*%
X97623333Y-52637142D02*
X97575714Y-52684761D01*
X97432857Y-52732380D01*
X97337619Y-52732380D01*
X97194761Y-52684761D01*
X97099523Y-52589523D01*
X97051904Y-52494285D01*
X97004285Y-52303809D01*
X97004285Y-52160952D01*
X97051904Y-51970476D01*
X97099523Y-51875238D01*
X97194761Y-51780000D01*
X97337619Y-51732380D01*
X97432857Y-51732380D01*
X97575714Y-51780000D01*
X97623333Y-51827619D01*
X98194761Y-52160952D02*
X98099523Y-52113333D01*
X98051904Y-52065714D01*
X98004285Y-51970476D01*
X98004285Y-51922857D01*
X98051904Y-51827619D01*
X98099523Y-51780000D01*
X98194761Y-51732380D01*
X98385238Y-51732380D01*
X98480476Y-51780000D01*
X98528095Y-51827619D01*
X98575714Y-51922857D01*
X98575714Y-51970476D01*
X98528095Y-52065714D01*
X98480476Y-52113333D01*
X98385238Y-52160952D01*
X98194761Y-52160952D01*
X98099523Y-52208571D01*
X98051904Y-52256190D01*
X98004285Y-52351428D01*
X98004285Y-52541904D01*
X98051904Y-52637142D01*
X98099523Y-52684761D01*
X98194761Y-52732380D01*
X98385238Y-52732380D01*
X98480476Y-52684761D01*
X98528095Y-52637142D01*
X98575714Y-52541904D01*
X98575714Y-52351428D01*
X98528095Y-52256190D01*
X98480476Y-52208571D01*
X98385238Y-52160952D01*
%TO.C,C9*%
X97623333Y-38667142D02*
X97575714Y-38714761D01*
X97432857Y-38762380D01*
X97337619Y-38762380D01*
X97194761Y-38714761D01*
X97099523Y-38619523D01*
X97051904Y-38524285D01*
X97004285Y-38333809D01*
X97004285Y-38190952D01*
X97051904Y-38000476D01*
X97099523Y-37905238D01*
X97194761Y-37810000D01*
X97337619Y-37762380D01*
X97432857Y-37762380D01*
X97575714Y-37810000D01*
X97623333Y-37857619D01*
X98099523Y-38762380D02*
X98290000Y-38762380D01*
X98385238Y-38714761D01*
X98432857Y-38667142D01*
X98528095Y-38524285D01*
X98575714Y-38333809D01*
X98575714Y-37952857D01*
X98528095Y-37857619D01*
X98480476Y-37810000D01*
X98385238Y-37762380D01*
X98194761Y-37762380D01*
X98099523Y-37810000D01*
X98051904Y-37857619D01*
X98004285Y-37952857D01*
X98004285Y-38190952D01*
X98051904Y-38286190D01*
X98099523Y-38333809D01*
X98194761Y-38381428D01*
X98385238Y-38381428D01*
X98480476Y-38333809D01*
X98528095Y-38286190D01*
X98575714Y-38190952D01*
%TO.C,R3*%
X43802380Y-54776666D02*
X43326190Y-55110000D01*
X43802380Y-55348095D02*
X42802380Y-55348095D01*
X42802380Y-54967142D01*
X42850000Y-54871904D01*
X42897619Y-54824285D01*
X42992857Y-54776666D01*
X43135714Y-54776666D01*
X43230952Y-54824285D01*
X43278571Y-54871904D01*
X43326190Y-54967142D01*
X43326190Y-55348095D01*
X42802380Y-54443333D02*
X42802380Y-53824285D01*
X43183333Y-54157619D01*
X43183333Y-54014761D01*
X43230952Y-53919523D01*
X43278571Y-53871904D01*
X43373809Y-53824285D01*
X43611904Y-53824285D01*
X43707142Y-53871904D01*
X43754761Y-53919523D01*
X43802380Y-54014761D01*
X43802380Y-54300476D01*
X43754761Y-54395714D01*
X43707142Y-54443333D01*
%TO.C,U4*%
X95762380Y-70596904D02*
X96571904Y-70596904D01*
X96667142Y-70549285D01*
X96714761Y-70501666D01*
X96762380Y-70406428D01*
X96762380Y-70215952D01*
X96714761Y-70120714D01*
X96667142Y-70073095D01*
X96571904Y-70025476D01*
X95762380Y-70025476D01*
X96095714Y-69120714D02*
X96762380Y-69120714D01*
X95714761Y-69358809D02*
X96429047Y-69596904D01*
X96429047Y-68977857D01*
%TO.C,C6*%
X34857142Y-54776666D02*
X34904761Y-54824285D01*
X34952380Y-54967142D01*
X34952380Y-55062380D01*
X34904761Y-55205238D01*
X34809523Y-55300476D01*
X34714285Y-55348095D01*
X34523809Y-55395714D01*
X34380952Y-55395714D01*
X34190476Y-55348095D01*
X34095238Y-55300476D01*
X34000000Y-55205238D01*
X33952380Y-55062380D01*
X33952380Y-54967142D01*
X34000000Y-54824285D01*
X34047619Y-54776666D01*
X33952380Y-53919523D02*
X33952380Y-54110000D01*
X34000000Y-54205238D01*
X34047619Y-54252857D01*
X34190476Y-54348095D01*
X34380952Y-54395714D01*
X34761904Y-54395714D01*
X34857142Y-54348095D01*
X34904761Y-54300476D01*
X34952380Y-54205238D01*
X34952380Y-54014761D01*
X34904761Y-53919523D01*
X34857142Y-53871904D01*
X34761904Y-53824285D01*
X34523809Y-53824285D01*
X34428571Y-53871904D01*
X34380952Y-53919523D01*
X34333333Y-54014761D01*
X34333333Y-54205238D01*
X34380952Y-54300476D01*
X34428571Y-54348095D01*
X34523809Y-54395714D01*
%TO.C,J3*%
X83067380Y-104473333D02*
X83781666Y-104473333D01*
X83924523Y-104520952D01*
X84019761Y-104616190D01*
X84067380Y-104759047D01*
X84067380Y-104854285D01*
X83067380Y-104092380D02*
X83067380Y-103473333D01*
X83448333Y-103806666D01*
X83448333Y-103663809D01*
X83495952Y-103568571D01*
X83543571Y-103520952D01*
X83638809Y-103473333D01*
X83876904Y-103473333D01*
X83972142Y-103520952D01*
X84019761Y-103568571D01*
X84067380Y-103663809D01*
X84067380Y-103949523D01*
X84019761Y-104044761D01*
X83972142Y-104092380D01*
%TO.C,SW1*%
X29146666Y-124284761D02*
X29289523Y-124332380D01*
X29527619Y-124332380D01*
X29622857Y-124284761D01*
X29670476Y-124237142D01*
X29718095Y-124141904D01*
X29718095Y-124046666D01*
X29670476Y-123951428D01*
X29622857Y-123903809D01*
X29527619Y-123856190D01*
X29337142Y-123808571D01*
X29241904Y-123760952D01*
X29194285Y-123713333D01*
X29146666Y-123618095D01*
X29146666Y-123522857D01*
X29194285Y-123427619D01*
X29241904Y-123380000D01*
X29337142Y-123332380D01*
X29575238Y-123332380D01*
X29718095Y-123380000D01*
X30051428Y-123332380D02*
X30289523Y-124332380D01*
X30480000Y-123618095D01*
X30670476Y-124332380D01*
X30908571Y-123332380D01*
X31813333Y-124332380D02*
X31241904Y-124332380D01*
X31527619Y-124332380D02*
X31527619Y-123332380D01*
X31432380Y-123475238D01*
X31337142Y-123570476D01*
X31241904Y-123618095D01*
%TO.C,R4*%
X46342380Y-54776666D02*
X45866190Y-55110000D01*
X46342380Y-55348095D02*
X45342380Y-55348095D01*
X45342380Y-54967142D01*
X45390000Y-54871904D01*
X45437619Y-54824285D01*
X45532857Y-54776666D01*
X45675714Y-54776666D01*
X45770952Y-54824285D01*
X45818571Y-54871904D01*
X45866190Y-54967142D01*
X45866190Y-55348095D01*
X45675714Y-53919523D02*
X46342380Y-53919523D01*
X45294761Y-54157619D02*
X46009047Y-54395714D01*
X46009047Y-53776666D01*
%TO.C,C7*%
X48407142Y-64936666D02*
X48454761Y-64984285D01*
X48502380Y-65127142D01*
X48502380Y-65222380D01*
X48454761Y-65365238D01*
X48359523Y-65460476D01*
X48264285Y-65508095D01*
X48073809Y-65555714D01*
X47930952Y-65555714D01*
X47740476Y-65508095D01*
X47645238Y-65460476D01*
X47550000Y-65365238D01*
X47502380Y-65222380D01*
X47502380Y-65127142D01*
X47550000Y-64984285D01*
X47597619Y-64936666D01*
X47502380Y-64603333D02*
X47502380Y-63936666D01*
X48502380Y-64365238D01*
%TO.C,U6*%
X37338095Y-92212380D02*
X37338095Y-93021904D01*
X37385714Y-93117142D01*
X37433333Y-93164761D01*
X37528571Y-93212380D01*
X37719047Y-93212380D01*
X37814285Y-93164761D01*
X37861904Y-93117142D01*
X37909523Y-93021904D01*
X37909523Y-92212380D01*
X38814285Y-92212380D02*
X38623809Y-92212380D01*
X38528571Y-92260000D01*
X38480952Y-92307619D01*
X38385714Y-92450476D01*
X38338095Y-92640952D01*
X38338095Y-93021904D01*
X38385714Y-93117142D01*
X38433333Y-93164761D01*
X38528571Y-93212380D01*
X38719047Y-93212380D01*
X38814285Y-93164761D01*
X38861904Y-93117142D01*
X38909523Y-93021904D01*
X38909523Y-92783809D01*
X38861904Y-92688571D01*
X38814285Y-92640952D01*
X38719047Y-92593333D01*
X38528571Y-92593333D01*
X38433333Y-92640952D01*
X38385714Y-92688571D01*
X38338095Y-92783809D01*
%TO.C,D1*%
X29741904Y-52672380D02*
X29741904Y-51672380D01*
X29980000Y-51672380D01*
X30122857Y-51720000D01*
X30218095Y-51815238D01*
X30265714Y-51910476D01*
X30313333Y-52100952D01*
X30313333Y-52243809D01*
X30265714Y-52434285D01*
X30218095Y-52529523D01*
X30122857Y-52624761D01*
X29980000Y-52672380D01*
X29741904Y-52672380D01*
X31265714Y-52672380D02*
X30694285Y-52672380D01*
X30980000Y-52672380D02*
X30980000Y-51672380D01*
X30884761Y-51815238D01*
X30789523Y-51910476D01*
X30694285Y-51958095D01*
%TO.C,C1*%
X51883333Y-61377142D02*
X51835714Y-61424761D01*
X51692857Y-61472380D01*
X51597619Y-61472380D01*
X51454761Y-61424761D01*
X51359523Y-61329523D01*
X51311904Y-61234285D01*
X51264285Y-61043809D01*
X51264285Y-60900952D01*
X51311904Y-60710476D01*
X51359523Y-60615238D01*
X51454761Y-60520000D01*
X51597619Y-60472380D01*
X51692857Y-60472380D01*
X51835714Y-60520000D01*
X51883333Y-60567619D01*
X52835714Y-61472380D02*
X52264285Y-61472380D01*
X52550000Y-61472380D02*
X52550000Y-60472380D01*
X52454761Y-60615238D01*
X52359523Y-60710476D01*
X52264285Y-60758095D01*
%TO.C,R6*%
X34092380Y-47476666D02*
X33616190Y-47810000D01*
X34092380Y-48048095D02*
X33092380Y-48048095D01*
X33092380Y-47667142D01*
X33140000Y-47571904D01*
X33187619Y-47524285D01*
X33282857Y-47476666D01*
X33425714Y-47476666D01*
X33520952Y-47524285D01*
X33568571Y-47571904D01*
X33616190Y-47667142D01*
X33616190Y-48048095D01*
X33092380Y-46619523D02*
X33092380Y-46810000D01*
X33140000Y-46905238D01*
X33187619Y-46952857D01*
X33330476Y-47048095D01*
X33520952Y-47095714D01*
X33901904Y-47095714D01*
X33997142Y-47048095D01*
X34044761Y-47000476D01*
X34092380Y-46905238D01*
X34092380Y-46714761D01*
X34044761Y-46619523D01*
X33997142Y-46571904D01*
X33901904Y-46524285D01*
X33663809Y-46524285D01*
X33568571Y-46571904D01*
X33520952Y-46619523D01*
X33473333Y-46714761D01*
X33473333Y-46905238D01*
X33520952Y-47000476D01*
X33568571Y-47048095D01*
X33663809Y-47095714D01*
%TO.C,C3*%
X34437142Y-54776666D02*
X34484761Y-54824285D01*
X34532380Y-54967142D01*
X34532380Y-55062380D01*
X34484761Y-55205238D01*
X34389523Y-55300476D01*
X34294285Y-55348095D01*
X34103809Y-55395714D01*
X33960952Y-55395714D01*
X33770476Y-55348095D01*
X33675238Y-55300476D01*
X33580000Y-55205238D01*
X33532380Y-55062380D01*
X33532380Y-54967142D01*
X33580000Y-54824285D01*
X33627619Y-54776666D01*
X33532380Y-54443333D02*
X33532380Y-53824285D01*
X33913333Y-54157619D01*
X33913333Y-54014761D01*
X33960952Y-53919523D01*
X34008571Y-53871904D01*
X34103809Y-53824285D01*
X34341904Y-53824285D01*
X34437142Y-53871904D01*
X34484761Y-53919523D01*
X34532380Y-54014761D01*
X34532380Y-54300476D01*
X34484761Y-54395714D01*
X34437142Y-54443333D01*
%TO.C,C5*%
X97623333Y-85237142D02*
X97575714Y-85284761D01*
X97432857Y-85332380D01*
X97337619Y-85332380D01*
X97194761Y-85284761D01*
X97099523Y-85189523D01*
X97051904Y-85094285D01*
X97004285Y-84903809D01*
X97004285Y-84760952D01*
X97051904Y-84570476D01*
X97099523Y-84475238D01*
X97194761Y-84380000D01*
X97337619Y-84332380D01*
X97432857Y-84332380D01*
X97575714Y-84380000D01*
X97623333Y-84427619D01*
X98528095Y-84332380D02*
X98051904Y-84332380D01*
X98004285Y-84808571D01*
X98051904Y-84760952D01*
X98147142Y-84713333D01*
X98385238Y-84713333D01*
X98480476Y-84760952D01*
X98528095Y-84808571D01*
X98575714Y-84903809D01*
X98575714Y-85141904D01*
X98528095Y-85237142D01*
X98480476Y-85284761D01*
X98385238Y-85332380D01*
X98147142Y-85332380D01*
X98051904Y-85284761D01*
X98004285Y-85237142D01*
D11*
%TO.C,*%
X36830000Y-123250000D02*
X35500000Y-123250000D01*
X38100000Y-120590000D02*
X101660000Y-120590000D01*
X101660000Y-123250000D02*
X101660000Y-120590000D01*
X35500000Y-123250000D02*
X35500000Y-121920000D01*
X38100000Y-123250000D02*
X38100000Y-120590000D01*
X38100000Y-123250000D02*
X101660000Y-123250000D01*
X36830000Y-120710000D02*
X35500000Y-120710000D01*
X38100000Y-118050000D02*
X101660000Y-118050000D01*
X101660000Y-120710000D02*
X101660000Y-118050000D01*
X35500000Y-120710000D02*
X35500000Y-119380000D01*
X38100000Y-120710000D02*
X38100000Y-118050000D01*
X38100000Y-120710000D02*
X101660000Y-120710000D01*
X33035000Y-110550000D02*
X33035000Y-107890000D01*
X31765000Y-110550000D02*
X30435000Y-110550000D01*
X33035000Y-110550000D02*
X101675000Y-110550000D01*
X30435000Y-110550000D02*
X30435000Y-109220000D01*
X101675000Y-110550000D02*
X101675000Y-107890000D01*
X33035000Y-107890000D02*
X101675000Y-107890000D01*
X33035000Y-113090000D02*
X33035000Y-110430000D01*
X31765000Y-113090000D02*
X30435000Y-113090000D01*
X33035000Y-113090000D02*
X101675000Y-113090000D01*
X30435000Y-113090000D02*
X30435000Y-111760000D01*
X101675000Y-113090000D02*
X101675000Y-110430000D01*
X33035000Y-110430000D02*
X101675000Y-110430000D01*
X33035000Y-115630000D02*
X33035000Y-112970000D01*
X31765000Y-115630000D02*
X30435000Y-115630000D01*
X33035000Y-115630000D02*
X101675000Y-115630000D01*
X30435000Y-115630000D02*
X30435000Y-114300000D01*
X101675000Y-115630000D02*
X101675000Y-112970000D01*
X33035000Y-112970000D02*
X101675000Y-112970000D01*
X101540000Y-27950000D02*
X101540000Y-26620000D01*
X101540000Y-26620000D02*
X102870000Y-26620000D01*
X104200000Y-29220000D02*
X104200000Y-125800000D01*
X101540000Y-125800000D02*
X104200000Y-125800000D01*
X101540000Y-29220000D02*
X104200000Y-29220000D01*
X101540000Y-29220000D02*
X101540000Y-125800000D01*
X104080000Y-27950000D02*
X104080000Y-26620000D01*
X104080000Y-26620000D02*
X105410000Y-26620000D01*
X106740000Y-29220000D02*
X106740000Y-125800000D01*
X104080000Y-125800000D02*
X106740000Y-125800000D01*
X104080000Y-29220000D02*
X106740000Y-29220000D01*
X104080000Y-29220000D02*
X104080000Y-125800000D01*
X106620000Y-27950000D02*
X106620000Y-26620000D01*
X106620000Y-26620000D02*
X107950000Y-26620000D01*
X109280000Y-29220000D02*
X109280000Y-125800000D01*
X106620000Y-125800000D02*
X109280000Y-125800000D01*
X106620000Y-29220000D02*
X109280000Y-29220000D01*
X106620000Y-29220000D02*
X106620000Y-125800000D01*
X109160000Y-27950000D02*
X109160000Y-26620000D01*
X109160000Y-26620000D02*
X110490000Y-26620000D01*
X111820000Y-29220000D02*
X111820000Y-125800000D01*
X109160000Y-125800000D02*
X111820000Y-125800000D01*
X109160000Y-29220000D02*
X111820000Y-29220000D01*
X109160000Y-29220000D02*
X109160000Y-125800000D01*
X111700000Y-27950000D02*
X111700000Y-26620000D01*
X111700000Y-26620000D02*
X113030000Y-26620000D01*
X114360000Y-29220000D02*
X114360000Y-125800000D01*
X111700000Y-125800000D02*
X114360000Y-125800000D01*
X111700000Y-29220000D02*
X114360000Y-29220000D01*
X111700000Y-29220000D02*
X111700000Y-125800000D01*
X114240000Y-27950000D02*
X114240000Y-26620000D01*
X114240000Y-26620000D02*
X115570000Y-26620000D01*
X116900000Y-29220000D02*
X116900000Y-125800000D01*
X114240000Y-125800000D02*
X116900000Y-125800000D01*
X114240000Y-29220000D02*
X116900000Y-29220000D01*
X114240000Y-29220000D02*
X114240000Y-125800000D01*
X116780000Y-27950000D02*
X116780000Y-26620000D01*
X116780000Y-26620000D02*
X118110000Y-26620000D01*
X119440000Y-29220000D02*
X119440000Y-125800000D01*
X116780000Y-125800000D02*
X119440000Y-125800000D01*
X116780000Y-29220000D02*
X119440000Y-29220000D01*
X116780000Y-29220000D02*
X116780000Y-125800000D01*
X119320000Y-27950000D02*
X119320000Y-26620000D01*
X119320000Y-26620000D02*
X120650000Y-26620000D01*
X121980000Y-29220000D02*
X121980000Y-125800000D01*
X119320000Y-125800000D02*
X121980000Y-125800000D01*
X119320000Y-29220000D02*
X121980000Y-29220000D01*
X119320000Y-29220000D02*
X119320000Y-125800000D01*
X99000000Y-97730000D02*
X100330000Y-97730000D01*
X99000000Y-100330000D02*
X101660000Y-100330000D01*
X99000000Y-100390000D02*
X101660000Y-100390000D01*
X101660000Y-100330000D02*
X101660000Y-100390000D01*
X99000000Y-100330000D02*
X99000000Y-100390000D01*
X99000000Y-99060000D02*
X99000000Y-97730000D01*
X99000000Y-105350000D02*
X100330000Y-105350000D01*
X99000000Y-107950000D02*
X101660000Y-107950000D01*
X99000000Y-108010000D02*
X101660000Y-108010000D01*
X101660000Y-107950000D02*
X101660000Y-108010000D01*
X99000000Y-107950000D02*
X99000000Y-108010000D01*
X99000000Y-106680000D02*
X99000000Y-105350000D01*
X96460000Y-105350000D02*
X97790000Y-105350000D01*
X96460000Y-107950000D02*
X99120000Y-107950000D01*
X96460000Y-108010000D02*
X99120000Y-108010000D01*
X99120000Y-107950000D02*
X99120000Y-108010000D01*
X96460000Y-107950000D02*
X96460000Y-108010000D01*
X96460000Y-106680000D02*
X96460000Y-105350000D01*
X93920000Y-105350000D02*
X95250000Y-105350000D01*
X93920000Y-107950000D02*
X96580000Y-107950000D01*
X93920000Y-108010000D02*
X96580000Y-108010000D01*
X96580000Y-107950000D02*
X96580000Y-108010000D01*
X93920000Y-107950000D02*
X93920000Y-108010000D01*
X93920000Y-106680000D02*
X93920000Y-105350000D01*
X91380000Y-105350000D02*
X92710000Y-105350000D01*
X91380000Y-107950000D02*
X94040000Y-107950000D01*
X91380000Y-108010000D02*
X94040000Y-108010000D01*
X94040000Y-107950000D02*
X94040000Y-108010000D01*
X91380000Y-107950000D02*
X91380000Y-108010000D01*
X91380000Y-106680000D02*
X91380000Y-105350000D01*
X93920000Y-102810000D02*
X95250000Y-102810000D01*
X93920000Y-105410000D02*
X96580000Y-105410000D01*
X93920000Y-105470000D02*
X96580000Y-105470000D01*
X96580000Y-105410000D02*
X96580000Y-105470000D01*
X93920000Y-105410000D02*
X93920000Y-105470000D01*
X93920000Y-104140000D02*
X93920000Y-102810000D01*
X96460000Y-102810000D02*
X97790000Y-102810000D01*
X96460000Y-105410000D02*
X99120000Y-105410000D01*
X96460000Y-105470000D02*
X99120000Y-105470000D01*
X99120000Y-105410000D02*
X99120000Y-105470000D01*
X96460000Y-105410000D02*
X96460000Y-105470000D01*
X96460000Y-104140000D02*
X96460000Y-102810000D01*
X99000000Y-102810000D02*
X100330000Y-102810000D01*
X99000000Y-105410000D02*
X101660000Y-105410000D01*
X99000000Y-105470000D02*
X101660000Y-105470000D01*
X101660000Y-105410000D02*
X101660000Y-105470000D01*
X99000000Y-105410000D02*
X99000000Y-105470000D01*
X99000000Y-104140000D02*
X99000000Y-102810000D01*
X99000000Y-100270000D02*
X100330000Y-100270000D01*
X99000000Y-102870000D02*
X101660000Y-102870000D01*
X99000000Y-102930000D02*
X101660000Y-102930000D01*
X101660000Y-102870000D02*
X101660000Y-102930000D01*
X99000000Y-102870000D02*
X99000000Y-102930000D01*
X99000000Y-101600000D02*
X99000000Y-100270000D01*
X96460000Y-100270000D02*
X97790000Y-100270000D01*
X96460000Y-102870000D02*
X99120000Y-102870000D01*
X96460000Y-102930000D02*
X99120000Y-102930000D01*
X99120000Y-102870000D02*
X99120000Y-102930000D01*
X96460000Y-102870000D02*
X96460000Y-102930000D01*
X96460000Y-101600000D02*
X96460000Y-100270000D01*
X33035000Y-125790000D02*
X33035000Y-123130000D01*
X31765000Y-125790000D02*
X30435000Y-125790000D01*
X33035000Y-125790000D02*
X101675000Y-125790000D01*
X30435000Y-125790000D02*
X30435000Y-124460000D01*
X101675000Y-125790000D02*
X101675000Y-123130000D01*
X33035000Y-123130000D02*
X101675000Y-123130000D01*
X36830000Y-118170000D02*
X35500000Y-118170000D01*
X38100000Y-115510000D02*
X101660000Y-115510000D01*
X101660000Y-118170000D02*
X101660000Y-115510000D01*
X35500000Y-118170000D02*
X35500000Y-116840000D01*
X38100000Y-118170000D02*
X38100000Y-115510000D01*
X38100000Y-118170000D02*
X101660000Y-118170000D01*
X121860000Y-27940000D02*
X121860000Y-26610000D01*
X121860000Y-26610000D02*
X123190000Y-26610000D01*
X124520000Y-29210000D02*
X124520000Y-125790000D01*
X121860000Y-125790000D02*
X124520000Y-125790000D01*
X121860000Y-29210000D02*
X124520000Y-29210000D01*
X121860000Y-29210000D02*
X121860000Y-125790000D01*
%TO.C,C2*%
X38040000Y-46990000D02*
X38040000Y-44390000D01*
X40700000Y-49590000D02*
X39370000Y-49590000D01*
X40700000Y-44390000D02*
X38040000Y-44390000D01*
X40700000Y-46990000D02*
X40700000Y-44390000D01*
X40700000Y-48260000D02*
X40700000Y-49590000D01*
X40700000Y-46990000D02*
X38040000Y-46990000D01*
%TO.C,R2*%
X50800000Y-50570000D02*
X50800000Y-51340000D01*
X49430000Y-57880000D02*
X52170000Y-57880000D01*
X52170000Y-57880000D02*
X52170000Y-51340000D01*
X50800000Y-58650000D02*
X50800000Y-57880000D01*
X49430000Y-51340000D02*
X49430000Y-57880000D01*
X52170000Y-51340000D02*
X49430000Y-51340000D01*
%TO.C,3\u002C6864Mhz1*%
X34875000Y-63485000D02*
X28625000Y-63485000D01*
X34875000Y-58435000D02*
X28625000Y-58435000D01*
X34875000Y-63485000D02*
G75*
G03*
X34875000Y-58435000I0J2525000D01*
G01*
X28625000Y-58435000D02*
G75*
G03*
X28625000Y-63485000I0J-2525000D01*
G01*
%TO.C,U2*%
X95305000Y-92990000D02*
X95305000Y-91740000D01*
X69725000Y-88740000D02*
X69725000Y-99240000D01*
X95305000Y-91740000D02*
X69785000Y-91740000D01*
X69785000Y-96240000D02*
X95305000Y-96240000D01*
X95305000Y-96240000D02*
X95305000Y-94990000D01*
X69725000Y-99240000D02*
X95365000Y-99240000D01*
X95365000Y-88740000D02*
X69725000Y-88740000D01*
X69785000Y-91740000D02*
X69785000Y-96240000D01*
X95365000Y-99240000D02*
X95365000Y-88740000D01*
X95305000Y-92990000D02*
G75*
G03*
X95305000Y-94990000I0J-1000000D01*
G01*
%TO.C,U5*%
X95300000Y-79015000D02*
X59620000Y-79015000D01*
X95300000Y-80265000D02*
X95300000Y-79015000D01*
X95300000Y-83515000D02*
X95300000Y-82265000D01*
X59620000Y-83515000D02*
X95300000Y-83515000D01*
X59620000Y-79015000D02*
X59620000Y-83515000D01*
X95300000Y-80265000D02*
G75*
G03*
X95300000Y-82265000I0J-1000000D01*
G01*
%TO.C,R1*%
X57250000Y-51340000D02*
X54510000Y-51340000D01*
X55880000Y-58650000D02*
X55880000Y-57880000D01*
X54510000Y-57880000D02*
X57250000Y-57880000D01*
X55880000Y-50570000D02*
X55880000Y-51340000D01*
X57250000Y-57880000D02*
X57250000Y-51340000D01*
X54510000Y-51340000D02*
X54510000Y-57880000D01*
%TO.C,J1*%
X40400000Y-42427500D02*
X40400000Y-38677500D01*
X40400000Y-42427500D02*
X28180000Y-42427500D01*
X32540000Y-43127500D02*
X33540000Y-43127500D01*
X28180000Y-42427500D02*
X28180000Y-38677500D01*
X33040000Y-42627500D02*
X32540000Y-43127500D01*
X40400000Y-25807500D02*
X40400000Y-33777500D01*
X33540000Y-43127500D02*
X33040000Y-42627500D01*
X40400000Y-25807500D02*
X28180000Y-25807500D01*
X28180000Y-25807500D02*
X28180000Y-33777500D01*
%TO.C,U3*%
X95300000Y-48145000D02*
X59620000Y-48145000D01*
X95300000Y-61065000D02*
X95300000Y-55605000D01*
X59620000Y-61065000D02*
X95300000Y-61065000D01*
X95300000Y-53605000D02*
X95300000Y-48145000D01*
X59620000Y-48145000D02*
X59620000Y-61065000D01*
X95300000Y-53605000D02*
G75*
G03*
X95300000Y-55605000I0J-1000000D01*
G01*
%TO.C,J2*%
X34280000Y-99120000D02*
X26600000Y-99120000D01*
X26600000Y-96460000D02*
X26600000Y-99120000D01*
X36880000Y-96460000D02*
X36880000Y-97790000D01*
X34280000Y-96460000D02*
X34280000Y-99120000D01*
X35550000Y-96460000D02*
X36880000Y-96460000D01*
X34280000Y-96460000D02*
X26600000Y-96460000D01*
%TO.C,U1*%
X95310000Y-26645000D02*
X44270000Y-26645000D01*
X44330000Y-29645000D02*
X44330000Y-41765000D01*
X44330000Y-41765000D02*
X95250000Y-41765000D01*
X95250000Y-34705000D02*
X95250000Y-29645000D01*
X95250000Y-41765000D02*
X95250000Y-36705000D01*
X95310000Y-44765000D02*
X95310000Y-26645000D01*
X44270000Y-26645000D02*
X44270000Y-44765000D01*
X44270000Y-44765000D02*
X95310000Y-44765000D01*
X95250000Y-29645000D02*
X44330000Y-29645000D01*
X95250000Y-34705000D02*
G75*
G03*
X95250000Y-36705000I0J-1000000D01*
G01*
%TO.C,R5*%
X54710000Y-57880000D02*
X54710000Y-51340000D01*
X51970000Y-57880000D02*
X54710000Y-57880000D01*
X51970000Y-51340000D02*
X51970000Y-57880000D01*
X53340000Y-58650000D02*
X53340000Y-57880000D01*
X53340000Y-50570000D02*
X53340000Y-51340000D01*
X54710000Y-51340000D02*
X51970000Y-51340000D01*
%TO.C,R7*%
X29750000Y-95350000D02*
X36290000Y-95350000D01*
X36290000Y-95350000D02*
X36290000Y-92610000D01*
X28980000Y-93980000D02*
X29750000Y-93980000D01*
X37060000Y-93980000D02*
X36290000Y-93980000D01*
X29750000Y-92610000D02*
X29750000Y-95350000D01*
X36290000Y-92610000D02*
X29750000Y-92610000D01*
%TO.C,C4*%
X99120000Y-67250000D02*
X96460000Y-67250000D01*
X99120000Y-69850000D02*
X96460000Y-69850000D01*
X99120000Y-72450000D02*
X97790000Y-72450000D01*
X99120000Y-69850000D02*
X99120000Y-67250000D01*
X96460000Y-69850000D02*
X96460000Y-67250000D01*
X99120000Y-71120000D02*
X99120000Y-72450000D01*
%TO.C,C8*%
X96460000Y-53280000D02*
X97790000Y-53280000D01*
X96460000Y-54610000D02*
X96460000Y-53280000D01*
X99120000Y-55880000D02*
X99120000Y-58480000D01*
X96460000Y-55880000D02*
X96460000Y-58480000D01*
X96460000Y-58480000D02*
X99120000Y-58480000D01*
X96460000Y-55880000D02*
X99120000Y-55880000D01*
%TO.C,C9*%
X96460000Y-39310000D02*
X97790000Y-39310000D01*
X96460000Y-44510000D02*
X99120000Y-44510000D01*
X99120000Y-41910000D02*
X99120000Y-44510000D01*
X96460000Y-41910000D02*
X99120000Y-41910000D01*
X96460000Y-41910000D02*
X96460000Y-44510000D01*
X96460000Y-40640000D02*
X96460000Y-39310000D01*
%TO.C,R3*%
X45720000Y-58650000D02*
X45720000Y-57880000D01*
X44350000Y-57880000D02*
X47090000Y-57880000D01*
X47090000Y-51340000D02*
X44350000Y-51340000D01*
X45720000Y-50570000D02*
X45720000Y-51340000D01*
X44350000Y-51340000D02*
X44350000Y-57880000D01*
X47090000Y-57880000D02*
X47090000Y-51340000D01*
%TO.C,U4*%
X95310000Y-67585000D02*
X59630000Y-67585000D01*
X59630000Y-67585000D02*
X59630000Y-72085000D01*
X95310000Y-68835000D02*
X95310000Y-67585000D01*
X95310000Y-72085000D02*
X95310000Y-70835000D01*
X59630000Y-72085000D02*
X95310000Y-72085000D01*
X95310000Y-68835000D02*
G75*
G03*
X95310000Y-70835000I0J-1000000D01*
G01*
%TO.C,C6*%
X36830000Y-55940000D02*
X35500000Y-55940000D01*
X40700000Y-55940000D02*
X40700000Y-53280000D01*
X38100000Y-53280000D02*
X40700000Y-53280000D01*
X35500000Y-55940000D02*
X35500000Y-54610000D01*
X38100000Y-55940000D02*
X38100000Y-53280000D01*
X38100000Y-55940000D02*
X40700000Y-55940000D01*
%TO.C,J3*%
X26615000Y-102810000D02*
X26615000Y-105470000D01*
X80015000Y-102810000D02*
X80015000Y-105470000D01*
X80015000Y-105470000D02*
X26615000Y-105470000D01*
X82615000Y-102810000D02*
X82615000Y-104140000D01*
X81285000Y-102810000D02*
X82615000Y-102810000D01*
X80015000Y-102810000D02*
X26615000Y-102810000D01*
%TO.C,SW1*%
X34350000Y-122750000D02*
X26610000Y-122750000D01*
X34350000Y-116010000D02*
X26610000Y-116010000D01*
X34350000Y-122750000D02*
X34350000Y-116010000D01*
X26610000Y-122750000D02*
X26610000Y-116010000D01*
%TO.C,R4*%
X48260000Y-58650000D02*
X48260000Y-57880000D01*
X46890000Y-57880000D02*
X49630000Y-57880000D01*
X46890000Y-51340000D02*
X46890000Y-57880000D01*
X49630000Y-51340000D02*
X46890000Y-51340000D01*
X49630000Y-57880000D02*
X49630000Y-51340000D01*
X48260000Y-50570000D02*
X48260000Y-51340000D01*
%TO.C,C7*%
X41850000Y-63440000D02*
X41850000Y-66100000D01*
X45720000Y-63440000D02*
X47050000Y-63440000D01*
X47050000Y-63440000D02*
X47050000Y-64770000D01*
X44450000Y-63440000D02*
X41850000Y-63440000D01*
X44450000Y-66100000D02*
X41850000Y-66100000D01*
X44450000Y-63440000D02*
X44450000Y-66100000D01*
%TO.C,U6*%
X39100000Y-91860000D02*
X48950000Y-91860000D01*
X26250000Y-68160000D02*
X26250000Y-91860000D01*
X26250000Y-91860000D02*
X37100000Y-91860000D01*
X49950000Y-68160000D02*
X26250000Y-68160000D01*
X48950000Y-91860000D02*
X49950000Y-90860000D01*
X49950000Y-90860000D02*
X49950000Y-68160000D01*
%TO.C,D1*%
X33040000Y-49805000D02*
X33040000Y-46715000D01*
X33040000Y-46715170D02*
G75*
G03*
X27490000Y-48260462I-2560000J-1544830D01*
G01*
X27490000Y-48259538D02*
G75*
G03*
X33040000Y-49804830I2990000J-462D01*
G01*
X32980000Y-48260000D02*
G75*
G03*
X32980000Y-48260000I-2500000J0D01*
G01*
%TO.C,C1*%
X53571000Y-65810000D02*
X53571000Y-66865000D01*
X53771000Y-62833000D02*
X53771000Y-63730000D01*
X54531000Y-63965000D02*
X54531000Y-65575000D01*
X52090000Y-62190000D02*
X52090000Y-67350000D01*
X52290000Y-62201000D02*
X52290000Y-63730000D01*
X53251000Y-62480000D02*
X53251000Y-63730000D01*
X52530000Y-65810000D02*
X52530000Y-67306000D01*
X52330000Y-62205000D02*
X52330000Y-63730000D01*
X53291000Y-62502000D02*
X53291000Y-63730000D01*
X54571000Y-64093000D02*
X54571000Y-65447000D01*
X54011000Y-65810000D02*
X54011000Y-66469000D01*
X53931000Y-62985000D02*
X53931000Y-63730000D01*
X53371000Y-62546000D02*
X53371000Y-63730000D01*
X52690000Y-62269000D02*
X52690000Y-63730000D01*
X52130000Y-62191000D02*
X52130000Y-67349000D01*
X52490000Y-62227000D02*
X52490000Y-63730000D01*
X54451000Y-63759000D02*
X54451000Y-65781000D01*
X53211000Y-65810000D02*
X53211000Y-67080000D01*
X53171000Y-65810000D02*
X53171000Y-67099000D01*
X54491000Y-63855000D02*
X54491000Y-65685000D01*
X54291000Y-63451000D02*
X54291000Y-63730000D01*
X52610000Y-62250000D02*
X52610000Y-63730000D01*
X53171000Y-62441000D02*
X53171000Y-63730000D01*
X53051000Y-65810000D02*
X53051000Y-67152000D01*
X54411000Y-63672000D02*
X54411000Y-65868000D01*
X53371000Y-65810000D02*
X53371000Y-66994000D01*
X53851000Y-65810000D02*
X53851000Y-66634000D01*
X54131000Y-65810000D02*
X54131000Y-66324000D01*
X54051000Y-63117000D02*
X54051000Y-63730000D01*
X53771000Y-65810000D02*
X53771000Y-66707000D01*
X54171000Y-65810000D02*
X54171000Y-66270000D01*
X52410000Y-65810000D02*
X52410000Y-67326000D01*
X53691000Y-62766000D02*
X53691000Y-63730000D01*
X53891000Y-62944000D02*
X53891000Y-63730000D01*
X54091000Y-63165000D02*
X54091000Y-63730000D01*
X53891000Y-65810000D02*
X53891000Y-66596000D01*
X53131000Y-62422000D02*
X53131000Y-63730000D01*
X54291000Y-65810000D02*
X54291000Y-66089000D01*
X53531000Y-62648000D02*
X53531000Y-63730000D01*
X52170000Y-62192000D02*
X52170000Y-67348000D01*
X53931000Y-65810000D02*
X53931000Y-66555000D01*
X52450000Y-65810000D02*
X52450000Y-67320000D01*
X52690000Y-65810000D02*
X52690000Y-67271000D01*
X53811000Y-62869000D02*
X53811000Y-63730000D01*
X52250000Y-62197000D02*
X52250000Y-67343000D01*
X53451000Y-65810000D02*
X53451000Y-66945000D01*
X53051000Y-62388000D02*
X53051000Y-63730000D01*
X52771000Y-65810000D02*
X52771000Y-67250000D01*
X52851000Y-65810000D02*
X52851000Y-67225000D01*
X53491000Y-62621000D02*
X53491000Y-63730000D01*
X53451000Y-62595000D02*
X53451000Y-63730000D01*
X54651000Y-64486000D02*
X54651000Y-65054000D01*
X52811000Y-62302000D02*
X52811000Y-63730000D01*
X52931000Y-62342000D02*
X52931000Y-63730000D01*
X53971000Y-65810000D02*
X53971000Y-66513000D01*
X52891000Y-65810000D02*
X52891000Y-67212000D01*
X54331000Y-63519000D02*
X54331000Y-63730000D01*
X53091000Y-65810000D02*
X53091000Y-67135000D01*
X53411000Y-62570000D02*
X53411000Y-63730000D01*
X52730000Y-65810000D02*
X52730000Y-67261000D01*
X52771000Y-62290000D02*
X52771000Y-63730000D01*
X54131000Y-63216000D02*
X54131000Y-63730000D01*
X54171000Y-63270000D02*
X54171000Y-63730000D01*
X53011000Y-65810000D02*
X53011000Y-67168000D01*
X53651000Y-62735000D02*
X53651000Y-63730000D01*
X52610000Y-65810000D02*
X52610000Y-67290000D01*
X52490000Y-65810000D02*
X52490000Y-67313000D01*
X52530000Y-62234000D02*
X52530000Y-63730000D01*
X53251000Y-65810000D02*
X53251000Y-67060000D01*
X53331000Y-62523000D02*
X53331000Y-63730000D01*
X53971000Y-63027000D02*
X53971000Y-63730000D01*
X53011000Y-62372000D02*
X53011000Y-63730000D01*
X53611000Y-65810000D02*
X53611000Y-66835000D01*
X53851000Y-62906000D02*
X53851000Y-63730000D01*
X53491000Y-65810000D02*
X53491000Y-66919000D01*
X53731000Y-62799000D02*
X53731000Y-63730000D01*
X53611000Y-62705000D02*
X53611000Y-63730000D01*
X54251000Y-65810000D02*
X54251000Y-66153000D01*
X52931000Y-65810000D02*
X52931000Y-67198000D01*
X54211000Y-63327000D02*
X54211000Y-63730000D01*
X54251000Y-63387000D02*
X54251000Y-63730000D01*
X53691000Y-65810000D02*
X53691000Y-66774000D01*
X52210000Y-62194000D02*
X52210000Y-67346000D01*
X52971000Y-65810000D02*
X52971000Y-67184000D01*
X53651000Y-65810000D02*
X53651000Y-66805000D01*
X53531000Y-65810000D02*
X53531000Y-66892000D01*
X49495225Y-63045000D02*
X49495225Y-63545000D01*
X53811000Y-65810000D02*
X53811000Y-66671000D01*
X52450000Y-62220000D02*
X52450000Y-63730000D01*
X52410000Y-62214000D02*
X52410000Y-63730000D01*
X52290000Y-65810000D02*
X52290000Y-67339000D01*
X53411000Y-65810000D02*
X53411000Y-66970000D01*
X53091000Y-62405000D02*
X53091000Y-63730000D01*
X54371000Y-63592000D02*
X54371000Y-65948000D01*
X52330000Y-65810000D02*
X52330000Y-67335000D01*
X54331000Y-65810000D02*
X54331000Y-66021000D01*
X52811000Y-65810000D02*
X52811000Y-67238000D01*
X52650000Y-65810000D02*
X52650000Y-67281000D01*
X52971000Y-62356000D02*
X52971000Y-63730000D01*
X54611000Y-64252000D02*
X54611000Y-65288000D01*
X52650000Y-62259000D02*
X52650000Y-63730000D01*
X53571000Y-62675000D02*
X53571000Y-63730000D01*
X52370000Y-62209000D02*
X52370000Y-63730000D01*
X52570000Y-65810000D02*
X52570000Y-67298000D01*
X54051000Y-65810000D02*
X54051000Y-66423000D01*
X52891000Y-62328000D02*
X52891000Y-63730000D01*
X52050000Y-62190000D02*
X52050000Y-67350000D01*
X53211000Y-62460000D02*
X53211000Y-63730000D01*
X53731000Y-65810000D02*
X53731000Y-66741000D01*
X52570000Y-62242000D02*
X52570000Y-63730000D01*
X52370000Y-65810000D02*
X52370000Y-67331000D01*
X54011000Y-63071000D02*
X54011000Y-63730000D01*
X53291000Y-65810000D02*
X53291000Y-67038000D01*
X54211000Y-65810000D02*
X54211000Y-66213000D01*
X54091000Y-65810000D02*
X54091000Y-66375000D01*
X53131000Y-65810000D02*
X53131000Y-67118000D01*
X53331000Y-65810000D02*
X53331000Y-67017000D01*
X52851000Y-62315000D02*
X52851000Y-63730000D01*
X49245225Y-63295000D02*
X49745225Y-63295000D01*
X52730000Y-62279000D02*
X52730000Y-63730000D01*
X54670000Y-64770000D02*
G75*
G03*
X54670000Y-64770000I-2620000J0D01*
G01*
%TO.C,R6*%
X34860000Y-47842867D02*
G75*
G03*
X36309359Y-47939905I700000J-417133D01*
G01*
%TO.C,C3*%
X31750000Y-53280000D02*
X33080000Y-53280000D01*
X30480000Y-53280000D02*
X30480000Y-55940000D01*
X30480000Y-53280000D02*
X27880000Y-53280000D01*
X33080000Y-53280000D02*
X33080000Y-54610000D01*
X30480000Y-55940000D02*
X27880000Y-55940000D01*
X27880000Y-53280000D02*
X27880000Y-55940000D01*
%TO.C,C5*%
X99120000Y-78680000D02*
X96460000Y-78680000D01*
X99120000Y-83880000D02*
X97790000Y-83880000D01*
X99120000Y-82550000D02*
X99120000Y-83880000D01*
X96460000Y-81280000D02*
X96460000Y-78680000D01*
X99120000Y-81280000D02*
X99120000Y-78680000D01*
X99120000Y-81280000D02*
X96460000Y-81280000D01*
%TD*%
M02*
