M48
; DRILL file {KiCad (6.0.1)} date Wed May 10 08:42:37 2023
; FORMAT={-:-/ absolute / inch / decimal}
; #@! TF.CreationDate,2023-05-10T08:42:37+02:00
; #@! TF.GenerationSoftware,Kicad,Pcbnew,(6.0.1)
; #@! TF.FileFunction,Plated,1,2,PTH
FMAT,2
INCH
; #@! TA.AperFunction,Plated,PTH,ViaDrill
T1C0.0157
; #@! TA.AperFunction,Plated,PTH,ComponentDrill
T2C0.0276
; #@! TA.AperFunction,Plated,PTH,ComponentDrill
T3C0.0315
; #@! TA.AperFunction,Plated,PTH,ComponentDrill
T4C0.0354
; #@! TA.AperFunction,Plated,PTH,ComponentDrill
T5C0.0374
; #@! TA.AperFunction,Plated,PTH,ComponentDrill
T6C0.0394
; #@! TA.AperFunction,Plated,PTH,ComponentDrill
T7C0.0906
%
G90
G05
T1
X1.5997Y-2.1803
X1.6419Y-3.0515
X2.0196Y-3.0045
X2.1927Y-2.4225
X2.2473Y-2.9754
X2.3143Y-1.8754
X2.4049Y-3.3933
X2.4492Y-3.2237
X2.5305Y-1.1835
X2.5307Y-1.2661
X2.5335Y-3.13
X2.5856Y-1.1658
X2.6928Y-3.7248
X2.7897Y-2.4226
X2.8092Y-2.3855
X2.8374Y-1.4478
X2.8559Y-2.7152
X2.8853Y-2.6311
X3.0034Y-3.4741
X3.0523Y-3.5767
X3.0993Y-1.2548
X3.0993Y-2.6566
X3.128Y-1.5756
X3.1366Y-3.5113
X3.1578Y-1.125
X3.1656Y-3.5408
X3.172Y-1.6972
X3.1944Y-1.225
X3.2357Y-2.0788
X3.2383Y-1.6967
X3.2388Y-1.651
X3.242Y-0.7665
X3.2774Y-1.8294
X3.3047Y-2.3941
X3.3336Y-2.576
X3.4283Y-2.6049
X3.4623Y-1.6225
X3.4912Y-1.5892
X3.5006Y-2.8718
X3.5068Y-0.8551
X3.5076Y-1.931
X3.5478Y-2.0753
X3.5628Y-2.4209
X3.6Y-0.75
X3.625Y-1.225
X3.6306Y-2.8501
X3.6357Y-2.7768
X3.6583Y-3.4741
X3.6643Y-0.9854
X3.7139Y-1.0145
X3.7185Y-1.9216
X3.7237Y-3.3597
X3.7483Y-1.5028
X3.7854Y-1.2807
X3.8776Y-1.7947
X3.8924Y-2.5168
X3.9121Y-2.5975
X3.913Y-0.7867
X3.9184Y-1.6554
X3.9464Y-1.7906
X3.9801Y-3.4307
X4.0441Y-2.375
X4.0441Y-2.45
X4.0633Y-1.8113
X4.1377Y-0.6141
X4.1377Y-0.785
X4.138Y-1.3164
X4.1528Y-2.125
X4.1765Y-2.3485
X4.1779Y-1.0396
X4.2484Y-0.6317
X4.2484Y-0.7989
X4.2861Y-3.3597
X4.3176Y-1.7958
X4.3783Y-1.9249
T2
X0.7644Y-2.15
X0.8392Y-2.15
X1.675Y-0.9384
X1.675Y-1.0132
T3
X0.9819Y-1.4
X1.1748Y-1.4
X1.4008Y-1.3756
X1.4008Y-1.4756
X1.4008Y-1.5756
X1.4008Y-1.6756
X1.4008Y-1.7756
X1.4008Y-1.8756
X1.4008Y-1.9756
X1.4008Y-2.0756
X1.4008Y-2.1756
X1.4008Y-2.2756
X1.4266Y-0.7
X1.475Y-0.9266
X1.475Y-1.025
X1.6234Y-0.7
X1.7008Y-1.3756
X1.7008Y-1.4756
X1.7008Y-1.5756
X1.7008Y-1.6756
X1.7008Y-1.7756
X1.7008Y-1.8756
X1.7008Y-1.9756
X1.7008Y-2.0756
X1.7008Y-2.1756
X1.7008Y-2.2756
X1.85Y-0.7
X1.85Y-1.0
X1.9004Y-1.4754
X1.9004Y-1.5754
X1.9004Y-1.6754
X1.9004Y-1.7754
X1.9004Y-1.8754
X1.9004Y-1.9754
X1.9004Y-2.0754
X1.9004Y-2.1754
X1.9004Y-2.2754
X1.9004Y-2.3754
X1.9004Y-2.4754
X1.9004Y-2.5754
X1.9004Y-2.6754
X1.9004Y-2.7754
X1.9004Y-2.8754
X1.9004Y-2.9754
X1.9004Y-3.0754
X1.9004Y-3.1754
X1.9004Y-3.2754
X1.9004Y-3.3754
X2.45Y-0.7
X2.45Y-1.0
X2.5004Y-1.4754
X2.5004Y-1.5754
X2.5004Y-1.6754
X2.5004Y-1.7754
X2.5004Y-1.8754
X2.5004Y-1.9754
X2.5004Y-2.0754
X2.5004Y-2.1754
X2.5004Y-2.2754
X2.5004Y-2.3754
X2.5004Y-2.4754
X2.5004Y-2.5754
X2.5004Y-2.6754
X2.5004Y-2.7754
X2.5004Y-2.8754
X2.5004Y-2.9754
X2.5004Y-3.0754
X2.5004Y-3.1754
X2.5004Y-3.2754
X2.5004Y-3.3754
X2.6254Y-2.5754
X2.6254Y-2.6754
X2.6254Y-2.7754
X2.6254Y-2.8754
X2.6254Y-2.9754
X2.6254Y-3.0754
X2.6254Y-3.1754
X2.6254Y-3.2754
X2.6254Y-3.3754
X2.6254Y-3.4754
X2.6254Y-3.5754
X2.6254Y-3.6754
X2.6254Y-3.7754
X2.6254Y-3.8754
X2.6258Y-1.4756
X2.6258Y-1.5756
X2.6258Y-1.6756
X2.6258Y-1.7756
X2.6258Y-1.8756
X2.6258Y-1.9756
X2.6258Y-2.0756
X2.6258Y-2.1756
X2.6258Y-2.2756
X2.6258Y-2.3756
X2.9254Y-2.5754
X2.9254Y-2.6754
X2.9254Y-2.7754
X2.9254Y-2.8754
X2.9254Y-2.9754
X2.9254Y-3.0754
X2.9254Y-3.1754
X2.9254Y-3.2754
X2.9254Y-3.3754
X2.9254Y-3.4754
X2.9254Y-3.5754
X2.9254Y-3.6754
X2.9254Y-3.7754
X2.9254Y-3.8754
X2.9258Y-1.4756
X2.9258Y-1.5756
X2.9258Y-1.6756
X2.9258Y-1.7756
X2.9258Y-1.8756
X2.9258Y-1.9756
X2.9258Y-2.0756
X2.9258Y-2.1756
X2.9258Y-2.2756
X2.9258Y-2.3756
X3.2746Y-2.6498
X3.2746Y-2.7498
X3.2746Y-2.8498
X3.2746Y-2.9498
X3.2746Y-3.0498
X3.2746Y-3.1498
X3.2746Y-3.2498
X3.2746Y-3.3498
X3.2746Y-3.4498
X3.2746Y-3.5498
X3.35Y-0.825
X3.35Y-0.925
X3.35Y-1.025
X3.35Y-1.125
X3.35Y-1.225
X3.35Y-1.325
X3.45Y-0.725
X3.45Y-0.825
X3.45Y-0.925
X3.45Y-1.025
X3.45Y-1.125
X3.45Y-1.225
X3.45Y-1.325
X3.45Y-1.425
X3.55Y-0.725
X3.55Y-0.825
X3.55Y-1.325
X3.55Y-1.425
X3.5746Y-2.6498
X3.5746Y-2.7498
X3.5746Y-2.8498
X3.5746Y-2.9498
X3.5746Y-3.0498
X3.5746Y-3.1498
X3.5746Y-3.2498
X3.5746Y-3.3498
X3.5746Y-3.4498
X3.5746Y-3.5498
X3.65Y-0.725
X3.65Y-0.825
X3.65Y-1.325
X3.65Y-1.425
X3.75Y-0.725
X3.75Y-0.825
X3.75Y-1.325
X3.75Y-1.425
X3.8246Y-1.875
X3.8246Y-1.975
X3.8246Y-2.075
X3.8246Y-2.175
X3.8246Y-2.275
X3.8246Y-2.375
X3.8246Y-2.475
X3.8246Y-2.575
X3.8246Y-2.675
X3.8246Y-2.775
X3.825Y-3.475
X3.825Y-3.575
X3.825Y-3.675
X3.825Y-3.775
X3.825Y-3.875
X3.825Y-3.975
X3.825Y-4.075
X3.825Y-4.175
X3.825Y-4.275
X3.825Y-4.375
X3.85Y-0.725
X3.85Y-0.825
X3.85Y-1.325
X3.85Y-1.425
X3.95Y-0.725
X3.95Y-0.825
X3.95Y-0.925
X3.95Y-1.025
X3.95Y-1.125
X3.95Y-1.225
X3.95Y-1.325
X3.95Y-1.425
X4.05Y-0.825
X4.05Y-0.925
X4.05Y-1.025
X4.05Y-1.125
X4.05Y-1.225
X4.05Y-1.325
X4.1246Y-1.875
X4.1246Y-1.975
X4.1246Y-2.075
X4.1246Y-2.175
X4.1246Y-2.275
X4.1246Y-2.375
X4.1246Y-2.475
X4.1246Y-2.575
X4.1246Y-2.675
X4.1246Y-2.775
X4.125Y-3.475
X4.125Y-3.575
X4.125Y-3.675
X4.125Y-3.775
X4.125Y-3.875
X4.125Y-3.975
X4.125Y-4.075
X4.125Y-4.175
X4.125Y-4.275
X4.125Y-4.375
T4
X0.75Y-1.925
X0.85Y-1.925
T5
X0.9508Y-1.0885
X0.9508Y-1.1672
X1.0492Y-1.0885
X1.0492Y-1.1672
T6
X0.75Y-1.3504
X0.75Y-1.4504
X0.75Y-1.5504
X0.75Y-1.6504
X0.775Y-2.325
X0.775Y-2.425
X0.775Y-2.525
X0.775Y-2.625
X0.775Y-2.725
X0.775Y-2.825
X0.775Y-2.925
X0.775Y-3.025
X0.775Y-3.125
X0.775Y-3.225
X0.775Y-3.325
X0.775Y-3.425
X0.775Y-3.525
X0.775Y-3.625
X0.775Y-3.725
X0.775Y-3.825
X0.775Y-3.925
X0.775Y-4.025
X0.775Y-4.125
X0.775Y-4.225
X0.775Y-4.325
X0.775Y-4.425
X0.875Y-2.325
X0.875Y-2.425
X0.875Y-2.525
X0.875Y-2.625
X0.875Y-2.725
X0.875Y-2.825
X0.875Y-2.925
X0.875Y-3.025
X0.875Y-3.125
X0.875Y-3.225
X0.875Y-3.325
X0.875Y-3.425
X0.875Y-3.525
X0.875Y-3.625
X0.875Y-3.725
X0.875Y-3.825
X0.875Y-3.925
X0.875Y-4.025
X0.875Y-4.125
X0.875Y-4.225
X0.875Y-4.325
X0.875Y-4.425
X0.8998Y-1.625
X0.975Y-2.325
X0.975Y-2.425
X0.975Y-2.525
X0.975Y-2.625
X0.975Y-2.725
X0.975Y-2.825
X0.975Y-2.925
X0.975Y-3.025
X0.975Y-3.125
X0.975Y-3.225
X0.975Y-3.325
X0.975Y-3.425
X0.975Y-3.525
X0.975Y-3.625
X0.975Y-3.725
X0.975Y-3.825
X0.975Y-3.925
X0.975Y-4.025
X0.975Y-4.125
X0.975Y-4.225
X0.975Y-4.325
X0.975Y-4.425
X0.9998Y-1.625
X1.075Y-2.325
X1.075Y-2.425
X1.075Y-2.525
X1.075Y-2.625
X1.075Y-2.725
X1.075Y-2.825
X1.075Y-2.925
X1.075Y-3.025
X1.075Y-3.125
X1.075Y-3.225
X1.075Y-3.325
X1.075Y-3.425
X1.075Y-3.525
X1.075Y-3.625
X1.075Y-3.725
X1.075Y-3.825
X1.075Y-3.925
X1.075Y-4.025
X1.075Y-4.125
X1.075Y-4.225
X1.075Y-4.325
X1.075Y-4.425
X1.15Y-1.625
X1.175Y-2.325
X1.175Y-2.425
X1.175Y-2.525
X1.175Y-2.625
X1.175Y-2.725
X1.175Y-2.825
X1.175Y-2.925
X1.175Y-3.025
X1.175Y-3.125
X1.175Y-3.225
X1.175Y-3.325
X1.175Y-3.425
X1.175Y-3.525
X1.175Y-3.625
X1.175Y-3.725
X1.175Y-3.825
X1.175Y-3.925
X1.175Y-4.025
X1.175Y-4.125
X1.175Y-4.225
X1.175Y-4.325
X1.175Y-4.425
X1.25Y-1.625
X1.275Y-2.325
X1.275Y-2.425
X1.275Y-2.525
X1.275Y-2.625
X1.275Y-2.725
X1.275Y-2.825
X1.275Y-2.925
X1.275Y-3.025
X1.275Y-3.125
X1.275Y-3.225
X1.275Y-3.325
X1.275Y-3.425
X1.275Y-3.525
X1.275Y-3.625
X1.275Y-3.725
X1.275Y-3.825
X1.275Y-3.925
X1.275Y-4.025
X1.275Y-4.125
X1.275Y-4.225
X1.275Y-4.325
X1.275Y-4.425
X1.375Y-3.025
X1.375Y-3.125
X1.375Y-3.225
X1.375Y-3.325
X1.375Y-3.425
X1.375Y-3.525
X1.375Y-3.625
X1.375Y-3.725
X1.375Y-3.825
X1.375Y-3.925
X1.375Y-4.025
X1.375Y-4.125
X1.375Y-4.225
X1.375Y-4.325
X1.375Y-4.425
X1.475Y-3.225
X1.475Y-3.325
X1.475Y-3.425
X1.475Y-3.525
X1.475Y-3.625
X1.475Y-3.725
X1.475Y-3.825
X1.475Y-3.925
X1.475Y-4.025
X1.475Y-4.125
X1.475Y-4.225
X1.475Y-4.325
X1.475Y-4.425
X1.5748Y-1.225
X1.575Y-3.325
X1.575Y-3.425
X1.575Y-3.525
X1.575Y-3.625
X1.575Y-3.725
X1.575Y-3.825
X1.575Y-3.925
X1.575Y-4.025
X1.575Y-4.125
X1.575Y-4.225
X1.575Y-4.325
X1.575Y-4.425
X1.6748Y-1.225
X1.675Y-3.425
X1.675Y-3.525
X1.675Y-3.625
X1.675Y-3.725
X1.675Y-3.825
X1.675Y-3.925
X1.675Y-4.025
X1.675Y-4.125
X1.675Y-4.225
X1.675Y-4.325
X1.675Y-4.425
X1.775Y-3.525
X1.775Y-3.625
X1.775Y-3.725
X1.775Y-3.825
X1.775Y-3.925
X1.775Y-4.025
X1.775Y-4.125
X1.775Y-4.225
X1.775Y-4.325
X1.775Y-4.425
X1.875Y-3.625
X1.875Y-3.725
X1.875Y-3.825
X1.875Y-3.925
X1.875Y-4.025
X1.875Y-4.125
X1.875Y-4.225
X1.875Y-4.325
X1.875Y-4.425
X1.975Y-3.625
X1.975Y-3.725
X1.975Y-3.825
X1.975Y-3.925
X1.975Y-4.025
X1.975Y-4.125
X1.975Y-4.225
X1.975Y-4.325
X1.975Y-4.425
X2.075Y-3.625
X2.075Y-3.725
X2.075Y-3.825
X2.075Y-3.925
X2.075Y-4.025
X2.075Y-4.125
X2.075Y-4.225
X2.075Y-4.325
X2.075Y-4.425
X2.15Y-1.3
X2.175Y-3.725
X2.175Y-3.825
X2.175Y-3.925
X2.175Y-4.025
X2.175Y-4.125
X2.175Y-4.225
X2.175Y-4.325
X2.175Y-4.425
X2.25Y-1.3
X2.275Y-3.825
X2.275Y-3.925
X2.275Y-4.025
X2.275Y-4.125
X2.275Y-4.225
X2.275Y-4.325
X2.275Y-4.425
X2.375Y-3.925
X2.375Y-4.025
X2.375Y-4.125
X2.375Y-4.225
X2.375Y-4.325
X2.375Y-4.425
X2.475Y-4.025
X2.475Y-4.125
X2.475Y-4.225
X2.475Y-4.325
X2.475Y-4.425
X2.575Y-4.125
X2.575Y-4.225
X2.575Y-4.325
X2.575Y-4.425
X2.675Y-4.225
X2.675Y-4.325
X2.675Y-4.425
X2.7Y-0.65
X2.7Y-0.75
X2.7256Y-4.0504
X2.775Y-4.325
X2.775Y-4.425
X2.8Y-0.65
X2.8Y-0.75
X2.8256Y-4.0504
X2.875Y-4.425
X2.9Y-0.65
X2.9Y-0.75
X3.0Y-0.65
X3.0Y-0.75
X3.1Y-0.65
X3.1Y-0.75
X3.7006Y-1.6504
X3.8006Y-1.6504
X4.425Y-0.775
X4.425Y-0.875
X4.425Y-0.975
X4.425Y-1.075
X4.425Y-1.175
X4.425Y-1.275
X4.425Y-1.375
X4.425Y-1.475
X4.425Y-1.575
X4.425Y-1.675
X4.425Y-1.775
X4.425Y-1.875
X4.425Y-1.975
X4.425Y-2.075
X4.425Y-2.175
X4.425Y-2.275
X4.425Y-2.375
X4.425Y-2.475
X4.425Y-2.575
X4.425Y-2.675
X4.425Y-2.775
X4.425Y-2.875
X4.425Y-2.975
X4.425Y-3.075
X4.425Y-3.175
X4.425Y-3.275
X4.425Y-3.375
X4.425Y-3.475
X4.425Y-3.575
X4.425Y-3.675
X4.425Y-3.775
X4.425Y-3.875
X4.425Y-3.975
X4.425Y-4.075
X4.425Y-4.175
X4.425Y-4.275
X4.525Y-0.775
X4.525Y-0.875
X4.525Y-0.975
X4.525Y-1.075
X4.525Y-1.175
X4.525Y-1.275
X4.525Y-1.375
X4.525Y-1.475
X4.525Y-1.575
X4.525Y-1.675
X4.525Y-1.775
X4.525Y-1.875
X4.525Y-1.975
X4.525Y-2.075
X4.525Y-2.175
X4.525Y-2.275
X4.525Y-2.375
X4.525Y-2.475
X4.525Y-2.575
X4.525Y-2.675
X4.525Y-2.775
X4.525Y-2.875
X4.525Y-2.975
X4.525Y-3.075
X4.525Y-3.175
X4.525Y-3.275
X4.525Y-3.375
X4.525Y-3.475
X4.525Y-3.575
X4.525Y-3.675
X4.525Y-3.775
X4.525Y-3.875
X4.525Y-3.975
X4.525Y-4.075
X4.525Y-4.175
X4.525Y-4.275
T7
X0.7638Y-0.9759
X1.2362Y-0.9759
T0
M30
