%TF.GenerationSoftware,KiCad,Pcbnew,(6.0.1)*%
%TF.CreationDate,2023-05-10T08:42:29+02:00*%
%TF.ProjectId,VT100_MCU,56543130-305f-44d4-9355-2e6b69636164,rev?*%
%TF.SameCoordinates,Original*%
%TF.FileFunction,Soldermask,Bot*%
%TF.FilePolarity,Negative*%
%FSLAX46Y46*%
G04 Gerber Fmt 4.6, Leading zero omitted, Abs format (unit mm)*
G04 Created by KiCad (PCBNEW (6.0.1)) date 2023-05-10 08:42:29*
%MOMM*%
%LPD*%
G01*
G04 APERTURE LIST*
%ADD10R,1.700000X1.700000*%
%ADD11O,1.700000X1.700000*%
%ADD12R,1.600000X1.600000*%
%ADD13O,1.600000X1.600000*%
%ADD14R,1.800000X1.800000*%
%ADD15C,1.800000*%
%ADD16C,1.600000*%
%ADD17C,1.400000*%
%ADD18O,1.400000X1.400000*%
%ADD19C,1.500000*%
%ADD20R,1.422400X1.422400*%
%ADD21C,1.422400*%
%ADD22C,4.000000*%
G04 APERTURE END LIST*
D10*
%TO.C,REF\u002A\u002A*%
X45085000Y-89535000D03*
D11*
X45085000Y-92075000D03*
X45085000Y-94615000D03*
X45085000Y-97155000D03*
X45085000Y-99695000D03*
X45085000Y-102235000D03*
X45085000Y-104775000D03*
X45085000Y-107315000D03*
X45085000Y-109855000D03*
X45085000Y-112395000D03*
%TD*%
D10*
%TO.C,REF\u002A\u002A*%
X73025000Y-112395000D03*
%TD*%
D12*
%TO.C,U2*%
X66695000Y-37480000D03*
D13*
X66695000Y-40020000D03*
X66695000Y-42560000D03*
X66695000Y-45100000D03*
X66695000Y-47640000D03*
X66695000Y-50180000D03*
X66695000Y-52720000D03*
X66695000Y-55260000D03*
X66695000Y-57800000D03*
X66695000Y-60340000D03*
X74315000Y-60340000D03*
X74315000Y-57800000D03*
X74315000Y-55260000D03*
X74315000Y-52720000D03*
X74315000Y-50180000D03*
X74315000Y-47640000D03*
X74315000Y-45100000D03*
X74315000Y-42560000D03*
X74315000Y-40020000D03*
X74315000Y-37480000D03*
%TD*%
D10*
%TO.C,C1*%
X31750000Y-41275000D03*
D11*
X29210000Y-41275000D03*
%TD*%
D14*
%TO.C,D1*%
X19050000Y-48895000D03*
D15*
X21590000Y-48895000D03*
%TD*%
D10*
%TO.C,REF\u002A\u002A*%
X19685000Y-59055000D03*
D11*
X19685000Y-61595000D03*
X19685000Y-64135000D03*
X19685000Y-66675000D03*
X19685000Y-69215000D03*
X19685000Y-71755000D03*
X19685000Y-74295000D03*
X19685000Y-76835000D03*
X19685000Y-79375000D03*
X19685000Y-81915000D03*
X19685000Y-84455000D03*
X19685000Y-86995000D03*
X19685000Y-89535000D03*
X19685000Y-92075000D03*
X19685000Y-94615000D03*
X19685000Y-97155000D03*
X19685000Y-99695000D03*
X19685000Y-102235000D03*
X19685000Y-104775000D03*
X19685000Y-107315000D03*
X19685000Y-109855000D03*
X19685000Y-112395000D03*
%TD*%
D12*
%TO.C,X1*%
X46990000Y-25400000D03*
D16*
X62230000Y-25400000D03*
X62230000Y-17780000D03*
X46990000Y-17780000D03*
%TD*%
D10*
%TO.C,REF\u002A\u002A*%
X32385000Y-59055000D03*
D11*
X32385000Y-61595000D03*
X32385000Y-64135000D03*
X32385000Y-66675000D03*
X32385000Y-69215000D03*
X32385000Y-71755000D03*
X32385000Y-74295000D03*
X32385000Y-76835000D03*
X32385000Y-79375000D03*
X32385000Y-81915000D03*
X32385000Y-84455000D03*
X32385000Y-86995000D03*
X32385000Y-89535000D03*
X32385000Y-92075000D03*
X32385000Y-94615000D03*
X32385000Y-97155000D03*
X32385000Y-99695000D03*
X32385000Y-102235000D03*
X32385000Y-104775000D03*
X32385000Y-107315000D03*
X32385000Y-109855000D03*
X32385000Y-112395000D03*
%TD*%
D10*
%TO.C,C6*%
X40000000Y-31115000D03*
D11*
X42540000Y-31115000D03*
%TD*%
D10*
%TO.C,REF\u002A\u002A*%
X47625000Y-92075000D03*
D11*
X47625000Y-94615000D03*
X47625000Y-97155000D03*
X47625000Y-99695000D03*
X47625000Y-102235000D03*
X47625000Y-104775000D03*
X47625000Y-107315000D03*
X47625000Y-109855000D03*
X47625000Y-112395000D03*
%TD*%
D10*
%TO.C,REF\u002A\u002A*%
X24765000Y-59055000D03*
D11*
X24765000Y-61595000D03*
X24765000Y-64135000D03*
X24765000Y-66675000D03*
X24765000Y-69215000D03*
X24765000Y-71755000D03*
X24765000Y-74295000D03*
X24765000Y-76835000D03*
X24765000Y-79375000D03*
X24765000Y-81915000D03*
X24765000Y-84455000D03*
X24765000Y-86995000D03*
X24765000Y-89535000D03*
X24765000Y-92075000D03*
X24765000Y-94615000D03*
X24765000Y-97155000D03*
X24765000Y-99695000D03*
X24765000Y-102235000D03*
X24765000Y-104775000D03*
X24765000Y-107315000D03*
X24765000Y-109855000D03*
X24765000Y-112395000D03*
%TD*%
D17*
%TO.C,R1*%
X42545000Y-25734900D03*
D18*
X42545000Y-23834900D03*
%TD*%
D12*
%TO.C,U8*%
X35580000Y-34940000D03*
D13*
X35580000Y-37480000D03*
X35580000Y-40020000D03*
X35580000Y-42560000D03*
X35580000Y-45100000D03*
X35580000Y-47640000D03*
X35580000Y-50180000D03*
X35580000Y-52720000D03*
X35580000Y-55260000D03*
X35580000Y-57800000D03*
X43200000Y-57800000D03*
X43200000Y-55260000D03*
X43200000Y-52720000D03*
X43200000Y-50180000D03*
X43200000Y-47640000D03*
X43200000Y-45100000D03*
X43200000Y-42560000D03*
X43200000Y-40020000D03*
X43200000Y-37480000D03*
X43200000Y-34940000D03*
%TD*%
D12*
%TO.C,C2*%
X37465000Y-26035000D03*
D16*
X37465000Y-23535000D03*
%TD*%
D17*
%TO.C,R2*%
X19415000Y-54610000D03*
D18*
X21315000Y-54610000D03*
%TD*%
D10*
%TO.C,C7*%
X71770000Y-102880000D03*
D11*
X69230000Y-102880000D03*
%TD*%
D10*
%TO.C,REF\u002A\u002A*%
X22225000Y-59055000D03*
D11*
X22225000Y-61595000D03*
X22225000Y-64135000D03*
X22225000Y-66675000D03*
X22225000Y-69215000D03*
X22225000Y-71755000D03*
X22225000Y-74295000D03*
X22225000Y-76835000D03*
X22225000Y-79375000D03*
X22225000Y-81915000D03*
X22225000Y-84455000D03*
X22225000Y-86995000D03*
X22225000Y-89535000D03*
X22225000Y-92075000D03*
X22225000Y-94615000D03*
X22225000Y-97155000D03*
X22225000Y-99695000D03*
X22225000Y-102235000D03*
X22225000Y-104775000D03*
X22225000Y-107315000D03*
X22225000Y-109855000D03*
X22225000Y-112395000D03*
%TD*%
D12*
%TO.C,U1*%
X48270000Y-37475000D03*
D13*
X48270000Y-40015000D03*
X48270000Y-42555000D03*
X48270000Y-45095000D03*
X48270000Y-47635000D03*
X48270000Y-50175000D03*
X48270000Y-52715000D03*
X48270000Y-55255000D03*
X48270000Y-57795000D03*
X48270000Y-60335000D03*
X48270000Y-62875000D03*
X48270000Y-65415000D03*
X48270000Y-67955000D03*
X48270000Y-70495000D03*
X48270000Y-73035000D03*
X48270000Y-75575000D03*
X48270000Y-78115000D03*
X48270000Y-80655000D03*
X48270000Y-83195000D03*
X48270000Y-85735000D03*
X63510000Y-85735000D03*
X63510000Y-83195000D03*
X63510000Y-80655000D03*
X63510000Y-78115000D03*
X63510000Y-75575000D03*
X63510000Y-73035000D03*
X63510000Y-70495000D03*
X63510000Y-67955000D03*
X63510000Y-65415000D03*
X63510000Y-62875000D03*
X63510000Y-60335000D03*
X63510000Y-57795000D03*
X63510000Y-55255000D03*
X63510000Y-52715000D03*
X63510000Y-50175000D03*
X63510000Y-47635000D03*
X63510000Y-45095000D03*
X63510000Y-42555000D03*
X63510000Y-40015000D03*
X63510000Y-37475000D03*
%TD*%
D10*
%TO.C,REF\u002A\u002A*%
X67945000Y-107315000D03*
D11*
X67945000Y-109855000D03*
X67945000Y-112395000D03*
%TD*%
D10*
%TO.C,REF\u002A\u002A*%
X29845000Y-59055000D03*
D11*
X29845000Y-61595000D03*
X29845000Y-64135000D03*
X29845000Y-66675000D03*
X29845000Y-69215000D03*
X29845000Y-71755000D03*
X29845000Y-74295000D03*
X29845000Y-76835000D03*
X29845000Y-79375000D03*
X29845000Y-81915000D03*
X29845000Y-84455000D03*
X29845000Y-86995000D03*
X29845000Y-89535000D03*
X29845000Y-92075000D03*
X29845000Y-94615000D03*
X29845000Y-97155000D03*
X29845000Y-99695000D03*
X29845000Y-102235000D03*
X29845000Y-104775000D03*
X29845000Y-107315000D03*
X29845000Y-109855000D03*
X29845000Y-112395000D03*
%TD*%
D10*
%TO.C,REF\u002A\u002A*%
X27305000Y-59055000D03*
D11*
X27305000Y-61595000D03*
X27305000Y-64135000D03*
X27305000Y-66675000D03*
X27305000Y-69215000D03*
X27305000Y-71755000D03*
X27305000Y-74295000D03*
X27305000Y-76835000D03*
X27305000Y-79375000D03*
X27305000Y-81915000D03*
X27305000Y-84455000D03*
X27305000Y-86995000D03*
X27305000Y-89535000D03*
X27305000Y-92075000D03*
X27305000Y-94615000D03*
X27305000Y-97155000D03*
X27305000Y-99695000D03*
X27305000Y-102235000D03*
X27305000Y-104775000D03*
X27305000Y-107315000D03*
X27305000Y-109855000D03*
X27305000Y-112395000D03*
%TD*%
D10*
%TO.C,J2*%
X78740000Y-16510000D03*
D11*
X78740000Y-19050000D03*
X76200000Y-16510000D03*
X76200000Y-19050000D03*
X73660000Y-16510000D03*
X73660000Y-19050000D03*
X71120000Y-16510000D03*
X71120000Y-19050000D03*
X68580000Y-16510000D03*
X68580000Y-19050000D03*
%TD*%
D19*
%TO.C,Crystal1*%
X29840000Y-35560000D03*
X24940000Y-35560000D03*
%TD*%
D10*
%TO.C,REF\u002A\u002A*%
X62865000Y-102235000D03*
D11*
X62865000Y-104775000D03*
X62865000Y-107315000D03*
X62865000Y-109855000D03*
X62865000Y-112395000D03*
%TD*%
D10*
%TO.C,REF\u002A\u002A*%
X65405000Y-104775000D03*
D11*
X65405000Y-107315000D03*
X65405000Y-109855000D03*
X65405000Y-112395000D03*
%TD*%
D10*
%TO.C,REF\u002A\u002A*%
X50165000Y-92075000D03*
D11*
X50165000Y-94615000D03*
X50165000Y-97155000D03*
X50165000Y-99695000D03*
X50165000Y-102235000D03*
X50165000Y-104775000D03*
X50165000Y-107315000D03*
X50165000Y-109855000D03*
X50165000Y-112395000D03*
%TD*%
D10*
%TO.C,C4*%
X96535000Y-41920000D03*
D11*
X93995000Y-41920000D03*
%TD*%
D10*
%TO.C,REF\u002A\u002A*%
X70485000Y-109855000D03*
D11*
X70485000Y-112395000D03*
%TD*%
D10*
%TO.C,C5*%
X54610000Y-33020000D03*
D11*
X57150000Y-33020000D03*
%TD*%
D12*
%TO.C,U5*%
X90795000Y-90165000D03*
D13*
X90795000Y-87625000D03*
X90795000Y-85085000D03*
X90795000Y-82545000D03*
X90795000Y-80005000D03*
X90795000Y-77465000D03*
X90795000Y-74925000D03*
X90795000Y-72385000D03*
X90795000Y-69845000D03*
X90795000Y-67305000D03*
X83175000Y-67305000D03*
X83175000Y-69845000D03*
X83175000Y-72385000D03*
X83175000Y-74925000D03*
X83175000Y-77465000D03*
X83175000Y-80005000D03*
X83175000Y-82545000D03*
X83175000Y-85085000D03*
X83175000Y-87625000D03*
X83175000Y-90165000D03*
%TD*%
D10*
%TO.C,REF\u002A\u002A*%
X60325000Y-99695000D03*
D11*
X60325000Y-102235000D03*
X60325000Y-104775000D03*
X60325000Y-107315000D03*
X60325000Y-109855000D03*
X60325000Y-112395000D03*
%TD*%
D10*
%TO.C,REF\u002A\u002A*%
X57785000Y-97155000D03*
D11*
X57785000Y-99695000D03*
X57785000Y-102235000D03*
X57785000Y-104775000D03*
X57785000Y-107315000D03*
X57785000Y-109855000D03*
X57785000Y-112395000D03*
%TD*%
D20*
%TO.C,U3*%
X92710000Y-33655000D03*
D21*
X95250000Y-36195000D03*
X95250000Y-33655000D03*
X97790000Y-36195000D03*
X97790000Y-33655000D03*
X100330000Y-36195000D03*
X102870000Y-33655000D03*
X100330000Y-33655000D03*
X102870000Y-31115000D03*
X100330000Y-31115000D03*
X102870000Y-28575000D03*
X100330000Y-28575000D03*
X102870000Y-26035000D03*
X100330000Y-26035000D03*
X102870000Y-23495000D03*
X100330000Y-23495000D03*
X102870000Y-20955000D03*
X100330000Y-18415000D03*
X100330000Y-20955000D03*
X97790000Y-18415000D03*
X97790000Y-20955000D03*
X95250000Y-18415000D03*
X95250000Y-20955000D03*
X92710000Y-18415000D03*
X92710000Y-20955000D03*
X90170000Y-18415000D03*
X90170000Y-20955000D03*
X87630000Y-18415000D03*
X85090000Y-20955000D03*
X87630000Y-20955000D03*
X85090000Y-23495000D03*
X87630000Y-23495000D03*
X85090000Y-26035000D03*
X87630000Y-26035000D03*
X85090000Y-28575000D03*
X87630000Y-28575000D03*
X85090000Y-31115000D03*
X87630000Y-31115000D03*
X85090000Y-33655000D03*
X87630000Y-36195000D03*
X87630000Y-33655000D03*
X90170000Y-36195000D03*
X90170000Y-33655000D03*
X92710000Y-36195000D03*
%TD*%
D10*
%TO.C,REF\u002A\u002A*%
X42545000Y-86995000D03*
D11*
X42545000Y-89535000D03*
X42545000Y-92075000D03*
X42545000Y-94615000D03*
X42545000Y-97155000D03*
X42545000Y-99695000D03*
X42545000Y-102235000D03*
X42545000Y-104775000D03*
X42545000Y-107315000D03*
X42545000Y-109855000D03*
X42545000Y-112395000D03*
%TD*%
D12*
%TO.C,U7*%
X97155000Y-88265000D03*
D13*
X97155000Y-90805000D03*
X97155000Y-93345000D03*
X97155000Y-95885000D03*
X97155000Y-98425000D03*
X97155000Y-100965000D03*
X97155000Y-103505000D03*
X97155000Y-106045000D03*
X97155000Y-108585000D03*
X97155000Y-111125000D03*
X104775000Y-111125000D03*
X104775000Y-108585000D03*
X104775000Y-106045000D03*
X104775000Y-103505000D03*
X104775000Y-100965000D03*
X104775000Y-98425000D03*
X104775000Y-95885000D03*
X104775000Y-93345000D03*
X104775000Y-90805000D03*
X104775000Y-88265000D03*
%TD*%
D10*
%TO.C,REF\u002A\u002A*%
X40005000Y-84455000D03*
D11*
X40005000Y-86995000D03*
X40005000Y-89535000D03*
X40005000Y-92075000D03*
X40005000Y-94615000D03*
X40005000Y-97155000D03*
X40005000Y-99695000D03*
X40005000Y-102235000D03*
X40005000Y-104775000D03*
X40005000Y-107315000D03*
X40005000Y-109855000D03*
X40005000Y-112395000D03*
%TD*%
D12*
%TO.C,U4*%
X66685000Y-65415000D03*
D13*
X66685000Y-67955000D03*
X66685000Y-70495000D03*
X66685000Y-73035000D03*
X66685000Y-75575000D03*
X66685000Y-78115000D03*
X66685000Y-80655000D03*
X66685000Y-83195000D03*
X66685000Y-85735000D03*
X66685000Y-88275000D03*
X66685000Y-90815000D03*
X66685000Y-93355000D03*
X66685000Y-95895000D03*
X66685000Y-98435000D03*
X74305000Y-98435000D03*
X74305000Y-95895000D03*
X74305000Y-93355000D03*
X74305000Y-90815000D03*
X74305000Y-88275000D03*
X74305000Y-85735000D03*
X74305000Y-83195000D03*
X74305000Y-80655000D03*
X74305000Y-78115000D03*
X74305000Y-75575000D03*
X74305000Y-73035000D03*
X74305000Y-70495000D03*
X74305000Y-67955000D03*
X74305000Y-65415000D03*
%TD*%
D16*
%TO.C,SW1*%
X36235000Y-17780000D03*
X41235000Y-17780000D03*
%TD*%
D12*
%TO.C,U6*%
X104765000Y-70485000D03*
D13*
X104765000Y-67945000D03*
X104765000Y-65405000D03*
X104765000Y-62865000D03*
X104765000Y-60325000D03*
X104765000Y-57785000D03*
X104765000Y-55245000D03*
X104765000Y-52705000D03*
X104765000Y-50165000D03*
X104765000Y-47625000D03*
X97145000Y-47625000D03*
X97145000Y-50165000D03*
X97145000Y-52705000D03*
X97145000Y-55245000D03*
X97145000Y-57785000D03*
X97145000Y-60325000D03*
X97145000Y-62865000D03*
X97145000Y-65405000D03*
X97145000Y-67945000D03*
X97145000Y-70485000D03*
%TD*%
D10*
%TO.C,J3*%
X19050000Y-34300000D03*
D11*
X19050000Y-36840000D03*
X19050000Y-39380000D03*
X19050000Y-41920000D03*
%TD*%
D10*
%TO.C,REF\u002A\u002A*%
X55245000Y-94615000D03*
D11*
X55245000Y-97155000D03*
X55245000Y-99695000D03*
X55245000Y-102235000D03*
X55245000Y-104775000D03*
X55245000Y-107315000D03*
X55245000Y-109855000D03*
X55245000Y-112395000D03*
%TD*%
D10*
%TO.C,C3*%
X22855000Y-41275000D03*
D11*
X25395000Y-41275000D03*
%TD*%
D10*
%TO.C,REF\u002A\u002A*%
X52705000Y-92075000D03*
D11*
X52705000Y-94615000D03*
X52705000Y-97155000D03*
X52705000Y-99695000D03*
X52705000Y-102235000D03*
X52705000Y-104775000D03*
X52705000Y-107315000D03*
X52705000Y-109855000D03*
X52705000Y-112395000D03*
%TD*%
D10*
%TO.C,J4*%
X112395000Y-108585000D03*
D11*
X114935000Y-108585000D03*
X112395000Y-106045000D03*
X114935000Y-106045000D03*
X112395000Y-103505000D03*
X114935000Y-103505000D03*
X112395000Y-100965000D03*
X114935000Y-100965000D03*
X112395000Y-98425000D03*
X114935000Y-98425000D03*
X112395000Y-95885000D03*
X114935000Y-95885000D03*
X112395000Y-93345000D03*
X114935000Y-93345000D03*
X112395000Y-90805000D03*
X114935000Y-90805000D03*
X112395000Y-88265000D03*
X114935000Y-88265000D03*
X112395000Y-85725000D03*
X114935000Y-85725000D03*
X112395000Y-83185000D03*
X114935000Y-83185000D03*
X112395000Y-80645000D03*
X114935000Y-80645000D03*
X112395000Y-78105000D03*
X114935000Y-78105000D03*
X112395000Y-75565000D03*
X114935000Y-75565000D03*
X112395000Y-73025000D03*
X114935000Y-73025000D03*
X112395000Y-70485000D03*
X114935000Y-70485000D03*
X112395000Y-67945000D03*
X114935000Y-67945000D03*
X112395000Y-65405000D03*
X114935000Y-65405000D03*
X112395000Y-62865000D03*
X114935000Y-62865000D03*
X112395000Y-60325000D03*
X114935000Y-60325000D03*
X112395000Y-57785000D03*
X114935000Y-57785000D03*
X112395000Y-55245000D03*
X114935000Y-55245000D03*
X112395000Y-52705000D03*
X114935000Y-52705000D03*
X112395000Y-50165000D03*
X114935000Y-50165000D03*
X112395000Y-47625000D03*
X114935000Y-47625000D03*
X112395000Y-45085000D03*
X114935000Y-45085000D03*
X112395000Y-42545000D03*
X114935000Y-42545000D03*
X112395000Y-40005000D03*
X114935000Y-40005000D03*
X112395000Y-37465000D03*
X114935000Y-37465000D03*
X112395000Y-34925000D03*
X114935000Y-34925000D03*
X112395000Y-32385000D03*
X114935000Y-32385000D03*
X112395000Y-29845000D03*
X114935000Y-29845000D03*
X112395000Y-27305000D03*
X114935000Y-27305000D03*
X112395000Y-24765000D03*
X114935000Y-24765000D03*
X112395000Y-22225000D03*
X114935000Y-22225000D03*
X112395000Y-19685000D03*
X114935000Y-19685000D03*
%TD*%
D10*
%TO.C,REF\u002A\u002A*%
X34925000Y-76835000D03*
D11*
X34925000Y-79375000D03*
X34925000Y-81915000D03*
X34925000Y-84455000D03*
X34925000Y-86995000D03*
X34925000Y-89535000D03*
X34925000Y-92075000D03*
X34925000Y-94615000D03*
X34925000Y-97155000D03*
X34925000Y-99695000D03*
X34925000Y-102235000D03*
X34925000Y-104775000D03*
X34925000Y-107315000D03*
X34925000Y-109855000D03*
X34925000Y-112395000D03*
%TD*%
D10*
%TO.C,REF\u002A\u002A*%
X37465000Y-81915000D03*
D11*
X37465000Y-84455000D03*
X37465000Y-86995000D03*
X37465000Y-89535000D03*
X37465000Y-92075000D03*
X37465000Y-94615000D03*
X37465000Y-97155000D03*
X37465000Y-99695000D03*
X37465000Y-102235000D03*
X37465000Y-104775000D03*
X37465000Y-107315000D03*
X37465000Y-109855000D03*
X37465000Y-112395000D03*
%TD*%
D12*
%TO.C,J1*%
X24150000Y-29647500D03*
D16*
X26650000Y-29647500D03*
X26650000Y-27647500D03*
X24150000Y-27647500D03*
D22*
X19400000Y-24787500D03*
X31400000Y-24787500D03*
%TD*%
M02*
