%TF.GenerationSoftware,KiCad,Pcbnew,(6.0.1)*%
%TF.CreationDate,2023-05-10T08:42:28+02:00*%
%TF.ProjectId,VT100_MCU,56543130-305f-44d4-9355-2e6b69636164,rev?*%
%TF.SameCoordinates,Original*%
%TF.FileFunction,Legend,Top*%
%TF.FilePolarity,Positive*%
%FSLAX46Y46*%
G04 Gerber Fmt 4.6, Leading zero omitted, Abs format (unit mm)*
G04 Created by KiCad (PCBNEW (6.0.1)) date 2023-05-10 08:42:28*
%MOMM*%
%LPD*%
G01*
G04 APERTURE LIST*
%ADD10C,0.150000*%
%ADD11C,0.120000*%
G04 APERTURE END LIST*
D10*
%TO.C,REF\u002A\u002A*%
X43751666Y-87657380D02*
X43418333Y-87181190D01*
X43180238Y-87657380D02*
X43180238Y-86657380D01*
X43561190Y-86657380D01*
X43656428Y-86705000D01*
X43704047Y-86752619D01*
X43751666Y-86847857D01*
X43751666Y-86990714D01*
X43704047Y-87085952D01*
X43656428Y-87133571D01*
X43561190Y-87181190D01*
X43180238Y-87181190D01*
X44180238Y-87133571D02*
X44513571Y-87133571D01*
X44656428Y-87657380D02*
X44180238Y-87657380D01*
X44180238Y-86657380D01*
X44656428Y-86657380D01*
X45418333Y-87133571D02*
X45085000Y-87133571D01*
X45085000Y-87657380D02*
X45085000Y-86657380D01*
X45561190Y-86657380D01*
X46085000Y-86657380D02*
X46085000Y-86895476D01*
X45846904Y-86800238D02*
X46085000Y-86895476D01*
X46323095Y-86800238D01*
X45942142Y-87085952D02*
X46085000Y-86895476D01*
X46227857Y-87085952D01*
X46846904Y-86657380D02*
X46846904Y-86895476D01*
X46608809Y-86800238D02*
X46846904Y-86895476D01*
X47085000Y-86800238D01*
X46704047Y-87085952D02*
X46846904Y-86895476D01*
X46989761Y-87085952D01*
X71691666Y-110517380D02*
X71358333Y-110041190D01*
X71120238Y-110517380D02*
X71120238Y-109517380D01*
X71501190Y-109517380D01*
X71596428Y-109565000D01*
X71644047Y-109612619D01*
X71691666Y-109707857D01*
X71691666Y-109850714D01*
X71644047Y-109945952D01*
X71596428Y-109993571D01*
X71501190Y-110041190D01*
X71120238Y-110041190D01*
X72120238Y-109993571D02*
X72453571Y-109993571D01*
X72596428Y-110517380D02*
X72120238Y-110517380D01*
X72120238Y-109517380D01*
X72596428Y-109517380D01*
X73358333Y-109993571D02*
X73025000Y-109993571D01*
X73025000Y-110517380D02*
X73025000Y-109517380D01*
X73501190Y-109517380D01*
X74025000Y-109517380D02*
X74025000Y-109755476D01*
X73786904Y-109660238D02*
X74025000Y-109755476D01*
X74263095Y-109660238D01*
X73882142Y-109945952D02*
X74025000Y-109755476D01*
X74167857Y-109945952D01*
X74786904Y-109517380D02*
X74786904Y-109755476D01*
X74548809Y-109660238D02*
X74786904Y-109755476D01*
X75025000Y-109660238D01*
X74644047Y-109945952D02*
X74786904Y-109755476D01*
X74929761Y-109945952D01*
%TO.C,U2*%
X69743095Y-34602380D02*
X69743095Y-35411904D01*
X69790714Y-35507142D01*
X69838333Y-35554761D01*
X69933571Y-35602380D01*
X70124047Y-35602380D01*
X70219285Y-35554761D01*
X70266904Y-35507142D01*
X70314523Y-35411904D01*
X70314523Y-34602380D01*
X70743095Y-34697619D02*
X70790714Y-34650000D01*
X70885952Y-34602380D01*
X71124047Y-34602380D01*
X71219285Y-34650000D01*
X71266904Y-34697619D01*
X71314523Y-34792857D01*
X71314523Y-34888095D01*
X71266904Y-35030952D01*
X70695476Y-35602380D01*
X71314523Y-35602380D01*
%TO.C,C1*%
X34437142Y-41441666D02*
X34484761Y-41489285D01*
X34532380Y-41632142D01*
X34532380Y-41727380D01*
X34484761Y-41870238D01*
X34389523Y-41965476D01*
X34294285Y-42013095D01*
X34103809Y-42060714D01*
X33960952Y-42060714D01*
X33770476Y-42013095D01*
X33675238Y-41965476D01*
X33580000Y-41870238D01*
X33532380Y-41727380D01*
X33532380Y-41632142D01*
X33580000Y-41489285D01*
X33627619Y-41441666D01*
X34532380Y-40489285D02*
X34532380Y-41060714D01*
X34532380Y-40775000D02*
X33532380Y-40775000D01*
X33675238Y-40870238D01*
X33770476Y-40965476D01*
X33818095Y-41060714D01*
%TO.C,D1*%
X19581904Y-45387380D02*
X19581904Y-44387380D01*
X19820000Y-44387380D01*
X19962857Y-44435000D01*
X20058095Y-44530238D01*
X20105714Y-44625476D01*
X20153333Y-44815952D01*
X20153333Y-44958809D01*
X20105714Y-45149285D01*
X20058095Y-45244523D01*
X19962857Y-45339761D01*
X19820000Y-45387380D01*
X19581904Y-45387380D01*
X21105714Y-45387380D02*
X20534285Y-45387380D01*
X20820000Y-45387380D02*
X20820000Y-44387380D01*
X20724761Y-44530238D01*
X20629523Y-44625476D01*
X20534285Y-44673095D01*
%TO.C,REF\u002A\u002A*%
X18351666Y-57177380D02*
X18018333Y-56701190D01*
X17780238Y-57177380D02*
X17780238Y-56177380D01*
X18161190Y-56177380D01*
X18256428Y-56225000D01*
X18304047Y-56272619D01*
X18351666Y-56367857D01*
X18351666Y-56510714D01*
X18304047Y-56605952D01*
X18256428Y-56653571D01*
X18161190Y-56701190D01*
X17780238Y-56701190D01*
X18780238Y-56653571D02*
X19113571Y-56653571D01*
X19256428Y-57177380D02*
X18780238Y-57177380D01*
X18780238Y-56177380D01*
X19256428Y-56177380D01*
X20018333Y-56653571D02*
X19685000Y-56653571D01*
X19685000Y-57177380D02*
X19685000Y-56177380D01*
X20161190Y-56177380D01*
X20685000Y-56177380D02*
X20685000Y-56415476D01*
X20446904Y-56320238D02*
X20685000Y-56415476D01*
X20923095Y-56320238D01*
X20542142Y-56605952D02*
X20685000Y-56415476D01*
X20827857Y-56605952D01*
X21446904Y-56177380D02*
X21446904Y-56415476D01*
X21208809Y-56320238D02*
X21446904Y-56415476D01*
X21685000Y-56320238D01*
X21304047Y-56605952D02*
X21446904Y-56415476D01*
X21589761Y-56605952D01*
%TO.C,X1*%
X58880476Y-13592380D02*
X59547142Y-14592380D01*
X59547142Y-13592380D02*
X58880476Y-14592380D01*
X60451904Y-14592380D02*
X59880476Y-14592380D01*
X60166190Y-14592380D02*
X60166190Y-13592380D01*
X60070952Y-13735238D01*
X59975714Y-13830476D01*
X59880476Y-13878095D01*
%TO.C,REF\u002A\u002A*%
X31051666Y-57177380D02*
X30718333Y-56701190D01*
X30480238Y-57177380D02*
X30480238Y-56177380D01*
X30861190Y-56177380D01*
X30956428Y-56225000D01*
X31004047Y-56272619D01*
X31051666Y-56367857D01*
X31051666Y-56510714D01*
X31004047Y-56605952D01*
X30956428Y-56653571D01*
X30861190Y-56701190D01*
X30480238Y-56701190D01*
X31480238Y-56653571D02*
X31813571Y-56653571D01*
X31956428Y-57177380D02*
X31480238Y-57177380D01*
X31480238Y-56177380D01*
X31956428Y-56177380D01*
X32718333Y-56653571D02*
X32385000Y-56653571D01*
X32385000Y-57177380D02*
X32385000Y-56177380D01*
X32861190Y-56177380D01*
X33385000Y-56177380D02*
X33385000Y-56415476D01*
X33146904Y-56320238D02*
X33385000Y-56415476D01*
X33623095Y-56320238D01*
X33242142Y-56605952D02*
X33385000Y-56415476D01*
X33527857Y-56605952D01*
X34146904Y-56177380D02*
X34146904Y-56415476D01*
X33908809Y-56320238D02*
X34146904Y-56415476D01*
X34385000Y-56320238D01*
X34004047Y-56605952D02*
X34146904Y-56415476D01*
X34289761Y-56605952D01*
%TO.C,C6*%
X38027142Y-31281666D02*
X38074761Y-31329285D01*
X38122380Y-31472142D01*
X38122380Y-31567380D01*
X38074761Y-31710238D01*
X37979523Y-31805476D01*
X37884285Y-31853095D01*
X37693809Y-31900714D01*
X37550952Y-31900714D01*
X37360476Y-31853095D01*
X37265238Y-31805476D01*
X37170000Y-31710238D01*
X37122380Y-31567380D01*
X37122380Y-31472142D01*
X37170000Y-31329285D01*
X37217619Y-31281666D01*
X37122380Y-30424523D02*
X37122380Y-30615000D01*
X37170000Y-30710238D01*
X37217619Y-30757857D01*
X37360476Y-30853095D01*
X37550952Y-30900714D01*
X37931904Y-30900714D01*
X38027142Y-30853095D01*
X38074761Y-30805476D01*
X38122380Y-30710238D01*
X38122380Y-30519761D01*
X38074761Y-30424523D01*
X38027142Y-30376904D01*
X37931904Y-30329285D01*
X37693809Y-30329285D01*
X37598571Y-30376904D01*
X37550952Y-30424523D01*
X37503333Y-30519761D01*
X37503333Y-30710238D01*
X37550952Y-30805476D01*
X37598571Y-30853095D01*
X37693809Y-30900714D01*
%TO.C,REF\u002A\u002A*%
X46291666Y-90197380D02*
X45958333Y-89721190D01*
X45720238Y-90197380D02*
X45720238Y-89197380D01*
X46101190Y-89197380D01*
X46196428Y-89245000D01*
X46244047Y-89292619D01*
X46291666Y-89387857D01*
X46291666Y-89530714D01*
X46244047Y-89625952D01*
X46196428Y-89673571D01*
X46101190Y-89721190D01*
X45720238Y-89721190D01*
X46720238Y-89673571D02*
X47053571Y-89673571D01*
X47196428Y-90197380D02*
X46720238Y-90197380D01*
X46720238Y-89197380D01*
X47196428Y-89197380D01*
X47958333Y-89673571D02*
X47625000Y-89673571D01*
X47625000Y-90197380D02*
X47625000Y-89197380D01*
X48101190Y-89197380D01*
X48625000Y-89197380D02*
X48625000Y-89435476D01*
X48386904Y-89340238D02*
X48625000Y-89435476D01*
X48863095Y-89340238D01*
X48482142Y-89625952D02*
X48625000Y-89435476D01*
X48767857Y-89625952D01*
X49386904Y-89197380D02*
X49386904Y-89435476D01*
X49148809Y-89340238D02*
X49386904Y-89435476D01*
X49625000Y-89340238D01*
X49244047Y-89625952D02*
X49386904Y-89435476D01*
X49529761Y-89625952D01*
X23431666Y-57177380D02*
X23098333Y-56701190D01*
X22860238Y-57177380D02*
X22860238Y-56177380D01*
X23241190Y-56177380D01*
X23336428Y-56225000D01*
X23384047Y-56272619D01*
X23431666Y-56367857D01*
X23431666Y-56510714D01*
X23384047Y-56605952D01*
X23336428Y-56653571D01*
X23241190Y-56701190D01*
X22860238Y-56701190D01*
X23860238Y-56653571D02*
X24193571Y-56653571D01*
X24336428Y-57177380D02*
X23860238Y-57177380D01*
X23860238Y-56177380D01*
X24336428Y-56177380D01*
X25098333Y-56653571D02*
X24765000Y-56653571D01*
X24765000Y-57177380D02*
X24765000Y-56177380D01*
X25241190Y-56177380D01*
X25765000Y-56177380D02*
X25765000Y-56415476D01*
X25526904Y-56320238D02*
X25765000Y-56415476D01*
X26003095Y-56320238D01*
X25622142Y-56605952D02*
X25765000Y-56415476D01*
X25907857Y-56605952D01*
X26526904Y-56177380D02*
X26526904Y-56415476D01*
X26288809Y-56320238D02*
X26526904Y-56415476D01*
X26765000Y-56320238D01*
X26384047Y-56605952D02*
X26526904Y-56415476D01*
X26669761Y-56605952D01*
%TO.C,R1*%
X41077380Y-24951566D02*
X40601190Y-25284900D01*
X41077380Y-25522995D02*
X40077380Y-25522995D01*
X40077380Y-25142042D01*
X40125000Y-25046804D01*
X40172619Y-24999185D01*
X40267857Y-24951566D01*
X40410714Y-24951566D01*
X40505952Y-24999185D01*
X40553571Y-25046804D01*
X40601190Y-25142042D01*
X40601190Y-25522995D01*
X41077380Y-23999185D02*
X41077380Y-24570614D01*
X41077380Y-24284900D02*
X40077380Y-24284900D01*
X40220238Y-24380138D01*
X40315476Y-24475376D01*
X40363095Y-24570614D01*
%TO.C,U8*%
X38628095Y-32062380D02*
X38628095Y-32871904D01*
X38675714Y-32967142D01*
X38723333Y-33014761D01*
X38818571Y-33062380D01*
X39009047Y-33062380D01*
X39104285Y-33014761D01*
X39151904Y-32967142D01*
X39199523Y-32871904D01*
X39199523Y-32062380D01*
X39818571Y-32490952D02*
X39723333Y-32443333D01*
X39675714Y-32395714D01*
X39628095Y-32300476D01*
X39628095Y-32252857D01*
X39675714Y-32157619D01*
X39723333Y-32110000D01*
X39818571Y-32062380D01*
X40009047Y-32062380D01*
X40104285Y-32110000D01*
X40151904Y-32157619D01*
X40199523Y-32252857D01*
X40199523Y-32300476D01*
X40151904Y-32395714D01*
X40104285Y-32443333D01*
X40009047Y-32490952D01*
X39818571Y-32490952D01*
X39723333Y-32538571D01*
X39675714Y-32586190D01*
X39628095Y-32681428D01*
X39628095Y-32871904D01*
X39675714Y-32967142D01*
X39723333Y-33014761D01*
X39818571Y-33062380D01*
X40009047Y-33062380D01*
X40104285Y-33014761D01*
X40151904Y-32967142D01*
X40199523Y-32871904D01*
X40199523Y-32681428D01*
X40151904Y-32586190D01*
X40104285Y-32538571D01*
X40009047Y-32490952D01*
%TO.C,C2*%
X39152142Y-24951666D02*
X39199761Y-24999285D01*
X39247380Y-25142142D01*
X39247380Y-25237380D01*
X39199761Y-25380238D01*
X39104523Y-25475476D01*
X39009285Y-25523095D01*
X38818809Y-25570714D01*
X38675952Y-25570714D01*
X38485476Y-25523095D01*
X38390238Y-25475476D01*
X38295000Y-25380238D01*
X38247380Y-25237380D01*
X38247380Y-25142142D01*
X38295000Y-24999285D01*
X38342619Y-24951666D01*
X38342619Y-24570714D02*
X38295000Y-24523095D01*
X38247380Y-24427857D01*
X38247380Y-24189761D01*
X38295000Y-24094523D01*
X38342619Y-24046904D01*
X38437857Y-23999285D01*
X38533095Y-23999285D01*
X38675952Y-24046904D01*
X39247380Y-24618333D01*
X39247380Y-23999285D01*
%TO.C,R2*%
X20198333Y-53142380D02*
X19865000Y-52666190D01*
X19626904Y-53142380D02*
X19626904Y-52142380D01*
X20007857Y-52142380D01*
X20103095Y-52190000D01*
X20150714Y-52237619D01*
X20198333Y-52332857D01*
X20198333Y-52475714D01*
X20150714Y-52570952D01*
X20103095Y-52618571D01*
X20007857Y-52666190D01*
X19626904Y-52666190D01*
X20579285Y-52237619D02*
X20626904Y-52190000D01*
X20722142Y-52142380D01*
X20960238Y-52142380D01*
X21055476Y-52190000D01*
X21103095Y-52237619D01*
X21150714Y-52332857D01*
X21150714Y-52428095D01*
X21103095Y-52570952D01*
X20531666Y-53142380D01*
X21150714Y-53142380D01*
%TO.C,C7*%
X74457142Y-103046666D02*
X74504761Y-103094285D01*
X74552380Y-103237142D01*
X74552380Y-103332380D01*
X74504761Y-103475238D01*
X74409523Y-103570476D01*
X74314285Y-103618095D01*
X74123809Y-103665714D01*
X73980952Y-103665714D01*
X73790476Y-103618095D01*
X73695238Y-103570476D01*
X73600000Y-103475238D01*
X73552380Y-103332380D01*
X73552380Y-103237142D01*
X73600000Y-103094285D01*
X73647619Y-103046666D01*
X73552380Y-102713333D02*
X73552380Y-102046666D01*
X74552380Y-102475238D01*
%TO.C,REF\u002A\u002A*%
X20891666Y-57177380D02*
X20558333Y-56701190D01*
X20320238Y-57177380D02*
X20320238Y-56177380D01*
X20701190Y-56177380D01*
X20796428Y-56225000D01*
X20844047Y-56272619D01*
X20891666Y-56367857D01*
X20891666Y-56510714D01*
X20844047Y-56605952D01*
X20796428Y-56653571D01*
X20701190Y-56701190D01*
X20320238Y-56701190D01*
X21320238Y-56653571D02*
X21653571Y-56653571D01*
X21796428Y-57177380D02*
X21320238Y-57177380D01*
X21320238Y-56177380D01*
X21796428Y-56177380D01*
X22558333Y-56653571D02*
X22225000Y-56653571D01*
X22225000Y-57177380D02*
X22225000Y-56177380D01*
X22701190Y-56177380D01*
X23225000Y-56177380D02*
X23225000Y-56415476D01*
X22986904Y-56320238D02*
X23225000Y-56415476D01*
X23463095Y-56320238D01*
X23082142Y-56605952D02*
X23225000Y-56415476D01*
X23367857Y-56605952D01*
X23986904Y-56177380D02*
X23986904Y-56415476D01*
X23748809Y-56320238D02*
X23986904Y-56415476D01*
X24225000Y-56320238D01*
X23844047Y-56605952D02*
X23986904Y-56415476D01*
X24129761Y-56605952D01*
%TO.C,U1*%
X55128095Y-34597380D02*
X55128095Y-35406904D01*
X55175714Y-35502142D01*
X55223333Y-35549761D01*
X55318571Y-35597380D01*
X55509047Y-35597380D01*
X55604285Y-35549761D01*
X55651904Y-35502142D01*
X55699523Y-35406904D01*
X55699523Y-34597380D01*
X56699523Y-35597380D02*
X56128095Y-35597380D01*
X56413809Y-35597380D02*
X56413809Y-34597380D01*
X56318571Y-34740238D01*
X56223333Y-34835476D01*
X56128095Y-34883095D01*
%TO.C,REF\u002A\u002A*%
X66611666Y-105437380D02*
X66278333Y-104961190D01*
X66040238Y-105437380D02*
X66040238Y-104437380D01*
X66421190Y-104437380D01*
X66516428Y-104485000D01*
X66564047Y-104532619D01*
X66611666Y-104627857D01*
X66611666Y-104770714D01*
X66564047Y-104865952D01*
X66516428Y-104913571D01*
X66421190Y-104961190D01*
X66040238Y-104961190D01*
X67040238Y-104913571D02*
X67373571Y-104913571D01*
X67516428Y-105437380D02*
X67040238Y-105437380D01*
X67040238Y-104437380D01*
X67516428Y-104437380D01*
X68278333Y-104913571D02*
X67945000Y-104913571D01*
X67945000Y-105437380D02*
X67945000Y-104437380D01*
X68421190Y-104437380D01*
X68945000Y-104437380D02*
X68945000Y-104675476D01*
X68706904Y-104580238D02*
X68945000Y-104675476D01*
X69183095Y-104580238D01*
X68802142Y-104865952D02*
X68945000Y-104675476D01*
X69087857Y-104865952D01*
X69706904Y-104437380D02*
X69706904Y-104675476D01*
X69468809Y-104580238D02*
X69706904Y-104675476D01*
X69945000Y-104580238D01*
X69564047Y-104865952D02*
X69706904Y-104675476D01*
X69849761Y-104865952D01*
X28511666Y-57177380D02*
X28178333Y-56701190D01*
X27940238Y-57177380D02*
X27940238Y-56177380D01*
X28321190Y-56177380D01*
X28416428Y-56225000D01*
X28464047Y-56272619D01*
X28511666Y-56367857D01*
X28511666Y-56510714D01*
X28464047Y-56605952D01*
X28416428Y-56653571D01*
X28321190Y-56701190D01*
X27940238Y-56701190D01*
X28940238Y-56653571D02*
X29273571Y-56653571D01*
X29416428Y-57177380D02*
X28940238Y-57177380D01*
X28940238Y-56177380D01*
X29416428Y-56177380D01*
X30178333Y-56653571D02*
X29845000Y-56653571D01*
X29845000Y-57177380D02*
X29845000Y-56177380D01*
X30321190Y-56177380D01*
X30845000Y-56177380D02*
X30845000Y-56415476D01*
X30606904Y-56320238D02*
X30845000Y-56415476D01*
X31083095Y-56320238D01*
X30702142Y-56605952D02*
X30845000Y-56415476D01*
X30987857Y-56605952D01*
X31606904Y-56177380D02*
X31606904Y-56415476D01*
X31368809Y-56320238D02*
X31606904Y-56415476D01*
X31845000Y-56320238D01*
X31464047Y-56605952D02*
X31606904Y-56415476D01*
X31749761Y-56605952D01*
X25971666Y-57177380D02*
X25638333Y-56701190D01*
X25400238Y-57177380D02*
X25400238Y-56177380D01*
X25781190Y-56177380D01*
X25876428Y-56225000D01*
X25924047Y-56272619D01*
X25971666Y-56367857D01*
X25971666Y-56510714D01*
X25924047Y-56605952D01*
X25876428Y-56653571D01*
X25781190Y-56701190D01*
X25400238Y-56701190D01*
X26400238Y-56653571D02*
X26733571Y-56653571D01*
X26876428Y-57177380D02*
X26400238Y-57177380D01*
X26400238Y-56177380D01*
X26876428Y-56177380D01*
X27638333Y-56653571D02*
X27305000Y-56653571D01*
X27305000Y-57177380D02*
X27305000Y-56177380D01*
X27781190Y-56177380D01*
X28305000Y-56177380D02*
X28305000Y-56415476D01*
X28066904Y-56320238D02*
X28305000Y-56415476D01*
X28543095Y-56320238D01*
X28162142Y-56605952D02*
X28305000Y-56415476D01*
X28447857Y-56605952D01*
X29066904Y-56177380D02*
X29066904Y-56415476D01*
X28828809Y-56320238D02*
X29066904Y-56415476D01*
X29305000Y-56320238D01*
X28924047Y-56605952D02*
X29066904Y-56415476D01*
X29209761Y-56605952D01*
%TO.C,J2*%
X80522380Y-18113333D02*
X81236666Y-18113333D01*
X81379523Y-18160952D01*
X81474761Y-18256190D01*
X81522380Y-18399047D01*
X81522380Y-18494285D01*
X80617619Y-17684761D02*
X80570000Y-17637142D01*
X80522380Y-17541904D01*
X80522380Y-17303809D01*
X80570000Y-17208571D01*
X80617619Y-17160952D01*
X80712857Y-17113333D01*
X80808095Y-17113333D01*
X80950952Y-17160952D01*
X81522380Y-17732380D01*
X81522380Y-17113333D01*
%TO.C,Crystal1*%
X25128095Y-39442142D02*
X25080476Y-39489761D01*
X24937619Y-39537380D01*
X24842380Y-39537380D01*
X24699523Y-39489761D01*
X24604285Y-39394523D01*
X24556666Y-39299285D01*
X24509047Y-39108809D01*
X24509047Y-38965952D01*
X24556666Y-38775476D01*
X24604285Y-38680238D01*
X24699523Y-38585000D01*
X24842380Y-38537380D01*
X24937619Y-38537380D01*
X25080476Y-38585000D01*
X25128095Y-38632619D01*
X25556666Y-39537380D02*
X25556666Y-38870714D01*
X25556666Y-39061190D02*
X25604285Y-38965952D01*
X25651904Y-38918333D01*
X25747142Y-38870714D01*
X25842380Y-38870714D01*
X26080476Y-38870714D02*
X26318571Y-39537380D01*
X26556666Y-38870714D02*
X26318571Y-39537380D01*
X26223333Y-39775476D01*
X26175714Y-39823095D01*
X26080476Y-39870714D01*
X26890000Y-39489761D02*
X26985238Y-39537380D01*
X27175714Y-39537380D01*
X27270952Y-39489761D01*
X27318571Y-39394523D01*
X27318571Y-39346904D01*
X27270952Y-39251666D01*
X27175714Y-39204047D01*
X27032857Y-39204047D01*
X26937619Y-39156428D01*
X26890000Y-39061190D01*
X26890000Y-39013571D01*
X26937619Y-38918333D01*
X27032857Y-38870714D01*
X27175714Y-38870714D01*
X27270952Y-38918333D01*
X27604285Y-38870714D02*
X27985238Y-38870714D01*
X27747142Y-38537380D02*
X27747142Y-39394523D01*
X27794761Y-39489761D01*
X27890000Y-39537380D01*
X27985238Y-39537380D01*
X28747142Y-39537380D02*
X28747142Y-39013571D01*
X28699523Y-38918333D01*
X28604285Y-38870714D01*
X28413809Y-38870714D01*
X28318571Y-38918333D01*
X28747142Y-39489761D02*
X28651904Y-39537380D01*
X28413809Y-39537380D01*
X28318571Y-39489761D01*
X28270952Y-39394523D01*
X28270952Y-39299285D01*
X28318571Y-39204047D01*
X28413809Y-39156428D01*
X28651904Y-39156428D01*
X28747142Y-39108809D01*
X29366190Y-39537380D02*
X29270952Y-39489761D01*
X29223333Y-39394523D01*
X29223333Y-38537380D01*
X30270952Y-39537380D02*
X29699523Y-39537380D01*
X29985238Y-39537380D02*
X29985238Y-38537380D01*
X29890000Y-38680238D01*
X29794761Y-38775476D01*
X29699523Y-38823095D01*
%TO.C,REF\u002A\u002A*%
X61531666Y-100357380D02*
X61198333Y-99881190D01*
X60960238Y-100357380D02*
X60960238Y-99357380D01*
X61341190Y-99357380D01*
X61436428Y-99405000D01*
X61484047Y-99452619D01*
X61531666Y-99547857D01*
X61531666Y-99690714D01*
X61484047Y-99785952D01*
X61436428Y-99833571D01*
X61341190Y-99881190D01*
X60960238Y-99881190D01*
X61960238Y-99833571D02*
X62293571Y-99833571D01*
X62436428Y-100357380D02*
X61960238Y-100357380D01*
X61960238Y-99357380D01*
X62436428Y-99357380D01*
X63198333Y-99833571D02*
X62865000Y-99833571D01*
X62865000Y-100357380D02*
X62865000Y-99357380D01*
X63341190Y-99357380D01*
X63865000Y-99357380D02*
X63865000Y-99595476D01*
X63626904Y-99500238D02*
X63865000Y-99595476D01*
X64103095Y-99500238D01*
X63722142Y-99785952D02*
X63865000Y-99595476D01*
X64007857Y-99785952D01*
X64626904Y-99357380D02*
X64626904Y-99595476D01*
X64388809Y-99500238D02*
X64626904Y-99595476D01*
X64865000Y-99500238D01*
X64484047Y-99785952D02*
X64626904Y-99595476D01*
X64769761Y-99785952D01*
X64071666Y-102897380D02*
X63738333Y-102421190D01*
X63500238Y-102897380D02*
X63500238Y-101897380D01*
X63881190Y-101897380D01*
X63976428Y-101945000D01*
X64024047Y-101992619D01*
X64071666Y-102087857D01*
X64071666Y-102230714D01*
X64024047Y-102325952D01*
X63976428Y-102373571D01*
X63881190Y-102421190D01*
X63500238Y-102421190D01*
X64500238Y-102373571D02*
X64833571Y-102373571D01*
X64976428Y-102897380D02*
X64500238Y-102897380D01*
X64500238Y-101897380D01*
X64976428Y-101897380D01*
X65738333Y-102373571D02*
X65405000Y-102373571D01*
X65405000Y-102897380D02*
X65405000Y-101897380D01*
X65881190Y-101897380D01*
X66405000Y-101897380D02*
X66405000Y-102135476D01*
X66166904Y-102040238D02*
X66405000Y-102135476D01*
X66643095Y-102040238D01*
X66262142Y-102325952D02*
X66405000Y-102135476D01*
X66547857Y-102325952D01*
X67166904Y-101897380D02*
X67166904Y-102135476D01*
X66928809Y-102040238D02*
X67166904Y-102135476D01*
X67405000Y-102040238D01*
X67024047Y-102325952D02*
X67166904Y-102135476D01*
X67309761Y-102325952D01*
X48831666Y-90197380D02*
X48498333Y-89721190D01*
X48260238Y-90197380D02*
X48260238Y-89197380D01*
X48641190Y-89197380D01*
X48736428Y-89245000D01*
X48784047Y-89292619D01*
X48831666Y-89387857D01*
X48831666Y-89530714D01*
X48784047Y-89625952D01*
X48736428Y-89673571D01*
X48641190Y-89721190D01*
X48260238Y-89721190D01*
X49260238Y-89673571D02*
X49593571Y-89673571D01*
X49736428Y-90197380D02*
X49260238Y-90197380D01*
X49260238Y-89197380D01*
X49736428Y-89197380D01*
X50498333Y-89673571D02*
X50165000Y-89673571D01*
X50165000Y-90197380D02*
X50165000Y-89197380D01*
X50641190Y-89197380D01*
X51165000Y-89197380D02*
X51165000Y-89435476D01*
X50926904Y-89340238D02*
X51165000Y-89435476D01*
X51403095Y-89340238D01*
X51022142Y-89625952D02*
X51165000Y-89435476D01*
X51307857Y-89625952D01*
X51926904Y-89197380D02*
X51926904Y-89435476D01*
X51688809Y-89340238D02*
X51926904Y-89435476D01*
X52165000Y-89340238D01*
X51784047Y-89625952D02*
X51926904Y-89435476D01*
X52069761Y-89625952D01*
%TO.C,C4*%
X99222142Y-42086666D02*
X99269761Y-42134285D01*
X99317380Y-42277142D01*
X99317380Y-42372380D01*
X99269761Y-42515238D01*
X99174523Y-42610476D01*
X99079285Y-42658095D01*
X98888809Y-42705714D01*
X98745952Y-42705714D01*
X98555476Y-42658095D01*
X98460238Y-42610476D01*
X98365000Y-42515238D01*
X98317380Y-42372380D01*
X98317380Y-42277142D01*
X98365000Y-42134285D01*
X98412619Y-42086666D01*
X98650714Y-41229523D02*
X99317380Y-41229523D01*
X98269761Y-41467619D02*
X98984047Y-41705714D01*
X98984047Y-41086666D01*
%TO.C,REF\u002A\u002A*%
X69151666Y-107977380D02*
X68818333Y-107501190D01*
X68580238Y-107977380D02*
X68580238Y-106977380D01*
X68961190Y-106977380D01*
X69056428Y-107025000D01*
X69104047Y-107072619D01*
X69151666Y-107167857D01*
X69151666Y-107310714D01*
X69104047Y-107405952D01*
X69056428Y-107453571D01*
X68961190Y-107501190D01*
X68580238Y-107501190D01*
X69580238Y-107453571D02*
X69913571Y-107453571D01*
X70056428Y-107977380D02*
X69580238Y-107977380D01*
X69580238Y-106977380D01*
X70056428Y-106977380D01*
X70818333Y-107453571D02*
X70485000Y-107453571D01*
X70485000Y-107977380D02*
X70485000Y-106977380D01*
X70961190Y-106977380D01*
X71485000Y-106977380D02*
X71485000Y-107215476D01*
X71246904Y-107120238D02*
X71485000Y-107215476D01*
X71723095Y-107120238D01*
X71342142Y-107405952D02*
X71485000Y-107215476D01*
X71627857Y-107405952D01*
X72246904Y-106977380D02*
X72246904Y-107215476D01*
X72008809Y-107120238D02*
X72246904Y-107215476D01*
X72485000Y-107120238D01*
X72104047Y-107405952D02*
X72246904Y-107215476D01*
X72389761Y-107405952D01*
%TO.C,C5*%
X52637142Y-33186666D02*
X52684761Y-33234285D01*
X52732380Y-33377142D01*
X52732380Y-33472380D01*
X52684761Y-33615238D01*
X52589523Y-33710476D01*
X52494285Y-33758095D01*
X52303809Y-33805714D01*
X52160952Y-33805714D01*
X51970476Y-33758095D01*
X51875238Y-33710476D01*
X51780000Y-33615238D01*
X51732380Y-33472380D01*
X51732380Y-33377142D01*
X51780000Y-33234285D01*
X51827619Y-33186666D01*
X51732380Y-32281904D02*
X51732380Y-32758095D01*
X52208571Y-32805714D01*
X52160952Y-32758095D01*
X52113333Y-32662857D01*
X52113333Y-32424761D01*
X52160952Y-32329523D01*
X52208571Y-32281904D01*
X52303809Y-32234285D01*
X52541904Y-32234285D01*
X52637142Y-32281904D01*
X52684761Y-32329523D01*
X52732380Y-32424761D01*
X52732380Y-32662857D01*
X52684761Y-32758095D01*
X52637142Y-32805714D01*
%TO.C,U5*%
X86223095Y-91947380D02*
X86223095Y-92756904D01*
X86270714Y-92852142D01*
X86318333Y-92899761D01*
X86413571Y-92947380D01*
X86604047Y-92947380D01*
X86699285Y-92899761D01*
X86746904Y-92852142D01*
X86794523Y-92756904D01*
X86794523Y-91947380D01*
X87746904Y-91947380D02*
X87270714Y-91947380D01*
X87223095Y-92423571D01*
X87270714Y-92375952D01*
X87365952Y-92328333D01*
X87604047Y-92328333D01*
X87699285Y-92375952D01*
X87746904Y-92423571D01*
X87794523Y-92518809D01*
X87794523Y-92756904D01*
X87746904Y-92852142D01*
X87699285Y-92899761D01*
X87604047Y-92947380D01*
X87365952Y-92947380D01*
X87270714Y-92899761D01*
X87223095Y-92852142D01*
%TO.C,REF\u002A\u002A*%
X58991666Y-97817380D02*
X58658333Y-97341190D01*
X58420238Y-97817380D02*
X58420238Y-96817380D01*
X58801190Y-96817380D01*
X58896428Y-96865000D01*
X58944047Y-96912619D01*
X58991666Y-97007857D01*
X58991666Y-97150714D01*
X58944047Y-97245952D01*
X58896428Y-97293571D01*
X58801190Y-97341190D01*
X58420238Y-97341190D01*
X59420238Y-97293571D02*
X59753571Y-97293571D01*
X59896428Y-97817380D02*
X59420238Y-97817380D01*
X59420238Y-96817380D01*
X59896428Y-96817380D01*
X60658333Y-97293571D02*
X60325000Y-97293571D01*
X60325000Y-97817380D02*
X60325000Y-96817380D01*
X60801190Y-96817380D01*
X61325000Y-96817380D02*
X61325000Y-97055476D01*
X61086904Y-96960238D02*
X61325000Y-97055476D01*
X61563095Y-96960238D01*
X61182142Y-97245952D02*
X61325000Y-97055476D01*
X61467857Y-97245952D01*
X62086904Y-96817380D02*
X62086904Y-97055476D01*
X61848809Y-96960238D02*
X62086904Y-97055476D01*
X62325000Y-96960238D01*
X61944047Y-97245952D02*
X62086904Y-97055476D01*
X62229761Y-97245952D01*
X56451666Y-95277380D02*
X56118333Y-94801190D01*
X55880238Y-95277380D02*
X55880238Y-94277380D01*
X56261190Y-94277380D01*
X56356428Y-94325000D01*
X56404047Y-94372619D01*
X56451666Y-94467857D01*
X56451666Y-94610714D01*
X56404047Y-94705952D01*
X56356428Y-94753571D01*
X56261190Y-94801190D01*
X55880238Y-94801190D01*
X56880238Y-94753571D02*
X57213571Y-94753571D01*
X57356428Y-95277380D02*
X56880238Y-95277380D01*
X56880238Y-94277380D01*
X57356428Y-94277380D01*
X58118333Y-94753571D02*
X57785000Y-94753571D01*
X57785000Y-95277380D02*
X57785000Y-94277380D01*
X58261190Y-94277380D01*
X58785000Y-94277380D02*
X58785000Y-94515476D01*
X58546904Y-94420238D02*
X58785000Y-94515476D01*
X59023095Y-94420238D01*
X58642142Y-94705952D02*
X58785000Y-94515476D01*
X58927857Y-94705952D01*
X59546904Y-94277380D02*
X59546904Y-94515476D01*
X59308809Y-94420238D02*
X59546904Y-94515476D01*
X59785000Y-94420238D01*
X59404047Y-94705952D02*
X59546904Y-94515476D01*
X59689761Y-94705952D01*
%TO.C,U3*%
X93218095Y-39507380D02*
X93218095Y-40316904D01*
X93265714Y-40412142D01*
X93313333Y-40459761D01*
X93408571Y-40507380D01*
X93599047Y-40507380D01*
X93694285Y-40459761D01*
X93741904Y-40412142D01*
X93789523Y-40316904D01*
X93789523Y-39507380D01*
X94170476Y-39507380D02*
X94789523Y-39507380D01*
X94456190Y-39888333D01*
X94599047Y-39888333D01*
X94694285Y-39935952D01*
X94741904Y-39983571D01*
X94789523Y-40078809D01*
X94789523Y-40316904D01*
X94741904Y-40412142D01*
X94694285Y-40459761D01*
X94599047Y-40507380D01*
X94313333Y-40507380D01*
X94218095Y-40459761D01*
X94170476Y-40412142D01*
%TO.C,REF\u002A\u002A*%
X41211666Y-85117380D02*
X40878333Y-84641190D01*
X40640238Y-85117380D02*
X40640238Y-84117380D01*
X41021190Y-84117380D01*
X41116428Y-84165000D01*
X41164047Y-84212619D01*
X41211666Y-84307857D01*
X41211666Y-84450714D01*
X41164047Y-84545952D01*
X41116428Y-84593571D01*
X41021190Y-84641190D01*
X40640238Y-84641190D01*
X41640238Y-84593571D02*
X41973571Y-84593571D01*
X42116428Y-85117380D02*
X41640238Y-85117380D01*
X41640238Y-84117380D01*
X42116428Y-84117380D01*
X42878333Y-84593571D02*
X42545000Y-84593571D01*
X42545000Y-85117380D02*
X42545000Y-84117380D01*
X43021190Y-84117380D01*
X43545000Y-84117380D02*
X43545000Y-84355476D01*
X43306904Y-84260238D02*
X43545000Y-84355476D01*
X43783095Y-84260238D01*
X43402142Y-84545952D02*
X43545000Y-84355476D01*
X43687857Y-84545952D01*
X44306904Y-84117380D02*
X44306904Y-84355476D01*
X44068809Y-84260238D02*
X44306904Y-84355476D01*
X44545000Y-84260238D01*
X44164047Y-84545952D02*
X44306904Y-84355476D01*
X44449761Y-84545952D01*
%TO.C,U7*%
X100203095Y-85387380D02*
X100203095Y-86196904D01*
X100250714Y-86292142D01*
X100298333Y-86339761D01*
X100393571Y-86387380D01*
X100584047Y-86387380D01*
X100679285Y-86339761D01*
X100726904Y-86292142D01*
X100774523Y-86196904D01*
X100774523Y-85387380D01*
X101155476Y-85387380D02*
X101822142Y-85387380D01*
X101393571Y-86387380D01*
%TO.C,REF\u002A\u002A*%
X38671666Y-82577380D02*
X38338333Y-82101190D01*
X38100238Y-82577380D02*
X38100238Y-81577380D01*
X38481190Y-81577380D01*
X38576428Y-81625000D01*
X38624047Y-81672619D01*
X38671666Y-81767857D01*
X38671666Y-81910714D01*
X38624047Y-82005952D01*
X38576428Y-82053571D01*
X38481190Y-82101190D01*
X38100238Y-82101190D01*
X39100238Y-82053571D02*
X39433571Y-82053571D01*
X39576428Y-82577380D02*
X39100238Y-82577380D01*
X39100238Y-81577380D01*
X39576428Y-81577380D01*
X40338333Y-82053571D02*
X40005000Y-82053571D01*
X40005000Y-82577380D02*
X40005000Y-81577380D01*
X40481190Y-81577380D01*
X41005000Y-81577380D02*
X41005000Y-81815476D01*
X40766904Y-81720238D02*
X41005000Y-81815476D01*
X41243095Y-81720238D01*
X40862142Y-82005952D02*
X41005000Y-81815476D01*
X41147857Y-82005952D01*
X41766904Y-81577380D02*
X41766904Y-81815476D01*
X41528809Y-81720238D02*
X41766904Y-81815476D01*
X42005000Y-81720238D01*
X41624047Y-82005952D02*
X41766904Y-81815476D01*
X41909761Y-82005952D01*
%TO.C,U4*%
X69733095Y-62537380D02*
X69733095Y-63346904D01*
X69780714Y-63442142D01*
X69828333Y-63489761D01*
X69923571Y-63537380D01*
X70114047Y-63537380D01*
X70209285Y-63489761D01*
X70256904Y-63442142D01*
X70304523Y-63346904D01*
X70304523Y-62537380D01*
X71209285Y-62870714D02*
X71209285Y-63537380D01*
X70971190Y-62489761D02*
X70733095Y-63204047D01*
X71352142Y-63204047D01*
%TO.C,SW1*%
X37401666Y-13684761D02*
X37544523Y-13732380D01*
X37782619Y-13732380D01*
X37877857Y-13684761D01*
X37925476Y-13637142D01*
X37973095Y-13541904D01*
X37973095Y-13446666D01*
X37925476Y-13351428D01*
X37877857Y-13303809D01*
X37782619Y-13256190D01*
X37592142Y-13208571D01*
X37496904Y-13160952D01*
X37449285Y-13113333D01*
X37401666Y-13018095D01*
X37401666Y-12922857D01*
X37449285Y-12827619D01*
X37496904Y-12780000D01*
X37592142Y-12732380D01*
X37830238Y-12732380D01*
X37973095Y-12780000D01*
X38306428Y-12732380D02*
X38544523Y-13732380D01*
X38735000Y-13018095D01*
X38925476Y-13732380D01*
X39163571Y-12732380D01*
X40068333Y-13732380D02*
X39496904Y-13732380D01*
X39782619Y-13732380D02*
X39782619Y-12732380D01*
X39687380Y-12875238D01*
X39592142Y-12970476D01*
X39496904Y-13018095D01*
%TO.C,U6*%
X100193095Y-72267380D02*
X100193095Y-73076904D01*
X100240714Y-73172142D01*
X100288333Y-73219761D01*
X100383571Y-73267380D01*
X100574047Y-73267380D01*
X100669285Y-73219761D01*
X100716904Y-73172142D01*
X100764523Y-73076904D01*
X100764523Y-72267380D01*
X101669285Y-72267380D02*
X101478809Y-72267380D01*
X101383571Y-72315000D01*
X101335952Y-72362619D01*
X101240714Y-72505476D01*
X101193095Y-72695952D01*
X101193095Y-73076904D01*
X101240714Y-73172142D01*
X101288333Y-73219761D01*
X101383571Y-73267380D01*
X101574047Y-73267380D01*
X101669285Y-73219761D01*
X101716904Y-73172142D01*
X101764523Y-73076904D01*
X101764523Y-72838809D01*
X101716904Y-72743571D01*
X101669285Y-72695952D01*
X101574047Y-72648333D01*
X101383571Y-72648333D01*
X101288333Y-72695952D01*
X101240714Y-72743571D01*
X101193095Y-72838809D01*
%TO.C,J3*%
X18716666Y-31422380D02*
X18716666Y-32136666D01*
X18669047Y-32279523D01*
X18573809Y-32374761D01*
X18430952Y-32422380D01*
X18335714Y-32422380D01*
X19097619Y-31422380D02*
X19716666Y-31422380D01*
X19383333Y-31803333D01*
X19526190Y-31803333D01*
X19621428Y-31850952D01*
X19669047Y-31898571D01*
X19716666Y-31993809D01*
X19716666Y-32231904D01*
X19669047Y-32327142D01*
X19621428Y-32374761D01*
X19526190Y-32422380D01*
X19240476Y-32422380D01*
X19145238Y-32374761D01*
X19097619Y-32327142D01*
%TO.C,REF\u002A\u002A*%
X53911666Y-92737380D02*
X53578333Y-92261190D01*
X53340238Y-92737380D02*
X53340238Y-91737380D01*
X53721190Y-91737380D01*
X53816428Y-91785000D01*
X53864047Y-91832619D01*
X53911666Y-91927857D01*
X53911666Y-92070714D01*
X53864047Y-92165952D01*
X53816428Y-92213571D01*
X53721190Y-92261190D01*
X53340238Y-92261190D01*
X54340238Y-92213571D02*
X54673571Y-92213571D01*
X54816428Y-92737380D02*
X54340238Y-92737380D01*
X54340238Y-91737380D01*
X54816428Y-91737380D01*
X55578333Y-92213571D02*
X55245000Y-92213571D01*
X55245000Y-92737380D02*
X55245000Y-91737380D01*
X55721190Y-91737380D01*
X56245000Y-91737380D02*
X56245000Y-91975476D01*
X56006904Y-91880238D02*
X56245000Y-91975476D01*
X56483095Y-91880238D01*
X56102142Y-92165952D02*
X56245000Y-91975476D01*
X56387857Y-92165952D01*
X57006904Y-91737380D02*
X57006904Y-91975476D01*
X56768809Y-91880238D02*
X57006904Y-91975476D01*
X57245000Y-91880238D01*
X56864047Y-92165952D02*
X57006904Y-91975476D01*
X57149761Y-92165952D01*
%TO.C,C3*%
X20882142Y-41441666D02*
X20929761Y-41489285D01*
X20977380Y-41632142D01*
X20977380Y-41727380D01*
X20929761Y-41870238D01*
X20834523Y-41965476D01*
X20739285Y-42013095D01*
X20548809Y-42060714D01*
X20405952Y-42060714D01*
X20215476Y-42013095D01*
X20120238Y-41965476D01*
X20025000Y-41870238D01*
X19977380Y-41727380D01*
X19977380Y-41632142D01*
X20025000Y-41489285D01*
X20072619Y-41441666D01*
X19977380Y-41108333D02*
X19977380Y-40489285D01*
X20358333Y-40822619D01*
X20358333Y-40679761D01*
X20405952Y-40584523D01*
X20453571Y-40536904D01*
X20548809Y-40489285D01*
X20786904Y-40489285D01*
X20882142Y-40536904D01*
X20929761Y-40584523D01*
X20977380Y-40679761D01*
X20977380Y-40965476D01*
X20929761Y-41060714D01*
X20882142Y-41108333D01*
%TO.C,REF\u002A\u002A*%
X51371666Y-90197380D02*
X51038333Y-89721190D01*
X50800238Y-90197380D02*
X50800238Y-89197380D01*
X51181190Y-89197380D01*
X51276428Y-89245000D01*
X51324047Y-89292619D01*
X51371666Y-89387857D01*
X51371666Y-89530714D01*
X51324047Y-89625952D01*
X51276428Y-89673571D01*
X51181190Y-89721190D01*
X50800238Y-89721190D01*
X51800238Y-89673571D02*
X52133571Y-89673571D01*
X52276428Y-90197380D02*
X51800238Y-90197380D01*
X51800238Y-89197380D01*
X52276428Y-89197380D01*
X53038333Y-89673571D02*
X52705000Y-89673571D01*
X52705000Y-90197380D02*
X52705000Y-89197380D01*
X53181190Y-89197380D01*
X53705000Y-89197380D02*
X53705000Y-89435476D01*
X53466904Y-89340238D02*
X53705000Y-89435476D01*
X53943095Y-89340238D01*
X53562142Y-89625952D02*
X53705000Y-89435476D01*
X53847857Y-89625952D01*
X54466904Y-89197380D02*
X54466904Y-89435476D01*
X54228809Y-89340238D02*
X54466904Y-89435476D01*
X54705000Y-89340238D01*
X54324047Y-89625952D02*
X54466904Y-89435476D01*
X54609761Y-89625952D01*
%TO.C,J4*%
X117711666Y-110807380D02*
X117711666Y-111521666D01*
X117664047Y-111664523D01*
X117568809Y-111759761D01*
X117425952Y-111807380D01*
X117330714Y-111807380D01*
X118616428Y-111140714D02*
X118616428Y-111807380D01*
X118378333Y-110759761D02*
X118140238Y-111474047D01*
X118759285Y-111474047D01*
%TO.C,REF\u002A\u002A*%
X33591666Y-74957380D02*
X33258333Y-74481190D01*
X33020238Y-74957380D02*
X33020238Y-73957380D01*
X33401190Y-73957380D01*
X33496428Y-74005000D01*
X33544047Y-74052619D01*
X33591666Y-74147857D01*
X33591666Y-74290714D01*
X33544047Y-74385952D01*
X33496428Y-74433571D01*
X33401190Y-74481190D01*
X33020238Y-74481190D01*
X34020238Y-74433571D02*
X34353571Y-74433571D01*
X34496428Y-74957380D02*
X34020238Y-74957380D01*
X34020238Y-73957380D01*
X34496428Y-73957380D01*
X35258333Y-74433571D02*
X34925000Y-74433571D01*
X34925000Y-74957380D02*
X34925000Y-73957380D01*
X35401190Y-73957380D01*
X35925000Y-73957380D02*
X35925000Y-74195476D01*
X35686904Y-74100238D02*
X35925000Y-74195476D01*
X36163095Y-74100238D01*
X35782142Y-74385952D02*
X35925000Y-74195476D01*
X36067857Y-74385952D01*
X36686904Y-73957380D02*
X36686904Y-74195476D01*
X36448809Y-74100238D02*
X36686904Y-74195476D01*
X36925000Y-74100238D01*
X36544047Y-74385952D02*
X36686904Y-74195476D01*
X36829761Y-74385952D01*
X36131666Y-80037380D02*
X35798333Y-79561190D01*
X35560238Y-80037380D02*
X35560238Y-79037380D01*
X35941190Y-79037380D01*
X36036428Y-79085000D01*
X36084047Y-79132619D01*
X36131666Y-79227857D01*
X36131666Y-79370714D01*
X36084047Y-79465952D01*
X36036428Y-79513571D01*
X35941190Y-79561190D01*
X35560238Y-79561190D01*
X36560238Y-79513571D02*
X36893571Y-79513571D01*
X37036428Y-80037380D02*
X36560238Y-80037380D01*
X36560238Y-79037380D01*
X37036428Y-79037380D01*
X37798333Y-79513571D02*
X37465000Y-79513571D01*
X37465000Y-80037380D02*
X37465000Y-79037380D01*
X37941190Y-79037380D01*
X38465000Y-79037380D02*
X38465000Y-79275476D01*
X38226904Y-79180238D02*
X38465000Y-79275476D01*
X38703095Y-79180238D01*
X38322142Y-79465952D02*
X38465000Y-79275476D01*
X38607857Y-79465952D01*
X39226904Y-79037380D02*
X39226904Y-79275476D01*
X38988809Y-79180238D02*
X39226904Y-79275476D01*
X39465000Y-79180238D01*
X39084047Y-79465952D02*
X39226904Y-79275476D01*
X39369761Y-79465952D01*
%TO.C,J1*%
X21032380Y-22480833D02*
X21746666Y-22480833D01*
X21889523Y-22528452D01*
X21984761Y-22623690D01*
X22032380Y-22766547D01*
X22032380Y-22861785D01*
X22032380Y-21480833D02*
X22032380Y-22052261D01*
X22032380Y-21766547D02*
X21032380Y-21766547D01*
X21175238Y-21861785D01*
X21270476Y-21957023D01*
X21318095Y-22052261D01*
D11*
%TO.C,REF\u002A\u002A*%
X43755000Y-89535000D02*
X43755000Y-88205000D01*
X43755000Y-90805000D02*
X46415000Y-90805000D01*
X43755000Y-113725000D02*
X46415000Y-113725000D01*
X43755000Y-88205000D02*
X45085000Y-88205000D01*
X43755000Y-90805000D02*
X43755000Y-113725000D01*
X46415000Y-90805000D02*
X46415000Y-113725000D01*
X71695000Y-113725000D02*
X74355000Y-113725000D01*
X71695000Y-112395000D02*
X71695000Y-111065000D01*
X74355000Y-113665000D02*
X74355000Y-113725000D01*
X71695000Y-111065000D02*
X73025000Y-111065000D01*
X71695000Y-113665000D02*
X71695000Y-113725000D01*
X71695000Y-113665000D02*
X74355000Y-113665000D01*
%TO.C,U2*%
X69505000Y-36150000D02*
X67855000Y-36150000D01*
X67855000Y-61670000D02*
X73155000Y-61670000D01*
X73155000Y-61670000D02*
X73155000Y-36150000D01*
X67855000Y-36150000D02*
X67855000Y-61670000D01*
X73155000Y-36150000D02*
X71505000Y-36150000D01*
X69505000Y-36150000D02*
G75*
G03*
X71505000Y-36150000I1000000J0D01*
G01*
%TO.C,C1*%
X27880000Y-39945000D02*
X27880000Y-42605000D01*
X30480000Y-39945000D02*
X27880000Y-39945000D01*
X31750000Y-39945000D02*
X33080000Y-39945000D01*
X30480000Y-42605000D02*
X27880000Y-42605000D01*
X30480000Y-39945000D02*
X30480000Y-42605000D01*
X33080000Y-39945000D02*
X33080000Y-41275000D01*
%TO.C,D1*%
X17760000Y-47350000D02*
X17760000Y-50440000D01*
X17760000Y-50439830D02*
G75*
G03*
X23310000Y-48894538I2560000J1544830D01*
G01*
X23310000Y-48895462D02*
G75*
G03*
X17760000Y-47350170I-2990000J462D01*
G01*
X22820000Y-48895000D02*
G75*
G03*
X22820000Y-48895000I-2500000J0D01*
G01*
%TO.C,REF\u002A\u002A*%
X21015000Y-60325000D02*
X21015000Y-113725000D01*
X18355000Y-60325000D02*
X18355000Y-113725000D01*
X18355000Y-57725000D02*
X19685000Y-57725000D01*
X18355000Y-59055000D02*
X18355000Y-57725000D01*
X18355000Y-60325000D02*
X21015000Y-60325000D01*
X18355000Y-113725000D02*
X21015000Y-113725000D01*
%TO.C,X1*%
X44160000Y-15890000D02*
X44160000Y-28040000D01*
X44160000Y-28040000D02*
X64310000Y-28040000D01*
X64310000Y-15140000D02*
X44910000Y-15140000D01*
X65060000Y-27290000D02*
X65060000Y-15890000D01*
X44910000Y-15140000D02*
G75*
G03*
X44160000Y-15890000I0J-750000D01*
G01*
X65060000Y-15890000D02*
G75*
G03*
X64310000Y-15140000I-750000J0D01*
G01*
X64310000Y-28040000D02*
G75*
G03*
X65060000Y-27290000I0J750000D01*
G01*
%TO.C,REF\u002A\u002A*%
X31055000Y-113725000D02*
X33715000Y-113725000D01*
X33715000Y-60325000D02*
X33715000Y-113725000D01*
X31055000Y-59055000D02*
X31055000Y-57725000D01*
X31055000Y-57725000D02*
X32385000Y-57725000D01*
X31055000Y-60325000D02*
X33715000Y-60325000D01*
X31055000Y-60325000D02*
X31055000Y-113725000D01*
%TO.C,C6*%
X38670000Y-32445000D02*
X38670000Y-31115000D01*
X43870000Y-32445000D02*
X43870000Y-29785000D01*
X41270000Y-29785000D02*
X43870000Y-29785000D01*
X41270000Y-32445000D02*
X41270000Y-29785000D01*
X40000000Y-32445000D02*
X38670000Y-32445000D01*
X41270000Y-32445000D02*
X43870000Y-32445000D01*
%TO.C,REF\u002A\u002A*%
X46295000Y-92075000D02*
X46295000Y-90745000D01*
X48955000Y-93345000D02*
X48955000Y-113725000D01*
X46295000Y-93345000D02*
X46295000Y-113725000D01*
X46295000Y-113725000D02*
X48955000Y-113725000D01*
X46295000Y-93345000D02*
X48955000Y-93345000D01*
X46295000Y-90745000D02*
X47625000Y-90745000D01*
X23435000Y-113725000D02*
X26095000Y-113725000D01*
X26095000Y-60325000D02*
X26095000Y-113725000D01*
X23435000Y-60325000D02*
X26095000Y-60325000D01*
X23435000Y-59055000D02*
X23435000Y-57725000D01*
X23435000Y-57725000D02*
X24765000Y-57725000D01*
X23435000Y-60325000D02*
X23435000Y-113725000D01*
%TO.C,R1*%
X41845000Y-25317767D02*
G75*
G03*
X43294359Y-25414805I700000J-417133D01*
G01*
%TO.C,U8*%
X36740000Y-33610000D02*
X36740000Y-59130000D01*
X42040000Y-59130000D02*
X42040000Y-33610000D01*
X36740000Y-59130000D02*
X42040000Y-59130000D01*
X38390000Y-33610000D02*
X36740000Y-33610000D01*
X42040000Y-33610000D02*
X40390000Y-33610000D01*
X38390000Y-33610000D02*
G75*
G03*
X40390000Y-33610000I1000000J0D01*
G01*
%TO.C,C2*%
X38505000Y-23064000D02*
X39402000Y-23064000D01*
X38505000Y-23864000D02*
X39879000Y-23864000D01*
X38505000Y-24024000D02*
X39933000Y-24024000D01*
X38505000Y-23104000D02*
X39436000Y-23104000D01*
X35965000Y-22664000D02*
X36425000Y-22664000D01*
X36082000Y-22584000D02*
X36425000Y-22584000D01*
X35316000Y-23344000D02*
X36425000Y-23344000D01*
X36146000Y-22544000D02*
X36425000Y-22544000D01*
X36287000Y-22464000D02*
X38643000Y-22464000D01*
X38505000Y-22744000D02*
X39070000Y-22744000D01*
X36788000Y-22264000D02*
X38142000Y-22264000D01*
X34945000Y-24225000D02*
X36425000Y-24225000D01*
X34885000Y-24745000D02*
X40045000Y-24745000D01*
X38505000Y-24225000D02*
X39985000Y-24225000D01*
X34896000Y-24545000D02*
X36425000Y-24545000D01*
X34900000Y-24505000D02*
X36425000Y-24505000D01*
X38505000Y-23584000D02*
X39755000Y-23584000D01*
X38505000Y-22704000D02*
X39019000Y-22704000D01*
X35990000Y-27589775D02*
X35990000Y-27089775D01*
X35175000Y-23584000D02*
X36425000Y-23584000D01*
X38505000Y-22584000D02*
X38848000Y-22584000D01*
X38505000Y-22624000D02*
X38908000Y-22624000D01*
X34885000Y-24785000D02*
X40045000Y-24785000D01*
X38505000Y-23904000D02*
X39893000Y-23904000D01*
X36947000Y-22224000D02*
X37983000Y-22224000D01*
X35083000Y-23784000D02*
X36425000Y-23784000D01*
X38505000Y-24265000D02*
X39993000Y-24265000D01*
X36454000Y-22384000D02*
X38476000Y-22384000D01*
X34904000Y-24465000D02*
X36425000Y-24465000D01*
X35680000Y-22904000D02*
X36425000Y-22904000D01*
X38505000Y-23024000D02*
X39366000Y-23024000D01*
X38505000Y-23344000D02*
X39614000Y-23344000D01*
X38505000Y-23744000D02*
X39830000Y-23744000D01*
X35740000Y-27339775D02*
X36240000Y-27339775D01*
X38505000Y-23184000D02*
X39500000Y-23184000D01*
X35010000Y-23984000D02*
X36425000Y-23984000D01*
X38505000Y-22944000D02*
X39291000Y-22944000D01*
X34985000Y-24064000D02*
X36425000Y-24064000D01*
X38505000Y-24465000D02*
X40026000Y-24465000D01*
X38505000Y-22664000D02*
X38965000Y-22664000D01*
X36022000Y-22624000D02*
X36425000Y-22624000D01*
X38505000Y-23704000D02*
X39813000Y-23704000D01*
X38505000Y-23424000D02*
X39665000Y-23424000D01*
X38505000Y-23224000D02*
X39530000Y-23224000D01*
X35430000Y-23184000D02*
X36425000Y-23184000D01*
X34909000Y-24425000D02*
X36425000Y-24425000D01*
X38505000Y-23944000D02*
X39907000Y-23944000D01*
X38505000Y-23784000D02*
X39847000Y-23784000D01*
X38505000Y-24305000D02*
X40001000Y-24305000D01*
X34964000Y-24145000D02*
X36425000Y-24145000D01*
X35639000Y-22944000D02*
X36425000Y-22944000D01*
X38505000Y-23304000D02*
X39587000Y-23304000D01*
X36367000Y-22424000D02*
X38563000Y-22424000D01*
X38505000Y-23264000D02*
X39560000Y-23264000D01*
X38505000Y-22904000D02*
X39250000Y-22904000D01*
X38505000Y-23824000D02*
X39863000Y-23824000D01*
X35290000Y-23384000D02*
X36425000Y-23384000D01*
X38505000Y-22504000D02*
X38716000Y-22504000D01*
X36214000Y-22504000D02*
X36425000Y-22504000D01*
X38505000Y-23544000D02*
X39733000Y-23544000D01*
X37181000Y-22184000D02*
X37749000Y-22184000D01*
X38505000Y-24425000D02*
X40021000Y-24425000D01*
X35265000Y-23424000D02*
X36425000Y-23424000D01*
X35241000Y-23464000D02*
X36425000Y-23464000D01*
X38505000Y-24545000D02*
X40034000Y-24545000D01*
X35051000Y-23864000D02*
X36425000Y-23864000D01*
X34892000Y-24585000D02*
X40038000Y-24585000D01*
X35494000Y-23104000D02*
X36425000Y-23104000D01*
X34915000Y-24385000D02*
X36425000Y-24385000D01*
X34889000Y-24625000D02*
X40041000Y-24625000D01*
X35155000Y-23624000D02*
X36425000Y-23624000D01*
X38505000Y-23144000D02*
X39469000Y-23144000D01*
X38505000Y-23984000D02*
X39920000Y-23984000D01*
X34954000Y-24185000D02*
X36425000Y-24185000D01*
X38505000Y-22864000D02*
X39208000Y-22864000D01*
X35528000Y-23064000D02*
X36425000Y-23064000D01*
X34974000Y-24105000D02*
X36425000Y-24105000D01*
X38505000Y-22984000D02*
X39329000Y-22984000D01*
X35812000Y-22784000D02*
X36425000Y-22784000D01*
X38505000Y-23624000D02*
X39775000Y-23624000D01*
X34937000Y-24265000D02*
X36425000Y-24265000D01*
X35136000Y-23664000D02*
X36425000Y-23664000D01*
X35343000Y-23304000D02*
X36425000Y-23304000D01*
X38505000Y-24345000D02*
X40008000Y-24345000D01*
X38505000Y-23504000D02*
X39712000Y-23504000D01*
X38505000Y-24064000D02*
X39945000Y-24064000D01*
X35564000Y-23024000D02*
X36425000Y-23024000D01*
X38505000Y-24145000D02*
X39966000Y-24145000D01*
X36550000Y-22344000D02*
X38380000Y-22344000D01*
X35197000Y-23544000D02*
X36425000Y-23544000D01*
X34929000Y-24305000D02*
X36425000Y-24305000D01*
X38505000Y-23384000D02*
X39640000Y-23384000D01*
X38505000Y-22784000D02*
X39118000Y-22784000D01*
X38505000Y-23664000D02*
X39794000Y-23664000D01*
X35766000Y-22824000D02*
X36425000Y-22824000D01*
X35601000Y-22984000D02*
X36425000Y-22984000D01*
X34997000Y-24024000D02*
X36425000Y-24024000D01*
X38505000Y-24385000D02*
X40015000Y-24385000D01*
X35461000Y-23144000D02*
X36425000Y-23144000D01*
X38505000Y-22544000D02*
X38784000Y-22544000D01*
X38505000Y-24505000D02*
X40030000Y-24505000D01*
X38505000Y-24185000D02*
X39976000Y-24185000D01*
X38505000Y-22824000D02*
X39164000Y-22824000D01*
X38505000Y-24105000D02*
X39956000Y-24105000D01*
X35218000Y-23504000D02*
X36425000Y-23504000D01*
X36660000Y-22304000D02*
X38270000Y-22304000D01*
X34887000Y-24665000D02*
X40043000Y-24665000D01*
X35100000Y-23744000D02*
X36425000Y-23744000D01*
X35117000Y-23704000D02*
X36425000Y-23704000D01*
X35037000Y-23904000D02*
X36425000Y-23904000D01*
X35370000Y-23264000D02*
X36425000Y-23264000D01*
X35722000Y-22864000D02*
X36425000Y-22864000D01*
X35067000Y-23824000D02*
X36425000Y-23824000D01*
X38505000Y-23464000D02*
X39689000Y-23464000D01*
X34886000Y-24705000D02*
X40044000Y-24705000D01*
X35860000Y-22744000D02*
X36425000Y-22744000D01*
X35911000Y-22704000D02*
X36425000Y-22704000D01*
X34922000Y-24345000D02*
X36425000Y-24345000D01*
X35023000Y-23944000D02*
X36425000Y-23944000D01*
X35400000Y-23224000D02*
X36425000Y-23224000D01*
X40085000Y-24785000D02*
G75*
G03*
X40085000Y-24785000I-2620000J0D01*
G01*
%TO.C,R2*%
X19832133Y-53910000D02*
G75*
G03*
X19735095Y-55359359I-417133J-700000D01*
G01*
%TO.C,C7*%
X70500000Y-101550000D02*
X67900000Y-101550000D01*
X73100000Y-101550000D02*
X73100000Y-102880000D01*
X71770000Y-101550000D02*
X73100000Y-101550000D01*
X70500000Y-101550000D02*
X70500000Y-104210000D01*
X70500000Y-104210000D02*
X67900000Y-104210000D01*
X67900000Y-101550000D02*
X67900000Y-104210000D01*
%TO.C,REF\u002A\u002A*%
X20895000Y-59055000D02*
X20895000Y-57725000D01*
X23555000Y-60325000D02*
X23555000Y-113725000D01*
X20895000Y-60325000D02*
X20895000Y-113725000D01*
X20895000Y-60325000D02*
X23555000Y-60325000D01*
X20895000Y-57725000D02*
X22225000Y-57725000D01*
X20895000Y-113725000D02*
X23555000Y-113725000D01*
%TO.C,U1*%
X49430000Y-36145000D02*
X49430000Y-87065000D01*
X54890000Y-36145000D02*
X49430000Y-36145000D01*
X62350000Y-87065000D02*
X62350000Y-36145000D01*
X49430000Y-87065000D02*
X62350000Y-87065000D01*
X62350000Y-36145000D02*
X56890000Y-36145000D01*
X54890000Y-36145000D02*
G75*
G03*
X56890000Y-36145000I1000000J0D01*
G01*
%TO.C,REF\u002A\u002A*%
X66615000Y-113725000D02*
X69275000Y-113725000D01*
X66615000Y-105985000D02*
X67945000Y-105985000D01*
X66615000Y-108585000D02*
X69275000Y-108585000D01*
X66615000Y-107315000D02*
X66615000Y-105985000D01*
X66615000Y-108585000D02*
X66615000Y-113725000D01*
X69275000Y-108585000D02*
X69275000Y-113725000D01*
X28515000Y-60325000D02*
X28515000Y-113725000D01*
X28515000Y-59055000D02*
X28515000Y-57725000D01*
X28515000Y-60325000D02*
X31175000Y-60325000D01*
X28515000Y-57725000D02*
X29845000Y-57725000D01*
X28515000Y-113725000D02*
X31175000Y-113725000D01*
X31175000Y-60325000D02*
X31175000Y-113725000D01*
X25975000Y-113725000D02*
X28635000Y-113725000D01*
X25975000Y-60325000D02*
X25975000Y-113725000D01*
X25975000Y-57725000D02*
X27305000Y-57725000D01*
X28635000Y-60325000D02*
X28635000Y-113725000D01*
X25975000Y-60325000D02*
X28635000Y-60325000D01*
X25975000Y-59055000D02*
X25975000Y-57725000D01*
%TO.C,J2*%
X80070000Y-20380000D02*
X67250000Y-20380000D01*
X77470000Y-15180000D02*
X67250000Y-15180000D01*
X78740000Y-15180000D02*
X80070000Y-15180000D01*
X77470000Y-15180000D02*
X77470000Y-17780000D01*
X67250000Y-15180000D02*
X67250000Y-20380000D01*
X80070000Y-15180000D02*
X80070000Y-16510000D01*
X80070000Y-17780000D02*
X80070000Y-20380000D01*
X77470000Y-17780000D02*
X80070000Y-17780000D01*
%TO.C,Crystal1*%
X30515000Y-38085000D02*
X24265000Y-38085000D01*
X30515000Y-33035000D02*
X24265000Y-33035000D01*
X30515000Y-38085000D02*
G75*
G03*
X30515000Y-33035000I0J2525000D01*
G01*
X24265000Y-33035000D02*
G75*
G03*
X24265000Y-38085000I0J-2525000D01*
G01*
%TO.C,REF\u002A\u002A*%
X61535000Y-103505000D02*
X61535000Y-113725000D01*
X61535000Y-113725000D02*
X64195000Y-113725000D01*
X61535000Y-100905000D02*
X62865000Y-100905000D01*
X61535000Y-102235000D02*
X61535000Y-100905000D01*
X64195000Y-103505000D02*
X64195000Y-113725000D01*
X61535000Y-103505000D02*
X64195000Y-103505000D01*
X64075000Y-106045000D02*
X66735000Y-106045000D01*
X64075000Y-113725000D02*
X66735000Y-113725000D01*
X64075000Y-103445000D02*
X65405000Y-103445000D01*
X64075000Y-104775000D02*
X64075000Y-103445000D01*
X66735000Y-106045000D02*
X66735000Y-113725000D01*
X64075000Y-106045000D02*
X64075000Y-113725000D01*
X48835000Y-90745000D02*
X50165000Y-90745000D01*
X48835000Y-92075000D02*
X48835000Y-90745000D01*
X48835000Y-93345000D02*
X48835000Y-113725000D01*
X48835000Y-93345000D02*
X51495000Y-93345000D01*
X48835000Y-113725000D02*
X51495000Y-113725000D01*
X51495000Y-93345000D02*
X51495000Y-113725000D01*
%TO.C,C4*%
X95265000Y-40590000D02*
X92665000Y-40590000D01*
X92665000Y-40590000D02*
X92665000Y-43250000D01*
X97865000Y-40590000D02*
X97865000Y-41920000D01*
X95265000Y-40590000D02*
X95265000Y-43250000D01*
X96535000Y-40590000D02*
X97865000Y-40590000D01*
X95265000Y-43250000D02*
X92665000Y-43250000D01*
%TO.C,REF\u002A\u002A*%
X69155000Y-111125000D02*
X71815000Y-111125000D01*
X69155000Y-108525000D02*
X70485000Y-108525000D01*
X71815000Y-111125000D02*
X71815000Y-113725000D01*
X69155000Y-113725000D02*
X71815000Y-113725000D01*
X69155000Y-111125000D02*
X69155000Y-113725000D01*
X69155000Y-109855000D02*
X69155000Y-108525000D01*
%TO.C,C5*%
X54610000Y-34350000D02*
X53280000Y-34350000D01*
X55880000Y-34350000D02*
X58480000Y-34350000D01*
X55880000Y-31690000D02*
X58480000Y-31690000D01*
X55880000Y-34350000D02*
X55880000Y-31690000D01*
X58480000Y-34350000D02*
X58480000Y-31690000D01*
X53280000Y-34350000D02*
X53280000Y-33020000D01*
%TO.C,U5*%
X87985000Y-91495000D02*
X89635000Y-91495000D01*
X89635000Y-65975000D02*
X84335000Y-65975000D01*
X84335000Y-91495000D02*
X85985000Y-91495000D01*
X84335000Y-65975000D02*
X84335000Y-91495000D01*
X89635000Y-91495000D02*
X89635000Y-65975000D01*
X87985000Y-91495000D02*
G75*
G03*
X85985000Y-91495000I-1000000J0D01*
G01*
%TO.C,REF\u002A\u002A*%
X58995000Y-99695000D02*
X58995000Y-98365000D01*
X58995000Y-100965000D02*
X61655000Y-100965000D01*
X58995000Y-100965000D02*
X58995000Y-113725000D01*
X61655000Y-100965000D02*
X61655000Y-113725000D01*
X58995000Y-98365000D02*
X60325000Y-98365000D01*
X58995000Y-113725000D02*
X61655000Y-113725000D01*
X56455000Y-97155000D02*
X56455000Y-95825000D01*
X56455000Y-98425000D02*
X56455000Y-113725000D01*
X56455000Y-113725000D02*
X59115000Y-113725000D01*
X56455000Y-95825000D02*
X57785000Y-95825000D01*
X56455000Y-98425000D02*
X59115000Y-98425000D01*
X59115000Y-98425000D02*
X59115000Y-113725000D01*
%TO.C,U3*%
X104830000Y-39155000D02*
X105830000Y-38155000D01*
X94980000Y-39155000D02*
X104830000Y-39155000D01*
X82130000Y-39155000D02*
X92980000Y-39155000D01*
X82130000Y-15455000D02*
X82130000Y-39155000D01*
X105830000Y-15455000D02*
X82130000Y-15455000D01*
X105830000Y-38155000D02*
X105830000Y-15455000D01*
%TO.C,REF\u002A\u002A*%
X41215000Y-113725000D02*
X43875000Y-113725000D01*
X41215000Y-85665000D02*
X42545000Y-85665000D01*
X41215000Y-86995000D02*
X41215000Y-85665000D01*
X43875000Y-88265000D02*
X43875000Y-113725000D01*
X41215000Y-88265000D02*
X43875000Y-88265000D01*
X41215000Y-88265000D02*
X41215000Y-113725000D01*
%TO.C,U7*%
X103615000Y-112455000D02*
X103615000Y-86935000D01*
X98315000Y-112455000D02*
X103615000Y-112455000D01*
X98315000Y-86935000D02*
X98315000Y-112455000D01*
X99965000Y-86935000D02*
X98315000Y-86935000D01*
X103615000Y-86935000D02*
X101965000Y-86935000D01*
X99965000Y-86935000D02*
G75*
G03*
X101965000Y-86935000I1000000J0D01*
G01*
%TO.C,REF\u002A\u002A*%
X38675000Y-113725000D02*
X41335000Y-113725000D01*
X38675000Y-84455000D02*
X38675000Y-83125000D01*
X38675000Y-85725000D02*
X41335000Y-85725000D01*
X38675000Y-85725000D02*
X38675000Y-113725000D01*
X38675000Y-83125000D02*
X40005000Y-83125000D01*
X41335000Y-85725000D02*
X41335000Y-113725000D01*
%TO.C,U4*%
X69495000Y-64085000D02*
X67845000Y-64085000D01*
X73145000Y-64085000D02*
X71495000Y-64085000D01*
X67845000Y-64085000D02*
X67845000Y-99765000D01*
X73145000Y-99765000D02*
X73145000Y-64085000D01*
X67845000Y-99765000D02*
X73145000Y-99765000D01*
X69495000Y-64085000D02*
G75*
G03*
X71495000Y-64085000I1000000J0D01*
G01*
%TO.C,SW1*%
X34865000Y-14410000D02*
X34865000Y-21150000D01*
X34865000Y-14410000D02*
X42605000Y-14410000D01*
X42605000Y-14410000D02*
X42605000Y-21150000D01*
X34865000Y-21150000D02*
X42605000Y-21150000D01*
%TO.C,U6*%
X103605000Y-46295000D02*
X98305000Y-46295000D01*
X98305000Y-46295000D02*
X98305000Y-71815000D01*
X103605000Y-71815000D02*
X103605000Y-46295000D01*
X98305000Y-71815000D02*
X99955000Y-71815000D01*
X101955000Y-71815000D02*
X103605000Y-71815000D01*
X101955000Y-71815000D02*
G75*
G03*
X99955000Y-71815000I-1000000J0D01*
G01*
%TO.C,J3*%
X17720000Y-34300000D02*
X17720000Y-32970000D01*
X20380000Y-35570000D02*
X20380000Y-43250000D01*
X17720000Y-32970000D02*
X19050000Y-32970000D01*
X17720000Y-43250000D02*
X20380000Y-43250000D01*
X17720000Y-35570000D02*
X17720000Y-43250000D01*
X17720000Y-35570000D02*
X20380000Y-35570000D01*
%TO.C,REF\u002A\u002A*%
X53915000Y-113725000D02*
X56575000Y-113725000D01*
X53915000Y-94615000D02*
X53915000Y-93285000D01*
X56575000Y-95885000D02*
X56575000Y-113725000D01*
X53915000Y-95885000D02*
X56575000Y-95885000D01*
X53915000Y-95885000D02*
X53915000Y-113725000D01*
X53915000Y-93285000D02*
X55245000Y-93285000D01*
%TO.C,C3*%
X21525000Y-42605000D02*
X21525000Y-41275000D01*
X26725000Y-42605000D02*
X26725000Y-39945000D01*
X24125000Y-39945000D02*
X26725000Y-39945000D01*
X24125000Y-42605000D02*
X24125000Y-39945000D01*
X22855000Y-42605000D02*
X21525000Y-42605000D01*
X24125000Y-42605000D02*
X26725000Y-42605000D01*
%TO.C,REF\u002A\u002A*%
X54035000Y-93345000D02*
X54035000Y-113725000D01*
X51375000Y-93345000D02*
X54035000Y-93345000D01*
X51375000Y-90745000D02*
X52705000Y-90745000D01*
X51375000Y-93345000D02*
X51375000Y-113725000D01*
X51375000Y-92075000D02*
X51375000Y-90745000D01*
X51375000Y-113725000D02*
X54035000Y-113725000D01*
%TO.C,J4*%
X116395000Y-42905000D02*
X115985000Y-42905000D01*
X116395000Y-88625000D02*
X115985000Y-88625000D01*
X113885000Y-27665000D02*
X113445000Y-27665000D01*
X116395000Y-98785000D02*
X115985000Y-98785000D01*
X125025000Y-109795000D02*
X116395000Y-109795000D01*
X125025000Y-64135000D02*
X116395000Y-64135000D01*
X116395000Y-87905000D02*
X115985000Y-87905000D01*
X125025000Y-66675000D02*
X116395000Y-66675000D01*
X125025000Y-97155000D02*
X116395000Y-97155000D01*
X125025000Y-108732145D02*
X116395000Y-108732145D01*
X116395000Y-73385000D02*
X115985000Y-73385000D01*
X113885000Y-32025000D02*
X113445000Y-32025000D01*
X125025000Y-20955000D02*
X116395000Y-20955000D01*
X113885000Y-26945000D02*
X113445000Y-26945000D01*
X111285000Y-109915000D02*
X111285000Y-108585000D01*
X125025000Y-41275000D02*
X116395000Y-41275000D01*
X113885000Y-95525000D02*
X113445000Y-95525000D01*
X113885000Y-98785000D02*
X113445000Y-98785000D01*
X113885000Y-55605000D02*
X113445000Y-55605000D01*
X116395000Y-90445000D02*
X115985000Y-90445000D01*
X113885000Y-40365000D02*
X113445000Y-40365000D01*
X125025000Y-94615000D02*
X116395000Y-94615000D01*
X113885000Y-45445000D02*
X113445000Y-45445000D01*
X113885000Y-58145000D02*
X113445000Y-58145000D01*
X125025000Y-109915000D02*
X116395000Y-109915000D01*
X116395000Y-95525000D02*
X115985000Y-95525000D01*
X116395000Y-55605000D02*
X115985000Y-55605000D01*
X116395000Y-40365000D02*
X115985000Y-40365000D01*
X116395000Y-45445000D02*
X115985000Y-45445000D01*
X113885000Y-83545000D02*
X113445000Y-83545000D01*
X116395000Y-103865000D02*
X115985000Y-103865000D01*
X113885000Y-47265000D02*
X113445000Y-47265000D01*
X116395000Y-68305000D02*
X115985000Y-68305000D01*
X116395000Y-52345000D02*
X115985000Y-52345000D01*
X125025000Y-109204525D02*
X116395000Y-109204525D01*
X116395000Y-83545000D02*
X115985000Y-83545000D01*
X125025000Y-71755000D02*
X116395000Y-71755000D01*
X125025000Y-109086430D02*
X116395000Y-109086430D01*
X116395000Y-47265000D02*
X115985000Y-47265000D01*
X125025000Y-108259765D02*
X116395000Y-108259765D01*
X116395000Y-47985000D02*
X115985000Y-47985000D01*
X113885000Y-34565000D02*
X113445000Y-34565000D01*
X113885000Y-86085000D02*
X113445000Y-86085000D01*
X113885000Y-25125000D02*
X113445000Y-25125000D01*
X113885000Y-21865000D02*
X113445000Y-21865000D01*
X116395000Y-26945000D02*
X115985000Y-26945000D01*
X116395000Y-58145000D02*
X115985000Y-58145000D01*
X116395000Y-105685000D02*
X115985000Y-105685000D01*
X113885000Y-57425000D02*
X113445000Y-57425000D01*
X116395000Y-29485000D02*
X115985000Y-29485000D01*
X113885000Y-62505000D02*
X113445000Y-62505000D01*
X125025000Y-108614050D02*
X116395000Y-108614050D01*
X113885000Y-65765000D02*
X113445000Y-65765000D01*
X125025000Y-28575000D02*
X116395000Y-28575000D01*
X125025000Y-84455000D02*
X116395000Y-84455000D01*
X125025000Y-107787385D02*
X116395000Y-107787385D01*
X116395000Y-35285000D02*
X115985000Y-35285000D01*
X125025000Y-31115000D02*
X116395000Y-31115000D01*
X116395000Y-75205000D02*
X115985000Y-75205000D01*
X113885000Y-70845000D02*
X113445000Y-70845000D01*
X113885000Y-35285000D02*
X113445000Y-35285000D01*
X116395000Y-103145000D02*
X115985000Y-103145000D01*
X116395000Y-59965000D02*
X115985000Y-59965000D01*
X116395000Y-108945000D02*
X115985000Y-108945000D01*
X116395000Y-109915000D02*
X116395000Y-18355000D01*
X125025000Y-108968335D02*
X116395000Y-108968335D01*
X125025000Y-108141670D02*
X116395000Y-108141670D01*
X113885000Y-37105000D02*
X113445000Y-37105000D01*
X116395000Y-78465000D02*
X115985000Y-78465000D01*
X125025000Y-46355000D02*
X116395000Y-46355000D01*
X125025000Y-107905480D02*
X116395000Y-107905480D01*
X125025000Y-53975000D02*
X116395000Y-53975000D01*
X113885000Y-72665000D02*
X113445000Y-72665000D01*
X116395000Y-86085000D02*
X115985000Y-86085000D01*
X116395000Y-50525000D02*
X115985000Y-50525000D01*
X116395000Y-77745000D02*
X115985000Y-77745000D01*
X125025000Y-104775000D02*
X116395000Y-104775000D01*
X116395000Y-67585000D02*
X115985000Y-67585000D01*
X113885000Y-70125000D02*
X113445000Y-70125000D01*
X113885000Y-78465000D02*
X113445000Y-78465000D01*
X113885000Y-53065000D02*
X113445000Y-53065000D01*
X113885000Y-106405000D02*
X113445000Y-106405000D01*
X125025000Y-74295000D02*
X116395000Y-74295000D01*
X113885000Y-19325000D02*
X113445000Y-19325000D01*
X125025000Y-92075000D02*
X116395000Y-92075000D01*
X116395000Y-44725000D02*
X115985000Y-44725000D01*
X116395000Y-39645000D02*
X115985000Y-39645000D01*
X113885000Y-85365000D02*
X113445000Y-85365000D01*
X113885000Y-103865000D02*
X113445000Y-103865000D01*
X113885000Y-30205000D02*
X113445000Y-30205000D01*
X113885000Y-59965000D02*
X113445000Y-59965000D01*
X113885000Y-63225000D02*
X113445000Y-63225000D01*
X125025000Y-108023575D02*
X116395000Y-108023575D01*
X125025000Y-108495955D02*
X116395000Y-108495955D01*
X112395000Y-109915000D02*
X111285000Y-109915000D01*
X125025000Y-108377860D02*
X116395000Y-108377860D01*
X116395000Y-63225000D02*
X115985000Y-63225000D01*
X116395000Y-80285000D02*
X115985000Y-80285000D01*
X125025000Y-51435000D02*
X116395000Y-51435000D01*
X113885000Y-108225000D02*
X113505000Y-108225000D01*
X116395000Y-92985000D02*
X115985000Y-92985000D01*
X113885000Y-47985000D02*
X113445000Y-47985000D01*
X113885000Y-82825000D02*
X113445000Y-82825000D01*
X116395000Y-93705000D02*
X115985000Y-93705000D01*
X116395000Y-54885000D02*
X115985000Y-54885000D01*
X125025000Y-86995000D02*
X116395000Y-86995000D01*
X116395000Y-37105000D02*
X115985000Y-37105000D01*
X125025000Y-107669290D02*
X116395000Y-107669290D01*
X116395000Y-25125000D02*
X115985000Y-25125000D01*
X125025000Y-109915000D02*
X125025000Y-18355000D01*
X113885000Y-92985000D02*
X113445000Y-92985000D01*
X125025000Y-109558810D02*
X116395000Y-109558810D01*
X113885000Y-54885000D02*
X113445000Y-54885000D01*
X116395000Y-85365000D02*
X115985000Y-85365000D01*
X116395000Y-32025000D02*
X115985000Y-32025000D01*
X116395000Y-82825000D02*
X115985000Y-82825000D01*
X125025000Y-56515000D02*
X116395000Y-56515000D01*
X113885000Y-42185000D02*
X113445000Y-42185000D01*
X116395000Y-27665000D02*
X115985000Y-27665000D01*
X113885000Y-67585000D02*
X113445000Y-67585000D01*
X125025000Y-102235000D02*
X116395000Y-102235000D01*
X125025000Y-81915000D02*
X116395000Y-81915000D01*
X113885000Y-32745000D02*
X113445000Y-32745000D01*
X113885000Y-81005000D02*
X113445000Y-81005000D01*
X125025000Y-107433100D02*
X116395000Y-107433100D01*
X125025000Y-99695000D02*
X116395000Y-99695000D01*
X116395000Y-42185000D02*
X115985000Y-42185000D01*
X116395000Y-19325000D02*
X115985000Y-19325000D01*
X125025000Y-18355000D02*
X116395000Y-18355000D01*
X116395000Y-34565000D02*
X115985000Y-34565000D01*
X113885000Y-24405000D02*
X113445000Y-24405000D01*
X125025000Y-59055000D02*
X116395000Y-59055000D01*
X116395000Y-65765000D02*
X115985000Y-65765000D01*
X113885000Y-39645000D02*
X113445000Y-39645000D01*
X116395000Y-81005000D02*
X115985000Y-81005000D01*
X116395000Y-20045000D02*
X115985000Y-20045000D01*
X116395000Y-37825000D02*
X115985000Y-37825000D01*
X113885000Y-75925000D02*
X113445000Y-75925000D01*
X116395000Y-30205000D02*
X115985000Y-30205000D01*
X113885000Y-91165000D02*
X113445000Y-91165000D01*
X125025000Y-109676905D02*
X116395000Y-109676905D01*
X113885000Y-44725000D02*
X113445000Y-44725000D01*
X116395000Y-60685000D02*
X115985000Y-60685000D01*
X116395000Y-21865000D02*
X115985000Y-21865000D01*
X113885000Y-88625000D02*
X113445000Y-88625000D01*
X125025000Y-76835000D02*
X116395000Y-76835000D01*
X113885000Y-87905000D02*
X113445000Y-87905000D01*
X116395000Y-57425000D02*
X115985000Y-57425000D01*
X113885000Y-96245000D02*
X113445000Y-96245000D01*
X113885000Y-90445000D02*
X113445000Y-90445000D01*
X113885000Y-105685000D02*
X113445000Y-105685000D01*
X125025000Y-89535000D02*
X116395000Y-89535000D01*
X113885000Y-20045000D02*
X113445000Y-20045000D01*
X116395000Y-75925000D02*
X115985000Y-75925000D01*
X125025000Y-69215000D02*
X116395000Y-69215000D01*
X116395000Y-70125000D02*
X115985000Y-70125000D01*
X113885000Y-60685000D02*
X113445000Y-60685000D01*
X116395000Y-106405000D02*
X115985000Y-106405000D01*
X113885000Y-77745000D02*
X113445000Y-77745000D01*
X116395000Y-101325000D02*
X115985000Y-101325000D01*
X113885000Y-65045000D02*
X113445000Y-65045000D01*
X125025000Y-43815000D02*
X116395000Y-43815000D01*
X113885000Y-50525000D02*
X113445000Y-50525000D01*
X125025000Y-109440715D02*
X116395000Y-109440715D01*
X113885000Y-29485000D02*
X113445000Y-29485000D01*
X125025000Y-36195000D02*
X116395000Y-36195000D01*
X113885000Y-100605000D02*
X113445000Y-100605000D01*
X125025000Y-61595000D02*
X116395000Y-61595000D01*
X116395000Y-62505000D02*
X115985000Y-62505000D01*
X116395000Y-72665000D02*
X115985000Y-72665000D01*
X113885000Y-37825000D02*
X113445000Y-37825000D01*
X113885000Y-42905000D02*
X113445000Y-42905000D01*
X113885000Y-75205000D02*
X113445000Y-75205000D01*
X125025000Y-108850240D02*
X116395000Y-108850240D01*
X125025000Y-109322620D02*
X116395000Y-109322620D01*
X113885000Y-103145000D02*
X113445000Y-103145000D01*
X125025000Y-107551195D02*
X116395000Y-107551195D01*
X113885000Y-49805000D02*
X113445000Y-49805000D01*
X125025000Y-26035000D02*
X116395000Y-26035000D01*
X116395000Y-96245000D02*
X115985000Y-96245000D01*
X116395000Y-100605000D02*
X115985000Y-100605000D01*
X125025000Y-107315000D02*
X116395000Y-107315000D01*
X116395000Y-22585000D02*
X115985000Y-22585000D01*
X116395000Y-49805000D02*
X115985000Y-49805000D01*
X125025000Y-33655000D02*
X116395000Y-33655000D01*
X116395000Y-24405000D02*
X115985000Y-24405000D01*
X113885000Y-22585000D02*
X113445000Y-22585000D01*
X113885000Y-68305000D02*
X113445000Y-68305000D01*
X116395000Y-32745000D02*
X115985000Y-32745000D01*
X116395000Y-53065000D02*
X115985000Y-53065000D01*
X113885000Y-101325000D02*
X113445000Y-101325000D01*
X116395000Y-108225000D02*
X115985000Y-108225000D01*
X116395000Y-70845000D02*
X115985000Y-70845000D01*
X125025000Y-23495000D02*
X116395000Y-23495000D01*
X116395000Y-65045000D02*
X115985000Y-65045000D01*
X113885000Y-80285000D02*
X113445000Y-80285000D01*
X113885000Y-108945000D02*
X113505000Y-108945000D01*
X125025000Y-38735000D02*
X116395000Y-38735000D01*
X116395000Y-91165000D02*
X115985000Y-91165000D01*
X125025000Y-48895000D02*
X116395000Y-48895000D01*
X113885000Y-93705000D02*
X113445000Y-93705000D01*
X113885000Y-52345000D02*
X113445000Y-52345000D01*
X125025000Y-79375000D02*
X116395000Y-79375000D01*
X113885000Y-73385000D02*
X113445000Y-73385000D01*
X113885000Y-98065000D02*
X113445000Y-98065000D01*
X116395000Y-98065000D02*
X115985000Y-98065000D01*
%TO.C,REF\u002A\u002A*%
X36255000Y-78105000D02*
X36255000Y-113725000D01*
X33595000Y-78105000D02*
X36255000Y-78105000D01*
X33595000Y-78105000D02*
X33595000Y-113725000D01*
X33595000Y-76835000D02*
X33595000Y-75505000D01*
X33595000Y-75505000D02*
X34925000Y-75505000D01*
X33595000Y-113725000D02*
X36255000Y-113725000D01*
X38795000Y-83185000D02*
X38795000Y-113725000D01*
X36135000Y-113725000D02*
X38795000Y-113725000D01*
X36135000Y-83185000D02*
X38795000Y-83185000D01*
X36135000Y-80585000D02*
X37465000Y-80585000D01*
X36135000Y-83185000D02*
X36135000Y-113725000D01*
X36135000Y-81915000D02*
X36135000Y-80585000D01*
%TO.C,J1*%
X24150000Y-31197500D02*
X23650000Y-31697500D01*
X19290000Y-30997500D02*
X19290000Y-27247500D01*
X31510000Y-14377500D02*
X19290000Y-14377500D01*
X19290000Y-14377500D02*
X19290000Y-22347500D01*
X31510000Y-30997500D02*
X19290000Y-30997500D01*
X24650000Y-31697500D02*
X24150000Y-31197500D01*
X31510000Y-30997500D02*
X31510000Y-27247500D01*
X23650000Y-31697500D02*
X24650000Y-31697500D01*
X31510000Y-14377500D02*
X31510000Y-22347500D01*
%TD*%
M02*
